<?xml version="1.0" encoding="utf-8"?>
<!-- Generator: Adobe Illustrator 22.0.1, SVG Export Plug-In . SVG Version: 6.00 Build 0)  -->
<svg version="1.1" id="Layer_1" xmlns="http://www.w3.org/2000/svg" xmlns:xlink="http://www.w3.org/1999/xlink" x="0px" y="0px"
	 width="720px" height="720px" viewBox="0 0 720 720" style="enable-background:new 0 0 720 720;" xml:space="preserve">
<style type="text/css">
	.st0{fill:#FCB514;}
	.st1{fill:#FFFFFF;}
	.st2{fill:#111111;}
</style>
<g>
	<path class="st0" d="M360,684c178.9402466,0,324-145.0597534,324-324S538.9402466,36,360,36s-324,145.0597534-324,324
		C36.01054,538.9358521,181.0641174,683.9894409,360,684z"/>
	<path class="st1" d="M225.7732544,180.420929l-29.5376129-29.5376129
		c38.0500793-29.8800049,83.5775604-48.7332458,131.6126251-54.500824v83.9077606v0.1306763H225.7732544z M470.4398193,204.0773468
		l53.1940308-53.1940308c-38.0500793-29.8800049-83.5778503-48.7332458-131.612915-54.500824v84.0384369h54.1090698
		L470.4398193,204.0773468z M508.995575,327.8482666h114.6221008
		c-5.7678833-48.0350647-24.6207886-93.5625458-54.5010986-131.6126251l-60.1210022,60.1209869V327.8482666z
		 M233.3539124,278.7059326l-82.4702911-82.4702911c-29.8845673,38.0604401-48.7783279,83.5769501-54.6318054,131.6126251
		h137.1020966V278.7059326z M508.995575,463.6432495l60.1210022,59.9902954
		c29.9241333-38.0242004,48.7825928-83.5647583,54.5010986-131.6126099H508.995575V463.6432495z M446.1300049,539.5789185
		h-54.1090698v84.0387573c48.0813599-5.7426147,93.6575623-24.5967407,131.7435913-54.5010986l-53.1940002-53.1940308
		L446.1300049,539.5789185z M233.3539124,392.0209351H96.2518158
		c5.8236313,48.0435791,24.7204285,93.5677185,54.6318054,131.6126099l82.4702911-82.4702759V392.0209351z M196.2356415,569.1165771
		c38.0394287,29.8982544,83.5723724,48.7532959,131.6129303,54.5007935v-84.0384521H225.7732544L196.2356415,569.1165771z
		 M407.8353271,304.7148743v-20.9118347l-7.3190002-7.0576172h-69.4004517v35.0270691h69.4004517L407.8353271,304.7148743z
		 M407.8353271,436.0661316v-20.9118042l-7.3190002-6.9269714h-69.4004517v34.8964233h69.4004517L407.8353271,436.0661316z"/>
	<path class="st2" d="M421.4281616,409.5344543l-15.291687-14.8996277h-88.6131287v62.0814819h88.6131287l15.291687-14.8993225
		V409.5344543z M407.8353271,436.0661316l-7.3190002,7.0576477h-69.4004517V408.227356h69.4004517l7.3190002,6.9269714V436.0661316z
		 M360.0000916,48.0242271c-172.299469,0-311.9758606,139.6760864-311.9758606,311.9755554
		c0.0280228,172.2878723,139.687973,311.9478455,311.9758606,311.9758606
		c172.299469,0,311.9758606-139.6760864,311.9758606-311.9758606
		C671.9759521,187.7003174,532.2995605,48.0242271,360.0000916,48.0242271z M623.6176758,327.8482666H508.995575v-71.4916382
		l60.1210022-60.1209869C598.9968872,234.2857208,617.8497925,279.8132019,623.6176758,327.8482666z M559.8370361,184.9953308
		l-53.7167053,53.7170563l-25.224884-24.571167l53.9783936-53.9784088
		C543.7393799,167.8744507,552.0791016,176.1703339,559.8370361,184.9953308z M224.5959167,242.6333923v-48.7496948h216.0440369
		l54.7643127,53.3241119v89.266861l-24.178833,23.525116l24.178833,23.3956604v89.3966064l-54.7643127,53.1943359H224.5959167
		v-48.7496948l22.3499146-21.6958923V264.4590759L224.5959167,242.6333923z M392.0209351,96.3824921
		c48.0350647,5.7675781,93.5628357,24.6208191,131.612915,54.500824l-53.1940308,53.1940308l-24.3098145-23.6564178h-54.1090698
		V96.3824921z M342.3558655,94.9447098c5.8815002-0.3920441,11.6320496-0.6537094,17.6442261-0.6537094
		c5.8815002,0,11.7627258,0.2616653,17.5135498,0.6537094v85.3455429h-35.1577759V94.9447098z M327.8482666,96.3824921v83.9077606
		v0.1306763H225.7732544l-29.5376129-29.5376129C234.2857208,121.0033112,279.8132019,102.1500702,327.8482666,96.3824921z
		 M184.9956512,160.1628113l26.0089417,25.8782654v49.7957458l-50.8414764-50.8414917
		C167.8756714,176.1718597,176.1718597,167.8756561,184.9956512,160.1628113z M150.8836212,196.2356415l82.4702911,82.4702911
		v49.142334H96.2518158C102.1052933,279.8125916,120.999054,234.2960815,150.8836212,196.2356415z M94.2913055,360.0000916
		c0-6.012207,0.2613602-11.8937073,0.6534042-17.6445313h138.4092102v35.1577759H94.9447098
		C94.5526657,371.7627869,94.2913055,365.8812866,94.2913055,360.0000916z M96.2518158,392.0209351h137.1020966v49.142334
		l-82.4702911,82.4702759C120.9722443,485.5886536,102.0754471,440.0645142,96.2518158,392.0209351z M160.1631165,534.8735352
		l50.8414764-50.8414612v49.796051l-25.8782654,26.0089111C176.2276001,552.1144409,167.8857117,543.772583,160.1631165,534.8735352
		z M327.8485718,623.6173706c-48.0405579-5.7474976-93.5735016-24.6025391-131.6129303-54.5007935l29.5376129-29.5376587
		h102.0753174V623.6173706z M377.5136414,624.9244995c-5.750824,0.3920288-11.6320496,0.6533813-17.5135498,0.6533813
		c-6.0121765,0-11.7627258-0.2613525-17.6442261-0.6533813v-85.3455811h35.1577759V624.9244995z M392.0209351,623.6176758
		v-84.0387573h54.1090698l24.4405212-23.6563721l53.1940002,53.1940308
		C485.6784973,599.0209351,440.1022949,617.875061,392.0209351,623.6176758z M534.8738403,559.8370361l-53.9780884-53.9783936
		l25.2245789-24.571167l53.5860291,53.5860596C552.0288696,543.7710571,543.7305298,552.112915,534.8738403,559.8370361z
		 M569.1165771,523.6335449l-60.1210022-59.9902954v-71.6223145h114.6221008
		C617.8991699,440.0687866,599.0407104,485.6093445,569.1165771,523.6335449z M508.8648987,377.5133362l-18.1669312-17.5135498
		l18.1669312-17.6442261H625.055481c0.2613525,5.750824,0.6533813,11.6323242,0.6533813,17.6442261
		c0,5.8815002-0.3920288,11.7630005-0.7840576,17.5135498H508.8648987z M235.8383484,482.0730896v32.6736145h200.3599854
		l47.9631958-46.7910156v-79.723877l-29.0124512-28.2320251l29.0124512-28.2317505v-79.856369l-48.0957031-46.6585083h-200.227478
		v32.543869l22.4796753,21.8256836v200.6219482L235.8383484,482.0730896z M306.1526489,251.9128876H410.710907
		l21.9572449,21.4342499v41.8233337l-22.0879517,21.4345703H306.1526489V251.9128876z M306.1526489,383.2641602H410.710907
		L432.6681519,404.6987v41.9537354l-22.0879517,21.3038635H306.1526489V383.2641602z M421.4281616,278.0522156
		l-15.291687-14.8993225h-88.6131287v62.2121582h88.6131287l15.291687-14.8996582V278.0522156z M407.8353271,304.7148743
		l-7.3190002,7.0576172h-69.4004517v-35.0270691h69.4004517l7.3190002,7.0576172V304.7148743z"/>
</g>
</svg>
