<?xml version="1.0" encoding="utf-8"?>
<!-- Generator: Adobe Illustrator 22.0.1, SVG Export Plug-In . SVG Version: 6.00 Build 0)  -->
<svg version="1.1" id="Layer_1" xmlns="http://www.w3.org/2000/svg" xmlns:xlink="http://www.w3.org/1999/xlink" x="0px" y="0px"
	 width="720px" height="720px" viewBox="0 0 720 720" style="enable-background:new 0 0 720 720;" xml:space="preserve">
<style type="text/css">
	.st0{fill:#A4A9AD;}
	.st1{fill:#002654;}
	.st2{fill:#FFFFFF;}
	.st3{fill:#CE1126;}
</style>
<g>
	<path class="st0" d="M557.8765869,482.7253113L684,192.5760803
		c-62.8253174,36.2851563-128.116394,68.1227417-195.3933105,95.2787476l179.0560303-133.0504303l-112.7922974,19.3432922
		c-16.0757446-9.6716461-72.1451416-38.6866913-162.7187805-38.6866913c0,0-7.9725647,0.2613525-14.7688599,0.3920288
		c-3.2674255-9.8021545-19.0818787-56.0692062-19.0818787-56.0692062l-28.8842773,59.8596268
		C164.4759521,160.8164825,36,258.3171082,36,363.5288391c0,47.051239,20.1274719,108.8713074,112.9229584,142.3299866
		l-46.7898407,115.7982788l123.9015808-97.7620239c29.2058716,3.8161621,58.6366577,5.6501465,88.0903625,5.4893188
		c36.5384827,0.0195923,73.0241089-2.7769775,109.1328125-8.364624l135.5336914,119.1964111L512.524292,500.5003052
		C527.97052,495.4512329,543.1130981,489.5163879,557.8765869,482.7253113z"/>
	<path class="st1" d="M660.7357178,218.8461304c0,0-106.2574463,61.8200989-224.6697083,102.7287292l-4.1820984-11.501709
		l203.1045532-140.7613983l-225.7152405,57.7682953l126.2539978-50.9720612c0,0-53.4555664-29.7990723-143.3755188-29.7990723
		c-7.4498901,0-15.030426,0.1306152-22.4800415,0.5227661l-13.0697021-38.4254227l-70.1849365,145.7284241l-107.3029938,30.4527283
		l99.5918427-40.7776947l32.674408-66.5252838l6.7962341-13.9846191l5.8813171-12.0241852
		C174.2782288,172.7098694,46.8477669,261.9764404,46.8477669,363.528717
		c0,56.984314,31.3676567,109.1328125,117.1054993,135.9259033l-44.3067474,96.5856018l103.2514954-83.6464844
		c30.2231903,4.2098999,60.7127075,6.2193604,91.2270203,6.0119019c37.682373,0.0472412,75.3094482-2.8807373,112.5309143-8.7566528
		l114.491394,101.6829224l-42.8690796-117.758606c17.5603027-4.8728638,34.6946411-11.1672363,51.2335815-18.8204041
		L660.7357178,218.8461304z M580.7489014,292.2985535l6.7962646-9.671875l1.0454712,8.756958l11.8936157-1.3070374
		l-11.2402344,6.9268494l2.4832153,10.5864868l-9.4100342-6.4040833l-12.2857056,6.7962341l6.6655884-9.9328003
		l-7.9726563-4.1824341L580.7489014,292.2985535z M556.046875,346.0153809l9.8021851-1.1764526l6.1428833-7.7111511
		l0.2612305,6.9271545l9.671875-1.0458374l-9.671875,5.4894714l1.3070679,8.4954529l-7.1884155-5.0973206l-10.3249512,5.358551
		l6.0119019-7.8417664L556.046875,346.0153809z M556.046875,383.0028076l0.1306152,6.4040833l8.8875732-1.0455017
		l-8.756958,5.0973206l1.1764526,7.7111511l-6.6656494-4.7052002l-9.5409546,4.9664307l5.6200562-7.188385l-5.6200562-3.0059814
		l9.0181885-1.1761475L556.046875,383.0028076z M498.5397949,175.1930695
		c-39.966217-8.1968536-80.9184875-10.4866791-121.5491333-6.7962341l-3.7902832-11.2401886
		C456.0628662,154.5428314,498.5397949,175.1930695,498.5397949,175.1930695z M306.675415,270.2103577l46.0056458-109.9171143
		l29.0147705,90.8351593l165.0713196-39.9934235h0.1306152L406.2669373,303.015686l9.5409851,25.2244873
		c-16.4678345,5.2279663-33.0665588,10.0637512-49.5343933,14.1155396
		c-0.0238953,0.0059814-0.0475159,0.0107727-0.0714417,0.0167542l0.0714417,0.1138611
		c-12.2857056,3.0062866-24.7020264,5.7507019-37.2489624,7.9726868
		c-15.6455688,2.8344116-31.4432983,4.7544861-47.312439,5.7507019c-6.1428528,0.3918457-12.2857056,0.6533813-18.2979431,0.6533813
		c-0.0230103,0-0.0427246-0.0011902-0.0654602-0.0011902c-0.0212097,0-0.0439453,0.0011902-0.065155,0.0011902
		c-0.9313354,0-1.7894592-0.0281067-2.6843567-0.0546875c-1.268219-0.0367737-2.5032349-0.0759277-3.7197266-0.0759277
		l-4.7051849-0.1309204l16.8599701-33.589325l-87.6982727-21.4342346L306.675415,270.2103577z M238.9736786,335.690094
		l-8.7566681,19.3431702c-57.7683105-7.3190002-42.9996948-33.589325-42.9996948-33.589325L238.9736786,335.690094z
		 M157.2876434,546.3751831l20.7808533-41.6925964c1.1764374,0.1306152,2.2219696,0.2612305,3.2675018,0.3921204
		c1.256546,0.133606,2.4879913,0.4414673,3.6596527,0.9146423c6.0119324,2.0913391,8.8872833,6.6656189,11.3704987,11.2401428
		L157.2876434,546.3751831z M501.1536255,555.3931274l-38.2945251-30.3218384
		c0.5230713-1.9604492,0.9152222-3.9208984,1.4376831-5.6201172c1.1423645-3.923584,3.4154663-7.4238892,6.5350037-10.0637207
		c3.3559875-2.4150696,7.0571594-4.3097534,10.9786377-5.6197815L501.1536255,555.3931274z M309.1585999,502.591217
		c-205.9799194,0-246.104248-80.2483521-246.104248-141.5457153c0.0322838-13.3703918,2.1941795-26.6499023,6.4043846-39.3400269
		c17.252121-50.9723511,62.6040955-78.4188385,62.6040955-78.4188385s50.4496002-53.1940308,186.113678-79.9871368
		l-6.7962341,13.9846191c-31.6288757,8.3648376-172.7824402,49.795929-172.7824402,130.0445862
		c0,26.7930908,39.9934235,67.0480347,126.515564,67.0480347c128.7372131,0,283.8756714-84.6922913,283.8756714-84.6922913
		c-27.7758179,22.335083-57.2748108,42.4380493-88.2210388,60.1208801c-0.2187805,0.12854-0.4363708,0.2489929-0.6551514,0.3771973
		c0.2104187-0.0794983,0.4504395-0.1688538,0.6551514-0.2462769
		c-38.2944946,22.3494568-76.3277588,41.0392456-105.8652954,54.6317139
		c-33.0665588,15.1607666-55.4160156,23.7868347-55.4160156,23.7868347
		c25.4582214,7.6645203,51.3355103,13.8611755,77.5039368,18.5591736
		c28.1001587,5.2279358,56.4615173,9.4103699,84.9535217,12.2857056
		c23.6565247,2.3522949,47.4433594,3.9208984,71.2304993,4.5742798
		C533.1746826,463.7739563,455.4094849,502.591217,309.1585999,502.591217z M486.6462402,445.2147522l-5.3585815-3.9208679
		l-7.842041,3.9208679l4.7051697-5.7507019l-4.443634-2.6138l7.3190002-0.7843018l4.7051697-5.7504272l0.0003052,5.2276611
		l7.3190002-0.5227661l-7.188385,3.9208679L486.6462402,445.2147522z M474.0993042,405.8747253
		c-6.5350037-13.8540039,2.0910339-33.8505554,19.2125549-44.6985779
		c17.2521057-10.9786682,36.4646912-8.4954529,42.9993591,5.358551h0.1309204
		c6.4041138,13.8540039-2.0910645,33.7202454-19.3431396,44.6985779
		C499.8468628,422.0813293,480.7649231,419.7287292,474.0993042,405.8747253z M470.7011719,372.1547852l-6.0119324-4.3127441
		l-8.4954529,4.4436646l4.9664001-6.4043884l-4.9664001-2.744751l8.1029968-1.0455322l5.0973206-6.4040833l0.1306152,5.7507019
		l0.0003052,0.1306152l7.9723816-0.9148865l-7.8417664,4.4439392L470.7011719,372.1547852z M454.3639526,406.0053406
		l-4.7051697-3.2672119l-6.6656189,3.5287476l3.9208984-5.0973206l-3.9208984-2.0910645l6.4040833-0.9146118l4.0517883-4.9667053
		l0.1306458,4.5745544l6.273468-0.7843018l-6.1425781,3.6593628L454.3639526,406.0053406z M439.5950623,439.4640503
		l-4.4439697-3.528717l-6.9268494,3.3981018l4.0515137-4.9667053l-3.9208984-2.2216797l6.4043884-0.7839966l4.1821289-4.9667053
		v4.5745544l6.2737732-0.5230408l-6.2737732,3.3981018L439.5950623,439.4640503z M530.5605469,329.6781616l3.1368408,8.2339172
		l-8.6260376-4.4439392l-9.6715698,6.5350037l4.7051392-8.4954529l-7.0577393-2.7444458l9.8021851-2.0913391l4.8358154-8.3645325
		l1.829834,6.9268494l9.9331055-1.9604492L530.5605469,329.6781616z M416.984375,402.9993591l-4.9664307-3.6596375
		l-7.5805054,3.7902832l4.443634-5.619812l-4.443634-2.3525696l7.0577393-0.914917l4.4436646-5.4891968l0.1306152,4.9664307
		l6.9271545-0.7843018l-6.7962341,3.9208679L416.984375,402.9993591z M402.607605,434.2361145l-4.5745544-3.3981323
		l-6.7962341,3.2675171l4.0514832-4.9664001l-3.9208679-2.2219849l6.4043884-0.6533813l4.0514832-4.9664001v4.5742493
		l6.4043884-0.6533813l-6.273468,3.5287476L402.607605,434.2361145z M365.4892273,426.9174194l-4.8354797-3.5290527
		l-7.188385,3.7902832l4.1824036-5.4894714l-4.1824036-2.2216797l6.6656189-0.914917l4.3130188-5.358551l0.1306152,4.9664001
		l6.6656189-0.7839966l-6.6656189,3.7902832L365.4892273,426.9174194z M538.5332031,448.3513489l-7.0577393-5.2276306
		l-10.4559326,5.0970154l6.2738037-7.7111511l-6.0122681-3.3981018l9.8025513-1.0455322l6.4040527-7.7111511v7.0577698
		l9.8024902-0.914917l-9.6715698,5.358551L538.5332031,448.3513489z"/>
	<path class="st2" d="M94.4220123,313.3409424c0-43.7839661,37.7717438-70.054306,37.7717438-70.054306
		s-20.5196228,24.1792755-20.5196228,56.0693817c0,35.6806946,34.2427063,98.9384766,143.3755341,98.9384766
		c71.5556488,0,172.2420502-35.7323914,205.0632172-48.111969c0.2104187-0.0794983,0.4504395-0.1688538,0.6551514-0.2462769
		c-38.2944946,22.3494568-76.3277588,41.0392456-105.8652954,54.6317139
		c-37.8736572,9.7654419-76.8170776,14.7704163-115.9290619,14.8995361
		C166.3058472,419.4674988,94.4220123,385.4860229,94.4220123,313.3409424z M517.098999,411.2332764
		c-17.2521362,10.848053-36.3340759,8.4954529-42.9996948-5.358551
		c-6.5350037-13.8540039,2.0910339-33.8505554,19.2125549-44.6985779
		c17.2521057-10.9786682,36.4646912-8.4954529,42.9993591,5.358551h0.1309204
		C542.8462524,380.3887024,534.3510742,400.2549438,517.098999,411.2332764z M530.0377808,369.9328003
		c-4.9664307-11.5014038-20.2581177-13.5924683-34.1121216-4.8357849
		c-13.9846191,8.7569885-21.3036194,25.3554077-16.3371887,36.856842
		c4.8357849,11.5014038,20.1274719,13.7233887,34.1120911,4.8357849
		C527.6854858,398.032959,535.0044556,381.4342346,530.0377808,369.9328003z M281.0584717,453.187439
		c-202.9736633,0-211.9918823-108.0872803-211.5997314-131.4819641c-4.2102051,12.6901245-6.3721008,25.969635-6.4043846,39.3400269
		c0,0,2.0913582,119.5884094,233.9491577,119.5884094c75.4128723,0,143.3755493-15.9450684,164.9406738-21.4342346
		c-28.4920044-2.8753357-56.853363-7.0577698-84.9535217-12.2857056
		C345.2171021,451.4185791,313.1482544,453.515625,281.0584717,453.187439z M556.1774902,389.4068909l-0.1306152-6.4040833
		l-5.7507324,7.0577698l-9.0181885,1.1761475l5.6200562,3.0059814l-5.6200562,7.188385l9.5409546-4.9664307l6.6656494,4.7052002
		l-1.1764526-7.7111511l8.756958-5.0973206L556.1774902,389.4068909z M572.2531738,344.0549316l-0.2612305-6.9271545
		l-6.1428833,7.7111511l-9.8021851,1.1764526l6.0119019,3.3981018l-6.0119019,7.8417664l10.3249512-5.358551l7.1884155,5.0973206
		l-1.3070679-8.4954529l9.671875-5.4894714L572.2531738,344.0549316z M364.5746155,418.1604309l-0.1306152-4.9664001
		l-4.3130188,5.358551l-6.6656189,0.914917l4.1824036,2.2216797l-4.1824036,5.4894714l7.188385-3.7902832l4.8354797,3.5290527
		l-0.9146118-5.7507019l6.6656189-3.7902832L364.5746155,418.1604309z M416.069458,393.7199402l-0.1306152-4.9664307
		l-4.4436646,5.4891968l-7.0577393,0.914917l4.443634,2.3525696l-4.443634,5.619812l7.5805054-3.7902832l4.9664307,3.6596375
		l-0.7839966-6.1428528l6.7962341-3.9208679L416.069458,393.7199402z M520.1049194,331.5076904l-4.7051392,8.4954529
		l9.6715698-6.5350037l8.6260376,4.4439392l-3.1368408-8.2339172l8.8875732-6.4043884l-9.9331055,1.9604492l-1.829834-6.9268494
		l-4.8358154,8.3645325l-9.8021851,2.0913391L520.1049194,331.5076904z M401.8233032,425.871582v-4.5742493l-4.0514832,4.9664001
		l-6.4043884,0.6533813l3.9208679,2.2219849l-4.0514832,4.9664001l6.7962341-3.2675171l4.5745544,3.3981323l-0.6533813-5.4891663
		l6.273468-3.5287476L401.8233032,425.871582z M537.4876709,435.4125671v-7.0577698l-6.4040527,7.7111511l-9.8025513,1.0455322
		l6.0122681,3.3981018l-6.2738037,7.7111511l10.4559326-5.0970154l7.0577393,5.2276306l-0.9146118-8.4951477l9.6715698-5.358551
		L537.4876709,435.4125671z M485.7313232,430.3155212l-4.7051697,5.7504272l-7.3190002,0.7843018l4.443634,2.6138
		l-4.7051697,5.7507019l7.842041-3.9208679l5.3585815,3.9208679l-0.7839966-6.273468l7.188385-3.9208679l-7.3190002,0.5227661
		L485.7313232,430.3155212z M469.5250244,361.5682678l-0.0003052-0.1306152l-0.1306152-5.7507019l-5.0973206,6.4040833
		l-8.1029968,1.0455322l4.9664001,2.744751l-4.9664001,6.4043884l8.4954529-4.4436646l6.0119324,4.3127441l-1.0455322-7.0574646
		l7.8417664-4.4439392L469.5250244,361.5682678z M600.4842529,290.0765991l-11.8936157,1.3070374l-1.0454712-8.756958
		l-6.7962646,9.671875l-12.0244751,1.5682983l7.9726563,4.1824341l-6.6655884,9.9328003l12.2857056-6.7962341l9.4100342,6.4040833
		l-2.4832153-10.5864868L600.4842529,290.0765991z M438.9413757,430.9689026v-4.5745544l-4.1821289,4.9667053l-6.4043884,0.7839966
		l3.9208984,2.2216797l-4.0515137,4.9667053l6.9268494-3.3981018l4.4439697,3.528717l-0.6536865-5.6200867l6.2737732-3.3981018
		L438.9413757,430.9689026z M453.5796814,397.7717285l-0.1306458-4.5745544l-4.0517883,4.9667053l-6.4040833,0.9146118
		l3.9208984,2.0910645l-3.9208984,5.0973206l6.6656189-3.5287476l4.7051697,3.2672119l-0.6533813-5.358551l6.1425781-3.6593628
		L453.5796814,397.7717285z M329.0245667,350.4590149c12.546936-2.2219849,24.9632568-4.9664001,37.2489624-7.9726868
		l-0.0714417-0.1138611l-37.0827942-59.2023926c2.003479,0.4363708,70.1209717,15.2749329,72.1812439,15.5325623
		c2.2216797,0.2615356,118.6735229-73.5830231,118.6735229-73.5830231l-190.8807678,58.0088959l-0.0107422-0.0170288
		l46.3398132-30.1529541l-22.7416077-77.242691L329.0457764,283.052887l-0.0212097-0.0340576v0.1306152V350.4590149z
		 M256.8794861,356.7324829c1.2146912,0,2.4796143,0.0391541,3.7197266,0.0759277
		c0.8948975,0.0265808,1.7530212,0.0546875,2.6843567,0.0546875c0.0212097,0,0.0439453-0.0011902,0.065155-0.0011902
		c5.9925232-0.0018005,12.2423706-0.2615356,18.3631287-0.6521912l47.3127136-73.1908875l-55.4157104,40.9086304
		L256.8794861,356.7324829z M165.5215607,536.180542l19.4740906-30.1911926
		c-1.1716614-0.473175-2.4031067-0.7810364-3.6596527-0.9146423L165.5215607,536.180542z M464.2970886,519.4511719h-0.0003052
		l25.4860229,20.1275024l-18.9510193-30.1912231C467.7403259,512.052063,465.4735413,515.5431519,464.2970886,519.4511719z
		 M309.02771,272.0401611v0.1309204l-102.9896698,27.7077026l122.9865265-16.8599548L309.02771,272.0401611z"/>
	<path class="st3" d="M376.9906616,168.3968353l-3.7902832-11.2401886
		c82.8624878-2.6138153,125.3394165,18.0364227,125.3394165,18.0364227
		C458.5735779,166.9962158,417.6213074,164.7063904,376.9906616,168.3968353z M297.0035095,480.6339111
		c-231.8577881,0-233.9491577-119.5884094-233.9491577-119.5884094c0,61.2973633,40.1243324,141.5457153,246.104248,141.5457153
		c146.250885,0,224.0160828-38.8172607,224.0160828-38.8172607c-23.7871399-0.6533813-47.5739746-2.2219849-71.2304993-4.5742798
		C440.3790588,464.6888428,372.4163818,480.6339111,297.0035095,480.6339111z M281.0584717,453.187439
		c32.0897827,0.328186,64.1586304-1.7688599,95.9321899-6.273468c-26.1684265-4.697998-52.0457153-10.8946533-77.5039368-18.5591736
		c0,0,22.3494568-8.6260681,55.4160156-23.7868347c-37.8736572,9.7654419-76.8170776,14.7704163-115.9290619,14.8995361
		c-72.6678314,0-144.5516663-33.9814758-144.5516663-106.1265564c0-43.7839661,37.7717438-70.054306,37.7717438-70.054306
		s-20.5196228,24.1792755-20.5196228,56.0693817c0,35.6806946,34.2427063,98.9384766,143.3755341,98.9384766
		c71.5556488,0,172.2420502-35.7323914,205.0632172-48.111969c0.2187805-0.1282043,0.4363708-0.2486572,0.6551514-0.3771973
		c30.946228-17.6828308,60.4452209-37.7857971,88.2210388-60.1208801c0,0-155.1384583,84.6922913-283.8756714,84.6922913
		c-86.5221405,0-126.515564-40.2549438-126.515564-67.0480347c0-80.2486572,141.1535645-121.6797485,172.7824402-130.0445862
		l6.7962341-13.9846191c-135.6640778,26.7931061-186.113678,79.9871368-186.113678,79.9871368
		s-45.3519745,27.4464874-62.6040955,78.4188385C69.066597,345.1001587,78.0848007,453.187439,281.0584717,453.187439z
		 M495.9256592,365.0970154c-13.9846191,8.7569885-21.3036194,25.3554077-16.3371887,36.856842
		c4.8357849,11.5014038,20.1274719,13.7233887,34.1120911,4.8357849
		c13.9849243-8.7566833,21.303894-25.3554077,16.3372192-36.856842
		C525.0713501,358.4313965,509.7796631,356.340332,495.9256592,365.0970154z"/>
</g>
</svg>
