<?xml version="1.0" encoding="utf-8"?>
<!-- Generator: Adobe Illustrator 22.0.1, SVG Export Plug-In . SVG Version: 6.00 Build 0)  -->
<svg version="1.1" id="Layer_1" xmlns="http://www.w3.org/2000/svg" xmlns:xlink="http://www.w3.org/1999/xlink" x="0px" y="0px"
	 width="720px" height="720px" viewBox="0 0 720 720" style="enable-background:new 0 0 720 720;" xml:space="preserve">
<style type="text/css">
	.st0{fill:#00843D;}
	.st1{fill:#010101;}
	.st2{fill:#FFFFFF;}
	.st3{fill:#8D9093;}
</style>
<g>
	<path class="st0" d="M133.239212,508.0806885H80.1758957l72.2759018-121.1568298L36,293.0826721h172.6518707l18.4284058-31.1061401
		h54.7624359L383.5256348,93.768425l16.9907227,169.1230469c28.6228027,2.8753357,52.0177612,13.2005005,68.2243042,30.1912231H684
		L479.4578247,402.6075134c-2.3526001,4.9665222-4.9665222,9.9330444-7.7111816,14.6381836
		c-12.2939758,22.0100098-29.4066162,40.9545288-50.0572815,55.415863l14.37677,142.7220459L302.2315674,507.4271851
		c-6.4042053,0.3920593-13.0697937,0.6535034-19.6047058,0.6535034L61.8781776,626.2315674L133.239212,508.0806885z"/>
	<path class="st1" d="M152.9746094,496.8406372H99.7805481l67.3094025-112.5308533l-99.4610672-80.1177979h147.2965088
		l18.5590973-30.9754028h54.6316986l87.5676575-145.0746155l14.6381836,145.2053528
		c32.2823792,1.4376526,57.6377563,12.0242004,73.4522095,30.8446655h175.6578369l-168.730896,90.3122559
		c-2.604187,5.9050903-5.5274353,11.6643066-8.7567444,17.2521057
		c-12.6025391,22.4490051-30.5057983,41.473999-52.148468,55.4159241l12.4163208,122.7252502L305.760498,496.0564575
		c-8.3646545,0.5228271-17.1214294,0.7842102-26.1395569,0.7842102L92.4614792,597.0859375L152.9746094,496.8406372z"/>
	<path class="st2" d="M550.4268799,326.5412292h-98.4154968c-10.4558716-19.3432617-34.5041504-30.9754028-68.8779907-30.9754028
		h-12.9389648l-9.9330444-98.5460815l-59.4675293,98.5460815h-54.6316833l-18.5590363,30.9754028h-96.7164154l65.348999,52.5406189
		l-56.9844513,95.4093323h93.4490967l-47.8353729,12.9392395l-31.2368317,51.6255493l120.5032806-64.5647888h4.9666443
		c12.1549683,0,23.3948669-0.5228271,33.8507385-1.3068237l81.6861267,65.8716125l-7.188324-68.6163635
		c-22.0880127,2.3525085-43.3917847,0.5228577-53.3248596,0.2614441
		c57.507019-9.2796631,87.6984558-34.3735962,108.6099854-70.184845
		c14.2460327-24.3099365,18.1670227-46.2671204,13.461792-63.5190735
		c7.8427429,9.337738,12.7130127,20.8079224,13.9846191,32.9359131L550.4268799,326.5412292z M352.9424744,412.6711731
		c-17.2521973,10.0636597-37.7717285,10.7170715-55.6773682,10.7170715H243.678833l38.947998-63.6496582l-20.2581177-16.206543
		h80.9018555c24.5713806,0,38.6868286,4.7049561,41.1699219,18.2976074
		C387.4466248,377.5133667,374.5074158,399.8625488,352.9424744,412.6711731z"/>
	<path class="st3" d="M463.6434326,348.2371826c3.5731201,6.7362671,5.7931519,14.1067505,6.5349121,21.6958313
		l80.2484741-43.3916931L463.6434326,348.2371826z M452.011322,326.5413208l-34.2428284,16.7293396
		c2.2218628,5.8814392,5.3586426,19.7353516-3.1367493,40.3856201c-9.6716614,23.656311-38.5558777,65.348938-117.4973755,65.348938
		H191.399765l-52.1484528,25.4861145h93.4489899l-12.0242004,3.2674561l-67.0480042,61.1665649l120.5034332-64.4340515h4.9665222
		c12.1549072,0,23.3948975-0.5228271,33.8507385-1.3070068l21.1730652-2.6139221
		c57.5070496-9.1488342,87.6982727-34.2428589,108.6099243-70.0541992
		c14.2460327-24.4405212,18.1669922-46.2670593,13.461792-63.6498718c-1.1323547-3.5420227-2.530426-6.9935303-4.182312-10.3251038
		L452.011322,326.5413208z M262.3687134,343.5320435h80.9019775c23.2642212,0,37.2489319,4.3130188,40.7777405,16.206543
		l33.7200623-16.467926c-9.1488342-21.4344177-35.4190979-23.7870178-51.887085-23.7870178h-97.10849l-0.1306763-0.1306763
		L191.3997803,449.005249l52.2791748-25.6167603l38.9480591-63.6498718L262.3687134,343.5320435z M212.4421234,351.8967896
		l-81.5555115-25.3554077l65.3489838,52.5405579L212.4421234,351.8967896z M360.2614136,197.0197906l-23.394928,98.415451
		h33.3279419L360.2614136,197.0197906z M387.4465942,470.309021l7.188385,68.616394l-35.680542-67.4401245
		C368.4673767,471.7224121,377.9855652,471.3294678,387.4465942,470.309021z"/>
</g>
</svg>
