<?xml version="1.0" encoding="utf-8"?>
<!-- Generator: Adobe Illustrator 22.0.1, SVG Export Plug-In . SVG Version: 6.00 Build 0)  -->
<svg version="1.1" id="Layer_1" xmlns="http://www.w3.org/2000/svg" xmlns:xlink="http://www.w3.org/1999/xlink" x="0px" y="0px"
	 width="720px" height="720px" viewBox="0 0 720 720" style="enable-background:new 0 0 720 720;" xml:space="preserve">
<style type="text/css">
	.st0{fill:#041E42;}
	.st1{fill:#B9975B;}
	.st2{fill:#C8102E;}
	.st3{fill:#FFFFFF;}
</style>
<g>
	<path class="st0" d="M70.6373978,101.8787842v122.8143311c0.9586258,75.2354126,17.6879425,149.433136,49.1073608,217.8005676
		C173.8044891,559.6261597,253.3335419,628.6074829,359.9994812,684
		c105.7888184-54.946167,185.8516541-123.6268311,240.2557678-241.5063171
		c31.4199219-68.3672791,48.149231-142.565094,49.1073608-217.8005676V101.8767014
		C559.8997803,55.3027306,457.6055603,36,359.9994507,36C263.2985229,36,160.681778,54.9926796,70.6373978,101.8787842z"/>
	<path class="st1" d="M360.0005493,51.7020226c-91.0368347,0-194.5795593,18.5297279-273.657074,59.704998l-0.0010834-0.0001526
		v113.2862167c0.9389801,72.9649048,17.1757813,144.9211731,47.6612778,211.2189026
		c50.2642975,108.9102783,126.4961853,178.7155762,225.9968872,230.3936768
		c99.900177-51.8861694,175.9063721-121.8622437,225.9969482-230.3936768
		c30.4840698-66.2980347,46.7205811-138.2541504,47.6601563-211.2189026V111.406868
		C554.4240723,70.1566696,450.7221985,51.7020226,360.0005493,51.7020226z M584.6075439,388.7230835
		c-9.4385376-11.8325806-32.1881714-39.3171692-49.5151978-51.9623108c0,0-27.8705139,8.5-46.6520081,10.9221497
		c0,0,18.7814941-12.1175537,29.6870422-25.4452515c0,0,13.9351807-38.7926941,18.3778687-73.3269958
		c-1.7478027-6.1603851-5.0113525-11.7845001-9.4928589-16.3584137c-7.3380737-2.522049-14.868103-4.4463959-22.516449-5.7545776
		c-32.4131165,6.9665833-38.6564941,22.4593964-98.4530029,42.7296295
		c4.5351257-5.1430664,8.8018799-10.5164795,12.7833557-16.0991974c0,0-22.2781982-8.1526794-58.4272156-6.9406738
		c-26.6813049,0.8938446-56.8241272,8.9351501-56.8241272,8.9351501c7.8461304-5.6743927,16.467926-10.1902771,25.6004028-13.408844
		c-2.6853943-3.5333252-9.2888489-12.7492371-9.7705078-18.5319061c-2.5184937-0.0891876-5.0394592,0.0740051-7.5253601,0.4869537
		c-2.4241638,2.0361938-11.8294983,16.3698883-17.3155518,34.0464325c0,0-8.2640381,4.3529968-16.746521,9.4427185
		c-6.9146423,4.5133972-13.5939026,9.3778687-20.0112,14.5741272c0.3246765-2.769928,1.0101929-5.4855957,2.0391541-8.0777588
		c-7.3161011,4.0357971-15.5947418,8.9692688-24.6564636,14.9599609c0,0-0.4047241,6.0592346,6.0594025,13.7313538
		c0,0-35.544632,12.927002-57.356842,45.2391052c5.6072083,3.7080078,11.7322235,6.5660706,18.1760406,8.4814148
		c10.6008911-1.6969299,21.0157776-4.4015808,31.1030426-8.0766907c0,0,6.5649567-7.3942566,12.5171814-13.3464661
		c5.5443726-5.5453186,10.5060883-9.6767883,10.5060883-9.6767883l-7.270462,29.4841309
		c0,0,17.1625824-1.2484436,38.7345123-2.2535095c10.1862183,7.5579224,19.6463318,16.0483093,28.2574158,25.3610229
		c-1.4065552,10.6393738-9.132782,34.0298462-22.1586304,57.0531006c0,0,11.7658997-2.6104431,21.5083313-3.6352234
		c7.1448059-0.7308044,14.3338623-0.933075,21.5084534-0.6054688c14.195343,9.5291443,29.5724182,17.166626,45.7426758,22.7193909
		c30.2687683,10.2470398,47.5602722,12.4214478,69.3713989,9.9972839
		c15.8427734-13.8925171,28.691925-30.864624,37.764801-49.8823547c0,0-2.6248779-25.245636-6.8655701-48.2512207
		c0,0,21.2867737,17.4560852,33.4043579,67.7431946c0,0-1.5897217,86.202179-57.1840515,143.7201843
		c-0.493927,0.4419556-0.9884644,0.8823853-1.4836121,1.3214111l-0.0010986-0.0020752
		c-17.9846191,15.9220581-37.1700439,30.4337158-57.3858643,43.4058838
		c-13.0284729,8.3673706-26.4075012,16.1126709-40.1368408,23.2365723h-0.0010986
		c4.2653809-9.187561,7.1242065-18.9644165,8.4803162-29.0025024v-0.0009155
		c-0.0009155-0.015686-1.7197266-28.0557251-18.3403015-48.1502075
		c-8.3587036,14.8018188-22.4198608,33.7977295-43.5151978,45.0914307
		C148.9814453,503.7518311,110.751564,337.0582886,106.0676727,244.7635193
		c7.8923798-3.9763641,106.0405579-51.8852081,253.9307098-51.8852081h0.0010986
		c147.8943481,0,246.0412903,47.9086914,253.9330139,51.8852081
		C611.1939087,293.9186707,601.3153076,342.4134216,584.6075439,388.7230835z M465.8196106,292.9376526
		c0,0,10.0982666-18.9853516,12.927002-26.2558289c-7.3384094,1.3738098-14.7619934,2.2459412-22.2189331,2.6104736
		c15.5540771-12.2019348,35.09198-26.8935242,50.0885315-29.3167572c4.9764709,0.6976013,9.8556519,1.9677734,14.5407715,3.78508
		c0,0,4.3914795,5.9084778,4.3914795,9.5437164c0,0-8.0256348,36.8220978-17.3164673,64.286972
		c0,0-17.3685913,16.1575317-30.2926636,23.4278564l-7.2704773-17.3686218
		c5.4300537-10.7254639,10.1520996-21.7948303,14.1360779-33.1370544
		C478.5750427,291.9634399,472.2139282,292.7756958,465.8196106,292.9376526z M384.0464478,318.7097778
		c1.2110596-4.9482422,0.3881226-20.5606689,0.3881226-20.5606689s8.8985291,2.9588928,22.6298828,13.8644714
		c0,0-1.7791443,10.1086731-4.5433655,20.2962952l-47.7382202,21.8840332
		C365.1363525,342.8727722,374.903595,331.0291443,384.0464478,318.7097778z M352.7237244,293.7441406
		c-0.2849731,0.3265381-1.3015137,1.5491028-2.9182434,3.4082947c-1.5095215,1.7371216-3.0403137,3.4551392-4.5923767,5.1540833
		c-7.0545349,7.7811584-14.5960083,15.1065369-22.5789795,21.9319763
		c-10.3184204,1.8002319-20.7694397,2.7328491-31.2434387,2.7882385c-8.2772522,0.1011353-16.5456543-0.5724182-24.6972656-2.012146
		h-0.0021667l24.3382874-33.4960327l2.4314575,4.9949036l1.822876,3.7475586h0.0010986
		c14.7615356-6.9429932,30.2618103-12.1920166,46.2046204-15.646698c1.8033752-0.3570862,3.6147766-0.665802,5.43396-0.9259338
		c0.757019-0.1051941,1.4389343-0.1925354,2.0454712-0.2621765c2.4252625-0.2758179,3.6560364-0.2840271,3.6560364-0.2840271
		s5.1686707,1.8746948,11.1615295,4.260376c2.0447083,0.8119507,4.0796814,1.6470032,6.1051636,2.5053101l-0.0001526,0.0012512
		C362.8251038,291.3209229,358.3804321,292.1283569,352.7237244,293.7441406z"/>
	<path class="st2" d="M312.2946167,305.9760437c4.8895874-0.9085693,9.8254089-1.547699,14.7852783-1.9142761
		c-1.8089294,5.0942078-5.5952759,9.2441711-10.5030212,11.5110168c-7.9317627,3.9751282-17.173584,4.4153748-25.4472656,1.2121582
		c0,0,1.7166138-2.8965149,3.2314453-5.47052c3.170166,2.8764954,7.6168518,3.8795471,11.7149963,2.6425781l-0.0010986-0.000946
		C309.2563171,312.3832397,311.5462952,309.4451294,312.2946167,305.9760437z M359.9996338,70.8964691
		c-154.2939453,0-254.4637451,52.1577682-254.4637451,52.1577682v101.0862808h0.0010834
		c76.1861191-34.6664734,170.5960388-50.4568176,254.463562-50.4568176c83.588623,0,178.1256104,15.7414856,254.4625244,50.471405
		V123.0542374C614.4630737,123.0542374,514.293396,70.8964691,359.9996338,70.8964691z"/>
	<path class="st3" d="M211.3591156,418.5683594c26.2527161,18.5806274,66.6446075,35.1397705,66.6446075,35.1397705
		c-18.237793,1.6030884-36.1735382,5.6746826-53.3158112,12.1031494
		c-8.9874115-7.4195557-15.7061005-17.2178345-19.3880463-28.2752686
		C205.4365387,430.7594604,207.5417633,424.1690674,211.3591156,418.5683594z M395.1362915,496.1040955
		c3.0913696,7.8370056,5.424469,15.9519958,6.9676514,24.2340393c1.411499,6.4625854,1.820282,13.1040039,1.2120056,19.6908569
		c-38.776062-44.4296875-95.0186462-71.7778931-95.0186462-71.7778931s77.9537964,64.2203979,60.1815491,147.4240112v0.0010986
		c-1.3562622,10.0380859-4.2150879,19.8149414-8.4804688,29.0023193h0.0010986
		c13.7294922-7.1237183,27.1083679-14.8692017,40.1368408-23.2364502
		c20.2159729-12.972168,39.4013977-27.4837646,57.3860168-43.4058228h0.0009155
		C435.6603394,529.0306396,395.1409302,496.1081238,395.1362915,496.1040955z M295.2838745,300.2601013
		c14.7620239-6.9427185,30.2627563-12.1912537,46.205719-15.6457825c1.802887-0.3570862,3.6141663-0.6656494,5.43396-0.9259338
		c0.6805115-0.0964966,1.3624573-0.1835327,2.0454712-0.2611084c2.4272766-0.277832,3.6529236-0.2850952,3.6529236-0.2850952
		h0.0040588c-28.1868286-4.9732056-61.5975647,8.3752747-61.5975647,8.3752747v0.0010986l2.4325562,4.9960022
		L295.2838745,300.2601013z M207.8520203,406.868866l-8.4117432-23.6589966
		c-3.0756989-2.8233032-5.9118805-5.8968201-8.4793854-9.1889038c-2.1410522-2.7913513-4.1476135-5.6785889-6.0198364-8.661499
		l-8.3202209,21.704071c4.7889099,13.0906677,10.5965424,25.7857666,17.3696899,37.9686584v0.0001526
		C198.0463104,418.5669861,202.686142,412.4870911,207.8520203,406.868866z M395.1361389,496.1039429l0.0001526,0.0001526
		v-0.0001526H395.1361389z M352.7279053,300.2081299c0.1219482-2.1530151,0.1210022-4.3111267-0.0030823-6.4639893
		c-0.2860718,0.3276367-1.3026123,1.5491028-2.919342,3.4082947c-1.5101624,1.7364807-3.0414124,3.4546814-4.5934448,5.1540833
		c-7.0531616,7.7817688-14.5940247,15.1071777-22.5769958,21.9317932l0.0012512,0.0001831
		c-10.3190308,1.8008423-20.7708435,2.7334595-31.2456055,2.7882385c-8.2772522,0.1006775-16.5456543-0.572876-24.6974182-2.012146
		l17.7723999,8.3129272c14.5198669,0.9450378,29.1005249-0.1422729,43.3195801-3.2305298
		C337.3477173,321.2457886,345.7307739,311.2002258,352.7279053,300.2081299z M276.5137024,375.6347351l-8.0048218-9.3887329
		c-6.2286682-0.2202759-12.4647522-0.1022339-18.6805115,0.3536987c-12.499649,0.8396912-23.9628906,2.4751892-23.9628906,2.4751892
		c-1.904953,1.4316711-4.8034973,3.7349854-6.9363251,5.401825c-2.8817902,2.5654907-5.4873047,5.4255676-7.7738647,8.5333557
		l0.3901367,23.0785217c7.4305725,3.464447,36.5765381,16.7983398,59.9952545,23.789917v0.0001526
		c0,0,1.4512024-2.2848816,3.4146423-6.0905762c-5.0205383-4.5768738-10.4190979-8.7209167-16.1378479-12.3881226
		c7.0119019-0.166748,14.02005,0.4615173,20.8904419,1.8726807c0.5826721-1.4878235,1.1507568-3.0505676,1.7011414-4.6693115
		c-6.3014221-4.8456726-13.0821533-9.0340881-20.2361145-12.4996338c7.8207092-1.033905,15.7340088-1.1684265,23.585144-0.4005432
		c0.2497559-1.4274597,0.4473877-2.8735657,0.6107178-4.3302002c-8.3591614-5.1826172-17.3965149-9.1811829-26.854126-11.8814697
		C264.3721008,377.6138306,270.4012756,376.3219604,276.5137024,375.6347351z M220.6364746,104.5370789
		c-4.4248352,0.9841232-8.8426819,2.0152512-13.2537231,3.093071v66.0243912
		c11.5688934-2.8290405,23.2097473-5.3349609,34.9224396-7.5178986v-13.3215027
		c-7.2475281,1.3516083-14.4705353,2.8265533-21.6687164,4.4249878V104.5370789z M142.3769226,193.246582
		c4.3012085-1.5497284,8.6188507-3.0524292,12.9530792-4.5081482v-26.3482513v-0.0001678
		c5.0282745-1.690094,10.0770264-3.317688,15.1462555-4.8826141v-13.3224182
		c-5.0687561,1.5650635-10.1175079,3.1926575-15.1462555,4.8825989v-13.030014
		c7.0348358-2.3641357,14.1089325-4.6066437,21.2222595-6.7273712V115.99086
		c-11.4936371,3.4247284-22.8847504,7.1687088-34.1731567,11.2324066
		C142.3791046,149.2309418,142.3783264,171.2387543,142.3769226,193.246582z M279.9181213,94.2557526
		c-2.088623,4.067421-4.1715088,8.1379395-6.2488098,12.2112579v43.2269745
		c2.080719,3.516571,4.1636047,7.0435333,6.2488098,10.5808868c9.6799011-1.2163544,19.3836975-2.2116394,29.1116943-2.9858856
		h0.0010986c2.0875244-3.9602203,4.1805115-7.917511,6.2787476-11.8721466V102.206459
		c-2.0895691-3.6476517-4.1828308-7.2932816-6.2798462-10.9367447
		C299.3043213,92.0422516,289.6003723,93.0375443,279.9181213,94.2557526z M301.8207703,144.5803986
		c-4.9086609,0.4452057-9.8114624,0.9478149-14.7081909,1.5075226V106.715683
		c4.8981323-0.5587692,9.8009033-1.0615387,14.7081909-1.5086136V144.5803986z M420.3755493,158.1077423
		c4.4935608,0.4244385,8.982605,0.895401,13.4670105,1.4129028V93.4993515
		c-4.4839478-0.518898-8.9728394-0.9909439-13.4670105-1.4159927V158.1077423z M382.4723816,129.305069
		c2.0921631-3.7221069,4.1887207-7.4418945,6.2892761-11.1593475v-16.8672333
		c-2.087677-3.8829727-4.1806641-7.7630005-6.2789001-11.6400833c-11.8372498-0.4148102-23.6793213-0.5021439-35.5258789-0.2621613
		c0,22.0076599-0.0007629,44.0145493-0.0021667,66.020195c4.507843-0.0910492,9.0162659-0.1347961,13.5253601-0.131073v-26.3535461
		h0.0001526c1.0663452,0,2.1297302,0.0031128,3.1960754,0.0103912c3.5769043,8.8049927,7.1530457,17.6391449,10.7286987,26.5023041
		c4.7868958,0.1092224,9.572876,0.2702332,14.357605,0.4827576c-3.5727234-8.942276-7.1474609-17.8564758-10.7245483-26.7425995
		C379.5155029,129.2062531,380.9935303,129.2530975,382.4723816,129.305069z M375.2468872,115.7744598
		c-4.9214172-0.1168137-9.8435669-0.1776199-14.7666626-0.1819687v-13.0301743
		c4.9210815,0.0052719,9.8432312,0.0656204,14.7666626,0.1810379V115.7744598z M571.6043701,125.0902786
		c-9.3127441-3.2481995-18.6965332-6.2806168-28.1514893-9.0972519c-2.0287476,3.1940613-4.0603027,6.3985138-6.0946045,9.6133575
		v54.6256866c4.37677,1.2563629,8.7398071,2.55896,13.0892944,3.9077911v-26.3453217
		c4.7583618,1.4774323,9.4990234,3.0091553,14.2224731,4.5954742v26.3484192
		c4.3280029,1.4566498,8.6450195,2.9593506,12.9510498,4.5081482v-54.6163788
		C575.621521,134.1143036,573.6159058,129.6008911,571.6043701,125.0902786z M564.6700439,149.0708466
		c-4.7276611-1.5877228-9.4685059-3.1191406-14.2224731-4.5945435v-13.0311127
		c4.7587891,1.4761963,9.4996338,3.0086823,14.2224731,4.5974884V149.0708466z M465.2796021,97.9262009v66.022377
		c11.7326965,1.9485474,23.4042664,4.2217712,35.0150452,6.8199921c2.059906-3.3397217,4.117218-6.6707611,6.1716919-9.993103
		v-43.2092972c-2.051239-4.2756042-4.1085205-8.5481033-6.1716919-12.8179626
		C488.6880493,102.1515427,477.0164795,99.8775406,465.2796021,97.9262009z M493.1907654,155.8968811
		c-4.8377686-1.0263214-9.6871948-1.9952393-14.5480957-2.9069214v-39.3743973
		c4.85672,0.9135361,9.7059631,1.8829269,14.5480957,2.9079971V155.8968811z"/>
</g>
</svg>
