<?xml version="1.0" encoding="utf-8"?>
<!-- Generator: Adobe Illustrator 22.0.1, SVG Export Plug-In . SVG Version: 6.00 Build 0)  -->
<svg version="1.1" id="Layer_1" xmlns="http://www.w3.org/2000/svg" xmlns:xlink="http://www.w3.org/1999/xlink" x="0px" y="0px"
	 width="720px" height="720px" viewBox="0 0 720 720" style="enable-background:new 0 0 720 720;" xml:space="preserve">
<style type="text/css">
	.st0{fill:#010101;}
	.st1{fill:#FFFFFF;}
	.st2{fill:#A2AAAD;}
</style>
<g>
	<path class="st0" d="M507.5570068,441.9510498v36.0801086c0,12.7095947-2.2443848,16.5665283-13.8361511,22.3182068
		l-133.7289734,66.3369751l-133.7228851-66.3369751c-11.5917816-5.7462769-13.8368225-9.6086121-13.8368225-22.3181763v-36.0794373
		H36l77.2200012-229.5445404h99.2182465v-59.0935516h295.1234741v59.0928802H684l-77.2200317,229.5445404L507.5570068,441.9510498z"
		/>
	<path class="st1" d="M359.9959106,550.72052l124.4700012-61.2535095c7.3797607-3.632843,9.0031433-6.8634033,9.0031433-14.4625549
		v-47.1453857H596.659668l67.7355957-201.3551788H493.4690552v-59.092865H226.5234375v59.092865H123.3328171L55.5965729,427.8590698
		h170.9268646v47.1453857c0,7.5991516,1.6233826,10.8357849,9.0031586,14.4625549L359.9959106,550.72052z"/>
	<path class="st2" d="M483.9906311,235.9766846v-59.0928345H236.0010986v59.0928345H130.0496979L68.6869431,418.385376h167.3141479
		v52.1620789c0,6.6170349,1.4924164,9.326355,7.7038116,12.3847656l116.2909698,57.2292175l116.2909546-57.2292175
		c6.2053528-3.0530396,7.7037964-5.7670593,7.7037964-12.3847656V418.385376h105.9513855l61.3623047-182.4086914H483.9906311z
		 M415.8178711,471.6800537c-0.9854736,0.2294312-1.6234436,0.2712708-2.0143433,0.8139648
		c1.5118713,0.5018005,2.3589172,2.1062622,1.9204102,3.6375732c-0.2032471,0.6784668-2.9901733,8.5233765-2.9901733,8.5233765
		c-0.6634827,1.9776611-1.9318237,2.9644775-3.9515381,2.4116821c-1.9101257-0.5279541-2.552124-0.2658691-3.9041138,1.8103943
		c-1.0328979,1.5861206-1.8110657,2.8815308-2.6149597,4.1181335c-2.3741455,3.6800537-4.4989319,7.2757874-5.6990967,9.108551
		c-0.8526306,1.2580566-2.0134277,2.2764282-3.3716736,2.9584351c-6.6863708,3.7328491-20.3971558,6.4090881-33.1998596,6.4090881
		s-26.5139771-2.6722412-33.1998596-6.4090881c-1.35849-0.6815796-2.5192566-1.7001343-3.37146-2.9584351
		c-1.2001648-1.8327637-3.3198242-5.4231262-5.6997681-9.108551c-0.8032227-1.2419739-1.5760498-2.5311279-2.6149597-4.1174622
		c-1.3519897-2.0769348-1.9980164-2.3388062-3.9090271-1.8110657c-2.014801,0.5527954-3.2831421-0.4333496-3.9459534-2.4116821
		c0,0-2.7864685-7.8449097-2.9902039-8.5233765c-0.4402771-1.531311,0.4074402-3.1371155,1.9204407-3.6375732
		c-0.391571-0.5426941-1.0281982-0.5791626-2.0197144-0.8139648c-4.415741-1.0643921-6.5866089-4.3788452-6.5866089-8.2775879
		c-0.0277405-3.3882446,1.9653625-6.4671936,5.0678101-7.8292542c-0.2236023-4.1237183,2.7846985-7.716095,6.8837891-8.2201233
		c0.5375977-3.8043823,3.9052429-6.5591125,7.7407227-6.3314819c1.0594788-3.1413574,4.2305908-5.0602112,7.5047913-4.540741
		c1.4575195-2.5953064,4.4725342-3.8929443,7.3594055-3.1677551c1.7106934-2.2701416,4.7279358-3.1165466,7.3697205-2.0668945
		c1.8104248-1.8801575,4.6682129-2.2871399,6.9316711-0.9868164c1.6592407-1.3193359,3.9595642-1.4812317,5.7874146-0.407196
		v-7.259491c0-1.0597229,0.4230652-1.8899841,1.6335144-1.8899841h0.9450073v-1.5863342
		c-0.0610657-0.6031189,0.3783569-1.141571,0.9816589-1.2026062c0.0939331-0.0093994,0.1885071-0.006958,0.2817688,0.0078125
		h7.8543091c0.5986023-0.0943604,1.160553,0.3143921,1.2551575,0.9130249
		c0.01474,0.0932617,0.0172119,0.1878357,0.0078125,0.2817688v1.5863342h0.9450073
		c1.2108765,0,1.6335144,0.8302612,1.6335144,1.8899841v7.259491c1.828064-1.0735779,4.128418-0.9118958,5.7880859,0.407196
		c2.2638855-1.2978516,5.1199036-0.8913269,6.9316406,0.9868164c2.6416016-1.0480957,5.6581726-0.2021484,7.3695068,2.0668945
		c2.8871155-0.7278748,5.9036865,0.5706787,7.3596497,3.1677551c3.2739868-0.5176697,6.4441833,1.4002686,7.505249,4.540741
		c3.835907-0.2298889,7.2046814,2.5259705,7.7395935,6.3314819c4.1013184,0.4997864,7.1123352,4.094635,6.8851318,8.2201233
		c3.1022339,1.3620605,5.0953064,4.4410095,5.0678101,7.8292542
		C422.4051514,467.3012085,420.2383118,470.6156616,415.8178711,471.6800537z"/>
	<path class="st0" d="M330.0625916,454.5463562c0-1.7585144,1.4289246-3.1874084,3.187439-3.1874084
		c1.7951965,0,3.2240906,1.428894,3.2240906,3.1874084s-1.428894,3.2241211-3.2240906,3.2241211
		C331.4915161,457.7704773,330.0625916,456.3048706,330.0625916,454.5463562z M339.0752258,450.6261597
		c1.5022583,0,2.7113342-1.2091064,2.7113342-2.7111206c0-1.4656067-1.2090759-2.674469-2.7113342-2.674469
		c-1.4653625,0-2.6744385,1.2088623-2.6744385,2.674469C336.4007874,449.4170532,337.6098633,450.6261597,339.0752258,450.6261597z
		 M348.5046692,437.7532349c0.9031982-0.2754822,1.1429138-0.3537598,1.1171875-0.5212402
		c-0.0210266-0.145813-0.4543762-0.141571-1.2001343-0.0315552c-14.2175293,1.9993591-32.3494568,14.0661621-38.690979,30.5752869
		c-0.0939331,0.2343445,0.1464539,0.4018555,0.375885,0.3126221c1.1800232-0.4845886,3.4917603-1.3777161,5.0888367-1.9150391
		c0.98526-0.4029846,2.1183167-0.0744934,2.7350464,0.7931519c0.2889099,0.5784912,0.5266113,1.1809082,0.7102051,1.8009949
		c0.0588074,0.1239014,0.2068481,0.1768799,0.3307495,0.1180725c0.072876-0.0344238,0.1243286-0.1021729,0.1383972-0.1815796
		c2.5574951-13.4447021,16.0500793-26.6961975,29.3948059-30.9500427V437.7532349z M359.9594116,447.9740601
		c1.3318787,0.0002136,2.4117126-1.0794067,2.4119263-2.4110413v-0.000885
		c-0.0002136-1.3314209-1.0796204-2.4107971-2.4112549-2.4110413c-1.3316345-0.0002136-2.4114685,1.0794067-2.4116821,2.4110413
		C357.5481567,446.8939819,358.6277771,447.9738464,359.9594116,447.9740601z M344.7541809,441.1736755
		c-1.1357422,0-2.0516663,0.9526062-2.0516663,2.0883484c0,0.0366821,0,0.0366821,0,0.0733337
		c0,1.1357422,0.9523621,2.0516968,2.0883484,2.0883484c1.1721802,0,2.1247864-0.9526062,2.1614685-2.125
		c0-1.1724243-0.9526062-2.1250305-2.1250305-2.1250305C344.790863,441.1736755,344.790863,441.1736755,344.7541809,441.1736755z
		 M359.969696,442.2588806c1.0720215-0.0040283,1.940094-0.8721008,1.9439087-1.9441223c0-0.0044861,0-0.0089417,0-0.0134277
		v-0.0006714c-0.0038147-1.0776062-0.8806152-1.9479065-1.9582214-1.9441223
		c-1.0773621,0.0040283-1.9479065,0.8806152-1.9438782,1.9582214
		C358.0152893,441.3923645,358.8920898,442.2626648,359.969696,442.2588806z M375.1856689,445.4107361
		c1.1746521-0.0073547,2.1212158-0.965332,2.1138611-2.1399841c-0.0073853-1.1748962-0.9655762-2.1210022-2.1402283-2.1136169
		c-1.1672974,0.0071411-2.1105042,0.9537048-2.1138611,2.1207581l0.0002136,0.0190125
		C373.0530396,444.4715576,374.0110168,445.4179077,375.1856689,445.4107361z M383.5878296,447.9295654v-0.0026855
		c0-1.4814453-1.2010498-2.6824951-2.6824951-2.6824951c-1.4814758,0-2.6822815,1.2010498-2.6822815,2.6824951
		s1.2008057,2.6824951,2.6822815,2.6824951C382.3861084,450.6100464,383.5871582,449.4103394,383.5878296,447.9295654z
		 M362.7425537,434.6651001c0-1.5362549-1.2455444-2.7817993-2.7817993-2.7817993
		c-1.5362244,0-2.7815552,1.2455444-2.7815552,2.7817993c0,1.5360107,1.244873,2.7813416,2.7808838,2.7815552
		c1.5360413,0.0006714,2.7817993-1.2437439,2.7824707-2.7797852
		C362.7425537,434.6661987,362.7425537,434.6657715,362.7425537,434.6651001z M370.1865234,441.9482727
		c0.9588623-0.0261536,1.7301025-0.7974243,1.7562561-1.7562866c0.0272827-0.9973145-0.7591553-1.8276062-1.7562561-1.8548889
		c-0.997345-0.0272827-1.8278503,0.7591858-1.8551331,1.7562866c-0.000885,0.0328674-0.000885,0.0657349,0,0.0986023
		C368.3586731,441.1890869,369.1891785,441.9755554,370.1865234,441.9482727z M324.9959106,476.6472473
		c0,0.0020142,0,0.0040283,0,0.0062561c0,1.4324951,1.1612244,2.5939636,2.5939331,2.5939636
		s2.5939636-1.1614685,2.5939636-2.5939636c0-1.4327087-1.1612549-2.5941467-2.5939636-2.5941467
		C326.1589355,474.0577698,324.997467,475.2163391,324.9959106,476.6472473z M359.9918518,457.0602722
		c2.2627563-0.0002441,4.0970764-1.8345642,4.0973206-4.0973206c0-2.2627869-1.8345642-4.0973206-4.0973206-4.0973206
		c-2.2627869,0-4.0973206,1.8345337-4.0973206,4.0973206C355.8947449,455.225708,357.7290649,457.0602722,359.9918518,457.0602722z
		 M396.3612366,445.6873474c1.7442017-0.0684204,3.1031189-1.5371094,3.0358276-3.2813416v-0.0020142
		c-0.0684509-1.7450867-1.5384827-3.1042175-3.2833557-3.0360107c-1.7451172,0.0684204-3.104248,1.5384521-3.0358276,3.2835693
		C393.1460876,444.3964233,394.6161499,445.7557983,396.3612366,445.6873474z M377.6503601,438.267334
		c1.1171875,0.1231995,2.1230164-0.6827087,2.2462463-1.7998962c0.0064697-0.0588074-0.0165405-0.1113586-0.0152283-0.1694946
		c0.244873,1.2269897,1.3077087,2.144928,2.5968628,2.0896912c1.3980713-0.0596924,2.4942322-1.22229,2.4718628-2.6216736
		c-0.0205688-1.426239-1.1934509-2.5655518-2.6196594-2.5449829c-1.36026,0.0196838-2.4295959,1.09729-2.5103149,2.4336243
		c-0.2290039-0.7540283-0.8850708-1.338562-1.7173767-1.4329529l-0.0060425-0.0006714
		c-1.1174011-0.1234131-2.1230164,0.6824951-2.24646,1.7998962
		C375.7270508,437.1382751,376.532959,438.1438904,377.6503601,438.267334z M389.3300781,441.4703979
		c1.6136169-0.045166,2.8851013-1.3897705,2.8396912-3.0033875v-0.0031128l0.0006714-0.0053711
		c-0.0480652-1.6151733-1.3964844-2.8855591-3.0116577-2.8372498c-1.6151733,0.0480652-2.8855286,1.3964844-2.8374634,3.0116577
		C386.3696289,440.2470093,387.7160034,441.5169067,389.3300781,441.4703979z M330.8318481,462.5699463
		c0-2.0150146-1.6484985-3.6270447-3.6637268-3.6270447c-1.9783325,0-3.6270752,1.61203-3.6270752,3.6270447
		s1.6120605,3.6270447,3.6270752,3.6270447C329.1833496,466.196991,330.8318481,464.5849609,330.8318481,462.5699463z
		 M409.2451172,458.005249h0.0055847c2.0510254-0.010498,3.7053223-1.6815796,3.6950378-3.7325745v-0.0042725
		c-0.0154419-2.052124-1.6914368-3.7033081-3.7437744-3.6880798c-2.0490112,0.0154114-3.6988525,1.6864929-3.6881104,3.73526
		C405.5254822,456.3648071,407.1958923,458.0166626,409.2451172,458.005249z M396.4486694,462.5735168
		c0-0.0006714,0-0.0013428,0-0.0020142c0.0011292-1.9778748-1.5831909-3.5722656-3.5496826-3.6201172
		c0.1473694-0.3682861,0.239502-0.7656555,0.239502-1.1865234c-0.0002441-1.7723694-1.4371948-3.2093201-3.2098083-3.2095642
		h-0.0006714c-1.7728271,0.0002441-3.2097778,1.4374084-3.2095642,3.2102356
		c0.0002441,1.665741,1.2840271,2.9893188,2.9079285,3.1487427c-0.262085,0.5020447-0.4470215,1.0476685-0.4474487,1.6531982
		c-0.0011292,2.0076294,1.6252136,3.6357727,3.632843,3.6369019c0.0018005,0,0.0036011,0,0.0053711,0
		C394.8225403,466.2045898,396.4484558,464.5791321,396.4486694,462.5735168z M363.6139832,437.4211731
		c-0.0272827,0.9971008,0.7589417,1.8276062,1.7562866,1.8548889c0.0328674,0.000885,0.0657349,0.000885,0.0986023,0
		c0.9588623-0.0261536,1.7301331-0.7974243,1.7562866-1.7565002c0.0272827-0.9971008-0.7591858-1.8276367-1.7562866-1.8549194
		C364.4715576,435.6376038,363.6410522,436.4238281,363.6139832,437.4211731z M370.8119507,437.5352173
		c0.1498413,0.0782471,0.3110657,0.1205139,0.4805603,0.1580811c0.067749,0.0212402,0.1138306,0.0364685,0.1911926,0.0606079
		v-0.0006714c13.3460999,4.2545166,26.8379822,17.506012,29.3956909,30.9513855
		c0.0275269,0.1355286,0.159668,0.223175,0.2951965,0.1956787c0.0751343-0.0151978,0.1393127-0.0641785,0.1739502-0.132843
		c0.1831665-0.6200867,0.4204102-1.2227173,0.7093201-1.8009949c0.6149597-0.8700867,1.7500305-1.1992493,2.7350464-0.7931519
		c1.5977478,0.537323,3.909729,1.4344788,5.0895081,1.9150391c0.2296448,0.094574,0.4698181-0.0729065,0.3754578-0.3126221
		c-6.1659851-16.0560913-23.4674072-27.8797913-37.4901733-30.3570251c0.5257263-0.3508606,0.8935852-0.9204102,0.8937988-1.5999756
		c0.0002441-1.0813904-0.8763428-1.9579773-1.9577637-1.9581909h-0.0006714
		c-1.0809631,0.0002136-1.9573059,0.8765564-1.9575195,1.9575195c-0.0002441,0.5621643,0.2432861,1.0606079,0.6225281,1.4177246
		C370.3577881,437.3449097,370.4792175,437.4187012,370.8119507,437.5352173z M357.350708,439.3359985
		c-0.0939026-0.1147156-0.4490051,0.0782471-1.044281,0.3497314c-9.2536926,4.2221069-16.7696533,14.1021423-18.3041077,19.2645264
		c-0.0509949,0.1364136,0.0183411,0.2882385,0.1547241,0.3392334c0.0389099,0.0145264,0.0807495,0.0196838,0.1221008,0.0151978
		c2.1140747-0.3814697,3.125946,0.7511292,3.4559937,3.423584l-0.0006714-0.0053711
		c2.7824707-0.9128113,3.7940979,0.9293518,3.7940979,0.9293518c0.0771484,0.1231995,0.2397156,0.160553,0.3629456,0.0834045
		c0.0726624-0.0454102,0.1184998-0.1234436,0.1231995-0.2088623c0.1929932-3.7679443,1.9729614-15.7202148,10.7094421-23.3929443
		C357.1785278,439.7322388,357.4598389,439.4556274,357.350708,439.3359985z M346.6046143,472.6507874
		c0,0.0018005,0,0.0035706,0,0.0053711c0,1.4324951,1.1614685,2.5939331,2.5939331,2.5939331
		c1.4327087,0,2.5941772-1.161438,2.5941772-2.5939331c0-1.4327087-1.1614685-2.5941772-2.5941772-2.5941772
		C347.7674255,470.0606384,346.605957,471.219635,346.6046143,472.6507874z M389.8045959,476.6532898
		c0,1.4327087,1.1614685,2.5941772,2.5939331,2.5941772c1.4306946,0.0020142,2.5921631-1.156311,2.5941772-2.5870056
		c0-0.0022583,0-0.0046997,0-0.006958c0-1.4327087-1.1614685-2.5941467-2.5941772-2.5941467
		C390.9660645,474.0593567,389.8045959,475.2207947,389.8045959,476.6532898z M368.2012329,472.6561584
		c0,1.4324951,1.1614685,2.5939331,2.5939636,2.5939331c1.4306946,0.0020142,2.5921631-1.156311,2.5941772-2.5870056
		c0-0.0022278,0-0.0046997,0-0.0069275c0-1.4327087-1.1614685-2.5941772-2.5941772-2.5941772
		C369.3627014,470.0619812,368.2012329,471.2234497,368.2012329,472.6561584z M381.7080994,459.2991028
		c0.1437988,0.0176697,0.2746277-0.0849609,0.2920532-0.2287598c0.0051575-0.0424805,0-0.0856323-0.0154114-0.1254578
		c-1.5349121-5.162384-9.0497742-15.0424194-18.303894-19.2645264c-0.5939331-0.2721558-0.949707-0.4651184-1.044281-0.3504028
		c-0.1040039,0.1200867,0.1728516,0.4022827,0.6263428,0.7985229c8.732666,7.6727295,10.5119629,19.6250305,10.7103271,23.3936157
		c0.0093689,0.1455688,0.1348267,0.2560425,0.2803955,0.2466431c0.0838623-0.0053406,0.1603394-0.050293,0.2055054-0.1211853
		c0,0,1.0118713-1.8428345,3.7936707-0.9295654v0.0049133C378.5821838,460.0504456,379.5947266,458.9178467,381.7080994,459.2991028
		z M402.9952698,451.1411438h0.0022278c1.9016418-0.007843,3.4367676-1.5556946,3.4291687-3.4571228l-0.0002441-0.0136414
		c-0.0111694-1.9067688-1.565979-3.4432373-3.4727478-3.4318237c-1.9065552,0.0114136-3.4430237,1.5661926-3.4316101,3.4727478
		v0.0009155C399.5341187,449.618103,401.089386,451.1534424,402.9952698,451.1411438z M309.5455933,462.3868103
		c0-2.1983948-1.7585449-3.9935608-3.956665-3.9935608c-2.1983948-0.0366821-3.9935608,1.7585144-3.9935608,3.9568787
		c-0.0366821,2.1981506,1.7220459,3.9933472,3.9201965,3.9933472h0.0366821
		C307.7503967,466.380127,309.5455933,464.5849609,309.5455933,462.3868103z M310.7546692,457.9902954
		c2.0516968,0.0366516,3.7004089-1.6120605,3.7370911-3.6637573c0-2.0516663-1.6487427-3.7370605-3.7004089-3.7370605
		c-0.0366821,0-0.0366821,0-0.0733643,0c-2.0149841,0-3.6637268,1.6487122-3.6637268,3.6637268c0,0.0366821,0,0.0366821,0,0.0733337
		C307.0542603,456.3415527,308.7396545,457.9902954,310.7546692,457.9902954z M359.9918518,499.6971741
		c-7.2286377,0-15.1989746-1.0858765-20.7104492-1.9101257c-3.697937,0.7455444-7.2635193,2.0402832-10.5786133,3.8406067
		c6.6123352,2.8707886,18.022583,5.3137817,31.2843628,5.3137817h0.0100708c13.2671509,0,24.6767273-2.4429932,31.2843628-5.3137817
		c-3.3155823-1.8001099-6.8813477-3.094635-10.5792847-3.8406067
		C375.190155,498.6057129,367.220459,499.6971741,359.9918518,499.6971741z M412.3305664,477.5714722l-1.2891541,3.2567444
		c-0.0140686,0.0362244-0.0288391,0.0717773-0.0449219,0.1073303c-0.506958,1.1286011-1.8330078,1.6323853-2.9615784,1.1252441
		c-2.0769653-0.7471008-2.5885925-0.203949-4.0027466,2.3591309c-0.7462158,1.4732056-1.9284668,2.6805115-3.3853149,3.4580078
		c-3.9159851,2.0896912-8.7843323,0.6091309-10.8740234-3.3068237c-3.6565552,1.6531982-7.9723511,0.4056396-10.1830444-2.9436951
		c-3.1315002,1.8994141-7.1447449,1.4810181-9.8171997-1.0232544c-3.1411133,1.8586731-7.1342468,1.4069824-9.7807312-1.1062317
		c-2.6465149,2.5132141-6.6396179,2.9649048-9.7807617,1.1062317c-2.6751099,2.5038147-6.6896973,2.9215393-9.8232422,1.022583
		c-2.2102051,3.349762-6.5262451,4.5977783-10.1830444,2.9443665c-1.383728,2.6292725-4.1163025,4.2692871-7.0874939,4.2531738
		c-3.0516968,0.0813904-5.863678-1.645813-7.1711731-4.4043579c-1.4194946-2.5628662-1.9150391-3.0543518-4.0033875-2.3591309
		c-1.3466187,0.442749-2.5420837-0.0371399-3.0058594-1.2325745l-1.2947388-3.2567444
		c-0.0297241-0.0653076-0.0561218-0.131958-0.0789185-0.1999207c-0.361145-1.0735779,0.2164612-2.2363892,1.2900391-2.59729
		l1.9210815-0.7878113c-0.182251-0.454834-0.4387207-1.0751648-0.7831116-1.9101257
		c-0.0359802-0.067749-0.0675354-0.1377563-0.0943604-0.2097473c-0.3383179-0.9065552,0.1221008-1.915741,1.0286255-2.2540588
		l3.219635-1.2008362c1.5140991-0.6048584,2.5056152-0.1093445,2.9228821,1.269043l0.5845337,1.7064209l1.993988-0.7310181
		c0.0565796-0.0203552,0.1140442-0.0382385,0.1721802-0.0534363c1.0914917-0.2866821,2.2086792,0.3658447,2.4953308,1.4573059
		l1.1158447,2.8864441c0.4139404,1.0896606-0.0435791,2.3175354-1.0699768,2.8705444
		c-2.6453857,1.1218872-2.3949585,2.2187195-1.6489563,3.8368225c0.6419983,1.3931274,2.1715393,2.3009949,3.6118469,1.7321167
		c1.0259399-0.3960266,1.7947388-1.2661133,2.0615234-2.3329773c0.0031128-0.0503235,0.0201111-0.0990601,0.0489807-0.1404419
		c0.0871887-0.125,0.2591553-0.1558533,0.3843689-0.068634c1.5360413,0.6963196,3.3484497,0.071106,4.1282043-1.4242249
		c0.013855-0.0237122,0.0315247-0.0447083,0.0520935-0.0626221c0.1039734-0.089447,0.2607422-0.0778198,0.3501892,0.0261841
		c0.7169189,0.6647949,1.6967773,0.9684753,2.6641541,0.8253479c1.7609863-0.260498,2.9776611-1.8993835,2.7171631-3.6603699
		c-0.3396606-1.5281982-0.887085-2.8600464-3.7686157-2.2073059c-1.1932068,0.1891785-2.3208923-0.6033325-2.5467529-1.7900391
		l-0.6838074-3.0376282c-0.2790833-1.2461853,0.5028992-2.4832458,1.74823-2.7661133l1.5080566-0.339447l-0.4691467-2.0926208
		c-0.2795105-1.2462158,0.5024719-2.4837036,1.74823-2.7661133l3.0427551-0.6838379
		c1.2450867-0.2790527,2.4810181,0.5033569,2.7607727,1.74823l0.4751587,2.0979919l1.5351257-0.3441467
		c0.0024719-0.0006714,0.0051575-0.0013428,0.007843-0.0018005c1.244873-0.2784119,2.4796753,0.5049133,2.7583008,1.7500305
		l0.6829224,3.0380554c0.3016663,1.1659241-0.3743286,2.361145-1.5288696,2.7035217
		c-2.6203308,0.5898743-2.8132935,2.0776062-2.463562,3.6118469c0.479187,1.6131592,2.1268005,2.5785217,3.7683716,2.2079773
		c0.6934204-0.1529541,1.3202209-0.5221558,1.7900391-1.0543518c0.0018005-0.0024719,0.0033569-0.0049133,0.0049438-0.0071716
		c0.0769043-0.1080017,0.2267456-0.1332703,0.3347473-0.0563354c0.5813904,0.4528198,1.2980957,0.6976929,2.0351257,0.6952209
		c0.9767456,0.0031433,1.9058838-0.4224243,2.5413818-1.1643677c0.0071716-0.0118408,0.0156555-0.0230408,0.0248413-0.0333252
		c0.0876465-0.0979309,0.2381592-0.1062012,0.3363037-0.0185547c0.578949,0.4257507,1.2793274,0.6542969,1.9980164,0.6520691
		c1.6865234,0.0055847,3.0863647-1.3023376,3.1945801-2.9857178c0-1.5713501-0.2294312-2.9855042-3.1945801-2.9855042
		c-1.2023926-0.0771484-2.1250305-1.0970764-2.0818481-2.3010254v-3.1178894
		c0.0004272-1.2763977,1.035553-2.3108215,2.3119507-2.3103943h1.5443115v-2.1491699
		c0.0010986-1.2790833,1.0389099-2.315094,2.3179932-2.3139954h3.0630798
		c1.2770996,0.0029297,2.309967,1.0407104,2.3070679,2.3180237v2.1451416h1.5491943
		c1.278656,0.0011292,2.314209,1.0384827,2.3131104,2.3171082v3.1105042c0.0411377,1.2055359-0.883728,2.2254333-2.087677,2.3016968
		c-2.959137,0-3.1941528,1.4613342-3.1941528,2.9855042c0.1263428,1.6744385,1.5150146,2.9725342,3.1941528,2.9855042
		c0.7184753-0.0009155,1.418396-0.2292175,1.9993286-0.6520691c0.0089417-0.007843,0.0187988-0.0149841,0.0288696-0.0214844
		c0.1115723-0.071106,0.2598267-0.0382385,0.3309326,0.0735779c1.1607971,1.3477478,3.1724548,1.553894,4.5825806,0.4698181
		c0.0020142-0.0015564,0.0042419-0.0031433,0.0064697-0.0044861c0.1089172-0.071991,0.2556152-0.0418091,0.3276062,0.0673218
		c0.4702759,0.5319824,1.09729,0.9011841,1.7907104,1.0543518c1.6431274,0.3723145,3.2936401-0.593689,3.7733154-2.2086487
		c0.3443604-1.5281982,0.1565247-3.0213013-2.4691772-3.6114197c-1.1549683-0.3414612-1.8298645-1.5389099-1.5234985-2.703949
		l0.6838074-3.037384l0.0013428-0.0065002c0.281311-1.2426147,1.516571-2.0223694,2.7594299-1.7410583l1.5342407,0.3441467
		l0.4698181-2.0986633c0.2819824-1.2437439,1.516571-2.0255127,2.7614441-1.74823l3.0429688,0.6838379
		c1.2455444,0.2824097,2.0277405,1.5196838,1.74823,2.7661133l-0.4698181,2.0932922l1.508728,0.3387756l0.0011292,0.0002136
		c1.2462158,0.281311,2.0284119,1.5197144,1.7471008,2.7658997l-0.6838074,3.0376282
		c-0.2251892,1.1851501-1.3501892,1.9778748-2.5420837,1.7907104c-2.8862-0.6534119-3.4235535,0.6728516-3.7732849,2.2073059
		c-0.2453003,1.6619263,0.8269348,3.2339478,2.4638062,3.6118469c1.0427246,0.23526,2.1348572-0.0552368,2.9226685-0.7774963
		c0.0185547-0.0219116,0.0406799-0.0404968,0.0655212-0.0545654c0.1164856-0.0661926,0.2645264-0.0254822,0.330719,0.0910034
		c0.7819824,1.4964294,2.5966187,2.12146,4.1344299,1.4242249c0.0415955-0.0290833,0.0903625-0.0456238,0.1408997-0.0483093
		c0.1502686-0.0080566,0.2783813,0.1073303,0.286438,0.2573853c0.2687988,1.0657654,1.0368958,1.9351807,2.0612793,2.3329773
		c1.4412231,0.5695496,2.9700928-0.3389893,3.6174622-1.7321167c0.7417297-1.6234741,0.9968872-2.7149353-1.6543274-3.8368225
		c-1.0266113-0.5527649-1.4827881-1.7819824-1.0653076-2.8707886l1.1171875-2.8862
		c0.0165405-0.0648499,0.0364685-0.1290283,0.0594788-0.1920776c0.3841858-1.0534668,1.5498962-1.5961914,2.603363-1.2120056
		l1.9979858,0.7312317l0.5845337-1.7064209c0.413269-1.3783875,1.408783-1.8739014,2.9175415-1.269043l3.2209473,1.2008362
		c0.074707,0.0274963,0.1473694,0.0603638,0.2175903,0.0979309c0.8513184,0.4552917,1.1719666,1.5145569,0.7167053,2.3656311
		c-0.3394775,0.8405762-0.5952759,1.460907-0.7831116,1.9103699l1.9204102,0.7878113
		c0.0673218,0.022583,0.1334839,0.0487366,0.1981201,0.0782471
		C412.3482361,475.3236694,412.8017273,476.540802,412.3305664,477.5714722z M317.9075012,476.2409363
		c0-1.3546448-1.0982056-2.4526062-2.4528503-2.4528503c-1.3548889-0.0002136-2.4535217,1.0979614-2.4535217,2.4528503
		c-0.0002441,1.3548889,1.0979614,2.4535217,2.4528503,2.4537659c1.3548889,0.0002136,2.4535217-1.0982056,2.4535217-2.4530945
		V476.2409363z M340.0645142,469.3830872c-0.0002441-1.3546753-1.0984192-2.4528503-2.4530945-2.453064
		c-1.3548889-0.0002441-2.4532776,1.0979309-2.4534912,2.453064c-0.0002441,1.3548889,1.0979309,2.4532776,2.4528503,2.4535217
		c1.3551025,0.0002136,2.4534912-1.0979614,2.4537354-2.4528503V469.3830872z M362.4021912,466.9042969
		c0.0015869-1.3530884-1.0941467-2.4512939-2.4474792-2.4528503c-1.3542175,0.0004578-2.452179,1.0979614-2.453064,2.452179
		c0.0011292,1.351532,1.0961609,2.4468079,2.4477234,2.4483643
		C361.3024597,469.3533325,362.4008484,468.2576294,362.4021912,466.9042969z M382.3673401,471.8359375
		c1.3535461,0.0013428,2.4517212-1.0948486,2.453064-2.4481506c0.0013428-1.3535461-1.0948181-2.4517517-2.4483643-2.453064
		c-1.3546753,0.0002136-2.4526367,1.0983887-2.4528503,2.453064
		C379.9205322,470.7393188,381.0158081,471.8345947,382.3673401,471.8359375z M406.9792175,476.2416077
		c0.00177-1.3530884-1.0934753-2.4517212-2.4468079-2.4535217c-1.3548889,0-2.4533081,1.0982056-2.4537354,2.4528503
		c0.0015564,1.3508606,1.0961609,2.4457092,2.4470215,2.4474792
		C405.8787842,478.6904297,406.977417,477.5949402,406.9792175,476.2416077z M414.4106445,458.3912354h-0.0069275
		c-2.1992798,0.0145264-3.97052,1.8090515-3.9562073,4.0083008c0.0143127,2.1992798,1.8088074,3.9705505,4.0080872,3.9559937
		c2.1990356-0.0143127,3.9703064-1.8083801,3.9562073-4.0074158
		C418.3995056,460.1506348,416.6081238,458.3791504,414.4106445,458.3912354z M397.5137634,494.993866l-2.6149597,3.9150696
		c-1.1744385,1.5910339-1.2466736,1.602417-2.8754883,0.6932068c-9.3270264-5.2138367-24.2540894-6.6595154-32.0254211-6.6691284
		c-7.7717896,0.009613-22.6988525,1.4662476-32.0252075,6.6691284h0.0093994
		c-1.6335449,0.9132385-1.7057495,0.8984985-2.8754883-0.6932068l-2.6143188-3.9143982
		c-0.8347473-1.3023682-0.7479858-2.2471313,0.2605286-2.8343506c4.3119812-2.3566895,8.902832-4.1628418,13.6647339-5.3764038
		c15.4831848-3.889801,31.6879883-3.889801,47.1709595,0c4.7628174,1.2110901,9.3538818,3.0174866,13.6647339,5.3764038
		C398.2626343,492.7478638,398.3494263,493.6924133,397.5137634,494.993866z M333.9794617,492.3788757
		c-0.4414063-1.2528992-1.7972107-1.9295654-3.0639954-1.529541c-0.0248108,0.0085144-0.0498657,0.0174561-0.0744629,0.0268555
		c-1.1987915,0.4523621-1.8036804,1.7911682-1.3510742,2.9897461v0.0006714
		c0.4449768,1.2497864,1.7976379,1.9251099,3.0637512,1.529541c0.0250549-0.0085144,0.0500793-0.0174561,0.0746765-0.0266113
		C333.827179,494.9167175,334.4320679,493.5776978,333.9794617,492.3788757z M347.9876709,489.2164917
		c-0.0040283-0.0375671-0.0091553-0.0751343-0.01474-0.1124573c-0.2157898-1.3927002-1.5195007-2.3468628-2.9119568-2.131073
		c-1.3924561,0.2155762-2.3461609,1.5190125-2.1310425,2.9114685v-0.0002136v0.0006714c0-0.0002136,0-0.0002136,0-0.0004578
		l0.0010986,0.007843c0.1878357,1.3942566,1.4707336,2.3721313,2.8649902,2.1842957l0.0060425-0.0009155
		C347.1951904,491.8896179,348.1737366,490.6096191,347.9876709,489.2164917z M362.5115662,488.5490112
		c0.0004272-1.4065552-1.1395569-2.5472107-2.5461121-2.5474243c-1.4065552,0-2.5469971,1.1399841-2.5474243,2.5467529
		c0,1.406311,1.1399841,2.5463257,2.5460815,2.5467529C361.3706665,491.0953369,362.511322,489.9555664,362.5115662,488.5490112z
		 M377.0591431,489.8752747c0.1820068-1.3969421-0.8027954-2.677124-2.1999512-2.8591614
		c-1.3969421-0.1820068-2.6769104,0.8027954-2.8591614,2.199707c-0.0002136,0.0029297-0.0006714,0.0060425-0.0010986,0.0089417
		c-0.1820374,1.3969421,0.8027649,2.6771545,2.199707,2.8591614c1.3971558,0.1820374,2.677124-0.8027649,2.8591614-2.1999207
		C377.0582275,489.8811035,377.0586853,489.8781738,377.0591431,489.8752747z M389.0735779,490.8446655
		c-1.2661133-0.3933411-2.6171875,0.281311-3.0637512,1.5295105l0.0004272-0.0006714
		c-0.0093689,0.0252686-0.0185547,0.0509949-0.0272827,0.0764771c-0.4112244,1.2131348,0.2386169,2.5295715,1.4517212,2.9407959
		c1.2658997,0.3973694,2.6194458-0.2781982,3.0631104-1.5288696c0.010498-0.0279541,0.0207825-0.0561218,0.0303955-0.0845337
		C390.9363098,492.5658264,390.2851257,491.2527466,389.0735779,490.8446655z M323.6877441,445.6802063
		c1.7585144,0.0731201,3.2240906-1.3191223,3.2972107-3.0776367c0.0366821-1.7585144-1.3555603-3.2240906-3.1140747-3.2974243
		c-0.0366821,0-0.0366821,0-0.0733337,0c-1.7218628,0-3.1507568,1.3557739-3.187439,3.0776062
		C320.5367737,444.177948,321.9290161,445.6435242,323.6877441,445.6802063z M316.9830627,451.1391296
		c1.9416504,0,3.4805908-1.5389404,3.4805908-3.4439087c0-1.8685608-1.5022583-3.4439087-3.4072571-3.4439087
		c-0.0366516,0-0.0366516,0-0.0733337,0c-1.8685303,0-3.4072571,1.5386963-3.4072571,3.4072266c0,0.0366821,0,0.0366821,0,0.0733337
		C313.5758057,449.6001892,315.1145325,451.1391296,316.9830627,451.1391296z M355.1434021,427.1591797v-3.4709473
		c0.0015564-0.4825745,0.3942261-0.872345,0.8768005-0.8707886h1.3667297v-1.3736572
		c-0.0064697-0.0597229-0.0062561-0.119873,0.0009155-0.1795654c0.051178-0.4329224,0.443634-0.7424011,0.8765564-0.6911926
		h3.4716492c0.0480652-0.0042725,0.0963745-0.0042725,0.1444397,0.0002136
		c0.4412231,0.0400391,0.7663574,0.4300232,0.7263184,0.8712158v1.3729858h1.3730164
		c0.4825439-0.0015564,0.875,0.3882141,0.8768005,0.8707886v3.4709473
		c-0.0009155,0.4839172-0.3929138,0.8761292-0.8768005,0.8774719h-1.3730164v1.3667603c0,0.0026855,0,0.005127,0,0.0078125
		c-0.0004578,0.4807739-0.3906555,0.8700867-0.8714294,0.8696594h-3.4700928
		c-0.4841003-0.0009155-0.8763428-0.3926697-0.8774414-0.8768005v-1.3674316h-1.3676453c-0.0011292,0-0.0022278,0-0.0031433,0
		C355.5333862,428.035553,355.1422729,427.6426392,355.1434021,427.1591797z M358.0336304,425.4310913
		c0.0013428,1.0823059,0.8799438,1.9588623,1.9622498,1.9575195c1.0825195-0.0013428,1.9588623-0.8799133,1.9575195-1.9622192
		c0-1.0811768-0.8763428-1.95755-1.9575195-1.95755c-0.0015869,0-0.0031433,0-0.0046997,0
		C358.9088745,423.4701843,358.0322876,424.3485413,358.0336304,425.4310913z M344.1311951,436.4842224
		c1.2457581,0.0366516,2.2714844-0.9892883,2.2714844-2.2348328c0-0.0366821,0-0.0366821,0-0.0733337
		c0-1.2091064-1.0257263-2.1983948-2.2348022-2.1983948c-1.2455444-0.036438-2.2715149,0.9892883-2.2715149,2.2350464
		C341.8963623,435.458252,342.8856506,436.4842224,344.1311951,436.4842224z M351.1290283,438.9021606
		c-0.329834-0.2931519-0.7694397-0.51297-1.2824402-0.51297c-0.9890442,0-1.7951965,0.8061523-1.7951965,1.7954102
		c0,0.9890747,0.8061523,1.7951965,1.7951965,1.7951965c0.8428345,0,1.5756226-0.5863037,1.7587585-1.3922424
		c0.2929382,0.2931824,0.7327881,0.5130005,1.2088623,0.5130005c0.9526062,0,1.758728-0.8061523,1.758728-1.7587585
		c0-0.9890442-0.8061218-1.7585144-1.758728-1.7585144C351.9716187,437.5832825,351.3121643,438.1329346,351.1290283,438.9021606z
		 M350.2497864,435.8247681c1.0623779,0.036438,1.9783325-0.842804,1.9783325-1.9418945
		c0-1.0990601-0.8792725-1.9783325-1.9416809-1.9783325h-0.0366516c-1.0626221,0-1.9418945,0.8792725-1.9785767,1.9416809
		C348.2712097,434.945282,349.1504822,435.8247681,350.2497864,435.8247681z M330.6513672,441.4703979h0.0022583h0.0053406
		c1.6113892,0.0487671,2.9568787-1.2180176,3.0056458-2.8291931l0.0002136-0.0098267
		c0.0527649-1.6073608-1.2075195-2.9530945-2.8148804-3.0058594l-0.0241394-0.0006714
		c-1.6140747-0.0480652-2.961792,1.221405-3.0098877,2.8354492
		C327.7676086,440.074585,329.0370789,441.4221191,330.6513672,441.4703979z M337.5488281,438.4220581
		c1.4246521,0.0610657,2.6290588-1.0440674,2.690094-2.4687195c0.0612793-1.4246521-1.0440674-2.6290588-2.4687195-2.6903076
		c-0.0232544-0.0009155-0.0462952-0.0015869-0.0695496-0.0020142c-1.4257813-0.0228271-2.5999756,1.1147156-2.6228027,2.5404968
		C335.0557251,437.2000122,336.1512146,438.3621521,337.5488281,438.4220581z"/>
	<path class="st2" d="M420.7886353,462.0383911c-0.5105286-2.8157654-2.835907-4.9459229-5.6856689-5.2084656h-0.0210266
		c1.0219421-3.0879211-0.6529541-6.4195557-3.7408752-7.4412537c-0.598175-0.1979065-1.2240601-0.2985535-1.8542175-0.2980957
		c-0.2294312,0-0.4649048,0.0154419-0.6945496,0.036438c0.0469666-0.2828674,0.0697632-0.5693054,0.0682068-0.8559875
		c-0.0029297-3.0704651-2.4926453-5.558197-5.5633545-5.5586548c-0.5085144-0.0006714-1.0147705,0.0697632-1.5038147,0.2092896
		v-0.0892029c0.0022278-2.8343506-2.2936401-5.1337891-5.1279907-5.1360168h-0.0073547
		c-0.7424316-0.0009155-1.4763184,0.1594238-2.1505432,0.4698181c-0.4601746-2.6925659-3.0161133-4.5022888-5.7086792-4.0420837
		c-0.5773926,0.0986023-1.132843,0.2991943-1.6402283,0.5921326c-0.9689331-2.4096985-3.7080078-3.5774231-6.1177063-2.60849
		c-0.4116821,0.1657104-0.7980652,0.3886414-1.1471558,0.6625671c-1.1106873-2.0583801-3.6795959-2.8269653-5.7379761-1.7162476
		c-0.3841858,0.2070618-0.7339172,0.4725037-1.0371399,0.7866821c-1.2104187-1.7209473-3.5870361-2.1348572-5.3079834-0.9241943
		c-0.7075195,0.4975281-1.2245178,1.2209473-1.4662476,2.0514526c-1.7589722-0.3551025-2.2808838-1.101532-2.2808838-2.2815552
		c0-0.463562,0.0829773-0.5163269,0.5326538-0.5163269h0.3544312c0.7327881,0.0395508,1.3591309-0.5226135,1.3984985-1.2554016
		c0.0002136-0.0040283,0.0004578-0.0080566,0.0006714-0.0122986v-5.6733704c0-0.9760742-0.3915405-1.7489014-1.5031433-1.7489014
		h-0.8667297v-1.2055054c0.0565491-0.5556946-0.3479614-1.052124-0.9034119-1.1087036
		c-0.0867615-0.0089417-0.1741943-0.0064697-0.2602844,0.0071716h-5.6322327
		c-0.5518799-0.0867615-1.0697937,0.2902527-1.1565552,0.8421326c-0.0133972,0.0858765-0.0158691,0.1730652-0.0071411,0.2593994
		v1.2055054h-0.8660583c-1.1169739,0-1.5078735,0.7784119-1.5078735,1.74823v5.6740417
		c0.0351257,0.7354736,0.6599121,1.3032532,1.3953857,1.2681274c0.0026855-0.0002136,0.0053711-0.0002136,0.0078125-0.0004272
		h0.3497314c0.448822,0,0.5380249,0.0527649,0.5380249,0.5169983c0,1.1793518-0.5223694,1.9204102-2.2815552,2.2808838
		c-0.5878906-2.0203857-2.7023926-3.1813965-4.7227783-2.5935059c-0.8305054,0.2417297-1.553894,0.7589417-2.0514526,1.4662476
		c-1.6234436-1.6831665-4.3041687-1.7314758-5.9873047-0.1080017c-0.314209,0.3032227-0.5798645,0.6531677-0.7871399,1.0375671
		c-2.0396118-1.6022034-4.9917908-1.2473145-6.5939941,0.7922668c-0.2757263,0.3510742-0.5002441,0.7399597-0.6661682,1.1543274
		c-2.3674011-1.3671875-5.3947449-0.556366-6.7619324,1.8108215c-0.2926941,0.5067139-0.4932861,1.0615234-0.5923462,1.6384583
		c-0.6719666-0.3108215-1.4038696-0.471405-2.1444702-0.4698181c-2.8370361-0.0024719-5.1389465,2.2956238-5.1413879,5.1326599
		c0,0.0011292,0,0.0022278,0,0.0033569v0.0892029c-2.9551086-0.8329468-6.0260315,0.8877563-6.8587646,3.842865
		c-0.1381836,0.4901733-0.2084045,0.9971008-0.2084045,1.5065002c-0.0004578,0.286438,0.0207825,0.5726929,0.0632629,0.8557739
		c-0.2287598-0.0227966-0.4581909-0.0350952-0.6882935-0.036438c-3.2556152-0.0022583-5.8965149,2.6346436-5.8989868,5.8900452
		c0,0.000885,0,0.0020142,0,0.0028992c-0.00177,0.6281433,0.1008606,1.2522583,0.303894,1.8466187
		c-3.5045166,0.3191223-6.0870667,3.4184265-5.7679443,6.9229431c0.259613,2.854248,2.3931274,5.1838684,5.2135925,5.6928406
		c1.675354,0.2978516,3.22052,0.4226074,3.8522644,2.0925903c0.1721802,0.4541626,0.3915405,0.9968872,0.6366272,1.6914368
		l-1.2001648,0.500885c-1.7280884,0.7202759-2.2140198,2.1869812-1.6706238,3.5803223l1.7799683,4.9537659
		c0.6681824,2.0087585,1.711792,3.2088928,3.7583313,2.6460571c1.9412231-0.5333252,2.6142883-0.704834,3.2824707,0.5371399
		c1.9675903,3.9150696,3.4863892,5.9237976,6.2735596,5.8983154c-1.9358521,1.2520447-1.8685608,1.6279297-0.2140198,4.1375732
		l3.3242798,4.9747925c1.1279297,1.7435303,1.6491699,2.2133484,2.8600464,2.960022
		c6.4772949,3.7468872,19.9801331,6.4973755,32.9603882,6.4973755s26.4875488-2.7504883,32.9648132-6.4973755
		c1.2055359-0.7413025,1.7328186-1.2164917,2.8607483-2.960022l3.3189087-4.9745789
		c1.660553-2.5042725,1.7280884-2.8804016-0.2140198-4.1377869c2.7878418,0.0254822,4.3059692-1.9839172,6.2782593-5.8983154
		c0.6634827-1.2419739,1.3419189-1.0697937,3.2784424-0.5378113c2.0458679,0.5635071,3.0894775-0.6366272,3.7623291-2.6460571
		l1.7799988-4.9530945c0.543396-1.3933411,0.0527649-2.8600464-1.6699524-3.5803223l-1.2001648-0.500885
		c0.2450867-0.6945496,0.464447-1.2372742,0.6319275-1.6914368c0.6304016-1.6699829,2.1816101-1.7956543,3.8562622-2.0925903
		C419.1186523,468.8177795,421.4167786,465.5013428,420.7886353,462.0383911z M409.2019653,450.5803223
		c2.0523376-0.0152283,3.7283325,1.6359558,3.7437744,3.6880798v0.0042725
		c0.0102844,2.0509949-1.6440125,3.7220764-3.6950378,3.7325745h-0.0055847
		c-2.0492249,0.0114136-3.719635-1.6404419-3.7312622-3.6896667
		C405.5031128,452.2668152,407.1529541,450.5957336,409.2019653,450.5803223z M399.5220642,447.7113037
		c-0.0114136-1.9065552,1.5250549-3.4613342,3.4316101-3.4727478c1.9067688-0.0114136,3.4615784,1.5250549,3.4727478,3.4318237
		l0.0002441,0.0136414c0.0075989,1.9014282-1.5275269,3.4492798-3.4291687,3.4571228h-0.0022278
		c-1.9058838,0.0122986-3.4611511-1.5230408-3.4732056-3.4289246V447.7113037z M396.1137085,439.367981
		c1.744873-0.0682068,3.2149048,1.2909241,3.2833557,3.0360107v0.0020142
		c0.0672913,1.7442322-1.291626,3.2129211-3.0358276,3.2813416c-1.7450867,0.0684509-3.2151489-1.2909241-3.2833557-3.0357971
		C393.0094604,440.9064331,394.3685913,439.4364014,396.1137085,439.367981z M389.158783,435.6212769
		c1.6151733-0.0483093,2.9635925,1.2220764,3.0116577,2.8372498l-0.0006714,0.0053711v0.0031128
		c0.0454102,1.6136169-1.2260742,2.9582214-2.8396912,3.0033875c-1.6140747,0.0465088-2.9604492-1.2233887-3.0087585-2.8374634
		C386.2732544,437.0177612,387.5436096,435.669342,389.158783,435.6212769z M378.0967102,434.2209778l0.0060425,0.0006714
		c0.8323059,0.0943909,1.4883728,0.6789246,1.7173767,1.4329529c0.080719-1.3363342,1.1500549-2.4139404,2.5103149-2.4336243
		c1.4262085-0.0205688,2.5990906,1.1187439,2.6196594,2.5449829c0.0223694,1.3993835-1.0737915,2.5619812-2.4718628,2.6216736
		c-1.2891541,0.0552368-2.3519897-0.8627014-2.5968628-2.0896912c-0.0013123,0.058136,0.021698,0.1106873,0.0152283,0.1694946
		c-0.12323,1.1171875-1.1290588,1.9230957-2.2462463,1.7998962c-1.1174011-0.1234436-1.9233093-1.1290588-1.8001099-2.24646
		C375.9736938,434.9034729,376.9793091,434.0975647,378.0967102,434.2209778z M371.703064,433.8605347h0.0006714
		c1.0814209,0.0002136,1.9580078,0.8768005,1.9577637,1.9581909c-0.0002136,0.6795654-0.3680725,1.249115-0.8937988,1.5999756
		c14.0227661,2.4772339,31.3241882,14.3009338,37.4901733,30.3570251c0.0943604,0.2397156-0.145813,0.407196-0.3754578,0.3126221
		c-1.1797791-0.4805603-3.4917603-1.3777161-5.0895081-1.9150391c-0.9850159-0.4060974-2.1200867-0.0769348-2.7350464,0.7931519
		c-0.2889099,0.5782776-0.5261536,1.1809082-0.7093201,1.8009949c-0.0346375,0.0686646-0.0988159,0.1176453-0.1739502,0.132843
		c-0.1355286,0.0274963-0.2676697-0.0601501-0.2951965-0.1956787
		c-2.5577087-13.4453735-16.0495911-26.6968689-29.3956909-30.9513855v0.0006714
		c-0.0773621-0.0241394-0.1234436-0.0393677-0.1911926-0.0606079c-0.1694946-0.0375671-0.330719-0.079834-0.4805603-0.1580811
		c-0.3327332-0.1165161-0.4541626-0.1903076-0.4438782-0.2994385c-0.3792419-0.3571167-0.6227722-0.8555603-0.6225281-1.4177246
		C369.7457581,434.7370911,370.6221008,433.8607483,371.703064,433.8605347z M392.8171387,466.2043762
		c-0.00177,0-0.0035706,0-0.0053711,0c-2.0076294-0.0011292-3.6339722-1.6292725-3.632843-3.6369019
		c0.0004272-0.6055298,0.1853638-1.1511536,0.4474487-1.6531982c-1.6239014-0.1594238-2.9076843-1.4830017-2.9079285-3.1487427
		c-0.0002136-1.7728271,1.4367371-3.2099915,3.2095642-3.2102356h0.0006714
		c1.7726135,0.0002441,3.2095642,1.4371948,3.2098083,3.2095642c0,0.4208679-0.0921326,0.8182373-0.239502,1.1865234
		c1.9664917,0.0478516,3.5508118,1.6422424,3.5496826,3.6201172c0,0.0006714,0,0.0013428,0,0.0020142
		C396.4484558,464.5791321,394.8225403,466.2045898,392.8171387,466.2043762z M394.9927063,476.6535034
		c0,0.0022583,0,0.0046997,0,0.006958c-0.0020142,1.4306946-1.1634827,2.5890198-2.5941772,2.5870056
		c-1.4324646,0-2.5939331-1.1614685-2.5939331-2.5941772c0-1.4324951,1.1614685-2.5939331,2.5939331-2.5939331
		C393.8312378,474.0593567,394.9927063,475.2207947,394.9927063,476.6535034z M383.5878296,447.9268799v0.0026855
		c-0.0006714,1.4807739-1.2017212,2.680481-2.6824951,2.6798096c-1.4814758,0-2.6822815-1.2010498-2.6822815-2.6824951
		s1.2008057-2.6824951,2.6822815-2.6824951C382.3867798,445.2443848,383.5878296,446.4454346,383.5878296,447.9268799z
		 M377.29953,443.270752c0.0073547,1.1746521-0.939209,2.1326294-2.1138611,2.1399841
		c-1.1746521,0.0071716-2.1326294-0.9391785-2.1400146-2.1138306l-0.0002136-0.0190125
		c0.0033569-1.1670532,0.9465637-2.1136169,2.1138611-2.1207581
		C376.3339539,441.1497498,377.2921448,442.0958557,377.29953,443.270752z M368.3313904,440.0933838
		c0.0272827-0.9971008,0.8577881-1.7835693,1.8551331-1.7562866c0.9971008,0.0272827,1.7835388,0.8575745,1.7562561,1.8548889
		c-0.0261536,0.9588623-0.7973938,1.7301331-1.7562561,1.7562866c-0.997345,0.0272827-1.8278503-0.7591858-1.8551331-1.7562866
		C368.3305054,440.1591187,368.3305054,440.1262512,368.3313904,440.0933838z M381.9847412,458.9448853
		c0.0154114,0.0398254,0.0205688,0.0829773,0.0154114,0.1254578c-0.0174255,0.1437988-0.1482544,0.2464294-0.2920532,0.2287598
		c-2.1133728-0.3812561-3.1259155,0.7513428-3.4552917,3.4237976v-0.0049133
		c-2.7817993-0.913269-3.7936707,0.9295654-3.7936707,0.9295654c-0.045166,0.0708923-0.1216431,0.1158447-0.2055054,0.1211853
		c-0.1455688,0.0093994-0.2710266-0.1010742-0.2803955-0.2466431c-0.1983643-3.7685852-1.9776611-15.7208862-10.7103271-23.3936157
		c-0.4534912-0.3962402-0.7303467-0.6784363-0.6263428-0.7985229c0.094574-0.1147156,0.4503479,0.0782471,1.044281,0.3504028
		C372.934967,443.9024658,380.4498291,453.7825012,381.9847412,458.9448853z M373.3893738,472.6561584
		c0,0.0022278,0,0.0046997,0,0.0069275c-0.0020142,1.4306946-1.1634827,2.5890198-2.5941772,2.5870056
		c-1.4324951,0-2.5939636-1.161438-2.5939636-2.5939331c0-1.4327087,1.1614685-2.5941772,2.5939636-2.5941772
		C372.2279053,470.0619812,373.3893738,471.2234497,373.3893738,472.6561584z M359.960083,437.4466553
		c-1.5360107-0.0002136-2.7808838-1.2455444-2.7808838-2.7815552c0-1.5362549,1.2453308-2.7817993,2.7815552-2.7817993
		c1.5362549,0,2.7817993,1.2455444,2.7817993,2.7817993c0,0.0006714,0,0.0010986,0,0.00177
		C362.7418823,436.2029114,361.4961243,437.4473267,359.960083,437.4466553z M361.9136047,440.3006592v0.0006714
		c0,0.0044861,0,0.0089417,0,0.0134277c-0.0038147,1.0720215-0.8718872,1.940094-1.9439087,1.9441223
		c-1.0776062,0.0037842-1.9544067-0.8665161-1.9581909-1.9441223c-0.0040283-1.0776062,0.8665161-1.9541931,1.9438782-1.9582214
		C361.0329895,438.3527527,361.90979,439.223053,361.9136047,440.3006592z M359.960083,443.1510925
		c1.3316345,0.0002441,2.4110413,1.0796204,2.4112549,2.4110413v0.000885
		c-0.0002136,1.3316345-1.0800476,2.4112549-2.4119263,2.4110413c-1.3316345-0.0002136-2.4112549-1.0800781-2.4110107-2.4119263
		C357.5486145,444.2304993,358.6284485,443.1508789,359.960083,443.1510925z M359.9918518,448.8656311
		c2.2627563,0,4.0973206,1.8345337,4.0973206,4.0973206c-0.0002441,2.2627563-1.8345642,4.0970764-4.0973206,4.0973206
		c-2.2627869,0-4.0971069-1.8345642-4.0973206-4.0973206C355.8945313,450.7001648,357.7290649,448.8656311,359.9918518,448.8656311z
		 M365.4688721,435.6646423c0.9971008,0.0272827,1.7835693,0.8578186,1.7562866,1.8549194
		c-0.0261536,0.9590759-0.7974243,1.7303467-1.7562866,1.7565002c-0.0328674,0.000885-0.0657349,0.000885-0.0986023,0
		c-0.997345-0.0272827-1.7835693-0.8577881-1.7562866-1.8548889
		C363.6410522,436.4238281,364.4715576,435.6376038,365.4688721,435.6646423z M355.1434021,427.1591797v-3.4709473
		c0.0015564-0.4825745,0.3942261-0.872345,0.8768005-0.8707886h1.3667297v-1.3736572
		c-0.0064697-0.0597229-0.0062561-0.119873,0.0009155-0.1795654c0.051178-0.4329224,0.443634-0.7424011,0.8765564-0.6911926
		h3.4716492c0.0480652-0.0042725,0.0963745-0.0042725,0.1444397,0.0002136
		c0.4412231,0.0400391,0.7663574,0.4300232,0.7263184,0.8712158v1.3729858h1.3730164
		c0.4825439-0.0015564,0.875,0.3882141,0.8768005,0.8707886v3.4709473
		c-0.0009155,0.4839172-0.3929138,0.8761292-0.8768005,0.8774719h-1.3730164v1.3667603c0,0.0026855,0,0.005127,0,0.0078125
		c-0.0004578,0.4807739-0.3906555,0.8700867-0.8714294,0.8696594h-3.4700928
		c-0.4841003-0.0009155-0.8763428-0.3926697-0.8774414-0.8768005v-1.3674316h-1.3676453c-0.0011292,0-0.0022278,0-0.0031433,0
		C355.5333862,428.035553,355.1422729,427.6426392,355.1434021,427.1591797z M356.306427,439.68573
		c0.5952759-0.2714844,0.9503784-0.464447,1.044281-0.3497314c0.1091309,0.1196289-0.1721802,0.3962402-0.6265564,0.7978516
		c-8.7364807,7.6727295-10.516449,19.625-10.7094421,23.3929443c-0.0046997,0.0854187-0.0505371,0.1634521-0.1231995,0.2088623
		c-0.12323,0.0771484-0.2857971,0.0397949-0.3629456-0.0834045c0,0-1.0116272-1.8421631-3.7940979-0.9293518l0.0006714,0.0053711
		c-0.3300476-2.6724548-1.3419189-3.8050537-3.4559937-3.423584c-0.0413513,0.0044861-0.0831909-0.0006714-0.1221008-0.0151978
		c-0.1363831-0.0509949-0.205719-0.2028198-0.1547241-0.3392334
		C339.5367737,453.7878723,347.0527344,443.9078369,356.306427,439.68573z M351.7927246,472.6561584
		c0,1.4324951-1.1614685,2.5939331-2.5941772,2.5939331c-1.4324646,0-2.5939331-1.161438-2.5939331-2.5939331
		c0-0.0018005,0-0.0035706,0-0.0053711c0.0013428-1.4311523,1.1628113-2.5901489,2.5939331-2.5888062
		C350.6312561,470.0619812,351.7927246,471.2234497,351.7927246,472.6561584z M327.1681213,466.196991
		c-2.0150146,0-3.6270752-1.61203-3.6270752-3.6270447s1.6487427-3.6270447,3.6270752-3.6270447
		c2.0152283,0,3.6637268,1.61203,3.6637268,3.6270447S329.1833496,466.196991,327.1681213,466.196991z M330.1838074,476.6535034
		c0,1.4324951-1.1612549,2.5939636-2.5939636,2.5939636s-2.5939331-1.1614685-2.5939331-2.5939636
		c0-0.0022278,0-0.0042419,0-0.0062561c0.0015564-1.4309082,1.1630249-2.5894775,2.5939331-2.5878906
		C329.0225525,474.0593567,330.1838074,475.2207947,330.1838074,476.6535034z M330.0625916,454.5463562
		c0-1.7585144,1.4289246-3.1874084,3.187439-3.1874084c1.7951965,0,3.2240906,1.428894,3.2240906,3.1874084
		s-1.428894,3.2241211-3.2240906,3.2241211C331.4915161,457.7704773,330.0625916,456.3048706,330.0625916,454.5463562z
		 M336.4007874,447.9150391c0-1.4656067,1.2090759-2.674469,2.6744385-2.674469c1.5022583,0,2.7113342,1.2088623,2.7113342,2.674469
		c0,1.5020142-1.2090759,2.7111206-2.7113342,2.7111206C337.6098633,450.6261597,336.4007874,449.4170532,336.4007874,447.9150391z
		 M342.7025146,443.3353577c0-0.0366516,0-0.0366516,0-0.0733337c0-1.1357422,0.9159241-2.0883484,2.0516663-2.0883484
		c0.0366821,0,0.0366821,0,0.0731201,0c1.1724243,0,2.1250305,0.9526062,2.1250305,2.1250305
		c-0.0366821,1.1723938-0.9892883,2.125-2.1614685,2.125C343.6548767,445.3870544,342.7025146,444.4710999,342.7025146,443.3353577z
		 M354.572937,439.3417969c0,0.9526062-0.8061218,1.7587585-1.758728,1.7587585
		c-0.4760742,0-0.9159241-0.2198181-1.2088623-0.5130005c-0.183136,0.8059387-0.9159241,1.3922424-1.7587585,1.3922424
		c-0.9890442,0-1.7951965-0.8061218-1.7951965-1.7951965c0-0.9892578,0.8061523-1.7954102,1.7951965-1.7954102
		c0.5130005,0,0.9526062,0.2198181,1.2824402,0.51297c0.183136-0.7692261,0.8425903-1.3188782,1.6851807-1.3188782
		C353.7668152,437.5832825,354.572937,438.3527527,354.572937,439.3417969z M350.2497864,431.904541h0.0366516
		c1.0624084,0,1.9416809,0.8792725,1.9416809,1.9783325c0,1.0990906-0.9159546,1.9783325-1.9783325,1.9418945
		c-1.0993042,0-1.9785767-0.8794861-1.9785767-1.9785461C348.3078918,432.7838135,349.1871643,431.904541,350.2497864,431.904541z
		 M344.1678772,431.9776611c1.2090759,0,2.2348022,0.9892883,2.2348022,2.1983948c0,0.0366516,0,0.0366516,0,0.0733337
		c0,1.2455444-1.0257263,2.2714844-2.2714844,2.2348328c-1.2455444,0-2.2348328-1.0259705-2.2348328-2.2715149
		C341.8963623,432.9669495,342.9223328,431.9412231,344.1678772,431.9776611z M337.7006531,433.2610168
		c0.0232544,0.0004272,0.0462952,0.0010986,0.0695496,0.0020142c1.4246521,0.0612488,2.5299988,1.2656555,2.4687195,2.6903076
		c-0.0610352,1.4246521-1.2654419,2.5297852-2.690094,2.4687195c-1.3976135-0.059906-2.493103-1.2220459-2.4709778-2.6205444
		C335.1006775,434.3757324,336.2748718,433.2381897,337.7006531,433.2610168z M330.8258057,435.6248474l0.0241394,0.0006714
		c1.6073608,0.0527649,2.8676453,1.3984985,2.8148804,3.0058594l-0.0002136,0.0098267
		c-0.0487671,1.6111755-1.3942566,2.8779602-3.0056458,2.8291931h-0.0053406h-0.0022583
		c-1.6142883-0.0482788-2.8837585-1.395813-2.8354492-3.0101013
		C327.8640137,436.8462524,329.211731,435.5767822,330.8258057,435.6248474z M348.4217224,437.2004395
		c0.7457581-0.1100159,1.1791077-0.1142578,1.2001343,0.0315552c0.0257263,0.1674805-0.2139893,0.2457581-1.1171875,0.5212402
		v0.0006714c-13.3447266,4.2538452-26.8373108,17.5053406-29.3948059,30.9500427
		c-0.0140686,0.0794067-0.0655212,0.1471558-0.1383972,0.1815796c-0.1239014,0.0588074-0.2719421,0.0058289-0.3307495-0.1180725
		c-0.1835938-0.6200867-0.4212952-1.2225037-0.7102051-1.8009949c-0.6167297-0.8676453-1.7497864-1.1961365-2.7350464-0.7931519
		c-1.5970764,0.537323-3.9088135,1.4304504-5.0888367,1.9150391c-0.2294312,0.0892334-0.4698181-0.0782776-0.375885-0.3126221
		C316.0722656,451.2666016,334.2041931,439.1997986,348.4217224,437.2004395z M323.7975464,439.3051453
		c0.0366516,0,0.0366516,0,0.0733337,0c1.7585144,0.0733337,3.1507568,1.5389099,3.1140747,3.2974243
		c-0.0731201,1.7585144-1.5386963,3.1507568-3.2972107,3.0776367c-1.758728-0.0366821-3.1509705-1.5022583-3.0776367-3.2974548
		C320.6467896,440.6609192,322.0756836,439.3051453,323.7975464,439.3051453z M313.5758057,447.6585388
		c0-1.8685303,1.5387268-3.4072266,3.4072571-3.4072266c0.0366821,0,0.0366821,0,0.0733337,0
		c1.9049988,0,3.4072571,1.5753479,3.4072571,3.4439087c0,1.9049683-1.5389404,3.4439087-3.4805908,3.4439087
		c-1.8685303,0-3.4072571-1.5389404-3.4072571-3.4072571C313.5758057,447.6952209,313.5758057,447.6952209,313.5758057,447.6585388z
		 M307.0542603,454.2532043c0-2.0150146,1.6487427-3.6637268,3.6637268-3.6637268c0.0366821,0,0.0366821,0,0.0733643,0
		c2.0516663,0,3.7004089,1.6853943,3.7004089,3.7370605c-0.0366821,2.0516968-1.6853943,3.7004089-3.7370911,3.6637573
		c-2.0150146,0-3.7004089-1.6487427-3.7004089-3.6637573C307.0542603,454.2898865,307.0542603,454.2898865,307.0542603,454.2532043z
		 M305.5522461,466.3434753h-0.0366821c-2.1981506,0-3.9568787-1.7951965-3.9201965-3.9933472
		c0-2.1983643,1.795166-3.9935608,3.9935608-3.9568787c2.1981201,0,3.956665,1.795166,3.956665,3.9935608
		C309.5455933,464.5849609,307.7503967,466.380127,305.5522461,466.3434753z M359.9972229,506.9414368h-0.0100708
		c-13.2617798,0-24.6720276-2.4429932-31.2843628-5.3137817c3.315094-1.8003235,6.8806763-3.0950623,10.5786133-3.8406067
		c5.5114746,0.8242493,13.4818115,1.9101257,20.7104492,1.9101257c7.2286072,0,15.1983032-1.0914612,20.7104492-1.9101257
		c3.697937,0.7459717,7.2637024,2.0404968,10.5792847,3.8406067
		C384.6739502,504.4984436,373.2643738,506.9414368,359.9972229,506.9414368z M397.5137634,494.993866l-2.6149597,3.9150696
		c-1.1744385,1.5910339-1.2466736,1.602417-2.8754883,0.6932068c-9.3270264-5.2138367-24.2540894-6.6595154-32.0254211-6.6691284
		c-7.7717896,0.009613-22.6988525,1.4662476-32.0252075,6.6691284h0.0093994
		c-1.6335449,0.9132385-1.7057495,0.8984985-2.8754883-0.6932068l-2.6143188-3.9143982
		c-0.8347473-1.3023682-0.7479858-2.2471313,0.2605286-2.8343506c4.3119812-2.3566895,8.902832-4.1628418,13.6647339-5.3764038
		c15.4831848-3.889801,31.6879883-3.889801,47.1709595,0c4.7628174,1.2110901,9.3538818,3.0174866,13.6647339,5.3764038
		C398.2626343,492.7478638,398.3494263,493.6924133,397.5137634,494.993866z M411.3178101,474.8525085
		c1.030426,0.4711609,1.4839172,1.6882935,1.0127563,2.7189636l-1.2891541,3.2567444
		c-0.0140686,0.0362244-0.0288391,0.0717773-0.0449219,0.1073303c-0.506958,1.1286011-1.8330078,1.6323853-2.9615784,1.1252441
		c-2.0769653-0.7471008-2.5885925-0.203949-4.0027466,2.3591309c-0.7462158,1.4732056-1.9284668,2.6805115-3.3853149,3.4580078
		c-3.9159851,2.0896912-8.7843323,0.6091309-10.8740234-3.3068237c-3.6565552,1.6531982-7.9723511,0.4056396-10.1830444-2.9436951
		c-3.1315002,1.8994141-7.1447449,1.4810181-9.8171997-1.0232544c-3.1411133,1.8586731-7.1342468,1.4069824-9.7807312-1.1062317
		c-2.6465149,2.5132141-6.6396179,2.9649048-9.7807617,1.1062317c-2.6751099,2.5038147-6.6896973,2.9215393-9.8232422,1.022583
		c-2.2102051,3.349762-6.5262451,4.5977783-10.1830444,2.9443665c-1.383728,2.6292725-4.1163025,4.2692871-7.0874939,4.2531738
		c-3.0516968,0.0813904-5.863678-1.645813-7.1711731-4.4043579c-1.4194946-2.5628662-1.9150391-3.0543518-4.0033875-2.3591309
		c-1.3466187,0.442749-2.5420837-0.0371399-3.0058594-1.2325745l-1.2947388-3.2567444
		c-0.0297241-0.0653076-0.0561218-0.131958-0.0789185-0.1999207c-0.361145-1.0735779,0.2164612-2.2363892,1.2900391-2.59729
		l1.9210815-0.7878113c-0.182251-0.454834-0.4387207-1.0751648-0.7831116-1.9101257
		c-0.0359802-0.067749-0.0675354-0.1377563-0.0943604-0.2097473c-0.3383179-0.9065552,0.1221008-1.915741,1.0286255-2.2540588
		l3.219635-1.2008362c1.5140991-0.6048584,2.5056152-0.1093445,2.9228821,1.269043l0.5845337,1.7064209l1.993988-0.7310181
		c0.0565796-0.0203552,0.1140442-0.0382385,0.1721802-0.0534363c1.0914917-0.2866821,2.2086792,0.3658447,2.4953308,1.4573059
		l1.1158447,2.8864441c0.4139404,1.0896606-0.0435791,2.3175354-1.0699768,2.8705444
		c-2.6453857,1.1218872-2.3949585,2.2187195-1.6489563,3.8368225c0.6419983,1.3931274,2.1715393,2.3009949,3.6118469,1.7321167
		c1.0259399-0.3960266,1.7947388-1.2661133,2.0615234-2.3329773c0.0031128-0.0503235,0.0201111-0.0990601,0.0489807-0.1404419
		c0.0871887-0.125,0.2591553-0.1558533,0.3843689-0.068634c1.5360413,0.6963196,3.3484497,0.071106,4.1282043-1.4242249
		c0.013855-0.0237122,0.0315247-0.0447083,0.0520935-0.0626221c0.1039734-0.089447,0.2607422-0.0778198,0.3501892,0.0261841
		c0.7169189,0.6647949,1.6967773,0.9684753,2.6641541,0.8253479c1.7609863-0.260498,2.9776611-1.8993835,2.7171631-3.6603699
		c-0.3396606-1.5281982-0.887085-2.8600464-3.7686157-2.2073059c-1.1932068,0.1891785-2.3208923-0.6033325-2.5467529-1.7900391
		l-0.6838074-3.0376282c-0.2790833-1.2461853,0.5028992-2.4832458,1.74823-2.7661133l1.5080566-0.339447l-0.4691467-2.0926208
		c-0.2795105-1.2462158,0.5024719-2.4837036,1.74823-2.7661133l3.0427551-0.6838379
		c1.2450867-0.2790527,2.4810181,0.5033569,2.7607727,1.74823l0.4751587,2.0979919l1.5351257-0.3441467
		c0.0024719-0.0006714,0.0051575-0.0013428,0.007843-0.0018005c1.244873-0.2784119,2.4796753,0.5049133,2.7583008,1.7500305
		l0.6829224,3.0380554c0.3016663,1.1659241-0.3743286,2.361145-1.5288696,2.7035217
		c-2.6203308,0.5898743-2.8132935,2.0776062-2.463562,3.6118469c0.479187,1.6131592,2.1268005,2.5785217,3.7683716,2.2079773
		c0.6934204-0.1529541,1.3202209-0.5221558,1.7900391-1.0543518c0.0018005-0.0024719,0.0033569-0.0049133,0.0049438-0.0071716
		c0.0769043-0.1080017,0.2267456-0.1332703,0.3347473-0.0563354c0.5813904,0.4528198,1.2980957,0.6976929,2.0351257,0.6952209
		c0.9767456,0.0031433,1.9058838-0.4224243,2.5413818-1.1643677c0.0071716-0.0118408,0.0156555-0.0230408,0.0248413-0.0333252
		c0.0876465-0.0979309,0.2381592-0.1062012,0.3363037-0.0185547c0.578949,0.4257507,1.2793274,0.6542969,1.9980164,0.6520691
		c1.6865234,0.0055847,3.0863647-1.3023376,3.1945801-2.9857178c0-1.5713501-0.2294312-2.9855042-3.1945801-2.9855042
		c-1.2023926-0.0771484-2.1250305-1.0970764-2.0818481-2.3010254v-3.1178894
		c0.0004272-1.2763977,1.035553-2.3108215,2.3119507-2.3103943h1.5443115v-2.1491699
		c0.0010986-1.2790833,1.0389099-2.315094,2.3179932-2.3139954h3.0630798
		c1.2770996,0.0029297,2.309967,1.0407104,2.3070679,2.3180237v2.1451416h1.5491943
		c1.278656,0.0011292,2.314209,1.0384827,2.3131104,2.3171082v3.1105042c0.0411377,1.2055359-0.883728,2.2254333-2.087677,2.3016968
		c-2.959137,0-3.1941528,1.4613342-3.1941528,2.9855042c0.1263428,1.6744385,1.5150146,2.9725342,3.1941528,2.9855042
		c0.7184753-0.0009155,1.418396-0.2292175,1.9993286-0.6520691c0.0089417-0.007843,0.0187988-0.0149841,0.0288696-0.0214844
		c0.1115723-0.071106,0.2598267-0.0382385,0.3309326,0.0735779c1.1607971,1.3477478,3.1724548,1.553894,4.5825806,0.4698181
		c0.0020142-0.0015564,0.0042419-0.0031433,0.0064697-0.0044861c0.1089172-0.071991,0.2556152-0.0418091,0.3276062,0.0673218
		c0.4702759,0.5319824,1.09729,0.9011841,1.7907104,1.0543518c1.6431274,0.3723145,3.2936401-0.593689,3.7733154-2.2086487
		c0.3443604-1.5281982,0.1565247-3.0213013-2.4691772-3.6114197c-1.1549683-0.3414612-1.8298645-1.5389099-1.5234985-2.703949
		l0.6838074-3.037384l0.0013428-0.0065002c0.281311-1.2426147,1.516571-2.0223694,2.7594299-1.7410583l1.5342407,0.3441467
		l0.4698181-2.0986633c0.2819824-1.2437439,1.516571-2.0255127,2.7614441-1.74823l3.0429688,0.6838379
		c1.2455444,0.2824097,2.0277405,1.5196838,1.74823,2.7661133l-0.4698181,2.0932922l1.508728,0.3387756l0.0011292,0.0002136
		c1.2462158,0.281311,2.0284119,1.5197144,1.7471008,2.7658997l-0.6838074,3.0376282
		c-0.2251892,1.1851501-1.3501892,1.9778748-2.5420837,1.7907104c-2.8862-0.6534119-3.4235535,0.6728516-3.7732849,2.2073059
		c-0.2453003,1.6619263,0.8269348,3.2339478,2.4638062,3.6118469c1.0427246,0.23526,2.1348572-0.0552368,2.9226685-0.7774963
		c0.0185547-0.0219116,0.0406799-0.0404968,0.0655212-0.0545654c0.1164856-0.0661926,0.2645264-0.0254822,0.330719,0.0910034
		c0.7819824,1.4964294,2.5966187,2.12146,4.1344299,1.4242249c0.0415955-0.0290833,0.0903625-0.0456238,0.1408997-0.0483093
		c0.1502686-0.0080566,0.2783813,0.1073303,0.286438,0.2573853c0.2687988,1.0657654,1.0368958,1.9351807,2.0612793,2.3329773
		c1.4412231,0.5695496,2.9700928-0.3389893,3.6174622-1.7321167c0.7417297-1.6234741,0.9968872-2.7149353-1.6543274-3.8368225
		c-1.0266113-0.5527649-1.4827881-1.7819824-1.0653076-2.8707886l1.1171875-2.8862
		c0.0165405-0.0648499,0.0364685-0.1290283,0.0594788-0.1920776c0.3841858-1.0534668,1.5498962-1.5961914,2.603363-1.2120056
		l1.9979858,0.7312317l0.5845337-1.7064209c0.413269-1.3783875,1.408783-1.8739014,2.9175415-1.269043l3.2209473,1.2008362
		c0.074707,0.0274963,0.1473694,0.0603638,0.2175903,0.0979309c0.8513184,0.4552917,1.1719666,1.5145569,0.7167053,2.3656311
		c-0.3394775,0.8405762-0.5952759,1.460907-0.7831116,1.9103699l1.9204102,0.7878113
		C411.1870117,474.7968445,411.2531738,474.822998,411.3178101,474.8525085z M414.4555969,466.3555298
		c-2.1992798,0.0145569-3.9937744-1.7567139-4.0080872-3.9559937c-0.0143127-2.1992493,1.7569275-3.9937744,3.9562073-4.0083008
		h0.0069275c2.1974792-0.012085,3.9888611,1.7593994,4.0011597,3.9568787
		C418.4259033,464.5471497,416.6546326,466.341217,414.4555969,466.3555298z"/>
	<path class="st0" d="M288.5397339,202.5940552c-3.1211853,0-4.7756348,0.6473236-6.0439453,1.6334991
		c-2.2389526,1.775238-3.3817444,4.8748474-3.3817444,9.760498s1.1420898,7.9852448,3.3817444,9.7598267
		c1.2683105,0.9922485,2.9227295,1.6334991,6.0439453,1.6334991s4.7756348-0.6473236,6.0385742-1.6334991
		c2.2389526-1.7745819,3.3824158-4.8748474,3.3824158-9.760498s-1.1434631-7.98526-3.3817749-9.7598267
		C293.309967,203.2359772,291.6562195,202.5940552,288.5397339,202.5940552z M288.5397339,206.3673096
		c0.8096313-0.0665741,1.592804,0.305954,2.052002,0.9760437c0.5319214,0.8194427,0.7242737,1.946701,0.7242737,6.6440277
		s-0.1876526,5.8299713-0.7249451,6.6440277c-0.9241028,1.1343994-2.592865,1.3048859-3.7272644,0.3807831
		c-0.1395264-0.1136627-0.2671204-0.2412567-0.3807678-0.3807831c-0.5319214-0.8187714-0.725647-1.946701-0.725647-6.6440277
		s0.188324-5.8292999,0.725647-6.6440277C286.9448547,206.6737671,287.7290039,206.301651,288.5397339,206.3673096z
		 M276.8487244,214.5199585v9.3217468c0,0.8194427-0.3037415,1.1582947-1.1535645,1.1582947h-17.8969727v-3.4438477
		c2.1296387,0,2.5515137-0.6527252,2.5515137-2.5265198v-14.5563812c0-2.2653046-0.4009399-2.8343201-2.5515137-2.8343201v-3.444519
		h12.5158691v3.444519c-2.7297058,0-3.2258301,0.9186707-3.2258301,2.9126282v15.9914246
		c0,0.5015259,0.1673889,0.7046967,0.7202148,0.7046967c3.4559937,0,4.7027283-1.2264709,6.0911865-6.7223206h2.9429932
		L276.8487244,214.5199585z M349.6157532,219.9064636l-5.3709717-20.0886841
		c-0.3240051-1.2008209-0.7775879-1.6287689-2.1188049-1.6287689h-11.6498413v3.2359467
		c1.9527893,0.1147461,2.4381104,0.9294739,1.8845825,3.0064545l-3.9197083,14.822998
		c-0.4380798,1.6389008-0.9855042,2.1761932-2.473877,2.2545013v3.4863739h10.5063782v-3.4863739
		c-2.5731201,0-3.1893921-0.7465668-2.7972107-2.3118896l0.1923523-0.8039246
		c0.0368347-0.3689117,0.3657837-0.6381073,0.7346802-0.6012726c0.0161743,0.0016174,0.0323181,0.0038147,0.0483398,0.0066071
		h6.7958984c0.5163879,0,0.6783752,0.1876526,0.7775879,0.5939941l0.2139893,0.8565674
		c0.370575,1.5032349-0.2187195,2.259903-2.4165039,2.259903v3.4863739h11.6964111v-3.4863739
		c-1.2737427-0.0621033-1.8265686-0.4907227-2.1134338-1.6017761 M340.429657,214.2749176h-4.7593994
		c-0.5906372,0-0.7364502-0.1937256-0.5906372-0.7830048l2.4381104-9.8644409
		c0.0992126-0.3914948,0.2713318-0.5636292,0.5318909-0.5636292c0.2612,0,0.4387512,0.1721344,0.5325623,0.5636292
		l2.4367371,9.8644409c0.1471558,0.5953522,0,0.7830048-0.5939941,0.7830048 M404.7416382,206.9363251
		c-0.5582581,0.673645-0.8032532,1.900116-0.8032532,4.4414978c0,0.4907227,0.1775208,0.6682434,0.6513672,0.6682434h4.1863708
		c0.4751892,0,0.6318054-0.1775208,0.6520691-0.6682434c0.0891113-2.1498718-0.1923523-3.7678528-0.7458801-4.4414978
		c-0.478302-0.5574341-1.2000732-0.8441315-1.930481-0.7667999c-0.7532349-0.0737457-1.497406,0.2101288-2.0101624,0.7667999
		H404.7416382z M407.6589966,221.7437897c2.203186,0,3.6699829-1.1744995,4.6453552-3.7368011h2.776947v3.7415314
		c0,1.7279968-0.4488525,2.2814941-1.9156494,2.7661438c-1.9928284,0.6109161-4.0699768,0.9016418-6.1539612,0.8612976
		c-3.3088379,0-5.4432373-0.6884918-6.9464417-2.108017c-1.8690796-1.7644501-2.7040405-4.608902-2.7040405-9.1705475
		s0.9247437-7.2859497,2.8134155-9.2326508c1.3675537-1.4094086,3.3453064-2.2815094,6.8998413-2.2815094
		c3.1002808,0,5.2089539,0.8356628,6.519165,2.2443848c1.5552063,1.6706238,2.0924683,4.1080475,2.0924683,8.0068512
		c0,2.2281647-0.3496399,2.6615143-2.0141907,2.6615143h-9.0760498c-0.4799194,0-0.6520386,0.1829376-0.6520386,0.6682587
		c0,4.2275238,1.2622375,5.5741425,3.7206116,5.5741425 M436.0367126,206.9363098
		c-0.5582275,0.6736603-0.803894,1.9001312-0.803894,4.4415131c0,0.4907227,0.1775208,0.6682434,0.65271,0.6682434h4.1849976
		c0.4805908,0,0.6317749-0.1775208,0.65271-0.6682434c0.0891113-2.1498718-0.1984558-3.7678528-0.7465515-4.4415131
		c-0.4810791-0.5568085-1.2040405-0.8431702-1.9359131-0.7667999c-0.7528381-0.0725861-1.4963379,0.2111206-2.0094604,0.7667999
		 M438.9493408,221.7437897c2.2025146,0,3.6740112-1.1744995,4.6446533-3.7368011h2.7816772v3.7415314
		c0,1.7279968-0.4482117,2.2814941-1.9203796,2.7661438c-1.9907227,0.6109619-4.0658875,0.9016876-6.1478577,0.8612976
		c-3.3142395,0-5.4492798-0.6884918-6.947113-2.108017c-1.8684082-1.7644501-2.7087708-4.608902-2.7087708-9.1705475
		s0.9234009-7.2859497,2.8181152-9.2326508c1.3675537-1.4094086,3.3405762-2.2815094,6.9005432-2.2815094
		c3.0948792,0,5.2029114,0.8356628,6.5130615,2.2443848c1.5552063,1.6706238,2.0924988,4.1080475,2.0924988,8.0068512
		c0,2.2281647-0.3496704,2.6615143-2.0142212,2.6615143h-9.0760193c-0.4805908,0-0.65271,0.1829376-0.65271,0.6682587
		c0,4.2275238,1.2628784,5.5741425,3.7212524,5.5741425 M425.2644043,219.541275
		c0,1.3830719,0.6149292,2.0094604,1.9980164,2.0094604v3.4445343h-5.5370178c-1.9676208,0-2.8188171-0.9186859-2.8188171-2.8343353
		v-18.4970245c0-1.3776703-0.610199-2.0094604-1.9980164-2.0094604v-3.4445343h8.3497314v21.3313599H425.2644043z
		 M315.9778442,209.6977386h-2.4117737c-0.816925-2.1954346-2.9232788-3.6424255-5.2656555-3.6173248
		c-1.6969604,0-2.3753357,0.7884064-2.3753357,1.8373566c0,1.1846161,0.6884766,1.8839264,2.3017578,2.4529419l2.9537964,1.0341034
		c4.3841248,1.5335999,6.0338135,3.4438477,6.0338135,7.0456543c0,4.7027283-3.1367188,6.9308929-8.8310242,6.9308929
		c-1.8934937-0.003067-3.781311-0.2076111-5.6315308-0.610199c-1.9203491-0.459671-2.2490845-0.9551239-2.2490845-2.3179474
		v-4.4414978h2.588623c1.2264709,2.4475555,3.0321045,3.8522186,5.6571655,3.8522186
		c1.9156799,0,2.8188171-0.8822174,2.8188171-2.1660614c0-1.2838593-0.8248596-1.9993591-2.6304932-2.6257629l-2.8754883-0.9969635
		c-3.987915-1.3830872-5.6166992-3.3453064-5.6166992-6.9673462c0-4.0554047,2.5467834-6.5083466,8.267395-6.5083466
		c1.6878967,0.0037842,3.3700867,0.196228,5.0152283,0.5737457c1.9109192,0.4441376,2.2504883,1.0023651,2.2504883,2.5994263
		V209.6977386z M465.280426,209.6977386h-2.4063721c-0.816925-2.1957397-2.9237061-3.6428375-5.2663574-3.6173248
		c-1.7009888,0-2.3746338,0.7884064-2.3746338,1.8373566c0,1.1846161,0.6891785,1.8839264,2.3017273,2.4529419l2.9544678,1.0341034
		c4.3841248,1.5335999,6.0331421,3.4438477,6.0331421,7.0456543c0,4.7027283-3.1366882,6.9308929-8.8310242,6.9308929
		c-1.89505-0.003006-3.7844238-0.2075653-5.6362305-0.610199c-1.921051-0.459671-2.2443848-0.9551239-2.2443848-2.3179474
		v-4.4414978h2.5886536c1.2264709,2.4475555,3.0321045,3.8522186,5.6578674,3.8522186
		c1.9149475,0,2.8127136-0.8822174,2.8127136-2.1660614c0-1.2838593-0.819458-1.9993591-2.625061-2.6257629l-2.8755188-0.9969635
		c-3.9933167-1.3830872-5.6159973-3.3453064-5.6159973-6.9673462c0-4.0554047,2.5515137-6.5083466,8.2721252-6.5083466
		c1.6863098,0.0041656,3.3668823,0.1966095,5.010498,0.5737457c1.9102783,0.4441376,2.2497864,1.0023651,2.2497864,2.5994263
		v3.9305115L465.280426,209.6977386z M374.6211853,221.5507355v3.4445343h-5.6943054
		c-1.9676208,0-2.8187866-0.9186859-2.8187866-2.8343353c0-3.7779694,0.1106873-7.9953766,0.1106873-12.26474
		c0-1.9521027-0.6216431-2.7249756-1.8697205-2.7249756c-1.6220398,0-2.6662598,1.2264709-2.6662598,3.789444v8.5805969
		c0,1.3837585,0.610199,2.0094757,1.9986572,2.0094757v3.444519h-10.3605652v-3.444519
		c1.3891602,0,1.9993591-0.6264038,1.9993591-2.0094757v-11.1064453c0-1.3783569-0.610199-2.0094757-1.9993591-2.0094757v-3.4451904
		h4.5933838c1.9939575,0,2.756012,0.6371918,3.1947632,2.4218903c0.0830078,0.3496552,0.3125305,0.3813782,0.5163879,0.0675049
		c1.2109375-1.883255,2.8916931-2.8755035,5.5957642-2.8755035c3.7934875,0,5.5005493,2.0405273,5.5005493,6.2943726
		s-0.1093445,6.8735199-0.1093445,10.6528473c0,1.3837433,0.6149292,2.0094757,1.9980164,2.0094757 M385.4353638,216.1331787
		c0.6278687,0.0470123,1.2440491-0.188324,1.6807556-0.641922c0.6891479-0.705368,0.9450073-1.7745667,0.9450073-4.2430573
		c0-2.4684753-0.2558594-3.5336151-0.9450073-4.2389984c-0.9573975-0.8549805-2.4041138-0.8549805-3.3615112,0
		c-0.6885071,0.7053833-0.943634,1.7752533-0.943634,4.2389984c0,2.4637604,0.255127,3.537674,0.943634,4.2430573
		c0.4369812,0.4531555,1.053009,0.6882019,1.6807556,0.6412506V216.1331787z M385.5555115,230.6058502
		c3.1522217,0,4.0499878-0.218689,4.5724182-0.6527252c0.3693542-0.2958221,0.578125-0.7480774,0.5636597-1.2210693
		c0-0.9389191-0.6210022-1.3256989-1.9939575-1.3256989c-2.4002991,0-4.7492981,0.0627747-6.9990845,0.0627747
		c-1.3675537,0-1.9939575,0.5163727-1.9939575,1.3986053c-0.0125122,0.4546967,0.2030334,0.8855591,0.5744324,1.1481628
		c0.5372925,0.39151,1.2528076,0.584549,4.6554871,0.584549h0.610199l0.0115051,0.0054016H385.5555115z M392.6956482,206.6966858
		c1.3026733,1.3631287,1.9812622,3.205719,1.8738098,5.08815c0,4.7864227-3.1576538,8.1222687-9.3217468,8.1222687
		c-1.2993774,0-1.4822998-0.0627747-2.4947815-0.0627747c-0.9241028,0-1.3048096,0.396225-1.3048096,0.9078674
		c0,0.6520538,0.4333496,1.1529083,1.8839111,1.1529083c2.2497864,0,3.9096069-0.1093597,6.3153381-0.1093597
		c4.7337646,0,6.5400696,1.9676361,6.5400696,5.2663574c0.0859375,1.6835022-0.5998535,3.3144531-1.8630066,4.4306946
		c-1.5241394,1.3054504-3.502594,1.9264526-8.9828796,1.9264526h-1.3149109c-4.6561279,0-6.2315674-0.4434662-7.2548828-1.2372742
		c-0.7877197-0.6016846-1.2305603-1.551178-1.1853027-2.5413666c0-1.467453,0.8565979-2.6358795,2.6054993-3.1049957
		c0.276062-0.0789795,0.2341919-0.2976837,0-0.4441528c-1.2200317-0.6859589-1.9507141-1.9996338-1.8900146-3.3979492
		c0-1.8373566,1.0597839-3.3041229,3.1941223-3.8407593c0.2976685-0.0742493,0.3023987-0.3037415,0.0735779-0.4751892
		c-2.145813-1.5930023-3.1529236-3.810379-3.1529236-7.1293488c0-5.5282593,3.0847473-8.6535034,9.2272339-8.6535034
		c2.2133179,0,3.6072083,0.3854218,6.5036316,0.3854218h4.3530579v3.2258301h-3.6173401
		C392.5235291,206.2059631,392.4290466,206.4354553,392.6956482,206.6966858z"/>
	<path class="st1" d="M520.9024048,301.598999c0,0.6993103,0.3915405,1.3837585,3.31427,1.8103638
		c1.4140625,0.2092285,3.0948486,0.4387512,4.8579712,0.6682434c0.1587524,3.0196228,0.6883545,6.0082092,1.5767822,8.8985291
		l4.2849121-0.0938416c-1.1918335-3.4887085-1.8291626-7.1427917-1.8886108-10.82901l-12.1506348-0.4542847H520.9024048z
		 M485.2705078,266.702179c6.3308411,0.6108704,10.2397461,4.6190186,11.430481,15.0835571l3.8778687-0.39151
		c-1.3574219-11.1428833-5.8772278-14.7905884-13.2158203-14.7905884c-0.7154846,0-1.4086914,0.0310364-2.0924683,0.0944824
		 M515.3735352,351.1608582h-3.9190979l-7.375061,21.9422302l4.0027466-0.2504272L515.3735352,351.1608582z
		 M544.8014526,345.9991455c2.6204224,0.3550415,7.1766357,0.8032532,11.9205322,1.2001648
		c2.4818726,2.8349304,4.3861694,6.1273499,5.605835,9.6923218l4.2957153-0.0945129
		c-1.0178833-3.851532-3.2102661-7.6666565-6.7958984-11.7220459l-18.4605713-0.8187866
		c0,0.8032532,0.5062866,1.3459473,3.4350586,1.7482605 M549.8740845,263.6862488
		c8.3409424-7.1138,19.5459595-10.9032593,33.6332397-11.1590881c-0.8140259-0.0155182-1.617981-0.0202484-2.4057007-0.0202484
		c-14.9485474,0-26.7279663,3.8934174-35.3814697,11.404129L549.8740845,263.6862488z M581.6226807,266.5725708
		c-0.65271,0-1.2953491,0.0310364-1.9264526,0.0782776c5.2609863,0.4016418,8.7216797,2.5042725,10.6474609,7.2542419
		l3.7421875-0.4225769c-2.2079468-5.0105286-6.2369995-6.9099731-12.4638672-6.9099731L581.6226807,266.5725708z
		 M504.5964355,315.3831482c0,0.7357483,0.5426941,1.3621521,3.4863586,1.7279968
		c5.3338318,0.6574707,15.396759,1.5335999,25.1983948,2.2592468c2.7889404,5.2020264,6.2997437,9.9833984,10.4281006,14.2019958
		l4.8748169-0.1410828c-5.4641113-5.6990356-9.5512695-11.16922-12.1553955-16.8425903L504.5964355,315.3831482z
		 M527.0394897,335.8586121c0,0.8032532,0.5744629,1.3877869,3.5073242,1.7637634
		c4.7081299,0.6054993,12.2080688,1.2319031,18.7055664,1.6604919l2.4799805,2.5414124l4.7074585-0.3287354l-4.4368286-4.5407104
		l-24.9682007-1.0914917L527.0394897,335.8586121z M301.1973572,361.8130188l7.0611572-20.9702148l-25.5426636-1.0550232
		c0,0.8457947,0.5534973,1.4613953,3.4863892,1.8117065c4.1964722,0.4907227,10.7460022,1.1272583,17.3124084,1.6861267
		l-6.309906,18.7467957l3.9926453-0.2240906L301.1973572,361.8130188z M239.8499756,365.0442505l5.7618103-17.1247559
		l-32.5107117-1.0637817c0,0.8450928,0.8660278,1.6591492,3.6747131,1.914978
		c5.5795441,0.5062256,15.0207672,1.138031,24.0812836,1.6442871l-4.9632721,14.7548218l3.9615784-0.1255493H239.8499756z
		 M381.2611084,313.3162842c0.8606567,0.1829224,1.8157654,0.3807068,2.8181152,0.5845642l-12.7088928,37.7304688
		l-0.1046448,7.2184448c-0.0411682,2.5616455,0.7101135,2.6088562,1.5606079,0.0783081l15.7315674-46.7079773L377.9306641,311.375
		c0,0.7985229,0.4441528,1.320282,3.3297729,1.9365845 M382.6016846,289.4064331
		c1.921051,0.3442688,5.6524658,0.8612976,9.2906799,1.2892761l-6.2214661,18.4868774l4.0189209-0.3132019l6.5238647-19.3745117
		c0.1255493-0.3651733,0.239624-0.7195435,0.3604431-1.0752869l-17.433197-0.8768311
		c0,0.7782898,0.5534973,1.3419189,3.4606934,1.863678H382.6016846z M438.5564575,278.3317261
		c2.2097168-3.2484436,4.7115479-6.288208,7.4742737-9.0814514c10.7932434-10.77771,24.4627075-16.3626709,45.0947266-16.6812744
		c-0.6853943-0.0181122-1.3709412-0.0286865-2.0567017-0.031723c-21.6911316,0-35.8303833,5.6112823-46.9577332,16.7129974
		c-2.8280029,2.8573914-5.3825378,5.9730225-7.6302185,9.3062134l4.070282-0.224762H438.5564575z M393.7182312,285.0331116
		l3.9622498-0.2193604c3.4911194-12.3538513,0.9396362-15.9448547-8.3875427-17.9698486l4.0297241-11.9785614h-3.9204102
		l-4.5508423,13.5236359c10.3862305,2.2544861,12.3484497,4.9112854,8.8627625,16.6441345 M534.4942017,268.2843628
		c1.6651611,0.2814636,3.8002319,0.6047974,6.1114502,0.9078674c-3.6451416,4.5877075-6.4606323,9.7770691-8.319397,15.3339539
		c-1.6795654,4.6689758-2.737854,9.5385437-3.147522,14.48349l4.0189209-0.485321
		c0.3995972-4.7792053,1.4241943-9.4853821,3.0476074-13.9981689c2.0975952-6.3542175,5.4705811-12.2132263,9.9124146-17.2178955
		L531.038147,266.40448c0,0.9092102,0.543335,1.3891296,3.4559937,1.8798828H534.4942017z M419.6598206,319.6261902
		c1.4266968-4.1567078,2.9312744-8.2854614,4.5137329-12.386261l-10.3282166-0.8180847
		c0,0.6574402,0.4482117,1.2048645,1.8373413,1.6065063c1.0698853,0.3084717,2.4003296,0.616272,3.9143372,0.9139404
		c-1.3400269,3.5397034-2.625885,7.0992126-3.8576355,10.6784973c-0.763092,2.209137-1.5091858,4.4240112-2.2382813,6.6446838
		l4.01828-0.3084717c0.6984863-2.1170349,1.4117126-4.2290955,2.13974-6.3362122 M429.3143311,294.9751892l-8.9673767-0.710083
		c0,0.7728577,0.5481262,1.2163391,2.1768799,1.6652222c0.6412354,0.1829224,1.3830566,0.3604431,2.197113,0.5433655
		c-1.1481323,2.5647278-2.2442932,5.1517944-3.2886047,7.7611389l4.0499878-0.3132019
		C426.7668762,300.7322388,428.0405884,297.741333,429.3143311,294.9751892z M436.2654419,281.84375l-15.9185181-0.8032532
		c0,0.7404785,0.7512512,1.4195251,2.1559143,1.6652222c2.2707214,0.39151,5.396637,0.8187866,8.6271973,1.1630249
		c-1.4822998,2.53125-2.9382935,5.293335-4.3942566,8.2991333l4.0601196-0.3132019
		c1.8056335-3.7057495,3.6227417-7.019989,5.4695435-10.0102539V281.84375z M126.6787338,364.0837097l4.9896011-14.8432312
		l-14.5624542-0.8930359c0,0.7573547,0.3604507,1.4883728,3.2784805,1.9622498
		c1.8994522,0.3084717,4.1903915,0.65271,6.6757507,0.9821167l-4.3429565,12.901947l3.9554977-0.1100159h0.0054016
		L126.6787338,364.0837097z M416.3812866,329.4589233l-11.5451965-0.913269c0,0.8032532,0.4441528,1.4512329,3.3459473,2.0823669
		c0.9969788,0.2193909,2.2653198,0.464386,3.6794128,0.7202148c-3.5120239,11.2063293-5.7779846,20.465332-6.8579712,28.2521362
		l3.9406738-0.2294922c1.1582947-8.1789856,3.6112366-17.97052,7.4317322-29.9119568 M575.3026123,288.1010132
		c3.930542,0.4542542,10.3450928,1.0232849,16.9425049,1.4404297c-0.0627441,2.5273438-0.1900635,5.0518494-0.382019,7.5735168
		h3.9203491c0.2706909-3.6220703,0.4070435-6.8580017,0.4016113-9.7335205l-24.0401001-1.0543213
		c0,1.0070801,0.7411499,1.4917297,3.1522217,1.7738953 M462.5863647,323.7808228l-4.5461121,13.5236206
		c10.0682983,1.6233826,12.4267273,3.1205139,9.5465393,13.5756226l3.9143372-0.1053162
		c2.8552246-10.8877563,0.4232178-13.6066284-9.0241089-15.0099792l4.0290833-11.9785461h-3.9190674v-0.0054016H462.5863647z
		 M595.1989136,276.8912659l-12.270874-0.5379639c0,0.7573547,0.5062866,1.2939758,3.423645,1.7637939
		c1.2939453,0.2092285,3.1947632,0.4907227,5.3237305,0.7829895c0.2646484,1.6714478,0.4352417,3.3564148,0.5109863,5.0469666
		l3.914978-0.1093445c-0.0957642-2.3372803-0.3977661-4.6615601-0.9024658-6.9457397V276.8912659z M408.5202026,362.9045105
		l-15.0106201-0.9504089c0,0.7782898,0.521759,1.4039917,3.4242554,1.9473877
		c1.748291,0.3240051,4.482666,0.7519531,7.4837036,1.1643677c-0.3462219,4.1116028-0.1688538,8.2505188,0.5278625,12.3174133
		l3.8934021-0.1255493c-0.7714844-4.7465515-0.8769226-9.5775452-0.3132019-14.3532104 M501.0100403,290.8313904
		c0.0256653-2.1870117-0.0209351-4.1849976-0.1255493-6.0331726l-12.1702576-0.5534973
		c0,0.8093262,0.6986084,1.3628235,2.7810059,1.6861572c1.4822693,0.2294922,3.4870605,0.485321,5.5532227,0.6993103
		c0.0472412,1.341217,0.0472412,2.7978516,0.0269775,4.3105469L501.0100403,290.8313904z M567.2498169,360.4772034
		l-31.09729-1.1798706c0,0.7573547,0.5588989,1.3621521,3.5026245,1.7279968
		c5.824585,0.7202148,15.5533447,1.6490173,23.5804443,2.2490845c-0.1171875,2.8687134-0.6787109,5.7018433-1.6645508,8.3983459
		l3.9980469-0.2193909c1.3081665-3.5065308,1.8803101-7.2449036,1.6807251-10.9822388 M469.3835754,357.7063293
		c0.3807983-1.1299438,0.7478027-2.2643738,1.1009216-3.4033508l-23.4562378-1.0280151
		c0,0.7985229,0.6371765,1.2683105,2.47995,1.5032043c4.2747803,0.5582275,10.5320435,1.1994934,16.3829041,1.6591797
		c-0.1403809,0.4124146-0.2713318,0.8302307-0.4225159,1.2689819l-2.604126,7.739563l3.9926147-0.2133179l2.53125-7.5262451
		H469.3835754z M542.3685913,387.2058716c0.6775513,0.0423889,1.355957,0.0632629,2.0351563,0.0627441
		c8.977478,0,15.715332-3.8832703,19.6924438-12.1668701l-16.3113403-0.9807739c0,0.78302,0.5737305,1.5444031,3.5079956,1.9413147
		c2.3483276,0.3132019,5.0355225,0.6479797,7.8759155,0.9605408c-3.7476196,6.4192505-9.4581299,9.7024231-16.7953491,10.1776428
		 M465.6157837,368.9012146l-16.6333618-0.9963074c0,0.7559814,0.6047974,1.2467041,2.6142578,1.5862427
		c2.7762756,0.464386,5.9548645,0.9179993,9.4472961,1.341217l-2.0621338,6.1323853l4.0189514-0.3125305l2.6095581-7.7557678
		L465.6157837,368.9012146z M500.359375,302.585144c0.2666321-2.9639282,0.4434814-5.6888733,0.5487671-8.2201233
		l-23.9206238-1.04422c0,0.7775879,0.5433655,1.341217,3.4816589,1.7279968
		c4.4050598,0.5838623,9.8226013,1.1791992,16.4045105,1.7279968c-0.1134644,1.938324-0.2581177,3.8744507-0.434021,5.8083496
		H500.359375z M454.1151428,386.699585c1.2845154-0.0580444,2.5318909-0.1464844,3.705719-0.3132019
		c1.3245544-0.133667,2.4176636-1.0944214,2.7202759-2.3908386l1.3560486-4.0297546l-10.349762-0.8194275
		c0,0.6574402,0.6419067,1.1954346,2.0405273,1.5551758c1.2841492,0.3155823,2.5836487,0.5649719,3.8934021,0.7472229
		l-0.8552551,2.5467834c-0.4751892,1.3985901-1.0124817,2.2288513-2.5055847,2.7080994 M343.64328,287.276825
		c0.0425415-2.5042419-0.7303467-2.4947815-1.5342712-0.0830078l-2.4893799,7.3797607l-0.5683594,39.6144104l3.9244385-0.4070435
		l0.6682434-46.4987183v-0.0054016H343.64328z M151.1265564,278.1798401l3.8522186-0.2301636
		c1.2109528-7.0766907-0.8768158-9.2745056-5.8198395-11.1010437l4.0297546-11.9785614H149.26828l-4.5454407,13.5236359
		c5.5113678,1.6699524,7.5681,3.3614807,6.3990021,9.790863 M121.8464127,292.1672058
		c6.0803909,0.6257324,15.0578995,1.2318726,24.5146408,1.74823l-6.9099731,20.5436401l3.9872284-0.2038574l7.6828461-22.8399658
		l-32.6092453-1.0746155c0,0.8768311,0.9551239,1.5808411,3.3297729,1.8319702 M325.0335388,276.3539734l4.0871277-0.3138733
		c0.5534973-5.5532227-1.7219238-7.5465088-7.3487244-9.1961975l4.0297546-11.9785461h-3.9204102l-4.5461121,13.5236206
		c5.5437622,1.2366028,8.0385742,2.8336487,7.6983643,7.9690552 M117.5041275,335.5035706
		c3.4290009,0.4016113,8.8937912,0.9544373,14.3741226,1.4714966l-3.0327759,9.0247192l3.9933014-0.2254333l3.7205963-11.0747375
		l-22.4262009-1.0395203c-0.0215988,0.8619995,0.9962997,1.5612793,3.3655548,1.8380127 M206.294281,281.9631958
		l-3.0948792,2.8397217l5.7253571-0.1930542l0.2031708-0.188324c10.2039795-9.3528137,9.2697754-16.0022278,1.0341187-17.572937
		l4.029068-11.9785614h-3.9197235l-4.5461273,13.5283356c9.0922394,1.0179138,9.3791199,5.5012512,0.5690155,13.5708923
		 M262.7614136,254.8653107l-4.5461121,13.5236359c5.772583,1.74823,7.7557373,3.5120239,6.2113342,10.7257385l3.8569641-0.1937256
		c1.5761108-7.8495789-0.4752197-10.1621094-5.6315308-12.0717163l4.0229797-11.9785461h-3.9183655l0.0054016-0.0053864H262.7614136
		z M141.0791626,282.2824402c2.291626,0.3962402,5.2400208,0.8295898,8.7007446,1.2784729
		c-0.4425049,1.4545593-0.9068909,2.9022217-1.3931885,4.342926l3.9399719-0.0735474
		c0.7674713-2.3435974,1.3776703-4.3942566,1.8481598-6.216095l-15.5276947-1.0016785
		c0,0.8768311,0.6108704,1.3675537,2.4266205,1.675354 M413.7548218,389.1835327
		c-1.8112793-2.5553589-3.1870728-5.3929443-4.0715637-8.3976746l-21.8632813-1.0394897
		c0,0.7472229,0.5629578,1.3364868,3.4863586,1.7279968c3.3034363,0.4387512,9.8327332,1.1542358,15.2664795,1.6604919
		c0.8354797,2.1436157,1.9308777,4.1766052,3.2615967,6.0533752c5.4074097,7.6254883,17.0302429,12.1668701,33.2990723,12.1668701
		c0.8923645,0,1.7846985-0.0107727,2.6730042-0.0216064c-15.6059875-0.2294922-26.7806091-4.7175903-32.0516968-12.1398621
		 M125.1713715,368.5622559l0.2767563-0.8302612L101.507225,366.625c0,0.855896,0.6007538,1.4714966,3.7212753,1.8630066
		c3.8934021,0.4859924,9.1395035,1.0759277,15.458847,1.6969604c-4.2221222,11.9475098-7.4209518,14.0130005-15.375145,15.3494873
		l-4.5515289,13.5283508h3.9197235l4.0297546-11.9778748c8.8559952-2.1242371,11.9461441-5.1043701,16.4558258-18.5179443
		 M342.1777954,389.2618103l0.1876526-13.3508301l-19.394104-0.9031677c0,0.8356628,0.5636292,1.3675537,3.4863892,1.8117065
		c3.3345032,0.5062561,7.5208435,0.9915771,11.9576111,1.3567505l-0.1565857,11.0855408
		c-0.1417542,7.3750305,1.9251099,9.7915344,8.1418457,9.7915344h3.9197388c-6.2167358,0-8.2835999-2.4219055-8.1425171-9.7915344
		H342.1777954z M501.6687927,391.9186096l5.3028259-15.773407l-11.7801208-0.6257324
		c0,0.9497375,0.4907227,1.529541,3.3878174,2.0823669c1.1528931,0.2193909,2.4367371,0.4333496,3.7678223,0.631134
		l-3.9825134,11.8529968c-1.4404297,4.249115-0.39151,6.0237122,5.5221558,7.4384766
		c-2.92276-0.6999512-3.4236145-2.052002-2.2180481-5.6112671 M299.8025513,365.9472961l0.1876526-0.5534973l-15.5007019-0.9490662
		c0,0.819458,0.4070435,1.341217,3.3088684,1.9102478c2.3847656,0.464386,4.8903809,0.8606262,7.5208435,1.2366028
		c-4.7135315,13.4297791-8.0952759,15.6370544-17.4014893,17.943512l-4.5508423,13.5236511h3.9197083l4.0297546-11.973175
		c9.5566406-2.4164734,13.4655762-6.236969,18.4862366-21.1322327 M177.6194763,377.6490784l-0.1457977-3.7313843
		l-20.8507538-1.0286865c0,0.8086243,0.6203308,1.4613647,2.4684753,1.7326965
		c4.0864563,0.5953369,9.1071014,1.1846313,14.5556946,1.6699524l0.0526581,1.3567505
		c0.8504944,18.0542297,4.3895264,21.8645935,19.7552185,21.8645935c0.7985229,0,1.5923157-0.0107727,2.379364-0.0155334
		c-14.0649719-0.2666016-17.3960876-4.4212341-18.2148743-21.8537903 M222.2079315,387.0808411
		c8.8566742-2.1249084,11.9475098-5.105011,16.4565125-18.5085144l-21.6546783-1.0023499
		c0,0.8356628,0.6932373,1.4613647,2.2700348,1.7333984c3.9872284,0.6682434,9.2744904,1.3256836,14.577301,1.8009033
		c-4.0601349,11.1536865-7.3014679,13.1260376-15.0470886,14.431488l-4.5508575,13.5276794h3.9190521l4.0297546-11.9778748
		v-0.0054016L222.2079315,387.0808411z M342.929657,337.1322021l-11.1429138-0.5899353
		c0,0.7985229,0.5636292,1.5606079,3.4863892,1.9986572c1.0273438,0.151886,2.3017578,0.334137,3.7111511,0.5163879
		l-0.1464844,10.1472778l3.9197083-0.209259L342.929657,337.1322021z M205.1716003,288.0495911l-18.7852478-0.8666992
		c0,0.8302307,0.4758759,1.3621521,2.1559448,1.6280823c2.5373383,0.4023132,5.7888031,0.8099976,9.0814514,1.1070251
		l-9.5458527,8.7628479l6.070282-0.5265198l11.0227509-10.1047363H205.1716003z M301.0506287,308.3839722
		c3.6382446,0.4589844,8.5124207,0.9760437,13.7375793,1.4242249l-3.5808716,10.6373291l4.0081482-0.2565002l4.2275391-12.5725403
		l-21.8686523-1.0178833c0,0.8194275,0.4859924,1.4093933,3.4708252,1.7853699 M311.0453186,291.895752
		c2.5049438,0.4751892,5.699707,1.0178833,9.2488708,1.5761108l-3.6112671,10.725769l3.960907-0.1255493l4.4360962-13.1625061
		l-17.442688-0.8775024c0,0.8410339,0.5008545,1.3317871,3.4134827,1.8684082 M326.2800903,287.2929077
		c1.0280151-3.1319885,1.7901001-5.7510071,2.2808228-7.9494629l-10.595459-0.8396912
		c0,0.8552246,0.4542542,1.3985901,3.3513489,1.9831543c0.9024963,0.182251,1.8738098,0.3644714,2.9011536,0.5582275
		c-0.4535828,1.8427429-1.1056519,3.9932861-1.9250793,6.4671631L326.2800903,287.2929077z M176.0061798,335.9415283
		c-0.0674896-1.7644653-0.8194427-1.9993591-2.0614471-0.8612976l-1.8258667,1.6706238l0.7202148,18.67453l3.9082489-0.2976685
		l-0.7404785-19.1916199v0.0054016L176.0061798,335.9415283z M176.8931274,358.8233337l-16.2108002-0.7931213
		c0,0.8606262,0.6318054,1.5079651,3.2204285,1.914978c2.1451416,0.3395386,5.2818756,0.7573547,9.1597443,1.1589966
		l0.3604584,9.3271484l3.9089203-0.1620178l-0.4434662-11.4466553h0.0053864L176.8931274,358.8233337z M178.125,301.2019653
		c0,0.7775879,0.485321,1.4816284,3.3979492,1.9669495c0.4117584,0.0627747,0.8977509,0.1464844,1.4087372,0.2193909
		l-11.8010254,10.8303528l-2.4421539,7.2596436l21.5135956-19.7127075l-12.082489-0.5588989L178.125,301.2019653z
		 M257.4786682,312.6324158l-47.6144867-1.1225281c0,0.9031677,0.9389191,1.6281128,3.6740112,1.8326416
		c12.5212402,0.9078674,24.6820679,1.5707092,39.0872345,2.0877686l-2.5582581,7.6045532l3.9521332-0.099884l3.4654694-10.3025208
		L257.4786682,312.6324158z M252.1664429,283.3731995c3.3034515,0.521759,7.1192017,1.0125122,10.7203369,1.4087219
		c-0.3186035,1.028717-0.6729736,2.1195068-1.0746155,3.2987366l-1.1542358,3.4350586l3.9359131-0.0681763l0.7357483-2.1815796
		c0.8457642-2.5056152,1.5241394-4.6925964,2.0567322-6.6339111l-17.9543304-1.0327454
		c0,0.8707581,0.8505096,1.4816284,2.7297058,1.7792969 M342.4233704,372.2983704l0.2814636-19.676239l-16.8419189-1.0125122
		c0,0.8201294,0.5683594,1.4148254,3.4964905,1.9001465c3.1188354,0.5107727,6.2503662,0.9317627,9.3946533,1.2629089
		l-0.2565002,17.7302246l3.9258118-0.1984558V372.2983704z M309.4590454,337.2773438l4.6082458-13.6849365l-12.6879883-0.8612976
		c0,0.8194275,0.4542847,1.2845154,3.3459778,1.9163208c1.3567505,0.2969971,2.9794617,0.6149292,4.7540283,0.943634
		l-3.9663086,11.7807617l3.9507751-0.099884l-0.0047302,0.006073V337.2773438z M263.4078674,295.012207l-34.8853607-1.0698547
		c0,1.0070801,1.2993622,1.6442871,3.6740265,1.8319397c7.0510559,0.5480957,16.195282,1.1225281,26.4775391,1.6706238
		l-3.8987885,11.6018982l3.9352264-0.0519714l4.7027588-13.982605h-0.0047302L263.4078674,295.012207z M137.7910461,331.0558777
		l4.3996429-13.0895996l-17.7929993-1.022644c0,0.7202454,0.6635284,1.1846313,2.4165039,1.4775696
		c2.6095428,0.4326782,6.6602325,1.0172424,10.7932587,1.5241699l-3.783371,11.2468262l3.9669647-0.1356506V331.0558777z
		 M246.8116302,344.3398743l5.9548492-17.7045898l-27.5372925-1.1373596
		c-0.0202484,0.7883911,0.7728577,1.4924011,2.7661438,1.7171936c5.522171,0.631134,13.3460999,1.383728,20.0009308,1.9413147
		l-5.1306915,15.2563171l3.9399872-0.072876H246.8116302z"/>
	<path class="st0" d="M618.800354,261.4567566l-12.0149536,35.658905h-11.0072632
		c0.2713623-3.6274414,0.4077148-6.8586731,0.4023438-9.7395935l-24.0401611-1.0496216
		c0-0.8970642,0.8613281-1.8468018,4.4942017-1.9507446l19.4575195-0.5433655
		c-0.0960693-2.3377686-0.3983154-4.6624756-0.9031372-6.9470825l-12.270874-0.5379944
		c0-0.9389038,0.7884521-1.7009888,4.4212646-2.1080017l6.737854-0.7627563
		c-2.2079468-5.0152588-6.2322388-6.9099731-12.4584961-6.9099731c-9.3217773,0-15.8557739,4.9949951-19.1342163,14.2276306
		c-3.9251099,11.0497437-2.1762085,18.0427551,7.1766357,27.5629578l8.4502563,8.6177368
		c18.7582397,19.1288147,21.7120972,33.3456726,14.3842773,53.4032898
		c-7.3547974,20.1095886-23.0377808,30.9345703-52.2504272,30.9345703c-12.4112549,0-26.3364868-1.4039917-36.3683167-3.7934875
		c-2.92276-0.6952515-3.4182434-2.052002-2.212677-5.6112671l5.3028259-15.7727356l-11.7801208-0.6257324
		c0-0.8720703,0.5791321-1.8062744,3.2669983-2.0621033l9.6194153-0.6054688l7.2967529-21.6911316h11.690979
		c-2.4738159,27.79245,2.9227905,36.1070862,17.3340454,36.1070862c8.9714355,0,15.7139893-3.8832703,19.6863403-12.1661987
		l-16.3100586-0.9814453c0-0.8606262,0.8768311-1.7536316,4.4942017-1.9520874l13.293396-0.7155151
		c1.3102417-3.5056458,1.8840332-7.2436829,1.6854858-10.980896l-31.097229-1.1799011
		c0-0.8707581,0.8977661-1.857605,4.4941406-1.9507446l25.9766846-0.5535278
		c-1.0232544-3.8522034-3.2095947-7.6679688-6.7952271-11.7281189l-18.4558105-0.8140259
		c0-0.9193726,0.8504639-1.7691956,4.4624023-2.0196228l10.6110229-0.7411499l-4.4367676-4.5407104l-24.9682617-1.0914612
		c0-0.8822327,0.8612671-1.8474731,4.4934692-1.9467163l17.0511475-0.479248
		c-5.4641113-5.7050781-9.5512695-11.175293-12.1553955-16.8439331l-31.8323059-1.2055664
		c0-0.9855042,0.8977661-1.8629761,4.4941406-1.9520874l25.8558655-0.5528259
		c-1.1893311-3.4896545-1.8269653-7.1434631-1.8899536-10.8297119l-12.1500244-0.4542542
		c0-0.9342041,0.7775879-1.7070923,4.4050293-2.1343689l7.8449097-0.9402771
		c0.3988037-4.7798157,1.425293-9.4863281,3.0529785-13.9981384c2.0942383-6.3556213,5.4674072-12.21521,9.9117432-17.2178955
		l-15.078186-0.9024963c0-0.9449768,0.8761597-1.7550049,4.4934692-1.9520874l14.3424072-0.7728882
		c8.6325684-7.3642578,20.3444824-11.1800232,35.1472778-11.1800232c10.2235107,0,22.562561,1.253479,31.4401245,3.3250427
		c3.1630249,0.7357483,3.6382446,1.7684937,2.3381958,5.6315308 M513.0527344,335.7540283l4.0297241-11.9731445h-50.5750427
		l-4.0243225,11.9731445c9.4466248,1.4087219,11.8840637,4.1282959,9.0240784,15.0099792l-19.9847107,0.5643005
		c-3.6328735,0.1039429-4.4941711,1.0327454-4.4941711,1.951416l23.4555969,1.0232849
		c-0.3503723,1.139679-0.7171021,2.2741394-1.1002502,3.4033508l-2.53125,7.5262451l-13.3778687,0.7195435
		c-3.6112366,0.1937256-4.4887695,1.0860901-4.4887695,1.9527893l16.6340332,0.9963074l-2.6095581,7.7557373l-6.9673767,0.5372925
		c-3.6382446,0.2821655-4.4887695,1.0698853-4.4887695,1.9521179l10.3490906,0.8194275l-1.3567505,4.024353
		c-0.3011169,1.2967834-1.3942871,2.2580261-2.7189026,2.3908386c-2.2899475,0.2890625-4.5974121,0.4162903-6.9052429,0.3807068
		c-5.4337463,0-10.3396606-1.5349426-12.5367737-4.9214172c-3.6902161-5.6895752-3.2305603-15.8665466,10.8303528-56.7607422
		c12.5104675-36.4567566,17.6984863-46.4400024,24.2277832-52.9017639
		c3.6893921-3.6796265,8.7213745-5.6930847,13.9306641-5.5741577c7.3378906,0,11.8577271,3.6429749,13.2198792,14.7912598
		l-7.4425659,0.7465515c-3.6382446,0.3651733-4.4259644,1.1583252-4.4259644,2.0979004l12.1716003,0.5588989
		c0.109314,1.8366699,0.1505127,3.8407593,0.1248474,6.027771l-19.5358582,0.5480957
		c-3.632843,0.1046143-4.4941406,1.0698547-4.4941406,1.9520874l23.9260254,1.04422
		c-0.1168823,2.7438354-0.2998047,5.4836731-0.5487671,8.2194824h11.7071838l13.9360352-41.3991089
		c1.3932495-4.1437988,0.8809204-5.0361633-2.5582275-5.6834869c-10.0477905-1.8465271-20.2339478-2.8384857-30.4492188-2.9652863
		c-21.6911316,0-35.8357849,5.6112671-46.9577332,16.7130127c-2.7640686,2.7920532-5.2659912,5.8319702-7.4742737,9.0814209
		l-13.7160034,0.7566833c-3.6220703,0.1977844-4.4941711,1.0597534-4.4941711,1.9521179l15.9191895,0.8032532
		c-1.8474731,2.9909058-3.6638794,6.3044739-5.4702148,10.0102234l-5.9548645,0.4657593
		c-3.6382446,0.2760925-4.488739,1.001709-4.488739,1.9460144l8.9619446,0.7101135
		c-1.2737427,2.7661438-2.5467834,5.7564087-3.8313293,8.9457703l-7.1394653,0.5535278
		c-3.6382751,0.2814636-4.4941711,1.0907898-4.4941711,1.951416l10.3234558,0.8201294
		c-1.5784607,4.1004333-3.0814819,8.2287292-4.5090027,12.3848877c-0.7278137,2.1071472-1.44104,4.2192383-2.13974,6.3362427
		l-8.1897583,0.6311035c-3.6429749,0.2821655-4.4934692,1.065155-4.4934692,1.9527893l11.5499268,0.913269
		c-3.8204651,11.9461365-6.2842407,21.7329712-7.4317627,29.9112549l-10.9451294,0.6318054
		c-3.6166382,0.1977844-4.4887695,1.0746155-4.4887695,1.9521179l15.005249,0.9497375
		c-0.5641174,4.7756348-0.4586792,9.6066895,0.3131714,14.3531799l-16.5239868,0.5325928
		c-3.6382446,0.1147461-4.4934387,1.0489197-4.4934387,1.9520874l21.8632507,1.038147
		c0.8834229,3.0048828,2.2587891,5.8425903,4.0702515,8.3976746c5.4074402,7.6254883,17.0316162,12.1661987,33.2950439,12.1661987
		c12.9275818,0,25.3496399-1.4195251,34.8799744-4.170166c1.8319397-0.5264893,2.5677185-1.2892456,3.3034363-3.4654541
		L500.1242676,349.5112c3.1994934-9.4985962,5.3338318-11.8678589,12.9545898-13.7470703 M430.9894104,266.8432617
		l4.0297241-11.9778748h-41.6974182l-4.0284119,11.9778748c9.3210754,2.0249939,11.8786621,5.6159973,8.3868713,17.97052
		l-14.0447388,0.7769165c-3.6173401,0.1991272-4.488739,1.0395203-4.488739,1.9521179l17.4325562,0.8822327
		c-0.1147461,0.3550415-0.2295227,0.7046814-0.3604431,1.0752563l-6.5245667,19.3691406l-7.2650146,0.5690308
		c-3.6430054,0.2767334-4.4941711,1.0529785-4.4941711,1.9507446l10.6325989,0.8410645l-15.7369385,46.7073059
		c-0.8504944,2.5366211-1.6017761,2.4839783-1.5592651-0.0783081l1.3459473-94.0727234
		c0.0992432-7.3898926-1.7853699-9.911026-8.7844543-9.911026h-38.0328674l-4.0290833,11.9785614
		c5.6268005,1.6490173,7.9022522,3.6375732,7.3487244,9.1907959l-6.6595459,0.5170593
		c-3.6382446,0.2814636-4.4941406,1.0016785-4.4941406,1.9520874l10.6002197,0.8396912
		c-0.485321,2.1971436-1.2582092,4.8181458-2.285553,7.948822l-14.1601563,0.7829895
		c-3.6220398,0.1991272-4.4941406,1.0185852-4.4941406,1.9473572l17.448761,0.8815613l-4.4367676,13.1638489l-18.5759888,0.5791626
		c-3.6369019,0.1147461-4.4880676,0.9706421-4.4880676,1.9520874l21.8686523,1.0125122l-4.2322388,12.5786133l-9.3426819,0.5892639
		c-3.6227417,0.2294922-4.4941406,1.022644-4.4941406,1.9521179l12.6879578,0.8612976l-4.6082153,13.6842651l-22.2500305,0.5643005
		c-3.5957031,0.0938416-4.4934692,0.9969788-4.4934692,1.9520874l25.5426636,1.0543518l-7.0611572,20.9709167l-12.3855896,0.6884766
		c-3.6227112,0.1984558-4.3213501,1.0496216-4.3213501,1.9521179l15.5007019,0.9449768l-0.1876831,0.5535278
		c-5.0206299,14.9012756-8.9255066,18.7163696-18.4868774,21.1329041l-4.0236816,11.9778748h41.696106l4.0297546-11.9778748
		c-10.4125671-2.2599182-12.3909912-6.461792-6.9255066-22.657074l26.0178833-77.2301331
		c0.8086243-2.4164734,1.5754395-2.4212036,1.5342712,0.0837097l-0.6682434,46.4987183l-6.701416,0.6939087
		c-3.6375732,0.3759766-4.488739,1.1799011-4.488739,2.0675049l11.1442566,0.5892639l-0.172821,11.8631592l-12.3963623,0.6682434
		c-3.6166382,0.1882935-4.4941406,0.9342041-4.4941406,1.9473572l16.8425903,1.0125122l-0.2814636,19.676239l-14.9580078,0.7614136
		c-3.6220398,0.1991272-4.4941406,0.9875183-4.4941406,1.9473572l19.400177,0.9085693l-0.1876526,13.3501282
		c-0.1410828,7.375061,1.9203796,9.7915649,8.1418457,9.7915649h24.7759094l37.4064636-111.0820313
		c5.0220032-14.9006348,8.9302368-18.7157288,18.4868774-21.1329041 M267.6576843,364.6582031l26.6759949-79.2909241
		c4.5143738-13.4142761,7.5984497-16.3943787,16.4612122-18.5186157l4.0236816-11.9785461h-48.1369629l-4.0297546,11.9785461
		c5.1624146,1.9102478,7.2090149,4.2221375,5.6376038,12.0723877l-14.3592834,0.7303467
		c-3.6213684,0.2038269-4.4934845,1.0286865-4.4934845,1.9520874l17.9550018,1.0327454
		c-0.5278625,1.9426575-1.210968,4.1343689-2.052002,6.6345825l-0.7357483,2.1815796l-31.5872955,0.537323
		c-3.6112518,0.0681763-4.4934845,1.0597534-4.4934845,1.9520874l34.8853455,1.0705566l-4.7027283,13.9819336l-44.3474731,0.5690308
		c-3.6018066,0.0472717-4.4941559,1.0327454-4.4941559,1.9514465l47.6212616,1.1225281l-3.4715271,10.3025208l-24.2844696,0.6108704
		c-3.5970764,0.0891113-4.488739,0.9713135-4.488739,1.9466858l27.5312195,1.1380615l-5.9548492,17.7032166l-29.2227783,0.5690002
		c-3.6112518,0.0682068-4.4941406,1.0023804-4.4941406,1.9521179l32.5113831,1.0705261l-5.7577515,17.1180115l-18.3505554,0.5750732
		c-3.6375732,0.1147766-4.4934845,0.9497375-4.4934845,1.9521179l21.6540222,1.0023499
		c-4.5090027,13.4028015-7.59375,16.3883362-16.4565125,18.5071411l-4.0236664,11.9785767h48.1376343l4.0290527-11.9785767
		c-6.9470825-2.5730896-8.2565918-5.8610229-2.6878357-22.4221191 M207.0406647,375.712616l-3.9197235-64.5313416
		c-0.1302795-2.1822815,0.2922668-3.0847473,1.8116913-4.4779663l30.8245544-28.2318726
		c9.3636017-8.5745239,12.7089081-10.4064636,18.6070557-11.6174011l4.0344696-11.9886932h-44.2077637l-4.029068,11.97789
		c8.2363434,1.5761108,9.1759491,8.2261963-1.0327454,17.5736084l-0.2038574,0.1876526l-18.0427399,0.616272
		c-3.6382599,0.1147461-4.4941559,1.0800171-4.4941559,1.9520874l18.783905,0.8660278l-11.0227509,10.1047668l-11.5661316,1.0023804
		c-3.6382446,0.3597717-4.4468994,1.131958-4.4468994,2.0452271l12.0771027,0.5589294l-21.5135956,19.712677l12.1500092-36.111145
		c4.5089874-13.4142761,7.0834503-14.8493347,15.9347076-16.9789429l4.5515289-13.5229645h-48.1430206l-4.0230103,11.97789
		c4.9416809,1.8319397,7.0240631,4.024353,5.8131104,11.1017151l-11.8368073,0.7047119
		c-3.6173096,0.2031555-4.4941559,0.9915771-4.4941559,1.9520874l15.52771,1.0071106
		c-0.4698029,1.8157349-1.0806732,3.8677368-1.8481598,6.2099915l-29.3166046,0.5697021
		c-3.6112442,0.0675049-4.4934692,1.0172119-4.4934692,1.9520874l32.6099243,1.0698853l-7.6821747,22.844696l-14.5469208,0.7357483
		c-3.6220474,0.1991272-4.4941483,0.8977661-4.4941483,1.9521179l17.7929916,1.0280151l-4.3996429,13.0855408l-19.1652756,0.6574707
		c-3.6382523,0.1093445-4.4887543,1.0327454-4.4887543,1.9466858l22.4268723,1.038147l-3.7266693,11.08078l-11.2319946,0.6210327
		c-3.6220474,0.1984558-4.4934769,1.04422-4.4934769,1.9520874l14.5665054,0.892334l-4.9949951,14.8385315l-20.6732254,0.5953369
		c-3.596405,0.0877686-4.4934769,1.0273743-4.4934769,1.9467163l23.9409027,1.1069946l-0.2767487,0.8289185
		c-4.5103531,13.4136047-7.59375,16.3889771-16.4564972,18.5179443l-4.0297546,11.9785461h51.4680786l4.0283966-11.9785461
		c-10.0574951-2.0405579-11.7321777-5.417572-6.0122223-22.4221497l5.5741425-16.5604553l14.2019958-13.0119629
		c1.2420044-1.1373901,1.9939423-0.9024963,2.0614471,0.8612976l0.7411652,19.1915894l-11.6032562,0.8761597
		c-3.6159668,0.2565002-4.4617462,1.1069946-4.4617462,2.0148621l16.2060699,0.7985229l0.4434814,11.4466553l-16.2216034,0.6730042
		c-3.6220398,0.1977539-4.4941559,1.0124817-4.4941559,1.9520874l20.8507538,1.0280457l0.1471558,3.7320557
		c0.8504944,18.0474854,4.3895264,21.8632507,19.7552185,21.8632507c5.5525513,0,10.8917999-0.2241211,14.6339874-0.5953369
		l3.9717102-11.9205322c-6.5339966-0.9031372-8.4341278-3.032074-8.9403687-11.2940674"/>
</g>
</svg>
