<?xml version="1.0" encoding="utf-8"?>
<!-- Generator: Adobe Illustrator 22.0.1, SVG Export Plug-In . SVG Version: 6.00 Build 0)  -->
<svg version="1.1" id="Layer_1" xmlns="http://www.w3.org/2000/svg" xmlns:xlink="http://www.w3.org/1999/xlink" x="0px" y="0px"
	 width="720px" height="720px" viewBox="0 0 720 720" style="enable-background:new 0 0 720 720;" xml:space="preserve">
<style type="text/css">
	.st0{fill:#E2D6B5;}
	.st1{fill:#024930;}
	.st2{fill:#AF1E24;}
	.st3{fill:#EDAA00;}
	.st4{fill:#FFFFFF;}
</style>
<g>
	<path class="st0" d="M641.0004272,237.2101135c0.2613525,0,22.4800415-17.513504,22.4800415-17.513504
		c-63.6665039-15.3188324-129.2208862-21.3063354-194.6091309-17.7749176c0,0-15.0302124-50.4493713-86.2605591-50.9721527
		c-52.9326477-0.2613983-83.3852539,32.674469-92.9262085,58.421875
		c-99.9838562,21.6958618-176.3114166,72.1452179-176.3114166,72.1452179l18.297699,13.9846802
		C84.4889221,320.2032471,36,359.6740112,36,359.6740112s4.443737,23.7869873,33.0665588,61.9507751
		c0,0,19.2125931,14.8995361,69.9233551,34.3735352c4.9963837-1.1780701,9.8912048-2.7513733,14.6382599-4.7051086
		c6.9698486,2.3741455,14.0859528,4.2950439,21.3037415,5.7507019c-0.3922119,6.4041748-2.3525696,15.5530701,9.4102478,26.4009705
		l-8.6261292,4.5744324c0,0,10.4558411,26.4009705,68.8777924,40.6470642
		c22.4800873-5.2278442,124.1630096-23.7869873,158.7979279,40.3856201L581.532959,396.400116l-37.7716675-0.2613831
		L684,249.1036072C669.9281616,244.2486267,655.5670166,240.276413,641.0004272,237.2101135z"/>
	<path class="st1" d="M650.0186768,256.1612549c-16.366272-5.8769226-33.0848389-10.722229-50.057312-14.5073853
		l17.9056396-13.5925751c-96.4550171-20.1274567-162.7188416-14.37677-162.7188416-14.37677
		s-12.9391174-50.4493256-77.2424927-50.8414764c-62.2121582-0.3922119-81.2941284,55.0238037-81.2941284,55.0238037
		c-85.3456421,16.206543-165.8555298,64.5647583-165.8555298,64.5647583l19.4739685,14.8995667
		c-50.4493103,24.4404907-102.8591995,66.1331177-102.8591995,66.1331177
		c7.188385,23.0028076,28.6228256,51.1028442,28.6228256,51.1028442
		c19.8661652,13.9846802,63.6498566,31.3674927,63.6498566,31.3674927c4.587326-1.2268372,9.0170288-2.9811401,13.2004852-5.2277832
		c14.4146576,5.5255737,29.6597137,8.5745239,45.0907745,9.0180054c8.4953613,0.1307068,17.9056091-0.9148865,18.0363007-4.182312
		c0-5.7507019-17.382843-7.5804749-17.382843-13.9846802c0-4.8358154,10.5865479-11.2400208,50.4494019-10.9786072
		c23.7870026,0.1306763,50.8414764,1.9604797,50.8414764,1.9604797c-19.6047058-0.1307068-58.291275,4.7051086-58.291275,13.7232971
		c-0.1306915,7.188385,26.1395721,7.7111511,26.1395721,17.2521057
		c-0.1307068,13.8539429-20.6502686,18.4284363-44.5679474,18.297699
		c-21.434433-0.1307373-31.628891-6.2735291-36.4647064-6.4042053c-1.8297577,0-3.0061035,0.9148865-3.0061035,2.2218933
		c0,4.9664917,9.4102478,15.0302429,17.1214142,17.9056091l-10.4558411,5.8814087
		c11.5013885,15.4223938,54.5010071,27.1851196,54.5010071,27.1851196
		c123.2481842-26.0088501,160.7583771,35.680603,160.7583771,35.680603l145.2053528-148.3421936l-33.850708-0.2613831
		L650.0186768,256.1612549z"/>
	<path class="st2" d="M316.869812,243.7450714c-0.0210571-2.4497375,0.1537476-4.8972321,0.5228271-7.3190918
		c-55.6773376,8.1032867-107.6950836,23.6563263-150.0411682,46.2671661
		c48.8144836-15.434845,99.0965576-25.7716064,150.0411682-30.8447571
		C317.0191345,249.1638336,316.8443909,246.455368,316.869812,243.7450714z M435.0206909,230.4138336
		c1.1232605,4.663269,1.6502075,9.4502106,1.5683594,14.2461548c0.0210266,2.3629608-0.1538391,4.7236176-0.5227966,7.0576935
		c26.1089783,2.8687592,51.8583374,8.3864441,76.8503113,16.4678345
		c-28.1000671,0.7842102-56.8535767,3.2674561-84.6921997,6.5349121
		c-10.8188782,18.3323059-30.601532,29.4943237-51.887085,29.2763062
		c-14.4560852,0.0172729-28.4129028-5.2863159-39.2093506-14.8995361
		c-57.8992004,11.2400208-98.5462189,22.4800415-98.5462189,22.4800415
		c28.6228485,1.5683899,44.6986847,8.2339478,44.6986847,8.2339478
		c-73.9749756,14.5074463-142.9834595,42.4768066-165.4634705,52.1484375
		c5.3585968,8.4953918,12.1549072,18.4284058,12.1549072,18.4284058l-11.1093216,13.5925903
		c19.7353745,3.7902222,44.1758804,1.8297424,44.1758804,1.8297424l36.856781-22.2186279l28.7535248,8.8874512l8.7567596-11.8935242
		h-9.4102478l19.2125854-30.4525757l15.6837463,30.7139893h-7.188385l4.8358154,10.4558411l19.8661499-3.3981323
		l8.4953613-10.7172241h-7.5804749l11.5014038-17.382843h-8.4955444l18.0363159-30.1912231l15.1609497,31.3674927h-6.7962952
		l10.0637207,18.2977295l-8.1032715-0.1307068l16.467865,30.3217773l16.7293091-23.1335144h-11.370636l17.2522583-25.6166382
		l-10.9786377-0.1306458l24.9632874-42.0846863l21.0423889,42.9996033h-8.8874512l14.5074768,25.2247009l-10.3251648-0.1307068
		l13.8539429,31.4981995l24.3098145-39.0786438l-13.2005005-0.1307068l19.7353821-31.6289063l-12.0242004-0.1306763
		l26.5317688-53.063446l27.0544739,55.9386902h-9.6716309l17.6442261,29.4070129l-12.1549072-0.1306763l13.3311462,29.1455994
		l22.3493652-33.589325l-11.8935242-0.1307068l26.0088196-36.856781h-13.8539124l41.5617981-56.5921631l21.4344482,39.2093811
		l46.5283813-56.4614868C556.5697021,243.8757629,496.0565796,232.7664185,435.0206909,230.4138336z"/>
	<path class="st3" d="M377.121521,184.2775116c-30.2080078-0.1572723-55.809845,22.1953125-59.7288818,52.1484528
		c0,0,30.1912231-13.331192,111.8773804-20.9116669C418.8094482,196.4431,398.8720398,184.5006256,377.121521,184.2775116z
		 M376.3373108,303.9967651c21.2939148,0.2505798,41.0917969-10.9200134,51.8870544-29.2763367
		c-32.5437927,4.0516357-63.6498413,9.1488647-90.9656982,14.37677
		C348.0272217,298.671051,361.9283142,303.9711304,376.3373108,303.9967651z M435.0206604,230.4138489
		c-39.3105164-1.5598907-78.6815186,0.4524231-117.6281738,6.0121155c-0.3088379,2.4282074-0.4833984,4.8716125-0.5228271,7.3190765
		c0,2.7446442,0.2614136,5.4893188,0.5228271,8.1032715c39.4460144-4.1646271,79.2185669-4.2084351,118.673645-0.1306915
		c0.368988-2.3340759,0.5438538-4.6947174,0.5228271-7.0576935c0.0168457-4.7926941-0.5092773-9.5718842-1.5683594-14.2461395
		L435.0206604,230.4138489z"/>
	<path class="st4" d="M383.5257568,265.8329468c-50.1323853,1.8167725-99.9375305,8.8692017-148.6034241,21.0423584
		c-0.5227814-3.5288391-1.0455933-6.927002-1.5683594-10.3251343c-2.4832611,4.0516357-4.7051239,7.9725952-7.1884003,11.8935242
		c0,0-35.4191284,12.8083801-58.8140869,24.8325806c29.9297943-10.0637207,54.239624-16.206543,54.239624-16.206543
		c-2.4832611,5.097229-4.8358154,10.0637207-7.3190918,15.2916565c4.4437408-4.0516357,8.7567596-7.8418579,13.331192-11.7628174
		l9.4102478,5.0971985c-0.3921967-3.7902222-0.7841949-7.4497681-1.1762695-11.370697
		C235.8371429,294.3250732,314.778656,272.8906555,383.5257568,265.8329468z"/>
</g>
</svg>
