<?xml version="1.0" encoding="utf-8"?>
<!-- Generator: Adobe Illustrator 22.0.1, SVG Export Plug-In . SVG Version: 6.00 Build 0)  -->
<svg version="1.1" id="Layer_1" xmlns="http://www.w3.org/2000/svg" xmlns:xlink="http://www.w3.org/1999/xlink" x="0px" y="0px"
	 width="720px" height="720px" viewBox="0 0 720 720" style="enable-background:new 0 0 720 720;" xml:space="preserve">
<style type="text/css">
	.st0{fill:#FFFFFF;}
	.st1{fill:#192168;}
	.st2{fill:#AF1E2D;}
</style>
<g>
	<path class="st0" d="M612.3776245,356.9944763l46.3977661-48.7502747l-26.401001-121.4183807L515.269104,151.9295654
		l-10.5865479,9.8023376c-39.2093506-11.6320953-109.7861938-23.7870331-156.8374329-23.6563568
		C173.4941406,138.3370056,36.5227852,235.3148193,36,358.8242798c0,105.6038818,91.0963974,223.1011963,313.4134827,223.1011963
		C525.5941772,581.9254761,684,464.5588379,684,464.5588379L612.3776245,356.9944763z"/>
	<path class="st1" d="M596.824646,355.5567932l48.7502441-51.1029053l-23.5255737-108.0870667l-103.6433716-30.844696
		l-10.5865479,9.9329987c-35.0270691-11.5014038-109.7862549-25.3553009-159.8434753-25.3553009
		c-170.1686859,0.3920441-299.4288635,93.7103577-299.9516602,208.7243958
		c-0.5228615,120.7648926,116.5825348,210.9462891,301.3892212,210.9462891
		c129.3908997,0,261.918457-69.0084534,317.8572998-108.3484497L596.824646,355.5567932z M339.0883789,548.4668579
		c-166.3783112,0-269.4989929-87.5675659-269.2375488-188.8583374
		c0.1307144-103.904892,121.6797028-188.2049408,270.2832031-188.2049408
		c74.2363586,0,141.2844543,16.4679413,173.6974792,29.1455841l10.194397-10.9786224l79.9871216,23.3949432l18.8204956,84.8229065
		l-58.5526733,60.5130615c0,0-52.0177612-57.3763428-139.9773865-68.4856873v142.1992798
		c81.0327148-15.0301819,154.3541565-65.2182007,154.3541565-65.2182007l59.7289429,88.8745422
		C603.6209106,475.276062,492.6584167,548.4668579,339.0883789,548.4668579z M540.4938965,364.7055969v0.0000916
		l-0.000061-0.0000916c-30.4526672,17.382843-63.9112244,31.759613-94.4944763,40.2550049v-89.6587219
		c35.0172424,8.6174011,67.4347229,25.5658569,94.4944763,49.403717H540.4938965z M325.1037598,281.8432312v58.160553h58.8140259
		v-56.3308105C364.3890076,281.5562439,344.7263489,280.9445496,325.1037598,281.8432312z M340.9182129,299.0953674
		l27.4465637,1.0455322v22.8721619h-27.4465637V299.0953674z M325.1037598,438.4192505
		c19.6032104,1.2456055,39.2762756,0.8521118,58.8140259-1.176239v-58.6833191h-58.8140259V438.4192505z M340.26474,396.5959473
		h28.2307434v23.9176941H340.26474V396.5959473z M180.1598358,360.3926392
		c0,45.3521729,78.1572418,74.1057129,102.7285309,74.1057129V285.2413635
		C260.1469116,288.9009399,180.1598358,304.4538879,180.1598358,360.3926392z M261.3232727,311.2502441v97.1085205
		c-32.9358826-9.9331055-59.4676208-30.7139893-59.4675293-47.9661255
		C201.8557434,335.2986755,233.3539276,319.3535156,261.3232727,311.2502441z"/>
	<path class="st2" d="M574.4753418,387.9698486c-96.0629883,56.3308105-160.1049194,67.3094482-238.000824,66.525238
		c-109.6555481-0.914856-172.1291046-44.8293762-172.1291046-97.10849c0-47.0512695,57.2456512-92.011322,174.3509369-92.011322
		c78.6801147,0,173.5667725,21.1730347,224.2775269,71.0996399l42.2153931-42.9995728l-14.376709-68.2243042l-62.2121582-18.1670227
		l-11.3707275,12.6777039c-34.1121216-13.5925446-91.7499084-32.5437775-180.3630371-32.5437775
		c-133.8346252,0-251.2013245,77.3731537-251.2013245,170.8221283c0,97.7620239,102.2057343,174.3509216,247.1497498,174.3509216
		c147.1657715,0,233.4263916-55.415863,283.222229-81.555481L574.4753418,387.9698486z"/>
</g>
</svg>
