<?xml version="1.0" encoding="utf-8"?>
<!-- Generator: Adobe Illustrator 22.0.1, SVG Export Plug-In . SVG Version: 6.00 Build 0)  -->
<svg version="1.1" id="Layer_1" xmlns="http://www.w3.org/2000/svg" xmlns:xlink="http://www.w3.org/1999/xlink" x="0px" y="0px"
	 width="720px" height="720px" viewBox="0 0 720 720" style="enable-background:new 0 0 720 720;" xml:space="preserve">
<style type="text/css">
	.st0{fill:#FFFFFF;}
	.st1{fill:#FFB81C;}
	.st2{fill:#041E42;}
</style>
<g>
	<path class="st0" d="M683.0792236,360.8772583l-17.3496704-42.4676819
		c-1.2947388-3.1074829-3.6251831-5.6968079-6.4735718-6.9915771l-32.8865967-15.7960205l-9.3222046-7.2506104
		l-13.9833374-17.3494568l-4.6611328-20.974884c-0.7767944-3.625412-3.1072388-6.9917603-6.4735718-8.8044586
		l-22.7875977-12.9474335L554.899353,214.052948c-1.2947388-1.294754-2.5895386-2.071579-4.1433716-2.8483887
		l-92.1859741-40.1372375c-2.589325-1.0356903-5.1788635-1.2947693-8.0274658-0.776825l-124.8135376,24.8591614
		c-33.1456604-2.5895233-62.4068604,1.5536346-65.7731934,1.8127136
		c-10.3579102,1.8125-11.9117432,10.8758392-11.3937988,13.4653625
		c-11.3937988,2.3304596-181.782486,36.2529449-181.782486,36.2529449c-3.1074753,0.517746-6.2149429,2.3304596-8.0274506,4.9199829
		l-19.9391823,26.6716766c-6.4736099,8.286499-1.0356903,19.9391785,8.8042641,21.2339478
		c1.2947617,0.2588501,132.3232422,18.6444092,132.3232422,95.8114014c0,28.2254944-19.9391785,56.96875-19.9391785,57.2278137
		c-5.1788483,7.2504272-2.071579,19.1621704,8.5453949,20.974884l75.3542938,13.7242432
		c8.0274353,6.2147217,27.70755,18.6444092,55.9330444,18.6444092c34.4404602,0,46.3519897-12.9474182,49.9773865-24.8591614
		c16.8317261-7.7685547,38.5834045-24.8591614,38.5834045-41.4319763c0-11.6526794-10.3578796-19.6801147-20.1980591-19.6801147
		c-2.330658-2.3304443-5.1790466-4.143158-8.2863159-5.1790466c7.7683716-5.6968079,16.3137817-10.0990295,25.3769226-12.9474487
		c26.4129944-8.8042603,59.8173218-16.3137512,82.0869751-20.9748535
		c-34.1811829,82.0869751-131.2873535,125.3314819-132.0641785,125.8494263
		c-9.8401489,4.4022217-7.7685852,14.7601013-7.7685852,14.7601013l-6.4736023,2.8484497
		c-13.7244263,6.2147217-8.5453796,26.9307251,6.4736023,25.6359253
		c112.9020081-9.5810547,196.2837524-48.9412842,255.0654297-120.1524048h20.7160034
		c2.3304443,0,4.4019775-0.5179443,6.4735718-1.553833c20.9749146-11.6526794,34.9581909-11.3937988,35.2172852-11.3937988
		c5.4379272,0.2590637,10.3579102-2.589325,12.6883545-7.509491c10.6169434-21.751709,22.2698364-33.4043579,22.2698364-33.6634216
		C684.1151123,371.4942322,684.8919678,365.7974243,683.0792236,360.8772583z"/>
	<path class="st1" d="M677.9002075,362.948822l-17.3494873-42.4676819c-0.7767944-1.8125-2.0715942-3.366333-3.8842773-4.143158
		l-33.404541-16.0549011l-10.3579102-8.0274353l-15.0189819-18.6442261l-4.9202271-22.2698364
		c-0.5177002-2.071579-1.8125-3.884079-3.8840332-5.1788483l-23.5646362-13.4653625l-14.7598877-14.7601318
		c-0.7770386-0.776825-1.553833-1.2947693-2.3306885-1.553833l-92.1860046-40.1370392
		c-1.5536194-0.5179443-3.1074524-0.7768097-4.6611023-0.5179443l-125.5905457,25.1180267
		c-34.181366-2.5895233-64.2193909,1.553833-65.5141296,1.8127136c-7.7685852,1.294754-7.7685852,9.5810852-4.9201965,12.1706085
		L67.8152084,252.3774872c-1.8125,0.2588654-3.6252136,1.5536194-4.6611023,2.8483887l-19.9389801,26.412796
		c-3.6254158,4.6611023-0.7768173,11.6528625,5.1788483,12.4296875
		c1.2947617,0.2588501,137.2434082,18.6444092,137.2434082,101.2493286c0,30.2970886-20.7159882,60.0762329-20.9750671,60.5941772
		c-3.1072693,4.143158-1.2947693,11.1347046,4.9201813,12.1705933l76.6490479,13.7242432
		c5.6967926,4.6611023,25.3769073,18.3853455,53.8614655,18.3853455c33.6634521,0,43.2445068-12.6883545,45.3161011-23.0464478
		c16.5728455-6.9915466,37.547699-23.8232727,37.547699-37.547699c0-8.5451965-7.509491-14.2421875-14.7601318-14.2421875
		c-0.7767944,0-1.5536194,0.2590637-2.3304443,0.5179443c0,0-3.6254272-6.7326965-12.1705933-6.7326965
		c-3.6254272,0-7.7685852,1.8127136-10.8760681,3.1074829c7.7685852-8.8044739,20.4571533-19.4212341,40.6551819-26.1539307
		c31.3329773-10.3580933,72.2468262-19.1623535,92.703949-23.305542
		c-31.0738831,90.3733215-137.7611389,138.02005-138.7970276,138.5379944
		c-6.2147522,2.8483887-5.1788635,10.8758545-2.589325,12.4295044l-11.6528625,5.1790161
		c-8.2863464,3.6252441-4.6611328,15.7960205,3.8842773,15.0189819
		c112.6431274-9.5810547,195.2478333-48.9412537,252.7347717-120.1524048h23.0464478
		c1.2947388,0,2.5894775-0.2590637,3.8842773-1.0358887c22.7875366-12.6885376,37.8065796-12.1705933,38.0654297-12.1705933
		c3.1074829,0.2590637,5.9558716-1.5536499,7.5095215-4.4020386c11.1348877-22.7875977,23.305542-34.9581909,23.5645752-34.9581909
		C677.6412964,369.6815186,679.1949463,366.5742493,677.9002075,362.948822z"/>
	<path class="st0" d="M578.1549072,391.5606079c0.0663452,0.2983093,0.0663452,0.5964355,0.0663452,0.8947449
		c0,0.5300598-0.0331421,1.0603638-0.0663452,1.6235962c-2.7834473,34.5272217-92.1168213,113.8205872-210.2783508,131.1174622
		h-0.0331726c-0.2319946,0.0332031-0.4637451,0.0661621-0.6957397,0.0993042
		c141.1242981-71.9703674,140.6273804-157.1619568,180.7545166-157.1619568
		C557.5115356,368.1337585,577.2270508,379.4660645,578.1549072,391.5606079z M331.6925659,466.5132446
		c0,0,22.0020752-4.638855,36.7472229-26.4089355c-28.4633484,14.5133972-48.9411011,5.434082-48.9411011,5.434082
		C322.3482971,458.2293701,330.8973389,461.8743896,331.6925659,466.5132446z M202.0662384,264.7507324
		c0.1324615-0.2319641,0.298111-0.4307861,0.4307709-0.6295776c0.2649384-0.3976135,0.5300903-0.7620544,0.7620544-1.0601501
		c0.3976135-0.530304,0.6959229-0.8947449,0.861557-1.126709c0.0993042-0.1656494,0.1656494-0.2319641,0.1656494-0.2319641
		c-4.04245,1.4911194-7.7867889,3.2142334-11.265976,5.0698242c-1.7562866,0.9608459-3.4130707,1.9217224-5.0035095,2.9159546
		c-1.6236115,1.0271912-3.1479187,2.0543823-4.605896,3.1145325c-0.7290802,0.530304-1.4248047,1.0603638-2.1207123,1.6238098
		c-0.6957245,0.4969177-1.3916473,1.0272217-2.0543976,1.6236267c-2.021225,1.5904541-3.8768005,3.2472229-5.5999146,4.9703369
		c-0.5964203,0.5632324-1.159668,1.1264954-1.6899414,1.6899414c-0.5964203,0.5632629-1.093338,1.0933228-1.5904541,1.6567688
		c-1.5904388,1.6567993-3.0152435,3.3135681-4.2414398,4.9040222c-5.6660614,6.958374-8.8803101,13.0222473-10.2056122,15.8386841
		c-0.1326752,0.2319641-0.2319794,0.4307861-0.2983093,0.5966187c1.0935364,0.6625366,2.1870575,1.3252869,3.2472229,1.9880371
		c1.789444,1.159668,3.5455322,2.3195496,5.2354736,3.5123901c1.3586731,0.927887,2.7503052,1.8223877,4.1087799,2.7503052
		c0.0331726,0.0331726,0.06633,0.0331726,0.0995026,0.0661316c3.6116638,2.319519,6.9915619,5.1691284,10.3382721,8.0189514
		c0.7952271-4.1419678,1.5572815-8.0189514,2.5844727-12.1938782c0-0.0331726,0.0331726-0.0663147,0.0331726-0.0994873
		c5.1691437-19.8813477,14.0826111-35.1236267,19.2517548-42.711792
		C201.0722046,266.1755371,201.6022949,265.4134827,202.0662384,264.7507324z M289.212738,239.435318
		c0,0,10.7359009,18.2245636,30.0539856,21.4717865c1.3255005,0.2319641,2.68396,0.3976135,4.0756226,0.4639282
		c0.596405,0.0661316,1.2259827,0.0661316,1.8555603,0.0661316l23.8244934-1.557251l19.6825256-20.4445953l26.6741028-4.1419525
		c-10.039978-5.9313965-21.1073303-10.3053131-32.4064941-13.4200592c-0.0663147-0.0329742-0.1324463-0.0329742-0.1987915-0.0661316
		l-21.6376343,30.4184265l-0.6625366,0.9276886l14.2482605-33.1355743
		c-0.3646545-0.0993042-0.7290955-0.1988068-1.0935364-0.2649384h-0.0331726
		c-3.4460144-0.861557-6.8591003-1.4911346-10.3051147-1.9550781h-0.0995178
		c-0.2317505-0.0331726-0.4307556-0.0663452-0.6625366-0.0993042c-0.0663452,0-0.1658325-0.0331726-0.2319641-0.0331726
		l-18.4897156,26.0113373l-0.6627502,0.9279022l11.895752-27.9664307c-1.1266785-0.1326752-2.2531738-0.2319794-3.4130554-0.3646545
		c-3.5123596-0.3644409-7.157196-0.6957092-10.8022156-0.9276886h-0.2649536l-14.1489563,19.5830383l-0.6295776,0.861557
		l8.8139648-20.9748688c-9.3771973-0.3312836-17.6279297-0.1988068-23.8905945,0.06633
		c-1.1928406,0.0331726-2.3195496,0.0995026-3.3799133,0.1326752c-0.596405,0.032959-1.1596375,0.0661316-1.6899414,0.0993042
		c-0.5632324,0.0331573-1.0933228,0.06633-1.6235962,0.0995026c-3.5455322,0.1988068-5.5667725,0.3976135-5.6660461,0.3976135
		l5.1691284,4.4068756L289.212738,239.435318z M620.6679077,330.8230591c0,0,0.2980957,0.1658325,0.7952271,0.4971313
		c0.2649536,0.1656189,0.6295776,0.3312683,1.0272217,0.5632324c5.2022705,2.6839905,20.1462402,8.9466553,27.9332275-4.1419373
		c0.0993042-0.1656494,0.1987915-0.3644409,0.2980957-0.5300903l-31.8764038-15.010498
		c-3.9431152,2.319519-7.8530884,4.1751099-11.7299194,5.5667419h-0.0331421
		c-4.5395508,1.6899414-8.9466553,2.7834778-13.1547241,3.3798828l-0.6959229,0.0995178
		c-23.8244629,3.6448364-41.9495239-6.4614868-41.9495239-6.4614868c-19.6825562,0-33.1687622,3.3796997-44.7993774,9.0459595
		c-2.4519958,1.2591553-4.8046875,2.6176453-7.0910339,4.1087646c-2.2200317,1.3586731-4.3407593,2.8496094-6.4944458,4.4071045
		c-3.9431458,2.9159241-7.8533325,6.0970154-12.0282288,9.5762329c-0.4307861,0.3312683-0.8615723,0.7288818-1.3255005,1.0933228
		l27.7012634-30.5509033l4.4071045-25.3817444c0,0,0.0663452,0.1987915,0.2319641,0.5300598
		c0.0993042,0.198822,0.2319946,0.4971313,0.3644409,0.7952271c2.4520264,4.6722412,11.8626099,19.9145203,32.3071899,19.9145203
		c5.0698242,0,9.6425781-1.2591858,13.1549072-2.6508179c0.4969482-0.1656494,0.9608765-0.3644409,1.4248047-0.596405
		c0.9277344-0.3976135,1.7561035-0.8283997,2.4520264-1.1930542c0.2319336-0.1324463,0.4639282-0.2317505,0.6627197-0.3644409
		c1.0933228-0.5632324,1.8555908-1.0935059,2.286377-1.3916321C564.8343506,301.9289551,565,301.8294373,565,301.8294373
		c23.7913208,17.9264526,45.6940918,10.5041199,49.4052734,9.0461426c0.3644409-0.1326599,0.5632324-0.2319641,0.5632324-0.2319641
		l-9.0459595-7.5218506l-0.4971313,0.2651672l-8.0187378,4.3739014l5.1359863-7.9857788l-3.3467407-3.6448364l-0.5300903,0.2651367
		l-0.4970703,0.2649536l-10.6364136,5.4342651l7.2567139-10.8683472l-2.5846558-2.849823l-9.8411865,4.1419373l5.6660156-9.5760193
		l-3.6779785-5.6994019c-0.0331421,0.1656189-0.0663452,0.3312683-0.1324463,0.4971008
		c-2.1870728,8.5488281-7.5218506,12.9559326-13.9169922,15.0103149c-0.0331421,0-0.0663452,0-0.0994873,0.0331726
		c-0.4969482,0.1656189-0.9940186,0.2983093-1.5241089,0.4307556c-0.4971313,0.1324768-0.9942627,0.2319946-1.524353,0.3644409
		c-4.241394,0.8283997-8.7810059,0.8615723-13.0222168,0.4971313l-0.5302734-6.9915466
		c-0.1656494,0.0992737-0.3312988,0.1987915-0.5300903,0.2649231c-0.0332031,0.0331726-0.0663452,0.0663452-0.1325073,0.0663452
		c-2.651001,1.3916321-5.5668945,2.2531738-8.6484985,2.2531738c-9.5760498,0-17.3630371-7.7867737-17.3630371-17.3629761
		c0-5.1691589-22.3001404-25.4149323-26.5084229-29.1592712c-0.4307861-0.3976135-0.6627502-0.5964203-0.6627502-0.5964203
		l34.9581604,10.8683624c29.5237427,9.0459595,28.1982422,23.5593262,28.4633789,31.5783081
		c3.5455322,1.4909363,10.3051147,2.7169189,15.7393799-1.0272217c0.1326904-0.1326599,0.2982788-0.2319641,0.4307861-0.3314514
		c1.524292-1.159668,2.9159546-2.6839905,4.1087646-4.7715454c0.2319946-0.3976135,0.4639282-0.7952271,0.6627197-1.2591553
		c0.0663452-0.1324768,0.1325073-0.2649536,0.1988525-0.3976135l-0.1656494-0.2319946l-3.6118774-19.1522522l-23.2941895-11.3986359
		l-16.0708618-15.010498l-89.5985107-36.2503204l-88.306366,19.6493683c0.2983093,0.06633,0.5966187,0.1326599,0.8615417,0.2319641
		c20.5772705,5.0035095,37.2113953,15.573761,37.2113953,15.573761s2.5181274,5.9975281,2.2863464,14.5797272
		c0,0.6627502-0.0331726,1.3253021-0.0663147,1.9880524c-0.0331726,0.4639587-0.0663452,0.9610596-0.0995178,1.4911499
		c-0.0661316,0.5300751-0.1324768,1.0935211-0.1987915,1.6236115c-0.1656494,0.9608459-0.3312988,1.9550781-0.5632629,2.9822693
		c-0.6959229,3.0152588-1.7892456,6.2295227-3.4460144,9.443573c-18.3572388,0.7951965-32.870636,7.5218201-44.0041504,15.8057251
		c-20.212616,15.2754517-28.7616272,35.9851685-28.7616272,35.9851685l-13.7182007,3.1147461l15.2756653-36.4491272
		l0.2649536-0.596405l5.4342651-12.8234558l0.2651367-0.6295776c-22.5984802,3.3135681-37.3106689-7.8531189-44.9649963-16.3026428
		c-0.3314514-0.3646393-0.6627502-0.7290802-0.927887-1.0935211c-0.3976135-0.4971161-0.7952271-0.9610596-1.159668-1.4248047
		l-0.0994873-0.0995026c-0.3312683-0.3976135-0.6295776-0.7952271-0.8613586-1.159668
		c-2.1870728-2.8166504-3.2474365-4.7715302-3.2474365-4.7715302l-2.4188232-8.5158691l-0.1656494-0.5632477L74.7924042,279.2973022
		c8.350235,0.5632324,16.9985657,1.9219055,25.7132339,4.0094604c14.5465622,3.4460449,29.2587662,8.9134827,43.1757431,16.2033386
		c0.9608612-3.3467102,2.2200317-6.5609741,3.6116638-9.5430603c0.927887-1.9882507,1.9219208-3.9101563,2.9491119-5.6994019
		c0.4971161-0.8947449,1.0271912-1.756073,1.5243073-2.6176453c0.3312836-0.5302734,0.6627502-1.0603638,0.9608612-1.5574646
		c0.3312836-0.5300903,0.6627502-1.0271912,0.9608612-1.4911499c0.2651367-0.3976135,0.563446-0.8283997,0.8283844-1.2260132
		c0.265152-0.3644409,0.4971161-0.7288818,0.7622528-1.0933228c3.744339-5.2354736,6.7927551-8.3833923,6.7927551-8.3833923
		l112.8928986-25.348587c0,0,0.0993042,0.3644409,0.3644409,0.9940338
		c1.4579773,3.4460144,7.2567139,15.2754517,23.1949158,24.8848267v0.0993042l-0.2319946,3.5455322
		c-8.8139648,1.7892456-22.7972717,7.7538147-36.2503052,18.125061
		c-19.1854248,15.010498-36.7803955,39.5970459-36.7803955,75.8473816c0,16.1369934,4.7383575,29.821991,5.7655487,32.6386414
		c0.0995026,0.2649231,0.1656342,0.3976135,0.1656342,0.4969177c-0.4639435-0.6627502-7.6211395-10.9346924-11.8955536-27.7012939
		c0-0.0663452-0.0331573-0.1324768-0.0331573-0.1987915c-1.8224182-7.1903687-3.0815887-15.6730652-3.0815887-25.1499939
		c0-18.125061,5.202301-34.9579773,11.1334991-48.709137c0-0.0331421,0.0331726-0.0331421,0.0331726-0.0663147
		c6.5607758-15.1429749,13.9169769-25.9120483,15.6730499-28.3972168c0.1324768-0.1656494,0.1988068-0.2983093,0.265152-0.3976135
		c0.0331573-0.0331726,0.0661316-0.0663452,0.0661316-0.0994873c-0.1988068,0.0663147-2.0873566,0.8615417-5.1028137,2.4851685
		c-0.5632477,0.2983093-1.1928253,0.6295776-1.822403,1.0271912c-0.2983093,0.1326599-0.5964203,0.3314819-0.9279022,0.4971008
		c-0.6625519,0.3976135-1.3916321,0.8283997-2.1205139,1.2591858c-3.2142639,1.9880371-7.0247345,4.5727234-11.0010376,7.7867737
		c-1.0935364,0.8615417-2.1870575,1.7894287-3.2803955,2.7503052c-1.2259979,1.0603638-2.4521942,2.1870422-3.6781921,3.3798828
		c-0.5964203,0.5632629-1.1928406,1.159668-1.7560883,1.756073c-1.1928253,1.1930542-2.3526917,2.4190369-3.5123596,3.7111816
		c-0.4971161,0.5302734-0.9610596,1.0935364-1.4248047,1.6238098c-0.6295776,0.7288818-1.2259979,1.4579773-1.8555756,2.2200317
		c-0.0995178,0.1324768-0.1988068,0.2319641-0.265152,0.3644409c-1.4911346,1.9219055-2.9822845,3.9431458-4.4070892,6.0638733
		c-0.0992889,0.1656189-0.1988068,0.2980957-0.2980957,0.4639282c-5.7657623,8.6815186-9.8082123,18.0918884-12.3928833,28.0325623
		c12.1940765,12.690979,21.2400208,27.668335,25.381958,43.7058105v0.0331726
		c1.5572815,6.2295227,2.3527069,12.690979,2.3527069,19.1854248c0,31.3131714-12.9561157,50.995697-12.9561157,50.995697
		l43.7721558,8.8141785c0,0,16.5677643,24.0894165,52.0228729,24.0894165c8.316864,0,18.6551514-0.5632629,23.3605347-3.8768005
		c0.0331726-0.0331726,0.0661316-0.0663452,0.0993042-0.0995178c1.5574646-1.0933228,2.4519958-2.5181274,2.4519958-4.3075867
		c0-5.4342651-13.2210693-12.9559021-13.2210693-28.4964905c0-11.1005554,6.1302185-22.3996887,15.9382019-32.5723267
		c0.6959229-0.7288818,1.4248047-1.4579773,2.1539001-2.1536865c0.7288818-0.7290955,1.4911499-1.4250183,2.2532043-2.1207275
		c1.3255005-1.2260132,2.7171326-2.4190369,4.1751099-3.5787048c11.7299194-9.6423645,26.541626-17.6944885,41.783905-22.7640991
		c40.1271057-13.1878967,101.229126-28.463562,132.0453491-28.463562c87.2789612,0,84.4293518,57.7223206,84.4293518,57.7223206
		l4.1419678-0.2651367c18.9866333-10.6034241,35.9851685-13.0885925,41.3199463-13.4198914
		c0.1326904-0.0331421,0.2651367-0.0331421,0.364624-0.0331421c1.0601807,0,1.557312,0,1.557312,0
		s8.5490112-16.0377197,18.6553345-27.7012939c0,0-12.9559326-27.2043762-58.517334-29.5238953L620.6679077,330.8230591z"/>
	<path class="st1" d="M533.6538696,271.2785339c0-7.5218201,6.2294922-10.8685608,6.2294922-10.8685608
		s3.3465576,2.0544128,6.9915771,6.9917603c-2.8496094,0.7620544-4.6722412,3.3465271-4.6722412,6.1963501
		c0,3.3796692,2.3527222,6.4944458,6.4946899,6.4944458c1.5574341,0,2.8496094-0.5300903,3.6118164-1.0271912
		c0.2649536,1.2923279,0.5300903,2.319519,0.762085,3.6118469c-0.2319946-0.2651367-2.8164673,1.5572815-6.4614868,1.5572815
		C540.1483154,284.2344666,533.6538696,278.8003845,533.6538696,271.2785339z M603.072937,337.0525818l17.5949707-6.2295227
		c0,0-11.6637573-5.5667419-26.7404175-9.6755371l-0.6959229,0.0995178
		c-23.8244629,3.6448364-41.9495239-6.4614868-41.9495239-6.4614868c-19.6825562,0-33.1687622,3.3796997-44.7993774,9.0459595
		l-0.5144958,0.1735229c126.7435608,11.0671692,143.5275574,39.1583862,135.0448303,70.3058777
		c0.1326904-0.0331421,0.2651367-0.0331421,0.364624-0.0331421c1.0601807,0,1.557312,0,1.557312,0
		s8.5490112-16.0377197,18.6553345-27.7012939C661.590271,366.5764771,648.6343384,339.3721008,603.072937,337.0525818z
		 M511.651825,287.0842896c-26.6409302-4.8710327-53.4808655-7.4555054-78.8626099-8.7478638
		c2.882782,10.7359009,9.045929,20.4446106,17.4954834,27.6349487l-15.0103149,16.3358154l-0.4639587,0.4971313
		c26.9060669-0.4971313,55.1044617,0.5300598,55.1044617,0.5300598l-10.6365662,19.9476929l0.2651367-0.2651367
		l27.7012634-30.5509033L511.651825,287.0842896z M355.2518921,278.5352478
		c-20.212616,15.2754517-28.7616272,35.9851685-28.7616272,35.9851685l-13.7182007,3.1147461l15.2756653-36.4491272
		c-22.0020752,2.0875854-44.0041199,5.1359863-65.774231,9.244751l-0.2319641-0.2319641
		c-19.1854248,15.010498-36.7803955,39.5970459-36.7803955,75.8473816c0,16.1369934,4.7383575,29.821991,5.7655487,32.6386414
		c0.0663452,0.0661316,0.0995026,0.1324768,0.1656342,0.1987915c-4.8708191-20.9416809,6.7597961-41.6182556,6.7597961-41.6182556
		s26.8138428-16.8822632,69.260498-24.4041138l0.3903198-0.4807129c3.6118774-3.8768311,8.5490417-6.7266235,13.7181702-7.7538147
		c30.81604-8.0187683,62.4274902-25.3817749,78.9953003-47.3838196h-0.2651672
		C385.040741,277.2429199,370.2624207,277.5080566,355.2518921,278.5352478z M168.3010864,314.0233154
		c3.6116638,2.319519,6.9915619,5.1691284,10.3382721,8.0189514c0.7952271-4.1419678,1.5572815-8.0189514,2.5844727-12.1938782
		c0-0.0331726,0.0331726-0.0663147,0.0331726-0.0994873c-4.7715302,1.4911194-9.5430603,2.9159241-13.0554199,4.2082825
		C168.2347565,313.9903564,168.2679138,313.9903564,168.3010864,314.0233154z M227.3155212,297.4225464
		c0-0.0331421,0.0331726-0.0331421,0.0331726-0.0663147c-8.3833923,2.0212097-17.0648956,4.2082825-25.4480896,6.4946289
		c-5.7657623,8.6815186-9.8082123,18.0918884-12.3928833,28.0325623
		c12.1940765,12.690979,21.2400208,27.668335,25.381958,43.7058105c1.4248047-1.5904236,2.9822845-2.9490967,4.3739319-4.3075562
		c-1.8224182-7.1903687-3.0815887-15.6730652-3.0815887-25.1499939
		C216.1820221,328.0066223,221.3843231,311.1737061,227.3155212,297.4225464z"/>
	<path class="st2" d="M652.2791748,323.3343811l-34.1959229-16.5677795L606.4194336,297.6875l-16.8327026-20.7097473
		l-5.4342651-24.0894012l-24.3215942-13.9833221l-15.5405884-15.5405884l-91.1557922-39.8619843l-126.6442261,25.3817596
		c-34.1627808-2.8496094-64.7136841,1.5574799-64.7136841,1.5574799l10.603241,9.0459442L69.3583298,260.14505
		L49.443821,286.2888489c0,0,143.9740906,18.6553345,143.9740906,109.0161133
		c0,33.4006958-22.5323486,65.0119629-22.5323486,65.0119629l78.6969757,14.2482605
		c0,0,19.6825409,17.8601074,50.2667999,17.8601074c35.7200317,0,38.0395508-15.010498,38.0395508-20.974884
		c15.8057556-5.1691284,37.0455627-22.2669983,37.0455627-31.8432312c0-3.9099731-3.8768311-6.2294922-6.7264404-6.2294922
		c-2.3526917,0-5.6994019,1.8224182-8.2838745,3.1147461c1.5241089-3.3798828-0.5302734-9.3110657-6.4946594-9.3110657
		c-4.6390381,0-12.9559021,6.726593-28.4635315,8.2838745c0,0,11.895752-31.8764038,55.9328613-46.3566284
		c44.2692566-14.7785339,106.6633911-26.1440125,106.6633911-26.1440125
		c-26.011322,101.9250488-143.5762634,154.2128906-147.2213135,155.8366699l44.4349365-10.0733337
		c-20.7097473,10.9017029-58.7826843,27.7015076-58.7826843,27.7015076
		c112.3628235-9.5762329,194.2077332-48.1460876,251.4327087-122.20401l3.8770142,2.0543823h21.2398071
		c25.381958-14.215271,42.2146606-13.1880798,42.2146606-13.1880798
		c12.1608887-24.6197205,24.8516846-37.3104858,24.8516846-37.3104858L652.2791748,323.3343811z M284.010437,215.2132263
		c0.5302734-0.0331726,1.0603638-0.0663452,1.6235962-0.0995026c0.530304-0.0331726,1.0935364-0.0663452,1.6899414-0.0993042
		c1.0603638-0.0331726,2.1870728-0.0995026,3.3799133-0.1326752c6.2626648-0.2651367,14.5133972-0.3976135,23.8905945-0.06633
		l-8.8139648,20.9748688l0.6295776-0.861557l14.1489563-19.5830383h0.2649536
		c3.6450195,0.2319794,7.289856,0.5632477,10.8022156,0.9276886c1.1598816,0.1326752,2.286377,0.2319794,3.4130554,0.3646545
		l-11.895752,27.9664307l0.6627502-0.9279022l18.4897156-26.0113373c0.0661316,0,0.1656189,0.0331726,0.2319641,0.0331726
		c0.231781,0.032959,0.4307861,0.0661316,0.6625366,0.0993042h0.0995178
		c3.4460144,0.4639435,6.8591003,1.0935211,10.3051147,1.9550781h0.0331726
		c0.3644409,0.0661316,0.7288818,0.1656342,1.0935364,0.2649384l-14.2482605,33.1355743l0.6625366-0.9276886l21.6376343-30.4184265
		c0.0663452,0.0331573,0.1324768,0.0331573,0.1987915,0.0661316c11.2991638,3.1147461,22.3665161,7.4886627,32.4064941,13.4200592
		l-26.6741028,4.1419525l-19.6825256,20.4445953l-23.8244934,1.557251c-0.6295776,0-1.2591553,0-1.8555603-0.0661316
		c-1.3916626-0.0663147-2.7501221-0.2319641-4.0756226-0.4639282
		c-19.3180847-3.2472229-30.0539856-21.4717865-30.0539856-21.4717865l-5.6992188-19.4176025l-5.1691284-4.4068756
		C278.4436646,215.6108398,280.4649048,215.4120331,284.010437,215.2132263z M181.2238312,309.8483887
		c-1.0271912,4.1749268-1.7892456,8.0519104-2.5844727,12.1938782c-3.3467102-2.849823-6.7266083-5.6994324-10.3382721-8.0189514
		c-0.0331726-0.032959-0.06633-0.032959-0.0995026-0.0661316c-1.3584747-0.9279175-2.7501068-1.8224182-4.1087799-2.7503052
		c-1.6899414-1.1928406-3.4460297-2.3527222-5.2354736-3.5123901c-1.0601654-0.6627502-2.1536865-1.3255005-3.2472229-1.9880371
		c0.06633-0.1658325,0.1656342-0.3646545,0.2983093-0.5966187c1.3253021-2.8164368,4.5395508-8.8803101,10.2056122-15.8386841
		c1.2261963-1.5904541,2.651001-3.2472229,4.2414398-4.9040222c0.4971161-0.563446,0.9940338-1.0935059,1.5904541-1.6567688
		c0.5302734-0.563446,1.0935211-1.126709,1.6899414-1.6899414c1.723114-1.723114,3.5786896-3.3798828,5.5999146-4.9703369
		c0.6627502-0.596405,1.3586731-1.126709,2.0543976-1.6236267c0.6959076-0.563446,1.3916321-1.0935059,2.1207123-1.6238098
		c1.4579773-1.0601501,2.9822845-2.0873413,4.605896-3.1145325c1.5904388-0.9942322,3.2472229-1.9551086,5.0035095-2.9159546
		c3.479187-1.8555908,7.223526-3.5787048,11.265976-5.0698242c0,0-0.0663452,0.0663147-0.1656494,0.2319641
		c-0.1656342,0.2319641-0.4639435,0.596405-0.861557,1.126709c-0.2319641,0.2980957-0.4971161,0.6625366-0.7620544,1.0601501
		c-0.1326599,0.1987915-0.2983093,0.3976135-0.4307709,0.6295776c-0.4639435,0.6627502-0.9940338,1.4248047-1.5574799,2.286377
		c-5.1691437,7.5881653-14.0826111,22.8304443-19.2517548,42.711792
		C181.2570038,309.782074,181.2238312,309.8152161,181.2238312,309.8483887z M368.4397888,440.1043091
		c-14.7451477,21.7700806-36.7472229,26.4089355-36.7472229,26.4089355
		c-0.7952271-4.638855-9.3442688-8.2838745-12.1938782-20.9748535
		C319.4986877,445.5383911,339.9764404,454.6177063,368.4397888,440.1043091z M578.1549072,394.078949
		c-2.7834473,34.5272217-92.1168213,113.8205872-210.2783508,131.1174622h-0.0331726
		c-0.2319946,0.0332031-0.4637451,0.0661621-0.6957397,0.0993042
		c141.1242981-71.9703674,140.6273804-157.1619568,180.7545166-157.1619568c9.609375,0,29.3248901,11.3323059,30.2527466,23.4268494
		c0.0663452,0.2983093,0.0663452,0.5964355,0.0663452,0.8947449
		C578.2212524,392.9854126,578.1881104,393.5157166,578.1549072,394.078949z M642.9349365,394.277771c0,0-0.4971313,0-1.557312,0
		c-0.0994873,0-0.2319336,0-0.364624,0.0331421c-5.3347778,0.3312988-22.333313,2.8164673-41.3199463,13.4198914
		l-4.1419678,0.2651367c0,0,2.8496094-57.7223206-84.4293518-57.7223206c-30.8162231,0-91.9182434,15.2756653-132.0453491,28.463562
		c-15.2422791,5.0696106-30.0539856,13.1217346-41.783905,22.7640991c-1.4579773,1.159668-2.8496094,2.3526917-4.1751099,3.5787048
		c-0.7620544,0.6957092-1.5243225,1.3916321-2.2532043,2.1207275c-0.7290955,0.6957092-1.4579773,1.4248047-2.1539001,2.1536865
		c-9.8079834,10.1726379-15.9382019,21.4717712-15.9382019,32.5723267c0,15.5405884,13.2210693,23.0622253,13.2210693,28.4964905
		c0,1.7894592-0.8945313,3.2142639-2.4519958,4.3075867c-0.0331726,0.0331726-0.0661316,0.0663452-0.0993042,0.0995178
		c-4.7053833,3.3135376-15.0436707,3.8768005-23.3605347,3.8768005c-35.4551086,0-52.0228729-24.0894165-52.0228729-24.0894165
		l-43.7721558-8.8141785c0,0,12.9561157-19.6825256,12.9561157-50.995697c0-6.4944458-0.7954254-12.9559021-2.3527069-19.1854248
		v-0.0331726c-4.1419373-16.0374756-13.1878815-31.0148315-25.381958-43.7058105
		c2.584671-9.9406738,6.627121-19.3510437,12.3928833-28.0325623c0.0992889-0.1658325,0.1988068-0.2983093,0.2980957-0.4639282
		c1.4248047-2.1207275,2.9159546-4.1419678,4.4070892-6.0638733c0.0663452-0.1324768,0.1656342-0.2319641,0.265152-0.3644409
		c0.6295776-0.7620544,1.2259979-1.4911499,1.8555756-2.2200317c0.4637451-0.5302734,0.9276886-1.0935364,1.4248047-1.6238098
		c1.159668-1.2921448,2.3195343-2.5181274,3.5123596-3.7111816c0.5632477-0.596405,1.159668-1.1928101,1.7560883-1.756073
		c1.2259979-1.1928406,2.4521942-2.319519,3.6781921-3.3798828c1.093338-0.9608765,2.1868591-1.8887634,3.2803955-2.7503052
		c3.9763031-3.2140503,7.7867737-5.7987366,11.0010376-7.7867737c0.7288818-0.4307861,1.457962-0.8615723,2.1205139-1.2591858
		c0.3314819-0.1656189,0.6295929-0.3644409,0.9279022-0.4971008c0.6295776-0.3976135,1.2591553-0.7288818,1.822403-1.0271912
		c3.0154572-1.6236267,4.904007-2.4188538,5.1028137-2.4851685c0,0.0331421-0.0329742,0.0663147-0.0661316,0.0994873
		c-0.0663452,0.0993042-0.1326752,0.2319641-0.265152,0.3976135c-1.756073,2.4851685-9.1122742,13.2542419-15.6730499,28.3972168
		c0,0.0331726-0.0331726,0.0331726-0.0331726,0.0663147c-5.9311981,13.7511597-11.1334991,30.5840759-11.1334991,48.709137
		c0,9.4769287,1.2591705,17.9596252,3.0815887,25.1499939c0,0.0663147,0.0331573,0.1324463,0.0331573,0.1987915
		c4.2744141,16.7666016,11.4316101,27.0385437,11.8955536,27.7012939c0-0.0993042-0.0661316-0.2319946-0.1656342-0.4969177
		c-1.0271912-2.8166504-5.7655487-16.5016479-5.7655487-32.6386414c0-36.2503357,17.5949707-60.8368835,36.7803955-75.8473816
		c13.4530334-10.3712463,27.4363403-16.3358154,36.2503052-18.125061l0.2319946-3.5455322v-0.0993042
		c-15.9382019-9.609375-21.7369385-21.4388123-23.1949158-24.8848267c-0.2651367-0.6295929-0.3644409-0.9940338-0.3644409-0.9940338
		l-112.8928986,25.348587c0,0-3.0484161,3.1479187-6.7927551,8.3833923
		c-0.2651367,0.3644409-0.4971008,0.7288818-0.7622528,1.0933228c-0.2649384,0.3976135-0.5632477,0.8283997-0.8283844,1.2260132
		c-0.298111,0.4639587-0.6295776,0.9610596-0.9608612,1.4911499c-0.298111,0.4971008-0.6295776,1.0271912-0.9608612,1.5574646
		c-0.4971161,0.8615723-1.0271912,1.7229004-1.5243073,2.6176453c-1.0271912,1.7892456-2.021225,3.7111511-2.9491119,5.6994019
		c-1.3916321,2.9820862-2.6508026,6.1963501-3.6116638,9.5430603c-13.9169769-7.289856-28.6291809-12.7572937-43.1757431-16.2033386
		c-8.7146683-2.0875549-17.362999-3.446228-25.7132339-4.0094604l205.3743744-46.0914917l0.1656494,0.5632477l2.4188232,8.5158691
		c0,0,1.0603638,1.9548798,3.2474365,4.7715302c0.231781,0.3644409,0.5300903,0.7620544,0.8613586,1.159668l0.0994873,0.0995026
		c0.3644409,0.4637451,0.7620544,0.9276886,1.159668,1.4248047c0.2651367,0.3644409,0.5964355,0.7288818,0.927887,1.0935211
		c7.6543274,8.4495239,22.3665161,19.6162109,44.9649963,16.3026428l-0.2651367,0.6295776l-5.4342651,12.8234558
		l-0.2649536,0.596405l-15.2756653,36.4491272l13.7182007-3.1147461c0,0,8.5490112-20.7097168,28.7616272-35.9851685
		c11.1335144-8.283905,25.6469116-15.0105286,44.0041504-15.8057251c1.6567688-3.2140503,2.7500916-6.4283142,3.4460144-9.443573
		c0.2319641-1.0271912,0.3976135-2.0214233,0.5632629-2.9822693c0.0663147-0.5300903,0.1326599-1.0935364,0.1987915-1.6236115
		c0.0331726-0.5300903,0.0663452-1.0271912,0.0995178-1.4911499c0.0331421-0.6627502,0.0663147-1.3253021,0.0663147-1.9880524
		c0.231781-8.5821991-2.2863464-14.5797272-2.2863464-14.5797272s-16.6341248-10.5702515-37.2113953-15.573761
		c-0.2649231-0.0993042-0.5632324-0.1656342-0.8615417-0.2319641l88.306366-19.6493683l89.5985107,36.2503204l16.0708618,15.010498
		l23.2941895,11.3986359l3.6118774,19.1522522l0.1656494,0.2319946c-0.0663452,0.1326599-0.1325073,0.2651367-0.1988525,0.3976135
		c-0.1987915,0.4639282-0.4307251,0.8615417-0.6627197,1.2591553c-1.1928101,2.0875549-2.5844727,3.6118774-4.1087646,4.7715454
		c-0.1325073,0.0994873-0.2980957,0.1987915-0.4307861,0.3314514c-5.4342651,3.7441406-12.1938477,2.518158-15.7393799,1.0272217
		c-0.2651367-8.0189819,1.0603638-22.5323486-28.4633789-31.5783081l-34.9581604-10.8683624
		c0,0,0.2319641,0.1988068,0.6627502,0.5964203c4.2082825,3.744339,26.5084229,23.9901123,26.5084229,29.1592712
		c0,9.5762024,7.7869873,17.3629761,17.3630371,17.3629761c3.081604,0,5.9974976-0.8615417,8.6484985-2.2531738
		c0.0661621,0,0.0993042-0.0331726,0.1325073-0.0663452c0.1987915-0.0661316,0.3644409-0.1656494,0.5300903-0.2649231
		l0.5302734,6.9915466c4.2412109,0.3644409,8.7808228,0.3312683,13.0222168-0.4971313
		c0.5300903-0.1324463,1.0272217-0.2319641,1.524353-0.3644409c0.5300903-0.1324463,1.0271606-0.2651367,1.5241089-0.4307556
		c0.0331421-0.0331726,0.0663452-0.0331726,0.0994873-0.0331726c6.3951416-2.0543823,11.7299194-6.4614868,13.9169922-15.0103149
		c0.0661011-0.1658325,0.0993042-0.3314819,0.1324463-0.4971008l3.6779785,5.6994019l-5.6660156,9.5760193l9.8411865-4.1419373
		l2.5846558,2.849823l-7.2567139,10.8683472l10.6364136-5.4342651l0.4970703-0.2649536l0.5300903-0.2651367l3.3467407,3.6448364
		l-5.1359863,7.9857788l8.0187378-4.3739014l0.4971313-0.2651672l9.0459595,7.5218506c0,0-0.1987915,0.0993042-0.5632324,0.2319641
		c-3.7111816,1.4579773-25.6139526,8.8803101-49.4052734-9.0461426c0,0-0.1656494,0.0995178-0.4637451,0.2983093
		c-0.4307861,0.2981262-1.1930542,0.8283997-2.286377,1.3916321c-0.1987915,0.1326904-0.4307861,0.2319946-0.6627197,0.3644409
		c-0.6959229,0.3646545-1.524292,0.7954407-2.4520264,1.1930542c-0.4639282,0.2319641-0.9278564,0.4307556-1.4248047,0.596405
		c-3.5123291,1.3916321-8.085083,2.6508179-13.1549072,2.6508179c-20.4445801,0-29.8551636-15.2422791-32.3071899-19.9145203
		c-0.1324463-0.2980957-0.2651367-0.596405-0.3644409-0.7952271c-0.1656189-0.3312683-0.2319641-0.5300598-0.2319641-0.5300598
		l-4.4071045,25.3817444l-27.7012634,30.5509033c0.4639282-0.3644409,0.8947144-0.7620544,1.3255005-1.0933228
		c4.1748962-3.4792175,8.085083-6.6603088,12.0282288-9.5762329c2.1536865-1.5574951,4.2744141-3.0484314,6.4944458-4.4071045
		c2.2863464-1.4911194,4.6390381-2.8496094,7.0910339-4.1087646c11.6306152-5.6662598,25.1168213-9.0459595,44.7993774-9.0459595
		c0,0,18.125061,10.1063232,41.9495239,6.4614868l0.6959229-0.0995178c4.2080688-0.596405,8.6151733-1.6899414,13.1547241-3.3798828
		h0.0331421c3.8768311-1.3916321,7.7868042-3.2472229,11.7299194-5.5667419l31.8764038,15.010498
		c-0.0993042,0.1656494-0.1987915,0.3644409-0.2980957,0.5300903c-7.7869873,13.0885925-22.730957,6.8259277-27.9332275,4.1419373
		c-0.397644-0.2319641-0.7622681-0.3976135-1.0272217-0.5632324c-0.4971313-0.3312988-0.7952271-0.4971313-0.7952271-0.4971313
		l-17.5949707,6.2295227c45.5614014,2.319519,58.517334,29.5238953,58.517334,29.5238953
		C651.4839478,378.2400513,642.9349365,394.277771,642.9349365,394.277771z M548.6973877,280.0925293
		c1.5574341,0,2.8496094-0.5300903,3.6118164-1.0271912c0.2649536,1.2923279,0.5300903,2.319519,0.762085,3.6118469
		c-0.2319946-0.2651367-2.8164673,1.5572815-6.4614868,1.5572815c-6.4614868,0-12.9559326-5.434082-12.9559326-12.9559326
		c0-7.5218201,6.2294922-10.8685608,6.2294922-10.8685608s3.3465576,2.0544128,6.9915771,6.9917603
		c-2.8496094,0.7620544-4.6722412,3.3465271-4.6722412,6.1963501
		C542.2026978,276.9777527,544.5554199,280.0925293,548.6973877,280.0925293z M450.2846985,305.9713745l-15.0103149,16.3358154
		l-0.4639587,0.4971313l-17.1641846,18.9204712h-0.0331726c-6.7264099-2.0875549-13.6849976-3.1147461-20.6765747-3.3798828
		c-0.5302734-9.8411865,3.3799133-20.974884,11.9287415-31.5783081c-1.4248047,1.0603638-2.7832947,2.1870728-4.04245,3.3135681
		c-0.6627502,0.5966187-1.2591553,1.1598511-1.8887634,1.7562866c-7.8199463,7.6874695-12.492157,16.8990479-13.7513428,26.7735901
		c-0.1656189,0.0331726-0.2980957,0.0331726-0.4637451,0.0661316c-4.7715149,0.4971008-9.5100708,1.2591553-14.0496521,2.5183411
		c-2.5844421-9.5762329-2.0543823-19.6825562,1.5574951-28.9936218c-0.2319641,0.3314819-0.4639587,0.6627502-0.6959229,1.0271912
		c-5.9643555,8.8473511-8.5820007,19.5500488-7.3228455,30.0539856c-0.1987915,0.0663452-0.397583,0.1326599-0.563446,0.2319641
		c-2.9489136,1.159668-5.7655334,2.5183411-8.5820007,4.0756226c-1.4579468,0.7622375-2.882782,1.5574646-4.3407288,2.4190369
		c-4.6390686-7.5218506-6.9917603-16.0708923-6.9917603-24.8516846c-0.1656494,0.596405-0.3312988,1.1928406-0.4305725,1.7892456
		c-2.0545959,8.8139648-1.126709,18.1914063,2.2531738,26.4091492c-0.1987915,0.1324768-0.3976135,0.2981262-0.563446,0.4637451
		c-1.3252869,0.9940186-2.6176453,2.0875549-3.8768005,3.2142639c-0.6627502,0.5300598-1.2923279,1.0933228-1.921936,1.6899414
		c-6.0636597,5.6328735-11.2991333,12.127533-15.3747253,19.5166931c-0.0995178,0-0.165863-0.032959-0.2651367-0.032959
		c-26.2764893-4.7715454-46.8537598,5.3347778-60.1743164,20.0801392c-0.6957092,0.7288818-1.3584595,1.4909363-2.0212097,2.286377
		c-9.509903,11.4647522-14.8115082,25.2492676-15.2422943,36.9460144c-0.1326752-0.7620544-0.2319794-1.524292-0.3314819-2.319519
		c0,0,0-0.0331726,0-0.0661316c-1.4248047-12.5585022,0.9942322-30.2859497,12.4921722-45.594574
		c1.0271912-1.3255005,2.0875549-2.6508179,3.2472229-3.9431458c6.2958374-7.1242371,14.8117065-13.5193787,26.0778809-18.3901978
		c0.0661316-0.0331726,0.1324768-0.0663452,0.198822-0.0995178l12.6907654-29.7888184
		c0.7952271-1.8224182,1.8224182-3.3799133,3.1147461-4.9371643c3.6118774-3.8768311,8.5490417-6.7266235,13.7181702-7.7538147
		c30.81604-8.0187683,62.4274902-25.3817749,78.9953003-47.3838196
		c7.2566833-9.0791321,11.6304016-20.4777832,11.8955383-32.1083832
		c0.2651367-11.1334991-3.3467102-22.0020599-10.1062927-31.0811768l17.3630066-3.9431458l4.2082825-0.9276886l27.6349487-6.2626648
		l15.010498,7.5218353c0,0-35.7202454,13.7179718-35.7202454,52.5529633c0,5.1691284,0.7622681,10.1062927,2.0875549,15.0103149
		c0.0331726,0.0994873,0.0663452,0.2319641,0.0995178,0.3314514
		C435.6719971,289.0723267,441.835144,298.7810364,450.2846985,305.9713745z M540.9160156,249.5290833l34.1813965,16.3137512
		l-4.4022217,16.8317261C570.6951904,269.9860229,563.1856689,262.4765015,540.9160156,249.5290833z"/>
</g>
</svg>
