<?xml version="1.0" encoding="utf-8"?>
<!-- Generator: Adobe Illustrator 22.0.1, SVG Export Plug-In . SVG Version: 6.00 Build 0)  -->
<svg version="1.1" id="Layer_1" xmlns="http://www.w3.org/2000/svg" xmlns:xlink="http://www.w3.org/1999/xlink" x="0px" y="0px"
	 width="720px" height="720px" viewBox="0 0 720 720" style="enable-background:new 0 0 720 720;" xml:space="preserve">
<style type="text/css">
	.st0{fill:#0033A0;}
	.st1{fill:#C8102E;}
	.st2{fill:#FFFFFF;}
</style>
<g>
	<path class="st0" d="M520.4740601,48.7793579l-22.9162903,22.2857666l-25.1352539-23.4366379H247.5774994l-25.1397858,23.4366379
		l-22.9069672-22.2857666H36l48.8755798,86.7579956v423.3366089c-0.0005646,39.6096191,32.1085663,71.7198486,71.7181396,71.7207031
		h134.1326904c28.9562378,0.3406982,55.4610291,16.3248901,69.2737427,41.7768555
		c13.81073-25.4536133,40.3163452-41.4387207,69.2734375-41.7768555h134.1428528
		c39.6072998-0.0042114,71.7122192-32.1156006,71.7080078-71.7229614V135.5373535L684,48.7793579H520.4740601z"/>
	<polygon class="st1" points="313.1316528,257.6777039 599.2677612,462.5570374 599.2677612,257.6777039 	"/>
	<path class="st2" d="M522.1325684,52.8678589l-24.5137939,23.8414536L470.808075,51.7124672H249.1902466l-26.8061981,24.9968452
		l-24.5137787-23.8414536H42.9896927l45.9707108,81.5971527v424.4072876
		c-0.0016937,37.3518677,30.2766113,67.6329956,67.6287842,67.6347046h134.1386261
		c27.9762878,0.2756958,53.9663696,14.5067749,69.2689514,37.9284668
		c15.3053894-23.4213867,41.2963257-37.6516113,69.2737122-37.9284668h134.1372375
		c37.3348999-0.0429688,67.5894775-30.2998047,67.630188-67.6347046V134.4650116l45.9707031-81.5971527H522.1325684z
		 M615.3754272,125.6402512l-2.3110352,4.110817v4.7139435v424.4072876
		c-0.0299683,27.4118652-22.2414551,49.6275635-49.6535645,49.6625977H429.2735901
		c-25.6830139,0-51.7434387,8.9216309-69.2734375,32.1785889c-17.5396423-23.9428711-43.5907288-32.1785889-69.2782593-32.1785889
		H156.5801544c-27.4217529-0.0062256-49.6462173-22.2408447-49.6399994-49.6625977V129.7510681l-2.3201065-4.110817
		L73.7536011,70.8399811h116.8139801l19.2797699,18.7546234l12.2728424,11.9324417l12.5214539-11.6700134l21.6272736-20.167923
		h207.4573669l21.6320801,20.167923l12.5214233,11.6700134l12.2731323-11.9324417l19.2795105-18.7546234h116.8139648
		L615.3754272,125.6402512z M599.2474365,240.3841248H120.7121887v-11.5318756h478.5352478V240.3841248z M280.2165833,257.6777039
		l319.051178,228.4493103v11.8770752L263.6207581,257.6777039H280.2165833z M120.8336563,301.9497986l403.7972717,292.4333801
		H508.159668L120.8336563,313.8774414V301.9497986z M487.3985291,171.9765167h8.4382935l14.9107666,42.4582062h13.8335876
		l-15.1963501-43.0336456c7.6052246-1.680542,13.024292-8.4157104,13.0372925-16.2042847v-10.1600952
		c-0.546936-9.2801361-8.0092163-16.6511841-17.2955627-17.0836868h-31.5661926v86.4817123h13.8381653V171.9765167z
		 M487.3985291,141.791153h14.8695068c0,0,6.3159485-0.1288147,6.3159485,5.6210175v5.7958832
		c-0.011322,3.1249237-2.5540161,5.6489868-5.6789246,5.6376801c-0.1387024-0.0005646-0.2774048-0.0062103-0.4161377-0.0169525
		h-15.0903931V141.791153z M489.6737061,548.171814l10.8826904-40.6488647
		c7.1298218,3.1268921,15.4752197,0.8867188,20.0803833-5.3908081l8.2357178-11.2739563
		c5.0303345-7.8182373,3.3500977-18.1721191-3.8944092-23.99823h-0.0002441l-14.3167114-10.459259l-3.489624-2.5503235
		l-7.6786804-5.6162109l-51.0160217,69.8352966l11.1680298,8.1665649l22.8058472-31.2209778l6.8179321,4.9857178
		l-10.7677307,40.0090027L489.6737061,548.171814z M502.5036316,467.5735168l12.0107117,8.7790222
		c2.7554321,1.7172546,3.597229,5.3433228,1.8799438,8.0990295l-0.1030884,0.1596069l-5.6577454,7.7569275
		c-1.8573914,2.5167236-5.4035034,3.0512085-7.9202271,1.1938171c-0.1095886-0.0810852-0.2163696-0.1658325-0.3200684-0.2548218
		l-12.1810303-8.9075012L502.5036316,467.5735168z M434.4296265,214.4392548h5.1837158
		c0,0,19.026123-2.6009064,19.2424927-19.030899v-47.7798004c0.3209229-10.4120789-7.7563782-19.1628265-18.1608276-19.6755447
		h-6.2653809c-18.3817139,0-19.2472839,18.5984116-19.2472839,18.5984116v47.3470154
		C415.1823425,212.9248047,434.4296265,214.4392548,434.4296265,214.4392548z M429.0204773,193.0328827v-43.6734924
		c0.0432129-4.0783386,3.2763367-7.4069366,7.3518372-7.5682373h1.9472351
		c3.8266296,0.624588,6.6515503,3.9076996,6.6981506,7.7846222v43.4571075
		c-0.0590515,3.9102478-3.0297241,7.1597443-6.9190674,7.5682373h-1.7263184
		c-4.1161804-0.0559387-7.4077759-3.4382172-7.3521118-7.5543976L429.0204773,193.0328827z M201.5700531,214.4369965h-6.0489807
		v-86.48172h6.0489807h7.7846222h20.7572174v13.8381348h-20.7572174v22.055542h20.7572174v13.8336182h-20.7572174v22.9208069
		h20.7572174v13.8336182h-20.7572174H201.5700531z M466.3458252,424.0946655l16.655426,12.3926392l-8.2586365,11.0990906
		l-16.6509094-12.3926086l-13.1661072,17.6913147l16.6509094,12.3926086l-8.2631531,11.0991211l-16.6463928-12.3881226
		l-13.6816406,18.3910522l16.6509094,12.3881226l-8.2634277,11.1036072l-16.6509094-12.3971558l-6.2467346-4.644989
		l-4.8520813-3.6136475l51.6281738-69.3796692l4.8520813,3.6091003L466.3458252,424.0946655z M139.7357483,214.4369965h-13.8381424
		v-86.48172h13.8381424l23.3535767,54.3030853v-54.3030853h13.8381348v86.48172H163.089325l-23.3535767-54.298584V214.4369965z
		 M374.5332031,178.5478363l-18.5888062-50.5925598h13.8336182l11.6835938,31.7687225l11.6700134-31.7687225h13.8381348
		l-18.5935974,50.5925598v35.8891602h-13.8429565V178.5478363z M553.9829102,214.4369965H540.149292v-86.48172h13.8336182
		v29.1127472l18.1653442-29.1127472h13.8336182l-17.0375977,27.3954773l26.1203003,59.0862427h-13.8381348l-20.4348755-45.9755249
		l-6.8086548,10.9519196V214.4369965z M257.788147,214.4369965l-14.2709045-86.48172h13.8381348l8.7284241,52.9219818
		l8.9999084-52.9219818h13.8381348l8.9951172,52.9219818l8.7329407-52.9219818h13.8381348l-14.2709045,86.48172h-2.596405
		h-11.2417603h-2.5918579l-7.7843323-45.7820129l-7.7846069,45.7820129h-2.5918884h-11.2462463H257.788147z
		 M354.8164063,344.1410522l-12.6090088,57.7509155l31.5986633-44.1661682l11.2556152,8.0560913l-50.321106,70.3325195
		l-11.2510681-8.0467834l12.6044922-57.7602234l-31.5986633,44.1706848l-11.2553101-8.0515747l50.3208008-70.3370361
		L354.8164063,344.1410522z M427.660553,420.8539429l-6.7947693,9.4645996l-11.2047424-8.1250305l5.6207275-7.8258667
		c2.2226563-3.1774597,1.8401794-7.4925232-0.9067993-10.2290344l-3.5263367-2.6472168
		c-3.4011841-2.2492065-7.9693604-1.4328003-10.3809814,1.8554077l-25.4711609,35.4747314l-0.0028076,0.0039368
		c-2.4517517,3.3125-1.7537231,7.985199,1.5587769,10.436676l3.3514709,2.5181274
		c3.3981018,1.9347839,7.7060852,1.02771,10.0355225-2.1130371l7.6326294-10.629303l-11.2462463-7.9781494l6.2927551-8.7925415
		l11.2556152,7.9916687l11.2694397,8.0238953l-6.2975769,8.7789917l-9.0549927,12.6090393
		c-0.6138611,0.8358765-1.29776,1.618103-2.0441284,2.3384705l-9.3727722,12.5262451l-6.0535278-4.3226929l0.2762756-3.4941406
		c-3.3125-0.4034119-6.5345764-1.3554077-9.5340881-2.8172913l-6.1549377-4.5345764c0,0-14.7542419-12.4525146-3.6551514-27.9064941
		l27.6118774-38.4668884c0,0,11.5457153-14.5977478,26.474823-3.885376l0.5248718,0.3774109l6.5094604,4.7969666
		C432.5262146,400.7645264,433.9878235,412.5805969,427.660553,420.8539429z M234.1142273,363.1925659l11.1587067,8.1852112
		l14.9522858-11.3753662l18.6995239,13.8612976l-6.1826172,17.6037292l11.15448,8.1849365l31.1611023-84.4743347
		l-10.8273621-8.3278503L234.1142273,363.1925659z M283.2980042,362.1061096l-13.6217346-9.7270203l26.8109741-22.7047119
		L283.2980042,362.1061096z M580.1018066,522.3175659c-2.0175171,3.5845337-4.2850952,7.0227661-6.7854004,10.2889404
		l-10.8966064-8.1253052c0,0,10.9378052-10.3394775,2.2512207-17.9489746
		c-3.2012329-3.0449524-7.791687-4.1348267-12.0197754-2.8542786c-7.269043,4.1523438-7.3106079,11.6285095-4.8935547,19.9379578
		c4.8060303,12.8804932,11.5914307,30.8249512,1.1276855,43.2822876
		c-5.8831787,5.8738403-15.8269043,9.7224731-22.7459717,6.2698975c-9.2024536-3.2729492-16.8308411-9.8985596-21.360321-18.552124
		c-4.8014832-12.7149048,9.5985413-27.114624,9.5985413-27.114624l9.3450928,6.5735474
		c0,0-10.0770264,12.0657959-6.1043701,17.3416138c1.4316406,4.0647583,12.0657959,11.6744995,18.989624,8.2125854
		c16.1676025-12.236145-16.347229-39.392334-0.437561-59.7950134c3.7786255-4.7571411,9.0001831-8.1580811,14.8788452-9.6903076
		c8.6499023-2.0718079,14.8737793,1.5559692,21.4476318,5.5331726
		C582.053833,503.677948,585.3406372,511.9781189,580.1018066,522.3175659z M475.4928894,594.3868408h-35.5699158
		c0.1946411,0.013855,0.4262695,0.0237427,0.5816345,0.039856l-0.967804-0.039856h-9.5818481
		c-11.3843994-0.0045166-43.6274414-1.8273926-69.9548035,26.8110352
		c-24.4171753-29.3427124-68.5601807-27.036438-79.7284851-26.81073H164.1481018
		c-48.4289551,0-43.3099213-45.2435913-43.3099213-45.2435913V337.5338745L475.4928894,594.3868408z M262.6775208,277.64505
		l-14.3169556-10.4592285l-3.4893341-2.5458374l-7.6786957-5.6162109l-51.020813,69.8353271l11.172821,8.1620483
		l22.8058472-31.2164612l6.8176422,4.980896l-10.7674408,40.0092773l11.1725311,8.1620483l10.8781891-40.6443481
		c7.1300964,3.1274719,15.4754639,0.8870239,20.080658-5.3907776l8.2402649-11.2787781
		C271.6019897,293.8247681,269.9220276,283.4711609,262.6775208,277.64505z M254.094574,295.23526l-0.1036682,0.1610107
		l-5.6577454,7.756958c-1.8571014,2.5164185-5.4026489,3.0514526-7.9193726,1.1943665
		c-0.1098785-0.0810852-0.2169495-0.1663818-0.3209076-0.2553711l-12.1855621-8.9032898l12.2960205-16.8257751l12.0058899,8.7742004
		C254.9660645,288.8529358,255.8101501,292.4784241,254.094574,295.23526z"/>
</g>
</svg>
