<?xml version="1.0" encoding="utf-8"?>
<!-- Generator: Adobe Illustrator 22.0.1, SVG Export Plug-In . SVG Version: 6.00 Build 0)  -->
<svg version="1.1" id="Layer_1" xmlns="http://www.w3.org/2000/svg" xmlns:xlink="http://www.w3.org/1999/xlink" x="0px" y="0px"
	 width="720px" height="720px" viewBox="0 0 720 720" style="enable-background:new 0 0 720 720;" xml:space="preserve">
<style type="text/css">
	.st0{fill:#FFFFFF;}
	.st1{fill:#FCB514;}
</style>
<g>
	<path class="st0" d="M639.5630493,143.4989014h-41.692627c-1.8894043-5.1936035-4.8761597-9.9189148-8.7567139-13.8539581
		c-12.1549072-12.1548996-28.4921265-14.1153946-38.0331421-4.5744553c-1.96875,2.0078812-3.4840088,4.4145584-4.4437256,7.0577316
		c-3.2265015-2.3194733-6.741333-4.2088013-10.4558716-5.6202774
		c-5.8814087-12.2855453-14.1154175-29.6684418-32.8052063-29.6684418
		c-6.0100708,0.059433-11.9211731,1.5372086-17.2521362,4.3130341
		c-13.8539124-10.8476868-43.5223083-31.2365646-73.8442383-31.2365646c-33.328125,0-79.5950012,30.5833664-93.0569458,30.5833664
		c-9.9330444,0-32.0211487-48.881073-66.3945618-48.881073c-18.4283752,0-37.1181946,12.54702-59.4675293,26.0089035
		c-21.1730957,12.8083878-26.7930756,28.1000214-32.9358978,44.4372787
		c-4.9832611,7.9132919-11.0054932,15.1223984-17.9055786,21.4344559H36l181.539444,315.7662048H93.2457199l-39.6015091,71.2303772
		h182.3236694c6.8206482-0.2414551,13.4900055-2.0766602,19.473999-5.3586426l82.339859,143.244873l80.1176758-139.4545898
		h66.7865906v-39.0787048h-4.574646c0-13.5925903-10.3251038-28.3614502-15.4223022-34.8963318l-0.9148865-5.6200256
		l15.2917175-26.6624146l89.2666931-32.9358826c12.1296387-5.1506042,21.1329346-15.7029114,24.3098145-28.4921265
		c7.4299927-0.7943115,14.2206421-4.566925,18.8202515-10.4558716c6.6850586,1.9038086,13.5738525,3.0007629,20.5195923,3.2674561
		c13.4619141,0,27.7080078-7.5804749,31.3674927-22.0879517c0,0,14.2460938-8.7567749,20.6502686-35.8112488L572.9067993,259.427887
		L639.5630493,143.4989014z"/>
	<path d="M553.0410767,280.2088928l13.9847412,4.7051086l-0.1307373,8.8875122
		c-7.4497681-0.2613831-13.4619141-1.6990967-13.4619141,20.1275024c0,16.206543,3.1367798,21.4344482,3.1367798,26.0089111
		c0,7.7111511-0.6535034,9.5409241-25.0940552,9.5409241c-4.9088135-4.4978027-10.7574463-7.846344-17.1213989-9.8025513
		c0,0-0.2613525-1.1763-0.7842407-3.3979797l103.2514038-179.5789642h-31.3674927
		c2.3525391-4.4436951,0.1306763-11.8935242-5.6200562-17.644165c-6.6655884-6.6656647-15.291626-8.7568207-19.3432617-4.7051086
		c-1.8969727,2.0838776-2.5882568,4.9971771-1.829834,7.7111511l-12.8084106,13.4619446
		c0.2614136-1.9604492,0.914917-12.6777344-19.2125854-18.4283752c-6.012146-12.0243301-11.109314-27.0544357-23.2641907-27.0544357
		c-6.7700195,0.4978485-13.2142639,3.102951-18.4283752,7.4497223c0,0-36.8567505-34.3735504-72.6680603-34.3735504
		c-31.2368469,0-74.1057434,30.5833588-93.0568848,30.5833588c-20.1275024,0-38.0330811-48.881073-66.263855-48.881073
		c-15.2916718,0-33.3280182,12.2856522-52.6712646,24.1791153c-19.3432922,11.6320953-23.0028229,26.1395721-27.7079926,37.9023743
		c-3.136734,7.8419037-13.0697937,18.2977142-24.5711975,29.6684418H58.7414551l181.4086914,315.3740234
		c-1.3401947,0.2467651-2.6926727,0.4212646-4.0516052,0.5228271H100.9569168l-24.9633331,44.8293152h160.105011
		c7.7463989-0.4145508,15.0812378-3.6177979,20.6502533-9.018219l2.6141968-2.7446594l78.4184875,136.4489136
		l72.5373535-126.1234741h61.1666565v-12.8085938h-14.6381531l-2.6142273-8.1032715h2.2218323l10.5865173-4.9665527
		c0-12.1548767-14.7688599-29.4070129-14.7688599-29.4070129l-2.3525696-13.7233276l20.1275024-34.8963318l93.7104797-34.6349792
		c16.5985718-6.012146,18.4283447-30.3219299,18.4283447-30.3219299s15.291687,7.1884155,23.656311-11.3707275
		c8.4898071,2.7415161,17.2559204,4.5385742,26.1395874,5.3586121c7.9725342,0,19.2126465-4.3130188,19.2126465-16.206543
		c7.3779907-4.7872314,13.0512085-11.7872009,16.2064819-19.9967651l-110.309082-36.5953979L553.0410767,280.2088928z"/>
	<path class="st1" d="M278.3139343,409.0770569c-5.7507019-13.9846802-3.2674561-17.1214294-3.2674561-17.1214294
		s-18.559082-15.2916565-13.0697327-34.2428284c0,0-47.8354492-69.4006042-47.8354492-110.5702515
		c0-21.3037415,10.1944427-19.2125397,10.1944427-36.7260895c0-14.2460938-9.6716461-24.9632721-16.7293396-24.9632721
		c-8.1032715,0-33.1972656,16.5986328-69.7926941,38.2944641l13.8539734-31.8903198l-33.4587784,34.2428589
		c0,0-6.5349045-33.458786,11.501442-51.4949799c2.8753662-2.8753815,5.8814087-5.8814545,8.8874817-8.7567291H74.6865845
		l174.351059,303.2189331c3.0155487-1.3160706,5.7625732-3.1769714,8.1032562-5.4893188l27.577301-27.7080078
		C280.9543457,427.408783,278.7832642,418.3258667,278.3139343,409.0770569z M562.4512329,165.8482819l-2.4833374,2.8753204
		c5.9749146,6.6236572,8.2324219,15.8009491,6.012207,24.4405365c0,9.4101257-4.9665527,9.2795563-4.9665527,9.2795563
		c0,21.8263397-11.5014648,17.9056396-11.5014648,17.9056396c0,28.7535706-31.6288452,17.1214294-31.6288452,17.1214294
		c-4.4928589-0.5398254-8.8651428-1.8205872-12.9391479-3.7902527l-21.4344482,23.9177551
		c10.8519592,21.1552734,19.7755737,43.2453918,26.6625366,66.0023804l90.7043457-157.7523804L562.4512329,165.8482819z
		 M407.8356018,501.4805298l3.7902222-6.5349121h-6.1427612L407.8356018,501.4805298z M488.2148438,196.6929016
		l-3.2674561-7.3190613c-16.8600769,2.8753815-32.0210266-5.7506866-36.3340759-7.9725647
		c-4.3130188-2.2218781,0.3919067-11.6320953,0.3919067-11.6320953c-0.9824524-1.5520477-2.2723694-2.8864288-3.7902222-3.9209137
		h-17.6440125c-3.2181091,2.238266-4.0124512,6.6615295-1.7742004,9.8796539
		c0.1063232,0.152832,0.2185974,0.3014374,0.3365784,0.4454498c17.52005,18.348526,32.8691711,38.6532745,45.7442627,60.5131073
		l19.6047058-20.519577L488.2148438,196.6929016z M441.5556946,442.9278564l13.9846802-24.3096619l-15.5531006,7.5804749
		L441.5556946,442.9278564z M413.0635986,397.7063904c0-1.9604492-28.7535706-9.5409546-39.9936218-13.8539734
		c-10.3251343,4.0516357,3.0061035,6.012146,3.0061035,19.4739685c-0.3177185,5.9184265-1.5979004,11.7455139-3.7902222,17.2521362
		l-5.7506714,1.5683594c0,0-11.5014343,21.1730957-18.8202515,18.036499
		c-10.4558716,18.4283752-14.7688904,22.6107483-31.3675232,22.6107483
		c-5.0387573,0.0418701-9.9834595-1.3644714-14.2460632-4.0516357l-36.3345032,39.6013489l72.0145264,125.0779114
		l61.8201294-107.5641479h-44.4371338c0.3042297-7.5226746,2.803009-14.7919312,7.1883545-20.9117126
		c0-18.2977295,11.370697-22.0880127,19.7354431-22.8721008c17.6442261-1.5683899,24.9632568-0.1307373,24.9632568-8.7567749
		c0-6.1428528-0.5227966-13.4618835-0.5227966-13.4618835h6.5349121c0-23.7870178-6.6655884-29.6684265-6.6655884-41.8233337
		c-0.000061-4.7054443,6.6655884-6.6659241,6.6655884-10.3255005L413.0635986,397.7063904z M376.5999756,494.9458923h13.1999512
		l-2.6141968,8.1054688h-6.012146L376.5999756,494.9458923z"/>
	<path class="st0" d="M638.7789307,308.7009583l1.6990356,8.6261292l-12.2855835-4.0516357l4.8355713-6.5349426
		L638.7789307,308.7009583z M585.8460083,291.0568542l-4.4437866,6.6653442l31.6293945,10.5866089l-0.1310425-8.2339783
		L585.8460083,291.0568542z M422.3433228,494.9457703l-4.7052307,8.1029358h19.2120667l2.3529358-8.1032715L422.3433228,494.9457703
		z M631.0675049,325.8224792c-3.9208984,0.9150391-6.6656494,3.5287781-6.1427612,5.6199341
		c0.5228271,2.2218933,4.0512695,3.2676392,8.1032104,2.3526001c3.9209595-0.9150085,6.6657104-3.5287476,6.1428223-5.7506409
		C638.6485596,325.8224792,634.9884644,324.9074707,631.0675049,325.8224792z M369.8028564,487.1036377
		c1.4375916,1.8297119,5.0964355,1.1764526,8.3647156-1.3068848c3.1359558-2.4833069,4.5741577-5.8813477,3.2669983-7.7113953
		c-1.4375916-1.8297424-5.227478-1.1761475-8.3647156,1.3071594
		C369.8028564,481.8758545,368.3652954,485.4046021,369.8028564,487.1036377z M481.1569519,184.4073334v-0.0003052
		c-8.6350098-4.5484314-17.6421814-8.3526154-26.9234924-11.370575l-0.7843018,2.4833221
		C453.4491577,175.5197754,459.9837952,185.452774,481.1569519,184.4073334z M294.1287842,369.2142639h-0.0006104
		c0-1.9607849-2.8751831-1.8300781-2.8751831-16.5986633c0-11.7630615-13.2009583-7.3192749-13.2009583-1.0457458
		c0,6.1427917,10.7176208,13.8538818,10.7176208,18.4284058
		C288.7696533,369.9982605,294.1287842,372.0894165,294.1287842,369.2142639z M495.2726135,212.6380157
		c2.2664185-1.4038696,4.92276-2.0450592,7.5803833-1.8297272c-3.0061951-9.4101257-8.3646851-7.1885529-8.3646851-7.1885529
		C492.3968201,206.7566528,495.2726135,212.6380157,495.2726135,212.6380157z M488.0840759,180.8782654
		c1.1767883,0.5228729,4.4437866-3.0061951,2.2218933-4.5744934c-9.7494812-5.7786407-19.8799744-10.8874664-30.3221741-15.2914886
		c-3.6594849,3.6594696-1.5679932,5.8813629-1.5679932,5.8813629L488.0840759,180.8782654z M322.8817139,347.7796631
		L322.8817139,347.7796631c-0.51651,7.8224182-0.0776062,15.6788635,1.3071899,23.39505
		c0,0,5.4888916,2.2218933,7.3189392-0.5228882c-0.3918457-3.0061951-0.3918457-9.6715393-0.3918457-13.723175
		C331.1159973,346.864624,322.8817139,347.7796631,322.8817139,347.7796631z M269.9494324,356.2750549L269.9494324,356.2750549
		c-10.0643616,13.9846191,6.4042358,28.4921265,6.4042358,28.4921265c3.3897705,0.2903748,6.760437-0.7397766,9.40979-2.8754883
		C285.7634583,381.8916931,280.6664124,362.8100281,269.9494324,356.2750549z M337.9120789,355.4907532
		c-1.5336304,6.7381897-0.7028809,13.7985535,2.3529358,19.9967041c1.6983643-0.9147034,2.8751526-0.3918457,2.8751526-11.370575
		C343.1401672,353.1378174,337.9120789,355.4907532,337.9120789,355.4907532z M312.426178,344.250885h-0.0006409
		c-3.0055847,6.5349731-0.9147339,16.0758057-0.9147339,22.7414856c0,6.9267883,4.5748291,6.6653442,6.7960815,5.4891968
		C315.6937866,367.2538147,322.7513123,349.2172241,312.426178,344.250885z M356.3404846,358.2355042l93.3181763-98.1540833
		c-34.1114197-47.3126831-83.9077454-90.0508575-128.8677979-90.0508575c-39.9934082,0-67.0479431,29.5378571-67.0479431,60.7747345
		C253.7429199,287.0052185,304.191864,330.6581116,356.3404846,358.2355042z M551.2111206,170.1612854v-0.0003204l0,0V170.1612854z
		 M309.9428406,388.295929c0,0,2.2218933-8.2339783-4.1823425-8.2339783c-13.0692749,0-25.6169739,10.8480225-25.6169739,16.4679565
		c0.0356445,1.846283,0.43573,3.6674194,1.1767883,5.3587952
		C281.3203125,401.8887024,298.4415283,385.551178,309.9428406,388.295929z M493.1817627,171.2067108
		c1.6983948,0.9150238,4.4431458-4.4437866,2.7441406-5.6199341c-10.2386475-7.2012634-21.0834961-13.498642-32.4130249-18.8205566
		c-1.6793213,2.042511-2.3936462,4.7106323-1.9604492,7.3189545L493.1817627,171.2067108z M551.2111206,170.160965
		l12.0241699,21.173172c-0.6691895-8.4594727-3.9578247-16.4997559-9.40979-23.0029144
		C553.8255005,168.3312225,551.2111206,167.9390717,551.2111206,170.160965z M550.5578613,163.1034546
		c7.7202759-0.5702667,14.5004883-5.3419495,17.644043-12.4163208c0-2.0911713-2.0914917-3.529068-6.0123901-3.529068
		c-3.789856,0-14.1149902,10.9787292-14.1149902,14.1156464
		C548.0745239,161.9273071,548.5973511,163.1034546,550.5578613,163.1034546z M550.5578613,163.1034546L550.5578613,163.1034546
		L550.5578613,163.1034546L550.5578613,163.1034546z M514.223877,195.9086304
		c0.56427,2.0886383,2.5507813,3.4680176,4.7045898,3.2673187c7.8418579,0,23.7875366-16.8601074,23.7875366-30.7140045
		c0-2.7444458-4.1829834-2.8751678-4.1829834-2.8751678C524.0261841,174.9969025,514.223877,195.9086304,514.223877,195.9086304z
		 M501.2843933,158.659668c0-5.489212-23.6564941-23.6561737-27.3153381-23.6561737
		c-3.7904968,0-5.4895325,4.5741882-5.4895325,4.5741882l30.1911316,21.4346008
		C499.5859985,161.6658783,501.2843933,159.3132629,501.2843933,158.659668z M509.1262207,151.6021576v-0.0003204
		l-22.0878906-25.224472c-2.8751526-3.2676392-7.9728699,3.0058746-7.9728699,3.0058746l24.8332825,24.4408112
		C506.2510376,156.0459442,510.3029785,152.7783051,509.1262207,151.6021576z M515.2696533,128.8606873l-5.8813782-12.5473557
		c-0.5228577-1.1761398-4.5747986-1.0454254-4.5747986,1.4379044
		C504.6824341,119.4502563,508.9958191,128.8606873,515.2696533,128.8606873z M515.0075684,142.1917267l-18.5588074-25.2244873
		c-2.5939941-0.1434326-4.9361267,1.5447693-5.6199341,4.0516357l20.1274414,21.4342804
		C513.5700073,145.1979218,515.0075684,142.1917267,515.0075684,142.1917267z M335.6901855,387.9037781
		c0-5.6195984-4.9666443-6.6653442-10.3251343-6.6653442c-3.8865662-0.4281006-7.4576416,2.1795654-8.2336731,6.012085
		c0.3282166,5.3944092,3.6639404,10.1451111,8.6261292,12.2855835
		C331.0714722,397.9550781,334.9612122,393.3999939,335.6901855,387.9037781z M498.1859436,216.8836517
		c-0.3046875,0.2522125-0.5807495,0.538147-0.8224792,0.8517456L347.1921082,375.6184998
		c-5.4895325,5.6199341,8.8875732,15.6836243,13.9840088,9.8022766l143.7683716-160.3664398
		c2.2556152-1.8663025,2.5723877-5.208374,0.7060852-7.4646149
		C503.7842407,215.3334808,500.4421997,215.0173492,498.1859436,216.8836517z M535.6578979,160.4897308v-0.0003204
		c9.4104004-4.7052155-0.3918457-16.8601074-7.0575562-13.0699158
		c-16.1199951,10.118103-27.1887207,26.601944-30.4525452,45.3522186c2.17099,2.6598511,5.7077026,3.7876434,9.0179443,2.8754883
		C507.165741,195.6472015,521.9346924,167.1550751,535.6578979,160.4897308z M449.6586609,494.9457703h-6.0117798
		l-3.5284424,12.4163208h-34.6355591l-4.5741577-12.4163208h-6.5352783l-4.0513306,12.4163208h-11.6323242l-7.0574951-12.4163208
		h-3.7898865c-4.0322266,4.7777405-6.8164368,10.4809875-8.1038818,16.5986633h107.4338074v-4.1823425h-13.5927734
		L449.6586609,494.9457703z M382.3492737,370.651825c31.3672791,13.4617615,60.5133057,20.6502991,75.6740723,20.6502991
		c14.1156616,0,33.3277283-3.9208984,33.3277283-34.3734741c0-19.9967041-10.8473816-48.2276917-28.2300415-76.5891113
		L382.3492737,370.651825z M509.9105225,209.8932495c0,0,7.5803833,27.315979,22.7411499,27.315979
		c3.5290527-14.8996582-11.7627563-30.3221741-11.7627563-30.3221741
		C510.1719666,206.1030579,509.9105225,209.8932495,509.9105225,209.8932495z M364.9666138,407.3779297l5.0970459,0.7839966
		l1.4375916-4.3130798c-1.4375916-0.7839966-2.7441406-4.8356018-5.7503357-4.0513v-0.0003357L364.9666138,407.3779297z
		 M561.5362549,198.5226746c0-8.3646851-13.3306885-23.0028992-13.3306885-23.0028992l-3.1372681,6.4039154l12.8084717,19.3434296
		C557.87677,201.2671204,561.5362549,203.0971832,561.5362549,198.5226746z M304.5843506,361.5028381h-0.0006409
		c0-23.656189-8.1026306-19.6045532-8.1026306-11.1091309C296.4810791,359.9345398,301.8395691,364.2475891,304.5843506,361.5028381
		z M528.8618164,202.0514374c0,0,3.6600952,23.1333008,13.9846191,23.1333008
		C543.8921509,221.6562958,539.7098389,202.0514374,528.8618164,202.0514374z M542.0621338,190.5498199
		c-1.9923096,0.0645599-3.6473999,1.5549469-3.9209595,3.5290833c0,0,5.8814087,17.1212158,12.2856445,17.1212158
		C551.5145264,203.3185425,548.3289185,195.453186,542.0621338,190.5498199z M559.7068481,273.5431519l-1.3071899,3.9212341
		l12.9395142,4.3127441l-0.1310425,12.6777649h-0.1310425l6.0123901,1.9604492l7.0575562-10.4558716l32.9358521,10.9787598
		l0.3925171,12.8084717l6.5346069,2.091156l7.3189697-10.1944275l11.109436,3.6594849l2.744751,13.5924683l4.5742188,1.5682983
		c4.9412231-3.4501953,9.0491333-7.9598083,12.0247803-13.2003174L559.7068481,273.5431519z M261.1929016,467.6297913
		c-6.9245758,6.2503052-15.7803345,9.9406433-25.0940857,10.4558716h-0.7849426l-15.2911682,33.7198792h15.9450836
		c6.2286682-0.3825989,12.1151276-2.9782104,16.5983429-7.3189392l44.5682373-48.4891357l-10.1947632-14.37677
		L261.1929016,467.6297913z M129.5796967,182.0547333c-6.403595,7.3189392-7.3189392,28.4921112-7.3189392,28.4921112
		l53.1937256-45.6136475l-21.3035736,39.0786896c0,0,35.9414673-16.3372345,39.2097321-24.4404907
		c-5.8292084-12.7776184-13.8834839-24.416626-23.7875214-34.3734741
		C169.5731201,145.1979218,136.2453766,174.7357788,129.5796967,182.0547333z M202.6400452,120.7571182l0.1304016,0.0003204
		c0-5.7506485,8.1032562-11.632019,9.1490021-14.3767776c-2.9247742-4.0179138-8.238739-5.4818954-12.8084717-3.5290756
		c-1.0457458,16.2068329-5.2274628,23.9179306-7.0575104,33.8509293c6.0117645,5.0970459,4.0513-7.5807037,12.8078308-7.5807037
		c3.9177399,0.5489502,6.9156647,3.7650604,7.1891937,7.7114258c0.1132202,2.749527-0.8752747,5.4306793-2.7454071,7.4496613
		l6.1434326-0.5228729c1.817337-2.1970825,2.7492218-4.9936981,2.6143646-7.8418274
		C218.1932831,124.1554718,202.6400452,123.8937149,202.6400452,120.7571182z M85.5343475,511.805542h21.6960449
		l18.8202362-33.7198792h-21.8264389L85.5343475,511.805542z M332.5535889,411.5602722
		c1.5679932,35.6803589-4.1823425,35.0267639-4.1823425,40.5162964c0,8.8872375,15.1607666-2.4833374,15.1607666-24.9633789
		C343.5320129,400.581543,332.5535889,411.5602722,332.5535889,411.5602722z M285.2412415,411.5602722
		c2.8751526,32.4130249,22.3486633,46.2666016,22.3486633,46.2666016l3.7905273-2.091156
		c-8.2902832-17.046814-15.1537781-34.7516479-20.5198975-52.9326172L285.2412415,411.5602722z M355.9486389,396.5299072
		c-5.750946,0-3.6600952,12.6777649-3.6600952,16.8601074c0.1183167,2.2008972-0.4281006,4.3865356-1.5679932,6.2731934
		c1.1761475,2.2218933,1.0457458,8.1035767,4.8362732,8.1035767c2.2212524,0,5.35849-3.2676392,5.35849-11.5016174
		C360.9153137,403.8491821,361.1761169,396.5299072,355.9486389,396.5299072z M343.9238586,389.8642273
		c-3.3980408,0-5.227478,4.0516357-5.227478,10.8480225c0,2.2218933,2.7441406,3.9208984,4.4437866,3.9208984
		c1.0457458,0,3.6594849-2.4833069,3.6594849-10.1944275C346.7996521,392.0864563,345.8849487,389.8642273,343.9238586,389.8642273z
		 M298.7029724,398.4903564c8.4950867,34.765625,18.9512939,55.1545105,23.2640381,56.330658
		c0,0,3.0061951-5.0970764,3.0061951-35.1578064C324.9732056,419.6635437,317.5232239,388.0344849,298.7029724,398.4903564z"/>
</g>
</svg>
