<?xml version="1.0" encoding="utf-8"?>
<!-- Generator: Adobe Illustrator 22.0.1, SVG Export Plug-In . SVG Version: 6.00 Build 0)  -->
<svg version="1.1" id="Layer_1" xmlns="http://www.w3.org/2000/svg" xmlns:xlink="http://www.w3.org/1999/xlink" x="0px" y="0px"
	 width="720px" height="720px" viewBox="0 0 720 720" style="enable-background:new 0 0 720 720;" xml:space="preserve">
<style type="text/css">
	.st0{fill:#FFFFFF;}
	.st1{fill:#006D75;}
	.st2{fill:#EA7200;}
</style>
<g>
	<path class="st0" d="M644.1369629,300.4017944l-8.7567139,15.6837158l1.4376221,9.018158
		c-23.3949585,45.6135254-48.7502441,87.9595947-57.8991089,102.8591614
		c-3.5288086-7.9725647-8.1032104-12.6777039-17.1213989-17.5134888c0,0,41.3004761-75.0205688,52.5403442-134.4880676
		c-31.3674316,15.5530701-64.0418701,30.844696-64.0418701,30.844696l55.9385986-90.7042847
		c0,0-107.6950073,23.656311-192.9099731,32.1516724C321.574707,112.8504562,238.0587921,89.0634613,238.0587921,89.0634613
		s57.8991241,94.6251984,68.6164398,160.8889771c-71.5249481-6.7861481-142.5487213-18.0923309-212.6454163-33.8507233
		l101.9442673,165.0713501C136.3759155,384.7017822,36,387.838623,36,387.838623
		c25.4860802,25.6167908,107.8256836,58.0298157,216.6969452,84.9535828l19.4739838,31.4981689
		c-64.0419006,48.2275085-102.7284698,114.752655-102.7284698,114.752655l6.5348816,11.8934937
		c0,0,31.759552-1.9604492,70.7075195-3.3981323c0,0,10.5865021-34.2428589,54.2395782-76.5889282l49.2730713,79.5949707
		l61.6893311-99.8531494l6.6655579-0.7842407l3.7902527,2.2218628c-1.1909485,1.7221069-2.2818909,3.5112305-3.267334,5.3585815
		c5.0971985,3.5288696,5.3586426,4.0516357,5.6201172,10.3251343c4.978241,1.3956299,10.2615051,1.2590332,15.1609497-0.3920898
		l2.3525696-4.182312l2.8753662,1.3069458c0.3920898,2.8753662,1.1762695,6.2734985,1.1762695,6.2734985
		c4.7348328,2.1125488,10.226532,1.6177979,14.5075684-1.3069458c20.9116821,4.3129883,35.1577148,1.9604492,39.8628235,0.7842407
		c20.6502686,5.6201172,34.1121216,1.8297729,39.6013184-0.6535034c9.5409546,3.9209595,19.473999,6.5349121,46.789856,6.5349121
		c12.6776733,0,26.1395874-0.7842407,26.1395874-10.194397c0-13.3311768-12.6776733-61.8200989-25.4860229-88.6131287
		c5.4586792,3.7396545,11.5134888,6.5239868,17.9055786,8.2339783l11.7627563-8.4953308
		c-5.3585815-6.2734985-4.3130493-7.9725647-3.6594849-12.9390259c-2.8995972-2.2434387-6.314209-3.7261047-9.9330444-4.3130188
		c11.3706665-13.20047,35.2883911-43.783783,63.9112549-98.6768494c6.012146-0.914856,13.7232666-4.4437256,14.6381836-13.9846497
		c1.0682983-8.1479492,1.6357422-16.3537292,1.6990356-24.571167
		C665.8327026,294.389679,644.1369629,300.4017944,644.1369629,300.4017944z"/>
	<path d="M581.5326538,457.6312256c12.9390259,25.8781738,25.8781738,76.0661011,25.7472534,88.3519897
		c0,2.6138916-4.9664917,4.4436646-20.2581177,4.4436646c-28.1000366,0-36.7260742-2.4832153-46.9204712-7.0576782
		c0,0-13.3311768,8.7567749-39.6014099,0.914856c0,0-15.4224243,5.097168-41.1698608-0.7842407
		c-4.5744629,3.9208984-8.2340088,2.7446289-8.2340088,2.7446289c-0.3590698-1.8515625-0.5341797-3.7340698-0.5227661-5.6200562
		c-3.6990356-1.4676514-7.3198853-3.1253662-10.8479004-4.9665527c-1.1085815,2.3483887-2.3748779,4.6190186-3.7902832,6.7962646
		c-1.9102173,0.5476685-3.9153442,0.6813965-5.8813477,0.3920898c-0.1127319-2.6759644-1.4049072-5.1645508-3.5288696-6.7962646
		c1.1665039-2.0813599,2.8851929-3.8000488,4.9665527-4.9665527c-3.7902222-2.0911255-7.5805054-4.5744019-11.6320801-7.0576782
		c-3.9209595,0.5227051-7.7111816,0.914917-11.5014038,1.3070068l-58.2910156,94.2330322l-47.9661255-77.6345215
		c-46.5284271,42.8687134-59.5981903,79.9869995-59.5981903,79.9869995
		c-28.8842163,0.914856-63.2576904,3.0060425-63.2576904,3.0060425l-3.1367798-5.7506714
		c35.5498047-58.0297852,84.5614471-99.5916748,103.7740326-113.3150024l-20.5195923-33.0664673
		c4.0516968,0.914917,9.9330444,2.3526001,16.0758667,3.7902832c1.4376221,0.2614746,2.7446289,0.5228882,4.182312,0.7842407
		h-0.000061l14.8995361,23.7869263c2.7446899,0.1306763,6.012146,0.5227661,9.9330444,0.7842407h0.0001221
		c15.5529785,1.1763306,40.1241455,2.8753662,72.5372314,2.8753662c4.8358765,0,9.2796021-0.1306763,13.3311768-0.1306763
		c-16.0758057-10.7172241-33.9814453-22.6107178-53.5861206-34.6348877
		c2.7445679,2.8753662,5.3585815,5.7506714,8.1032104,8.7567749c-14.37677,0-36.4647217,1.0454712-66.0023804-5.6201172
		c-135.2722626-30.7139893-226.8914032-74.4976196-226.8914032-80.1177368c0,0,72.0144653-1.6990967,154.0927124-6.7963257
		l-99.9838333-161.5424042c0,0,116.0597,25.2246704,207.5481567,31.4981537
		c-7.8419189-65.3488617-58.2912445-143.2447357-58.2912445-153.8312836
		c51.102829,25.4860229,130.3057098,96.8470459,181.9313202,198.2685394
		c18.9799805,13.4590454,37.1765137,27.9901123,54.5009766,43.5223389l3.0060425-4.182373
		c11.2400513-7.8418579,61.9508362-28.753418,108.217865-52.1484375c1.1762085-0.5227661,1.9604492,0,1.9604492,1.8297729
		c0,7.3190918-21.0423584,69.53125-50.057251,121.5489502l2.4832153,3.3981934
		C573.298645,422.604187,574.3442383,427.9628296,581.5326538,457.6312256z M573.298645,239.36586l-51.7563477,82.601059
		c5.6201172-2.6139526,11.6321411-5.3585815,17.5135498-7.9725342l55.1544189-89.2665863
		c0,0-93.7102966,20.5195923-179.186676,29.1456299c1.9604492,3.1367035,3.9209595,6.4041595,6.012085,9.5408783
		C479.7190247,257.2714233,540.8856201,245.9007111,573.298645,239.36586z M647.927124,305.3682861l-6.5349121,11.7628174
		l1.4376831,8.8874512c-29.5377197,58.0298462-62.3428345,110.5703125-62.3428345,110.5703125l4.0515747,9.9330444
		l4.7051392-3.3981934l3.3981934,0.2614136c0,0,31.3674927-30.0604858,71.4916382-107.6950073
		c0,0,11.6321411,0.3921509,12.5469971-9.0181274c0.914917-9.5409546,1.5683594-16.0758057,1.5683594-19.9967651
		C663.7415161,301.4474487,647.927124,305.3682861,647.927124,305.3682861z M607.4109497,447.0446777
		c-6.4043579-4.0515747-18.2977295,1.4376221-18.2977295,1.4376221l-0.0001221,0.000061l0.914917,3.5288086
		c4.5252075,3.0465698,9.3948975,5.5471802,14.5075073,7.4497681l4.8358765-3.5288086
		C607.5718384,453.3438721,606.8673096,450.1497192,607.4109497,447.0446777z"/>
	<path class="st0" d="M503.7674255,536.7034302l-4.5744629,3.6594849
		c-16.4678955,2.0911255-28.8841553,1.5682983-38.8171997-0.7842407c-0.3921509-2.0911255-2.7446289-2.4832764-4.4437256-4.9665527
		c-0.6535034-1.0455322-1.3069458-4.4437256-2.4832153-4.8358154c-1.3226929,2.1004028-2.1702271,4.4645996-2.4832764,6.9269409
		c-3.3000488-1.37854-6.4526978-3.0862427-9.4102173-5.097168c0.5198975-1.5188599,0.8277588-3.1021729,0.914917-4.7051392
		c-1.8297119,0.5227661-3.5288086,1.0455322-5.097229,1.5683594c-2.2483521-1.833313-4.3462524-3.843689-6.2735596-6.0119019
		c6.7962646-0.914917,13.7232056-1.9605103,20.7808838-3.0061035c3.5288696-2.2218628,4.8358765-3.5288696,4.8358765-4.5744629
		c2.4832153-0.2613525,5.097168-0.5227661,7.5804443-0.914856c-3.2674561,3.2674561-8.4953613,6.9269409-12.6777344,11.109314
		c0,0,8.7567749,2.8753052,32.2824097,1.8297729c-3.9302368,2.9830933-8.0325317,5.7324829-12.2855835,8.2339478
		C471.6157532,535.1350098,479.7190247,537.2261963,503.7674255,536.7034302z M432.5372009,499.8466187
		c-10.4558105,3.3981934-15.0302124,1.0455933-15.0302124,1.0455933c1.5159302-1.8109131,2.6696167-3.8963623,3.3981323-6.1428223
		c-9.27948,2.6139526-12.1548462,0-12.1548462,0c1.2868652-1.2671509,2.3087769-2.77771,3.0060425-4.4437256
		c-6.3317871-0.161377-12.6578369,0.4976196-18.8204956,1.9605103c8.524292,1.0223389,16.4034424,5.0546875,22.2186279,11.3706665
		c5.434021-0.2838135,10.8460693-0.8948364,16.206543-1.8297729L432.5372009,499.8466187z M204.4694672,586.4992676
		l-11.5014038,14.7687988c0,0,33.9814453-5.2279053,54.5009766-2.2218628l5.6201172-9.6716919
		C241.97966,583.6239014,204.4694672,586.4992676,204.4694672,586.4992676z M413.7166443,490.3056641
		c-0.3883667,1.1900635-0.9146729,2.3305054-1.5682373,3.3981323c3.7340088,0.133667,7.4594727-0.4429321,10.9784546-1.6990356
		c0.1204834,2.6831665-0.7129517,5.3223877-2.3525391,7.4497681c5.1633911-0.2678223,10.2865601-1.0560303,15.291687-2.3525391
		c0,0-0.914917,2.0911865-2.0912476,4.3129883c1.5444336-0.3466797,3.1223145-0.5220337,4.7051392-0.5227661
		c3.267334,0,3.6595459,0.6535034,6.5349121,0.6535034c5.4893188,0,6.1428223,1.1762695,6.927002,7.5804443
		c1.0373535,1.3049316,2.1734619,2.5284424,3.3981323,3.6594849c4.0515747-0.3920898,8.6260986-0.7842407,13.3311768-1.4376831
		c-3.6939697,4.8219604-8.1011353,9.0528564-13.0697632,12.5469971c0,0,21.8264771,2.0911865,33.1972656,0.6535034
		c-3.2473145,3.8441772-7.194458,7.0374146-11.6320801,9.4102783c0,0,15.0302124,0.914856,31.3674316,0.6535034
		c-2.0213013,2.1626587-4.1591797,4.2133179-6.4041748,6.1427612c0,0,19.9967957,4.4437256,34.2428284,1.0455933
		C485.0777283,521.4117432,456.8470154,490.3056641,413.7166443,490.3056641z M412.1483459,493.7038574l0.000061-0.000061
		c-0.000061,0-0.000061,0-0.0001221,0L412.1483459,493.7038574z M215.8401947,572.3839111l-4.0516357,4.9665527
		c0,0,42.0847168-6.5349121,52.0176849-4.182373l0.7843018-1.0455322
		C254.1346283,568.7243042,215.8401947,572.3839111,215.8401947,572.3839111z M230.0862274,556.0466919l-12.2855835,13.9846191
		c0,0,34.1121216-3.5288086,48.0967865,0.3921509l14.1153564-16.3372803
		C265.7667542,551.7336426,230.0862274,556.0466919,230.0862274,556.0466919z M248.3840179,537.6182861l-16.206543,16.0758057
		c0,0,29.799118-4.0515747,49.5344696-1.4376831l7.7111816-8.6260986
		C282.1039734,537.3568726,248.3840179,537.6182861,248.3840179,537.6182861z M209.8280487,579.8335571v0.0001221
		l-3.6595459,4.4437256c0,0,35.1577148-2.6139526,47.9661255,3.2672729l8.3646088-12.546936
		C251.1285858,573.1679688,209.8280487,579.8335571,209.8280487,579.8335571z M251.3899994,534.8737183l-0.7843018,0.6534424
		c0,0,29.1456146-0.3920898,40.2549286,6.5349121l1.6990356-1.6990356
		C283.5416565,535.265686,251.3899994,534.8737183,251.3899994,534.8737183z M248.906723,600.3530884l0.3920898,3.0060425
		l4.7052002-8.2339478l-0.5228271-2.7446289L248.906723,600.3530884z M255.1802826,589.7665405l0.3920898,2.7446899
		l7.8418427-11.3707275l-0.5227661-3.1367798L255.1802826,589.7665405z M264.4598083,575.6511841l0.5227661,3.3981934
		l0.7842407-1.0455933l-0.6534424-3.2672729L264.4598083,575.6511841z M267.5965271,520.8887939l-13.9846649,12.024231
		c0,0,32.4130096,0.5227661,40.3856049,5.8813477l11.8934937-11.7627563
		C295.4350281,521.0195313,267.5965271,520.8887939,267.5965271,520.8887939z M294.912323,540.8856201l0.5228271,4.5744629
		l10.5864868-10.3251343l-0.1306763-5.3586426L294.912323,540.8856201z M291.1221008,544.9371948l1.0455933,3.9209595
		l1.5683594-1.5683594l-0.6534424-4.5744629L291.1221008,544.9371948z M266.6816101,572.6452637l0.1307373-0.0001221
		l0.6535034,3.3981323l13.2004395-15.0302124l-0.5227661-4.0515747L266.6816101,572.6452637z M281.9732971,555.0009155
		l0.5227661,4.182373l7.9725342-8.6260986l-0.914856-3.9209595L281.9732971,555.0009155z M350.1974792,574.4750366
		l29.2763062-46.3977661c-25.7474365,2.0911865-46.1363525,2.6139526-56.7228394,2.8753662L350.1974792,574.4750366z"/>
	<path class="st1" d="M601.5293579,543.4997559c-10.3251953,0-78.0265503-27.5772705-112.9228821-55.15448
		c3.9209595-6.5349121,1.8297119-15.291687,1.8297119-15.291687c-2.8753052,6.927002-4.182312,7.4498291-11.8934937,7.4498291
		c-16.729248-19.7354126-21.0422974-32.0209961-23.9176636-38.947998
		c-1.4377441-3.5288696-6.5349121-7.8418579-32.1516113-7.8418579
		c-34.2428589-36.2033081-63.3884888-54.1088867-63.3884888-54.1088867
		c27.9693604,14.1153564-0.914856-24.571167-29.9298096-52.2791138
		c55.8079834-5.6200562,112.661499,25.7474365,128.868042,25.7474365c1.5683594,0,1.6991577-1.6990356,0.914917-3.6595459
		c-5.2279663-13.7232666-10.9786377-27.1851196-17.2521362-39.9935303
		c73.452179,54.1088867,111.7466125,107.6950073,111.7466125,107.6950073l0.000061-0.000061
		c14.1153564,6.1428223,17.6442261,14.2460938,24.0483398,42.9996948
		C597.0856323,505.7280884,605.711731,543.4997559,601.5293579,543.4997559z M331.5077209,361.1762085
		c0,0-49.1424561-40.77771-110.1782074-50.9721069c-2.2218628,0-6.6655884,9.279541-6.6655884,9.279541
		s6.5349121-5.8814087,8.4953613-5.8814087C275.3077087,323.6659546,331.5077209,361.1762085,331.5077209,361.1762085z
		 M314.6476746,272.3017578c0.0214844-3.6227417-0.1530151-7.2440186-0.5227661-10.8479004
		c-31.4981689,3.267334-50.1879272,10.7172241-57.3762207,14.1153564
		C267.7272034,272.432373,287.3318787,271.5176392,314.6476746,272.3017578z M372.9389343,416.4614258
		c-2.446167,14.9931641-1.8684692,30.3241577,1.6990356,45.0907593c-1.1762695-9.279541,3.5288696-36.3340454,3.5288696-36.3340454
		L372.9389343,416.4614258z M552.5177002,253.6120148l-48.3581848,76.7195892
		c3.6594849-1.8297729,7.8418884-3.9209595,12.285614-6.012085l50.4493408-80.5098724
		c-31.8902588,6.2734985-89.0052185,16.5986176-144.1596985,22.4800262l3.9209595,6.6655273
		C472.007843,267.9887085,518.5363159,260.0161743,552.5177002,253.6120148z M360.261261,405.2214355
		c-2.4349365,16.0285034-1.6350708,32.3823853,2.3525391,48.0967407
		c-1.3069458-12.1548462,2.8753662-40.5162964,2.8753662-40.5162964L360.261261,405.2214355z M235.8370819,381.0422974
		l-25.4860229,1.8297729l1.9604492,3.0060425c7.7109985-0.5227661,15.5528564-0.914856,23.3947144-1.5683594
		c0,0,10.0637817,6.012085,26.4011078,18.2976685C258.0556946,395.5497437,247.469162,387.9692383,235.8370819,381.0422974z
		 M379.4737244,528.0773315l-29.2762451,46.3977051l-27.4464722-43.5223389h-0.000061
		c-5.3586426,0.1306763-8.3646851,0.1306763-8.3646851,0.1306763c-0.2614136,0.1307373-0.3920898,0.3920898-0.7842407,0.6535034
		l36.595459,58.421936l39.3400269-62.9963989c-3.3980713,0.3921509-6.7962646,0.6535034-10.0637207,0.914917H379.4737244z
		 M385.8780212,468.3484497c-0.6535034-7.3190918,5.097168-31.7595825,5.097168-31.7595825l-5.2279053-7.5805054
		C383.3011169,442.0118408,383.3454895,455.3615112,385.8780212,468.3484497z M279.620697,477.3666382l14.8995361,23.7869263
		c2.7446899,0.1306763,6.012146,0.5227661,9.9330444,0.7842407l-14.2460938-22.4799805
		C286.6783752,478.9349976,283.1495056,478.1508179,279.620697,477.3666382z"/>
	<path class="st2" d="M439.4640198,529.6456299c-0.6535034,2.0911865-3.2675171,5.4893188-7.3190918,10.8479614
		c-0.7203369-1.8010254-1.7858887-3.4438477-3.1367188-4.8358765
		C431.4914856,531.99823,435.9352112,531.083313,439.4640198,529.6456299z M452.6644592,544.1530762h0.000061
		c1.8919678-0.3190918,3.6322632-1.2350464,4.9664917-2.6139526c-1.5040283-2.3289185-2.8153687-4.7767334-3.9209595-7.3190918
		C452.6020813,537.4065552,452.2442932,540.8057251,452.6644592,544.1530762z M312.4258118,522.8493652
		c0,0,20.1275024,3.267334,140.2387695-9.1488037c-2.8753662-2.0911865-4.3129883-1.6990967-4.3129883-6.4042358
		c0-1.5683594,0.2613525-1.8297729-2.3526001-1.8297729c-2.6138916,0-3.6594849-0.7842407-6.7962646-0.7842407
		c-3.9208984,0-9.5408936,3.9209595-68.4855957,3.9209595c-46.789856,0-79.5949707-3.9209595-81.8168335-3.9209595
		c-2.0911865,0-6.4041748,4.0515747-18.9511719,14.1153564c0,0,24.7018433-0.2614136,37.6408691,6.7962646v0.000061
		L312.4258118,522.8493652z M191.0075531,603.6206055l-9.9330444,14.5075073l58.2911987-2.7446289l7.0577393-14.5075684
		C228.2564545,597.4777832,191.0075531,603.6206055,191.0075531,603.6206055z M440.3789368,450.1813354
		c2.0911865,16.8600464,6.1428223,24.0484009,6.1428223,24.0484009c5.7171021,4.121582,11.9584961,7.4620972,18.559082,9.9330444
		C452.7951965,461.552002,440.3789368,450.1813354,440.3789368,450.1813354z M605.3195801,448.3516846
		c-4.0515747-2.2218628-12.0241699,0.914917-12.0241699,0.914917c4.2745361,1.0463257,8.4677734,2.4003906,12.546936,4.0515747
		C605.2983398,451.7227173,605.1196899,450.0253906,605.3195801,448.3516846z M649.8876343,310.3347168l-4.0515747,6.5348511
		c7.5578003-1.2514038,15.2462769-1.5150146,22.8720703-0.7842407l4.7051392-6.6655884
		C665.6275635,307.6486206,657.5122681,307.9642334,649.8876343,310.3347168z M647.7963867,323.9273071h0.000061
		c-19.473938,35.1577148-40.77771,81.555481-63.9111938,110.30896l6.6655884-4.182373l1.4376831-1.5683594l-1.1763306,4.0515747
		l2.7446899-1.4376831l-4.182373,7.5804443l3.9209595-3.267334c0,0,19.8660889-22.2185669,70.1846924-113.0536499
		C652.2401123,320.6598511,647.7963867,323.9273071,647.7963867,323.9273071z M587.9367676,434.8898315
		c-1.4780273,1.0028076-3.1121826,1.7536621-4.8358154,2.2218628l2.4832153,5.2279053l1.5683594-1.1762695l-0.6534424-1.8297729
		l2.4832153-4.8358154L587.9367676,434.8898315z M389.5375061,527.1624146l-39.3400269,62.9963989l-36.5953979-58.421814
		c-0.7842407,0.6534424-1.4376221,1.3069458-2.2217407,2.0910645l38.8171387,61.9507446l43.130249-68.8778076
		c-1.2670288,0.0220337-2.5321045,0.109314-3.7901611,0.2614136H389.5375061z M422.7347717,266.2896729
		c55.15448-5.8814087,112.2694397-16.2065277,144.1596985-22.4800262l-50.4492798,80.5098114
		c1.6990356-0.6535034,3.3980713-1.5683594,5.0971069-2.3525391l51.7563477-82.6009979
		c-32.4130859,6.5349121-93.5796204,17.9056244-152.2629089,24.0483856
		C421.5241394,264.416748,422.0923157,265.3782959,422.7347717,266.2896729z M294.3896179,501.1535034l-14.7689209-23.7869873
		c-1.3070068-0.2613525-2.7446899-0.6534424-4.0515747-0.914856l15.291626,24.4404907
		C291.9063416,501.0228271,293.0826111,501.0228271,294.3896179,501.1535034z"/>
</g>
</svg>
