<?xml version="1.0" encoding="utf-8"?>
<!-- Generator: Adobe Illustrator 22.0.1, SVG Export Plug-In . SVG Version: 6.00 Build 0)  -->
<svg version="1.1" id="Layer_1" xmlns="http://www.w3.org/2000/svg" xmlns:xlink="http://www.w3.org/1999/xlink" x="0px" y="0px"
	 width="720px" height="720px" viewBox="0 0 720 720" style="enable-background:new 0 0 720 720;" xml:space="preserve">
<style type="text/css">
	.st0{fill:#006AC6;}
	.st1{fill:#FFB81C;}
</style>
<g>
	<path class="st0" d="M294.1822205,387.9875488l54.8504639,88.2667847
		c7.1393433,11.4825439,11.4817505,21.9417725,12.7541199,32.1463623
		c7.6542358,51.2767334-48.2195435,94.1345825-116.0827484,104.59375
		c-64.8003845,10.2045898-131.8957062-11.7363892-138.7820282-59.6948853
		c-6.3770676-46.1768494,45.4081726-85.7172241,107.9136505-96.436676
		c12.2448578-2.2957153,25.514679-3.3190613,38.7772675-3.0588379L36,104.5508804h81.3812561l44.1365814,70.6689835
		c9.6889191-1.532608,16.581665-8.9273987,16.581665-21.4268951c0-10.2045898-4.3359833-19.6460724-22.4494476-49.2356873H684
		c-13.5244751,26.7862396-43.8827515,54.3411713-81.8969116,70.413559l27.3010864,5.6139679
		c-22.4494629,23.2133484-54.5950317,43.1132355-90.3078613,54.0873413l27.5493774,9.9499359
		c-22.9587402,19.385849-51.5322266,35.9730988-89.8001709,45.1543427l24.9989624,13.2626038
		c-27.5549316,17.0901184-57.3983765,29.0811462-97.1990051,35.2099609l20.1545105,21.4269104
		c-28.0641785,7.1401672-54.3411865,8.6719666-82.1507263,7.1401672l18.3672791,29.3349915
		c-18.3672791,2.0402832-42.6039734-1.0169373-66.8398743-8.1635132H294.1822205z"/>
	<path class="st1" d="M177.202652,116.5418777c10.9684906,17.859642,13.7783051,27.8096085,13.7783051,37.2446518
		c0,17.0909119-9.1868744,31.3768616-34.9497833,34.186676l-44.6458359-71.6851196H58.0618782l218.6362762,351.046051
		c-19.3857727-2.8041992-40.3090363-2.2957153-59.1864014,1.0169067
		c-57.9076538,9.9499512-103.3222275,45.4089661-97.9621201,83.4231262
		c5.6131744,39.2857666,64.545784,59.1856689,125.0085678,49.7497559
		c63.0139771-9.9499512,112.5035095-48.4725342,105.8734131-91.5858154
		c-1.023407-8.4173584-4.5906677-17.0893555-10.9741516-27.5549316l-71.9396973-115.3140564
		c24.4896851,9.696106,53.0631409,16.0731812,71.6851501,16.3277893l-19.1376038-30.3591003
		c28.5726624,2.8033447,54.3419495,3.0588074,80.3650208-1.0233765l-22.9594116-23.7218018
		c39.2865295-2.5495605,70.92276-10.7138672,98.4784546-24.9990234L439.467865,283.647583
		c45.1535645-5.3593445,74.7487488-17.3447876,101.2811584-35.4646606l-46.1776428-16.8354492
		c49.7449646-6.6316986,83.4222107-23.4736023,108.4212341-43.3679199l-50.5128784-10.7138519
		c49.2421265-8.9257965,86.2321167-31.3760223,108.9362183-60.7174149l0.0001221-0.0064087H177.202652z M497.8664246,169.8597107
		h-0.0007935H225.9114685l2.8049622,4.3360291c3.5729218,5.8693542,5.8677979,7.140152,12.7533417,7.140152h273.741272
		l58.6764526,12.4994812c-29.8499146,17.3455505-69.1355591,28.3188782-130.6161194,28.3188782H258.5655212l2.8049622,4.335968
		c3.8275452,5.8677979,6.1224365,7.140152,13.0087891,7.140152l192.1046753-0.2546234l46.9407349,17.3447571
		c-31.6371155,15.8185577-63.5287476,22.1956024-115.5686035,22.4502411l-106.8959656,0.5084839l2.8105774,4.3415833
		c3.8275452,5.8693542,6.1224365,7.1401672,13.0143738,7.1401672l110.9780884-0.2538452l32.1447144,17.605011
		c-23.7218323,9.1867981-57.9084473,14.7951965-92.3552551,14.7951965h-6.3763733l24.7444153,25.5138245
		c-29.3349609,1.2779846-55.1042786-0.763092-78.8308716-4.5962219l18.3672791,29.849884
		c-19.1376343-2.5495605-50.7675171-12.7541504-76.7914429-25.5138855l90.8234863,145.927002
		c5.6131592,9.1868286,8.4173889,16.3270569,9.4407043,23.2189636c5.360199,34.6959229-37.7586975,69.1355591-95.9217682,78.3168945
		c-55.8730164,8.671936-106.8951263-9.1868896-111.2310944-40.0544434
		c-4.3368073-29.5960083,34.9489288-60.9728699,88.0129242-70.1605225
		c28.0626221-4.5962219,60.2089691-3.3182983,83.4223175,6.8927002L79.7306366,128.0180664H104.98423l44.6450729,71.6858978
		c36.2277527,0.7631073,54.0865479-20.4091492,54.0865479-45.4081268c0-8.4181366-2.0402985-16.5816498-6.3762665-26.277771
		h437.0122681C602.7212524,156.5907288,555.265564,169.8597107,497.8664246,169.8597107z"/>
</g>
</svg>
