<?xml version="1.0" encoding="utf-8"?>
<!-- Generator: Adobe Illustrator 22.0.1, SVG Export Plug-In . SVG Version: 6.00 Build 0)  -->
<svg version="1.1" id="Layer_1" xmlns="http://www.w3.org/2000/svg" xmlns:xlink="http://www.w3.org/1999/xlink" x="0px" y="0px"
	 width="720px" height="720px" viewBox="0 0 720 720" style="enable-background:new 0 0 720 720;" xml:space="preserve">
<style type="text/css">
	.st0{fill:#002868;}
</style>
<path class="st0" d="M707.1778564,329.1194458c0,148.870575-185.1427002,294.6600952-401.0959473,294.6600952
	c-43.1945496,0.2800903-86.1456299-6.484375-127.1633759-20.0268555l61.3407135-45.5153809
	c18.1268005,2.7114258,36.4302979,4.0689697,54.7585754,4.0614014c181.7817993,0,345.2173462-119.8807983,345.2173462-252.0856628
	c0-56.7191925-31.2306519-106.5761871-84.3087158-140.0475464l29.8302002-23.6680298
	C663.3428955,189.2120209,707.1778564,258.6756897,707.1778564,329.1194458z M19.6843166,684l95.9326935-109.7974243
	C53.0157394,535.6895752,12.8221245,476.169342,12.8221245,401.3841248
	c0-152.6519012,180.6613617-297.1808472,393.3936157-297.1810303c3.5012512,0,7.0023193,0.1401291,10.3634338,0.1401291
	L676.0873413,36L453.1315918,212.8800507l114.6989746-15.4051361L321.4868469,399.9836121l111.0577698-21.7073975L19.6843166,684z
	 M152.3095703,532.1884766l54.0583191-61.7610779l-77.4462891,14.0048218l190.744751-184.5826111l-96.7728729,15.2651978
	L391.370697,126.7508774h-3.6411743c-174.2191925,0-345.3572998,115.2590866-345.3572998,252.0854492
	C42.3722305,447.4596252,86.6272278,501.0979309,152.3095703,532.1884766z"/>
</svg>
