<?xml version="1.0" encoding="utf-8"?>
<!-- Generator: Adobe Illustrator 22.0.1, SVG Export Plug-In . SVG Version: 6.00 Build 0)  -->
<svg version="1.1" id="Layer_1" xmlns="http://www.w3.org/2000/svg" xmlns:xlink="http://www.w3.org/1999/xlink" x="0px" y="0px"
	 width="720px" height="720px" viewBox="0 0 720 720" style="enable-background:new 0 0 720 720;" xml:space="preserve">
<style type="text/css">
	.st0{fill:#6CACE4;}
	.st1{fill:#010101;}
	.st2{fill:#FFFFFF;}
</style>
<g>
	<path class="st0" d="M683.99823,416.5235291c0.4787598-91.9692078-95.6207886-149.2246399-126.2786865-159.1607361
		c0,0,58.1378174,84.3496094,53.8466187,142.4873962c-1.8942871,25.6347351-14.6123047,33.9930115-27.4240723,35.7130432
		c-0.2531738-50.4429321-21.2497559-92.4963989-36.0228271-115.8712158l11.1714478-12.1520691
		c0,0-23.237915-61.8258514-117.4804077-136.7739868l-15.0091248,9.7246246l-90.2044678-58.4348755l-90.0808868,58.3544617
		L232.5,171.331131L36,298.6150208l113.8027191,61.3113098l-23.2691116,15.0716858l125.0873032,67.4022217l-22.6912842,14.6986389
		c0,0,87.3116455,48.3997498,173.8146667,41.3959351c8.1542358,5.0789795,16.6368713,9.9040833,25.3495483,14.2950439
		c-43.3207703,22.6846313-94.0801697,10.3143311-94.0801697,10.3143311l-61.633728,38.8188477
		c157.930603,76.4247437,246.279541,13.2890625,277.8256836-24.9206543
		c71.4946289-3.8064575,133.3644409-37.526947,133.7926025-120.4781494V416.5235291z"/>
	<path class="st1" d="M671.4172363,419.8861694c0-52.0572815-35.9677124-107.6112671-85.2751465-136.1708374
		c43.7362671,79.7479248,49.6551514,132.7121277,21.0144043,155.2664185
		c-8.9740601,7.0663452-22.3182373,10.5198364-37.2603149,10.382843c0.3425293-4.3783264,0.5413208-8.7923889,0.5413208-13.2391968
		c0-44.6185913-16.6123047-85.2803345-39.9364624-117.65979l12.1781006-13.4126892
		c0,0-25.411377-53.8838043-101.8613892-116.9948578l-14.0158386,9.0783081l-90.2052002-58.4348602L246.50914,197.0559692
		l-14.0158234-9.0790405L63.409893,297.5137329l113.8034515,61.3105774l-23.2691193,15.0776367l125.092514,67.4022217
		l-21.7657166,14.1029358l3.5391235,1.7327271c25.5669861,11.5749817,82.4865723,32.9743652,143.4181519,27.1373596
		c14.1401672,9.5697327,30.3116455,18.3815002,48.5248413,25.2795715
		c-27.90802,28.8894043-79.1760254,33.2677612-116.1564026,26.7844238l-36.6885071,23.7657471
		c34.4904175,15.9898071,74.431366,23.6287842,109.1578064,23.6287842c47.2828369,0,90.348175-14.1655273,120.3425903-43.8300781
		c4.7438965-4.6947632,9.0418701-9.6940918,12.9533081-14.9354248
		c74.5877075-0.9865723,129.0552979-38.7495728,129.0552979-105.0832825V419.8861694z"/>
	<path class="st2" d="M391.0948486,379.3673706c-18.4264221,8.8050537-29.3796997,19.3746338-29.3796997,19.3746338
		l-100.7191162-54.0079346l75.5999146-23.5671692l-61.6583557-22.4483948l103.8487244-39.2835693l50.9209595,12.8728333
		l-59.4653015-38.5202026l-113.7541504-16.263855l80.1148682-51.8956451l90.2051392,58.4349365l12.177948-7.8862457
		c41.7434082,36.6639252,65.1483459,68.886261,75.9095459,85.8775635l-11.940979,13.5057983
		c5.4205322,6.3961487,10.5565796,13.2951355,15.3071289,20.598877
		c-12.8730774,0.2784424-23.6477356,6.5749512-23.6477356,6.5749512
		c25.8645935,1.5592041,36.0863342,16.0464478,39.3645325,22.4499817c1.1259155,2.5595093,2.196228,5.143219,3.2099609,7.7491455
		c-17.8399048-3.4334412-27.6398621,2.174469-27.6398621,2.174469c28.5723572,8.3275757,35.0860901,22.0947876,36.6639099,28.577301
		c0.5560303,2.7885742,1.0424805,5.5903931,1.4593506,8.4029846c-12.5386963-2.9256592-25.3058472,0.9560852-25.3058472,0.9560852
		h-0.0004272c24.1256104,7.6373901,26.7651978,24.5290833,26.8648071,31.0115967
		c-0.055603,0.9814453-0.0996094,1.968689-0.1673584,2.9501343c-11.1224365-2.3663025-22.4055786-6.4953308-32.9073486-12.4074707
		c-4.9116821-2.7632141-9.8049316-6.0611267-14.6488037-9.786499c-4.9866028-29.2304688-17.7348938-58.3431702-37.5636902-82.871582
		l22.5231323-26.3860168h-21.0449219l-49.1389465-31.8328247c-40.3890381-2.7378845-79.6862793,16.5378113-79.6862793,16.5378113
		c33.6518555,2.5583801,47.8666992,7.7931213,47.8666992,7.7931213l-8.0480042,9.4326782
		c40.6430359,17.7723389,58.3967896,50.3566284,58.3967896,50.3566284
		c-17.0447083,0.9560547-31.9183044,5.8809509-43.7242126,11.5258789H391.0948486z M479.2410889,521.5859985
		c-19.5550537,21.765625-48.3437195,33.1730347-77.9720154,37.1478882
		c-8.4882507,1.1355591-17.0276489,1.706604-25.3857727,1.7005615c11.2835693,1.5592041,22.4486389,2.3292847,33.1730347,2.3292847
		c42.8051758,0,79.9093323-12.3643799,105.6060791-37.7689819c0.3859253-0.3782959,0.739563-0.7819824,1.1169434-1.1676636
		c-9.0716248-0.8755493-31.8128357-4.9807739-33.7869263-5.4333496
		C481.1003113,519.4790649,480.1825867,520.5432739,479.2410889,521.5859985z M653.291626,393.7413025
		c-5.3707275-27.1873169-20.4602051-52.2077637-35.0919189-69.0298767
		c16.6309204,33.5342712,29.7028198,78.4746399,12.7182007,109.7601929
		c-11.8853149,21.8966675-36.0733032,31.7204285-62.7268066,31.7204285c-41.6119385,0-78.7784729-22.3369141-107.2943115-52.6410522
		c-12.9605408-13.7739258-20.1016235-24.8833618-20.1016235-24.8833618s-29.6897888,2.7697449-60.2546387,27.5781555v0.0006714
		c46.9157715,58.2240295,108.0032959,88.3778381,164.762146,88.3854675c41.9287109,0,80.2808838-13.8417053,98.5758057-43.874115
		C657.0432129,439.1299438,657.3977661,414.5315552,653.291626,393.7413025z M276.2421265,270.280304l-22.4800415-14.5617371
		l20.4310303-13.8049011l-41.270874-26.7338104l-23.8770294,53.3938141l33.7375641-5.4468079l-41.6868591,53.4853821
		L276.2421265,270.280304z"/>
	<path class="st0" d="M370.2343445,233.7882385l-113.7536926-16.2645264l80.1085815-51.8956451l-37.794342,38.7250671
		l70.8928833,11.0098114l60.0122986,56.9457397L370.2343445,233.7882385z M501.5021667,424.8035889
		c4.8438721,3.7260437,9.7362366,7.0239563,14.6492004,9.7871704c1.241272,0.7020874,2.5023193,1.3662415,3.7633057,2.0185242
		c-0.7207031-11.9919128-2.894043-24.5481567-6.5895386-37.526886
		c-6.3023682-21.9585876-16.7036743-42.6685181-30.3467712-60.9874573l3.4832458-22.5482788l-22.5235901,26.3979187
		c19.8287964,24.5297546,32.5775452,53.6359253,37.5641479,82.8596802V424.8035889z M274.9353333,298.7258911l61.6583862,22.4425964
		l-35.3526611-22.901886l77.5430298-38.8307495L274.9353333,298.7258911z M438.9821777,216.1700287l-12.1837463,7.8869171
		l23.5471802,15.251236L438.9821777,216.1700287z M260.9933472,344.7414856l100.7191162,54.0081482
		c0,0,10.9541626-10.5697937,29.3783264-19.3748779L260.9933472,344.7414856z M479.2388611,521.5828247
		c-19.5545959,21.7658691-48.344635,33.1726074-77.9720459,37.1478882c-8.4824219,1.1356201-17.0276489,1.7075195-25.3862,1.7008057
		c0,0,15.2582092,1.1118164,27.0699463,0.3417358c1.5320435-0.1126099,3.0497437-0.2409668,4.5517273-0.3850098
		c1.2852478-0.1176147,2.5646667-0.2544556,3.8436279-0.4094849c0.0744934-0.0067749,0.1489868-0.0186768,0.2234802-0.0244751
		c1.8937378-0.2241821,3.7883911-0.4788208,5.6632996-0.7767944c28.6154785-4.3283081,51.8341675-15.1774292,68.9430542-30.9689941
		l29.6462708-4.3782959c0,0-14.6936951-1.9933472-33.8318481-5.4393921
		C481.098053,519.4758911,480.1807861,520.5403442,479.2388611,521.5828247z M413.4465332,305.204834
		c0,0,8.184906,19.9838257,23.0692749,28.944397l10.1598816-7.4206543l8.8494873-0.9509277l-42.0472107-20.5609131
		L413.4465332,305.204834z M404.920166,400.401062v0.0009155c-8.6655273,4.4005127-16.8378296,9.7106628-24.3796387,15.8406677
		c34.0911865,42.3088379,77.7480774,72.8737183,128.2530212,84.3935242
		c12.1281433,2.7699585,25.6904602,4.1974792,39.495575,3.9614258
		c23.5297241-4.1416016,34.0916748-14.1208191,34.0916748-14.1208191
		C481.2210083,503.4182434,423.2837524,429.1096497,404.920166,400.401062z M232.925827,215.1798553L106.7599487,295.14505
		l81.8775635-33.2356567l-10.656189,23.0329285l38.6873779-6.6016846l-15.5682983,38.2722778l41.6868591-53.4853516
		l-33.7380219,5.4452209L232.925827,215.1798553z"/>
</g>
</svg>
