<?xml version="1.0" encoding="utf-8"?>
<!-- Generator: Adobe Illustrator 22.0.1, SVG Export Plug-In . SVG Version: 6.00 Build 0)  -->
<svg version="1.1" id="Layer_1" xmlns="http://www.w3.org/2000/svg" xmlns:xlink="http://www.w3.org/1999/xlink" x="0px" y="0px"
	 width="720px" height="720px" viewBox="0 0 720 720" style="enable-background:new 0 0 720 720;" xml:space="preserve">
<style type="text/css">
	.st0{fill:#FFFFFF;}
	.st1{fill:#CF0A2C;}
	.st2{fill:#041E41;}
</style>
<g>
	<path class="st0" d="M373.3053284,436.6028137c-7.9957886,19.132843-6.8535461,43.9770203,1.2850342,57.1129761
		l46.5470886,74.5324402l36.1239624-52.2583618h58.9691772l32.2688599-39.693512h-74.8180542l-22.5595398,27.6997986
		l-44.8337097-37.2662354c-0.9994507-0.8567505-2.1417236-5.8540955-0.285553-10.280365l20.4179077-49.402832
		c0,0,4.2834473,20.9890137,31.5549011,20.9890137h162.2009277c7.7102661,0,31.1265869,0,40.1217651-21.7029419
		c8.2814331-19.989563-3.9978638-30.8410339-3.9978638-30.8410339h12.8504028L684,339.9389343h-79.387085
		c-9.3230591-0.1186218-18.5029907,2.2997437-26.5575562,6.9963379l37.4090576-90.3813782h-40.8358154l-41.1213379,99.2338562
		c0,0-7.4246826-15.8488464-31.4121399-15.8488464h-47.9749451l77.9592896-188.1871643h-40.8358459l-77.9592285,188.1873474
		h-99.9477234c-25.5447693-0.036499-49.9362488,10.6315308-67.2505798,29.4131775c0,0-0.1427765-29.413208-35.1244507-29.413208
		h-88.9535522c-35.6956253,0-72.2479401,21.2746277-83.5277557,48.4032898
		c-7.8530273,19.132843,3.284008,39.8363037,28.5564995,39.8363037h34.696167
		c14.4210205,0,29.8415298-9.709198,36.4095535-14.2782288c0,0,7.4246979,14.2782593,28.6992798,14.2782593h48.831604
		l-16.7054749,40.1217651h40.9785156l16.5627747-40.1217957h120.2228394L373.3053284,436.6028137z"/>
	<path class="st1" d="M402.7185364,322.5195923l-5.1401978-15.8488464h-6.5679932l-8.4241333,20.7034607h4.1407166
		l6.7108459-16.1344299l5.282959,16.1344299h6.2822571l8.5669556-20.7034607h-4.1407166L402.7185364,322.5195923z
		 M362.3110962,316.9511108c1.5372314-4.4431763,5.7215576-7.4238281,10.4231567-7.4247131
		c4.4262695,0,6.1396179,2.5700684,4.140686,7.4247131c-1.4741821,4.5097656-5.6785583,7.5622864-10.4231262,7.5675659
		C362.0255127,324.5186768,360.3121338,321.9485779,362.3110962,316.9511108z M365.0239563,327.945343
		c7.328064,0.3404846,14.0311279-4.1089478,16.5627136-10.9942322c3.1412354-7.1391296,0.1427917-10.8514099-7.5674438-10.8514099
		c-7.274353-0.3003845-13.9332581,4.0622864-16.5627747,10.8514099c-2.9984741,7.2818909,0,10.9942017,7.5674438,10.9942017
		L365.0239563,327.945343z M338.0380859,327.3742065h4.5690613l7.1391296-17.2767029h7.9957886l1.4278564-3.4267883h-20.4179077
		l-1.4277954,3.4267883h7.8529968L338.0380859,327.3742065z M332.3267822,313.3815308
		c1.9989624-4.8546143-1.713501-7.2818909-7.9958191-7.2818909c-7.3423157-0.1706848-14.0579224,4.1182556-16.9910889,10.8513794
		c-3.1412354,7.5675964,0.7138977,10.9942627,8.4241333,10.9942627c3.8340759-0.0226135,7.640686-0.6490173,11.2798157-1.8561707
		l3.9979248-9.5664368h-11.1370544l-1.2850647,3.1412354h6.5679932l-1.5706177,3.9978943
		c-2.0090942,0.5090332-4.0679626,0.7963257-6.1396484,0.8567505c-6.4252014,0-6.8535767-3.7123108-5.282959-7.5675659
		c1.8819275-4.7021484,6.5030823-7.7258911,11.5653687-7.5675659c2.2845459,0,4.8546143,1.1422424,3.7123413,3.9978943
		L332.3267822,313.3815308z M279.4971924,327.3742371l6.7108154-16.1344299h0.1427612l5.282959,16.1344299h6.2824097
		l8.5669556-20.7034302h-4.2834778l-6.5679626,15.8488159l-5.1401978-15.8488464h-6.5679932l-8.566864,20.7034302
		L279.4971924,327.3742371z M269.0740662,327.3742371l8.5669556-20.7034302h-4.7118225l-8.5669556,20.7034302H269.0740662z
		 M242.2309418,327.3742371l3.5695496-8.8525085h11.2798309l-3.7123413,8.8525085h4.7118225l8.5669556-20.7034302h-4.5689697
		l-3.5695496,8.4241333h-11.2798309l3.4267883-8.4241333h-4.5689697l-8.5669556,20.7034302H242.2309418z M237.8046722,312.8103943
		c1.5706329-4.140564-0.713913-6.7108154-6.7108154-6.7108154c-4.8546143,0-9.9947662,1.9989624-11.9937439,6.7108154
		c-3.5695496,8.4241638,13.1359863,4.2834778,11.1370392,8.8525085c-0.5711365,1.5706482-2.7128601,3.1412354-6.5679779,3.1412354
		c-3.5695648,0-4.8546295-1.4278259-3.9979095-3.8551331h-4.7117004c-1.8561707,4.426239,0.8567505,6.9963379,6.8535614,6.9963379
		c6.9963379,0,11.7081451-2.5700989,13.5643311-6.8535767c3.7123413-8.9953003-13.4216461-3.7123413-11.1370392-8.9953003
		c1.0524445-1.8302307,3.0301971-2.9289551,5.1401825-2.8556213c3.2839813,0,4.7118073,0.9994812,3.712326,3.5695496H237.8046722z
		 M203.3942108,319.378418H194.82724l7.9958038-8.9953003L203.3942108,319.378418z M182.6907349,327.3742371h4.9973145
		l4.1407013-4.5690308h11.8509674l0.42836,4.5690308h5.5684967l-1.9989471-20.7034302h-5.8540802L182.6907349,327.3742371z
		 M170.8397827,310.8114624h0.1427765l-1.1422424,16.5627747h5.7113037l15.8488617-20.7034302h-4.5690613l-12.1364899,16.1343994
		l1.1422424-16.1344299h-5.8540802l-12.1364899,16.1344299l1.1422424-16.1344299h-4.9974823l-1.1422424,20.7034302h5.5684967
		L170.8397827,310.8114624z M389.1542664,288.8229675l14.135498-10.2803345l14.1354675,10.2803345l-5.4257202-16.5627441
		l14.135498-10.2803345h-17.4194946l-5.4256897-16.7054749l-5.4257202,16.7054749h-17.5621948l14.2782593,10.2803345
		L389.1542664,288.8229675z M297.3451233,288.8229675l14.135498-10.2803345l14.2782288,10.2803345l-5.4257202-16.5627441
		l14.135498-10.2803345h-17.5622253l-5.4257202-16.7054749l-5.282959,16.7054749H288.635498l14.1354675,10.2803345
		L297.3451233,288.8229675z M205.6787567,288.8229675l14.1354675-10.2803345l14.1354828,10.2803345l-5.4258118-16.5627441
		l14.2782593-10.2803345h-17.5622406l-5.4257202-16.7054596l-5.4257202,16.7054596h-17.4194946l14.1354828,10.2803345
		L205.6787567,288.8229675z"/>
	<polygon class="st1" points="527.7953491,486.147583 478.3948364,486.147583 462.2597656,506.1368713 511.5194397,506.1368713 	"/>
	<path class="st2" d="M359.4554443,349.7910461l-20.9890137,50.6877441
		c-5.4257813,13.2788086-15.277832,17.7050781-24.9870605,17.7051392h-54.114502l6.5679932-15.7060547h45.1192627
		c4.4189453-0.3787231,8.2919922-3.1063232,10.1375732-7.1391602l12.2792969-29.6987305h-19.418335
		c-30.2700195,0-49.2600098,16.9910889-57.9697266,37.9801025l-22.7024536,54.6856689h-19.5612183l23.9874878-57.9697266
		c12.5198364-30.6699829,42.4050903-50.6688232,75.5319214-50.5449829H359.4554443z M389.2969971,349.7910461H369.87854
		l-6.5679932,15.848877h19.418457L389.2969971,349.7910461z M359.7409668,374.349762l-18.276001,43.8341064h19.5610352
		l18.1334229-43.8341064H359.7409668z M198.5396118,418.1838074l1.8561401-4.140564
		c-4.0421753,2.5139771-8.6656494,3.9403076-13.4216309,4.140564h-20.1323242
		c-17.8477783,0-27.1286621-12.2792969-20.7034912-27.6997681c3.7124634-8.9953003,15.277832-16.1343994,30.9838867-16.1343994
		h39.6935425c0,0,3.5695801-8.7097778-8.1386108-8.7097778h-55.1140137l6.5679932-15.8488159h50.8305664
		c19.5612183,0,29.9842529,13.4215088,23.1307373,29.8415527l-15.9915771,38.5512695L198.5396118,418.1838074z
		 M207.9631958,395.4814148l3.2839966-7.7102661c-3.7694702,1.5241699-7.7857666,2.3468018-11.8509521,2.4273071h-27.4141846
		c-3.7766113,0.2696533-7.1104126,2.5650024-8.7097778,5.9968872c-1.4277954,3.4267578,0.1428223,6.2824097,3.5695801,6.2824097
		h29.8415527C201.4179077,402.3106384,205.7097778,399.6485901,207.9631958,395.4814148z M581.1966553,266.4061584
		l-62.8243408,151.777771l19.418457-0.000061l62.9671631-151.77771H581.1966553z M396.864502,452.7372131l120.5084229-290.9906616
		h-19.5611572L419.852417,349.9338074h-23.1307373l-6.5679932,15.848877h23.2736816l-30.9838867,74.5324707
		c-6.425293,15.7060547-6.2824707,37.2662354,0.5710449,48.1176758l38.5512695,61.8248596l25.4152832-36.8379517
		l-46.9753418-39.122345C395.0084229,470.299469,393.5804443,460.4474792,396.864502,452.7372131z M116.1540527,365.6398621
		l0.000061,0.000061h25.9863892l6.4252319-15.848877h-26.5575562c-31.4121704,0-64.680481,18.9901123-74.3896484,42.2636108
		c-5.8540649,14.135498,2.7128296,26.1292114,19.418396,26.1292114h34.696167
		c15.1348877,0,33.4110718-14.4210205,33.4110718-14.4210205l-16.1343994-6.8535767
		c-4.5167236,3.2647705-9.8600464,5.1943359-15.4205322,5.5685425H70.4636841c-4.140686,0-5.9968262-4.140564-3.7123413-9.423645
		C73.0337524,377.9191589,95.164978,365.6398621,116.1540527,365.6398621z M598.3306885,365.6399231h64.2520752l6.5679932-15.848877
		h-64.5377197c-13.4216309,0-26.8431396,5.8540649-30.9838867,15.848877
		c-5.9968262,14.5637817,1.8562012,26.2719727,17.5622559,26.2719727h39.6936035
		c2.8555908,0,4.2834473,2.4273071,2.9984131,5.282959c-1.2941895,3.0093384-4.1574707,5.0466309-7.4248047,5.282959h-72.5334473
		l-6.5681152,15.7060547h72.8192139c13.5643311,0,25.8436279-2.9984131,31.1265869-15.7060547
		c5.9968262-14.4210205-1.8562012-26.2719727-17.5622559-26.2719727h-39.6934814
		c-2.8555908,0-4.2834473-2.4273071-3.1412354-5.282959C592.2655029,367.9670715,595.0924072,365.9555969,598.3306885,365.6399231z
		 M525.3686523,379.6325989l-16.1343994,38.5512695h-19.418457l1.713501-4.140564
		c-4.0422363,2.513916-8.6656494,3.9402466-13.4216309,4.140564h-20.1324463
		c-17.8476563,0-27.1286621-12.2792969-20.7033691-27.6998291c3.7124023-8.9952393,15.277832-16.1343994,30.9838867-16.1343994
		h39.6936035c0,0,3.5695801-8.7097168-8.1386719-8.7097168h-61.6820068l6.5679932-15.848877h57.3984375
		C521.7991943,349.7910461,532.0794678,363.2125549,525.3686523,379.6325989z M502.3806152,387.7711487
		c-3.7694092,1.5241699-7.7857666,2.3468018-11.8509521,2.4273071h-27.4143066
		c-3.7766113,0.2695923-7.1103516,2.5650024-8.7097168,5.9968872c-1.4277344,3.4267578,0.2856445,6.2824097,3.5695801,6.2824097
		h29.8415527c4.7722168-0.1638184,9.1083984-2.8197632,11.4226074-6.9963379L502.3806152,387.7711487z"/>
</g>
</svg>
