<?xml version="1.0" encoding="utf-8"?>
<!-- Generator: Adobe Illustrator 22.0.1, SVG Export Plug-In . SVG Version: 6.00 Build 0)  -->
<svg version="1.1" id="Layer_1" xmlns="http://www.w3.org/2000/svg" xmlns:xlink="http://www.w3.org/1999/xlink" x="0px" y="0px"
	 width="720px" height="720px" viewBox="0 0 720 720" style="enable-background:new 0 0 720 720;" xml:space="preserve">
<style type="text/css">
	.st0{fill:#FFFFFF;}
	.st1{fill:#010101;}
	.st2{fill:#CF4520;}
	.st3{fill:#89734C;}
</style>
<g>
	<path class="st0" d="M529.1116943,489.7387085h0.0163574c-9.7514038,0.3723755-13.9799805-0.7136536-16.6367188-1.9943237
		c-2.9325867-1.4104309-6.9016418-4.4591675-13.8518066-13.8648987
		c46.0735474-38.4778442,76.0108643-95.7180786,77.9708252-159.8823242l83.625061-129.6903992
		c0,0-40.4193115-21.1116638-108.5563965-39.0786438c27.1508179-36.8411407,44.7285156-60.7098694,44.7285156-60.7098694
		s-48.0983887-12.7456207-55.112854-13.8970795c-4.00177-0.6487808-10.8380127-1.3450012-18.192688,1.6377716
		c-6.0903931,2.4653854-10.3516846,6.5510941-13.3327942,10.5402985
		c-0.2104492,0.275322-12.3443604,16.7500916-31.540741,42.7756195
		c-34.0203247-22.2467651-74.6342163-35.1870193-118.2118225-35.1870193
		c-43.5781555,0-84.1915283,12.9402542-118.2118225,35.1870193c-10.508667-14.2623596-21.0222473-28.5214386-31.540741-42.7756195
		c-2.9647827-3.9892044-7.2413025-8.074913-13.3333435-10.5402985c-7.3547058-2.9833145-14.1740265-2.2865524-18.1921234-1.6377716
		c-7.0150604,1.1514587-55.1118011,13.8970795-55.1118011,13.8970795s17.624588,23.9167023,44.8239288,60.8390808
		c-67.9577332,17.9353485-108.6534271,38.9494324-108.6534271,38.9494324l83.625061,129.6903992
		c0.1619263,5.1886292,0.5348358,10.3129272,1.0533142,15.4203491c-37.6649323,1.4763794-60.13414,19.9127808-60.13414,49.4891663
		c0,29.576416,28.6086731,60.3538818,69.5780487,71.8825989c10.9181213,3.0803833,22.2075195,4.6407166,33.5508881,4.6374512
		c4.5191345,0,9.1364136-0.2753296,13.7204285-0.7616272c6.3188324,6.826416,13.0580139,13.2640991,20.1859283,19.214386
		c-6.9496307,9.3893738-10.9186707,12.4544678-13.8507385,13.8648987
		c-2.6572876,1.2806702-6.8683929,2.3514404-16.6377869,1.9943237C190.9373779,489.7387085,36,482.8959351,36,482.8959351
		l30.1161423,71.8657227c2.3650665,5.5947876,6.2534103,12.2914429,13.4456482,17.0592041
		c7.500824,4.9613037,15.3740158,5.6912842,20.8657837,5.6912842h95.4661942c10.9192047,0,22.226593-0.7463379,33.1785126-6.2588501
		c11.9714355-6.0325928,20.4928741-16.2964478,28.8845367-27.5820313
		c2.3323669-3.1305542,8.6021118-11.6432495,17.901001-24.2427368l84.1424561,130.5174561L444.14328,519.4285278
		c9.2988586,12.5994873,15.5680847,21.0969238,17.901001,24.2427368
		c8.3753052,11.3013916,16.8967285,21.5494385,28.8850708,27.5820313
		c10.9508362,5.5125122,22.2582092,6.2588501,33.1769104,6.2588501h95.4667358
		c5.4923096,0,13.3654785-0.7299805,20.8657837-5.6912842c7.1932983-4.7677612,11.0805664-11.4644165,13.446167-17.0592041
		L684,482.8959351C684,482.8959351,529.0637207,489.7387085,529.1116943,489.7387085z"/>
	<path class="st1" d="M529.402832,497.2608032h0.0005493c-10.3026123,0.3892517-15.9404907-0.6815186-20.1853943-2.7238159
		c-4.5845642-2.2058716-9.4439087-6.4376831-16.6530457-16.1836243c-0.7458191-1.0053406-2.3977661-3.2428284-4.8446045-6.5505371
		c47.9364624-37.3765564,79.1865845-95.2650146,80.4492798-160.3702698l79.850647-123.8360748
		c0,0-41.9104004-20.0905151-109.8201294-36.7768097c15.1902466-20.6150055,30.3058472-41.1787415,45.5718994-61.8444366
		c0,0-37.1638794-9.8435364-43.6920776-10.9132156c-3.5001831-0.5670013-8.6991577-1.021698-14.1598511,1.1841736
		c-4.4869995,1.8160477-7.7429199,4.8642426-10.1079712,8.0585556c-0.227356,0.3091278-14.4182739,19.5398636-36.3853455,49.3430634
		c-33.8262024-23.7880402-75.0223999-37.7816162-119.4090576-37.7816162c-44.3872375,0-85.5861511,13.993576-119.4123535,37.7816162
		c-21.9681702-29.8031998-36.1591034-49.0350266-36.38591-49.3430634c-2.3808746-3.194313-5.6204376-6.2425079-10.10849-8.0585556
		c-5.4590607-2.2058716-10.6596985-1.7511749-14.1587677-1.1841736C173.4076538,79.1327896,136.2612,88.975235,136.2612,88.975235
		l45.5697479,61.8444366c-67.9097443,16.6862946-109.819046,36.7768097-109.819046,36.7768097l79.8495636,123.8360748
		c0.1820984,8.7008057,0.9017639,17.381958,2.1546173,25.9938965c-1.5712585-0.0648804-61.6574249-4.0704346-61.6574249,41.4786072
		c0,28.8632813,29.0797272,54.4346619,63.7477112,64.180603c15.7780151,4.4422607,32.124115,5.4803162,48.8256683,3.0639954
		c8.3447876,9.3244934,17.4806671,17.9348145,27.3623657,25.6531677c-1.6159668,2.1780396-3.2253876,4.3621216-4.8277283,6.5505371
		c-7.2085876,9.7459412-12.0690308,13.9941101-16.6524963,16.1836243
		c-4.2454529,2.0422974-9.8827972,3.1130676-20.1864624,2.7238159l-143.077713-6.3242798l25.5304909,60.9050293
		c2.0739288,4.8642578,5.1848221,10.0687256,10.6596909,13.6855469c5.7022171,3.7781982,11.8422318,4.4428101,16.7026596,4.4428101
		h95.4667358c10.6596985,0,20.4759674-0.7780151,29.7911987-5.4644775
		c10.238266-5.1564941,17.8693848-14.0911865,26.211441-25.3440552c2.8999176-3.9085083,11.8269806-15.9890137,24.964035-33.8093262
		l83.1392822,128.9276733l83.1382141-128.9276733c13.1381531,17.8039551,22.0641174,29.9008179,24.9640198,33.8093262
		c8.3589478,11.2692261,15.9737244,20.187561,26.2119751,25.3440552c9.3157959,4.6864624,19.1320496,5.4644775,29.7923279,5.4644775
		h95.4661865c4.8762207,0,10.9998779-0.6646118,16.7015381-4.4428101c5.4759521-3.6320801,8.6021118-8.8212891,10.659729-13.6855469
		l25.5326538-60.9050293L529.402832,497.2608032z"/>
	<path class="st2" d="M258.9763489,460.1274109c8.0514526,5.1564941,15.7627258,9.6478271,23.230835,13.5067139
		c-22.2582092,30.193573-37.8595734,51.3226624-41.9578094,56.8509827
		c-15.7463837,21.2103271-22.679657,24.9231567-44.3392487,24.9231567h-95.4661942
		c-7.1933289,0-10.9355621-2.0422974-13.9979324-9.2585449c-3.0612869-7.1993408-16.6203384-39.6467285-16.6203384-39.6467285
		s91.9998245,4.2492371,120.2366714,5.3189392c23.4412994,0.8750305,34.1326141-4.6210938,49.0688324-24.8092041
		L258.9763489,460.1274109z M263.9986877,192.8985138c-23.8109283-32.2980194-47.628952-64.5889435-71.4426117-96.8864212
		c-2.7537994-3.7127914-5.7016754-4.3125076-10.2540741-3.5677719c-5.4110718,0.8766785-15.0986938,3.29245-21.6912079,5.060524
		c0,0,40.5473938,55.018013,92.7772827,125.8952713C255.9952087,212.9410553,259.5924072,202.6929932,263.9986877,192.8985138z
		 M559.4224854,97.4884872c-6.5936279-1.768074-16.28125-4.1838455-21.6917725-5.059433
		c-4.5529175-0.7458267-7.5013428-0.1461105-10.2546387,3.5666809c-0.8591919,1.1351013-28.7389526,38.9663315-66.8901978,90.709343
		c4.4548035,8.8529205,8.5863037,18.2739258,12.3279724,28.1654358
		C522.097168,148.144928,559.4224854,97.4884872,559.4224854,97.4884872z M529.9698486,511.8055725h-0.0152588
		c-23.4413147,0.8913879-34.133728-4.6047363-49.0704956-24.8092041
		c-6.9387207-9.3899231-13.8725281-18.7831421-20.7998047-28.1817932
		c-6.3668213,5.9982605-13.592865,11.2850342-21.4976807,15.8259888
		c21.8531494,29.6407471,37.1464539,50.3641968,41.1961975,55.828186
		c15.730011,21.2103271,22.6632996,24.9242554,44.3397522,24.9242554h95.4667969
		c7.1921997,0,10.9349976-2.0597534,13.9962769-9.2596436c3.0618286-7.2162476,16.6208496-39.6462097,16.6208496-39.6462097
		S558.206665,510.7359009,529.9698486,511.8055725z M346.6832886,303.9480896
		c5.7354736,3.8588867,13.6724548,4.6538086,21.4654846,1.4104309c11.9714661-4.9782104,19.2781982-17.6747437,17.058136-29.0257568
		C371.2912903,284.440918,359.0603638,295.6130981,346.6832886,303.9480896z"/>
	<path class="st3" d="M156.6908264,262.2383118l-38.8485641-60.2398987
		c25.3374863-9.8915253,51.8242569-18.079834,79.3801498-24.5175171
		C177.7670593,201.8850098,163.6562653,230.7324677,156.6908264,262.2383118z M522.8103027,177.480896
		c19.4564209,24.4041138,33.5667114,53.2515717,40.5326538,84.7574158l38.8474731-60.2398987
		C576.8540649,192.1068878,550.3667603,183.9185791,522.8103027,177.480896z M317.2971802,511.3214417l42.7194519,66.256134
		l42.7194519-66.2556152c-14.0497131,2.9380493-28.365509,4.416626-42.7194519,4.4111938
		C345.6632385,515.7369995,331.3479919,514.2589722,317.2971802,511.3214417z M317.2644653,297.2808533
		c27.4103088-1.3297119,50.9977112-42.5166321,94.4782715-42.5166321c12.5395508,0,23.9603271,5.3347473,29.0301208,14.0747986
		c-4.2438049-13.1021729-17.6900024-26.2043457-38.6037598-25.6526031v0.0163574
		c-38.8638306,1.021698-65.7567749,38.7705841-87.0107422,41.0407867
		c-10.5626526,1.1187439-18.2417603-4.9460144-20.4770508-15.1608276
		C291.2640076,285.3786621,301.1778564,298.0588684,317.2644653,297.2808533z M121.2121277,403.263916
		c3.1752243,3.4865417,6.9496307,6.7937012,11.1618195,9.8260803h0.0163574
		c20.6869507,13.8648987,51.6770477,20.8701477,76.4633484,13.2155762
		c-31.3461151-25.0038147-50.7545776-37.3917847-69.7241669-44.7541504
		C125.2776566,381.8600159,115.751976,389.4644165,121.2121277,403.263916z M287.9584656,295.5776672
		c-1.1509094-4.2650757-1.2948303-8.7389526-0.4214172-13.069458c-8.8605652,3.0645447-22.3552856,0.1466675-24.5905762-19.8304443
		C263.5619812,287.4057007,272.7785645,299.2746582,287.9584656,295.5776672z M448.3712769,197.7513275
		c26.3253784,57.8879242,42.3628845,178.1573029-0.4378052,230.8249969
		c-34.4242859,42.3372803-128.3688354,57.4501343-214.1321564-3.3894958
		c35.9481354,25.7016907,75.1690521,53.2346802,127.6240997,53.2346802c40.0621643,0,78.0187988-16.0522461,97.8803406-41.6405029
		c15.5849915-20.0741577,22.6480103-49.0841064,22.6480103-89.0219727c0-60.4024048-15.6160583-119.7012939-39.1069641-162.3646088
		C444.6573792,189.5275726,446.4985046,193.6459808,448.3712769,197.7513275z"/>
	<path class="st0" d="M529.9698486,511.8071899h-0.0152588c-23.4413147,0.8914185-34.133728-4.6052856-49.0704956-24.8102722
		c-6.93927-9.3893738-13.8725281-18.7836914-20.7998047-28.1817932c-2.5591736,2.4005127-5.230072,4.6783447-8.0035095,6.8269653
		c11.3401184,15.3718262,18.8409424,25.5070496,20.8494263,28.1817932
		c16.2648621,21.7124329,29.9051514,28.7176819,52.8601379,28.1987c4.9100342-0.1123657,12.4849854-0.3424072,21.2681274-0.630249
		c-1.1514282,6.5074463-3.3682251,19.4689331-5.3439941,34.0022583h32.2069702
		c0.8745117-5.2540283,3.5634155-20.7387085,5.7659912-28.3442383c0.7458496-2.5455322,1.2316284-3.8425293,2.6900024-3.5671997
		c1.5385742,0.2753296,1.1340332,2.335083,0.9072266,5.3510742c-0.6804199,9.2258301-1.1825562,17.2200928-1.2643433,26.5603638
		h29.6303711c4.7890015-17.9102173,8.5754395-30.0119629,10.7954712-36.6988525l27.7603149-12.207489
		C650.0778198,506.4882507,558.1914063,510.736969,529.9698486,511.8071899z M561.9494629,544.2872925
		c-0.3571167,2.2860107-0.7616577,3.5514526-1.9441528,3.4544067c-0.7780151-0.0654297-1.2310791-1.7680664-1.3286743-4.7192383
		c-0.3238525-8.8937988,0.8079834-17.656189,1.4884033-22.0706787c2.0924683-0.0719604,4.2050781-0.1455688,6.3341064-0.2197266
		l0.0675659,0.0267334C566.5667114,520.7587891,564.4273682,528.3806152,561.9494629,544.2872925z M599.9867554,543.7355957
		c-0.4857788,1.9638062-1.0206299,2.6114502-1.862915,2.4816895c-0.7458496-0.1134033-1.0697021-0.6809082-1.0042725-2.7406616
		c0.2420654-8.625061,1.9109497-18.6124878,2.9309692-23.9478149c2.4659424-0.0899658,4.802124-0.1755371,6.9643555-0.2556763
		C606.2189331,521.6005859,603.1925049,530.675354,599.9867554,543.7355957z M621.8769531,518.7197266
		c0.321167-0.0119629,0.5299683-0.0201416,0.546875-0.0206909l0.0005493,0.0005493
		C622.4243774,518.699585,622.1991577,518.7077637,621.8769531,518.7197266z M186.9034729,105.7264099l-26.2926788-8.2210236
		c6.592514-1.766983,16.2801361-4.1827545,21.6912079-5.0588837c4.5523987-0.745285,7.5002747-0.1455688,10.2540741,3.5677719
		c0.8919373,1.183075,30.9753723,41.9976273,71.4426117,96.8858871c-1.6595764,3.695343-3.1992188,7.4430237-4.6172791,11.2375946
		C217.8444977,147.740387,186.9034729,105.7264099,186.9034729,105.7264099z M239.1180878,487.0198059
		c-14.9176941,20.187561-25.636261,25.6809998-49.0393982,24.7879333
		c-28.2270355-1.0718384-120.1423492-5.2704163-120.2317657-5.3145752l27.735817,12.2374878
		c2.2331238,6.6546631,5.9840775,18.7580566,10.8079834,36.7124634h29.61129
		c-0.0894165-9.3348389-0.5806274-17.3295898-1.2501373-26.5745239c-0.223526-3.0372925-0.625885-5.0916138,0.8930359-5.3592529
		c1.4736633-0.2677002,1.9648895,1.0270996,2.6796417,3.5726318c2.2331238,7.5929565,4.9127655,23.0907593,5.8058014,28.361145
		h32.2020721c-2.0101471-14.5599976-4.1985626-27.5122681-5.3598328-34.0333862
		c8.7983856,0.2682495,16.3466339,0.536499,21.2594147,0.6259155c22.956604,0.5354004,36.5789032-6.4763794,52.8808441-28.1823425
		c2.0095978-2.6796265,9.4678955-12.8181152,20.8123474-28.182312c-2.9920349-1.7860718-5.9846191-3.6620789-8.9324951-5.5381165
		L239.1180878,487.0198059z M121.9236069,546.2423706c-0.8483276,0.1341553-1.3848038-0.4912109-1.8760223-2.456665
		c-3.2155762-13.0858154-6.2081604-22.1524048-7.0117798-24.4749756l6.9676208,0.2682495
		c1.0271454,5.3145752,2.6790924,15.3189697,2.9473343,23.9390869
		C122.9954605,545.572876,122.682518,546.1529541,121.9236069,546.2423706z M161.3604431,543.0715332
		c-0.0888672,2.9473267-0.5359344,4.6450806-1.2948456,4.6897583c-1.2059784,0.0888672-1.6083374-1.1612549-1.9654388-3.4390869
		c-2.500824-15.9001465-4.599823-23.5372314-4.599823-23.5372314l0.0441589-0.0447388l6.3422699,0.2235718
		C160.5562744,525.3853149,161.7175446,534.1390381,161.3604431,543.0715332z M465.656189,197.3598633
		c-1.6361389-3.6320953-3.3202515-7.1835175-5.0703125-10.6373291
		c38.1517944-51.7430267,66.0473633-89.5568085,66.8901978-90.7082596
		c2.7532959-3.7133408,5.7017212-4.3130569,10.2546387-3.5677719c5.4105225,0.8761292,15.0981445,3.2919006,21.6917725,5.0588837
		l-26.2927246,8.2210236c0,0-28.4799805,38.6741028-67.4735718,91.6170959V197.3598633z M563.3435059,262.2197876
		l38.8469238-60.2393799c-25.3200073-9.89151-51.8078613-18.0640106-79.380127-24.5169678
		c-0.7289429-0.9246521-1.4742432-1.8329468-2.2189331-2.7406921c2.7368774-3.7122498,5.4257813-7.3596191,8.0323486-10.8935852
		c32.8007202,7.8153992,64.6445923,18.1757813,95.3075562,31.3079376l-57.024353,88.4391327
		C566.0864258,276.4009094,564.8967896,269.2724609,563.3435059,262.2197876z M528.6264648,163.825882
		c-0.0010986,0.0010986-0.0021973,0.002182-0.0027466,0.0032806c-0.0048828-0.0010986-0.0092773-0.002182-0.0136108-0.0032806
		H528.6264648z M255.5590515,296.6315308c4.4378967,8.2869873,10.9017639,13.0858154,19.0022888,13.9624939
		c-9.0884399,10.8804932-20.1363068,20.6248169-33.2919159,29.5115356
		C236.6526947,321.2788086,240.7842102,307.0099182,255.5590515,296.6315308z M153.1099701,283.5762329L96.086174,195.1371002
		c30.6667862-13.1338043,62.5161057-23.4952698,95.3206253-31.3112183
		c2.6087646,3.5350647,5.2971344,7.1835175,8.0356598,10.8968658c-0.745285,0.9077454-1.4911194,1.81604-2.220047,2.7406921
		c-27.5722504,6.4529572-54.059021,14.6254578-79.3801498,24.5169678l38.8474655,60.2393799h-0.0152588
		C155.1206512,269.2724609,153.9310303,276.4009094,153.1099701,283.5762329z M251.0622559,437.3420105
		c1.8967438,1.3013611,3.8229218,2.5814819,5.7463684,3.8648987
		C254.8851776,439.9234924,252.9584503,438.6433716,251.0622559,437.3420105z M402.7197266,511.320343
		c7.0625-1.4856567,14.0431824-3.3366089,20.9137573-5.5457458l-63.6168518,98.6697388l-63.6174316-98.6697388
		c6.8634949,2.2167664,13.8392944,4.0677185,20.8979797,5.5457458l42.7194519,66.2556458l42.7194519-66.2556458H402.7197266z
		 M256.8086243,441.2069092c0.966095,0.6444092,1.9169312,1.300293,2.8906555,1.9387207
		C258.7255554,442.5077515,257.7747192,441.8513184,256.8086243,441.2069092z M448.3712769,197.7513275
		c-1.8122559-3.9728546-3.5923157-7.9598846-5.3462219-11.9583588
		c-21.2146912-38.714447-48.8725586-63.8649368-77.2418823-63.8649368v0.0169067
		c-48.6975403,0-102.8694153,73.9739761-102.8694153,138.0248108c0,1.0080566,0.0392456,1.9572449,0.065979,2.9255371
		c2.3132629,19.7704773,15.7305603,22.6660156,24.557312,19.612915c-0.1025085,0.508667-0.1434021,1.0244141-0.2180786,1.5368958
		c0.8079834-5.5751648,3.2330017-10.8968506,7.3623352-14.9623718c2.2352905,10.2148132,9.9143982,16.2795715,20.4770508,15.1608276
		c21.2539673-2.2702026,48.1469116-40.0190887,87.0107422-41.0407867v-0.0163574
		c20.9137573-0.5517426,34.3599548,12.5504303,38.6037598,25.6526031c-0.0316162,0-6.026062-3.1457825-19.8768005-3.1457825
		c-4.8920593,0-9.5256653,0.6160583-13.9810181,1.6541138c6.8525696,48.5329285-45.7164307,69.3856201-75.4591064,44.9160767
		c-5.0714111,2.0106812-10.3031311,3.1948547-15.7790833,3.1948547c-8.6343079,0-15.3255005-2.8055725-20.071991-7.1350098
		c-14.0611877,19.1991272-35.5588379,40.0038452-62.9048309,54.58078
		c23.927597,13.5563354,44.1293488,31.7659302,56.0844269,51.3537598
		c-65.1074371-43.035675-105.8663788-59.5093689-139.4984894-59.5093689c-25.1096039,0-39.1876831,9.1773071-39.1876831,24.2569275
		c0,8.1495972,4.1783905,16.543457,11.0713196,24.1325989c-5.3500214-13.7171631,4.1516724-21.2790527,17.9598846-21.5865479
		c35.2726135-0.45578,65.7840271,23.0792847,99.4870148,47.0625305c-1.6066895-1.14328-3.2221069-2.288208-4.8151855-3.427124
		c85.7633209,60.8396301,179.7078705,45.7267761,214.1321564,3.3894958
		C490.7341614,375.9086304,474.6966553,255.6392517,448.3712769,197.7513275z M299.4763184,240.0733337
		c-0.6307983,6.8269653-4.6488953,12.04776-8.9581299,11.6426849c-4.3092651-0.4056244-7.2903748-6.2588654-6.657959-13.1021729
		c0.6313477-6.8269653,4.6494446-12.0314178,8.9586792-11.6426849
		C297.127594,227.3767853,300.1081848,233.2300262,299.4763184,240.0733337z M313.1825562,197.2966309
		c-3.1599426,6.081131-8.9592285,9.3403168-12.960968,7.2652893c-4.0011902-2.0761108-4.6810608-8.6920776-1.5221863-14.7879181
		c3.1588745-6.081131,8.9586792-9.3403168,12.9593201-7.2653046
		C315.6604919,184.5848083,316.3414307,191.2007751,313.1825562,197.2966309z M332.1848755,249.8187408
		c-2.7538147,6.2915802-8.2619324,9.9400177-12.3285522,8.1561432c-4.0660706-1.7838745-5.1194153-8.3186188-2.3808899-14.5938416
		c2.7538147-6.2915649,8.2619324-9.940033,12.3274536-8.1561432
		C333.868988,237.0087891,334.9223022,243.5435181,332.1848755,249.8187408z M327.0660095,164.980072
		c-3.0618286-3.3240662-1.4753113-9.7781067,3.5634155-14.4482727c5.0386963-4.6538086,11.5996094-5.7398376,14.661438-2.4321289
		c3.0618286,3.3251648,1.473114,9.7781219-3.5639648,14.4482727
		C336.6887207,167.2017517,330.1272888,168.2877808,327.0660095,164.980072z M359.0930786,212.7829437
		c-4.9089661,4.7841034-11.4371643,6.0478821-14.58078,2.8213959c-3.1424866-3.2264709-1.7167969-9.7290344,3.2079468-14.5131378
		c4.9089661-4.7835693,11.4371643-6.0473328,14.5796814-2.8208466
		C365.443512,201.4968262,364.0014648,207.9993896,359.0930786,212.7829437z M397.3408203,187.9732056
		c-6.2370605,2.8377533-12.8143005,1.8007965-14.6930542-2.3350677c-1.879303-4.1347809,1.651947-9.7775726,7.8890076-12.6147766
		c6.23703-2.8377533,12.8143005-1.8007813,14.6941528,2.3345337
		C407.1096497,179.4926758,403.5778809,185.1354675,397.3408203,187.9732056z M295.6866455,367.0230103
		c-4.3910217,1.1509094-9.3479614-3.3082581-11.081665-9.940033c-1.7326355-6.6317749,0.4219666-12.9396973,4.7955322-14.091156
		c4.3899231-1.1509094,9.3479614,3.3082581,11.0805969,9.9394836
		C302.2148438,359.5636292,300.0602112,365.871582,295.6866455,367.0230103z M315.8545837,406.0209656
		c-3.8065796,2.3999634-9.8648071-0.3728943-13.5110779-6.1781616c-3.644104-5.8052673-3.5143433-12.4533997,0.3080444-14.8528137
		c3.8070984-2.4005127,9.8664246,0.3723755,13.5105286,6.1776428
		C319.8083496,396.9723206,319.6780396,403.6210022,315.8545837,406.0209656z M316.972229,341.7106018
		c-3.1904907-6.064209-2.5427856-12.6965332,1.4584045-14.8206177s9.8500671,1.0860291,13.0580139,7.1513367
		c3.1904907,6.0642395,2.5427856,12.697113-1.4584045,14.8211975S320.1801758,347.7753906,316.972229,341.7106018z
		 M348.8706055,438.4672852c-2.8186646,3.4222107-9.3959045,2.6594849-14.6772461-1.7189941
		c-5.281311-4.3616028-7.2740173-10.6847839-4.4548035-14.1075439c2.8186646-3.4205627,9.3959351-2.6583557,14.6767273,1.7190247
		C349.6971436,428.7218933,351.6893005,435.0461731,348.8706055,438.4672852z M356.355072,378.876709
		c-3.1593933,3.2101135-9.6881409,1.8967285-14.5638428-2.9353638c-4.8757019-4.8162537-6.2528687-11.3346252-3.0939941-14.5447693
		c3.1588745-3.2106628,9.6870728-1.8972778,14.5638428,2.9342651
		C358.1367798,369.1471252,359.5139465,375.6654968,356.355072,378.876709z M391.7841797,401.8213196
		c-2.0892029,4.2160034-8.7635193,5.172821-14.9035034,2.1240845c-6.1400146-3.0481873-9.4122925-8.9346924-7.3220215-13.1670532
		c2.0892029-4.2160034,8.7635193-5.172821,14.9035339-2.1246338
		C390.6021729,391.7024536,393.8744507,397.5884094,391.7841797,401.8213196z M399.398407,353.2557068
		c-6.2861328,2.7243347-12.8950195,1.4273376-14.7748413-2.8857422c-1.8629456-4.3135986,1.7173462-10.0370789,8.003479-12.7614136
		c6.2861328-2.724884,12.894989-1.4267883,14.7748413,2.886261
		C409.2642822,344.8084106,405.6834412,350.5318909,399.398407,353.2557068z M433.9693298,416.1234741
		c-1.1176453,4.5725708-7.420105,6.9556274-14.0775146,5.3178406c-6.6585083-1.6377563-11.1465759-6.6644897-10.0125427-11.2533875
		c1.1176453-4.5725708,7.4364929-6.9561768,14.0786133-5.3184204
		C430.616394,406.5067444,435.103363,411.5339966,433.9693298,416.1234741z M443.5593567,339.3275452
		c-6.7386475,1.2163391-12.894989-1.6061401-13.7378845-6.2915649c-0.8417664-4.6859741,3.937439-9.4864197,10.6760559-10.7027588
		c6.7397461-1.2157898,12.8955383,1.5887146,13.7378845,6.2915649
		C455.0782776,333.3113098,450.2985535,338.1112366,443.5593567,339.3275452z M259.6992798,443.1456299
		c2.9048157,1.9060059,5.8401489,3.7836609,8.8147278,5.6177063
		C265.5394287,446.9292908,262.6040955,445.0516357,259.6992798,443.1456299z M238.6165009,428.6139526
		c1.3150177,0.9355469,2.6213074,1.868927,3.9461365,2.8044739
		C241.2383575,430.4828796,239.9304199,429.5494995,238.6165009,428.6139526z M247.5550079,434.9011536
		c-1.6683044-1.1601868-3.341507-2.3170776-4.9923706-3.4827271
		C244.2129517,432.5829773,245.8872528,433.7409668,247.5550079,434.9011536z M247.5550079,434.9011536
		c1.1699982,0.8145142,2.3279877,1.6312256,3.5072479,2.4408569
		C249.8835449,436.5329285,248.7244568,435.7151184,247.5550079,434.9011536z"/>
</g>
</svg>
