<?xml version="1.0" encoding="utf-8"?>
<!-- Generator: Adobe Illustrator 22.0.1, SVG Export Plug-In . SVG Version: 6.00 Build 0)  -->
<svg version="1.1" id="Layer_1" xmlns="http://www.w3.org/2000/svg" xmlns:xlink="http://www.w3.org/1999/xlink" x="0px" y="0px"
	 width="720px" height="720px" viewBox="0 0 720 720" style="enable-background:new 0 0 720 720;" xml:space="preserve">
<style type="text/css">
	.st0{fill:#FFB81C;}
	.st1{fill:#003087;}
	.st2{fill:#FFFFFF;}
	.st3{fill:#C8102E;}
</style>
<g>
	<circle class="st0" cx="360" cy="360" r="324"/>
	<circle class="st1" cx="360" cy="360" r="305.2339478"/>
	<path class="st2" d="M615.9788208,225.4673767c-0.0973511,0.9400024-0.5512085,3.3388062-1.0050659,5.31604
		c-0.4538574,2.0097046-1.2962646,5.024231-1.880249,6.7421265c-0.6157227,1.6856079-1.7501221,4.732605-2.5604858,6.7423096
		c-0.8103638,1.9772339-2.3662109,5.4456177-3.4682007,7.6497803c-1.102417,2.2366333-3.144104,5.9968262-4.5705566,8.3630371
		c-1.4264526,2.3661499-3.4682007,5.5753784-4.5056763,7.1312256c-1.0375366,1.5558472-2.6257935,3.7924194-3.5335083,4.9917603
		c-0.9072876,1.1671143-2.3986206,3.1118774-3.3708496,4.2787476c-0.972168,1.1993408-2.6253662,3.1443481-3.6628418,4.3112183
		c-1.0374756,1.1993408-4.5377197,4.9917603-7.8116455,8.4926147c-3.2414551,3.4683838-9.3682251,9.8214722-13.5819092,14.1002197
		s-11.506958,11.4749146-16.1748657,16.0128174c-4.6679077,4.538147-11.1508179,10.729248-14.3922729,13.7762451
		c-3.2414551,3.046936-8.8815308,8.2333984-12.5119629,11.5720215c-3.6304321,3.3063354-9.8537598,8.9464722-13.8731995,12.5119629
		c-3.9869385,3.5657349-13.2578125,11.6369019-20.5835571,17.925354s-16.5962524,14.1651611-20.6156616,17.5039673
		c-3.9868774,3.338623-10.4049072,8.6546631-14.2624512,11.8636475
		c-3.8571777,3.1765747-13.0631714,10.6320801-20.4534302,16.5313721
		c-7.390625,5.9319458-17.2119141,13.7439575-21.8153687,17.3743896
		c-4.5701294,3.6303711-14.1322632,11.0532837-34.0352783,26.3530273l0.5836182,0.486145
		c0.3565063,0.2918091,4.927063,3.5979614,10.1782227,7.390625c5.2511597,3.7599487,13.9060059,9.9512939,28.9460449,20.5831299
		l0.0648804,2.9498901c0.0324097,1.5882568-0.0973511,4.4407349-0.291626,6.2883911
		c-0.3240967,2.6256104-0.5512085,3.6951294-1.1344604,4.8297729c-0.4213867,0.8427734-1.1992798,2.1716919-1.7504883,2.9820557
		c-0.5507813,0.8103638-1.6531982,2.2041931-3.8895874,4.6677551l-10.243103-7.4877625
		c-5.6401367-4.1491699-16.8554688-12.4473267-24.9591064-18.5088501
		c-9.0762329-6.7420654-14.8781738-10.923645-15.072876-10.7938843c-0.1946411,0.0971069-5.8671875,4.3109741-12.609314,9.3676758
		c-6.7420654,5.0566406-17.8280029,13.2901001-37.0175781,27.3904114l-1.5233765-1.6531982
		c-0.8753052-0.9075317-2.0742188-2.4635925-2.7227173-3.4684143c-0.6485596-1.0048828-1.4264526-2.3013306-1.7180786-2.8847656
		s-0.680603-1.977417-0.8424072-3.0794067c-0.1947021-1.1346436-0.3244629-3.9869385-0.3244629-6.3533325
		c0-2.3662109,0.0324097-4.3112183,0.0648804-4.3112183c0.0324097-0.0322266,3.824707-2.6902466,8.4277344-5.899292
		c4.5705566-3.2414551,13.4520874-9.5947876,19.7403564-14.1328735c6.2561646-4.5054932,11.3775635-8.2981567,11.3450928-8.362854
		c0-0.0648804-5.607666-4.4407349-12.4470825-9.6920776c-6.8070068-5.2511597-17.0821533-13.2250366-22.7871704-17.7307129
		s-15.5916138-12.3823853-21.9771729-17.5039673c-6.3531494-5.1213379-15.3320313-12.3823853-19.9030151-16.1748047
		c-4.6026001-3.7600098-11.0206146-9.0760498-14.2945404-11.8312378c-3.2414551-2.7229004-8.75177-7.390625-12.2528076-10.3726807
		c-3.4681396-2.9498901-9.3999023-8.0390015-13.1925659-11.3126831
		c-3.7601929-3.2739258-10.3079834-9.0113525-14.5220337-12.7713623
		c-4.2136841-3.7601929-10.2102661-9.1734009-13.3219604-11.9934082c-3.1120605-2.8200684-9.3682861-8.5574951-13.8735352-12.803833
		c-4.5056763-4.2138672-14.3273926-13.7113037-21.7825317-21.1343384
		c-7.4555054-7.3904419-17.0176392-17.1472778-21.2641602-21.6853638c-4.24646-4.5054932-8.8491211-9.5946045-10.2751465-11.3126831
		c-1.4264526-1.6854248-3.4685669-4.2787476-4.6033936-5.7697144c-1.1016235-1.4911499-3.1116943-4.3111572-4.4404297-6.3208618
		c-1.3615112-2.0097046-3.4360962-5.3485107-4.635437-7.390625c-1.2317505-2.0744019-3.0471802-5.4780884-4.0518188-7.5524292
		c-1.0046387-2.074585-2.463562-5.2189331-3.2090454-7.001709c-0.7454224-1.7827148-1.8474121-4.6676636-2.463501-6.4504395
		s-1.4589233-4.6352539-1.8799438-6.3209229c-0.4537964-1.7178345-0.9401245-4.1813965-1.1348267-5.4780273
		c-0.1942749-1.2640381-0.2591553-2.3338013-0.1618042-2.3338013c0.1293945,0,2.7875977,2.9821167,5.9317017,6.6449585
		c3.144165,3.6629028,8.6548462,9.9512939,12.2852783,13.9382324c3.6304321,3.9871216,9.9514771,10.7941284,14.0682373,15.072876
		c4.0838623,4.3112183,13.5490723,13.8733521,21.0045776,21.2639771c7.4550781,7.4228516,17.50354,17.1796875,22.3008423,21.6853638
		c4.8297729,4.5056763,12.7391357,11.8636475,17.633728,16.3044434
		c4.8946533,4.4407349,12.2199707,11.0534668,16.3042603,14.6838989c4.0518188,3.6304321,11.2156982,9.9188232,15.883606,13.9706421
		c4.6675415,4.0518188,12.7062988,10.9561768,17.8929443,15.3320313
		c5.1858521,4.3760986,13.2894745,11.1831055,18.054306,15.1053467c4.7327881,3.9220581,12.1234131,9.9835205,16.4019775,13.484375
		c4.3114014,3.4683838,12.2852783,9.8864136,17.7631226,14.2625122
		c5.4782715,4.3434448,14.0357666,11.0856934,18.9953003,14.9430542s12.3497314,9.5299072,16.434021,12.6417847
		c4.0518188,3.1116333,11.2156982,8.557312,15.8832397,12.0905762c4.6674805,3.5330811,8.5895386,6.5153809,8.75177,6.6449585
		c0.1622314,0.1297607,3.9220581-2.5282593,9.6919556-6.8394775c5.1541748-3.8897705,12.8684692-9.7243652,17.0825195-12.99823
		c4.2140503-3.2414551,11.4424438-8.7844238,16.0126343-12.3499756
		c4.6030273-3.5655518,12.9009399-10.1133423,18.4440918-14.5541382
		c5.5431519-4.4407349,13.6143799-10.9237061,17.8929443-14.3920898
		c4.3109741-3.5007935,11.6367188-9.4974365,16.3041992-13.3547363
		c4.6679077-3.8249512,12.4799194-10.3727417,17.3745728-14.5219116
		c4.8621826-4.1489258,12.5120239-10.6967773,16.9527588-14.5216675
		c4.4407959-3.8573608,11.7016602-10.2104492,16.142395-14.1651611
		c4.4407959-3.9222412,12.1230774-10.8265381,17.0826111-15.3320313c4.9595337-4.5380859,13.4517212-12.414856,18.8654785-17.536377
		c5.4130249-5.1213989,14.5866089-14.0354004,20.4534302-19.7728271
		c5.8344116-5.7698975,14.4891968-14.5541382,19.2220459-19.5136719
		c4.7648315-4.9592896,11.9283447-12.609314,15.9152222-16.9851685c3.9869385-4.3759155,9.8866577-10.9886475,13.0632324-14.7161865
		c3.1765137-3.7277222,5.8347778-6.7747192,5.8671875-6.7747192
		C616.1085815,223.8142395,616.0761719,224.5597229,615.9788208,225.4673767z M388.3960876,85.5012512
		c0.3236694,0.194458,2.1715088,1.0372925,4.116333,1.8476563c1.9123535,0.8427734,5.6725464,2.3662109,8.3303833,3.4035034
		c2.6906738,1.0372925,6.807373,2.6255493,9.173584,3.5007935c2.3662109,0.9075317,7.3257446,2.7227173,11.0206299,4.0842896
		c3.6957397,1.3613281,11.5397949,4.1489868,17.3745728,6.2235718c5.8347778,2.0745239,17.6657715,6.1264038,26.2557373,9.0111084
		c8.5899658,2.8849487,19.5460815,6.4505005,24.3433838,7.9416504c4.8297119,1.4911499,11.1832886,3.3387451,14.1326904,4.1491699
		c2.9819336,0.8103638,6.8394775,1.8151855,8.6224365,2.1716919c1.7825623,0.3889771,4.2136536,0.7130127,5.4458313,0.7454834
		c1.1989136,0.0324097,2.3013306-0.0646973,2.3986206-0.1620483c0.1293945-0.1295776,0-0.5509644-0.3244629-0.9399414
		c-0.3240356-0.4213867-1.9122925-1.4262695-3.7597656-2.366394c-1.782959-0.875061-5.7050476-2.5931396-8.7197571-3.7924805
		c-3.0471802-1.2317505-8.4926147-3.2738647-12.1230469-4.5380859c-3.6304321-1.2965088-11.2802124-3.9220581-16.9527588-5.8021851
		c-5.7050171-1.9122925-15.3969116-5.0241699-21.5557861-6.9689941c-6.1264038-1.9125366-15.461792-4.7650146-20.7129517-6.3533325
		c-5.2836304-1.5558472-13.0952148-3.8573608-17.3742065-5.121582c-4.3113403-1.2317505-10.7293701-3.0145264-14.2624512-3.9868774
		c-3.5655518-0.9724121-8.0387573-2.1395264-9.9835815-2.6256104c-1.9127197-0.4538574-4.0842896-0.9401245-4.8297119-1.0372925
		c-0.7130737-0.0973511-1.2966919-0.0973511-1.2642212,0.0324707
		C387.7799988,85.0473938,388.0716248,85.3067932,388.3960876,85.5012512z M146.3882904,211.0104065
		c-0.0969238-3.6303711-0.0324097-6.8069458,0.1622314-8.8815308c0.1622314-1.7827759,0.5512085-4.4407959,0.8428345-5.9319458
		c0.2919922-1.4909058,0.9725952-4.0840454,1.5233765-5.802124c0.5512085-1.6856079,1.6531982-4.4083252,2.4959717-6.0290527
		c0.8103638-1.6531982,2.2688599-4.0518188,3.2090454-5.413208c0.9725952-1.3291016,2.9173584-3.5657349,4.3114014-4.9595337
		c1.4260254-1.4262085,3.6624756-3.3710327,4.9919434-4.3758545c1.3287354-1.0048828,3.6949463-2.5284424,5.2507324-3.4359741
		c1.5558472-0.8752441,4.538147-2.3988037,6.6127319-3.3388062c2.074585-0.9399414,5.4129639-2.3014526,7.390625-2.9820557
		c2.0097046-0.6807861,5.8672485-1.8476563,8.6220093-2.5931396c2.7230835-0.7131958,7.8120117-1.9450073,11.3126221-2.6904907
		c3.565918-0.7454224,6.9047241-1.6207275,7.6826782-2.0096436c0.7130127-0.3242798,1.7504883-1.0372925,2.2363892-1.5236206
		c0.5187378-0.486084,1.5558472-1.7178345,2.3013306-2.755127c0.7778931-1.0372925,2.463501-3.4035034,3.7926025-5.2511597
		c1.2966919-1.8476563,3.4682007-4.7650757,4.7973022-6.4829102c1.3291016-1.6856079,3.4682007-4.3112183,4.7328491-5.7698975
		c1.2637939-1.4909668,4.4727783-4.9268799,7.1634521-7.6497803c2.6582031-2.7227173,6.4829102-6.3533325,8.4602051-8.071228
		c1.9772339-1.7180786,5.4133301-4.4732056,7.5848999-6.0939331c2.171875-1.6207275,5.8347626-4.1167603,8.1036224-5.5105591
		s6.2237549-3.5979614,8.8166504-4.8945923c2.5933228-1.3289185,6.2237549-2.9821167,8.1036377-3.6951294
		c1.8478394-0.7132568,5.0568848-1.880127,7.1314697-2.5284424c2.074585-0.6807861,5.7050171-1.6531982,8.071167-2.1716919
		c2.3662109-0.5510254,5.5107422-1.1669312,7.001709-1.3937988c1.4584961-0.2269287,4.2140503-0.5834961,6.0610962-0.8103638
		c2.3990479-0.2593994,5.7050171-0.3567505,11.7020264-0.2593994c5.5103149,0.0648804,9.4972534,0.2269287,11.7015991,0.5185547
		c1.8474731,0.2269287,4.9591064,0.7131958,6.8718872,1.0697021c1.9127197,0.3565674,5.31604,1.1022339,7.5528564,1.6207275
		c2.2039795,0.5510254,6.6771851,1.7505493,9.9511108,2.6904907c3.2414551,0.9724121,9.7888794,3.0145264,14.5216675,4.5703735
		c4.7648315,1.5560303,14.4891968,4.8946533,21.6855469,7.390625c7.1959229,2.4959717,18.9296265,6.6449585,26.1259766,9.1734009
		c7.1638794,2.5606689,14.8781738,5.2833862,17.0825195,6.0614624c2.2368164,0.8103638,9.7243652,3.5006714,16.6936035,6.0291138
		c6.968811,2.5281982,17.7306519,6.4180298,23.9540405,8.6546021c6.2237549,2.2366333,16.2072754,5.8345947,22.2042847,7.9416504
		c5.9966431,2.1392822,11.7661133,4.1813965,12.8035889,4.5380859c1.0375366,0.3889771,10.5348206,3.6951294,21.1344299,7.4229126
		c10.5996094,3.6952515,20.2266846,7.0663452,21.3935547,7.5202026c1.1993408,0.4537964,3.43573,1.2964478,4.9919434,1.9447632
		c1.5558472,0.6159058,4.1488037,1.7505493,5.7695313,2.5284424c1.6531372,0.7454834,3.6956787,1.8798828,4.6030273,2.4957886
		c0.8752441,0.5836182,1.9447632,1.4262695,2.3341064,1.8476563c0.3886108,0.4213867,0.8428345,1.1021729,1.0046387,1.5235596
		c0.1618652,0.4214478,0.291626,1.1019897,0.291626,1.5558472c0,0.4214478-0.1622314,1.1344604-0.388916,1.5236206
		c-0.1942749,0.4212036-0.7130737,1.069519-1.1344604,1.4584961c-0.4213867,0.388916-1.8478394,1.4262085-3.2089844,2.3015137
		c-1.3291016,0.9076538-2.6906738,1.9772339-3.0143433,2.3986206c-0.3569336,0.4538574-0.6160889,1.1346436-0.6160889,1.6531982
		c0,0.5834351,0.2591553,1.1343994,0.680603,1.5558472c0.388916,0.388916,1.3615112,1.0372925,2.2367554,1.4586792
		c0.8428345,0.4213867,2.6254272,1.1346436,3.9545288,1.5882568c1.3286743,0.4538574,3.8895874,1.1671143,5.6725464,1.5236206
		c1.7504883,0.388916,4.5377197,0.9074707,6.190918,1.1019897c1.6207275,0.2269287,2.982666,0.4538574,3.0147095,0.5187378
		c0.0324707,0.0971069-0.4538574,0.4213867-1.069519,0.8103638c-0.6481323,0.3565063-1.9451904,0.9399414-2.9174194,1.2964478
		c-0.9397583,0.3889771-2.6902466,0.8752441-3.8900146,1.1021729c-1.1664429,0.2593994-3.6624146,0.5834351-5.5103149,0.7130127
		c-2.041687,0.1298218-4.927063,0.1298218-7.2608032-0.0322266c-2.1715088-0.1297607-5.2836304-0.4862671-6.9364014-0.7781372
		c-1.6856079-0.3240356-4.2140503-0.9399414-5.6725464-1.3937988c-1.4264526-0.4536133-3.3063354-1.1992798-4.1491699-1.6207275
		c-0.8752441-0.4213867-2.0749512-1.2317505-2.6582031-1.7827148c-0.6156616-0.5510254-1.2962646-1.3289185-1.4909668-1.7503662
		c-0.1946411-0.388916-0.3893433-1.0048218-0.3893433-1.3291016c0-0.3565063,0.2920532-1.2317505,0.6809692-1.9772339
		c0.4214478-0.8428345,1.394043-2.0097046,2.7227173-3.2089844c1.1672974-1.0372925,2.3013306-2.269104,2.5933228-2.6904907
		c0.2595825-0.4538574,0.4859009-1.1343994,0.4859009-1.4909668c0-0.3566895-0.3560791-1.2317505-0.8103638-1.8800659
		c-0.4209595-0.6807861-1.4260254-1.7180786-2.2039185-2.3015137c-0.7779541-0.6159058-2.3338013-1.6531982-3.4686279-2.3337402
		c-1.1015625-0.6483765-3.2089844-1.7505493-4.6999512-2.4310913c-1.4909058-0.6807861-3.3712158-1.5236206-4.1815796-1.8476563
		c-0.8103638-0.3242798-2.8521118-1.0372925-4.5701904-1.6207275c-1.6856079-0.5834351-4.9595337-1.5236206-7.2608643-2.1070557
		c-2.3012695-0.5509644-5.7049561-1.2642212-7.5527954-1.5882568c-1.8475037-0.2918091-3.8247375-0.6159058-4.3755798-0.6807861
		c-0.5515747-0.097168-1.0050049-0.0646973-1.0050049,0.0324097c0,0.0973511,0.4859009,2.074585,1.069519,4.3760986
		c0.5836182,2.3013306,1.2966919,5.6401367,1.5883179,7.3904419c0.2915649,1.7827759,0.6809692,4.8297119,0.8752441,6.7423096
		c0.1618042,2.0421143,0.2267456,5.0566406,0.1293945,7.2608032c-0.0645142,2.074585-0.3236694,4.927063-0.583252,6.3208618
		c-0.2271118,1.4262695-0.7779541,4.1489868-1.2317505,6.0615234c-0.4538574,1.9448242-0.8103638,4.2463379-0.8103638,5.121582
		c0,1.069519,0.1622314,1.9772339,0.5187378,2.6902466c0.291626,0.6159058,0.9401245,1.4262695,1.4260254,1.8476563
		c0.5187378,0.4214478,1.4909668,1.0697632,2.2043762,1.4262695c0.7130737,0.3565063,2.1070557,0.8428345,3.1121216,1.0697632
		c1.2313232,0.3240356,2.9818726,0.4537964,5.4453735,0.4862671c1.9772949,0,4.5377808-0.1622314,7.6498413-0.6807861
		l2.5604858,2.5282593c1.4264526,1.3615112,3.5983276,3.3063354,4.8621826,4.2787476
		c1.2645874,0.9724121,3.1445313,2.3339233,4.1815796,2.9822998c1.0374756,0.680542,3.0792236,1.8151855,4.5705566,2.5281982
		c1.491394,0.7454834,3.3388062,1.5883179,5.5107422,2.5284424l-0.5836182,1.2640381
		c-0.4538574,0.9725952-0.5836792,1.8151855-0.6160889,3.4683838c0,1.2317505,0.0648804,2.269043,0.1297607,2.366394
		c0.0648804,0.0971069,1.0374756-0.1622314,2.1394653-0.5187378c1.1344604-0.3565063,3.435791-0.8753052,8.2330322-1.5234375
		l0.7454834,0.9075317c0.421814,0.4863281,1.2321777,1.6856079,1.8154297,2.65802
		c0.583252,0.9399414,1.4909058,2.755188,2.0097046,4.0193481c0.5511475,1.2642212,1.3291016,3.6304321,1.7504883,5.2511597
		c0.4538574,1.6207275,0.972229,4.2463379,1.1993408,5.8023682c0.2271118,1.5558472,0.388916,4.3758545,0.4213867,6.2559814
		c0,1.8798828-0.0648804,3.5655518-0.1618042,3.7600098c-0.0973511,0.2593384-0.6485596,0.194458-2.2047729-0.2593994
		c-1.1665039-0.3565063-4.1488037-1.0370483-6.6772461-1.5558472c-2.4955444-0.5184937-6.5473633-1.1343994-9.0109253-1.3613281
		c-2.4310913-0.2593994-4.4411621-0.4862671-4.4736328-0.4862671c0-0.0324707-0.7454834-1.0048828-1.6207275-2.2042236
		c-0.9077148-1.1668701-2.7227173-3.338562-4.0518188-4.8297119c-1.3287354-1.4911499-3.5975952-3.7600098-5.0889282-5.0891113
		c-1.4588623-1.3289185-3.5654907-3.0794067-4.6679077-3.9222412c-1.1340332-0.8425903-3.1116333-2.2688599-4.4403687-3.144104
		c-1.3615723-0.9077148-3.3388062-2.1392822-4.4736328-2.7229004c-1.7176514-0.9724121-2.3662109-1.1669312-4.6999512-1.4262695
		c-1.782959-0.2267456-5.2835999-0.291626-10.3725281-0.194519c-4.5056763,0.0973511-9.1087036,0.3242798-11.1504517,0.5836792
		c-1.9451904,0.2591553-5.5106812,0.7454834-7.9417725,1.1343994c-2.463562,0.3889771-5.899292,0.9724121-7.682251,1.3613892
		c-1.782959,0.3565063-5.2191162,1.1668701-7.682251,1.7504883c-2.4310913,0.5834351-6.1264038,1.6207275-8.2009888,2.3013306
		c-2.074585,0.6807861-3.8900146,1.2966309-4.0518188,1.3615723c-0.1293945,0.0971069-0.0324707,0.2266846,0.291626,0.3565063
		c0.2919922,0.0971069,3.7277222,0.3565063,7.6501465,0.5185547c5.6401367,0.2593384,8.4273682,0.2593384,13.1925659,0
		c3.3384399-0.1620483,6.9043579-0.4214478,9.8213501-0.7779541l3.9224243,2.5606689
		c2.1394653,1.3937988,5.4782715,3.3388062,10.8912354,6.0939941l-0.4859009,1.5235596
		c-0.3893433,1.1019897-0.4542236,1.9448242-0.3568726,3.2414551c0.0973511,0.9724121,0.2595825,1.8476563,0.3568726,1.9772339
		c0.1293945,0.0973511,1.263855-0.2918091,2.5280762-0.8752441c1.2317505-0.5834351,3.3708496-1.3937988,4.7003174-1.7503052
		c1.3287659-0.3889771,2.5929871-0.6483154,2.8197327-0.5834351c0.2271118,0.0648804,1.3615112,1.1343994,2.5608521,2.3662109
		c1.1993408,1.2642212,2.7880249,3.1765747,3.5334473,4.2787476c0.7454834,1.1021729,1.944458,3.0145264,2.5929565,4.2787476
		c0.6809692,1.2642212,1.7501221,3.5654907,2.3662109,5.121521c0.6160889,1.5558472,1.4588623,4.1814575,1.9123535,5.8670654
		c0.421814,1.6531982,0.7778931,3.338623,0.7778931,4.5054932l-1.4260254-0.2267456
		c-0.7779541-0.1297607-2.1390991-0.3566895-3.0143433-0.4863281c-0.9077148-0.1295776-4.7648315-0.3240356-15.624115-0.5834351
		l-2.0096436-1.8476563c-1.1344604-1.0048218-3.3063965-2.8200073-4.8621826-4.0193481
		c-1.5558472-1.2317505-4.0194092-3.0145264-5.5107422-4.0194092c-1.4909668-1.0048218-4.0193481-2.5608521-5.6725464-3.5007935
		c-1.6207275-0.9399414-4.2785645-2.3015137-5.899292-3.0145264c-1.6207275-0.7132568-4.0518188-1.6531982-5.3809204-2.074585
		c-1.3287354-0.4213867-3.4033203-1.0048828-4.6026001-1.2318115c-1.3615723-0.2915649-3.4036865-0.486084-5.6401367-0.486084
		c-1.9127197,0-4.4732056,0.1295776-5.6400757,0.3240967c-1.1997681,0.194458-3.5010376,0.6483154-5.1217651,1.0048218
		s-5.6401367,1.4262695-8.8815918,2.3986816c-3.2739258,0.9399414-6.7745361,1.8800659-7.8116455,2.1069946
		c-1.0374756,0.2269287-2.7230835,0.486084-3.7601929,0.5834351c-1.1668701,0.097168-2.7227173,0.0648804-4.0518188-0.1620483
		c-1.1993408-0.1622314-3.3712158-0.7456665-4.8621826-1.2642212c-1.4588623-0.4862671-5.0889282-2.0745239-8.0715942-3.5007935
		c-2.9494629-1.4262695-6.288208-2.9821167-7.3901978-3.5008545c-1.1019897-0.5185547-3.4682007-1.4909058-5.2511597-2.1392822
		c-1.782959-0.6483154-4.2140503-1.4262085-5.3809204-1.7503052c-1.1993408-0.2918091-3.2414551-0.7131958-4.5706177-0.9077148
		c-1.3286743-0.194458-4.1491089-0.388916-6.2557983-0.388916c-2.1394653,0-5.218689,0.194458-6.8718262,0.4213867
		c-1.6856689,0.2593994-4.4407959,0.8428345-6.1264038,1.3613281c-1.7180786,0.4863281-3.1765747,0.9724121-3.2414551,1.0697632
		c-0.0649414,0.097168,0.0648804,1.3289185,0.3240356,2.755188c0.2591553,1.4262085,0.7783203,3.6953125,1.1668701,5.0244141
		c0.3893433,1.3289185,1.1348267,3.5979614,1.6531982,4.9917603c0.5187378,1.3937988,1.8803101,4.5056763,3.0467529,6.8718872
		c1.1672974,2.3662109,2.9177856,5.510498,3.8900146,7.0014648c1.3615723,2.1069946,1.6531982,2.7229004,1.3615723,2.8849487
		c-0.2271729,0.09729-2.9498901,0.1619873-6.0619507,0.1297607c-3.6300049-0.0324707-5.6400757,0.0322266-5.6725464,0.194458
		c0,0.1620483,0.8428345,1.1669312,1.8478394,2.2688599c1.0050659,1.1022339,2.7231445,2.5933228,3.824707,3.3063965
		c1.102417,0.7131958,2.4310913,1.4262085,2.9177856,1.5882568c0.4534912,0.1298218,0.8428345,0.3565063,0.8428345,0.4538574
		s-1.0050659,0.8428345-2.2368164,1.6207275c-1.1993408,0.7778931-3.1120605,2.2366333-4.2460938,3.2414551
		c-1.1672974,0.9724121-2.6257935,2.463562-3.2739258,3.2739258c-0.6484985,0.8103638-1.6207275,2.2041626-2.1394653,3.1116333
		c-0.5512085,0.8753052-1.3291016,2.5609131-1.782959,3.6953125c-0.4862671,1.1346436-0.8424072,2.269104-0.8424072,2.4960327
		s0.2263184,0.4538574,0.4859009,0.5185547c0.2595825,0.0648804,1.2317505,0.2593384,2.2039795,0.388916
		c0.9725952,0.1622314,2.6582031,0.2918091,3.7605591,0.2918091c1.1340332,0,3.0792236-0.1619873,4.3755493-0.388916
		c1.2970581-0.2269287,2.9501953-0.6159058,3.6307983-0.8753052c0.9401245-0.2915649,1.7180786-0.875061,2.7871704-2.0421143
		c0.8103638-0.875061,2.2692871-2.1068115,3.2094116-2.755127c0.972229-0.6483765,2.5604858-1.4911499,3.5006714-1.880127
		c1.6207275-0.6483154,1.8153687-0.680603,2.5608521-0.3240967c0.4534912,0.2269287,1.8478394,1.1669312,3.1116943,2.074585
		c1.2317505,0.9400024,3.1116943,2.4957886,4.1166992,3.4682007c1.0374756,0.9725952,2.6582031,2.8202515,3.6628418,4.0842896
		c0.972229,1.2642212,2.3338013,3.3712158,3.0147705,4.7001343c0.680542,1.3291016,1.4909058,3.2090454,1.7825317,4.1813965
		c0.3240967,0.9401855,0.6160889,2.0421753,0.6485596,2.4310913c0.0648804,0.5512085-0.0324707,0.6807861-0.7130127,0.7457275
		c-0.4542847,0.0324097-2.3341675,0.3565063-4.1816406,0.7454224c-1.8478394,0.3889771-4.7003174,1.1668701-6.3210449,1.7503662
		c-1.6207275,0.5836182-3.9220581,1.5235596-7.2608643,3.1767578l-3.5006104-0.9077148
		c-1.9451904-0.486084-4.8946533-1.1019897-6.6127319-1.3613892c-2.4310913-0.3565063-4.1491699-0.4213867-8.2009888-0.2918091
		c-2.8521118,0.0648804-6.0610962,0.3242798-7.2608032,0.5512085c-1.1993408,0.2269287-3.9220581,0.7454834-6.0615234,1.1019897
		c-3.2090454,0.5834351-4.5056763,0.6807861-7.2932739,0.5834351c-2.9498291-0.097168-3.5330811-0.194458-4.9591675-0.8425903
		c-0.9076538-0.4214478-2.3016968-1.394043-3.1120605-2.171936c-0.8103638-0.7779541-1.7501221-1.9448242-2.755127-3.7600098
		l0.8427734-3.2414551c0.4534912-1.7827759,1.0695801-4.6352539,1.361145-6.3209229
		c0.2920532-1.7180176,0.6810303-4.3111572,0.8428345-5.802124c0.1297607-1.4586792,0.2595825-4.3760986,0.2595825-6.4506836
		c0-2.0743408-0.1622314-4.7323608-0.3569336-5.9317017c-0.2266846-1.1668701-0.6481323-3.0469971-0.972168-4.1491699
		c-0.3565063-1.1343994-1.1993408-3.2414551-1.9123535-4.7324219c-0.7130127-1.4586792-2.0100708-3.7277222-2.9174194-4.9594727
		c-0.8752441-1.2642212-2.755127-3.4359741-4.1166992-4.7973022c-1.3939819-1.3615723-3.4682007-3.2090454-4.6679077-4.0842896
		c-1.1989136-0.9077148-3.43573-2.3662109-4.9915771-3.2414551s-4.2785645-2.2041626-6.0615234-2.9498291
		c-1.7504883-0.7130127-4.4732056-1.6854248-6.0290527-2.1392822c-1.5562134-0.4538574-4.4083252-1.1344604-6.3535156-1.5233765
		c-1.9123535-0.3567505-4.6999512-0.8103638-6.190918-0.9401855c-1.4584961-0.1620483-2.7230835-0.2269287-2.7555542-0.1295776
		c-0.0324707,0.0648804,0.8752441,0.6483154,2.0425415,1.2642212c1.1340332,0.6159058,2.9169922,1.6529541,3.9544678,2.3337402
		c1.0371094,0.6483765,2.9818726,2.0097046,4.3110352,3.0145264c1.3291016,0.9724121,3.1444702,2.5284424,4.0193481,3.4035034
		c0.9077148,0.8752441,1.9123535,1.977478,2.852478,3.3063354l-1.2962646,0.7132568
		c-0.6809692,0.4212036-1.8803101,1.1668701-2.6257324,1.7178345c-0.7454834,0.5510254-2.1394653,1.8476563-3.1116943,2.8525391
		c-0.9725952,1.0372925-2.1394653,2.3986206-2.5933228,3.0794067c-0.4538574,0.6483154-1.1668701,1.9123535-1.6207275,2.8200684
		c-0.4213867,0.8752441-0.9401245,2.3986206-1.1348267,3.3710327c-0.2911987,1.3937988-0.2911987,2.074585-0.0320435,3.5008545
		c0.1618042,0.9399414,0.6481323,2.463501,1.069519,3.338562c0.4213867,0.9077148,1.2642212,2.2366333,1.8803101,2.9822998
		c0.6156616,0.7454834,1.9768677,1.9123535,2.9818726,2.6255493c1.0374756,0.7130737,2.1070557,1.2642212,2.3662109,1.2642212
		c0.2595825,0,0.8428345-0.2269287,1.2642212-0.5511475c0.4538574-0.291626,1.7504883-1.0372925,2.9174194-1.6207275
		c1.1343994-0.5834351,2.755127-1.2965088,3.5654907-1.5883179c1.3291016-0.486084,1.5238037-0.486084,2.1394653-0.1295776
		c0.3889771,0.2269287,1.4909668,1.3289185,2.463562,2.4957886c1.0050659,1.1346436,2.4310913,3.0469971,3.2089844,4.2140503
		c0.7779541,1.1993408,1.8479004,3.0792236,2.3986816,4.1813965c0.583252,1.1022339,1.4260254,3.2414551,1.9127197,4.732605
		c0.4859009,1.4584961,1.1016235,3.7600098,1.3287354,5.0891113c0.2271118,1.3613892,0.4213867,2.755188,0.4213867,3.9220581
		h-4.1166992c-2.2692871,0-5.1862793,0.1297607-6.5153809,0.2593994c-1.3615723,0.1619873-4.0193481,0.5184937-9.4327393,1.4262085
		l-1.7501221-1.3613281c-0.9725952-0.7132568-2.6578369-1.9125366-3.7601929-2.65802
		c-1.1344604-0.7456665-2.8200684-1.782959-3.7922363-2.3339844c-0.9401855-0.5185547-2.6582642-1.3289185-3.7606201-1.7827148
		c-1.1016235-0.4863281-2.9169922-1.0697632-4.0518188-1.3613892c-1.1016235-0.2593994-2.9818726-0.6483154-4.1488037-0.7778931
		c-1.1992798-0.1622314-3.6953125-0.4863281-5.5431519-0.7132568c-1.8474731-0.194458-4.3106079-0.6483154-5.5103149-0.9399414
		c-1.1668701-0.2918091-2.8200684-0.9401245-3.6304321-1.4262695c-0.8103638-0.4538574-2.0096436-1.3615112-2.6253662-1.9772339
		c-0.6160889-0.6483154-1.3615723-1.6856079-2.171936-3.4683838l2.171936-2.3988647
		c1.1668701-1.3288574,2.7875977-3.4034424,3.5655518-4.6027832c0.8103638-1.1668701,1.9772339-3.2739258,2.6578369-4.7001343
		c0.6481323-1.3937988,1.4909058-3.5330811,1.880249-4.6999512c0.3565063-1.1993408,0.8753052-3.1768188,1.1668701-4.4407959
		c0.3565674-1.7180786,0.4863281-3.3388062,0.4538574-6.4829102c-0.0324097-3.5657349-0.1297607-4.538147-0.7454224-6.8396606
		c-0.3894043-1.4909058-1.2321777-3.7924194-1.8803101-5.1213379c-0.6481323-1.3291016-1.7505493-3.1443481-2.4310913-4.0518188
		c-0.7130737-0.8753052-1.9448242-2.2044067-2.7875977-2.8849487c-0.8428345-0.7132568-2.2692871-1.6531982-3.144165-2.1070557
		c-0.9077148-0.4213867-2.3016968-0.9399414-3.1120605-1.1019897c-0.8103638-0.1622314-2.2039795-0.2269287-3.0792236-0.1297607
		c-0.9077148,0.0648804-2.3662109,0.4213867-3.2414551,0.7456665c-1.1993408,0.4536743-2.0421143,1.0048218-3.2414551,2.2366333
		c-0.8752441,0.9074707-1.9448242,2.3012695-2.3337402,3.1116333c-0.3889771,0.8103638-0.8428345,2.074585-1.0375366,2.8200684
		c-0.1618042,0.7456665-0.2915649,2.3339844-0.2915649,3.5008545c0,1.1992798,0.1942749,2.8849487,0.4213867,3.7924194
		c0.2271118,0.8752441,0.9401245,2.6256104,1.5558472,3.8897705c0.8752441,1.8152466,1.5882568,2.755188,3.2738647,4.4407959
		c1.782959,1.7827759,2.6582642,2.3986816,4.7324219,3.4359741c1.491333,0.7131958,3.3063354,1.3937988,4.3114014,1.5560303
		c0.9725952,0.194458,1.9772339,0.388916,2.2688599,0.486084c0.4213867,0.1620483,0.1947021,0.4538574-1.4260254,1.9772339
		c-1.0375366,1.0048828-2.7880249,2.463562-3.8571777,3.2092285c-1.0699463,0.7454834-2.982666,1.8798828-4.246521,2.5281982
		c-1.2642212,0.6159058-3.0792236,1.3938599-4.0518188,1.6856689c-0.9401245,0.3240356-2.463501,0.7130127-3.3388062,0.9074707
		c-0.9076538,0.1620483-2.8848724,0.3242798-4.4407196,0.2918091c-1.5883179,0-4.5705566-0.2918091-6.7421265-0.6483154
		c-2.1394653-0.3240356-4.927063-0.6159058-6.1912842-0.5834351c-1.4264526,0-3.4033203,0.291626-5.31604,0.7454834
		c-1.6856079,0.3889771-3.4685669,0.6807861-3.9869385,0.6807861c-0.680542,0-1.0050049-0.1298218-1.2317505-0.5834351
		c-0.2267456-0.4538574-0.2267456-0.9401855,0.0645142-1.9450073c0.1946411-0.7454834,0.9401245-2.3337402,1.6856079-3.5006104
		c0.7133789-1.1993408,1.9451904-2.9498901,2.7230835-3.9222412c0.7454834-0.9724121,2.0742188-2.4960327,2.9169922-3.4359741
		c1.4264526-1.5558472,1.491333-1.6856079,0.9077148-1.8151855c-0.3240356-0.0648804-1.2962646-0.1295776-2.1390991-0.1295776
		c-0.8427734,0-2.4959717,0.194458-3.6307983,0.4212036c-1.1664429,0.2269287-3.1116333,0.9077148-4.3754883,1.5235596
		c-2.171936,1.0048828-2.5608521,1.3613892-7.4230347,6.2884521c-4.1816406,4.2787476-5.3809814,5.31604-6.5802612,5.8670044
		c-0.8103638,0.3565674-2.0421753,0.7454834-2.6906738,0.8428345c-0.8103638,0.1295776-1.7825928,0.0324707-2.8845825-0.2269287
		c-0.9401245-0.2593384-2.2043457-0.8103638-2.852478-1.2317505c-0.6160889-0.4214478-1.6207275-1.2966919-2.2368164-1.9448242
		c-0.6156616-0.6483154-2.2039795-2.5608521-3.5330811-4.2787476c-1.3291016-1.6856079-3.2089844-3.8248901-4.1487427-4.7001343
		c-0.9401855-0.8752441-2.9827271-2.3986816-4.5385132-3.3388062c-1.5558472-0.9724121-3.6624756-2.3662109-4.6999512-3.144104
		c-1.0375366-0.7779541-3.2090454-2.7875977-4.8297729-4.4407959c-1.6531982-1.7504883-3.7598267-4.3112183-4.8297119-5.8994751
		c-1.0375366-1.5558472-2.8200684-4.7650757-3.9545288-7.1312256c-1.7180786-3.6304321-2.2368164-4.4732666-3.2414551-5.2836304
		c-0.6481323-0.5509644-2.7555542-2.0421143-4.6999512-3.3710327c-1.9127197-1.2966919-4.4087524-3.0469971-5.5106812-3.8897705
		c-1.1019897-0.8428345-2.7876587-2.2366333-3.7277832-3.1118774c-0.9401245-0.875061-2.2688599-2.3013306-2.9494629-3.2090454
		c-0.6484985-0.875061-1.6207275-2.463501-2.1074219-3.5006104c-0.4859009-1.0372925-1.1989136-2.9174194-1.5882568-4.1491699
		c-0.3561401-1.2642212-0.972229-3.7277832-1.361145-5.4780884c-0.3569336-1.7178345-0.9077148-5.0566406-1.1993408-7.3903809
		C146.7776337,218.4981995,146.4856415,214.1871643,146.3882904,211.0104065z M208.073349,249.3569641
		c-0.2591553-0.8103638-0.7454834-1.9125977-1.1019897-2.463562c-0.3565063-0.5834351-1.1019897-1.5233765-1.7176514-2.1068115
		c-0.5840454-0.5836792-1.6856079-1.3291016-2.4310913-1.6856689c-0.9401855-0.4213867-1.3295288-0.7454224-1.3295288-1.1343994
		c0-0.2918091,0.2271118-1.5236206,0.5512085-2.6904907c0.291626-1.1992798,0.9725952-2.9498291,1.5238037-3.9222412
		c0.5183105-0.9399414,1.361145-2.2365723,1.8474121-2.8849487c0.6485596-0.8103638,0.8103638-1.1992798,0.5836792-1.3288574
		c-0.1947021-0.0973511-1.0050659-0.194519-1.8154297-0.2593994c-0.9725952-0.0646973-1.9451904,0.0648804-2.852478,0.3889771
		c-0.7454834,0.2593384-1.7501221,0.7780762-2.2692871,1.1670532c-0.5183105,0.3565063-1.2313843,1.2317505-1.6207275,1.8798828
		c-0.3885498,0.6483765-1.0046387,1.977478-1.3936157,2.9498901c-0.3565063,0.9399414-0.8103638,2.3986206-0.9725952,3.2089844
		c-0.1618042,0.8103638-0.680542,3.8573608-1.1343994,6.7423096c-0.4863281,2.8847046-1.1019897,6.0290527-1.394043,7.0014648
		c-0.2911987,0.9723511-0.7778931,2.2365723-1.1015625,2.8200073c-0.2919922,0.5834961-0.9077148,1.5558472-1.3619385,2.1395264
		c-0.4534912,0.5509644-1.1989136,1.1992798-1.652771,1.3613281l-0.8103638,0.3565063
		c5.717041,1.1626587,11.6034546,1.5129395,11.3126221,1.4262695c1.8799438-0.1620483,3.0796509-0.5185547,3.9220581-0.9075317
		c0.8103638-0.3891602,1.9772339-1.1995239,2.5933228-1.8153687c0.6481323-0.5834351,1.5558472-1.8474731,2.0097046-2.755188
		c0.680542-1.3613281,0.8752441-2.1069946,0.9725952-3.8248901
		C208.5272064,251.3990784,208.4302826,250.4913635,208.073349,249.3569641z M159.3541107,186.6994934
		c0.0973511,0.1297607,0.421814,0.0973511,0.7454834-0.0322266c0.3244629-0.1298218,2.1723022-0.5836792,4.1167603-0.9725952
		c2.9501953-0.6481323,4.1491089-0.7454834,7.9417725-0.7779541c3.5330811,0,4.7973022,0.0973511,6.1912842,0.4863281
		c0.9401855,0.2591553,2.2039795,0.7130127,2.755188,1.0048218c0.5512085,0.2593994,1.4909668,0.9399414,2.1069946,1.5233765
		c0.6157227,0.5512085,1.3612061,1.4911499,1.6531982,2.074585c0.291626,0.5834351,0.6157227,1.7503052,0.680603,2.5606689
		c0.0973511,0.8428345,0,2.0421753-0.1947021,2.8200684c-0.1942749,0.7456665-0.9401245,2.65802-1.6531982,4.246521
		c-0.7454224,1.6207275-1.4584961,3.6951294-1.6207275,4.6999512c-0.2591553,1.5560303-0.2591553,2.074585,0.1298218,3.3712158
		c0.2919922,1.0695801,0.7778931,1.8799438,1.4584961,2.56073c0.5512085,0.5834351,1.7180786,1.3288574,2.6257935,1.6856079
		c1.3291016,0.5509644,2.0421143,0.6483154,4.1491089,0.6158447c1.4260864,0,3.3712769-0.2269287,4.3110352-0.4862671
		c0.9725952-0.2269287,2.5933228-0.8428345,3.6304321-1.3289185c1.0374756-0.5187378,2.6906128-1.5235596,3.6628418-2.269043
		c0.9401245-0.7132568,2.3016968-2.0421753,2.9498291-2.9174194c0.680603-0.8427734,1.5558472-2.1068115,1.9448242-2.755127
		c0.388916-0.6807861,1.1019897-2.3662109,1.5882568-3.7924805c0.8103638-2.3988647,0.8752441-2.7877808,0.8752441-6.1912842
		c-0.0324097-3.1765747-0.0969238-3.8897705-0.7130127-5.7697144c-0.3889771-1.1992798-1.1668701-2.8849487-1.6856079-3.7926025
		c-0.5512085-0.875061-1.4264526-2.1392822-1.9772339-2.7876587c-0.5187378-0.6807251-1.6531982-1.7503052-2.463562-2.3986206
		c-0.8103638-0.6159058-2.4310913-1.6207275-3.6304321-2.2041626c-1.1668701-0.5834351-3.1120605-1.3291016-4.3109741-1.6531982
		c-1.782959-0.4862671-3.0147095-0.6158447-7.0016479-0.6807861c-3.9873657-0.0646973-5.2511597,0-7.2612305,0.4538574
		c-1.3287354,0.2593994-3.5002441,0.8752441-4.8621826,1.3613892c-1.3287354,0.4538574-3.144165,1.1670532-4.0194092,1.6207275
		c-0.9072876,0.4213867-2.7547607,1.4911499-4.1812134,2.3988037c-1.5558472,1.0371094-3.6304321,2.7227173-5.31604,4.4083862
		C160.4889374,185.2732239,159.2892303,186.6023254,159.3541107,186.6994934z M480.8097229,325.5960999
		c-2.8200684,0.7454834-8.3303833,2.3337402-12.2523804,3.5006714c-3.9224854,1.1995239-11.9612427,3.6628418-17.8929443,5.510498
		c-5.9321289,1.880127-17.633728,5.6725464-25.996582,8.4279175c-8.3632202,2.7875977-20.6484375,7.0014648-27.3256226,9.3676758
		c-6.6447754,2.3988037-14.7160034,5.2835693-17.8925781,6.4829102c-3.1769409,1.1670532-8.6227417,3.3063354-12.1229858,4.7001343
		c-3.4685669,1.3937988-8.1361084,3.3712769-10.3729248,4.3760986c-2.2043457,0.9724121-5.0564575,2.3662109-6.3210449,3.0469971
		c-1.263855,0.680542-2.8521118,1.6529541-3.5330811,2.1716919c-0.7130737,0.5834351-1.2966919,1.2317505-1.3615723,1.6207275
		c-0.0648804,0.4213867,0.0973511,0.680603,0.519104,0.8428345c0.3561401,0.1620483,1.1989746,0.2591553,1.8795166,0.2591553
		c0.7134399,0,2.4310913-0.194458,3.8575439-0.4213867c1.394043-0.2592163,4.4407959-0.9075317,6.7096558-1.4909668
		c2.3016968-0.5834351,6.807373-1.8476563,9.9839478-2.7875977c3.1765747-0.9725952,10.6320801-3.3712158,16.5637817-5.3485107
		c5.899292-2.0096436,15.5912476-5.3807373,21.5233765-7.5202026c5.9321289-2.1716919,14.4567871-5.31604,18.994873-7.0014648
		c4.5056763-1.7180176,11.6043091-4.4407349,15.7210083-6.0614624c4.1491699-1.6207275,11.1828613-4.4085693,15.6240234-6.1913452
		c4.4404297-1.7827148,10.3400879-4.1489258,13.0632324-5.31604c2.7547607-1.1343994,7.2932739-3.0792236,10.0804443-4.3109741
		c2.8204956-1.2317505,6.6451416-2.9498291,8.493042-3.8573608c1.8474121-0.8752441,3.6624756-1.8476563,4.0518188-2.171936
		l0.6481323-0.5509644c-1.8478394,0.0324707-3.5655518,0.3242798-4.9595337,0.7131958
		C487.0658875,323.9429626,483.6297913,324.8504333,480.8097229,325.5960999z"/>
	<path class="st3" d="M199.5160217,253.6033325c-0.2593231,1.1669312-0.8103638,2.8200684-1.2641754,3.6952515
		c-0.4213867,0.9076233-1.0696869,1.9449158-1.3938293,2.3014526c-0.3565521,0.3565674-1.1020966,1.037262-1.6855621,1.4586487
		c-0.9724274,0.7131348-1.037262,0.8103638-0.5510559,0.9724426c0.2917328,0.0972595,1.1345215,0.291748,1.8800659,0.3889771
		c1.0696716,0.1620789,1.5883026,0.097229,2.4310913-0.2917175c0.5834656-0.291748,1.5883026-1.0048828,2.2366028-1.6531677
		c0.7779541-0.7779236,1.2641602-1.5882874,1.5234833-2.56073c0.2593079-0.842804,0.3565674-1.7828369,0.2593079-2.3662872
		c-0.097229-0.5186157-0.3241425-1.1669006-0.4537964-1.4586487c-0.1620789-0.2917175-0.7131348-1.004837-1.2641754-1.5559082
		c-0.518631-0.5510406-1.037262-1.004837-1.1020966-1.004837
		C200.0346527,251.5288086,199.7429199,252.4688263,199.5160217,253.6033325z"/>
	<path class="st0" d="M278.8021851,517.2311401c0.3565063-0.1295776,1.3287048-0.2269287,2.1715393-0.2269287
		c1.3291016-0.0324097,1.6531677,0.0648804,2.3337402,0.7130737c0.421814,0.4213867,0.9077148,1.2966309,1.1023865,1.9449463
		c0.1946716,0.6807861,0.4859009,2.0097046,0.6805725,2.9821167c0.2271423,0.9401245,0.5187378,2.8200684,0.6481323,4.1491699
		c0.1622314,1.3289185,0.2920227,3.4034424,0.2920227,4.6027832c0,1.6531982-0.1297913,2.3337402-0.5507813,3.0145264
		c-0.2920227,0.4863281-0.8103638,1.0697632-1.1348267,1.2642212c-0.3240662,0.2269287-1.0375061,0.5185547-1.5558472,0.680603
		c-0.6156921,0.1622314-1.2642212,0.1946411-1.9451904,0c-0.5508118-0.1295776-1.3936157-0.5834351-2.7223206-1.7503052
		l0.2267151,1.7503052c0.1293945,1.0697021,0.0969543,2.1069946-0.0973206,2.6904297
		c-0.1293945,0.5187988-0.7454834,1.3938599-1.3615723,1.9450073c-0.9721985,0.9399414-1.2313538,1.0371094-2.5604858,1.0371094
		c-0.8103638,0-1.7504883-0.1620483-2.1070251-0.3240967c-0.3240662-0.1619873-0.8752441-0.5509644-1.1993103-0.8752441
		c-0.3240662-0.291626-0.6485291-0.486084-0.7134399-0.4213867c-0.0644836,0.0648804,0,0.7456665,0.0973511,1.4586792
		c0.1297913,0.7779541,0.1297913,1.8152466,0,2.366394c-0.1618347,0.5510254-0.6481323,1.4262695-1.1340332,1.9772339
		c-0.6160889,0.6483765-1.2321777,1.0048828-2.0749817,1.1993408c-0.7454529,0.1295776-1.5882874,0.1295776-2.1715088,0
		c-0.5187683-0.1620483-1.3291321-0.6483154-2.723114-2.0421143l0.1946716,2.0421143
		c0.1622314,1.7503052,0.0973511,2.1717529-0.3889465,3.144104c-0.3240662,0.6483765-0.972229,1.394043-1.4588928,1.6856689
		c-0.4859314,0.2918091-1.2313843,0.6158447-1.6856384,0.7131958c-0.4210205,0.097168-1.2962646,0-1.8795166-0.1622314
		c-0.5836182-0.194458-1.491333-0.7130127-2.85289-2.0097046l0.1946869,2.0097046
		c0.1622314,1.8151855,0.129776,2.1070557-0.4538574,3.1443481c-0.3565063,0.6483154-1.0695343,1.3937988-1.5882874,1.6856079
		c-0.5836334,0.3240356-1.4588928,0.5509644-2.3016968,0.5509644c-1.0046539,0-1.5882874-0.1619873-2.3662109-0.6807861
		c-0.5507813-0.3565063-1.0046387-0.7778931-1.0046387-0.9399414c0-0.1297607-0.0648956-0.2269287-0.1942749-0.1619873
		c-0.0973511,0.0646362-0.1622314,1.0048218-0.0973511,2.1068115c0.0648956,1.4586792,0,2.2041626-0.3244629,2.852478
		c-0.3236694,0.5834351-0.9076996,1.0697632-1.8798981,1.5236206c-0.7454681,0.388916-1.6852264,0.680542-2.074585,0.680542
		c-0.3565063,0-1.1668701-0.2269287-1.7505035-0.486084c-0.583252-0.2593994-1.3611603-0.8428345-2.3337555-2.074585
		l0.1622314,2.1717529c0.1622314,1.8151855,0.0973358,2.3014526-0.3565216,3.2089844
		c-0.291626,0.6159058-0.8103638,1.2966919-1.1344299,1.5235596c-0.3569031,0.2269287-1.1997223,0.5834961-1.8478546,0.7779541
		c-0.940155,0.2593384-1.4260559,0.2918091-2.2364197,0.0324097c-0.551178-0.1619873-1.361557-0.6158447-1.8153992-0.9723511
		c-0.421402-0.3889771-0.8428192-0.6807861-0.8752594-0.6807861s-0.0324402,0.9399414,0.0324402,2.074585
		c0.0648956,2.0097046,0.0324554,2.1392822-0.7454681,3.1116333c-0.5832367,0.7132568-1.2317657,1.1346436-2.171524,1.4262695
		c-0.7779236,0.2269287-1.7180634,0.3242798-2.2368164,0.2269287c-0.4538422-0.0971069-1.1019745-0.291626-1.3939972-0.4538574
		c-0.291626-0.1295776-0.8752594-0.5834351-2.0417328-1.6854248l0.0324402,2.1717529
		c0,1.8476563-0.0973358,2.3662109-0.7458649,3.5979614c-0.6160889,1.2317505-1.0046539,1.6207275-2.2368164,2.2366333
		c-1.0366974,0.5511475-1.8470612,0.7778931-2.7547607,0.7778931c-0.713028-0.0322266-1.7180634-0.2267456-2.301712-0.4536743
		c-0.551178-0.2269287-1.8474579-1.1345825-2.8849335-1.977417c-1.0370941-0.8425903-3.0143433-2.7875977-4.4403992-4.2785645
		c-1.3943939-1.4911499-2.7555542-3.1767578-3.0151215-3.7601929c-0.2587738-0.5510254-0.4534607-1.2966919-0.4859009-1.6531982
		c0-0.388916,0.2595673-1.069519,0.5507965-1.5557861c0.2920074-0.4863281,0.8103638-1.0697632,1.1348267-1.2966919
		c0.3240662-0.2269287,1.1019897-0.5185547,1.6856232-0.6481323c0.6481323-0.1622314,1.4584961-0.1622314,2.0092926-0.0324707
		c0.5191345,0.1296387,1.6531677,0.8103638,2.4959869,1.4909668c0.842804,0.6807861,1.6531677,1.2317505,1.7505035,1.2317505
		c0.1297913,0,0.1297913-1.0372925,0-2.3012695c-0.1622314-1.9125977-0.129776-2.463562,0.2920227-3.4359741
		c0.3561249-0.8752441,0.7779236-1.2966309,1.6856232-1.7504883c0.6481323-0.3240967,1.4909363-0.5834351,1.8470612-0.5834351
		c0.3893585,0,1.1023865,0.2593384,1.6207275,0.5509644c0.5191345,0.2918091,1.3295135,1.0372925,2.5608826,2.7229004
		l0.129776-2.9498291c0.0973511-2.1716919,0.2595825-3.1116333,0.6156921-3.6626587
		c0.2595673-0.3891602,0.8752594-0.9725952,1.361557-1.2642212c0.6485291-0.4213867,1.1668854-0.5187378,2.204361-0.4213867
		c1.1668854,0.0971069,1.4909515,0.2593384,2.4311066,1.2964478c0.5832367,0.6483154,1.231369,1.4262695,1.3936005,1.7180786
		c0.2595673,0.4213867,0.2920074-0.0324707,0.1946716-2.2366333c-0.0973358-2.3986206-0.0324402-2.9173584,0.421402-3.8572998
		c0.291626-0.5834351,0.9397583-1.2966919,1.4264526-1.5883179c0.4859009-0.3240356,1.3287201-0.5509644,1.944397-0.5509644
		c0.6160889,0,1.4588928,0.2269287,1.9451904,0.5509644c0.4859161,0.291626,1.1989288,1.0372925,2.3662109,2.7875977
		l0.2591705-6.6124878l1.0046539-0.9401245c0.5515747-0.486145,1.3619385-0.9724121,1.7505035-1.0695801
		c0.4217987-0.09729,1.1348267-0.09729,1.6207275,0c0.4862976,0.097168,1.2646179,0.5510254,1.7505188,1.0372925
		c0.4862976,0.486145,1.1023865,1.1668701,1.3291168,1.5558472c0.4538422,0.6483154,0.4538422,0.5510254,0.4862976-2.3015137
		c0-2.6255493,0.0648804-3.046936,0.6156769-3.8897705c0.3244629-0.5185547,1.0374908-1.1668701,1.5558472-1.4260864
		c0.6481323-0.3242188,1.2642059-0.4537964,2.0100861-0.3566895c0.5832367,0.0648804,1.361145,0.3566895,1.7501068,0.6483154
		c0.3565216,0.2918701,0.9397583,0.9077148,1.2966614,1.4262695c0.3240662,0.4863281,0.713028,0.9399414,0.8103638,0.9724121
		c0.0973511,0.0324097,0.1297913-1.0048828,0.0324554-2.3337402c-0.0648956-1.3291626-0.0324554-2.8200684,0.0648956-3.3063965
		c0.0973358-0.4862671,0.5507813-1.2317505,0.939743-1.6207275c0.4214172-0.4213867,1.1668854-0.8752441,1.6856232-1.0372925
		c0.5187378-0.1619873,1.3615723-0.2269287,1.8150024-0.1295776c0.4866943,0.097168,1.2970581,0.5510254,1.782959,1.0372925
		c0.4862976,0.486084,1.0699463,1.1668701,1.3291321,1.5558472c0.4538574,0.6483154,0.4538574,0.5834351,0.4213867-2.1717529
		c-0.0324402-2.2041626,0.0324707-3.0145264,0.3889771-3.6952515c0.2591553-0.4863281,0.8103638-1.1344604,1.1993103-1.4262695
		c0.4214172-0.3240967,1.0375061-0.6159058,1.4260559-0.7130127c0.3569031-0.0973511,1.1348267,0,1.6856079,0.1619873
		c0.6481628,0.194519,1.3615723,0.7130737,2.0101013,1.5234375c0.5507813,0.6483154,1.0691528,1.1992798,1.1340332,1.1992798
		c0.0973511,0,0.0973511-1.069519,0.0324402-2.3662109c-0.0324402-1.2966309-0.0324402-2.6904297,0.0649109-3.0794067
		c0.0973206-0.4213867,0.4862976-1.1019897,0.842804-1.5558472c0.4213867-0.4862671,1.1348267-0.9076538,1.7505188-1.0697021
		c0.7130127-0.194519,1.4584961-0.194519,2.1066284-0.0324707c0.5836182,0.1622314,1.3619385,0.6483154,1.8802795,1.1993408
		c0.4862976,0.5512085,0.9725952,0.9725952,1.0699463,0.9725952c0.1293945,0,0.1293945-0.8103638,0-1.8151855
		c-0.0973511-1.0048828-0.0973511-2.3015137,0-2.8849487c0.1293945-0.5834351,0.5183411-1.4262695,0.9073181-1.8476563
		C277.8295898,517.8145752,278.445282,517.3607178,278.8021851,517.2311401z M434.1326294,529.4837646
		c-0.291626,3.6953125-0.291626,3.8250732,0.2920227,4.8621826c0.3565063,0.5836182,1.1019897,1.3291016,1.6856384,1.6531982
		c0.6156616,0.3565063,1.4909363,0.6158447,1.9768372,0.6158447c0.4542542,0,1.2646179-0.1619873,1.7505188-0.3565063
		c0.4538269-0.194458,1.0050354-0.5509644,1.199707-0.8103638c0.1942749-0.2269287,0.4534607-0.3565063,0.6156921-0.2918091
		c0.1297913,0.0648804,0.1946716,0.2593994,0.1297913,0.3889771c-0.0973511,0.1622314-0.1622314,0.9077148-0.1946716,1.6856079
		c0,0.9724121,0.1622314,1.7827759,0.5507813,2.5609131c0.3893433,0.7778931,0.9077148,1.3288574,1.6531677,1.6853638
		c0.5836487,0.2918701,1.5558472,0.5510254,2.171936,0.5510254c0.5836182,0,1.3615417-0.1295776,1.7180481-0.291626
		c0.3889771-0.1295776,1.0046692-0.5834351,1.3615723-1.0048218l0.6805725-0.7454834
		c-0.1297913,4.3434448-0.0648804,4.7648315,0.4214172,5.4456177c0.3240662,0.4213867,0.9721985,1.0372925,1.4909363,1.3613281
		c0.6160889,0.4214478,1.2966614,0.6159058,2.1719055,0.6159058c0.7130432,0,1.6207275-0.1620483,2.0421448-0.3889771
		c0.3889465-0.194458,0.9073181-0.5509644,1.1344299-0.8103638c0.2271118-0.2593384,0.4538574-0.4537964,0.5508118-0.4213867
		c0.0648804,0,0.1297607,1.0048218,0.1297607,2.2366333c0,1.9123535,0.0649109,2.3337402,0.6160889,3.0145264
		c0.3565063,0.4538574,0.9721985,1.0048218,1.3615723,1.2642212c0.42099,0.291626,1.2313538,0.486084,1.9768372,0.486084
		c0.7134094,0,1.7180786-0.2269287,2.2692566-0.486084c0.551178-0.2593994,1.1344299-0.6807861,1.2966614-0.9401855
		c0.1622314-0.2591553,0.3565063-0.3565063,0.4859009-0.2591553c0.0973511,0.097168,0.0973511,1.0372925,0.0324402,2.0744019
		c-0.1293945,1.6856079-0.0973206,1.977417,0.4866943,2.852478c0.3561096,0.5187378,1.0691528,1.1993408,1.5882874,1.5560303
		c0.6481323,0.4214478,1.2962646,0.5834351,2.2688599,0.5834351c0.8752747,0,1.6207275-0.194458,2.1390686-0.5509644
		c0.4542542-0.2918091,1.0375061-0.8103638,1.2970581-1.1346436c0.4859314-0.5834351,0.4859314-0.5509644,0.2912292,1.6856079
		c-0.129364,1.8476563-0.0648804,2.463562,0.2595825,3.1765747c0.3240662,0.5834351,0.9077148,1.0697632,1.8803101,1.5236206
		c0.7454529,0.388916,1.6852112,0.680542,2.0741577,0.680542c0.3569336,0,1.1672974-0.2269287,1.7505188-0.486084
		c0.583252-0.2593994,1.3611755-0.8428345,1.6856384-1.2642212l0.6156921-0.8103638
		c-0.1297913,4.6352539-0.0649109,5.024231,0.4213867,5.7050171c0.291626,0.4213867,0.9721985,1.0372925,1.4588928,1.3613281
		c0.6481323,0.4538574,1.3287354,0.6159058,2.2039795,0.6159058c0.7130127,0,1.6207275-0.1295776,2.0096741-0.2918091
		c0.4214172-0.1620483,1.1019897-0.6481323,1.4913635-1.0695801l0.7454529-0.8103638l-0.4217834,4.7973022
		c1.7180481,1.6856689,2.6257629,2.269104,3.2414551,2.463562c0.5836182,0.1620483,1.3619385,0.291626,1.6856079,0.291626
		c0.3244629,0,1.0375061-0.194519,1.5558472-0.3889771c0.5191345-0.2269287,1.2321777-0.7130127,1.6207275-1.1019897
		c0.3569031-0.3565063,0.6809692-0.6158447,0.7134094-0.5512085c0.0645142,0.0649414,0,0.7781372-0.0648804,1.5560913
		c-0.0969543,0.8103638,0,2.0096436,0.1942749,2.7875977c0.1622314,0.7131958,0.5512085,1.6207275,0.842804,2.0096436
		c0.2920227,0.3565674,1.1023865,1.0372925,1.8154297,1.4911499c1.0374756,0.6159058,1.5882874,0.7779541,2.7875977,0.7779541
		c1.0695496,0,1.9123535-0.194519,2.8525085-0.6483765c0.8103638-0.4213867,2.6257629-1.9122925,4.5705566-3.7924194
		c1.7825928-1.7180786,3.7926636-3.8573608,4.4407959-4.732605c0.8752441-1.1343994,1.2317505-1.880127,1.2962646-2.65802
		c0.0648804-0.7454834-0.0969238-1.3289185-0.4534912-1.9447632c-0.3244629-0.4863281-1.0698853-1.1344604-1.7180176-1.4262695
		c-0.6157227-0.2918091-1.6207275-0.5185547-2.2039795-0.5185547c-0.6485596,0-1.4588928,0.2267456-2.0425415,0.5509644
		c-0.5183411,0.3240967-1.4584961,1.0372925-2.1066284,1.5558472l-1.1997375,0.9724121
		c0.3244629-4.8946533,0.2920227-5.3807373-0.1618347-6.2559814c-0.2591553-0.5510254-0.842804-1.1993408-1.2641907-1.4586792
		c-0.4214172-0.2267456-1.1344604-0.5185547-1.5882874-0.6159058c-0.4859009-0.097168-1.1669006-0.0322266-1.7505188,0.194458
		c-0.5183411,0.1947021-1.2962646,0.8103638-1.7505188,1.3291016c-0.4210205,0.5185547-0.9397583,1.1669312-1.101593,1.4587402
		c-0.2920227,0.4213867-0.3244629-0.0649414-0.3569031-2.463562c0-2.7229004-0.0649109-3.0145264-0.6805725-3.8897705
		c-0.3889771-0.5185547-0.9725952-1.1019897-1.2966614-1.2642212c-0.3240662-0.194519-1.1019897-0.3565063-1.7501221-0.3565063
		c-0.6160889,0-1.4588928,0.194458-1.8803101,0.4213867c-0.3889465,0.2269287-1.1019897,0.9077148-1.5233765,1.4586792
		c-0.4538574,0.5834351-0.9077148,1.0048828-1.0375061,0.9399414c-0.0973206-0.0648804-0.1293945-1.1343994-0.0324402-2.3337402
		c0.1297913-1.6531372,0.0648804-2.4959717-0.1942749-3.1767578c-0.2267456-0.5185547-0.8103638-1.2640381-1.3291016-1.6854248
		c-0.6481628-0.5187378-1.2638245-0.7778931-2.1390991-0.8103638c-0.8103638-0.0324707-1.4909363,0.097168-1.9451904,0.4213867
		c-0.42099,0.2592163-1.1344299,1.0048828-1.6207275,1.6854248L483.5,552.8223267
		c-0.2267456-5.7697144-0.3561401-6.5153809-0.8103638-7.1635132c-0.2912292-0.4213867-0.9397583-0.9401245-1.3936157-1.1346436
		c-0.4862976-0.194458-1.1993103-0.3565063-1.5558472-0.3565063c-0.3889465,0-1.102356,0.194458-1.6207275,0.4213867
		c-0.551178,0.2269287-1.3291016,0.9075317-1.8153992,1.6207275l-0.8752441,1.2318115
		c-0.2591858-6.2237549-0.3236694-6.5153809-0.9397583-7.196167c-0.3889771-0.3889771-1.0046692-0.875061-1.4264526-1.069519
		c-0.3885803-0.2269287-1.1344299-0.3891602-1.6207275-0.3891602c-0.4534607,0-1.2638245,0.2269287-1.7505188,0.5512085
		c-0.4534607,0.291626-1.2313843,1.0372925-1.6852112,1.6531372l-0.8103943,1.1668701v-6.4829102
		c-1.5562134-1.5235596-2.3665771-2.0421143-2.8200378-2.1394653c-0.4214172-0.0971069-1.231781-0.0971069-1.7505188,0
		c-0.5183411,0.0973511-1.2962646,0.5836182-1.7505188,1.0372925c-0.42099,0.4538574-1.0046387,1.1346436-1.2962646,1.5236206
		c-0.4542542,0.6483154-0.4542542,0.6158447-0.3244629-1.9450073c0.1297913-2.0421753,0.0649109-2.8525391-0.2591553-3.6304321
		c-0.2591858-0.5834351-0.7130432-1.2640381-1.0046692-1.5233765c-0.3244629-0.2593994-0.8752441-0.6159058-1.199707-0.7456665
		c-0.3236694-0.1295776-0.9077148-0.2267456-1.2962646-0.2267456c-0.3569031,0-1.0699463,0.1620483-1.523407,0.3889771
		c-0.4866943,0.194458-1.2645874,0.875061-1.6856079,1.4909058c-0.4542542,0.5834351-0.8752747,1.1021729-0.940155,1.0697632
		c-0.0973511,0-0.0973511-1.2966919-0.0324402-2.8849487c0.0973206-2.8847656,0.0648804-2.9171753-0.6805725-3.8248901
		c-0.421814-0.486084-1.1023865-1.0697632-1.523407-1.2642212c-0.3893433-0.194458-1.1023865-0.3565063-1.5558167-0.3565063
		c-0.421814,0-1.1348267,0.1620483-1.5238037,0.3565063c-0.4214172,0.194458-1.1344299,0.8428345-1.6207275,1.4262695
		l-0.8752441,1.0372925c0.1297607-5.31604,0.0648804-5.7697144-0.4538574-6.4829712
		c-0.291626-0.4213867-0.9725952-1.0048218-1.4584961-1.2317505c-0.5187378-0.2591553-1.3611755-0.5185547-1.8803101-0.5834351
		c-0.5183411-0.097168-1.3287048-0.0324707-1.8150024,0.0973511c-0.4862976,0.1620483-1.1668701,0.6483154-1.5558472,1.1343994
		c-0.4538574,0.6159058-0.842804,1.7827759-1.2966614,4.0842896
		C434.6838379,524.2650757,434.2624207,527.4093628,434.1326294,529.4837646z M445.1536865,512.7903442
		c2.4310913,1.9448242,6.6127014,5.1862793,9.2705078,7.1959839c2.6582336,1.977417,6.9692078,5.121521,9.5621643,6.9691772
		c2.5933228,1.8152466,7.3257141,5.024231,10.5026855,7.1312866c3.1765442,2.0743408,8.2654724,5.3482666,11.3126526,7.2608032
		c3.01474,1.9123535,8.7197266,5.3807373,12.6417542,7.7471313c3.9220581,2.3662109,9.3674927,5.5427856,12.1230469,7.0339355
		c2.7226868,1.5233765,5.8347473,3.2089844,6.8718567,3.7275391c1.0371094,0.5187378,2.7227173,1.2642212,3.7601929,1.6531982
		c1.3287354,0.5187378,1.9768677,0.6483154,2.1390991,0.4538574c0.1947021-0.194519,0.1622314-0.4213867-0.1297607-0.6807861
		c-0.2267456-0.2267456-5.8344116-3.8248901-12.5116272-8.0387573
		c-6.6775818-4.2138672-16.2397156-10.2753906-21.2641602-13.5168457
		c-5.0244141-3.2089844-17.8280029-11.6044312-28.3952026-18.6383667
		c-10.5996399-7.0339355-19.6109619-12.9658508-19.9995422-13.1603088
		c-0.4217834-0.1944885-0.8103638-0.3889771-0.8752441-0.3889771c-0.0649109,0-0.1297913,0.1296082-0.1297913,0.291626
		c0,0.1297913,0.1297913,0.5187378,0.3240662,0.842804C440.5506592,508.9654846,442.6905212,510.8131409,445.1536865,512.7903442z
		 M197.5061493,562.0606079c0.4862976-0.0973511,3.2414551-1.394043,6.1268005-2.8849487
		c2.884552-1.4911499,7.6818542-4.0518188,10.6316833-5.7374878c2.9822845-1.6531372,7.7146912-4.4083252,10.5023041-6.0939331
		c2.8200531-1.6854248,7.3581696-4.5056763,10.113327-6.2559814c2.723114-1.7503052,7.8765259-5.121582,11.4424438-7.487793
		c3.5330811-2.3662109,9.3678589-6.3855591,12.9333954-8.9140015c3.5334778-2.5281982,8.1360779-5.8345947,10.2106628-7.3904419
		c2.074585-1.5560303,5.2187195-4.0518188,6.9692078-5.5429382c2.041748-1.7503052,3.2090149-2.9498291,3.2739258-3.3388062
		c0.0324402-0.3240662,0.0648804-0.6481323,0-0.7130127c-0.0324402-0.0324402-0.2271423,0-0.421814,0.0648804
		c-0.2267151,0.0971375-5.7695007,3.7275696-12.3822021,8.1358948
		c-6.5798645,4.4085693-15.7209778,10.4376221-20.3236084,13.4521484
		c-4.5709534,3.0145264-12.5772705,8.2009888-17.7635193,11.5395508
		c-5.186264,3.3388062-14.1976013,9.0760498-20.0648346,12.7713623c-5.8343964,3.6953125-11.0206451,7.0014648-11.5069427,7.3582153
		c-0.4862976,0.3565063-0.8103638,0.7778931-0.7454681,0.9074707
		C196.5984497,562.0928345,197.0527039,562.1253052,197.5061493,562.0606079z M304.6040649,533.7949829
		c-0.291626-2.074585-0.9076843-5.5752563-1.3287048-7.8118286c-0.4542542-2.2041626-1.8478394-8.3955078-3.1120605-13.7115479
		c-1.2642212-5.3482666-2.5604858-11.1506042-2.8849487-12.9333801c-0.4214172-2.3986206-0.583252-4.4083252-0.583252-7.8118286
		c-0.0324402-4.3760681,0-4.6352539,0.6481323-6.0614929c0.3889771-0.8103638,1.0699463-1.8476563,1.4909668-2.2690735
		c0.551178-0.5509949,1.5558167-1.1021729,3.2089844-1.6531677c1.3940125-0.4538574,2.463562-0.9724121,2.4960022-1.1993103
		c0.0324402-0.2269287-0.1622314-0.7779236-0.4534607-1.2642212c-0.3244629-0.4861145-1.0699463-1.1344299-1.6856079-1.4587097
		c-0.9077148-0.4536438-1.7180786-0.6158752-3.7281494-0.6481323c-1.3936157-0.0648804-3.0143433,0.0322571-3.565155,0.1620483
		c-0.551178,0.1620178-1.7505188,0.6483154-2.6906433,1.1019592c-1.0050659,0.5187683-2.3662109,1.5560608-3.4361572,2.6255798
		c-1.101593,1.1346436-2.0741882,2.4310913-2.592926,3.5332947c-0.4862976,0.9723816-1.069519,2.5282288-1.3291016,3.500824
		c-0.3885498,1.3937988-0.4859009,2.65802-0.4859009,6.0615234c0.0324402,2.9496155,0.2267151,5.4780579,0.6156921,8.0711975
		c0.3240662,2.0745544,1.1023865,6.0939331,1.6856079,8.8815613c0.583252,2.8200684,1.6531982,8.0387573,2.3986511,11.5720215
		c0.7130432,3.5655518,1.5882874,8.3630371,1.9123535,10.6643066c0.4862976,3.3063965,0.6160889,5.4133911,0.6160889,10.2106934
		c0,5.3485107-0.0649109,6.3855591-0.6160889,8.8815918c-0.3240662,1.5557861-1.0370789,4.1166992-1.5558472,5.6725464
		c-0.5187378,1.5558472-1.6531677,4.2787476-2.4959717,6.0615234c-0.8424072,1.7504883-2.3662109,4.4407349-3.3708496,5.8994751
		c-1.0050354,1.4910889-2.5284424,3.5332642-3.4036865,4.5703735c-0.842804,1.0372925-2.5284424,2.8848877-3.7922668,4.0518188
		c-1.2321472,1.1995239-2.982666,2.7553101-3.8575439,3.5007935c-0.9076843,0.7456665-2.8200378,2.1717529-4.3109741,3.1443481
		c-1.4913635,0.9724121-3.8575439,2.3662109-5.2515564,3.1116333c-1.3936157,0.7456665-3.9544983,1.9125977-5.6401062,2.5933228
		c-1.7180634,0.680603-4.3110046,1.5234375-5.8023376,1.8799438c-1.4909515,0.388916-3.8895874,0.9077148-5.3805389,1.1346436
		c-1.8478546,0.3240356-4.2465057,0.486084-7.6822357,0.486084c-3.9873352,0-5.5756073-0.097168-8.0711975-0.5834351
		c-1.7180786-0.3240967-4.1816101-0.8752441-5.5107269-1.2642212c-1.3287048-0.3565063-4.1167145-1.5233765-6.1909027-2.5606689
		c-2.0745697-1.0372925-4.9270782-2.6904907-6.3206787-3.6953125c-1.4264526-1.0048828-4.2789459-3.5006714-6.3535309-5.607666
		c-2.074585-2.0421753-5.3809357-5.6401367-7.3257294-7.9416504c-1.9772339-2.269043-4.1487579-4.6352539-4.8297424-5.218689
		c-0.7134247-0.6158447-1.9447937-1.4911499-2.7875977-1.9772339c-0.810379-0.4862671-2.3662109-1.0697632-3.5010376-1.2966309
		c-1.7180634-0.3889771-2.2364197-0.4214478-3.6300201-0.1296387c-0.8752594,0.194519-2.2692566,0.6481323-3.0796204,1.0695801
		c-0.8103638,0.388916-2.074585,1.2642212-2.8200531,1.9449463c-0.7454834,0.680603-1.7505188,1.9448242-2.2039795,2.8200684
		c-0.4866943,0.8752441-1.069931,2.3337402-1.2970581,3.2090454c-0.2267151,0.8752441-0.4210052,2.3986206-0.4210052,3.3710327
		c0,0.9401245,0.1297913,2.3015137,0.291626,2.9498291c0.1618347,0.680603,0.6160736,1.880127,1.0046387,2.6904907
		c0.3893585,0.7778931,1.3291168,2.1068115,2.0749817,2.9171753c0.9073029,1.0048218,1.9768372,1.7504883,3.3383942,2.4310913
		c1.8150177,0.8752441,2.2692566,1.0048218,4.5705719,1.0697632c2.1066284,0.0648804,2.884552,0,4.0842743-0.4538574
		c0.8103638-0.291626,2.0096893-0.9724121,2.6902618-1.4587402c0.6485291-0.486084,1.653183-1.5233765,2.2043762-2.3012695
		l1.0046387-1.3937988c2.7876129,3.4359131,4.9919739,5.8345947,6.7096405,7.5524292
		c1.7180786,1.7180786,4.506073,4.1491699,6.2241516,5.4133911c1.6852264,1.2640381,3.8246918,2.7227173,4.6999512,3.2736816
		c0.9076996,0.5187378,2.884552,1.5560303,4.4403839,2.3015137c1.5562286,0.7454834,4.2789459,1.8476563,6.0619049,2.4310913
		s4.5052795,1.3289185,6.0615234,1.6531982c1.5558319,0.3240356,4.0518188,0.6807861,5.5103149,0.8103638
		c1.491333,0.1295776,3.9873199,0.2269287,5.5431671,0.2593384c1.5558319,0,4.4403839-0.194458,6.45047-0.388916
		c2.0092926-0.2269287,4.6026154-0.5836792,5.8023376-0.8428345c1.1664734-0.2269287,3.5326691-0.8428345,5.2183075-1.3291016
		c1.7180481-0.486084,4.2464905-1.3289185,5.6725464-1.8798828c1.3940125-0.5512085,4.1816101-1.8476563,6.1912842-2.8525391
		c2.0097046-1.0048218,4.8946533-2.65802,6.45047-3.6953125c1.5562439-1.0048218,4.0518494-2.8200073,5.5431824-3.9869385
		c1.4584961-1.1670532,3.5651245-2.9822388,4.667511-4.0195313s3.1116638-3.2090454,4.4732361-4.8297729
		c1.3615417-1.6207275,3.2090149-4.0518188,4.084259-5.3807373c0.8748474-1.3291016,2.0421448-3.1442871,2.592926-4.0518188
		c0.5187378-0.8752441,1.491333-2.7553711,2.171936-4.1815796c0.6485291-1.3937988,1.7504883-4.1165161,2.3986206-6.0290527
		c0.6809998-1.9448242,1.4588928-4.6677246,1.7505188-6.0615234c0.291626-1.4262695,0.7130432-3.7277832,0.8748779-5.121582
		c0.2271118-1.7503052,0.2920227-4.4407959,0.1946716-8.4926147
		C305.2521973,539.6619873,304.993042,536.2584839,304.6040649,533.7949829z M545.4121704,573.178772
		c-0.1947021-0.8428345-0.7130127-2.171936-1.102356-2.9498291c-0.3886108-0.7779541-1.2962646-2.0421753-1.9768677-2.755188
		c-0.7134399-0.7454834-1.8803101-1.6856079-2.5933228-2.074585c-0.7130127-0.388916-2.0421143-0.9399414-2.9174194-1.1992798
		c-1.1019897-0.2918701-2.2043457-0.4214478-3.3708496-0.3240967c-1.199707,0.097168-2.3341064,0.3889771-3.5010376,0.9399414
		c-0.9725952,0.4538574-2.5933228,1.4911499-3.6303711,2.3015137c-1.1344604,0.9075317-3.3388062,3.2414551-5.4458618,5.7697144
		c-1.9447632,2.3339233-4.6026001,5.3484497-5.899231,6.6773682c-1.3291626,1.3291016-3.4357605,3.3063354-4.6679382,4.3436279
		c-1.2638245,1.0695801-3.144104,2.4957886-4.1816101,3.1765747c-1.0366821,0.6807861-3.0467834,1.8476563-4.4403687,2.5606689
		c-1.4264526,0.7457275-3.7926636,1.7505493-5.2515564,2.2366333c-1.4909363,0.5187378-3.5975647,1.1346436-4.7323914,1.3615723
		c-1.1019897,0.2591553-3.0792542,0.5509644-4.4403992,0.7130127c-1.3294983,0.1620483-3.9873352,0.2918091-5.8996887,0.2918091
		c-1.9451904,0-4.6029968-0.1297607-5.9320984-0.2918091c-1.3287354-0.1620483-3.3388062-0.4538574-4.4403992-0.680603
		c-1.1023865-0.2268677-3.1765747-0.7456665-4.5709534-1.1994629c-1.4260559-0.4212646-3.7922668-1.2640381-5.2507629-1.8799438
		c-1.4909363-0.6158447-3.5983582-1.6207275-4.7323914-2.2041626c-1.1023865-0.6159058-3.2090149-1.9125366-4.7003479-2.8849487
		c-1.4913635-0.9724121-3.7277832-2.6255493-4.9915771-3.6628418c-1.2321777-1.0697632-3.403717-3.1118774-4.8301392-4.6028442
		c-1.3940125-1.4586792-3.1441345-3.5007935-3.9220581-4.5380859c-0.7458496-1.0372925-1.9772339-2.8525391-2.7227173-4.0518188
		c-0.7454529-1.1669312-1.782959-2.9821167-2.3013-4.0194092c-0.5191345-1.0372925-1.3944092-3.0469971-1.9127502-4.4407959
		c-0.5183411-1.4262085-1.2642212-3.7601929-1.6207275-5.2510986c-0.3565063-1.4911499-0.8103638-3.5657349-0.9725952-4.6353149
		c-0.1618347-1.1021729-0.291626-4.1815796-0.291626-6.8718262c0-3.4683838,0.1618347-6.1588745,0.5836487-9.1087036
		c0.291626-2.2688599,0.940155-6.2235718,1.4584961-8.7193604c0.4862976-2.5284424,1.5558472-7.6824341,2.3986511-11.4424438
		c0.8103638-3.79245,1.782959-8.8166504,2.1394653-11.1830444c0.3565063-2.3662109,0.7130432-5.7050171,0.8103638-7.4228821
		c0.1293945-2.2366028,0.0645142-3.7277527-0.2267151-5.4456177c-0.2271423-1.2966614-0.6809998-2.9822998-1.0050659-3.7602234
		c-0.2919922-0.7778931-0.9725952-2.0421143-1.4584961-2.8200378c-0.5187378-0.7779236-1.491333-1.9772339-2.2043457-2.65802
		c-0.7134399-0.6805725-1.8799133-1.5882874-2.6253967-2.0097046c-0.7454529-0.3889465-2.0100708-0.9399414-2.8204346-1.1668701
		c-0.8103638-0.2593689-2.4310913-0.4213867-3.6300354-0.4213867c-1.6856079,0-2.4635315,0.1295776-3.5010071,0.6158752
		c-0.7454834,0.3565063-1.6207275,0.9723816-1.9772644,1.426239c-0.3240662,0.4214172-0.5836182,1.0048523-0.5187378,1.2966614
		c0.0324402,0.3889771,0.6481323,0.7454834,2.3662109,1.3289185c1.7505188,0.6483154,2.5608826,1.1021729,3.4361267,1.9772339
		c0.7779236,0.8103638,1.2638245,1.6207275,1.5882874,2.6904602c0.3889465,1.1993408,0.4859009,2.4311218,0.4538574,5.4456482
		c-0.0324402,2.6904602-0.2267456,4.9917603-0.6160889,7.2932739c-0.3240662,1.8476563-0.7779236,4.1491699-1.0046387,5.1215515
		c-0.2267456,0.9399719-1.1668701,4.9593506-2.1070251,8.8815613c-0.940155,3.9222412-2.1390991,9.1734009-2.6582336,11.7016602
		c-0.5183411,2.5283813-1.1989136,6.4504395-1.5233765,8.7519531c-0.3240662,2.3339233-0.6481323,6.4829102-0.7130432,9.4325562
		c-0.1297607,3.3063354-0.0648804,6.4182129,0.1622314,8.4603271c0.1622314,1.7827759,0.680603,4.7001953,1.1019897,6.4505005
		c0.4214172,1.7827759,1.2642212,4.6352539,1.8474731,6.3533325c0.6160583,1.6854248,1.9451904,4.6674805,2.9498291,6.5800781
		c1.0046387,1.9447632,2.3666077,4.3436279,3.0471802,5.3807373c0.6805725,1.0372925,2.3013,3.2738647,3.5975647,4.9594727
		c1.3294983,1.6856689,3.9224548,4.538147,5.7698975,6.2884521c1.8478699,1.7827759,4.7648621,4.2787476,6.45047,5.5752563
		c1.7180786,1.2641602,4.1491699,2.9498291,5.4133911,3.6952515c1.2317505,0.7779541,4.1491394,2.3015137,6.4508667,3.4035034
		c2.3013,1.1346436,5.2507324,2.3988647,6.5798645,2.8849487c1.3615417,0.4538574,3.8250732,1.1668701,5.5431519,1.6207275
		c1.6852112,0.4214478,4.2460938,0.9724121,5.6401062,1.1993408c1.3936157,0.2269287,4.3110046,0.5512085,6.45047,0.6807861
		c2.6578064,0.194458,5.0564575,0.194458,7.4226685,0c1.9123535-0.1620483,4.9595337-0.5510254,6.7096558-0.8752441
		c1.782959-0.291626,4.506073-0.9724121,6.0618896-1.4909668c1.5558472-0.5187378,3.9869385-1.4262695,5.3805542-2.0421143
		c1.4264526-0.6159058,3.5983582-1.7505493,4.8621826-2.463562c1.2646179-0.7456665,3.4361267-2.2041626,4.8297424-3.2414551
		c1.4264526-1.0372925,3.4361572-2.6255493,4.4736328-3.5332642c1.0046387-0.875061,3.144104-3.0469971,4.6999512-4.8297729
		c1.5558472-1.7827148,3.1765747-3.6303711,3.5654907-4.1489258c0.5836792-0.7456665,0.8103638-0.8428345,0.9397583-0.5512085
		c0.0973511,0.2269287,0.5516357,0.8752441,1.0050659,1.4586792c0.4538574,0.5834351,1.4260254,1.4911499,2.171936,1.9772339
		c0.7130127,0.5187378,1.9772339,1.1346436,2.755127,1.4262695c0.9077148,0.3566895,2.074585,0.5187378,3.2739258,0.5187378
		s2.5284424-0.194458,3.5655518-0.5512085c0.9401245-0.2915649,2.3016968-0.9399414,3.0147095-1.3937988
		c0.7454834-0.486084,1.782959-1.4262085,2.3337402-2.0743408c0.5507813-0.6807861,1.2966919-1.8152466,1.6531982-2.5609131
		c0.388916-0.7454834,0.8103638-1.9772339,1.0050049-2.755127c0.1618652-0.7779541,0.2912598-2.1070557,0.2912598-2.9498291
		C545.8331909,575.4154053,545.638916,574.0215454,545.4121704,573.178772z"/>
</g>
</svg>
