<?xml version="1.0" encoding="utf-8"?>
<!-- Generator: Adobe Illustrator 22.0.1, SVG Export Plug-In . SVG Version: 6.00 Build 0)  -->
<svg version="1.1" id="Layer_1" xmlns="http://www.w3.org/2000/svg" xmlns:xlink="http://www.w3.org/1999/xlink" x="0px" y="0px"
	 width="720px" height="720px" viewBox="0 0 720 720" style="enable-background:new 0 0 720 720;" xml:space="preserve">
<style type="text/css">
	.st0{fill:#FAAF19;}
	.st1{fill:#D2001C;}
</style>
<g>
	<path class="st0" d="M683.0599365,232.7514038c-0.5187988-3.5658722-1.7831421-10.2115021-2.7880859-14.7825165
		c-1.0373535-4.5708313-2.7554321-11.0868378-3.8577271-14.4582214c-1.1345215-3.371582-3.0148315-8.6557007-4.2467041-11.7029877
		c-1.2318726-3.0797424-3.8901978-8.9473572-5.932312-12.999588c-2.0100708-4.0844727-4.9924927-9.5308533-6.6134033-12.0917816
		c-1.5884399-2.5933838-5.5757446-8.26651-8.8499756-12.6428375c-3.2417603-4.3765259-8.62323-10.8276367-11.9297485-14.3612671
		c-3.3067017-3.533432-9.0769653-9.0120544-12.8375244-12.1566849c-3.760376-3.1768875-9.7578125-7.780159-13.3236694-10.2763977
		c-3.5661011-2.4962387-10.3737793-6.7752151-15.1390991-9.4983978c-4.7330322-2.7554398-11.8649902-6.3539658-15.852356-8.007309
		c-3.9550781-1.6531448-9.4659424-3.8575287-12.2215576-4.894928c-2.7879028-1.0049438-8.2989502-2.7880783-12.2538452-3.9226227
		c-3.9550781-1.1669998-10.4386597-2.7878876-14.4259644-3.6307831c-3.9550781-0.8428955-10.4386597-2.0423431-14.3935547-2.6258392
		c-4.7655029-0.7455444-14.1340942-1.19944-27.7496338-1.3614883c-11.2813416-0.1297989-21.493042-0.0973511-22.6924744,0.0646973
		c-1.1669922,0.1620483-4.7330933,0.6483994-7.9099731,1.0698471c-3.1768799,0.4538956-9.9847412,1.7504883-15.1390686,2.9176788
		c-5.1545105,1.1345444-13.5830688,3.4362869-18.7375793,5.0571747c-5.1220703,1.6208954-12.7402039,4.246727-16.9220276,5.8351669
		c-4.1495667,1.5884476-13.0644836,5.3165741-19.8074341,8.2989578
		c-6.7427673,3.0148315-21.1687317,9.7577972-32.0610962,15.0094681
		c-10.8925171,5.2841263-22.8869629,10.8923492-26.6475525,12.4807892
		c-3.760376,1.5884399-9.5955505,3.7605743-12.9671326,4.8302155c-3.3713684,1.0698547-8.5583496,2.3017426-11.540741,2.7231903
		c-4.0522156,0.6159515-6.3537598,0.6159515-9.3363342-0.0324554c-2.3015442-0.486145-5.9647827-2.1070251-8.6555176-3.8577271
		c-2.5933838-1.6208801-7.618103-5.9325104-11.2166443-9.5632935c-3.5983276-3.6307831-7.7154541-8.0395584-9.1418457-9.8225021
		l-2.625824-3.2417831c-3.4685364,3.3389359-5.5108643,5.9647751-6.7427673,7.9424133
		c-1.2643433,1.9774399-2.8527832,5.4786224-3.5660706,7.7477112c-0.7780151,2.5286865-1.2966003,6.4835663-1.2966003,10.1143494
		c0,4.1820221,0.486145,7.6507568,1.6855774,11.7354279c0.9402466,3.1768799,2.0098877,6.3862152,2.3666382,7.1317596
		c0.4537048,0.972702-0.7457275,0.4863586-4.4089661-1.7504883c-2.7554321-1.7182312-7.6181183-4.3116302-10.7949982-5.8027191
		c-3.1770782-1.458847-8.8502045-3.6307831-12.6105804-4.8304138c-3.760376-1.1994476-9.4335022-2.7878876-12.6105804-3.533432
		c-4.6681824-1.0698547-8.6879578-1.3292542-21.2660828-1.3292542c-13.9071808,0.0324554-16.1115723,0.1947021-21.5901947,1.685791
		c-3.371582,0.9402466-8.5583496,2.6258392-11.540741,3.7605896c-2.9501343,1.1669922-7.9748535,3.6954803-11.1517334,5.673111
		c-3.1770782,1.9449921-7.9424133,5.446167-10.6006927,7.7477112c-2.6258392,2.3341827-6.8401184,6.7105103-9.3363495,9.7253571
		c-2.5284882,3.0472717-5.8676147,7.7803497-7.4560699,10.6006927l-2.8852234,5.0571594
		c-11.7027893,5.1220856-18.0243073,8.5259094-21.5901871,10.8598938
		c-3.5660782,2.334198-10.3737488,7.7479095-15.139267,12.0270844c-4.7653275,4.2791901-9.9521027,8.7204132-11.5082932,9.8874054
		c-1.5884399,1.1994476-4.6681747,3.047287-6.8725662,4.1495819c-2.171936,1.1020966-6.0621109,2.5284882-8.6230545,3.1768799
		c-2.5933838,0.6483917-5.9000664,1.1669922-7.3913574,1.1669922c-2.0747871,0-2.6905365,0.2918549-2.7229843,1.2643433
		c0,0.7132874,0.5185966,3.047287,1.1669922,5.2516785c0.6483955,2.1721344,2.3339882,6.2243652,3.7603798,9.0122375
		c1.7182426,3.4038391,4.3765297,6.8401184,8.0073051,10.4709015c3.6956863,3.695694,7.1966629,6.3215179,10.8598938,8.2340546
		c2.9825821,1.5561829,8.493454,3.5660706,12.2540359,4.506134c3.7603836,0.9402466,8.3636551,1.7182312,10.2439499,1.7182312
		c1.8802872-0.0324402,3.4362793,0.1296082,3.4362793,0.3240967c0,0.2269592-0.7130966,1.4263916-1.5884399,2.723175
		c-0.8428955,1.2966003-2.8852386,3.954895-4.4736786,5.9000854c-1.6208954,1.9774475-5.5433197,5.5108643-8.7204056,7.8450623
		c-3.1444321,2.3664246-8.2665024,5.5435181-11.3462372,7.0995178c-3.047287,1.5235291-8.0720062,3.7928162-11.151741,5.0247192
		c-3.0797348,1.2318726-9.7900505,3.3066711-14.9445724,4.6357117c-5.1545219,1.3292542-11.5731888,2.6907349-14.231472,3.0148315
		C38.1721382,305.3998718,36,305.9833679,36,306.3723755c0.0324478,0.3889771,1.3939438,2.463562,3.0797348,4.6032715
		c1.6857872,2.1394958,4.9922714,5.5110474,7.3589096,7.4884949c2.3988876,1.9774475,6.4511147,4.8302307,9.0120506,6.3215332
		c2.5611382,1.5235291,6.7754135,3.5983276,9.3688011,4.6032715c2.560936,1.037384,7.2615585,2.5286865,10.438446,3.3391113
		c3.1770782,0.8104553,9.0122528,1.8476563,12.9671326,2.269104c4.1820221,0.4538879,11.2490845,0.6159363,16.7601547,0.3567505
		c5.7702713-0.2918396,13.1616287-1.1994324,18.7374039-2.3666382c5.0247269-1.037384,11.4435806-2.6905518,14.199028-3.6307678
		c2.7878876-0.9400635,4.7330627-1.4588623,4.3440704-1.134552c-0.3889923,0.3565369-2.4637909,2.0747681-4.6357269,3.8252869
		c-2.139679,1.7504883-5.2516632,4.9922485-6.9374542,7.1643982c-1.685791,2.2043762-4.3765335,6.7427673-5.9974213,10.1143494
		c-1.5884399,3.3713684-4.4087753,11.3462219-6.2566147,17.7000122c-1.9125443,6.6133423-4.5708313,14.0045166-6.2890701,17.3111877
		c-2.1070404,4.1171265-4.505928,7.3589172-8.3961029,11.2489014c-3.1768875,3.1770935-7.6830139,6.7754211-10.8276443,8.6232605
		c-2.9823837,1.7180481-5.5757751,3.274231-5.7702713,3.4038391c-0.1944962,0.1620483,0.2916489,0.6808167,1.0696487,1.1345215
		c0.8104401,0.4539185,3.7281265,1.7831421,6.4835663,2.9176941c2.7880783,1.134552,7.3264542,2.625824,10.0820923,3.3389282
		l5.0571747,1.2643433c0.2916489,4.3440857,0.8428955,9.9847412,1.4588394,15.3337708
		c0.5834961,5.3812561,2.0098877,14.2961731,3.1444321,19.8719482c1.1669998,5.5435181,2.658287,12.0270691,3.3391342,14.4259644
		c0.6806488,2.3666382,1.4586411,4.7979736,1.6855927,5.3490295c0.324295,0.7455444-0.4214478,0.5834961-2.6258392-0.5187988
		c-1.6855927-0.8751526-5.5757675-2.3015442-8.6230545-3.1768799c-4.4412231-1.2643433-7.5209579-1.5884399-15.0094681-1.6209106
		c-6.4835663-0.0324402-9.8226929,0.2593994-10.6331406,0.8753662c-1.0696487,0.8104248-0.9400482,1.2643433,1.5561905,4.6681824
		c1.5235443,2.1070251,4.0844803,6.0945435,5.6406708,8.8499756c1.5884399,2.7879028,3.7279282,7.1644287,4.7653198,9.7578125
		c1.0049515,2.5609436,2.4962387,6.9699097,3.2742386,9.7253418c0.7779922,2.7879028,1.6208878,7.8126221,1.912735,11.2164612
		c0.259201,3.371582,0.9400482,9.3687744,1.5559921,13.3238525c0.5834961,3.9873657,1.7182388,9.8225098,2.5286865,12.9995728
		c0.7779999,3.1768799,2.5933838,8.7203979,3.9873276,12.2863159c1.3939438,3.5658569,3.5658875,8.2664795,4.7653275,10.4708862
		c1.1994476,2.1721191,3.5011826,5.9000854,5.0896225,8.2989502c1.5884399,2.3666382,4.8626709,6.3864136,7.2615585,8.914917
		c2.399086,2.5286865,6.3215179,5.9973755,8.6879578,7.7154541c2.3666382,1.7182617,6.5809174,4.1495972,9.3688049,5.4136963
		c2.7878876,1.2643433,7.9748535,2.9177246,11.5407257,3.663269c3.5660858,0.7132568,8.5908051,1.3292236,11.1517487,1.3292236
		c2.5611267,0,7.6830139-0.4863281,11.3462372-1.0698242c3.6632385-0.5834961,9.1743011-2.0748291,12.2540283-3.274231
		c3.047287-1.2319336,6.8076782-3.0148315,8.26651-3.9873657c1.4912872-0.9724731,2.8852386-1.7504883,3.0797424-1.7504883
		c0.1944885,0-0.5512543,1.6856079-1.6208954,3.760376c-1.1022949,2.0423584-4.2467346,6.0621338-7.0348053,8.8500366
		c-2.7554474,2.8203125-7.6181183,6.840271-10.7949982,8.9473267c-3.1770782,2.0747681-9.2391968,5.4786377-13.4859314,7.5534058
		c-4.2467194,2.0423584-7.618103,4.0522461-7.5209656,4.4412231c0.0973511,0.3890381,3.0797424,2.6907349,6.6133728,5.0896606
		c3.5658722,2.3988647,9.0444946,5.446167,12.2213898,6.7752075c3.1770782,1.3292236,8.8501892,3.2095337,12.6105804,4.1820068
		c5.4137115,1.3939209,8.6555023,1.782959,15.4958191,1.782959c6.3537598,0,10.0818939-0.3565674,14.0367737-1.4263916
		c2.9825745-0.7780151,7.683197-2.5609741,10.4386444-3.954895c2.7878876-1.394165,7.1966553-4.1171265,9.8224945-6.0623169
		c2.6258392-1.9125366,8.4287567-6.7427368,12.8699799-10.6978149c4.4412231-3.9873657,10.5682373-9.109436,13.5830688-11.3787231
		c3.0473022-2.3015137,8.1044617-5.446167,11.2813416-7.0346069c3.1770935-1.5559692,8.6879578-3.5334473,12.2540283-4.4087524
		c4.408783-1.0374146,8.7851257-1.5237427,13.6802368-1.5237427c3.9550781,0,8.3314209,0.2269287,9.7253418,0.4863281
		c1.3939514,0.2593994,4.6357422,0.9400635,7.1968689,1.5237427c2.5933838,0.5834961,6.8076782,1.7504883,9.3685913,2.5933838
		c2.5935974,0.8104248,12.3189392,4.5059204,21.6228333,8.2015991c9.3039246,3.6956787,19.353363,7.5534058,22.3357544,8.5908203
		c2.9501343,1.0373535,8.2991333,2.6907349,11.8650208,3.663208c3.5658875,0.9725342,9.7253418,2.4313354,13.712677,3.2093506
		c3.9550781,0.8104248,10.2766113,1.782959,14.0369873,2.171936s10.7302856,0.7133179,15.4956055,0.7457275
		c4.7330933,0,12.3513794-0.3242798,16.9222107-0.7457275c4.5383911-0.3889771,12.1566772-1.3939209,16.9220276-2.2044067
		c4.7655029-0.8104248,12.3836365-2.4637451,16.9222107-3.663208c4.5708008-1.2318726,11.3786621-3.274231,15.1390686-4.6032715
		c3.7605591-1.296814,10.2441406-3.8577271,14.3935242-5.640686c4.1818237-1.782959,10.5033569-4.7655029,14.069397-6.6456299
		c3.565918-1.8478394,9.7253418-5.348999,13.6802368-7.7478638c3.9550781-2.4313354,10.406189-6.7105713,14.3286133-9.4984131
		c3.9226685-2.7880859,11.0546265-8.3638916,15.852356-12.3511963c4.7977905-4.0199585,12.6105957-11.1842041,17.3759155-15.9172363
		c4.7330933-4.7329102,11.8325806-12.3187866,15.755249-16.8895874
		c3.9224243-4.5385742,10.2763672-12.5134277,14.1016846-17.6677856c3.8252563-5.15448,8.3963013-11.5082703,10.1467896-14.069397
		c1.7180176-2.5933838,5.8676147-9.2390137,9.1742554-14.8149719c3.3065186-5.543335,8.2340698-14.65271,10.9572754-20.196228
		c2.7229614-5.5435486,6.5806885-14.1665955,8.6230469-19.1266174c2.0423584-4.9598083,4.6357422-11.9621887,5.7704468-15.5280762
		c1.1345825-3.5658569,2.7230225-9.2389832,3.5009766-12.6105652c0.8104858-3.4038391,1.6533813-7.6830139,1.8803101-9.5631104
		l0.3889771-3.4364624l-155.2165527-0.0646973c-2.1394653,5.3488159-4.5383606,10.5033264-6.7105103,14.8474121
		c-2.171936,4.3763123-5.6731262,10.5357971-7.7477112,13.712677c-2.1072388,3.1768799-5.7055664,8.0395508-8.0072937,10.7627258
		c-2.3017578,2.7554321-6.8076782,7.0670776-9.952301,9.5955505c-3.1768799,2.5611572-8.0395508,5.7380371-10.8274536,7.0995178
		c-2.7556152,1.3616943-7.131958,3.0473022-9.7253418,3.7281189c-3.371582,0.9076233-7.1968689,1.2319031-13.6804199,1.1670227
		c-6.6456299-0.0649109-10.5033569-0.4861755-14.7825317-1.6209106c-3.1444397-0.8104248-8.0071106-2.5933838-10.7951965-3.9224243
		c-2.7554321-1.2967834-7.1317444-4.0846863-9.7253418-6.191925c-2.5609436-2.0747681-5.6731262-4.9598083-6.9048157-6.4186707
		c-1.199646-1.4588318-3.3066711-4.2791748-4.6359253-6.2565918c-1.3290405-1.9776611-3.6307678-6.191925-5.1218567-9.3688049
		c-1.4588623-3.1768799-3.371582-8.3963013-4.2144775-11.540741c-0.8104553-3.1768799-1.9774475-8.8824463-2.5609436-12.6430359
		c-0.5834961-3.8901672-1.037384-11.8648376-1.037384-18.4132996c0-6.3539734,0.4863281-14.9445801,1.1022949-19.1264038
		c0.5834961-4.1820374,1.8802795-11.1517334,2.8527832-15.5282593c0.9724731-4.3438721,3.0472717-11.8323975,4.5708008-16.5979309
		c1.5559998-4.7653198,4.0198059-11.7352295,5.5110779-15.4956055c1.4913025-3.7930298,4.9275818-11.3462524,7.6505737-16.7926025
		c2.723175-5.4784241,6.8078613-12.9344788,9.0769348-16.5977173c2.2692871-3.6956787,6.4835815-9.8551636,9.3688049-13.7128906
		c2.8852234-3.8901672,8.5583496-10.5033264,12.6105957-14.7176208c4.0846558-4.2142639,9.8224792-9.6281891,12.8050842-11.9946289
		c2.9499207-2.39888,7.1641846-5.5110626,9.3685913-6.905014c2.1721191-1.3939362,7.1968689-4.1171265,11.1517334-6.0296631
		c3.9550781-1.8802948,10.4386597-4.3116302,14.4259644-5.3490143c5.2516785-1.3939514,9.6929016-2.009903,16.5654602-2.2690887
		c6.094574-0.2593994,10.7303162-0.0649109,13.3238831,0.5185852c2.171936,0.4863586,5.8676147,1.8802948,8.2015991,3.1444397
		c2.3342285,1.2318878,5.5435181,3.7281342,7.131958,5.5110779c1.5884399,1.7829285,3.9226685,5.5435181,5.2192383,8.2989502
		c1.296814,2.7880859,2.7556152,7.0023651,3.3067017,9.4012604c0.5510254,2.4637756,0.9075928,8.2989502,0.8753052,13.712677
		c-0.0324097,5.1545105-0.5512085,12.2864685-1.199646,15.8847961c-0.6481934,3.5658875-1.8800659,9.2065735-2.7878418,12.5132446
		c-1.0374146,3.6632385-1.3939819,6.1270142-0.9400635,6.3215027c0.3889771,0.1620483,32.9688721,0.194519,72.3890381,0.097168
		l71.6757813-0.194519c1.8803101-8.9471436,3.0148315-15.5929565,3.7279663-20.5527954
		C683.6757202,279.5952148,684,273.1116333,684,258.3940125C684,246.3669281,683.6434326,236.8360901,683.0599365,232.7514038z
		 M211.6073151,426.3505859c-2.8850403,1.685791-7.6505585,4.0846558-10.6329498,5.348999
		c-2.9823761,1.2319031-7.5209503,2.6907349-10.0818939,3.2417908c-2.5933838,0.5187988-7.6183014,0.9725037-11.1841888,1.0049438
		c-3.5658875,0-8.1044617-0.2916565-10.0818939-0.6483765c-1.9776459-0.3565674-6.1919098-1.6533508-9.3688049-2.8850403
		c-3.4038239-1.3292542-7.7803497-3.7605896-10.7302856-6.0298767c-2.7231903-2.074585-6.5484619-5.8351746-11.9621887-12.8048706
		l3.0797272-2.1072388c1.6855927-1.134552,5.8027191-4.8951416,9.1741028-8.3638611
		c3.371582-3.46875,7.0995178-6.9050293,8.2989655-7.6505737c1.1671906-0.7455444,3.4364777-1.3939209,5.0249176-1.3939209
		c2.3339844-0.0324707,3.7279358,0.5834961,7.1966553,3.2093201c2.3988953,1.7829285,7.0995178,5.3812561,10.4709015,8.0071106
		c3.5336304,2.723175,10.0820923,6.7105103,15.4633636,9.4012451c5.1545258,2.5609436,11.8972931,5.5759583,20.5854492,8.6232605
		L211.6073151,426.3505859z"/>
	<path class="st1" d="M79.0834198,241.6016083c-1.9127426-1.8802948-3.4687347-3.6632385-3.4687347-3.9875336
		c0-0.2916412,1.1994476-0.7455444,2.6905365-1.037384c1.4912949-0.2916565,5.3165741-1.8153992,8.49366-3.4038391
		c3.1444321-1.5884399,8.3961029-4.9275665,11.6054382-7.4236145c3.2093277-2.4962311,8.5583496-6.6456146,11.8974838-9.2067413
		c3.3064804-2.5933838,8.1367111-5.9647675,10.6978455-7.5209656c2.5933838-1.5559845,6.9697113-3.7928314,9.7253418-4.9922791
		c2.7878876-1.1669922,7.8126068-2.7554321,11.1839905-3.4687195c4.8304291-1.0698547,8.2342529-1.2967987,16.2089233-1.0698547
		c6.3215179,0.1945038,11.6705322,0.7457581,14.3935242,1.4913025c2.3666382,0.6808472,7.3913574,2.6582794,11.1841888,4.4412231
		c3.7605743,1.7829437,8.9473419,4.7655182,11.5082855,6.6131592c2.5935822,1.8478394,7.3589172,5.86763,10.6331482,8.9798126
		c3.274231,3.0797272,5.8027191,5.8351593,5.6406708,6.1594543c-0.1945038,0.2916565-2.6907349-0.0648956-5.6082306-0.7457428
		c-2.8852234-0.713089-8.007309-1.4910889-11.3786926-1.7504883c-3.8577271-0.2918396-7.8775024-0.0971527-10.7951813,0.4539032
		c-2.5933838,0.5186005-6.3215179,1.5235443-8.2989655,2.2692871c-1.9774323,0.713089-9.2714386,5.0894165-16.2089081,9.6928864
		c-8.1369019,5.4137268-14.6527252,9.141861-18.3808594,10.5682526c-3.1446228,1.2318878-8.817749,2.8527832-12.6105804,3.6632233
		c-4.6681671,0.9400482-9.7900467,1.4261932-16.2089081,1.4261932c-6.4511185,0.0324554-10.9247894-0.3240967-14.3935242-1.1669922
		c-2.7878876-0.6806488-7.294014-2.4313354-10.0494461-3.8901672
		C84.7887878,246.2373352,80.9635086,243.4817047,79.0834198,241.6016083z M211.4128113,554.2714233
		c4.3765259-4.6033325,10.3737488-10.2764282,13.3238831-12.6430664c2.9823914-2.3664551,7.618103-5.5757446,10.2763977-7.1641846
		c2.6907349-1.5884399,4.8951263-3.0473022,4.8951263-3.2418213c0-0.194458-1.5561981-0.7457275-3.4362793-1.2318726
		c-1.9127502-0.4863281-5.0571747-1.0698242-7.0348206-1.296814c-1.9774323-0.2269287-6.0296631-0.0646973-9.0120544,0.3567505
		c-2.9823761,0.4212646-9.1418457,2.074585-13.6804199,3.6954956c-4.5708313,1.6209106-11.3784943,3.8901978-15.1390686,5.0571899
		c-3.7603912,1.1671753-9.2714539,2.3016968-12.2538452,2.5286865c-3.6307678,0.2593994-7.131958,0.0324097-10.7951813-0.7455444
		c-2.9823914-0.6159668-7.5209656-2.1721802-10.0819092-3.4365234c-3.274231-1.5884399-6.4511108-4.0521851-10.5033417-8.1044312
		s-8.3963013-9.7253418-14.1990204-18.4779968c-4.6357269-6.9374695-9.8226929-14.2639465-11.540741-16.2413635
		c-1.7182388-1.9774475-4.8951187-4.7977905-7.0348053-6.2566223c-2.1719437-1.4263916-4.7653275-2.8527832-5.8027191-3.1446228
		c-1.8153915-0.5186157-1.847847-0.4861755-0.972496,1.5561829c0.486145,1.134552,1.7504883,4.6681824,2.8203354,7.8450623
		c1.3614883,4.0522156,2.1394882,8.3638306,2.5933838,14.4259644c0.3565521,4.7653198,1.3292389,11.9297485,2.1396866,15.8846436
		c0.8104477,3.9874878,2.1394882,9.4983521,2.9823837,12.286438c0.8104477,2.7554321,2.6907349,7.8126221,4.1169281,11.184021
		c1.458847,3.371582,4.4414291,8.8826294,6.6782684,12.2540283c2.2043915,3.3713989,5.932312,7.8775024,8.26651,10.0169678
		c2.3339844,2.1397095,6.1917114,4.960022,8.5581512,6.2890625c2.3666382,1.3292847,6.418869,2.9501343,9.0122528,3.6309814
		c2.8527832,0.7455444,7.3264618,1.2317505,11.5082855,1.2317505c4.084671-0.0322876,8.7528534-0.5186157,11.540741-1.2641602
		c2.5611267-0.6484375,6.7754059-2.3342285,9.3688049-3.663269c2.6907349-1.4263916,6.9699097-4.7006226,10.0818939-7.7154541
		C201.0715179,564.9692383,207.0689392,558.8746948,211.4128113,554.2714233z M667.4345093,237.2575378
		c-0.5834961-4.4412384-1.880249-11.3462524-2.8203125-15.3335724c-0.9727173-3.9550781-2.9501343-10.6331482-4.4089966-14.7825317
		c-1.4263916-4.1820221-4.3438721-11.1517334-6.4511108-15.5282593c-2.1069946-4.3763275-5.6730957-10.8598938-7.9423828-14.4259796
		c-2.2368164-3.5983276-5.9000854-8.9471436-8.1367188-11.9297333c-2.2368164-2.9823761-6.5159912-8.1369019-9.4985962-11.5082855
		c-2.9823608-3.3389282-8.9796143-9.1418457-13.3236694-12.8697815
		c-4.3763428-3.7281342-11.1842041-8.9797974-15.1390991-11.6705322
		c-3.9550781-2.6905441-10.1143188-6.5160217-13.6804199-8.4934616c-3.5658569-1.9774399-9.5631104-4.9598236-13.3236694-6.6780624
		c-3.7928467-1.685791-11.086853-4.4736786-16.2089233-6.2241669c-5.1542969-1.7182388-13.0967407-3.9875259-17.6677246-4.9924698
		c-4.5383911-1.0372009-11.5083008-2.3664398-15.4956055-2.9499359c-4.0197754-0.6159515-14.3286438-1.1994476-23.4057922-1.361496
		c-8.914917-0.1620483-18.6402588,0-21.6226501,0.3889999c-2.9499207,0.3565445-8.7853088,1.3290405-12.9671326,2.1394882
		c-4.1493835,0.8104477-11.1192932,2.4962387-15.4633484,3.6956787c-4.3763428,1.2318954-11.9944458,3.6956787-16.9544678,5.4786224
		c-4.9275818,1.7829361-12.7077332,4.8951187-17.2787476,6.8725586c-4.5383911,1.9774475-18.315979,8.4610062-30.6024475,14.425972
		c-12.2862854,5.9647675-26.2259216,12.5456848-30.9914246,14.6204834
		c-4.7653503,2.074585-12.221405,4.9598236-16.5654602,6.4186554c-4.3439026,1.458847-10.3413086,3.1768951-13.3237,3.7928314
		c-2.9823914,0.6483917-8.817749,1.1671906-12.9671326,1.1994476c-6.094574,0.0324554-8.4285583-0.259201-11.8972778-1.5235443
		c-2.3666382-0.875351-6.5484619-3.1121826-9.303894-5.0247192c-2.7232056-1.8802948-6.2568359-4.8626709-7.8452759-6.6456146
		l-2.8527832-3.274231c0.8428955,5.6082153,2.0098877,9.8224945,3.1446533,12.9995728
		c1.1345215,3.1768799,3.760376,8.5257111,5.835144,11.9297333c2.3017578,3.7603912,6.2566223,8.6555176,10.2763977,12.675293
		c3.5661011,3.6307831,8.9473572,8.2017975,11.9297485,10.179245c2.9501343,1.9774323,7.1643982,4.5383759,9.3688049,5.7055664
		c2.1721191,1.1669922,4.0197754,2.3339844,4.1171265,2.6582794c0.0971375,0.2916565,0.7455444,0.5186005,1.3939514,0.5186005
		c0.6483765,0,0.9724731,0.2593994,0.6483765,0.5510559c-0.2918396,0.2918396-2.0423279,0.4214478-3.8901672,0.2918396
		c-1.8478394-0.1297913-6.4511108-0.8104401-10.2117004-1.5237427c-3.760376-0.713089-9.9198608-2.3339844-13.6802368-3.5983276
		s-10.7302856-4.1493835-15.4958191-6.4511108c-4.7653198-2.3017426-13.8422546-7.2615662-20.1637878-11.0221405
		c-6.3539734-3.7603912-13.3236694-7.8450623-15.4958038-9.0445099c-2.1719513-1.1994476-7.0346222-3.4362793-10.7949982-4.9275665
		c-3.7605743-1.4911041-9.7577972-3.3389435-13.3238831-4.0522308c-3.9548798-0.8104401-9.5955505-1.361496-14.425766-1.361496
		c-4.3440857,0-10.6656036,0.4539032-14.0369873,1.0698395c-3.3713684,0.5834961-8.3963013,1.8153992-11.1841888,2.7878876
		c-2.7554321,0.9400482-6.807663,2.6258392-8.9797974,3.7281342c-2.2043915,1.1020966-5.7702637,3.2093353-7.942215,4.7328796
		c-2.1721344,1.4912872-5.8676147,4.4412231-8.2017975,6.5484619c-2.3339844,2.1394806-6.2890625,6.6456146-8.8175507,10.0169983
		c-2.4962463,3.371582-4.3765259,6.1919098-4.2144775,6.3215179c0.1946869,0.0973511,1.8802795-0.8751526,3.7605743-2.1394958
		s5.3812714-3.2093353,7.7479095-4.3116302c2.3988953-1.1345367,6.7752228-2.5609283,9.7253418-3.1768799
		c3.8577423-0.8428955,7.229126-1.0373993,11.7027893-0.7457428c3.5983429,0.2593994,8.7204132,1.199646,11.8972931,2.2368317
		c3.0797272,0.972702,7.5209656,3.047287,9.9198456,4.6034851c2.3666382,1.5559845,6.5809174,5.219223,9.3363495,8.2015991
		c2.7878876,2.9501343,8.7853088,10.5357971,13.3561249,16.8573151c4.5385742,6.3215179,10.827652,14.7176208,13.9720764,18.7051544
		c3.1446381,3.9548798,9.141861,10.6329346,13.3238831,14.7825165c4.1818237,4.1818237,10.3088531,9.6929016,13.5828705,12.2862854
		c3.3067017,2.5609436,5.9649658,4.9275818,5.9649658,5.2192078c-0.0324402,0.2918701-1.1022949,0.5512695-2.3664246,0.5512695
		c-1.2967834,0-5.4139099-0.5187988-9.2067566-1.1347656c-3.8901672-0.6483765-13.6155243-3.4362793-22.6924744-6.5159912
		c-8.6879578-2.9499512-18.7373962-6.0296783-22.3034821-6.8401184c-4.8951263-1.134552-9.9845428-1.5884552-20.5527954-1.8802948
		c-11.0870361-0.3240967-15.7874603-0.1296082-22.3359222,0.8104401c-4.5385742,0.6808472-10.8598938,2.0423431-14.036972,3.047287
		c-3.1768951,1.0049438-8.039566,3.0150299-10.7951965,4.5061188c-2.7878876,1.4588623-6.8401184,3.9873352-9.0120544,5.5759888
		c-2.171936,1.5884399-7.5209656,6.7752075-11.8972855,11.4758301c-4.3440781,4.7006226-10.665596,11.443573-14.0369797,14.9770203
		c-3.3713837,3.5336304-7.9099579,7.8450623-10.0818939,9.5308533c-2.1721344,1.685791-5.9000702,4.2142639-8.2989578,5.6082153
		c-2.3666382,1.3941345-7.2293091,3.6632385-10.7951889,5.0896301c-3.5658875,1.3939209-7.7154617,2.7554321-9.1743011,2.9823914
		c-1.4910965,0.2269287-2.7229919,0.6483765-2.7229919,0.9402161c-0.0324478,0.2916565,2.4960403,1.7505188,5.5757751,3.2417908
		c3.0797348,1.4586487,7.5534058,3.1444397,9.9198456,3.760376c2.3666382,0.6159668,6.905014,1.296814,10.0819016,1.5559998
		c3.1770782,0.2593994,9.1743011,0.0973511,13.3238754-0.3565369c4.1818237-0.4539185,9.5308456-1.2966003,11.8972855-1.9125366
		c2.3664398-0.5834961,6.2566147-1.8478394,8.6555099-2.820343c2.3666382-0.9402466,8.5258942-4.019989,13.6804199-6.840332
		c5.1543274-2.8203125,11.4758453-5.8027039,14.0367737-6.6131592c2.6258392-0.8428955,7.6832123-1.6533203,11.540741-1.8802795
		c3.7930298-0.2267456,8.7528534-0.0322571,11.1517487,0.4214478c2.3666229,0.4538879,6.2568054,1.7507019,8.6557007,2.9176941
		c2.6582794,1.2965698,5.9972076,3.8577271,8.7528534,6.6780396c2.4313354,2.4960632,7.0021667,7.8126221,10.1790466,11.7677002
		c3.1446228,3.9873352,8.7852936,10.1467896,12.4809723,13.7451172c3.7279358,3.5983276,8.2989655,7.6505737,10.2115021,9.0120544
		c1.8802948,1.3941345,3.4362793,2.7556458,3.4038391,3.0473022c0,0.3242798-0.5834961,0.551239-1.2641449,0.551239
		c-0.7133026,0-3.5336304-0.7781982-6.3215179-1.7182312c-2.7554474-0.9400635-8.4285583-3.2093506-12.6105804-5.0247498
		c-4.1493835-1.7829285-10.4709015-4.2467041-14.0369873-5.4136963c-3.5658722-1.1994629-8.979599-2.6907349-12.0593262-3.3067017
		c-3.0797424-0.6159363-8.26651-1.134552-11.540741-1.134552s-8.039566,0.5186157-10.6006927,1.134552
		c-2.5933838,0.6159668-6.9374695,2.3017578-9.6929016,3.7928467c-3.274231,1.7506714-6.4835663,4.2791748-9.3363495,7.3913574
		c-2.7229919,2.9174805-5.5757751,7.0670471-7.4560547,10.8274231c-2.1394958,4.2792053-3.6632385,8.8502197-5.1545258,15.4633789
		c-1.1669922,5.1545105-2.7878876,11.3462524-3.6307831,13.712677c-0.8426971,2.3988953-2.560936,6.0621338-3.8252792,8.2018127
		c-1.2965927,2.1394958-3.9548798,5.3488159-5.9323196,7.1642151l-3.598526,3.274231
		c7.7154541-0.7455444,10.8600845-1.6209106,13.6804199-3.0473022c2.9499359-1.4586182,6.1592712-4.0197754,10.0818939-8.1044312
		c3.1768951-3.306488,7.0670624-7.229126,8.6555176-8.7851257c1.5561829-1.5561829,4.1495667-3.4687195,5.7380066-4.311615
		c1.9774475-1.0049438,4.2791748-1.4913025,7.2291107-1.5235596c3.3066864,0,5.3814697,0.4861755,8.9798126,2.1719666
		c2.5933838,1.1994324,6.6456146,3.7928162,9.0120544,5.737793c2.3666229,1.9451904,7.0672607,5.7380371,10.4386444,8.4612122
		c3.3713684,2.7229919,8.7203979,6.2241821,11.8972778,7.7801514c4.1171265,2.0423584,8.8824615,3.5661011,16.5654602,5.2841492
		c5.9325256,1.3292236,13.3238831,3.274231,16.4034119,4.311615c3.047287,1.037384,7.9099579,3.0797424,10.7951965,4.5385742
		c2.8852386,1.4586487,6.7754211,4.1493835,8.6879578,5.9647827c1.8802795,1.8153687,3.436264,3.7281189,3.4040375,4.2142639
		c0,0.4863586-0.7457581,1.037384-1.6533508,1.2319031c-0.875351,0.1620483-4.2144775,0.8104248-7.3913574,1.4263916
		c-3.1444397,0.5834961-8.3314056,1.9451904-11.5082855,2.9823608c-3.1768951,1.0698547-10.7951965,4.2792053-16.9222107,7.1644287
		c-6.1592712,2.8852234-13.4532776,6.0621033-16.2089233,7.0346069c-2.7878876,0.9726868-7.3262634,2.2368469-10.0818939,2.7880859
		c-2.8852386,0.5834961-9.0769501,0.9725037-14.4259644,0.940033c-7.2940216-0.0324402-10.6978455-0.4214478-15.4956207-1.685791
		c-3.3713837-0.9075928-8.0720062-2.4960327-10.4386444-3.5983276c-2.3664398-1.0698242-6.2566223-3.2417603-8.6230621-4.79776
		c-2.3664398-1.5561829-6.2241669-4.6357422-8.5908051-6.8078613c-2.3664246-2.2044067-5.7378082-5.932312-7.4885101-8.2989502
		l-3.2093277-4.3439026c0.713295,17.7324829,1.3616943,23.2435303,2.5933838,28.5276489
		c0.9726944,4.1493835,2.6258469,10.1792603,3.6632309,13.3561401c1.0698395,3.1768799,3.5660858,9.1743164,5.5435181,13.3561401
		c1.9774475,4.1495667,4.6032867,9.1742859,5.8351746,11.1841736c1.2643433,1.9774475,4.2791748,6.1917114,6.7105103,9.3688049
		c2.4313354,3.1768799,6.4835663,7.6830139,9.0445099,10.0169983c2.5286865,2.3017273,6.5484619,5.5435181,8.9473419,7.1644287
		c2.3666382,1.6208496,6.905014,4.1818237,10.0819092,5.640625c3.1446228,1.491333,8.4936523,3.4038696,11.865036,4.2142944
		c4.6032715,1.1022949,8.5583496,1.4588623,15.852356,1.491333c6.3862152,0,14.7176208-0.6484375,24.151123-1.8803101
		c10.7627411-1.3939819,16.3062592-1.782959,21.9469299-1.5235596c5.3490143,0.2592163,9.0122528,0.8427124,12.4485321,2.0423584
		c2.6905518,0.9400635,4.8951416,1.9450073,4.8626709,2.2366333c0,0.3242798-0.5834961,0.7457275-1.2643433,1.005127
		c-0.7132874,0.2592163-4.0197754,1.5884399-7.3913574,3.0148315c-3.3713684,1.3939819-8.3961029,3.9873657-11.1517334,5.7702637
		c-2.7878876,1.8154297-6.807663,4.9276123-8.9149017,6.9375c-2.1394958,2.0098877-5.2839203,5.640625-6.9697113,8.0070801
		c-1.7182465,2.3666382-4.3765259,6.9375-5.9649658,10.1143799c-1.5559998,3.177063-4.7004395,10.795166-7.0021667,16.9546509
		c-2.2692871,6.1592407-5.2841187,13.4532471-6.6456146,16.241333c-1.3939514,2.7879028-3.7281342,6.8401489-5.1869812,9.012085
		c-1.4910889,2.2043457-4.6032715,5.7055664-6.9372559,7.7803345c-2.3341827,2.1070557-5.9325256,4.7006226-8.007309,5.7702637
		c-2.0747833,1.1022949-3.5336304,2.2044067-3.2417755,2.4638062c0.2918396,0.2593994,2.3017273,1.0049438,4.4736633,1.6209106
		c2.1719513,0.6483765,6.7105255,1.3614502,10.0819092,1.5884399c4.3765259,0.2918091,7.4885101,0.0973511,10.9896851-0.7455444
		c2.6582794-0.6159668,6.7105103-2.0748291,9.0120544-3.2418213c2.2692871-1.1345215,6.0623169-3.5336304,8.4611969-5.2841187
		c2.3664398-1.782959,8.5259094-7.229126,13.6802368-12.1242065c5.1545258-4.8951416,11.9621887-10.8276367,15.1390686-13.1940918
		c3.1446228-2.3339844,8.6557007-5.6731567,12.2215881-7.423645c3.5660706-1.7182007,9.4012451-3.8577271,12.9671326-4.7655029
		c5.3814697-1.3290405,8.4934387-1.6209106,18.024292-1.6209106c6.742981-0.0324097,13.3236694,0.3565674,15.852356,0.9078369
		c2.3664551,0.5185547,7.5534363,1.9125366,11.5083008,3.1119385c3.9873352,1.1994629,16.1440125,5.7056274,27.0365601,10.0172119
		c10.892334,4.3116455,23.5353699,8.9473877,28.073761,10.3413086c4.5710144,1.3939209,11.7027893,3.1768799,15.852356,3.9873047
		c4.1818237,0.8104858,11.8001404,1.8154297,16.9544678,2.2692871c6.8078613,0.5834961,12.2864685,0.6159668,20.1639709,0.0324707
		c5.9323425-0.4214478,13.8747253-1.2643433,17.6353149-1.8803101c3.760376-0.6159058,10.5680542-2.0747681,15.1390686-3.2092896
		c4.5383911-1.1669922,11.0219421-3.0473022,14.3935242-4.2142944c3.3713989-1.1347656,9.0444946-3.3067017,12.6105957-4.7655029
		c3.5658569-1.4910889,10.2114868-4.6032715,14.7825012-6.9375c4.5383911-2.3339844,11.9944458-6.5482788,16.5654907-9.401062
		c4.5383301-2.8527832,11.8323975-7.8450317,16.2089233-11.086792c4.3438721-3.2418213,11.3137817-8.8502197,15.4956055-12.4485474
		c4.1495361-3.5983276,12.2540283-11.3787231,17.9920654-17.2787476
		c5.737793-5.9000854,13.7126465-14.8150024,17.6675415-19.7748413c3.9874878-4.9599915,9.4985962-12.2539978,12.2540283-16.2088928
		c2.7554321-3.9873352,7.5534058-11.443573,10.6654053-16.6303711c3.1121826-5.1542969,7.3913574-12.9346619,9.4983521-17.3110046
		c2.1072388-4.3765259,5.1221313-11.1841736,6.7105713-15.1717224c1.5561523-3.9548645,3.6956787-10.3088379,4.7330322-14.0692139
		c1.0374146-3.7605896,1.8803101-7.4237976,1.8803101-8.1044617c0-1.1994324-3.4040527-1.2643433-61.0752563-1.2967834
		l-61.0428467-0.0324402c-3.3064575,7.5858459-6.2241821,13.0644531-8.6230469,17.0193481
		c-2.3988953,3.9875183-6.4835815,10.0171814-9.1094055,13.3561401c-2.6258545,3.371582-7.1644287,8.3963013-10.0819092,11.2166138
		c-2.9176636,2.7879028-7.4237976,6.4835815-10.0171814,8.2340698c-2.5609436,1.7507019-7.5856628,4.5710144-11.1517639,6.2243652
		c-3.5658569,1.6856079-8.7528381,3.6307678-11.5407104,4.3763428c-4.0198059,1.0698242-7.5209656,1.3292236-17.6353149,1.2967834
		c-11.2813416-0.0649109-13.3561401-0.2918396-19.807251-2.0098877c-3.9550781-1.0698547-10.1143494-3.371582-13.6804199-5.1220703
		c-3.5658875-1.7182617-8.5906067-4.7655334-11.1839905-6.7105103c-2.5611267-1.9450073-6.7754211-5.8676453-9.3688049-8.6879578
		c-2.5609436-2.820343-6.2241821-7.6505737-8.1044617-10.7627563s-4.506134-8.2340393-5.9000549-11.4111328
		c-1.3615112-3.1768799-3.274231-8.5259094-4.2467346-11.8972778c-0.9725037-3.4038391-2.3339844-9.401062-3.0797424-13.3561401
		c-1.037384-5.7055664-1.3290405-10.7302856-1.2966003-23.8270264c0-13.8424683,0.2916565-18.1540833,1.6209106-25.9991455
		c0.8751526-5.154541,2.4313354-12.6105957,3.4038391-16.5979309c1.0049438-3.9550781,2.9823608-10.7951965,4.3763123-15.1390686
		c1.3939514-4.3765259,4.0197754-11.540741,5.8029175-15.8847961c1.7829285-4.3763428,5.2839355-11.9946594,7.8126221-16.986908
		c2.5286865-4.9598389,6.937439-12.7402039,9.85495-17.3112183c2.8852234-4.5708313,7.8775024-11.6703491,11.0221252-15.8197327
		c3.1768799-4.1171265,8.6879578-10.6006775,12.2538452-14.3612671c3.5660706-3.760376,9.4012451-9.2714386,12.9671326-12.2862854
		c3.5660706-2.9823761,9.4012451-7.358902,12.9671326-9.6928864c3.5660706-2.3664398,9.7253418-5.8351746,13.6804199-7.7479095
		c3.9548645-1.9125519,10.3737488-4.4736786,14.2314758-5.7055664c3.8577271-1.2319031,10.0169983-2.7229919,13.6802368-3.306488
		c3.663208-0.5834961,9.9198303-1.1022949,13.8749084-1.1022949c4.8302307,0,9.0769653,0.4539032,12.9671631,1.4263916
		c3.1768799,0.8104401,8.1691284,2.6907349,11.086792,4.1818237c3.1444702,1.5886383,7.423645,4.6359253,10.3737793,7.3913574
		c2.7878418,2.593399,6.3537598,6.6456146,7.9423828,9.0120544c1.6209106,2.3990936,3.8253174,6.3864136,4.9598389,8.8502045
		c1.1022949,2.496048,2.6582642,7.1966705,3.4362793,10.4709015c1.0049438,4.1818237,1.4588623,8.4285583,1.4263916,14.263916
		c0,4.5708313-0.4863281,10.5682373-1.0698242,13.3561401c-0.5834961,2.7554321-1.2319336,5.6082153-1.4263916,6.3215027
		c-0.3240967,1.1669922,2.6257935,1.2641602,54.9482422,1.2641602h55.2723389
		c1.3616943-6.4511108,2.1072388-11.086853,2.4962769-14.4582214c0.4214478-3.371582,0.7455444-11.73526,0.7455444-18.5755615
		C668.5042114,250.9055023,668.0180054,241.7636566,667.4345093,237.2575378z"/>
</g>
</svg>
