<?xml version="1.0" encoding="utf-8"?>
<!-- Generator: Adobe Illustrator 22.0.1, SVG Export Plug-In . SVG Version: 6.00 Build 0)  -->
<svg version="1.1" id="Layer_1" xmlns="http://www.w3.org/2000/svg" xmlns:xlink="http://www.w3.org/1999/xlink" x="0px" y="0px"
	 width="720px" height="720px" viewBox="0 0 720 720" style="enable-background:new 0 0 720 720;" xml:space="preserve">
<style type="text/css">
	.st0{fill:#A4A9AD;}
	.st1{fill:#FFFFFF;}
	.st2{fill:#CE1126;}
	.st3{fill:#111111;}
</style>
<g>
	<path class="st0" d="M682.4599609,279.0077209c-8.8864136-61.9437561-62.9891357-81.1540222-95.3984985-87.165451
		l27.7047729-18.2956085c0,0-145.3193054-31.4945679-333.2413635,27.8355103
		C109.8076324,255.6154938,23.1648083,340.690155,37.5400238,440.9238892
		c8.8864212,61.943634,62.989151,81.1541748,95.5291138,87.1654663l-27.8355026,18.2955933
		c0,0,145.3194275,31.6253052,333.2413635-27.7047729C610.1923828,464.3161011,696.8352051,379.3722839,682.4599609,279.0077209z"/>
	<path class="st1" d="M673.8348999,281.7519836c-11.7615967-81.807373-112.7793579-83.2449341-112.7793579-83.2449341
		l29.142334-19.2104034c0,0-137.8704224-22.3467102-307.3661499,31.1025391
		C133.1997375,257.7064209,31.397747,335.462677,46.1650009,438.1794739
		c11.7614136,81.8075256,112.7791977,83.2449646,112.7791977,83.2449646l-29.1422119,19.2103882
		c0,0,137.8704376,22.3467407,307.3661499-31.102417C586.8001099,462.2250671,688.6021118,384.4687805,673.8348999,281.7519836z"/>
	<path class="st2" d="M435.3386841,496.8560791c-159.5637817,50.3129272-265.2863159,34.7617188-265.2863159,34.7617188
		c55.704834-4.742981,110.7109222-15.6564941,164.0070648-32.5400696
		c163.4841919-51.6197815,216.4108276-122.9725952,207.524353-185.1776733
		c-6.664917-47.1765137-57.5004578-57.369751-57.5004578-57.369751s47.1764832-16.3354187,97.6201477-12.8069458
		c0,0-106.3758545-38.6821136-257.9680176,15.5512085c23.9804688-11.1637573,48.6930237-20.6820374,73.9664917-28.4888611
		c83.6371155-26.3979492,245.4225464-48.6140594,260.4509888,55.932312
		C670.8291626,374.9290161,583.0103149,450.2023315,435.3386841,496.8560791z M360.1959534,420.6679688
		c45.3468933-14.3750916,83.8984375-35.6764221,104.5462646-56.0629272
		c11.5000916-11.2388,17.5115356-22.2161255,16.2048035-31.6253052c-0.5172729-3.4949036-2.1168518-6.7398071-4.5739746-9.2784729
		c-15.8125305-17.1193542-68.869873-16.988739-129.7680969,2.2216492
		c-70.3072815,22.3465881-124.4100189,61.5516052-120.6202393,87.5574951
		C229.6437836,439.7477722,289.7579346,442.7533569,360.1959534,420.6679688z"/>
	<path class="st3" d="M298.2521973,390.7415466c-1.437439-10.1932678,21.3013306-25.7445984,50.5743713-35.153656
		c29.4036865-9.1478577,54.4946594-8.6250916,55.9322205,1.437561c1.437561,10.1932678-21.3013306,25.8751831-50.7048645,35.153656
		C324.7808533,401.45755,299.6898804,400.8041992,298.2521973,390.7415466z M138.4272156,476.208252
		c50.3128204,3.5284729,97.6200409-12.6762085,97.6200409-12.6762085s-50.8355713-10.3240051-57.6310883-57.5004883
		c-8.8864136-62.2050781,44.1707916-133.5580139,207.5243835-185.1776733
		c53.2990723-16.8722839,108.3037415-27.7855225,164.0070801-32.5400848c0,0-105.7225342-15.5512085-265.2863159,34.761734
		C136.9896545,269.8599854,49.3014374,345.002594,61.8469276,433.213562
		c15.0285683,104.5462646,176.8140106,82.3301392,260.4509888,55.9323425
		c25.3100891-7.8240051,50.0649719-17.3417664,74.0971985-28.4888611
		C244.672226,515.0210571,138.4272156,476.208252,138.4272156,476.208252z M337.065155,286.8486328
		c-56.0628967,17.6422424-85.3359833,40.1196594-95.5292358,63.6426392l-20.3865204,47.1764832
		c0,0,24.8298035-44.3015137,124.9329071-75.9267883c75.4040527-23.9148865,121.5350342-17.7728577,130.290863,1.9602966
		c2.4116211,2.6218262,4.00177,5.8930664,4.5738525,9.4091797c1.3068542,9.2784729-4.7045898,20.2557983-16.2046814,31.4945984
		c-18.9490662,26.5285339-55.0175171,55.1481018-86.6428223,74.4892273
		c25.2218323-7.9716187,138.9159851-61.8130188,130.6828918-119.3135071
		C501.072113,266.3315125,434.6852112,256.0075378,337.065155,286.8486328z"/>
</g>
</svg>
