<?xml version="1.0" encoding="utf-8"?>
<!-- Generator: Adobe Illustrator 22.0.1, SVG Export Plug-In . SVG Version: 6.00 Build 0)  -->
<svg version="1.1" id="Layer_1" xmlns="http://www.w3.org/2000/svg" xmlns:xlink="http://www.w3.org/1999/xlink" x="0px" y="0px"
	 width="720px" height="720px" viewBox="0 0 720 720" style="enable-background:new 0 0 720 720;" xml:space="preserve">
<style type="text/css">
	.st0{fill:#D18A00;}
	.st1{fill:#FFFFFF;}
	.st2{fill:#CF0A2C;}
	.st3{fill:#00833E;}
	.st4{fill:#FFD100;}
	.st5{fill:#FF671B;}
	.st6{fill:#001970;}
</style>
<g>
	<path d="M680.4317627,446.1286621c0-23.6082458,23.1526489-111.2773438-145.2081909-243.868988l28.2980347-6.3082733
		l-14.5982666-48.0352936l-28.0686035,18.7336731V137.561615h-55.1336975
		c-35.9954529-25.9372177-53.2954102-59.0397339-109.8914795-59.0397339c-23.6401062,0-48.4908752,4.6897888-53.8943481,4.6897888
		c-4.1672668,0-16.7774353-2.6634903-38.2064514-2.6634903c-61.8880157,0-67.5909424,46.1651001-59.8649139,62.3754501
		C122.4679871,198.69133,82.1587448,238.8540192,82.1587448,253.414032c0,5.5882263,3.3070602,12.8714294,3.3070602,23.3788452
		C85.4657974,299.6874695,36,350.1281738,36,376.8491516c0,24.8826294,31.7516479,26.609436,31.7516479,26.609436
		c1.800087,7.315033-10.5074196,31.7484436,0.5256958,44.205719c-15.3087196,16.6245422,2.5551682,24.9208679,2.5551682,38.1300354
		c0,8.9335327-6.2286301,11.7085266-6.2286301,28.2215881c0,18.84198,8.81884,41.4752808,55.2770615,41.4752808
		c18.3513412,0,34.6063004-2.8514404,47.5159531-2.8514404c3.6447906,38.996582,20.2693176,54.3052979,23.0092773,64.0640259
		c2.2525024,7.8471069,7.3596649,24.774292,17.6759186,24.774292c13.4767761,0,87.8188477-24.3186646,144.2619629-58.5841064
		c28.2597961,10.4724121,64.255188,7.0570068,77.3146057,7.0570068c14.2987671,0,20.1546326,8.7073364,28.5975037,8.7073364
		c5.0657043,0,43.383728-42.8963013,41.0579224-136.7207336c24.0542603,40.6852112,38.2797852,67.1417542,39.6656494,82.3038635
		c31.229187-11.151001,57.4626465-84.8940735,46.1268921-131.8811646c0,0,39.2929077,63.7645569,98.8933716,54.3849792
		c-0.1911621,0.1401672-3.5682983-11.6065979-3.5682983-20.6134033L680.4317627,446.1286621z"/>
	<path class="st0" d="M305.949585,504.4165344v-0.0032959c14.4134521-22.1427002,6.1967773-60.2344971-21.237854-49.6888428
		c-15.8344116-25.8574219-33.7779541-60.9099121-33.7779541-104.1821289c0-46.1236572,9.4210205-58.2081299,9.4210205-98.9665527
		c0-69.4293213-32.1276245-83.1672974-52.7282715-97.1283569
		c-49.0961914,33.2139893-114.2084427,78.7387085-114.2084427,102.9459839c0,7.130249,3.1541138,13.8494873,3.1541138,20.8681641
		c0,25.0675049-48.7935181,73.7431641-48.7935181,97.3132324c0,8.8570557,7.0569458,16.2485352,18.3895264,16.2485352
		c11.3326416,0,40.1945801-4.0876465,51.0397339-5.3620605c10.8451004-1.0895996,12.0430374-6.3815918,12.0430374-9.2329102
		c0-7.0571289-11.1445999-16.8540039-19.587471-16.8540039c-7.0570068,0-7.6942139,4.1322021-7.6942139,5.1835938
		c0,4.6196289,6.6428223,5.9260254,6.6428223,5.9260254c8.4428711-1.121582,8.4811401,6.2700195,0.4460449,6.2700195
		c-6.6014404,0-13.9960938-4.8745117-13.9960938-13.2856445c0-8.4428711,6.7542725-10.5456543,11.7817993-10.5456543
		c21.0913086,0,33.2140579,19.0650635,29.7253494,31.2229004c26.1570435,12.9892578,25.4051514,32.0192871,21.0913086,32.0192871
		c-9.0482178,0-2.7813721-24.060791-36.8205643-24.060791c-9.526123,0-29.4959717,2.8515625-34.223999,3.3771973
		c-4.6196899,0.5256348-6.0438232,1.2011719-6.6045532,5.1422119c-0.598999,3.8295898-5.5181274,17.9052734-5.5181274,26.532959
		c0,12.7598877,8.5193481,13.6234131,13.9992676,13.6234131c14.3369751,0,38.6142578-3.4536133,38.6142578-9.1566162
		c0-3.7530518-6.1489868-2.628418-8.4046631-2.628418c-4.3201904,0-6.2700195-2.62854-6.2700195-4.1673584
		c0-3.8327637,6.1935425-5.6328125,13.546875-5.6328125c12.1959915,0,13.4767532,7.9968262,12.8714066,11.6704102
		c-1.3508301,8.2197266,11.8582764,6.2285156,11.8582764,23.6813965c0,1.9880371-0.1497192,6.977417-4.3170166,6.977417
		c-4.1991577,0-4.2373657-5.2122803-4.2373657-8.1402588c0-2.8514404-4.7662354-7.4680176-8.8571167-7.4680176
		c-4.3170166,0-20.0080643,8.0668945-53.7796097,4.9892578c-13.3238525,16.7775879,2.4022217,17.9754639,2.4022217,34.9025879
		c0,18.842041-5.7793579,17.682373-5.7793579,29.1647644c0,22.9295654,25.1438599,28.8969727,50.2526855,28.8969727
		c51.9413528,0,110.5637283-12.0112305,131.2058105-49.2013855c-7.0570068,32.8412781-33.5167236,44.5881042-78.5125732,54.8310242
		c5.1040039,36.4477539,12.6484375,44.8525391,18.1283569,54.6844482
		c5.4799194,9.9084473,6.6810303,23.6815186,16.3632813,23.6815186c11.5970459,0,79.9366455-24.6181641,125.9105835-52.3554688
		L305.949585,504.4165344z M178.461853,190.2866516l24.3187256-18.2015991
		c1.3890991-1.0131226,3.1541748-1.0513916,4.5050049-0.0764771c17.8638916,12.5369263,27.7723389,24.6596069,28.2598267,25.258606
		c1.3126221,1.6503296,0.9749146,4.0143433-0.6754761,5.3652344c-1.6152954,1.3126221-4.0175171,1.0513306-5.3301392-0.598999
		c-0.1179199-0.1146851-8.8953247-10.9215698-24.3952026-22.1809082c-1.1310425,0.7869263-3.303894,2.4786987-5.8144531,4.2819824
		c7.614563,6.5631714,28.8970337,25.0291748,43.0428467,42.5968018c1.2393188,1.6535034,1.0513306,4.0175171-0.598999,5.3301392
		c-1.6471558,1.3158569-4.0143433,1.0864258-5.4066162-0.5639038
		c-14.4516602-17.9785767-37.4227295-37.6807861-43.3486938-42.6381836
		c-2.3257446,1.7681885-4.5050049,3.3771362-6.1553345,4.6196899c13.9610596,11.4472656,23.9491577,23.267334,24.3952026,23.8312378
		c1.5770264,1.835144,0.7518921,4.3520508-0.4460449,5.4034424c-1.6469727,1.3187256-4.0445557,1.0855713-5.4066162-0.5256958
		l0.0063477,0.000061c-0.1115112-0.1529541-11.8200684-13.9960938-27.0267944-25.8161621
		C176.6618042,194.9063416,176.2093506,191.9433899,178.461853,190.2866516z M196.2238159,266.6199036
		c-20.2661133,0-35.616272-15.2736816-45.8242188-15.2736816c-0.9366455,0-2.8896484,0.2645264-3.6766357,2.1761475
		l-2.7399292,6.3465576c-2.0263062,4.6928711,1.0513916,6.4929199,1.0513916,6.4929199l35.8743286,21.1328125
		c7.5444336,4.4604492,3.6033325,8.0286865-0.2994995,9.1119385c0,0-21.9929199,6.7160645-41.5039673,9.1182861
		c-2.1409912,9.7587891-7.7706909,14.9008789-12.1609573,14.9008789c-4.1641235,0-1.4241943-10.2429199-1.5038452-14.0756836
		c-23.2354736-0.3344727-25.8225098-8.6658936,0.9781494-8.888916c-0.8283691-3.4536133-3.5683594-17.2298584,0.6690063-24.659668
		l-13.0944214-5.1040039c-10.6571655-4.2755127,9.6121216-11.2561035,6.6810303-17.6408691
		c0,0-6.0438232-4.5367432-6.0438232-9.7172241c0-5.1804199,8.0286865-11.2975464,23.6400833-11.2975464
		c29.0881958,0,36.7091064,24.8443604,59.8649292,24.8443604v-0.0031738c4.6196899,0,16.6627197-2.5168457,16.6627197,2.4372559
		C214.7981567,261.4746399,205.0044556,266.6199036,196.2238159,266.6199036z M241.0253296,432.3586731
		c-49.239563-14.6044922-17.9371948-75.4761963,4.8045044-69.3591309
		C216.069397,389.9848938,231.0435791,421.5105286,241.0253296,432.3586731z M142.2849121,252.254303l-3.7913818,8.7042236
		c-0.0075684,0.0168457-0.0153809,0.0334473-0.0234375,0.0500488c-0.5352173,1.109375-1.8684082,1.574707-2.9777222,1.0395508
		l-11.0713577-5.3302002c-2.9279785-1.4273682-2.7781982-3.1923828,0.2994385-3.9825439l14.6014481-3.902832v0.0063477
		C142.0236206,248.1252747,143.3745117,249.664093,142.2849121,252.254303z"/>
	<path class="st1" d="M142.6225891,279.0485535c-1.9880524,7.4233704-0.5989685,15.9459229-0.1115112,18.1984253
		c23.0092773-1.3890686,32.4334564-5.5914001,32.4334564-5.5914001l-32.325119-12.6070251H142.6225891z M107.1943054,470.2593689
		c-2.5169449,1.2425537,7.7324142,22.5186157,5.8940964,32.0511475c1.5356522,4.3170166,7.9172058,20.1546326,18.6858749,14.6747131
		c10.7368011-5.4799194,1.656723-19.8487549-0.9335022-23.6815186c-8.8570709-4.173645-21.1295319-24.3983765-23.6400986-23.0475159
		L107.1943054,470.2593689z M202.0318909,319.2749634c-8.8953094,2.3671875-17.0387115,11.1828613-33.1343842,15.5030518
		c-5.9705658,1.5388489-16.4078827,0.0382385-19.5174103,0.0382385c2.4404602,3.303894,8.8570557,9.0482178,8.8570557,9.0482178
		s-2.3639984,5.8526611-2.8514557,9.8670349c2.6634827-1.5738831,10.4723663-6.3018799,16.439743-7.8375549
		c16.1370697-4.2437439,27.5461273-0.5288696,36.4414368-2.8546753c4.1672821-1.1628723,11.8200531-3.2656555,8.7455597-15.0856934
		c-3.0840454-11.7563477-10.8515015-9.8447266-14.9805603-8.6754761L202.0318909,319.2749634z"/>
	<polygon class="st2" points="476.4483032,195.5371399 476.4481812,195.5428162 476.451416,195.5403748 	"/>
	<path class="st2" d="M476.3016968,197.1556702c0.1460571-0.5651245,0.1464844-1.0890503,0.1464844-1.612854
		c-82.1201782,61.4706421-126.289856,153.1203003-139.7218628,184.4923706c0,0-1.7650757,3.6765137,0.2994995,7.6940918
		l26.0073242,50.6669922c1.0895996,2.1345215,3.4153442,2.4754639,5.1804199,0.8601074l42.7879028-38.6142578
		c2.9247437-2.7016602,3.8996582-6.9772949,3.8996582-6.9772949
		c19.5142822-111.6564941,45.8242188-166.2230835,62.2225342-190.9559937
		C476.5689087,200.9103699,476.291687,199.0377502,476.3016968,197.1556702z"/>
	<path class="st3" d="M484.0691528,214.0796814l0.0031738-0.0031738c-1.6140747-1.4125366-2.9957275-3.0704346-4.0939941-4.9127808
		c-26.3099976,42.1826172-59.8967896,147.71875-59.8967896,238.0513916c0,92.4352722,28.2980347,141.5219421,38.4677734,141.5219421
		c7.8439331,0,35.5397949-49.4626465,35.5397949-113.2621765c0-17.4528809-14.5982666-87.2963867-14.5982666-218.4638672
		C479.5290527,228.9423523,481.6318359,221.4361877,484.0691528,214.0796814z"/>
	<polygon class="st3" points="544.609436,162.8074646 544.6062622,162.8138123 522.5401001,177.4120789 527.682312,194.221405 
		552.4533081,188.7414856 	"/>
	<path class="st3" d="M499.005127,180.0723572l0.0031738,0.0095825
		c-9.4665527-0.0053101-17.1449585,7.6645508-17.1502075,17.1311035c0,0.0053101,0,0.0106201,0,0.0159302
		c0,9.4942627,7.6941528,17.1470337,17.1502075,17.1470337s17.1502075-7.6559448,17.1502075-17.1502075
		S508.4611206,180.0723572,499.005127,180.0723572z"/>
	<path class="st4" d="M449.0518188,174.5223694c0,0-7.5411987,3.864624-14.9327393,3.864624
		c-31.7516479,0-17.9053345-56.557869-50.8485107-56.557869c-15.8025513,0-21.0913086,17.4146805-43.8711548,17.4146805
		c-25.4880371,0-35.5812378-22.7799149-60.8398438-22.7799149c-14.3369751,0-19.479187,9.5707397-19.479187,19.2116165
		c0,28.8651123,28.4828491,50.8166504,28.4828491,90.3739624c0,40.2711182-13.7316895,75.6610107-13.7316895,131.581665
		c0,65.1855469,61.9230957,84.4035645,61.9230957,145.166748c0,34.3769226,13.2091064,55.5447693,27.9220581,55.5447693
		c8.1051636,0,15.6495972-4.7662354,19.2529907-17.3764648c2.1345825,0.8602295,4.0143433,1.3126221,5.7029419,1.3126221
		c4.173645,0,19.5556641-4.4666748,19.5556641-22.588623c0-51.8361511-89.0167847-78.5922546-89.0167847-159.76828
		c0-39.0284424,6.2668457-101.4803467,15.8344116-101.4803467c5.0338745,0,11.3007202,21.8431396,23.2705078,21.8431396
		c14.8626709,0,9.6854248-43.1256104,16.2868042-43.1256104c5.3302002,0,13.2473755,20.1546631,22.668396,20.1546631
		c7.6209106,0,10.1378174-15.6496582,13.4002686-27.9221191c1.2425537-5.7411499-6.8307495-7.3182373-7.9968262-1.5388794
		c-2.0613403,9.1183472-6.3783569,21.2061157-6.3783569,21.2061157
		c-4.9160156-4.8427734-12.6866455-19.6322021-22.1427002-19.6322021c-15.0856934,0-12.8713989,43.0428467-16.2868042,43.0428467
		c-6.3082886,0-10.2843628-22.3657227-24.0543213-22.3657227c-17.7141113,0-22.9328003,61.6235352-22.9328003,110.114502
		c0,85.3050537,89.0964355,113.8994141,89.0964355,158.5988464c0,11.2243652-8.2198486,15.0888672-11.5237427,15.0888672
		c-1.3126221,0-2.628418-0.3758545-4.0143433-0.7868652c0.4460449-3.0808105,0.675415-6.53125,0.675415-10.3226318
		c0-26.309906-14.4866943-31.2991638-20.3776245-31.2991638c-5.8622437,0-9.197998,5.1420898-9.197998,13.623291
		c0,11.3739929,10.0581665,23.9809265,19.8487549,31.2227478c-1.4973755,7.0952148-4.5750732,13.6264648-11.1828613,13.6264648
		c-12.7949219,0-20.0717773-29.6934814-20.0717773-47.4395447c0-64.1403809-61.8911743-82.6828613-61.8911743-146.7469482
		c0-54.5665283,13.7730713-89.5424805,13.7730713-125.7959595c0-2.2142334-0.038269-4.3902588-0.1497803-6.5631714
		c8.4747925-1.8924561,61.5057373-13.7507324,136.1886597-12.0239258l0.0064087,0.0159302
		c5.7029419,0,4.9892578-7.6942139-0.3823242-7.6942139c-82.1859741,0-129.2877808,10.4341431-136.5296021,12.1609497
		c-4.5782471-40.2709961-27.7340698-53.1424561-27.7340698-79.1879272c0-10.137886,6.6810303-12.1641922,12.1609497-12.1641922
		c19.2115479,0,33.625,22.5186844,60.2694702,22.5186844c24.7711792,0,30.0981445-17.5644531,44.2471313-17.5644531
		c21.1677856,0,11.8583374,56.369873,49.3893433,56.369873c11.8582764,0,19.6257324-4.7280273,19.6257324-4.7280273
		C458.2116089,178.3136902,453.3688354,172.2698669,449.0518188,174.5223694z M363.826416,505.6494446
		c0-4.3902588,1.1629028-6.0788574,2.3258057-6.0788574c7.168457,0,10.4309082,14.4484558,10.4372559,20.2247009
		c0,1.5419922,0.0318604,4.4699707-0.1911011,7.9968262C369.4178467,520.9614258,363.826416,510.6418762,363.826416,505.6494446z"/>
	<path class="st4" d="M473.4152222,231.7206116l-0.0032349-0.000061c0,0-46.8341064,98.5907593-46.8341064,213.4713745
		c0,76.071991,23.6018677,134.2070007,30.1331787,134.2070007c5.1422119,0,29.161438-36.215332,29.161438-111.802948
		C485.8724976,437.1218567,469.4008789,321.1546936,473.4152222,231.7206116z M480.9564209,448.4543762l-26.2335205-18.0900879
		h-0.000061c0.1585083-16.9998779,0.7470093-33.993042,1.7650757-50.9631348l19.6257324,14.5981445
		C478.1049194,415.0141907,480.0197144,433.9263,480.9564209,448.4543762z M463.62146,299.2763977
		c0.8601685-7.8438721,5.5531616-3.8613281,5.7028809,0.3759766c1.1660767,29.760498,3.8295898,60.9067383,6.3783569,88.720459
		l-18.9152222-13.9641113c1.5817871-25.1046143,3.8596191-50.1604004,6.8307495-75.1386719L463.62146,299.2763977z
		 M453.4071045,298.1485901c0.8634033-3.0043945,5.1390381-3.8294678,4.4699707,1.3126221h-0.0031738
		c-2.7671509,23.7609863-4.9448853,47.5866699-6.531311,71.4555664l-16.4779663,12.6866455
		C439.2612915,351.4822083,446.3150635,322.171051,453.4071045,298.1485901z M434.1541138,389.4975891l16.927002-13.0625
		c0.000061-0.0010986,0.0001221-0.0021973,0.0001831-0.003418l0.000061,0.0032959l-0.0002441,0.0001221
		c-1.2009277,19.1784668-1.6884155,36.1777344-1.8381348,51.036377l-18.6157837,12.6898193
		C430.8502197,422.7848206,432.1660767,405.8576965,434.1541138,389.4975891z M430.6240845,445.4182434l18.5393066-12.6845703
		c0-0.001709,0-0.003418,0-0.0053711l0.0031738,0.0031738l-0.0031738,0.0021973
		c-0.0699463,23.8635254,0.7137451,41.4676514,1.6184692,52.6496582l-16.7009888,10.3959961
		C431.9398804,480.5437317,430.6240845,463.5783997,430.6240845,445.4182434z M475.737793,527.9801025
		c-2.1027832,1.5386963-8.9335327,3.90271-19.7786865-14.0726318c-6.378418,19.1383057-13.9228516,13.7763672-16.6245728,10.8452148
		c-1.7650146-7.3916016-3.303833-15.5380554-4.6196899-24.3186951h0.0064087l18.8388062-11.6734619l26.0072632,17.2998047
		C478.5159302,514.1306152,477.2033691,521.3754883,475.737793,527.9801025z M456.335083,485.4215393h0.0031738
		c-0.713623-10.4342041-1.6885376-27.0587158-1.6120605-49.7270508l26.6795044,18.3131104
		c0.3026123,5.3302002,0.5256348,9.9467773,0.5256348,13.6998291c0.0107422,11.2327881-0.5784912,22.4581299-1.7650146,33.6282959
		L456.335083,485.4215393z"/>
	<path class="st3" d="M343.2161865,382.775177h0.0031738l23.305603,50.3706055l42.4056396-39.2961426
		c0,0,20.4541016-119.2709961,56.9018555-185.0236816C369.6376953,302.1216125,343.2161865,382.775177,343.2161865,382.775177z
		 M414.1875,346.3686829c-5.7029419,24.8061523-9.0100098,43.1574707-9.4560547,45.0754395l-36.8556519,34.3037109
		l-20.0016479-43.1574707c0,0,0.675415-2.2143555,2.2875366-6.1553955
		c4.0557861-9.197998,13.2855835-29.085083,24.6596069-47.8122559l-0.0031738-0.0064697
		c15.9873657-25.4847412,43.1224976-63.7263184,76.7506714-100.0529785
		C436.3301392,259.7859192,422.4806519,311.2398987,414.1875,346.3686829z"/>
	<circle class="st2" cx="499.0083008" cy="197.1907349" r="10.9598331"/>
	<path class="st1" d="M424.6980896,268.53479c-0.9367065-0.4874573-2.2142944-0.1115112-2.6284485,0.860199
		c-7.0874939,14.0633545-13.7597351,28.3321533-20.0080566,42.7879333l-23.4170837,10.3544922
		c-1.3126526,2.0709229-2.5169373,4.0143738-3.7148743,6.0088196l24.7743225-10.9598389
		c-6.454834,15.1653442-11.6703186,28.9352112-16.0638123,40.9081726l-31.2227783,12.6484375
		c-0.7469482,1.7298279-1.4733887,3.4684753-2.1792297,5.2154846l31.5987244-12.8395691
		c-9.6854248,27.5907288-13.6615601,44.5498047-13.7730408,44.8142395c-0.2230225,1.0099487,0.4141541,2.2110901,1.497406,2.3257751
		c1.071106,0.2333374,2.12854-0.4457703,2.3618774-1.5168762c0.0018311-0.0083618,0.0036011-0.0167542,0.0053101-0.0251465
		c0.0764771-0.2230225,3.902832-16.4715881,13.2091675-43.1607056l16.7774658,28.1833496l2.8514404-2.7017212l0.0764771-0.0764771
		l-17.9785767-30.2478638c3.902832-10.9598389,8.6340637-23.4553223,14.3752136-37.1551208l12.9829407,22.3338623
		c0.4460449-1.8797302,0.7869568-3.759491,1.3126526-5.6710815l-12.3106995-21.2824707
		c6.3082886-14.8594971,13.6233215-31.0730286,22.3656921-48.1850281c0.4938354-0.8984375,0.0445862-2.0231018-0.8920898-2.6252747
		V268.53479z"/>
	<path class="st5" d="M511.4687195,146.6767426h-36.1419373l23.0793762,24.9941559h13.0626221v-24.9941559H511.4687195z
		 M645.4495239,326.6696777c-39.3693848-63.2739258-108.12323-116.4545746-123.8875122-128.2364044
		c-0.2230225,3.6384125-3.7531128,9.6408386-5.4799194,12.6069946c-2.1346436,2.2939301-4.6196899,4.9924622-5.8558655,5.7029419
		c2.7017517,10.9279785,6.9040833,26.5393677,12.4572449,44.6676788
		c8.2963867,20.1132202,17.5293579,44.9225769,25.3733521,70.776947
		c8.9366455,21.3876038,19.3325806,42.7051086,31.0794067,61.5853271
		c48.7521362,78.3596191,97.4277954,67.5877686,97.4277954,67.5877686
		c-8.3696289-13.3174744,16.175293-58.5458679-31.1112671-134.694397L645.4495239,326.6696777z"/>
	<path class="st1" d="M630.8862915,331.1682434l0.0031738,0.0031738
		c-31.0761719-50.0200195-97.2780762-109.5090332-112.2904663-122.7564087
		c-0.8602295,1.6503296-2.0645142,3.1859741-3.3771362,4.5782471
		c9.4560547,26.8707275,46.3116455,127.7521362,80.2775879,182.3219604
		c33.1342773,53.3654785,65.5263672,50.7402344,65.5263672,50.7402344S671.9060669,397.3000793,630.8862915,331.1682434z
		 M650.2953491,382.1411438l-27.208252-4.9511719l-32.2424316-51.8361816l0.0031738,0.0031738l38.6939697,11.4473877
		C639.4502563,353.2058411,645.9784546,368.5559387,650.2953491,382.1411438z M626.4259644,331.6971741l-38.7353516-11.4472656
		l-29.8369141-47.9620361h0.0031738l27.0236816,6.6810303C600.4918823,296.1191711,615.5043335,314.4704895,626.4259644,331.6971741
		z M520.2078857,215.3190613h0.0064087c11.7850342,10.4691772,35.9157715,32.7297974,59.7852783,58.2814331l-24.9909668-6.1936035
		l-16.2166748-25.895752c-0.4875488-0.9749146-1.6886597-1.2393799-2.7017822-0.6754761
		c-0.0195313,0.0114746-0.0388184,0.0232544-0.0579224,0.0353394c-0.9279785,0.5869141-1.2044678,1.8149414-0.6174927,2.7428589
		l16.8475342,27.1000366l-3.4537354,18.9886475C535.8989258,258.3618469,525.5030518,230.0320129,520.2078857,215.3190613z
		 M551.5453491,296.5332336h0.0032959l3.8231201-20.753418l29.3112793,47.171875l-9.6790771,26.125
		C566.7872925,332.0730286,558.7904663,313.9480286,551.5453491,296.5332336z M609.6835327,408.8205872
		c-3.5651855-4.5368652-7.168457-9.7554932-10.8452148-15.6113281
		c-7.0952148-11.4090576-14.260498-24.8061523-21.3205566-39.1431885l9.9084473-26.8323975l32.2421875,51.8999023
		l-9.9816895,29.6933594L609.6835327,408.8205872z M657.6486206,441.9646301
		c-6.9804688-0.9749756-24.8443604-5.5915527-44.967041-29.5341797l9.6853027-28.9353027l15.2387695,24.6213379
		c0.5638428,0.9718018,1.9146729,1.2744141,2.78125,0.6691895c0.9718018-0.5671387,1.3476563-1.8415527,0.6691895-2.7017822
		l-15.0856934-24.3187256l25.6695557,4.6896973c8.2198486,27.8105469,6.8658447,47.9621582,6.0054932,55.5065918
		L657.6486206,441.9646301z"/>
	<path class="st2" d="M188.1727905,351.1062317l0.0095825-0.0063477c-2.628418,0.7167969-6.6428223,2.9693604-13.2473755,4.7312012
		c-6.569519,1.7650146-14.8276367,1.8000488-16.1402588-3.265625c-0.1435547-0.4370117-0.1568604-0.9064941-0.038269-1.3508301
		c0.4874878-4.0876465,6.454834-9.526123,6.454834-9.526123s-7.8821411-1.7683105-10.3226318-5.1071777
		c-0.2737427-0.3647461-0.4887085-0.7700195-0.637207-1.2011719c-1.3476563-5.0275879,5.932373-9.0800781,12.5018921-10.8100586
		c6.53125-1.7651367,11.1828003-1.7651367,13.8494873-2.4022217c5.3270264-1.4273682,9.7905884-4.9542236,8.7041626-9.1566162
		c-2.1345825-7.8470459-12.3106689-5.932373-17.9371948-4.4699707
		c-28.1514282,7.4298096-34.3768921,18.9885254-32.3155518,27.017334
		c2.1027832,7.9968262,11.2147217,10.0612793,11.2147217,10.0612793s-6.9008789,6.3083496-4.8013306,14.2988281
		c2.0645752,7.9554443,13.2091675,14.9360352,41.354248,7.5444336c5.6710815-1.4974365,15.5031128-4.8427734,13.4768066-12.6484375
		C199.1294556,350.5041809,193.4615479,349.7170715,188.1727905,351.1062317z"/>
	<path class="st2" d="M118.6320114,464.9739075l0.0095825-0.0064697c-4.8108521-6.6810303-7.3978882-0.675415-12.5018311,2.0645752
		c-5.1040039,2.5488281-11.5970459,1.1628418-8.8571167,8.9335938c2.8897095,8.4428711-3.227417,25.5961914-0.5639038,30.7766113
		c2.1728516,4.1640625,6.8275757,5.7762146,10.6189575,3.8996582c3.4153442-1.8352051,5.0657349-4.8427734,5.7411499-8.3664551
		c1.8383179-9.5324707-3.6766357-22.706543-1.1629028-24.0541992c2.4755249-1.315918,10.0199585,10.918335,18.8388138,15.0059814
		c3.227417,1.4655762,6.6428223,1.9180908,10.0996094,0.2293701c3.7913208-1.9880371,5.1772461-6.8306885,3.0745239-10.9916992
		C141.2271729,477.2812805,123.7773972,472.2156067,118.6320114,464.9739075z"/>
	<path class="st2" d="M296.5286255,458.1366272l0.0031738-0.0030518
		c-9.8320313-2.8483887-21.5054932,7.4710693-26.0455322,23.0092773
		c-4.5082397,15.5380859-0.1911621,30.435791,9.6057739,33.3636169c9.8319702,2.8514404,21.4672241-7.391449,26.0072632-23.0028992
		C310.6425781,475.9654846,306.2904663,460.9912415,296.5286255,458.1366272z M298.2723389,489.243927
		c-2.8724976,9.8717041-9.6372681,16.5834961-15.1095581,14.9912109c-5.4723511-1.5922852-7.579895-10.8858643-4.7073975-20.7575684
		c2.8724976-9.8718262,9.6373291-16.5837402,15.1096191-14.991333
		C299.0372925,470.0785217,301.1448364,479.3721008,298.2723389,489.243927z"/>
	<path class="st4" d="M548.0598755,332.2228699c-7.8439331-25.8161316-17.0769043-50.6255188-25.3700562-70.776947
		c-5.5563965-18.1601868-9.7619019-33.7779541-12.463623-44.6613159
		c-4.8272705,2.7293396-10.4830322,3.6081696-15.9108887,2.4723358c-2.134613-0.4460449-4.0143433-1.2011108-5.9259644-2.1760254
		c-6.9837036,161.8327484,9.0801086,189.8312836,12.0048523,236.0664825
		c40.8317566,64.3635254,42.2973328,83.1290894,42.2973328,83.1290894s47.7007446-33.4402771,36.7409058-132.664978
		c-1.5569458-2.3250732-3.0705566-4.6788635-4.5400391-7.0601807c-6.8123169-11.0935364-13.0750122-22.5153198-18.765564-34.2239685
		"/>
	<path class="st6" d="M561.5270386,389.5326233l0.0031738-0.0001221c-1.4387207-9.1401367-3.2531738-18.2172852-5.4384766-27.208374
		c-2.3256836-10.0582275-5.1420898-20.1546631-8.0700684-30.0631104
		c-7.8439941-25.8193359-17.1502075-50.6254883-25.3701172-70.7800293
		c-8.1433716-19.7404785-15.1653442-34.9408569-18.5425415-42.2590942c-1.6885376,0.3759766-3.3771362,0.598938-5.1390381,0.598938
		c-1.6152954,0-3.227417-0.1911621-4.6897583-0.4874268c-1.5388184,17.4146729-7.092041,91.8746338,3.5268555,158.9016113
		c15.1589966,96.1534424,51.6768799,130.9764404,51.6768799,130.9764404S574.7394409,472.8910217,561.5270386,389.5326233z
		 M561.0396118,427.2866516l-28.8969727-15.6113281c-0.8632813-5.5944824-3.2304688-20.453125-6.2250977-39.0678711
		l-0.00354-0.0020752h0.0032349c0.0001221,0.0006104,0.0001831,0.0013428,0.0003052,0.0020752l31.5952148,18.0083008
		C559.5740356,404.1308899,560.6637573,416.2949524,561.0396118,427.2866516z M548.8021851,350.3511047
		c3.1541748,11.7818604,5.855957,23.5317383,7.847168,34.9759521l-31.5286255-17.9691162
		c-1.6119995-10.4748535-3.4502563-21.8449707-5.2884521-33.291626l-0.003479-0.0019531h0.0031738
		c0.0001221,0.0006104,0.0001831,0.0013428,0.0003052,0.0019531L548.8021851,350.3511047z M511.3858643,245.6816101
		c10.5456543,24.4684448,25.2937012,61.2858276,35.7692261,98.9252319l-28.1483154-15.8343506
		c-6.2254028-39.519165-12.7567139-80.8033447-12.7567139-80.8033447h-0.0063477
		C505.5300293,243.2411194,510.2229614,242.5657043,511.3858643,245.6816101z M496.5328369,250.670929
		c0.1879272-5.21875,4.9541626-5.6647339,5.5531616-2.0645752l12.6101685,79.7137451h-0.0031738l-16.7010498,15.4997559
		C495.0671997,308.9936829,495.5132446,274.8780823,496.5328369,250.670929z M502.0062866,377.5596008
		c-1.4655762-9.3828125-2.7399292-18.918457-3.6001587-28.4445801h-0.0031738l17.1183472-15.770752l5.4799194,34.5681152
		l-17.7523804,17.4528809C502.7964478,382.8484192,502.4587402,380.223175,502.0062866,377.5596008z M504.2301025,390.3960266
		l17.5230103-17.4179688l6.2282104,39.4082031l0.0004272-0.0004883v0.0031738l-0.0004272-0.0026855l-14.1453857,17.3759766
		C510.3058472,418.0886536,507.0019531,405.0675354,504.2301025,390.3960266z M515.295105,434.5346985l13.7730713-16.8537598
		c2.2875366,9.3826904,9.5325928,38.9934082,9.8319092,40.309082l-0.0030518-0.0063477
		c-0.5257568,0.9749756-5.5946045,10.0550537-8.213562,14.8659668
		C525.6113892,462.7532043,520.2843628,449.9931946,515.295105,434.5346985z M548.805481,501.8994446
		c-3.6002197-4.3902588-9.3031006-12.3839111-15.8344116-24.4683838l8.7805786-15.9140625l15.6113281,13.3970947h0.0001221
		C554.6613159,488.0499573,551.1312866,496.9070129,548.805481,501.8994446z M558.2265015,470.2593079l-15.2419434-13.1357422
		c-1.5388184-6.3051758-7.6240845-31.4108887-9.758667-40.003418l27.8519287,15.0061035v0.0031738
		C561.3041382,447.1417542,560.0646362,459.8252258,558.2265015,470.2593079z"/>
</g>
</svg>
