<?xml version="1.0" encoding="utf-8"?>
<!-- Generator: Adobe Illustrator 22.0.1, SVG Export Plug-In . SVG Version: 6.00 Build 0)  -->
<svg version="1.1" id="Layer_1" xmlns="http://www.w3.org/2000/svg" xmlns:xlink="http://www.w3.org/1999/xlink" x="0px" y="0px"
	 width="720px" height="720px" viewBox="0 0 720 720" style="enable-background:new 0 0 720 720;" xml:space="preserve">
<style type="text/css">
	.st0{fill:#236192;}
	.st1{fill:#111111;}
	.st2{fill:#6F263D;}
	.st3{fill:#FFFFFF;}
	.st4{fill:#A2AAAD;}
</style>
<g>
	<path class="st0" d="M683.7024536,527.2594604l-13.4772339,24.5145264
		c-31.876709,49.0320435-82.1107178,70.4664307-129.9047241,72.3084717
		c-47.7939758,1.8421021-61.2712402-18.3963623-72.9094849-26.9545288
		c-11.6382446-8.5941772-28.1955872-48.3980103-28.1955872-48.3980103l0.3305664-10.8328857
		c-9.1930542,3.7305908-18.4815369,7.2215576-27.8560486,10.4692993
		c-42.3099365,14.6461792-84.2472229,23.6791382-123.8136597,27.4893799l-9.8262329,24.9832764
		c0,0-174.0566711,10.3972168-242.0500488,23.9135742l54.3177719-89.968689
		c-17.3236313-13.744751-30.0346375-30.6026001-36.8559151-50.3692322
		c-31.5701733-91.140625,72.4497375-210.1673584,233.2845459-268.7341309l73.4083252-120.433075l33.0756836,51.4750671
		c47.1899719,8.5942078,55.1501465,36.4862976,55.1501465,36.4862976
		c102.0426636-3.2453613,183.4472046,30.1999207,205.2872925,93.346283
		c13.810791,39.8668823,1.6347046,85.0856323-29.8994141,128.2639771c0,0,58.6929932,36.0205078,60.2315674,120.9048157
		l-0.3005371,1.5325317L683.7024536,527.2594604z"/>
	<path class="st1" d="M663.3017578,538.9005737c-0.4327393-15.1149292-13.4442139-40.9066162-15.3164063-44.5516357
		l-0.0029297,0.000061c-6.755127,9.2642822-13.8138428,17.8585205-13.8138428,17.8585205
		c-2.0145264,2.5388794-5.6470947,6.6036987-9.1470947,10.2108154c-0.0709229,18.1677246-0.4567871,34.7554932-0.4567871,34.7554932
		l-2.5948486,0.2949219l-0.0074463,0.0896606l-5.6494141-0.8713989
		c-1.5415039-3.3775635-8.3657227-14.0812988-11.1394043-16.4882202
		c-38.5596924,29.0279541-77.4559326,32.0028687-77.4559326,32.0028687
		c-43.9807129,8.1975098-72.6090088-9.1951904-72.6090088-9.1951904
		c5.1535645,13.0775757,19.4000244,29.833252,19.4000244,29.833252c20.8695068,25.355896,56.9230957,23.949585,56.9230957,23.949585
		c99.5635986-1.9411621,138.4929199-77.5581665,138.4929199-77.5581665L663.3017578,538.9005737z M467.1766357,574.8851318
		c0,0,29.598999,24.5505371,101.2373047,0.8023071l-5.2827148,8.7294312h-0.0001221
		C543.5327148,590.168396,491.423584,602.1101074,467.1766357,574.8851318z M610.5915527,582.6469116
		c-6.4605713,3.9815674-17.7954102,10.4032593-28.9677734,13.8469238c0,0-73.411377,26.8223267-103.6113281-7.0917358
		c0,0,29.598877,24.5806274,101.3065186,0.8023071h-0.0030518c0,0,25.5512695-8.8286133,34.9868164-17.2935791
		L610.5915527,582.6469116z"/>
	<path class="st2" d="M510.2886963,366.2200317L404.9816895,199.8244019
		c-44.0266113,0.2694702-104.6176758,45.4691162-104.5957031,45.4910278l18.0598145-29.4636841l12.3413086-10.0366211
		l9.4266357-34.1754761l15.3193359-4.7177734l4.5164795-21.8070068c0,0,4.2272949,0.0357666,10.7879639,0.7584839
		l-10.217041-16.1439209l0.0030518,0.0059814L202.7636719,387.4022217c0.0522461,0.3963623,0.121582,0.8126831,0.1912842,1.2311401
		c0.0474854,0.2887573,0.1011963,0.5971069,0.1517334,0.8954468c0.0633545,0.357666,0.1259766,0.7112427,0.1918945,1.0827637
		c2.4760742,14.4147949,11.0041504,25.3529053,15.9172363,29.8302612c2.8807373,2.6494751,5.9731445,4.9712524,9.7886963,6.8654175
		c4.9088135,2.4368896,11.0146484,4.1660156,19.4075928,4.9741821c14.916626,1.4423828,29.1992188-1.4003296,44.314209-4.477417
		c15.1179199-3.0770874,30.0375977-8.194519,37.7905273-10.8389282
		c7.7617188-2.6443481,28.1955566-11.2385254,36.3901367-14.2825928
		c8.161377-3.0770874,34.3137207-12.2722778,43.5118408-15.3192749
		c9.1981201-3.0470581,36.5552979-10.7998657,41.8741455-12.2422485c4.4451904-1.2111816,18.7443848-4.2900391,28.2874756-6.0953979
		c1.7980957-0.3401489,3.4285889-0.635437,4.7911377-0.8641357c5.2873535-0.9065552,14.0102539-1.703064,22.2789307-1.8978882
		c0.1914063-0.0046387,0.381958-0.0092163,0.572876-0.0131836c0.6644287-0.0134277,1.3261719-0.0239258,1.9814453-0.0290527
		c0.027832-0.0002441,0.0561523-0.0009155,0.0839844-0.0010986L510.2886963,366.2200317z M379.3504639,388.9648438
		c0,0-86.3897705,40.2335205-125.2559814,35.3173828h0.0058594c0,0,18.6279297-1.3372192,75.0551758-21.9723511
		l32.4716797-86.3236084l20.1031494,64.5166016c0,0,74.649292-30.5334473,104.013916-19.394043
		C485.7442627,361.1088257,459.2524414,358.1278687,379.3504639,388.9648438z M290.0819092,519.906311l0.0030518-0.0031128
		l-24.1479492,63.7473755c-113.0828857,6.7221069-193.7843018,17.5249634-193.7843018,17.5249634l64.9163132-106.0542603
		c5.5531616,7.9631348,21.1699829,22.6784668,39.2298584,29.1000977
		c18.0598145,6.4216919,29.7340698,7.9631958,46.5558472,7.0557251
		C239.7426758,530.3395386,260.7834473,527.8995361,290.0819092,519.906311z"/>
	<path class="st3" d="M532.7629395,367.927063l-82.9489746-132.3777466
		c4.0866699-7.3621826,4.0866699-21.5756836,4.0866699-21.5756836
		c90.1309814,5.5592041,159.0288086,41.678894,173.1101074,99.1037598
		c6.6230469,26.9846191,0.3005371,55.4506836-16.2868652,82.8409424
		C610.7539063,395.9544067,581.359375,376.1216431,532.7629395,367.927063z M669.7473145,538.9456787
		c-4.2819824-33.1778564-25.1184082-64.4475098-34.1153564-73.8440552
		c1.6378174,6.9204712,5.3188477,24.0788574,0.2344971,30.5004272c-1.3703613-2.9779053-7.1939697-8.864624-11.6713867-12.5427246
		c0.7341309,8.8005981,0.8840332,24.6009521,0.826416,39.3590088c-0.0709229,18.1677246-0.4567871,34.7554932-0.4567871,34.7554932
		l-2.5948486,0.2949219l-0.0495605,0.0056152c-5.1505127-27.7268677-35.0860596-70.7369385-50.0687256-83.8145752
		l-14.3127441,9.8021851c-26.8852539-32.1110229-52.8092041-42.6464233-81.6057129-49.4016113
		c-28.7966309-6.7221069-77.8227539-2.4400024-99.0979004,7.4223022c37.5561523-2.4039917,70.9414063,1.7728882,98.4968262,9.736084
		c27.5585938,7.960144,56.3552246,23.8804321,75.5869141,51.0002441l15.854248-9.9343872
		c3.8132324,4.9161377,21.9422607,31.2756348,22.5432129,41.6728516l-4.4472656,5.5501709
		c-0.7692871-4.2459717-11.4730225-21.5065308-19.8328857-27.0236206
		c3.8764648,7.960144,10.8359375,26.9605103,5.3188477,35.5547485c-1.2049561-4.2850952-6.1212158-12.8792725-12.5427246-17.428833
		c-0.300415,5.8536987-0.300415,18.0267944-6.4547119,26.4226685c-28.8295898,7.1578369-50.230957,8.7985229-68.6274414,6.9564819
		c-18.3962402-1.84198-34.9536133-12.2421875-33.7155762-33.0786133
		c2.4460449,18.3964233,22.0744629,25.7525635,37.9946289,27.5916138c15.9533691,1.8390503,44.75-2.4761353,58.6330566-7.223938
		c-22.2758789-58.0620117-84.3494873-71.8067017-118.6662598-76.7228394c-34.3166504-4.9161377-75.9865723,0-96.8199463,3.6781006
		c-20.8394775,3.6780396-49.0350342,22.7115479-111.5443115,20.2354126
		c-62.5093384-2.4760742-75.3856201-54.5491943-75.6500854-76.5575562c-2.7104492,1.9021606-6.520752,5.4480591-6.520752,5.4480591
		c7.9210815-79.6707153,51.9348145-128.8619995,112.8064575-167.8964844l0.0030518,0.0059204
		c-6.5568848,7.9932251-33.5114746,36.9911499-49.4378052,70.9111938
		c-15.9533081,33.8779907-14.3156128,49.8343506-12.3413696,64.8832397
		c2.0404053,15.1209717,17.9937744,37.994751,31.8045654,42.4060669l3.2453613-5.0483398
		c10.9381104,11.6051636,27.8951416,9.6339111,60.9707031,4.7177734
		c33.0756836-4.9160767,81.7050781-26.1491699,99.6657715-33.5113525
		c17.9907227-7.3591309,85.7827148-32.6759644,130.7370605-30.2359619
		c52.7431641,2.8787231,81.3054199,21.2390747,105.8198242,41.6728516
		c24.5146484,20.4367676,34.310791,42.0755615,41.6729736,60.8716431
		c7.3591309,18.7960815,9.7991943,30.2359619,10.2017822,34.7133789
		C671.9920654,515.3326416,673.1940918,527.6079712,669.7473145,538.9456787z M619.6154785,434.3579102
		c-4.1767578-10.9381104-25.7224121-42.5443115-69.9675293-49.4016724
		c13.6785889,5.9859009,41.5737305,16.9900513,59.498291,49.0320435l-7.9631348,13.9129639l-1.0006104,14.414856
		l-12.9093018-13.9130249l-6.8212891,4.2821045c-10.0666504-12.8131714-32.9465332-32.4115601-65.6225586-41.8081055
		c-32.6759033-9.3995361-72.7441406-11.8696289-110.3032227-1.6376953
		c-31.473999,8.5941772-50.6727295,17.1583252-59.6364746,21.2390747
		c-8.9969482,4.0807495-24.9172363,11.8395996-46.1563721,17.9937744
		c-21.236084,6.1210938-42.47229,10.6015015-68.2247314,6.9564819
		c-25.7525635-3.6781006-48.1936646-15.9202881-54.3478394-44.515564
		c-6.152832-28.5889282-2.1712036-41.9827881,6.0526123-74.1415405c0.0027466-0.0048218,0.0056152-0.0101929,0.0083618-0.0150146
		l-0.0029907-0.0060425c-0.0018311,0.0071411-0.00354,0.013916-0.0053711,0.0210571
		c-12.2416992,21.3780518-29.3856812,68.3551636-13.4689331,100.2216187
		c15.9202881,31.8737183,64.1469727,35.9544067,94.7827148,29.833313
		c30.635498-6.1210938,67.392334-20.0341187,82.9429932-26.5548706c15.5146484-6.520752,46.4567871-20.8364258,79.862915-26.3535767
		c33.40625-5.5171509,58.8312988-4.5825806,85.4853516,7.9631958
		c26.6540527,12.5727539,42.6405029,21.0648193,64.9853516,44.3833008l9.06604-4.7177734l18.5286865,19.5322876
		l3.9785156-29.5327759L619.6154785,434.3579102z M306.2365723,526.6583862l-7.3620605,19.5983887
		c28.7995605,1.2380981,94.6865234-11.6382446,134.5202637-25.4219971
		C417.1379395,511.3390503,375.4680176,502.744873,306.2365723,526.6583862z M115.8429642,413.9492188
		c1.1593628-10.8751221,3.7017212-22.2561035,8.1619263-33.5465698c1.2904663-3.3735352,2.6935425-6.6762085,4.2054977-10.0025024
		c7.659668-16.8578491,19.6314697-35.8853149,32.4746704-51.2045898
		c12.8432617-15.3193359,31.239624-30.9331055,40.7353516-38.5958252c2.5223389-2.034668,6.4394531-4.9802246,11.2207031-8.3746338
		c9.2545166-6.7262573,17.6708984-12.0727539,24.4702148-16.0784912c4.6610107-2.8144531,9.3972168-5.5194702,13.9984131-7.9250488
		C136.5535278,293.9127808,63.3790321,375.4730225,80.9182205,447.0268555
		c4.8169556,19.5623169,15.9864502,36.6906128,32.2072754,50.9341431l-0.000061-0.0030518l12.7088623-20.1298218
		c-0.0076904-0.0153809-0.0152588-0.0308228-0.0228882-0.0462646c-2.0234375-3.2657471-4.0275269-7.8707275-5.7483521-13.4998169
		c-3.3883057-9.4743652-6.1314087-20.9598999-5.6334229-32.6105957
		C114.7071609,425.1782837,115.1837845,419.326355,115.8429642,413.9492188z M404.9816895,199.8244019
		c-44.0266113,0.2694702-104.6176758,45.4691162-104.5957031,45.4910278l18.0598145-29.4636841l12.3413086-10.0366211
		l9.4266357-34.1754761l15.3193359-4.7177734l4.5164795-21.8070068c0,0,4.2272949,0.0357666,10.7879639,0.7584839
		c3.3892822,0.3733521,7.3974609,0.9290161,11.7757568,1.7601929c28.3054199,5.3737793,71.8537598,22.2019043,60.5146484,74.8742065
		h-0.0001221c-5.9366455-12.6730347-15.4069824-19.2136841-26.7160645-21.605835
		C412.7741699,200.1324463,408.9438477,199.8001099,404.9816895,199.8244019z M345.5356445,195.147522l0.0029297-0.0029907
		c20.5847168-7.6750488,37.1367188-10.2213745,49.9682617-10.2910767c4.0726318-0.0221558,7.7697754,0.2045898,11.1013184,0.5974731
		c16.2226563,1.913208,23.7817383,7.7415771,23.7817383,7.7253418c-6.7338867-6.4141846-15.9692383-9.6531372-25.8444824-10.9765015
		c-3.6740723-0.4923096-7.4350586-0.7221069-11.190918-0.7472534c-23.2565918-0.1559448-46.2473145,7.4086304-46.2473145,7.4086304
		L345.5356445,195.147522z M402.3852539,195.7219238c4.0456543-0.1798096,7.6876221-0.036377,10.963501,0.3525391
		c10.6541748,1.2648315,17.435791,5.1068726,21.6109619,8.7848511c2.166748,2.2845459,4.1893311,4.8816528,6.0285645,7.8492432
		c0,0-1.4572754-3.8222656-6.0285645-7.8492432c-6.8588867-7.2317505-15.2196045-11.2017822-24.229248-12.9115601
		c-3.7073975-0.7035522-7.5224609-1.0262451-11.3887939-1.0349731
		c-34.4508057-0.0776978-72.8365479,24.6384888-72.8365479,24.6384888v-0.0030518l-6.1210938,9.3304443
		C358.0390625,203.8392944,384.2570801,196.52771,402.3852539,195.7219238z"/>
	<path class="st0" d="M619.6154785,434.3579102l-11.2385254,17.1884155l-3.9785156,29.5327759L585.869751,461.546814
		l-9.06604,4.7177734c-22.3448486-23.3184814-38.3312988-31.8105469-64.9853516-44.3833008
		c-26.6540527-12.5457764-52.0791016-13.4803467-85.4853516-7.9631958
		c-33.4061279,5.5171509-64.3482666,19.8328247-79.862915,26.3535767
		c-15.5506592,6.520752-52.3074951,20.4337769-82.9429932,26.5548706
		c-30.6357422,6.1210938-78.8624268,2.0404053-94.7827148-29.833313
		c-15.916748-31.8664551,1.2272339-78.8435669,13.4689331-100.2216187
		c-8.2238159,32.1587524-12.2054443,45.5526123-6.0526123,74.1415405
		c6.1541748,28.5952759,28.5952759,40.8374634,54.3478394,44.515564
		c25.7524414,3.6450195,46.9886475-0.8353882,68.2247314-6.9564819
		c21.2391357-6.1541748,37.1594238-13.9130249,46.1563721-17.9937744
		c8.9637451-4.0807495,28.1624756-12.6448975,59.6364746-21.2390747
		c37.559082-10.2319336,77.6273193-7.7618408,110.3032227,1.6376953
		c32.6760254,9.3965454,55.5559082,28.9949341,65.6225586,41.8081055l6.8212891-4.2821045l12.9093018,13.9130249
		l1.0006104-14.414856l7.9631348-13.9129639c-17.9245605-32.0419922-45.8197021-43.0461426-59.498291-49.0320435
		C593.8930664,391.8135986,615.4387207,423.4197998,619.6154785,434.3579102z M182.218689,336.7505493
		c-0.0018311,0.0071411-0.00354,0.013916-0.0053711,0.0210571c0.0027466-0.0048218,0.0056152-0.0101929,0.0083618-0.0150146
		L182.218689,336.7505493z M360.3200684,344.9180298l-19.7667236,52.1722412l32.0418701-13.2098389L360.3200684,344.9180298z
		 M395.5068359,184.8534546c4.0726318-0.0221558,7.7697754,0.2045898,11.1013184,0.5974731
		c16.2226563,1.913208,23.7817383,7.7415771,23.7817383,7.7253418c-6.7338867-6.4141846-15.9692383-9.6531372-25.8444824-10.9765015
		c-3.6740723-0.4923096-7.4350586-0.7221069-11.190918-0.7472534c-23.2565918-0.1559448-46.2473145,7.4086304-46.2473145,7.4086304
		l-1.5715332,6.286377l0.0029297-0.0029907C366.123291,187.4694824,382.675293,184.9231567,395.5068359,184.8534546z"/>
	<path class="st4" d="M467.1766357,574.8851318c0,0,29.598999,24.5505371,101.2373047,0.8023071l-5.2827148,8.7294312h-0.0001221
		C543.5327148,590.168396,491.423584,602.1101074,467.1766357,574.8851318z M579.315918,590.2044067h0.0030518
		c-71.7076416,23.7783203-101.3065186-0.8023071-101.3065186-0.8023071
		c30.1999512,33.9140625,103.6113281,7.0917358,103.6113281,7.0917358
		c11.1723633-3.4436646,22.5072021-9.8653564,28.9677734-13.8469238l3.7111816-9.736084
		C604.8671875,581.3757935,579.315918,590.2044067,579.315918,590.2044067z M521.6235352,366.7220459l-105.211792-165.8201294
		c-3.6375732-0.7694702-7.4678955-1.1018066-11.4300537-1.0775146l105.3070068,166.3956299
		C514.4688721,366.1873169,518.423584,366.3297119,521.6235352,366.7220459z M381.7303467,380.5028687
		c0,0,74.649292-30.5334473,104.013916-19.394043c0,0-26.4918213-2.980957-106.3937988,27.8560181
		c0,0-86.3897705,40.2335205-125.2559814,35.3173828h0.0058594c0,0,18.6279297-1.3372192,75.0551758-21.9723511
		l32.4716797-86.3236084L381.7303467,380.5028687z M372.5952148,383.8804321l-12.2751465-38.9624023l-19.7667236,52.1722412
		L372.5952148,383.8804321z M201.6518555,371.4428711c-0.1557617,2.5510254-0.4030762,6.8045654,1.3031006,17.1904907
		c-0.0697021-0.418457-0.1390381-0.8347778-0.1912842-1.2311401l157.8598633-257.6668091l-0.0030518-0.0059814l10.217041,16.1439209
		c3.3892822,0.3733521,7.3974609,0.9290161,11.7757568,1.7601929l-22.1611328-34.9272461L201.6547852,371.4398804
		L201.6518555,371.4428711z M490.6875,536.4606934c-7.0556641-6.4216919-38.8933105-25.7195435-72.3085938-31.2366943
		c-33.4091797-5.5200806-54.8496094-3.9815674-75.989502,0.3005371
		c-21.1369629,4.276062-29.6981201,8.8616943-42.2739258,11.9387817l-28.4960938,75.052002
		c-32.4746094,1.2350464-72.0049438,4.6156006-85.7827148,5.5171509
		c-13.8138428,0.9345093-49.3325806,4.2790527-60.0692673,5.5170898
		c-10.7006836,1.2379761-36.152771,4.3150635-42.5744019,5.2166138c-6.4576416,0.90448-29.7341347,4.5825195-29.7341347,4.5825195
		l77.5281372-126.2236328c0,0-2.2825928-3.5110474-5.1527023-9.296936
		c-0.0076904-0.0153809-0.0152588-0.0308228-0.0228882-0.0462646c-1.8254395-3.6835327-3.8824463-8.2823486-5.7483521-13.4998169
		c-3.3883057-9.4743652-6.1314087-20.9598999-5.6334229-32.6105957c0.2775269-6.4931641,0.7541504-12.3450928,1.4133301-17.722229
		c1.6382446-13.3630371,4.418457-23.760498,8.1619263-33.5465698c1.2904663-3.3735352,2.6935425-6.6762085,4.2054977-10.0025024
		c7.659668-16.8578491,19.6314697-35.8853149,32.4746704-51.2045898
		c12.8432617-15.3193359,31.239624-30.9331055,40.7353516-38.5958252c2.5223389-2.034668,6.4394531-4.9802246,11.2207031-8.3746338
		c6.864502-4.87323,15.5212402-10.6750488,24.4702148-16.0784912c4.6610107-2.8144531,9.3972168-5.5194702,13.9984131-7.9250488
		c3.5760498-1.8696899,7.0699463-3.5599976,10.3800049-4.9795532l-2.7436523,4.2821045l0.0061035,0.0031128
		c-18.098877,8.8946533-58.8703003,37.0932617-84.5898438,66.1903687
		c-25.7194824,29.0971069-47.4934616,71.7074585-49.9335251,102.6135864
		c-2.4429932,30.9331055,3.0770874,57.5901489,26.053093,79.9621582
		c22.9759521,22.3779297,48.0884399,24.2470703,64.9463501,25.7525024
		c16.8579102,1.5054932,33.4152832-1.2380371,50.5734863-4.9161377
		c17.1584473-3.6810303,30.972168-10.1086426,45.0505371-14.0842285
		c14.0782471-3.975647,39.8308105-9.7962646,55.7570801-10.3972168c15.9204102-0.637085,45.3540039-0.637085,72.3085938,8.2636719
		C465.8754883,509.8066406,482.7303467,522.6798706,490.6875,536.4606934z M290.0849609,519.9031982l-0.0030518,0.0031128
		c-29.2984619,7.9932251-50.3392334,10.4332275-67.2271729,11.3707886
		c-16.8217773,0.9074707-28.4960327-0.6340332-46.5558472-7.0557251
		c-18.0598755-6.4216309-33.6766968-21.1369629-39.2298584-29.1000977L72.1527176,601.1755371
		c0,0,80.7014084-10.8028564,193.7843018-17.5249634L290.0849609,519.9031982z M434.9597168,204.859314
		c2.166748,2.2845459,4.1893311,4.8816528,6.0285645,7.8492432
		C440.9882813,212.7085571,439.5310059,208.8862915,434.9597168,204.859314z M326.505127,215.5482178l-6.1210938,9.3304443
		c37.6550293-21.0393677,63.8730469-28.3509521,82.0012207-29.1567383c4.0456543-0.1798096,7.6876221-0.036377,10.963501,0.3525391
		c10.6541748,1.2648315,17.435791,5.1068726,21.6109619,8.7848511c-6.8588867-7.2317505-15.2196045-11.2017822-24.229248-12.9115601
		c-3.7073975-0.7035522-7.5224609-1.0262451-11.3887939-1.0349731
		c-34.4508057-0.0776978-72.8365479,24.6384888-72.8365479,24.6384888V215.5482178z"/>
</g>
</svg>
