<?xml version="1.0" encoding="utf-8"?>
<!-- Generator: Adobe Illustrator 22.0.1, SVG Export Plug-In . SVG Version: 6.00 Build 0)  -->
<svg version="1.1" id="Layer_1" xmlns="http://www.w3.org/2000/svg" xmlns:xlink="http://www.w3.org/1999/xlink" x="0px" y="0px"
	 width="720px" height="720px" viewBox="0 0 720 720" style="enable-background:new 0 0 720 720;" xml:space="preserve">
<style type="text/css">
	.st0{fill:#CE1126;}
	.st1{fill:#FFFFFF;}
</style>
<g>
	<path class="st0" d="M630.2844238,266.4469604c27.3148193-23.2633972,53.7146606-60.7722168,53.7146606-103.7701721
		c0.0567017-3.309494-2.5801392-6.0382385-5.8895874-6.0949249c-1.8817139-0.0322723-3.6693115,0.8212738-4.8272095,2.3048706
		c-28.098999,38.292984-54.4989014,52.9304962-70.5741577,58.4196472
		c26.661377-20.1266632,52.6693115-53.0612335,59.465332-90.3088074c0.522583-3.2873077-1.718689-6.3758621-5.0059814-6.8984451
		c-1.8969116-0.3015213-3.8238525,0.3190231-5.1881714,1.6707611
		c-32.5426025,32.5424881-77.3703003,67.3068924-197.8690186,67.3068924c-29.013916,0-62.3405762-0.9147949-83.9048767-0.9147949
		c-97.7583008,0-133.6988525,60.510849-141.8017883,77.3701782
		C136.5364227,252.123291,51.1934357,315.7263794,37.7845764,407.5935974S87.9788132,584.803772,179.8460083,598.2126465
		c8.0297394,1.171936,16.1339111,1.7610474,24.2488098,1.7624512
		c67.7095642,0.1808472,128.8496094-40.4760132,154.8710632-102.9859924c1.815918,0.2975769,3.6498413,0.472168,5.4891663,0.5228271
		c21.3029175,0,25.7465515-6.1426086,25.7465515-11.5009155c0-2.7446289-2.7445068-6.1426086-4.1821594-8.1030579
		c31.2355957-0.2613525,40.5148315-1.6989746,53.9761658-6.4039612c2.138031-0.62323,3.5872498-2.6093445,3.528717-4.8355713
		c0-4.5742493-9.5405884-12.2852173-16.3366089-18.1663513c43.6513977-0.7841797,75.9325256-8.6257629,75.9325256-18.8198853
		c0-1.9602051-0.2613525-4.4434814-11.8930969-13.59198c24.7008972-6.7960205,68.0909729-23.3939819,68.0909729-34.2415771
		c0-4.1821289-3.6593628-6.6653137-7.972229-9.6712952c38.4237061-14.506897,70.7047119-39.9919739,70.7047119-49.1404419
		c0-7.3188782-10.8474121-7.9723206-16.2058716-8.3644104c19.0812988-12.2850952,45.7426147-33.1959229,45.7426147-42.2137756
		C651.5873413,263.1795959,636.949707,266.8390503,630.2844238,266.4469604z"/>
	<path class="st1" d="M619.0448608,268.7993774c30.7127686-22.8713074,59.7266846-62.4711761,59.7266846-106.1225891
		c0.0471802-0.4275818-0.2609863-0.8124084-0.6885376-0.8596039c-0.2263794-0.0251312-0.4523926,0.0502777-0.6184692,0.2061615
		c-47.31073,64.5622559-90.3087158,63.9086761-90.3087158,63.9086761c-1.8297119,0-2.2218018-2.6138916-0.7841797-3.6594238
		c30.5821533-18.0355988,63.2553711-55.021698,70.5741577-96.189949c0.1307373-0.5227051-0.6534424-1.1761475-1.1762695-0.6534424
		c-34.7642212,34.7644119-82.4671631,68.875267-201.6591187,68.875267c-38.0316467,0-58.0276794-0.7841949-83.9048462-0.7841949
		c-103.1167297,0-134.8751678,68.6137848-138.6652222,77.6316376
		c-88.7145691-15.1712952-172.9305573,44.4472046-188.1018677,133.1617737S87.8856583,577.2442627,176.600235,592.4155273
		c76.0626526,13.0078125,150.8213959-29.1160278,179.0983124-100.9153442
		c2.8890381,0.5430298,5.8176575,0.848999,8.7565002,0.9147949c16.5979614,0,20.6494751-3.7900391,20.6494751-6.4039612
		c0-1.6989746-10.7168274-13.3305969-5.3583984-13.3305969c36.7246094,0,44.9582825-1.3070374,58.5503845-6.0118713
		c-6.5346985-10.063385-29.9287109-23.2633972-17.9049683-23.2633972c58.4197693,0,77.500885-11.2395325,77.500885-13.5921021
		c0-2.8752441-18.5584106-16.2058716-18.5584106-16.2058716c26.7920837-4.4434814,74.7563782-26.0079041,74.7563782-31.6276855
		c0-3.3980713-13.5921021-9.0178528-11.3702393-12.1544495c42.4752197-14.1148071,74.2336426-41.6911011,74.2336426-46.6574097
		c0-4.0514221-24.9623413-3.6593323-24.9623413-3.6593323v-2.6138916
		c21.5643921-11.2395325,54.4989624-38.4237366,54.4989624-44.3049622
		C646.4904175,268.6687622,615.5161743,275.0727234,619.0448608,268.7993774z M672.4981079,186.8548584
		c-14.6376343,62.0792084-107.8217163,113.3108521-179.9642029,108.867218
		c-4.443634-0.2612305-7.710968-3.1365967-11.8931274-5.2276611c-1.6989746-0.9147949-4.7049561-0.6534424-6.5346985-1.5683594
		c-1.9603271-1.176178-1.0455322-3.6593323,1.4376526-4.1821594c2.7446289-0.5227051,6.0118408,0.6534424,8.2336731-0.5227051
		c5.4891357-3.267334,11.6317444-1.9604492,17.2515259-3.6594238c3.1367188-1.0455627,0-5.6197815,2.4831543-6.4039612
		c3.1367188-1.0455322,6.6654358-1.4376221,9.9326782-2.3524475c1.5683594-0.3920898,1.8297119-4.1821289,2.6138916-4.4436035
		c4.5742188-1.3068848,12.2850952,0.6534424,18.4276733,0.5228271c1.8297119,0,0.6534424-3.5286865,2.8752441-3.5286865
		c7.7109985-0.1306152,6.9268188,0.9147949,12.0237427-2.6139221c4.7049561-3.1365967,16.0752563,1.3070068,15.9446411-5.8811188
		c9.5405273-1.5683594,19.8652954,1.1762848,28.4910889-5.0970612c1.3070068-1.0455475,3.9207764,0,5.7504883-1.1761627
		c1.1762695-0.7841797,1.1762695-2.6138916,2.4831543-3.0059814c3.5288086-1.0455475,7.4495239-1.0455475,10.7168579-2.6139069
		c1.9604492-0.9147949,1.6989746-4.1821442,2.6138916-4.7048492c0,0,40.3840942-15.8139038,55.9364014-53.0614777
		C671.8446655,184.894516,673.020813,184.3716888,672.4981079,186.8548584z M288.3917542,350.7438965
		c1.6989746-2.352417,2.7446594-5.619751,4.1822815-6.4039307c4.125946-2.2568054,8.7584839-3.4262085,13.4613647-3.3979797
		c24.5701599,0,54.2374878,15.421814,48.0948792,18.0355835c-21.4920654,10.0039978-45.2987366,13.9794006-68.8751221,11.5010376
		c-0.6534424,0,0.1307373-5.0970764-0.2613525-8.2336731v-0.0001221c-0.3920898-2.2218323,1.8297119-3.528717,3.6594238-5.7503967
		C289.5680237,355.3181458,287.2156067,352.5736389,288.3917542,350.7438965z M335.8332214,282.2606201
		c-0.1307373-1.1761475,1.8297119-1.8295898,2.8752747-1.9603271c2.8589783-0.2337646,5.697876-0.6704712,8.4950256-1.3069153
		c2.2218018-0.5228271,3.1367188-2.8752441,4.9663086-4.1821289c6.0118713-4.3128967,13.7228394,0,19.6039734-2.6138916
		c2.7446289-1.176178,5.4891357-1.8297424,7.8415833-0.3921204c6.0118408,3.3981018,14.7683716,4.8357239,16.5979614,12.0237427
		c-21.3028259,12.4159546-46.3959351,15.8139038-70.7049866,15.5524292c0.1307373-3.528717-1.1761475-8.3642883,2.4832764-9.6712952
		C331.7817078,288.4032288,336.4866638,287.357666,335.8332214,282.2606201z M366.9382019,321.7301331
		c-22.0871277,12.6771545-47.7029419,14.2455444-72.5345764,14.1147766
		c0.2613525-3.7900391,2.2218018-6.4039307,3.0059814-9.9326477c1.176178-4.4434814,8.1029358-5.619751,7.9721985-11.7623596
		c0-3.3979797,6.6654358-2.7445374,8.7565308-5.7505188c0.914917-1.3070068,1.6989746-3.1365967,2.8752441-3.267334
		C336.6175232,302.2567749,372.6887207,319.1162109,366.9382019,321.7301331z M324.7244263,392.5656128
		c-15.6831665,9.8020325-45.87323,14.1147766-52.0157166,10.8475647
		c2.7445374-9.9327698,6.5345764-19.7347107,10.0632935-29.4060059
		C282.7720032,374.0071716,308.6491699,378.8428955,324.7244263,392.5656128z M274.930542,411.385498
		c2.3525391,0.3920898,4.3128662-0.914917,6.1425781-0.3920898c1.9893188,0.3531494,3.9229126,0.9683838,5.7505188,1.8297119
		c1.2206421-0.5509338,2.4893188-0.9883728,3.7900696-1.3070068c3.6594238-1.1761475,7.8415833,1.1762695,11.6316223,0.914917
		c1.8297119-0.1307373,1.8297119-4.0515137,3.1367188-4.7049866c5.358429-2.4831543,12.1543579,1.0455627,17.7742615-0.3920898
		c0.6534424-0.1306152,0.1306152-3.0058594,2.6137695-4.8355713c1.0455322-0.6534424,5.358429-0.7841797,6.796051-1.3070068
		c0.0255127-1.0533142,0.6280518-2.0074158,1.5682373-2.4831848c4.3128967-2.4831543,35.5484619,6.5346985,35.5484619,10.9782104
		c-6.6654053,6.796051-20.2573853,17.774231-55.936615,17.774231c-36.4633789,0-44.4355774-7.3187561-49.2711792-10.4553528
		c-2.6138916-1.8297424,0.7840576-6.2733459,3.6593323-7.8415833h0.0002441
		C270.2256775,407.9873962,272.7088318,410.9934082,274.930542,411.385498z M335.0491638,385.6388245
		c0.7840576-0.1307373,1.9603271-1.8297424,1.9603271-2.3524475c0.2613525-2.6140137-4.8356934-3.1367188-6.6652832-4.9664307
		c-0.3921204-0.3920898-0.7842102-2.6139221,0.6534424-2.6139221c2.7445068,0,8.3642883,2.2218323,12.415802,0.2614746
		c1.0455322-0.5228271,1.1762695-2.0911865,2.7445068-2.7446289c1.6990051-0.6534424,3.7901917,0.2614746,4.8357239-0.3920898
		c1.0455322-0.5227051,2.7445068-0.6534424,3.3979797-1.6989746c0.6534424-0.7841797-0.2613831-3.0058899,0.5228271-3.7900696
		c1.3068848-1.3068848,3.267334-0.6534424,5.2276611-1.9603271c1.3068848-0.9147949,2.4831848-3.0058594,3.6594543-3.6594238
		c4.1821289-2.3524475,38.5543213-4.0514221,68.0909424,11.5010071c-4.8355713,6.5346985-12.6771545,6.796051-19.3424683,10.1940002
		v0.0001221c-5.2276917,2.7446594-10.9782104,3.006012-16.4673462,4.7048645
		C362.8868103,399.1001587,337.7936707,391.3893127,335.0491638,385.6388245z M417.1242981,352.9656067
		c-16.7288208,3.9207764-32.5426025,2.7446289-48.8792114-1.176178c-3.267334-0.7841797-5.2276611-4.0515137-7.9721985-6.4039307
		c-0.5228271-0.5227051-3.3980713-0.2613525-3.5286865-0.5227051c-0.6605835-2.7759399-2.2807007-5.2293091-4.5743713-6.9267883
		c-0.5227051-0.3920898-0.7840576-2.4831848,0.5228271-2.6138c4.1821594-0.3920898,8.2336731-0.914917,12.4158325-1.3070068
		c2.0911865-0.3920898,2.2218018-4.0513916,4.0515137-4.8355713c4.3127747-1.568512,30.0593262-4.9664612,43.9127808-4.9664612
		c14.1148071,0,48.6177368,7.5802307,44.9584045,12.2850952c-1.5683594,2.4832764-4.9663086,2.6138916-7.710968,4.4436035v0.0001221
		c-3.6593018,2.352417-8.7563782,1.4376221-12.0237122,4.5741272c-4.443512,4.3128662-10.5860901,4.5742188-16.4673462,5.3583984
		C420.2609253,351.1358643,418.9539185,352.5735168,417.1242981,352.9656067z M379.8768616,318.3321533
		c-1.3068848,0-1.6989746-2.6138916-2.6138-3.9207764c-1.3068848-1.6989746-4.0515137-2.2218018-5.4891357-3.2673645
		c-1.3068848-0.914917-1.0455322-2.4831543-2.3524475-3.5286865c-1.3068848-0.914917-4.5743408-0.6534424-6.534668-1.5683594
		c-0.6534424-0.2613525-1.5682678-2.7445374-0.6534424-3.2673645c4.1821289-2.352417,10.5860901,1.8297424,13.330719-1.5682373
		c4.3128967-5.7505188,10.063385-1.5684814,15.1603394-3.5286865c1.5682373-0.5228271,1.1761475-2.6139221,1.9603271-3.5288391
		c0,0,2.2217102-6.2731934,24.5701599-6.2731934c31.4970703,0,66.3921204,14.3762512,62.8634033,19.9960327
		C448.0986633,320.292511,413.5956116,320.292511,379.8768616,318.3321533z M409.5440674,271.0210571
		c3.9208069-1.4375,9.2792358,4.1822815,13.5921021,0.2614746c2.6137695-2.0910645,7.4494934,1.3069153,11.2395325,3.0058899
		c3.7901917,1.6989746,6.4039612-0.914917,9.6713257-2.8752747c2.0910645-1.4376221,5.2276611,2.6139221,9.0178528,1.6990051
		c1.1761475-0.2613525,0.9147949-3.0058899,2.0910645-3.1366272c4.3128967-0.5227051,8.1029358,3.528717,12.0237427,1.8297119
		c1.4376221-0.6534424,2.8752441-3.1365967,4.4434814-4.0513916c1.8297119-1.1762695,4.443634,1.4375,5.7505188,0.2613525
		c4.0515137-3.6594238,8.2337952-2.0910645,11.8930969-1.5683594c0.7841797,0.1307373,1.5683899,3.1365967,0.6535645,3.7901611
		h-0.0001221c-28.7524109,16.7286987-67.6988525,18.950531-86.3880005,7.7108459
		C397.5203552,274.4191589,406.2767334,272.3280945,409.5440674,271.0210571z M668.3161621,183.5876312
		c0.3919678-0.914917,1.5682373-1.3068848,0.7840576,0.5227051c-4.7049561,12.285202-37.5089111,74.8871307-173.037384,74.8871307
		c-25.6158142,0-77.1089172-0.2614746-121.5444031-0.2614746c-46.0039673,0-100.5028076,39.8613586-100.5028076,94.7524414
		c0,57.7662048-31.7584381,72.1423645-31.7584381,72.1423645s22.7405548-32.9345703,18.6891632-73.5800171
		c-5.4885406-54.4925537,42.3336792-111.5978088,125.4362488-111.6111145c-0.0335388,0-0.0682678-0.0006256-0.1017761-0.0006256
		h0.1306152c-0.0097351,0-0.019104,0.0006256-0.0288391,0.0006256c15.5461426,0.0135498,37.4252625,3.1359863,106.4130249,3.1359863
		C600.355835,243.5756531,639.9558716,221.75,668.3161621,183.5876312z M234.9384308,478.9534912
		c4.3103027-2.7673035,8.2234497-6.1088257,11.6316376-9.9325256c8.5296478,6.7548828,17.7256775,12.6228333,27.4455566,17.5128784
		c-3.5985718,4.5561218-7.6248474,8.7573853-12.0237427,12.5464478L234.9384308,478.9534912z M257.6788635,502.6089783
		c-8.8926544,6.7118835-18.9512329,11.7191467-29.6672058,14.7684021l0.3920898-34.6336975
		c0.5227051-0.2613525,1.0455322-0.5227051,1.5682373-0.7840576L257.6788635,502.6089783z M229.8413696,475.1636963
		l-1.4376221-1.0455322l0.1306152-18.8199158c0.7661896-0.7669067,1.4657135-1.5976868,2.0910645-2.4831543l1.3070068-0.1307373
		v0.0001221c1.4376373,3.6593323,5.0969543,7.9723206,10.0634003,12.4158325
		C238.5388489,469.1141357,234.4297791,472.5162659,229.8413696,475.1636963z M232.0631866,412.6922607h6.5345612
		c-1.3068848,2.6138916-2.352417,4.7049866-3.1366119,6.1426086
		C234.5653229,416.664917,233.4253998,414.6041565,232.0631866,412.6922607z M227.6196747,407.3339539
		c-0.766922-0.7661743-1.5975647-1.4656982-2.4831543-2.0910645l-2.7446442-18.6890259l1.3070221-1.3070068
		c8.0248108,3.460907,15.0398102,8.9021301,20.3880157,15.8137817l0.0001221,0.0001221
		c-0.9149323,2.2216797-1.9603424,4.3127441-2.8752594,6.4039307L227.6196747,407.3339539z M204.0948181,482.351593
		c-4.1886902,0.0102234-8.3613434-0.5168152-12.4158325-1.5683594l-0.2613525-1.8296204l13.3306274-13.1999817
		c1.0935822-0.0168762,2.184967-0.104126,3.2673492-0.2613525l15.0297089,11.2395325v1.9604492
		C217.0264282,481.1322937,210.5894623,482.3753662,204.0948181,482.351593z M223.0453186,484.9654846l-0.3920898,33.7187805
		c-6.0976257,1.3182983-12.3197021,1.9755859-18.5582886,1.9603271c-2.221817,0-4.443634-0.1307373-6.6654358-0.2613525
		l-4.8355865-33.3266907c3.7831421,0.785675,7.637146,1.1798706,11.5010223,1.1762695
		C210.5508881,488.2217407,216.9584198,487.1170654,223.0453186,484.9654846z M180.5700684,456.3436584
		c0.7843018,0.6534729,1.5683594,1.4376526,2.4832764,2.091095l2.7445221,18.5585327l-1.4376221,1.3068848
		c-9.853302-4.2356262-18.1277618-11.4584961-23.6554871-20.6494751l1.0455322-1.4376526l18.8199005,0.1307678
		L180.5700684,456.3436584z M185.1445465,384.9853821c9.9669037-4.0153198,20.9544678-4.7478638,31.3662109-2.091095
		l0.2613525,1.8297424l-13.3306274,13.1999817c-1.0907593-0.0243835-2.1820068,0.0192261-3.267334,0.1306152l-15.0297241-11.2395325
		L185.1445465,384.9853821z M185.1444244,378.5814209l0.2613525-33.5881348
		c6.141983-1.3183594,12.4073181-1.9754944,18.6891632-1.9603577c2.224884-0.0433655,4.4505157,0.0438843,6.6652985,0.2614746
		l4.8355865,33.3266907c-3.7774811-0.8363342-7.6322174-1.2743835-11.5010071-1.3070374
		C197.6477356,375.4228821,191.2558441,376.5249634,185.1444244,378.5814209z M185.7979889,431.7733765
		c0-10.1051636,8.1917725-18.296936,18.2969513-18.296936c10.0865479,0.0448608,18.2520905,8.2105103,18.296936,18.296936
		c0,10.1051636-8.1917725,18.2970886-18.296936,18.2969666C193.9897614,450.070343,185.7979889,441.87854,185.7979889,431.7733765z
		 M197.8215942,465.1001892l-7.3187561,7.3187256l-1.5682373-10.1940002
		C191.7490997,463.591095,194.7401886,464.5587463,197.8215942,465.1001892z M210.3681488,398.4467163l7.3188782-7.1881409
		l1.5682373,10.1941528C216.4226532,400.1014709,213.4393311,399.0924072,210.3681488,398.4467163z M221.2158508,378.0585938
		l-4.9664459-34.2414856c11.0245209,1.5397949,21.6633606,5.1303406,31.3663177,10.5861206l-24.7008972,24.1781921
		C222.3752441,378.3298035,221.8034973,378.1539612,221.2158508,378.0585938z M193.2473602,399.6229858
		c-2.9815979,0.9680481-5.8011627,2.3776855-8.3644104,4.1822815l0.1307373-10.3247375L193.2473602,399.6229858z
		 M177.4334564,410.7318115l-18.5583038,2.7446289l-1.3070068-1.3070068
		c4.1940918-9.9131775,11.4237671-18.2409973,20.6494904-23.7861023l1.5683746,1.1762695l-0.1307526,18.8199158v-0.0001526
		C178.8712006,409.0328369,178.2176361,409.9476318,177.4334564,410.7318115z M171.8136749,442.6209717
		c1.0759735,2.9361267,2.4788513,5.7418823,4.1822815,8.3644104l-10.3247528-0.1307373L171.8136749,442.6209717z
		 M170.7681427,425.5003052l-7.3187561-7.3188782l10.1940155-1.5682373
		C172.3146973,419.4427185,171.3487701,422.4287415,170.7681427,425.5003052z M170.1147003,432.5575867
		c0.1307373,1.0455322,0.1307373,2.0911865,0.2613525,3.1367188l-11.2395477,15.1603394l-1.8297119-0.1306152
		c-4.0153046-9.9669189-4.7478638-20.9545898-2.0910797-31.366333l1.6989899-0.2614746L170.1147003,432.5575867z
		 M179.7860107,380.93396c-0.5476074,0.208374-1.0730286,0.4710693-1.5683746,0.7840576l-27.7067719-20.6494751
		c8.8462067-6.7865601,18.9197083-11.8012085,29.6672363-14.7682495L179.7860107,380.93396z M173.120697,384.5934143
		c-8.6334076,5.70578-15.5468903,13.6585083-19.996048,23.0018921l-23.6016388-23.9928589
		c-0.0171356,0.026001-0.0366058,0.0501709-0.0537262,0.0761414v-0.1308594l0.0537262,0.054718
		c4.6686249-7.1022339,10.2764435-13.5408325,16.6749725-19.1357117L173.120697,384.5934143z M150.9029541,412.9536133
		c-0.1307373,0.6534424-0.3920898,1.1761475-0.5228271,1.6989746l-34.2206345,4.9633789
		c-0.0059128,0.0447388-0.0150375,0.0889587-0.0209503,0.1338196v-0.1307373l0.0209503-0.0030823
		c1.4696655-11.0369568,5.0548019-21.6870117,10.5652771-31.3632507L150.9029541,412.9536133z M148.8117676,420.2724915
		c-0.7856598,3.7831421-1.1798553,7.637146-1.1761475,11.5010071c0.0333862,6.45401,1.1374512,12.8578186,3.267334,18.9504089
		l-33.7188721-0.2613525c-1.2540283-6.1519775-1.9104309-12.4107666-1.9602127-18.6891785h-0.0001221
		c0-2.2216797,0.1306152-4.4434814,0.2613525-6.6651611L148.8117676,420.2724915z M153.124649,456.082428
		c0.2613525,0.5227356,0.5227051,1.0454407,0.9147949,1.6990051l-20.6494904,27.7067566
		c-6.761795-8.8616028-11.7738342-18.9300537-14.7682495-29.6672363L153.124649,456.082428z M156.9147034,462.7476196
		c5.6684418,8.6661987,13.6313934,15.5885315,23.0020447,19.9960632l-24.0475769,23.6554871
		c-7.0925293-4.6812134-13.5123749-10.3094788-19.081131-16.7286987L156.9147034,462.7476196z M185.2751617,484.9654846
		c0.5227051,0.2613525,1.1761475,0.3920898,1.6989746,0.6534424l4.9663391,34.1108704
		c-11.0170135-1.4940796-21.6562195-5.0405273-31.366333-10.4553833L185.2751617,484.9654846z M214.9425049,464.0545044
		c2.906189-1.0498352,5.6716614-2.4544373,8.233551-4.1821289v10.3247375L214.9425049,464.0545044z M228.2731323,380.8032227
		l24.0474548-23.5247498c0.3344116,0.1733704,0.6424713,0.3933411,0.9147949,0.6534424
		c0.1307373,2.3525696,0.1307373,4.5741272,0.1307373,6.9266663c0,9.2792053-3.0059967,20.1268005-6.6653137,29.9287109
		C241.5432434,388.9533691,235.2798767,384.2001953,228.2731323,380.8032227z M252.9740295,348.3913574
		c-42.1985016-24.6702271-96.1766357-13.9144287-125.6959991,25.0464172
		c-32.205101,42.5054321-23.8549805,103.070282,18.6504669,135.275238s103.0702667,23.8548584,135.275238-18.6505737
		c4.1821594,1.9604492,8.3642883,3.6594238,12.5464478,5.2276611
		c-20.5932922,29.1021118-54.0293884,46.4002686-89.6808777,46.3960571
		c-60.6669769-0.007019-109.8416748-49.1931763-109.8345261-109.8601379
		c0.007019-60.6671143,49.1930618-109.8416748,109.8601608-109.8346558
		c17.054245-0.0628662,33.8854675,3.8764343,49.140564,11.5010071
		C252.825058,338.4477234,252.7378082,343.42453,252.9740295,348.3913574z M241.0811615,450.5931702
		c-3.4720154-4.3200378-3.9883118-10.3100891-1.3070068-15.1604614c1.4376221-3.0058899,6.2733307-6.4039612,8.2336731-4.3128967
		c1.9603271,2.2218323,2.8752441,5.8812561,4.4434967,7.9723206c1.3068848,1.6990051,3.1365967,1.9604797,4.4436035,3.9208069
		c1.4376526,1.9603271,2.6138,5.4891357,4.3128967,6.9266663c1.3068848,1.0456543,3.0058594,1.4377441,4.1821289,2.7446289
		c0.9148254,1.0455322,1.0454407,2.4831543,1.9603577,3.267334c0.7840576,0.7840576,2.2216797,0.9148254,3.1365967,1.6990051
		c1.5682373,1.4376221,2.7445068,4.8355713,4.8356018,5.4890137c1.0455322,0.2614746,2.8752441-0.9147949,3.7901611-0.3919678
		c1.7157288,1.0141296,3.2236023,2.3445435,4.443512,3.9208069c1.4376221,1.5683594,2.7445068,3.3980713,4.3128662,4.9663086
		c1.3068848,1.4376526,2.4831848,3.6594543,4.1821594,4.5743713c1.3068848,0.6534424,3.5286865-1.0455322,4.4434814-0.2614746
		c1.3070068,1.0455322,1.8297424,3.6594238,3.1366272,4.3128662c1.8297119,1.176178,4.3128662,0.1306152,5.2277832,1.9603577
		h0.0002441c1.3069153,2.2218018,3.3979797,7.3188782,5.4890442,10.1940002
		C283.1642151,487.971344,259.3781128,470.9811707,241.0811615,450.5931702z M382.2292786,203.8450317h59.3345642
		c140.7562866,0,175.1283569-36.2019196,198.2611694-56.9820251c1.9603271-1.8297272,3.267334-1.3068848,2.2216797,0.6534424
		c-18.296936,33.5880127-64.6928711,71.4890442-170.8156128,71.4890442h-82.9899292
		c-81.6830444,0-113.31073,29.2751312-129.9086914,59.2038269c-4.4900818-1.6930542-9.0714722-3.1329041-13.7227173-4.3128662
		C253.7582092,245.9280701,288.9145813,203.8450317,382.2292786,203.8450317z M65.7709351,371.5288086
		c33.4680023-76.4897461,122.6063385-111.3657837,199.0960693-77.8977966
		c-1.6989746,3.2673645-3.1365967,6.4039612-4.4436035,9.4098206c-3.2371521-1.4138489-6.521759-2.7035828-9.8536835-3.8693848
		c-0.0001221,0-0.0002441,0-0.0002441,0c-73.3421631-25.6596985-153.5990601,12.9945679-179.258606,86.3367615
		c-2.4831619-3.528717,0.3920898-8.4950256-3.136734-11.3703003v-0.0001221
		c-1.4376297-1.3068848-2.7445145,2.0910645-4.0514069,1.3070068
		C64.6538086,374.1316223,65.203125,372.826355,65.7709351,371.5288086z M206.3013458,582.7084961
		c-83.3230133,1.190979-151.835144-65.3901367-153.0260773-148.7131653
		c0.7841835,1.4376221,2.4831619,4.4434814,4.3128815,4.4434814c1.6989822,0,2.2218094-2.6137695,3.5287018-2.6137695
		c1.1761513,0,2.2218094,1.8297119,3.6594391,1.8297119c1.1761475,0,1.4376221-1.3070068,2.0910721-1.3070068
		c0.2613525,0,0.5227051,0.1307373,0.9147949,0.1307373c2.7446442,0,3.1366119-3.267334,5.3584213-3.267334
		c3.7901764,0,0.914917,6.9267883,6.0118637,6.9267883c6.4038315,0,5.3584137-9.0178833,8.8871155-14.3762817
		c-0.1307373,1.9603271-0.1307373,4.0513916-0.1307373,6.1425781
		c-0.0018463,38.4649048,19.0344238,74.4372559,50.8394241,96.0703125
		c53.0552063,36.086853,125.319046,22.3312378,161.405777-30.7238464
		c9.8020325,2.8752441,18.9505005,3.9206543,26.0079041,2.2216797h0.0001221c0,0-14.3761597-14.506897-15.2910767-24.5701599
		c10.6000366,5.5306702,21.664093,10.1225281,33.0653076,13.7227173
		C321.122406,544.786438,266.9134827,581.8422852,206.3013458,582.7084961z M368.2452087,483.1357727
		c-43.5206604,1.0455322-83.1206665-24.3088074-111.6117554-58.0275574c-0.3919678-0.5228271-0.5227051-2.091217,0.5228271-2.091217
		c5.0970764,0.3920898,9.0178833,3.6594543,13.4613647,5.7505188c4.8356018,2.2219238,10.3246155,8.8872375,15.2910767,4.9664612
		c1.0455322-0.7841797,0.3920898-2.3525696,1.5683594-2.091095c6.5344543,1.6990051,11.1088257,7.3187561,15.8136597,12.0237427
		c4.0515442,4.0515137,6.2732239,9.8019104,11.5010376,12.2850647c2.352417,1.1763,4.0515137-4.0513916,5.8811035-2.4831543
		c3.4694519,3.5560608,7.134552,6.9157104,10.9782104,10.063385c1.6990967,1.3069153,2.7446289-2.6138916,3.5286865-3.0059814
		c1.8297119-0.9147949,6.1426086,3.3980713,8.2336731,5.2276917c2.925415,2.5090332,5.9790955,4.8646545,9.148468,7.0574036
		c1.6989746,1.0455322,3.1367493-1.4376526,4.7049866-0.7842102c2.5097656,1.2655029,5.0834961,2.3996277,7.7108459,3.3981018
		h0.0001221c1.6989746,0.3920898,3.267334,4.0515137,4.7049561,5.7506409
		C371.381958,483.26651,369.290741,483.1357727,368.2452087,483.1357727z M417.9083557,457.6506958
		c1.8297424,1.4376221,2.7446594,3.7901611,2.091095,3.9207764c-26.9227295,6.0119934-75.409729-0.3920898-106.776062-20.2573853
		c-2.0910645-1.3069153-5.0970459-1.6988831-5.3583984-4.443512c0.0791016-0.4922791,0.3071899-0.9484253,0.6534424-1.3070068
		c4.3128662-2.2216797,9.2792053,0.914917,13.8534546-0.5227051c1.4376221-0.5228271,2.6138916-3.2673645,3.9207764-3.1367493
		c3.267334,0,6.796051,1.1763,9.8020325-1.0455322c2.2218323-1.5682373,5.4890442-0.5227051,7.7108459,0.6535645
		c3.1367493,1.4376526,8.1030579,8.233551,11.8931274,7.4494934c1.1762695-0.2614746,7.5802307-1.5683594,8.6257629-0.914917
		c6.1424866,3.6594543,15.944519,10.8475952,22.740448,11.2396851c1.3070068,0.1306152,2.0911865-3.920929,3.7901611-3.006012
		c4.1821594,2.091095,6.796051,5.2276917,10.1940002,5.7505188c1.1762695,0.2613525,3.1366272-1.4376221,4.3128967-1.3070068
		v0.0001221c2.4831543,0.3919678,3.9207764,2.2218018,6.795929,4.1821289
		C414.1392517,455.6791382,416.0612793,456.5965271,417.9083557,457.6506958z M478.5499573,429.6824341
		c-49.5326538,12.8078003-90.9622498,3.2672424-116.5780945-5.3583984c-1.1762695-0.2615051-0.9147949-1.8297424-0.6534424-2.091217
		c2.8752747-1.4376221,6.2732239-0.6534424,9.1484985-1.8295898c1.5683594-0.6534424,1.9603271-2.7446289,3.267334-3.6594238
		c1.8297119-1.0454407,5.881134-0.9148254,7.5801086-1.9603577c2.4831543-1.4376221,3.267334-3.267334,5.7505188-4.7049561
		c2.352417-1.4376221,5.0970459,0.7841797,8.4950256,0.1307373c6.6652832-1.4376221,11.5010071,4.4436035,17.774231,6.4039612
		c2.4831543,0.6534424,4.7049561-1.5683899,6.9267883-1.1763c2.4831543,0.3920898,4.4434814,2.7445374,7.0574036,3.528717
		c1.8113403,0.5854187,3.7793274,0.4449463,5.4890137-0.3920898c3.006012-1.4376221,5.8812561,2.4831543,9.1485901,1.6989746
		c1.0455627-0.2613525,1.0455627-2.4831543,2.3524475-2.6137695c5.3583984-0.3920898,8.7563782,5.0969238,13.9841614,5.0969238
		c0.5227356,0,1.0454407-1.0455322,1.5682678-1.3068848c2.8752441-1.0455322,5.3583984,1.3068848,8.7565002,0.3920898
		c4.0515137-1.1762695,7.7108459,1.9603271,10.4554749,5.0969543
		C480.3796692,428.3754272,479.9875793,429.1596069,478.5499573,429.6824341z M435.6827393,407.9873962
		c-15.0949097-0.2020569-30.1072693-2.2651672-44.6970825-6.1425781c-1.4375-0.3920898,2.4831543-3.3979797,4.5743713-4.0514221
		c6.9266663-2.4831543,14.5068665-3.0059814,21.4335327-5.4891357c1.5683899-0.5227356,2.6139221-2.7445374,3.7901917-3.9208069
		c2.7445068-2.8753662,7.7108459-3.7901611,11.3701477-4.9664612c11.3703003-3.3979492,23.3940125,0.5228271,35.5484924,2.2218323
		c4.7150574,0.5545959,9.387146,1.427887,13.9841614,2.6138916c1.2860718,0.0531006,2.454834-0.7437744,2.8752747-1.9603271
		c0.2613525-1.5683594,0.2613525-3.528717,1.6989746-3.528717c3.7900391-0.1307373,8.1029358,1.4376526,11.500885,0.1306152
		c4.443634-1.8297119,9.4099731-0.5227051,14.1149292-1.1761475c1.3069153-0.2614746,0.3919983-2.0911865,1.5682678-2.3525391
		c4.8356934-1.1762695,9.9327393,1.1762695,14.3762817-0.9147949h0.0001221
		c3.267334-1.5683594,10.5860596,3.0058594,12.1542969,4.8355713
		C514.8826294,397.0092163,480.6410217,407.9873962,435.6827393,407.9873962z M593.9517822,329.1795044
		c2.8752441,0.7841797,8.1029053,1.8297119,7.1881104,2.4831543
		c-44.1742554,36.3326416-101.2869873,43.2594299-154.4789734,43.782135
		c-5.2276917-6.9266357-13.9841919-9.9326477-21.5644226-14.2455139c-0.3919678-0.2614746-0.3919678-2.3525696,0-2.4831848
		c6.2733459-3.1365967,13.2000122-1.9604492,19.9960632-3.0059814c2.4831543-0.3920898,3.267334-4.0514221,5.6197815-4.8356018
		c7.8415833-2.352417,15.5525208-5.4891357,23.9168396-5.0970459c6.9985962,0.5659485,14.023468,0.7404175,21.0415649,0.5228271
		c1.9604492,0,1.1763916-4.3128967,3.1366272-4.5742493c7.8415833-1.4376221,15.1604614,1.5682373,23.1326294,0
		c1.5683594-0.2614746,1.9603271-3.3980713,2.6138916-3.7901611c8.6256714-3.3979797,18.6890869-0.5227051,27.8375244-3.6593323
		c-0.9147949-0.7841797-2.352417-2.0910645-1.4375-2.8752441c1.5682373-1.1762695,4.3128662-0.5228271,6.0118408-0.3920898
		c3.5287476,0.3920898,7.7108765,0.9147949,11.239563-1.6989746c2.352417-1.6990051,6.1425781,0.9147949,8.887146,0
		c2.8752441-1.0455322,5.619751-2.7445374,8.6256104-1.8297424
		C588.4022217,328.308075,591.1593018,328.8769836,593.9517822,329.1795044z M632.1138916,281.3459473
		c-33.8494873,28.2297058-83.1206665,52.6692505-151.3423767,51.3623657
		c-3.2672119-0.1307373-5.4890137-5.8812561-8.8869934-7.9723206c-2.7446289-1.5683594-6.9267883-1.0455322-10.4554749-1.5683594
		c-1.4376221-0.2613525-1.5683594-2.8752441-0.6534424-3.1366272c5.619751-1.8297119,11.6316223-1.1761475,17.6434937-2.2218018
		c2.7446289-0.3920898,3.0059814-3.9207764,4.8357239-4.8355713c7.9721985-3.528717,16.859314-2.2218323,25.4850769-3.1366272
		c2.0911865-0.1307373,1.0455322-4.0515137,2.4831543-4.7049561c3.1367493-1.4376526,6.5346985,1.1761475,9.9326477,1.9603271
		c3.0059814,0.7841797,3.1367188-3.9208069,4.7049561-3.528717c6.1426392,1.8297424,8.6257935,0.3920898,13.0692749-3.1365967
		c0.7841797-0.7841797,2.7445068-0.1307373,4.0515747,0.2613525c1.4375,0.3920898,3.6593018,1.1762695,4.4434814-0.6534424
		c4.5742188-11.500885,16.9901733-0.3920898,24.1781616-2.6138916c1.8297119-0.6534424-1.1762695-3.7900696,0.2613525-4.7048645
		c4.9663696-3.267334,10.9783325,1.0455322,16.0752563-1.3070068c1.8297119-0.9147949,0-3.9208069,1.0455322-5.0969543
		c1.6989746-1.8297119,4.5742798,0.6534424,6.7960815-0.3920898c1.7044067-0.7697449,3.5079956-1.2976379,5.3583984-1.5683594
		c5.8812866-0.1307373,9.9328003-2.8752441,15.5525513-3.7900391c0.914917-0.2613525,1.5683594-1.6990051,2.4831543-1.9603577
		c4.3604736-0.5655823,8.7871094-0.3442688,13.0692749,0.6534424h-0.0001221
		C632.8980713,279.7775574,633.5516357,280.1696777,632.1138916,281.3459473z"/>
</g>
</svg>
