<?xml version="1.0" encoding="utf-8"?>
<!-- Generator: Adobe Illustrator 22.0.1, SVG Export Plug-In . SVG Version: 6.00 Build 0)  -->
<svg version="1.1" id="Layer_1" xmlns="http://www.w3.org/2000/svg" xmlns:xlink="http://www.w3.org/1999/xlink" x="0px" y="0px"
	 width="720px" height="720px" viewBox="0 0 720 720" style="enable-background:new 0 0 720 720;" xml:space="preserve">
<style type="text/css">
	.st0{fill:#FFFFFF;}
	.st1{fill:#D14520;}
	.st2{fill:#00205B;}
</style>
<g>
	<path class="st0" d="M359.9999695,36C181.0606232,36,36.0623093,181.1230011,36.0623093,359.9376526
		C36.0623093,538.8770142,181.0606232,684,359.9999695,684s323.9376526-144.998291,323.9376526-323.9376526
		C684.062439,181.1230011,538.93927,36,359.9999695,36z"/>
	<path class="st1" d="M412.2842102,164.4020691c0,24.9567108-20.5892334,49.289444-52.2842407,49.4142609
		c-31.5701904,0-52.2841492-24.45755-52.2841492-49.4142609c0-36.5615005,31.8197327-56.0277328,52.2841492-107.1888504
		C380.589325,108.2495193,412.2842102,127.8405685,412.2842102,164.4020691z"/>
	<path class="st2" d="M378.0935364,51.5979271c36.9359741,58.0242348,53.6569214,79.3621521,53.6569214,111.8058319
		c0,38.9324646-32.6932068,70.502655-71.7504883,70.502655c-38.9323425,0-71.7503662-31.5701904-71.7503662-70.502533
		c0-32.4436798,16.7209167-53.781723,53.6567688-111.805954C179.8127899,60.8318863,51.0363808,195.3484039,51.0363808,359.9376526
		c0,170.7037048,138.3847046,308.9635925,308.9635925,308.9635925c170.7037048,0,308.9637146-138.3847046,308.9637146-308.9635925
		C669.088501,195.3484039,540.3119507,60.8318863,378.0935364,51.5979271z M359.9999695,640.8250122
		c-155.1056519,0-280.8873901-125.7816162-280.8873901-280.8873596c0-130.1490631,88.4714203-239.5840607,208.6378632-271.5285645
		c-6.3639832,7.9861298-27.5772095,37.1853561-27.5772095,74.8699951c0,54.4055634,44.7972717,98.7035675,99.8267212,98.7035675
		s99.8266907-44.2980042,99.8266907-98.7035675c0-37.684639-21.2132263-66.8838654-27.577179-74.8699951
		c120.1664124,31.944519,208.6378479,141.3795166,208.6378479,271.5285645
		C640.8873291,515.043396,515.1057129,640.8250122,359.9999695,640.8250122z M418.6481628,604.5128784
		c0,19.5910645-22.2113953,23.9585571-22.2113953,23.9585571c-11.8544312,1.7469482-23.9585266,2.7451782-36.3119812,2.7451782
		c-10.1074524,0-20.0900879-0.6239014-29.8232117-1.8717041c2.994812-1.9966431,9.48349-7.4871216,9.48349-19.8405762V437.4281311
		c4.6169739,0,8.4852905-3.7434998,8.4852905-8.4852905v-94.9602051c0-8.3604736-6.7383118-14.973938-14.9739685-14.973938
		v-41.6776428h85.2269592v68.1316833h-20.0900879v-14.8492432c0-6.488678-5.2409363-11.7296448-11.7296143-11.7296448
		c-6.4886475,0-11.7296143,5.2409668-11.7296143,11.7296448v23.7088623h23.3345337v30.4471741h-23.3345337v41.0536804
		c0,6.4887695,5.2409668,11.7296143,11.7296143,11.7296143c6.488678,0,11.7296143-5.2408447,11.7296143-11.7296143v-32.1940613
		h20.0900879l0.1248169-0.0001221V604.5128784z M333.2963867,609.3795166c0,20.3397217-20.2149048,17.2200928-20.2149048,17.2200928
		c-22.0867004-4.2426147-43.050293-11.6049194-62.3916931-21.4627075
		c3.2443237-1.2478638,10.1074524-5.3656616,10.1074524-17.8439941V437.428009c4.6169739,0,8.4852905-3.7434998,8.4852905-8.4851685
		V327.6186523c0-4.7416687-3.7434998-8.6099548-8.4852905-8.6099548v-41.6776428h43.7989502v41.6776428
		c-4.6169739,0-8.4852905,3.8682861-8.4852905,8.6099548v101.4490051c0,4.6169739,3.7434998,8.4851685,8.4852905,8.4851685
		c4.6169739,0,8.4852905-3.7434998,8.4852905-8.4851685v-35.4385071h20.2149048V609.3795166z M239.3345032,599.022583
		c-16.5962372-9.6083374-31.8198242-21.2132568-45.2964325-34.4401855
		c5.6152954-0.2496948,16.5962372-3.6188354,16.5962372-24.9567261V437.5528259
		c4.6169739,0,8.4852905-3.7434998,8.4852905-8.4851685V327.7434998c0-4.6170044-3.7434845-8.4852905-8.4852905-8.4852905
		v-41.6776428h43.7989655v41.6776428c-4.6169891,0-8.4852905,3.7434692-8.4852905,8.4852905v101.3241577
		c0,4.6169739,3.7434845,8.4851685,8.4852905,8.4851685v149.8648987
		C254.4332733,604.8873901,239.3345032,599.1472778,239.3345032,599.022583z M566.017334,345.462738v-17.8440857
		c0-4.7416687-3.8682861-8.6099548-8.6099854-8.6099548c-4.7418213,0-8.6101074,3.8681641-8.6101074,8.6099548V348.45755
		c0,3.2443237,1.9966431,7.6117859,4.4923096,9.8578186l35.0640259,31.4454956
		c2.3709717,2.1211853,4.3674316,6.6134644,4.3674316,9.8577881v8.9844666
		c0,62.7660217-27.2026978,119.4177551-70.7521362,159.8475647V393.6291504h20.2149048V425.5737
		c0,6.4886475,5.2409058,11.8544312,11.8544312,11.8544312c6.4887695,0,11.8544312-5.2409668,11.8544312-11.8544312v-13.6014404
		c0-3.2443237-1.996521-7.7364807-4.3674927-9.8578186l-35.0641479-31.4454956
		c-2.3708496-2.1213074-4.3673096-6.6134644-4.3673096-9.8577881V299.54245c0-12.2287598,9.982605-22.2113953,22.2113647-22.2113953
		h26.2045288c12.2288208,0,22.2114258,9.9826355,22.2114258,22.2113953v45.9202881H566.017334z M204.27034,539.6256714V299.54245
		c0-12.2287598-9.9826355-22.2113953-22.2114105-22.2113953h-32.4436798c-12.228775,0-22.2114029,9.9826355-22.2114029,22.2113953
		v109.1854858c0,54.6550903,20.589241,104.6932068,54.7799149,143.3761292
		C188.6724091,560.8388672,204.27034,563.3345337,204.27034,539.6256714z M177.5667725,425.8233337
		c0,6.4886475-5.2409515,11.7296143-11.7297363,11.7296143c-6.4886627,0-11.7296295-5.2409668-11.7296295-11.7296143v-94.9602051
		c0-6.4888,5.2409668-11.7296143,11.7296295-11.7296143c6.4887848,0,11.7297363,5.2408142,11.7297363,11.7296143V425.8233337z
		 M507.1195984,428.9428406v-49.6637878c0-8.48526-9.6083069-12.4782715-9.6083069-12.4782715
		s9.6083069-3.8683167,9.6083069-12.3536072v-54.7799072c0-12.2287598-9.9826355-22.2113953-22.2114258-22.2113953h-60.0208435
		v41.6776428c4.7417908,0,8.6101074,3.8682861,8.6101074,8.4852905v101.3240356
		c0,4.7417908-3.8683167,8.4852905-8.6101074,8.4852905v167.2096863c0,8.6099854-3.493866,15.2236328-8.2356567,19.965271
		c15.7227478-3.7434692,30.946228-8.984436,45.1716003-15.7225952c0,0,10.2322998-4.9914551,10.2322998-23.7088623V437.5528259
		c-6.6136169,0-11.9792786-5.3656616-11.9792786-11.979126V388.513031c0-5.1161499,4.1178284-9.2339783,9.2339783-9.2339783
		c5.1161194,0,9.2339478,4.1178284,9.2339478,9.2339783v198.7798767c0,5.6151733-0.7486572,10.3569946-1.9964905,14.2252808
		c11.8543091-6.6134644,23.0848999-14.2252808,33.5666809-22.7105713c0,0,5.490448-4.6169434,5.490448-26.3293457V437.428009
		C510.987915,437.5528259,507.1195984,433.6845093,507.1195984,428.9428406z M480.4158936,344.3395996
		c0,5.6152954-4.492157,10.1074524-10.1074524,10.1074524c-5.6151733,0-10.1074524-4.492157-10.1074524-10.1074524v-15.0987549
		c0-5.6151733,4.4922791-10.1074524,10.1074524-10.1074524c5.6152954,0,10.1074524,4.4922791,10.1074524,10.1074524V344.3395996z"/>
</g>
</svg>
