<?xml version="1.0" encoding="utf-8"?>
<!-- Generator: Adobe Illustrator 22.0.1, SVG Export Plug-In . SVG Version: 6.00 Build 0)  -->
<svg version="1.1" id="Layer_1" xmlns="http://www.w3.org/2000/svg" xmlns:xlink="http://www.w3.org/1999/xlink" x="0px" y="0px"
	 width="720px" height="720px" viewBox="0 0 720 720" style="enable-background:new 0 0 720 720;" xml:space="preserve">
<style type="text/css">
	.st0{fill:#FFFFFF;}
	.st1{fill:#CC0000;}
</style>
<g>
	<path class="st0" d="M562.2752686,36.0029907L537.8081055,36c0,0,34.5455322,34.7286987,34.5455322,47.2716064
		c-0.0033569,2.8363647-2.3051147,5.1331177-5.1414795,5.1303101h-87.9832153
		c-2.8359375,0.001709-5.1370239-2.2944336-5.1414795-5.1303101C474.0875244,70.7297363,508.6329956,36,508.6329956,36
		c-33.5300293,0-81.6074829,7.4945068-115.0078125,31.2325439c-9.4331665-0.9472656-18.8960571-1.4214478-28.3885498-1.4225464
		C209.9842529,65.8960571,84.1970215,191.8227539,84.2830811,347.0751953
		c0.0164185,29.6776123,4.7322998,59.1654053,13.9724731,87.3679199
		c-20.7734375,25.3883667-55.1022339,77.3690796-55.1022339,143.6331787C43.1533203,635.3432617,71.4516602,684,71.4516602,684
		s50.3880615-73.7758179,163.3121948-73.7758179c5.4064941,0.0497437,10.1008301-3.7133179,11.2286377-9.0011597
		c140.5507813,65.8251343,307.8515015,5.2479858,373.6765747-135.3028564
		c38.382019-81.9539185,34.9478149-177.376709-9.2261963-256.3594971
		c31.1060181-9.5579834,66.4036865-34.305542,66.4036865-83.8633423h0.0001221
		C676.8466797,36.0029907,575.8701172,36.0029907,562.2752686,36.0029907z"/>
	<path d="M562.7055664,47.5678101c0,0,21.2391968,20.480835,21.2391968,35.692627
		c0,8.0797729-6.0283813,16.7092896-22.9230347,16.7092896h-76.1217651c-17.1152954,0-27.3284302-5.8826904-27.3284302-15.7443848
		c0-16.161499,25.4147949-35.0335083,25.4147949-35.0335083s-51.5241089,3.1022949-86.0139771,30.1208496
		c-10.5321045-1.2583618-21.1287231-1.9006958-31.7357788-1.9237671
		C216.434082,77.4171143,95.8286743,198.0681763,95.8568726,346.8706665
		c0.0093384,49.3363037,13.5650635,97.7229004,39.1888428,139.8831787
		c-4.2002563,2.369751-8.9485474,3.5964966-13.7710571,3.5579834c-18.862854,0-18.9742432-41.81427-18.9742432-41.81427
		s-47.5733032,55.4689331-47.5733032,129.5776978c0,45.6303711,19.2779541,84.881958,19.2779541,84.881958
		s53.3830566-64.3150635,160.758728-64.3150635c0,0-50.9246826-20.4585571-50.9246826-45.1596069
		c0.2852783-2.053772,0.9459229-4.0375366,1.9490356-5.8522949c110.8936768,99.1394653,281.1591797,89.6106567,380.2985229-21.28302
		c80.5105591-90.0560913,91.2131958-222.7015381,26.1828003-324.5007935
		c25.9807129-4.1461792,72.99823-21.9033813,72.99823-76.1491089h0.000061
		C665.2677612,69.9976807,614.1496582,45.6420288,562.7055664,47.5678101z M124.1907959,346.7758789l-0.0020142,0.0008545
		c-0.0006714-133.1279297,107.9189453-241.0507202,241.046875-241.0539551c3.1286621,0,6.2157593,0.1194458,9.30896,0.2338867
		c-5.3820801,10.8216553-8.1077881,22.7701416-7.9511719,34.8552856c0,61.9244995,68.6404419,62.5269775,68.6404419,62.5269775
		l-33.4894409,88.4772949l-58.1873779-73.6937866c-20.6620483-26.1578979-42.0653076-31.6567993-56.3840942-31.6567993
		c-29.2277832,0-51.8804932,20.6984863-67.3200684,61.5113525l-74.6345215,197.2321167
		C131.3328247,414.2523193,124.1661987,380.7041626,124.1907959,346.7758789z M160.3603516,473.7493286
		c-2.1105957-3.3925171-4.1345825-6.8366699-6.0719604-10.3325195v-0.000061
		c21.2550049-7.0162354,43.4632568-10.7194214,65.8448486-10.9795532
		c21.7559204,0.2350464,43.4085693,3.0291748,64.5114136,8.3247681l29.6439819-78.3026733l28.1008911,51.0036621
		l-25.4794312,26.6489868c-15.4882202,16.2121582-54.1191406,6.0790405-96.7767944,6.0790405
		C190.5227051,466.190979,172.522522,469.5352783,160.3603516,473.7493286z M606.2885132,346.7767944l0.0001221-0.000061
		c0.0390015,133.0869751-107.817627,241.0068359-240.9046021,241.0458374
		c-54.3563232,0.0159302-107.1213989-18.3459473-149.7249146-52.1031494
		c39.7052002,1.7272949,61.4122314,27.3911133,117.3345947,27.3911133c82.1359863,0,130.2509155-49.7825317,147.8907471-96.3960571
		l91.8164673-242.6425781C594.7405396,261.2033691,606.3449097,303.5970459,606.2885132,346.7767944z"/>
	<path class="st1" d="M585.5952148,59.4697876l-0.000061-0.000061c6.1969604,6.3897095,9.7409668,14.8912964,9.9174194,23.7907104
		c0,14.4676514-11.2670898,28.2913208-34.4898071,28.2913208h-76.1228027c-29.5791626,0-38.9002686-15.1115723-38.9002686-27.326416
		c-0.1958618-6.9104004,2.2849121-13.6294556,6.9244385-18.7545776c0,0-74.7619629,14.5698242-74.7619629,75.3411255
		c0,51.1140137,57.1546021,50.9591064,57.1546021,50.9591064h16.6677856L405.3325806,315.039856l-70.8577271-89.7479248
		c-4.4013672-5.5687256-21.6311035-27.2524414-47.3009644-27.2524414c-35.6896362,0-51.2052002,40.0413208-56.4985352,54.026001
		l-75.2946167,198.9633789c20.9127808-6.7846069,42.7677612-10.2155151,64.753479-10.1654663
		c19.2680054,0.078064,38.4741211,2.1859131,57.300415,6.2886353l34.8969116-92.2144775l44.2836914,80.3823242
		l-31.3469849,32.7928467c-20.6206665,21.5733032-63.6761475,9.6430054-105.1339722,9.6430054
		c-77.4015503,0-69.9272461,24.1177368-98.8604736,24.1177368c-20.4949951,0-25.8086548-24.8821411-25.8086548-24.8821411
		S66.2980957,525.34021,66.2980957,578.0762939c0.3526611,21.9769287,4.4170532,43.7362061,12.0214233,64.3585815
		c0,0,60.317688-51.3428955,121.0797119-51.3428955c0,0-27.1278687-13.0167236-27.1278687-37.609314
		c0-6.9933472,9.2825317-29.4182129,39.1837158-29.4182129c46.3067017,0,65.593811,27.4813232,121.5394897,27.4813232
		c78.2875366,0,121.7733765-48.5038452,137.0753174-88.9197388l102.4852905-270.8538818
		c0,0,81.1468506,0.1538696,81.1468506-66.0747681C653.7020264,64.9352417,585.5952148,59.4697876,585.5952148,59.4697876z"/>
</g>
</svg>
