<?xml version="1.0" encoding="utf-8"?>
<!-- Generator: Adobe Illustrator 22.0.1, SVG Export Plug-In . SVG Version: 6.00 Build 0)  -->
<svg version="1.1" id="Layer_1" xmlns="http://www.w3.org/2000/svg" xmlns:xlink="http://www.w3.org/1999/xlink" x="0px" y="0px"
	 width="720px" height="720px" viewBox="0 0 720 720" style="enable-background:new 0 0 720 720;" xml:space="preserve">
<style type="text/css">
	.st0{fill:#FFFFFF;}
	.st1{fill:#F26924;}
	.st2{fill:#00468B;}
</style>
<g>
	<path class="st0" d="M360.0010071,47.4265137C181.0527649,47.4265137,36,187.3725128,36,360.0068359
		c0,172.6265869,145.0536346,312.5666504,324.0019531,312.5666504C538.9404907,672.5734863,684,532.6333618,684,360.0068359
		c0-172.6353302-145.0594482-312.5803223-324-312.5803223H360.0010071z"/>
	<path class="st1" d="M360.0010071,70.4563446c-166.2090302,0-300.9388733,129.6359406-300.9388733,289.5504761
		c0,159.9038086,134.7299194,289.5407104,300.9398804,289.5407104c166.1962891,0,300.9350586-129.6369019,300.9350586-289.5407104
		C660.9370728,200.0922852,526.1983643,70.4563446,360.0010071,70.4563446z"/>
	<path class="st2" d="M641.796814,342.8082581v0.0011902c-26.5024414,9.2961731-59.5003052,20.1392517-85.0756226,28.9247742
		c-8.6115723-1.4019775-14.5026245,3.4205017-20.6134644,7.4646301c-9.1124268,3.9373169-20.5945435,2.3578186-29.584198,6.1830444
		c-8.3808289,6.9273682-20.7909851,9.8537903-31.0784912,5.4641418c-2.7643433-3.1492004-6.4019775-6.9646606-10.7525635-5.9653015
		c-6.8374329,0.6777649-8.2654724,13.0713501-16.7285156,6.6119995c-5.2227478,2.7515869-9.7905273,6.5756226-15.5623474,7.9684143
		l-8.6914368,2.151062l-3.2693176,6.9702454l-2.9811707,6.3336182l-1.9954529,4.2538757l-2.9752502,6.3345032l-1.9957275,4.2597961
		l-2.9879761,6.3345032l-2.002533,4.2568359l-2.9693298,6.3374634l-23.9333801,50.9562073
		c-1.4996033,3.1903381-4.3710327,5.5233154-7.8006897,6.3374634l-38.5821533,9.1955872
		c0.1946716,0.1665649,0.3615112,0.3629761,0.4940491,0.5822144l25.5294495,53.010498v-48.3989868
		c-0.0041504-1.3286133,1.069458-2.4093018,2.3980713-2.4134521c0.0990906-0.0003052,0.1979065,0.0056152,0.2961426,0.0174561
		l13.8538208,1.6339111c1.2150269,0.1375732,2.1321411,1.1674194,2.1282654,2.3900757v87.536438
		c-0.0002747,1.2759399-0.9972534,2.3291626-2.2708435,2.4001465l-15.4451599,0.9200439
		c-0.9534912,0.0562134-1.849884-0.4570313-2.2838745-1.3079224l-30.2072449-58.8985596v56.1049805
		c-0.0029602,1.3359985-1.0886841,2.416687-2.4247131,2.4137573c-0.1038208-0.0003052-0.2073669-0.0070801-0.3103333-0.0206909
		l-13.8538513-1.8987427c-1.1966553-0.1644897-2.0874329-1.1889648-2.0832825-2.3971558v-85.9146118l-16.1759033,3.8562622
		l12.8157654,81.1900635c0.1603394,1.0543823-0.5641785,2.0391846-1.6182556,2.1998291
		c-0.2976074,0.0452881-0.6014404,0.0204468-0.8875122-0.0724487l-15.526825-5.053833
		c-0.6913757-0.2218628-1.1969604-0.8165283-1.3052368-1.5344849l-2.9293823-18.3979492l-20.3170471-6.6217651
		l-3.8302307,15.1522827c-0.2615356,1.0324707-1.3108826,1.6572876-2.3433533,1.3954468
		c-0.0408173-0.0103149-0.0810547-0.0218506-0.1210022-0.0349121l-14.8549652-4.8233643
		c-0.969162-0.3109131-1.52742-1.3238525-1.272995-2.3093262l13.2825928-51.815918l-12.8684082,3.0720215
		c-2.342453,0.5496826-4.6869812-0.9038086-5.2366486-3.2462158c-0.0257416-0.1098022-0.0473328-0.2210083-0.0644989-0.3325806
		l-7.9071808-51.8871765c-0.3594513-2.3702698,1.2703247-4.5831604,3.6405945-4.9429016l0.0576782-0.0085754l129.7014923-17.8556519
		c3.8109741-0.5200806,7.112854-2.9030762,8.8077087-6.3561096l8.2204895-16.6894531l3.0935669-6.2789001l2.0747375-4.2156982
		l3.0864868-6.2827454l2.0806274-4.2080078l3.0847168-6.2797852l0.8304138-1.6800537
		c-6.0336304-0.3810425-14.8901672,4.1766357-19.3990479,5.1887207c-6.8513489,2.0767822-17.2190247-1.4280396-19.7167969,7.6092529
		c-4.5059204,3.116394-10.2975464,3.697113-15.332428,1.5374756c-5.581604-8.5657043-15.3259583-1.427124-21.7796936-1.3176575
		c-10.2747803,1.5629272-18.4399414-7.0054626-28.0239258-2.1119995
		c-12.3927002,7.4675903-27.1861572-6.4983826-37.6162415,5.2904968
		c-6.6472168,0.5038147-12.8840942-2.6453857-20.0292053-2.1480713
		c-10.4712219-0.0322571-19.5093994,3.2625122-29.2667694,5.0100098
		c-11.0241394,7.2545776-26.1761322,3.7527161-38.8762054,2.8161011
		c-6.3921967,2.5805969-14.3061829,1.8634949-21.2403564,2.0412903v69.6550293c0,4.1154175-2.1256104,5.2680054-5.4398956,0.4943237
		l-13.2364273-19.0180054v-49.9512329c5.6978607-1.5220947,12.7169418,0.4227295,18.6763229-1.1801147v-18.9008484
		l-18.6763229-16.4022217v36.4822998c-4.3251724-2.2448425-7.9619217,3.2876587-11.9666901,5.0011597
		c-4.005661,1.8977966-7.5231934-1.3931274-9.2159805-4.6790161c-0.1230698-1.8519287-1.2709274-3.47995-2.9743652-4.2177734
		c-3.0657806,0.065094-6.0833435,0.775116-8.8565369,2.0835876c-1.3253555-4.8635864-2.5042801-9.7635498-3.5370483-14.699646
		c2.6619568-1.6732483,5.9105682-3.9266663,4.9768982-6.9285583c-1.7661591-3.6432495-6.5827179-3.2947388-7.8193207-7.6844177
		c0.5236359-4.3603516,1.8022461-10.0804138,6.9900818-11.1137695c3.8465042-3.6405945,3.35215-10.9664612,2.163475-16.0016479
		c-3.4755173-4.5381775-8.1758118-8.2266846-6.2720871-14.6481628c0-1.723877-1.7599487-3.8308411,0.0156784-5.4064636
		c4.2021027-1.7123108,8.3722458,2.254303,11.3406982,5.0774841c2.783844,0.5712585,3.5048065-2.6131592,4.676918-4.1799011
		c0.7748032-2.1259155-0.3203964-4.4775391-2.4462967-5.2523499c-0.161232-0.0585632-0.3257141-0.1073914-0.4928665-0.1452332
		c-1.5836258,0.4425659-3.2258301-0.4822388-3.6687012-2.0655518c-0.052063-0.1860962-0.0857925-0.3771973-0.1008759-0.5697937
		c0.7014313-2.9364929,1.6771088-5.7271423,5.0325165-6.5466309c3.4977036-0.946991,7.2374039-0.1777954,10.0774612,2.072937
		c3.4657593,3.1433105,3.1042404,8.1882324,6.6090469,10.8209229c4.5059204-4.1730957,1.0744858-12.7199097,6.3238525-16.7119446
		c7.4870911-3.2947693,14.7641449-8.8666077,23.8502502-7.4450989c2.4516144,4.7257385,0.8079376,13.4503174,8.637619,13.8020935
		c2.1442413-1.8969421,2.3152313-6.7966309,6.3276978-4.8615417c3.5136871,1.4309692,3.2879639,7.5027771,7.4637299,6.6439514
		c4.2186584-7.8258362-3.7849731-14.2931519-2.7584076-21.7607422c5.6165009-3.6787415,13.0624847-0.5070496,17.0518646,3.8562622
		c1.7865753,3.6473999-5.2227325,5.7209473-0.3780823,8.7275696c6.9871368-2.6158142,10.1197662,5.4212341,16.2794342,3.8535767
		c3.9627686-7.2897644,12.4832306-8.1592407,19.6091003-6.2203064c10.4780273-0.1396179,16.5536804,15.5555115,27.5035706,9.3343201
		c5.9718018-4.0115662,17.5713654,1.5667725,19.3863373-7.9814453c-0.5254211-4.0541687,1.9105225-7.9080811,5.7981567-9.1730652
		c5.888092-1.796051,11.4303284,10.4223938,16.3465881,1.2144165c9.1671448,3.682312,19.9744568,3.5308228,30.059021,5.1455078
		c15.5132141,8.2207947,35.916626,7.0643616,53.4264526,7.6063232c15.2232971,8.0879517,36.8642273-3.4429626,54.2870789-0.6739197
		l8.1494751-16.5643311l-68.2660522-147.0370483v136.7107849c-0.0014648,2.3957214-1.9424744,4.3378906-4.3378906,4.3408508
		h-66.3827515c-1.5244446,0.000885-2.9373779-0.7984619-3.7216492-2.1057739l-43.5827026-72.6879578v70.4528809
		c-0.0003052,2.3957214-1.9412994,4.3381958-4.3367157,4.3408508h-59.1769867
		c-2.3968811,0.0011902-4.3408356-1.9410095-4.3420258-4.3378906V151.7184143
		C117.1664505,201.4315186,77.5772629,276.2705078,77.5772629,360.0057068
		c0,149.662323,126.4339371,270.9865417,282.423645,270.9865417c155.9770508,0,282.4189453-121.3254089,282.4189453-270.9865417
		C642.4198608,354.2232361,642.1707764,348.4990234,641.796814,342.8082581z M194.9454956,488.204895
		c0,3.2625122-2.0356598,5.9691467-6.195755,2.2193909l-9.8283691-8.8373108
		c-1.7525482-1.3792114-2.7376862-3.5148621-2.649231-5.7434082v-3.7790527
		c0.0355072-2.0392151-0.778656-4.0015259-2.2474976-5.4165344l-5.2354584-4.7062073
		c-3.2175446-2.901001-3.9376221,1.1174011-3.9376221,1.1174011v2.7740784
		c0.0562134,1.9992676,0.6952209,3.9385071,1.8383484,5.5795288l20.551651,26.7376404
		c4.7517548,6.1531372,7.4471588,13.6452637,7.7039337,21.4151917v16.0389404
		c0,13.9671021-5.8626404,19.8552246-12.64534,13.8059082l-27.9266205-25.1522217
		c-4.7047272-4.3077393-7.6279144-10.2194824-8.1953278-16.5732422v-14.5540771
		c0-4.7511902,0.9259796-6.2357178,2.7779236-4.4541626l12.1974487,11.1472168
		c1.9433594,1.6043396,3.2539368,3.8468018,3.6979828,6.3276978v3.2163696c0,2.5838623-0.1902161,5.5718384,1.695755,7.0193481
		l5.277771,4.5089111c1.9436646,1.7504883,4.4482269,2.0093384,4.4482269-0.8301392v-3.5332031
		c0.0671692-2.0764771-0.6046906-4.1091919-1.8960266-5.7366028l-24.4099731-31.8778381
		c-2.5036926-2.9146118-3.851532-6.6460266-3.7882233-10.487793v-25.0898132c0-6.0348206,7.2732086-14.2807617,17.7133636-4.8772278
		l26.9672089,24.2733154c2.7773438,2.7246704,4.2630463,6.5031433,4.0858307,10.3901672V488.204895z M237.6069794,580.8966064
		c-0.0044403,1.3345337-1.0898743,2.4128418-2.424408,2.4084473c-0.4289703-0.0015259-0.8496399-0.1168823-1.2191467-0.3345947
		l-29.819397-17.6849976c-0.7319031-0.437561-1.1795044-1.2280273-1.1789246-2.0806274v-87.2254944
		c0.0017853-1.3315735,1.0824738-2.4096069,2.4140472-2.4078369c0.4316406,0.0006104,0.8549805,0.1168518,1.2262573,0.3369751
		l13.8470459,8.2109985c0.7330933,0.4319458,1.1827698,1.2197571,1.1818695,2.0708923v73.737854l14.7937317,8.7619019
		c0.7319031,0.4393311,1.1795197,1.2307129,1.1789246,2.0844727V580.8966064z M446.8435974,584.7723999
		c0,2.3933105,0,13.6340332-18.6763306,16.9639893l-37.8428345,6.7634888
		c-1.3167725,0.2307739-2.5714417-0.6499634-2.8021851-1.9667358c-0.0233765-0.1343384-0.0354919-0.2706909-0.036377-0.4071045
		V519.038147c-0.0026855-1.1535034,0.8120728-2.1472168,1.9439392-2.3705444l38.7374573-7.7167053
		c18.6763306-3.7136536,18.6763306,7.471405,18.6763306,7.471405V584.7723999z M415.1888123,458.3473511v-0.0011902v-22.0178223
		c0-7.4069214,17.7745972-13.4142456,39.7007141-13.4142456c21.9249268,0,39.7025146,6.0073242,39.7025146,13.4133606v22.0198975
		c0,7.4089661-17.7775879,13.4074097-39.7025146,13.4074097
		C432.9634094,471.7547607,415.1888123,465.7572327,415.1888123,458.3473511z M495.765625,536.1645508
		c0.00177,0.7609253-0.4472961,1.4508057-1.1440125,1.7572632l-17.8293457,8.0320435
		c-0.6937256,0.3097534-1.1386719,1.0005493-1.1339417,1.7602539v16.5957031
		c0.0029602,0.6520386,0.3331299,1.2590942,0.8789368,1.6155396c0.5476074,0.3603516,1.2428284,0.4118042,1.8374634,0.1358032
		l14.6673889-6.6051636c0.9866333-0.4281006,2.133606,0.0248413,2.561676,1.0114746
		c0.1038513,0.2393188,0.1585693,0.4972534,0.1606445,0.7584839v12.3867798
		c0.0003052,0.7603149-0.4476013,1.4490356-1.1428223,1.7573242l-34.9164124,15.7202759
		c-0.9679871,0.4393311-2.1090393,0.0109253-2.5483398-0.9573364c-0.1148071-0.2532349-0.1736755-0.5283813-0.1719055-0.8067627
		v-87.7138977c-0.0011597-0.7342834,0.4168396-1.4049377,1.0762634-1.7279968l34.9193726-17.0929871
		c0.9629517-0.4671326,2.122345-0.065094,2.5894775,0.8978577c0.1266174,0.2609253,0.1931763,0.5469971,0.1943665,0.8369141
		v12.8518677v0.000885c-0.0011902,0.7366333-0.421875,1.4084778-1.084259,1.730957l-17.9494324,8.7852173
		c-0.6620789,0.3215942-1.0798035,0.9957886-1.0727234,1.731842v17.7355347
		c-0.0023499,1.0609131,0.8558655,1.9226685,1.9164734,1.925354c0.2955322,0.0006104,0.5869446-0.0668945,0.8519897-0.1973267
		l14.5541077-7.1187744c0.59552-0.2967529,1.3025818-0.2626953,1.8667603,0.0899048
		c0.5700684,0.3520508,0.9173889,0.973938,0.9182739,1.6439819V536.1645508z M552.8530884,535.3190308
		c-0.0328369,0.0257568-0.0668335,0.050293-0.1014404,0.0736694l-0.0003052-0.0008545l-10.8519897,7.3648682
		c-0.8460693,0.5765991-1.9954224,0.3887329-2.6140137-0.4268799l-16.2528076-21.2598877l-3.0622559,2.1256104v33.4366455
		c-0.0032349,0.6401978-0.3209839,1.237793-0.8496094,1.598999l-14.8180237,10.052002
		c-0.5904846,0.406189-1.3581848,0.449707-1.9906921,0.1124268c-0.6280518-0.3375244-1.0209351-0.9916382-1.0235901-1.7046509
		v-86.7293396c-0.0020752-0.6363525,0.3109131-1.2324829,0.8360291-1.5921936l29.1152954-20.0904541
		c8.8985596-6.1342163,16.6865234-5.0002747,16.6865234,7.1803284v22.9887695
		c-0.0805054,8.895874-4.0766602,17.3045044-10.923584,22.9848938l16.1882935,21.1954346
		C553.8406372,533.4647217,553.6894531,534.6693726,552.8530884,535.3190308z M585.4720459,491.057373l-17.7817383,23.4819336
		c-7.3746948,9.7061768-14.605835,6.9800415-14.605835-7.0155334v-7.7977295
		c-0.1730957-1.9835815,0.5860596-3.9352417,2.0542603-5.280426l11.8602295-12.2060242
		c2.0317993-2.0513306,3.3757935-2.0540161,3.3757935,1.1653137v3.8574524c0,4.5245667,3.526123,0.9102783,5.0546875-0.607666
		c1.7880859-1.4735718,2.687439-3.7666016,2.3776855-6.0629272v-2.2575378c0-2.3900757-1.8578491-3.3113403-5.1768799-4.0535889
		l-10.2819214-2.309021c-8.0106812-1.6800842-9.263855-7.2226257-9.263855-13.4115601v-8.8272705
		c0-6.6341858,1.0880737-12.3847046,5.9075928-17.8068237l18.8150635-20.7528381
		c6.8637695-7.5935974,14.9674072-8.7210388,14.9674072,3.0962524v11.4031372
		c0.2067871,2.4702454-0.5269165,4.9274902-2.0543213,6.8797302l-10.8812866,11.252533
		c-1.2531738,1.2963562-2.0317993,0.4659424-2.0317993-0.9298401v-6.8344727c0-3.3719482-1.3146973-3.3787537-3.149231-1.5111389
		l-1.7415771,1.7924805c-1.8188477,2.1918945-2.7285156,4.9976196-2.5415649,7.8397522v4.7538452
		c0,2.971405,0.8399048,5.1224365,3.9500732,5.6685486l8.6757813,1.5120544
		c4.1085815,0.7168274,9.7739258,3.4500732,9.7739258,10.09729
		C593.3067017,475.0782166,590.7243652,483.8711548,585.4720459,491.057373z M428.1672668,534.2753296v43.2620239
		c0,0,0,8.2139893-7.2643127,9.5189209l-14.7348633,2.6323853v-58.5829468l13.879303-2.7655029v0.0011597
		C428.1672668,526.7199097,428.1672668,534.2753296,428.1672668,534.2753296z M461.1098633,321.979126l79.8582153-169.9909058
		c54.1210938,43.4037323,91.0018311,105.8666077,99.5128784,176.6478882l-6.0212402,2.0318298
		c-3.5748901,13.4053345-19.0014648,4.5029602-25.5137329,14.0413818
		c-8.3095703,0.4689331-17.3702393,1.1886902-21.7432861,9.5482178c-2.649231,0.8233337-6.4732666,0.8233337-7.4841309-2.4646301
		c1.7797241-7.6844177-10.769165-10.333374-4.9837036-18.5150757c-0.3428955-3.4684448-4.5547485-3.8210754-7.1773682-2.7906799
		c-5.5366211,2.0454407-5.9594116,8.0048218-6.6149902,12.8332214c-7.548584,1.3889465-8.1873169-11.8252869-16.3826904-8.7139282
		c-8.1314087,8.1166382-19.7507935,11.6859131-31.036438,9.5343018
		c-21.3859253-1.6507874-28.4363708,26.191803-46.7319336,32.0514832c-7.838562,1.2268372-19.635437-3.31427-28.175415-6.3374634
		l7.3483276-15.635376c7.6719971-2.0327148,17.8237305-7.485321,21.2433167-11.9755859
		c7.0134583-9.2502747,24.9297791,1.8294678,27.2426453-12.4737549c2.7770386-7.4577942,11.133606-4.67099,16.359314-8.3592224
		c1.5667725-2.745697-1.2043457-4.6798706-1.7404175-7.1051636c6.847168-7.4714355,16.0750122-12.655426,23.3978882-20.297821
		c5.2455444-5.1836853,13.4467773-4.0056763,20.2197266-4.140564c3.1462402-1.8969116,7.7225952-4.686676,8.3944702-8.3340759
		l-0.8937378-1.2502136c-9.7508545-1.1034851-19.6251221,0.0085754-28.8866577,3.2527466
		c-9.4316406,8.7165833-20.6791382,15.2330322-32.9324951,19.0795288
		C490.2065125,312.9681702,473.2454529,317.8131104,461.1098633,321.979126z M300.088501,197.3308868l-45.8731232-88.6020279
		c88.9951935-34.45401,189.2029877-23.3224792,268.4674683,29.8226547l-50.0314331,101.5932007l-60.0529785-129.365387
		c-0.709137-1.5351105-2.245697-2.5178909-3.9367371-2.5181885H304.4352417c-2.4007263,0-4.3467407,1.9460297-4.3467407,4.3467636
		V197.3308868z M266.2211304,558.1705322l7.7069092-30.4075317l5.5138245,34.7122803L266.2211304,558.1705322z
		 M531.2402954,482.5354309v8.9864197c-0.0668945,3.242981-1.552002,6.2936707-4.0633545,8.3468018l-4.1932373,2.9030762
		c-0.5922852,0.4023438-1.357605,0.4476013-1.9927979,0.1171265c-0.6298218-0.3357544-1.0223999-0.9919434-1.0206299-1.7055054
		v-15.4137878c-0.0026245-0.6336975,0.3068237-1.2280273,0.8272095-1.5889587l6.0785522-4.192627
		C529.3051758,478.3078918,531.2402954,479.9486084,531.2402954,482.5354309z"/>
	<path class="st0" d="M392.8056335,402.3352356l24.6540527,12.5808411l-1.9954529,4.2538757l-24.7392273-12.6092529
		l0.8301086-1.6800537L392.8056335,402.3352356z M380.3993225,427.545166l25.1034241,12.8104248l2.002533-4.2568359
		l-25.0324097-12.7684021L380.3993225,427.545166z M369.0840759,450.5140991v0.0003052
		c-1.6945801,3.4527283-4.9967346,5.8357239-8.8077087,6.3558044l-129.7011871,17.855957
		c-2.3752899,0.3283997-4.0346527,2.5199585-3.7065735,4.8955383l0.0082855,0.0568237l7.9071808,51.8860474
		c0.3659668,2.3782349,2.5903778,4.0094604,4.9683228,3.6435547c0.1118317-0.0172119,0.2227783-0.0387573,0.3328247-0.0645142
		l12.8681183-3.0720215l7.6678467-29.9385986c0.2606201-1.0259705,1.3022766-1.6472168,2.3288574-1.3892517l25.2128601,6.166748
		c0.7532349,0.1795959,1.322998,0.7973022,1.4407654,1.5626221l2.2584229,14.3248596l16.1755981-3.8565674v-6.4984131
		c-0.0059204-1.3259583,1.0644226-2.4057617,2.3903809-2.4116821c0.102356-0.0003052,0.2047119,0.0059204,0.306488,0.0183411
		l20.0877686,2.377655c0.5413818,0.0733643,1.0375061,0.3416748,1.3948669,0.7550049l38.5833435-9.1955872
		c3.4290771-0.8147278,6.3001709-3.1474304,7.7994995-6.3374634l23.9342651-50.9562073l-25.2303467-12.8684082
		L369.0840759,450.5140991z M247.2028198,309.3583374v-70.453186l43.5827026,72.6879578
		c0.7839661,1.307312,2.1968994,2.1066589,3.7213745,2.1060791h66.3830261
		c2.3957214-0.0029602,4.3361206-1.9454346,4.3370056-4.3408508V172.6472626l68.2672424,147.0364532l-8.1494751,16.562561
		l-29.4516907,59.8100586l24.5478516,12.526123l3.2693176-6.9702454l14.9058533-31.7574463l7.3483276-15.6365662
		l15.1460876-32.2390747l79.8576355-169.9909058c-5.8937378-4.7257385-12.0016479-9.1798859-18.2855225-13.4367065
		l-50.0311279,101.5932007l-0.000885-0.0002899l-60.0520935-129.3642273
		c-0.7085266-1.5356979-2.2454224-2.5196609-3.9367371-2.520256H304.4361267
		c-2.4007263-0.0002899-4.3473511,1.9451447-4.3476257,4.3458786v84.7250595l-45.8731232-88.6011429
		c-26.9950104,10.4443054-52.2407379,24.9410019-74.8682861,42.9907455v157.6378479
		c-0.0005951,2.3966064,1.9421844,4.340271,4.3390656,4.3408508h59.179657
		C245.2618103,313.697113,247.2031097,311.7540588,247.2028198,309.3583374z M385.5605469,417.0484924l24.9327087,12.7157593
		l1.9957275-4.2597961l-24.8486938-12.664856L385.5605469,417.0484924z M454.8895264,422.914978
		c-21.9266968,0-39.7018738,6.0046692-39.7018738,13.4115906s17.775177,13.4112549,39.7018738,13.4112549
		c21.9267273,0,39.7016296-6.0043335,39.7016296-13.4112549S476.8162537,422.914978,454.8895264,422.914978z"/>
</g>
</svg>
