<?xml version="1.0" encoding="utf-8"?>
<!-- Generator: Adobe Illustrator 22.0.1, SVG Export Plug-In . SVG Version: 6.00 Build 0)  -->
<svg version="1.1" id="Layer_1" xmlns="http://www.w3.org/2000/svg" xmlns:xlink="http://www.w3.org/1999/xlink" x="0px" y="0px"
	 width="720px" height="720px" viewBox="0 0 720 720" style="enable-background:new 0 0 720 720;" xml:space="preserve">
<style type="text/css">
	.st0{fill:#D0D3D4;}
</style>
<g>
	<path d="M594.2729492,217.696991l19.4810791-44.2199707l-45.8909912-13.526001
		c-14.0180664-4.1329956-24.2980957-14.9869995-30.6040039-32.2340088l-20.2810059-55.5l-45.249054,37.4509888
		c-11.9859619,9.934021-24.1539917,14.9790039-36.1289673,14.9790039c-16.0270386,0-34.2560425-7.7949829-46.4540405-19.8569946
		l-29.1479492-28.8380127l-29.1450195,28.8380127c-12.1929932,12.0629883-30.4219971,19.8569946-46.4500122,19.8569946
		c-11.9819946,0-24.1359863-5.0449829-36.125-14.9790039l-45.2559814-37.4509888l-20.2810059,55.5
		c-6.302002,17.2470093-16.5969849,28.1010132-30.5939941,32.2340088l-45.901001,13.526001l19.4699707,44.2199707
		c8.9960327,20.40802,13.559021,41.6929932,13.559021,63.2980347c0,59.756958-30.4890137,73.3599854-30.4890137,139.7329712
		c0,95.624054,73.9559937,158.2069397,142.6570435,175.8840637c34.7279663,8.4628906,45.2159424,9.0179443,76.5699463,16.7429199
		c2.559021,2.7459717,31.9850464,34.4279785,31.9850464,34.4279785s29.4259644-31.6820068,31.9769897-34.4279785
		c31.3579712-7.7249756,41.8499756-8.2800293,76.5700073-16.7429199
		C537.25,578.9349365,611.2130127,516.3520508,611.2130127,420.7279968c0-66.3729858-30.4959717-79.9760132-30.4959717-139.7329712
		C580.717041,259.3899841,585.2729492,238.105011,594.2729492,217.696991z"/>
	<path class="st0" d="M573.2130127,280.9950256c0-25.4640503,6.1219482-48.0130005,14.2020264-66.3330078l16.0239258-36.3909912
		l-37.7059326-11.1239014c-16.4071045-4.848999-28.3630371-17.2510986-35.519043-36.8521118l-16.644043-45.5120239
		l-37.0449524,30.6820068c-12.1940308,10.0910034-26.1359863,16.6879883-40.9230347,16.6879883
		c-19.8349609,0-39.4659424-9.8899536-51.7319946-22.0289917l-23.8689575-23.6029663l-23.8519897,23.6029663
		c-12.2770386,12.1390381-31.9040527,22.0289917-51.7440186,22.0289917c-14.8010254,0-28.7349854-6.5969849-40.9180298-16.6879883
		l-37.0599976-30.6820068l-16.6149902,45.5120239c-7.1820068,19.6010132-19.1229858,32.0031128-35.5479736,36.8521118
		l-37.6990356,11.1239014l16.0380249,36.3909912c8.0609741,18.3200073,14.190979,40.867981,14.190979,66.3330078
		c0,62.1379395-30.4879761,74.4919434-30.4879761,139.7329712c0,87.3499756,65.0289917,150.0869446,137.0349731,168.6040344
		c35.5890503,9.0029297,52.1640015,9.8869629,78.697998,17.3120117
		c3.4429932,3.6219482,27.9620361,30.1049805,27.9620361,30.1049805s24.5149536-26.4830322,27.9689941-30.1049805
		c26.5280151-7.4250488,43.1129761-8.309082,78.7130127-17.3120117
		c71.97995-18.5170898,137.019989-81.2540588,137.019989-168.6040344
		C603.7009277,355.486969,573.2130127,343.1329651,573.2130127,280.9950256z M462.4020081,572.5090332
		c-38.1220093,9.6309814-64.4299927,12.0839844-83.7980347,19.0720215
		c-2.4829712,2.3289795-18.6049805,19.802002-18.6049805,19.802002s-16.1110229-17.4730225-18.5969849-19.802002
		c-19.368042-6.9880371-45.684021-9.44104-83.7940063-19.0720215
		c-80.2319946-20.2980957-124.1740112-87.6430359-124.1740112-151.7810364
		c0-58.2390137,30.4329834-76.2299805,30.4329834-139.8789673c0-49.5890503-23.6679688-91.4720459-23.6679688-91.4720459
		s58.1799927-5.0709839,73.9489746-75.8028564c0,0,34.8980103,35.9318848,70.257019,35.9318848
		c45.6029663,0,75.5949707-38.7429199,75.5949707-38.7429199s30.0029907,38.7429199,75.6019897,38.7429199
		c35.3590088,0,70.2540283-35.9318848,70.2540283-35.9318848c15.7719421,70.7318726,73.9670105,75.8028564,73.9670105,75.8028564
		s-23.6760254,41.8829956-23.6760254,91.4720459c0,63.6489868,30.4260254,81.6399536,30.4260254,139.8789673
		C586.5710449,484.8659973,542.6190186,552.2109375,462.4020081,572.5090332z M539.019043,280.8490295
		c0-45.3910522,17.1629639-80.3700562,17.1629639-80.3700562s-39.5930176-7.9879761-58.0379944-58.0998535
		c0,0-26.2790527,24.5119629-62.5430298,24.5119629c-45.4279785,0-75.6019897-31.8969727-75.6019897-31.8969727
		s-30.1640015,31.8969727-75.5949707,31.8969727c-36.2640381,0-62.5430298-24.5119629-62.5430298-24.5119629
		c-18.4400024,50.1109009-58.0380249,58.0998535-58.0380249,58.0998535s17.1590576,34.9790039,17.1590576,80.3700562
		c0,67.3579712-30.4450073,86.8399658-30.4450073,139.8789673c0,74.1339722,57.7789917,121.3319397,111.3369751,134.9430237
		c42.4299927,10.7700195,70.1619873,11.9819336,88.7890015,20.9769287c0,0,6.7719727,6.1920166,9.335022,9.0471191
		c2.5769653-2.8551025,9.3499756-9.0471191,9.3499756-9.0471191c18.6119995-8.9959717,46.3590088-10.2080078,88.7780151-20.9769287
		c53.565979-13.611084,111.3399353-60.8090515,111.3399353-134.9430237
		C569.467041,367.6889954,539.019043,348.2079773,539.019043,280.8490295z M200.4239807,280.8490295
		c0-28.7910156-6.2459717-53.6490479-11.6090088-69.7390137c12.4970093-6.8630371,28.1920166-18.9880371,40.7030029-39.8668823
		c13.4470215,7.513855,32.4890137,15.0968628,54.8870239,15.0968628c33.9309692,0,60.4359741-14.8118896,75.5949707-25.9439087
		c15.15802,11.132019,41.6740112,25.9439087,75.6019897,25.9439087c5.4100342,0,10.6240234-0.4530029,15.6220093-1.2340088
		L173.4839783,393.696991C181.486969,362.3000183,200.4239807,336.3059998,200.4239807,280.8490295z M238.2610168,525.9969482
		c-35.5450439-18.2539368-66.6530151-53.3319397-68.2050171-101.47995l326.0100098-244.822998
		c11.3759766,15.7860107,24.4199524,25.5449829,35.1289368,31.414978
		c-5.3669434,16.0900269-11.6099854,40.947998-11.6099854,69.7390137c0,11.9780273,0.8730469,22.5480347,2.3370361,32.1340332
		L238.2610168,525.9969482z M453.3370056,536.8189697c-33.598999,8.5500488-74.7040405,12.9379883-87.1130371,20.0290527
		c-2.7999878,2.0439453-6.2249756,5.6879883-6.2249756,5.6879883s-3.4240112-3.6430664-6.2180176-5.6879883
		c-12.4159546-7.0900879-53.5219727-11.4790039-87.1199951-20.0290527
		c-1.2739868-0.3220215-2.5299683-0.6719971-3.8009644-1.0300293l264.3990173-198.5629578
		c8.9989014,31.5150146,22.7629395,52.1489868,22.7629395,83.5029907
		C550.0219727,483.6399841,499.9039612,524.9830322,453.3370056,536.8189697z M291.1260071,355.2029724l23.8759766-17.9190063
		v109.473999l-25.2390137,18.94104l-27.1949463-41.6710205v62.1080322l-23.8720093,17.9119873V416.230011
		c0-12.4200439-11.8510132-12.7420044-11.8510132-12.7420044l33.8289795-25.4100342l30.4520264,46.644043V355.2029724z
		 M387.8909607,282.5429993l23.3430176-17.5460205v109.4819946l-23.3430176,17.5310059v-40.0279541l-26.914978,20.1959839
		v40.0429688l-24.5150146,18.4150391v-87.8250122c0-12.427002-11.8499756-12.7630005-11.8499756-12.7630005l36.3660278-27.3049927
		v40.4619751l26.914978-20.2030029L387.8909607,282.5429993z M499.2980042,280.4170227c0,0-1.4570313,10.401001,0,27.9249878
		l-67.6760254,50.8389893v-87.8359985c0-12.4160156-11.8549805-12.7410278-11.8549805-12.7410278l36.3590088-27.2979736v81.5239868
		L499.2980042,280.4170227z"/>
</g>
</svg>
