<?xml version="1.0" encoding="utf-8"?>
<!-- Generator: Adobe Illustrator 22.0.1, SVG Export Plug-In . SVG Version: 6.00 Build 0)  -->
<svg version="1.1" id="Layer_1" xmlns="http://www.w3.org/2000/svg" xmlns:xlink="http://www.w3.org/1999/xlink" x="0px" y="0px"
	 width="720px" height="720px" viewBox="0 0 720 720" style="enable-background:new 0 0 720 720;" xml:space="preserve">
<style type="text/css">
	.st0{fill:#FFFFFF;}
	.st1{fill:#B79257;}
	.st2{fill:#DA1A32;}
</style>
<g>
	<path class="st0" d="M623.5889893,238.1888123C585.4120483,199.8047638,533.59375,178.0926056,479.45755,177.796875
		c4.4157104-19.530777,10.5097961-38.6437225,18.2142639-57.125885l0.1472778-0.3781281
		c2.6955566-6.6404877-0.5024109-14.2088699-7.1429138-16.9044495c-1.4449463-0.5865555-2.9837646-0.9078445-4.5426941-0.9484711
		l-0.3814697-0.0067596c-2.4228516-0.066803-4.9058228-0.1035995-7.3921814-0.1035995
		c-35.6582031,0.0952225-71.0236816,6.441185-104.4903564,18.7497177
		c-45.8051147,17.2337799-82.4444885,45.028717-108.9042053,82.6218262
		c-15.5395203,22.0406494-26.9472198,46.7201233-33.6678162,72.8371735
		c-1.1243744,4.4606934-2.1483612,8.9749451-3.0653076,13.4757996c-1.5058899,0.0267944-3.017334,0.0412903-4.5343323,0.0435181
		c-21.7125092-0.3167114-43.3684235-2.3047791-64.7756805-5.9465027
		c-22.0960846-3.5137024-58.899437-15.8216248-66.803566-18.8132935
		c-5.5247574-2.0881348-11.2806091-4.4238892-17.1434402-6.9671326l-6.6793671-2.9481964L36,241.0432739l19.408947,37.807251
		c5.7653847,12.7255554,12.2810631,25.0976563,19.512661,37.0510254
		c12.2723007,19.6036987,27.9035645,36.8910828,46.1765594,51.0689392l17.6587753,32.7007141
		c8.7877197,16.9365234,19.5900421,32.7489624,32.1719971,47.0934448
		c5.5640106,6.0327759,11.5489807,11.663269,17.9098358,16.8490295c6.715683,5.4920654,13.9332581,10.3399658,21.557312,14.4796753
		l9.1959076,19.9477234c6.765976,12.2392273,15.1853485,23.4883423,25.0208282,33.4302368
		c10.208725,9.5315552,21.8637085,17.3847656,34.5311584,23.267334l1.0909119,0.458374
		c16.8168945,7.1975098,34.9642334,10.762207,53.2541199,10.4608154c5.2805786,0,10.8321838-0.2877808,16.500946-0.8466797
		l0.7194519-0.0736084c4.2766418,5.4378662,6.5053406,9.5003662,6.8132324,12.4016724
		c0.227478,2.0880737-0.5655212,4.0222778-2.1081238,7.5092163c-1.4703674,2.2355347-3.2391052,4.2598267-5.2571411,6.0167847
		l-0.0936584,0.093689c-1.4222412,1.4053955-3.0385132,2.998291-4.6146545,4.7651978l-0.4584351,0.5153809
		c-3.525116,3.9208374-4.316925,9.5891113-2.0011292,14.3258057c2.1885986,4.454834,6.7121277,7.2850952,11.6755066,7.3051147
		c0.2677002,0,0.5387878-0.0067749,0.8197937-0.0200806l0.6827087-0.046875
		c17.9237671-1.7428589,34.4507141-10.4406128,46.0358582-24.2276611c3.5378113-4.3400269,6.6172485-9.0343018,9.1891785-14.0079346
		c107.8773499,36.6278687,225.0219421-21.1312256,261.6498108-129.0085754
		C698.2937622,375.9882813,679.1208496,293.7305603,623.5889893,238.1888123"/>
	<path d="M618.475708,243.30867c-37.2354126-37.43927-87.9017944-58.4253693-140.7047119-58.2803497
		c-2.3358154,0-4.7418823,0.0536194-7.1645813,0.1371918c4.499115-23.0343475,11.3215637-45.5533447,20.3625793-67.211792
		l0.1472168-0.374733c1.1930542-2.9387436-0.2221375-6.2881012-3.1608887-7.4811707
		c-0.6390991-0.2593994-1.3196716-0.401535-2.0092163-0.4196854l-0.394928-0.0067368
		c-2.3624878-0.0669403-4.778595-0.1037827-7.1914063-0.1037827c-34.7875366,0.092926-69.2897339,6.282608-101.9403687,18.2879257
		c-44.4263916,16.7150345-79.9346619,43.6366501-105.5378418,80.0183945
		c-15.0337067,21.3119049-26.0707092,45.1775055-32.5733948,70.4346924
		c-1.6197662,6.4483643-2.9582672,12.7061157-4.0725708,18.7529602l-0.692688,0.0233765
		c-3.2091522,0.140625-6.5220795,0.2142944-9.8417358,0.2142944c-22.0935364-0.3190613-44.1297455-2.3384399-65.9134369-6.0402527
		c-22.6381683-3.5974731-60.1676178-16.1463318-68.2290344-19.1949158
		c-6.3580704-2.4060669-12.987236-5.1199341-19.7335129-8.0915222l-3.0619202-1.3552856l-14.6538696-6.508606l8.4864616,17.5282898
		c5.9667091,13.2161255,12.787632,26.0297241,20.4196053,38.3593445
		c19.7601852,30.856842,44.2589645,53.0600586,74.8850021,67.8743591
		c18.0938263,8.750824,39.0654907,12.605896,49.9511566,14.1183167c9.4837799,1.2402039,19.0263824,1.9774475,28.5881042,2.2086487
		h0.0067444l1.2615204-0.0133362c0.5689697,2.2085571,1.1890869,4.4484253,1.8605957,6.7194824
		c-0.3881989,0-0.7796936,0.0034485-1.1644592,0.0034485c-12.5857086-0.008667-25.1511993-1.0090027-37.5797729-2.9916687
		c-11.0925446-1.6492004-22.0458221-4.1279602-32.7676239-7.4156189c-4.4863434-1.3089294-8.8977661-2.8616333-13.2148743-4.6513062
		l-16.0424194-7.0273743l8.3157349,15.4100647c8.5161438,16.4207153,18.982254,31.7540894,31.1713715,45.6678467
		c5.3283081,5.7705383,11.0570679,11.1582642,17.1433716,16.1228333
		c6.5092926,5.319397,13.5127716,10.0032654,20.9149017,13.9877014
		c19.1237183,10.7556152,40.7377625,16.2982483,62.6774902,16.0726624c0.2944336,0,0.5856018-0.003418,0.8867798-0.0067139
		l3.8482361-0.0368652c1.7100525,2.1952209,3.4501038,4.3770752,5.2203979,6.5253906
		c-2.1081848,0.1371765-4.0959473,0.1975403-6.2477112,0.1975403c-2.9682922,0-6.3580627-0.120575-10.6615601-0.3748779
		c-11.565033-0.6826477-30.6058502-4.8555603-35.8395844-7.3519592l-15.0686188-7.2114563l7.0005951,15.1758423
		c6.4112701,11.4519958,14.3327484,21.9904175,23.5516357,31.3320313
		c9.5511322,8.8752441,20.4267426,16.2079468,32.2356415,21.7346191l1.1210327,0.4685059
		c15.9255676,6.8077393,33.1092224,10.1763306,50.4263611,9.8851929h0.0034485
		c5.0429382,0,10.3502197-0.2745361,15.7780457-0.8165894l4.3336182-0.4350586
		c0.922821,0.8907471,1.7901001,1.8373413,2.5967407,2.8344116c11.5283203,14.5800781,9.2627258,19.8137817,5.7825012,27.6777954
		c-1.7810059,3.0657959-4.0610046,5.8129272-6.7462769,8.1283569l-0.0835876,0.0836182
		c-1.4189148,1.4021606-2.8845825,2.8477173-4.3135376,4.4439697l-0.4584351,0.508606
		c-2.1138306,2.3649902-1.9103699,5.9956055,0.4545898,8.109436c1.0523071,0.9405518,2.414032,1.4606934,3.8254089,1.4612427
		c0.1204224,0,0.2409668,0,0.3648376-0.0067139l0.6826477-0.046875c15.9196472-1.5620117,30.5923767-9.3027344,40.8692017-21.56073
		c4.56427-5.5916748,8.2827148-11.8233032,11.0363159-18.4954834
		c102.8756714,38.7199097,217.661438-13.2885742,256.3813477-116.1642761
		C691.5236206,381.0196228,673.7172241,298.5588684,618.475708,243.30867z M593.3411255,417.5275574l-18.5322266,13.5895996
		l20.3291626-5.6655273l-2.1014404,9.048584l5.8494873,24.6459961c0,0-17.1200562,2.6837463-24.7397461,3.8315735
		c-2.3458862,7.8640137-14.0848999,38.7241821-14.0848999,38.7241821l-2.3490601-1.1611938
		c-1.706604-16.8589478-10.4807739-25.482605-20.5098877-31.9377441c-5.6862793-3.4630432-11.8005371-6.1684875-18.187561-8.0480652
		c-8.3631897-2.5193481-16.9165955-4.3579407-25.5762634-5.4981079c1.2989197-3.3626709,1.297821-7.0888367-0.0034485-10.4507141
		c-1.7710876-3.8059998-4.0975647-7.3280334-6.9035339-10.4507141c10.7017212-1.823761,11.9398804-9.3898926,11.5081177-14.0079041
		c-1.3485413,2.355896-7.0708313,12.0403748-15.5170288,10.1328735
		c-17.3609924-20.4564514-20.3191223-21.5639954-21.9990845-28.1663513
		c-1.0586243-5.4814453,1.2998657-11.0592651,5.9700012-14.1183167c9.0584412-5.62854,14.7138062,0.0835876,23.8763123,11.6086121
		c4.8722229,6.1238098,22.4707336,29.474762,34.045929,42.6026306c8.0281372,9.2044373,17.7665405,16.7631226,28.6749878,22.2565613
		c4.2026367,2.1340027,8.5424194,3.9863586,12.9906616,5.545105l1.4421997-2.3022766
		c-5.5769043-5.7797852-10.3076172-12.3198547-14.0513916-19.4255981
		c-2.6434326-5.2505188-4.6574707-10.7947998-5.999939-16.5177917c-1.8540039-9.2392273-1.8961182-18.7504883-0.1239014-28.0057983
		c0,0-8.1283569,1.3419495-15.6977539-9.8114929c-2.3043823-4.3910828-3.8049316-9.1588135-4.430542-14.0781555
		c-0.4110107-2.6755066-0.6635742-5.3728638-0.7563477-8.078186c13.9108887-12.6893616,32.8479004-35.3911743,40.0961914-37.0744629
		c2.1885986,4.5443726,33.8485718,71.6826172,33.8485718,71.6826172l-7.0943604,3.4066772L593.3411255,417.5275574z
		 M576.5055542,374.6405029l-17.866333-2.282196l-8.6939087,2.7975464l10.1396484-8.3124084l12.1673584-4.2599487
		l0.6491089-1.1679077l2.6939697,1.4724121c0,0-5.2103882,2.2252808-4.2599487,3.6509399
		c0.6989746,1.598999,1.0983276,3.3129272,1.1779175,5.0562744L576.5055542,374.6405029z M588.1914063,403.7358704
		l-14.1914673,8.5923157l0.3535767,0.8581848l23.65979-5.7004395L588.1914063,403.7358704z"/>
	<path class="st1" d="M509.4802856,266.9139099c6.9751587,2.4319153,13.5552368,5.8751526,19.529541,10.2197876
		c-4.9464722,6.649231-8.8580322,14.008606-11.6018677,21.8284912c-0.4484253,1.1108704-0.8834839,2.2286072-1.3186035,3.3363037
		c-0.5698853,1.4501343-1.1376343,2.8779907-1.703186,4.2832947c-3.3900452,8.8188477-6.2923584,17.8173828-8.6939087,26.9550171
		c-0.8935242,3.2226257-1.6564636,5.9432068-2.2721558,7.7669678c-0.0904541,0.2575989-0.1740417,0.5018921-0.2544556,0.7227783
		c-3.9406128-5.20224-10.6569214-7.4729004-16.9459839-5.7290039c-0.4416809,0.1304321-0.8766174,0.274353-1.3049622,0.4483948
		c-0.6058044,0.2442932-1.1879883,0.5153503-1.7469177,0.8030701c-0.2809753,0.1472473-0.5553589,0.2979126-0.8197021,0.4551697
		c-0.7813721,0.4551392-1.5264282,0.9698181-2.2287292,1.5393372c-1.1266785,0.9098816-2.1450195,1.946228-3.0351257,3.0887146
		c-0.3547974,0.4451294-0.6826477,0.9136047-0.9973145,1.3820801c-0.9172974,1.411499-1.6908264,2.9115295-2.309021,4.477417
		c-0.2041321,0.5220947-0.39151,1.0440369-0.5688171,1.5661316c-0.1773376,0.5219727-0.3378906,1.0574036-0.481842,1.5827942
		c-0.62146,2.2730103-1.0401917,4.5967407-1.2514954,6.9436951c-0.0973206,0.9951172-0.1330566,1.9954529-0.1070862,2.9949646
		c0.0133362,0.4953003,0.0401611,0.9838562,0.0870361,1.479126c0.0434265,0.4918518,0.1036377,0.9771118,0.1773376,1.4623718
		c0.3051758,1.9590149,0.8537903,3.872406,1.6329346,5.6954956c3.4267578,8.0413513,9.9220276,12.927002,20.4530334,15.3699341
		c0.7997742,0.1870728,1.6099854,0.3267517,2.4261169,0.4183044c0.8458252,0.0915527,1.6959229,0.1373291,2.5466919,0.1371765
		c1.0109253-0.00177,2.0210266-0.0619812,3.0250854-0.1807556c3.5198364-0.4354858,6.9472656-1.4307556,10.152832-2.9480896
		c3.4056091-1.7234192,6.6173401-3.805603,9.580719-6.2108459c0.6391602-0.4819641,1.2682495-0.9637756,1.9041748-1.4289856
		c0.2014771,7.3228149,2.2307739,14.4790344,5.9030151,20.8177185c1.0081787,1.8052063,2.2830811,3.4477844,3.7815552,4.872345
		c2.289917,2.160553,4.9981689,3.8289795,7.9576416,4.9024658c0.7990723,0.2977295,1.6160278,0.5447693,2.446228,0.739563
		c-0.0803223,0.4316406-0.2107544,1.1544189-0.3345947,2.1248169c-0.0067749,0.050293-0.0167847,0.097168-0.0200806,0.1539612
		c-0.1773071,1.3285828-0.3580933,3.1054688-0.4451294,5.2371521c-0.0401001,0.829895-0.0634766,1.7166748-0.0669556,2.653656
		c-0.0065918,0.9335327,0.0067749,1.9140625,0.046875,2.9380493c0.0235596,0.6425171,0.0536499,1.2950745,0.1005249,1.9710083
		c0,0.0501709,0.0032959,0.0903015,0.0067139,0.1371765c0.0368652,0.6560059,0.09375,1.3218689,0.1572876,2.0045471
		c0.0401001,0.4483948,0.0869751,0.900238,0.140625,1.3587036c0.078064,0.6613464,0.1638184,1.3352051,0.2575684,2.0211487
		c0.0166626,0.1138306,0.0367432,0.2242126,0.0535278,0.3413391c0.097168,0.6593018,0.2041016,1.3251648,0.324646,2.0045166
		c0.230957,1.2849121,0.4985962,2.5967407,0.8164063,3.9352417c0.8323975,3.4484863,1.9241333,6.8290405,3.2660522,10.1128235
		c0.2443237,0.6022339,0.4920044,1.1879883,0.739624,1.7668457c0.3814697,0.9001465,0.7662354,1.7668762,1.151123,2.6235352
		c0.1138306,0.2475891,0.2208862,0.4985962,0.3347168,0.7428894c0.5655518,1.2582092,1.2080688,2.4996643,1.890686,3.7110291
		c2.2296143,3.8659363,4.7770996,7.5395813,7.616333,10.9828491c0.3781738,0.4584351,0.7227783,0.8665771,1.0239868,1.2246704
		c-4.152832-1.9073486-21.4636841-10.731842-30.9573364-21.8851318c-0.1572876-0.1539612-0.3378906-0.3547974-0.5453491-0.5755615
		l-5.7959595-6.833313c-11.2572327-13.6364746-32.315918-40.2167664-32.315918-40.2167664l-4.4706726-5.5582886
		c-11.4411621-14.3927002-27.6242065-5.722168-29.4915466,7.2214966c-0.1227417,1.3778076-0.0912781,2.7651367,0.09375,4.1360779
		c0.0032959,0.0569153,0.0132141,0.113678,0.0200806,0.1740417c0.0233765,0.1839294,0.0401306,0.367981,0.0769958,0.5487366
		c0.1458435,0.8963013,0.3755493,1.776886,0.6859436,2.6302795c1.7535095,5.0931091,5.8728333,9.6876526,11.7490845,15.9320374
		c0.2945862,0.3079224,0.5890198,0.6257629,0.8902283,0.9436951c0.2709351,0.2946167,0.5521851,0.5823059,0.8298645,0.8800659
		l0.2174683,0.2376709c0.4216309,0.4449768,0.8433533,0.8934021,1.271698,1.3485413
		c0.3513794,0.3814697,0.7094727,0.7629395,1.0675659,1.1478577c0.4449768,0.4750671,0.8934021,0.9570313,1.3485413,1.4523315
		c0.7273254,0.7919312,1.4658203,1.6028442,2.215271,2.4328613c0.6425171,0.7226563,1.3018188,1.4556274,1.960968,2.2118225
		c1.0452881,1.2002258,2.1083069,2.4495239,3.189209,3.7480164c1.4355469,1.730011,2.8980408,3.5572205,4.3804932,5.5046997
		c1.2498169,1.5319214,2.3002014,3.2162781,3.1253967,5.01297c0.4181824,1.0032043,0.7060547,2.0557861,0.8566895,3.1321411
		c0.0827637,0.5530396,0.1308899,1.1107483,0.1439514,1.6697998c-0.0079956,1.8611755-0.5655518,3.6784668-1.6029968,5.2237244
		l-0.2610474,0.4819641c-1.0654907,1.8596191-2.3582458,3.5794678-3.8482361,5.1200562
		c-3.0764771,3.1641846-6.3109131,6.1708374-9.6910706,9.0083923c-0.9203186,0.802948-1.8204651,1.5826721-2.6871948,2.3490295
		c-0.4350586,0.3814697-0.8566895,0.7629395-1.2782898,1.1378174c-0.414856,0.3747253-0.8232727,0.7461548-1.224823,1.1210327
		c-0.739563,0.6793518-1.7267151,1.589386-2.8643799,2.630127c-0.2912903,0.2644958-0.57901,0.5288391-0.880188,0.8032227
		c-3.3162231,3.021759-7.5493469,6.806488-10.5811768,9.2895203c0.3847656-1.6597595,0.8065186-3.5437317,1.1076965-5.6888733
		c0.0233765-0.1939697,0.0534973-0.3880615,0.0768433-0.5888977c0.0769958-0.642395,0.1506653-1.2983704,0.1975403-1.9943542
		c0.0635071-0.8600159,0.1036682-1.7601318,0.1070862-2.7038269c0.0010986-0.8991699-0.0300903-1.8372498-0.09375-2.8143311
		c-0.066925-0.9738159-0.1740112-1.9910583-0.3279724-3.048584c-0.1539612-1.0574036-0.3513794-2.1583557-0.6089783-3.299469
		c-0.0636597-0.2978821-0.1506653-0.5956421-0.2376709-0.900116c-0.1137085-0.3916626-0.2475891-0.7931824-0.4015503-1.1980286
		c-0.1338806-0.3479309-0.2844238-0.7027283-0.4484253-1.0641174c-3.0752563-6.7931519-11.0831909-15.3230591-20.1618652-24.9940796
		h-0.0006714c-9.1326904-9.2719421-17.5684204-19.2052307-25.2386169-29.7191772
		c-2.1035156-3.0124207-4.041626-6.1370239-5.8058777-9.3597717c-3.3824768-6.1448669-6.1401978-12.6134644-8.2320251-19.3084717
		c-0.1271362-0.4082947-0.2510071-0.8233032-0.3681335-1.2281189c-0.6123962-2.1384277-1.1410828-4.2198181-1.5493774-6.2477112
		c-0.2988281-1.4534302-0.5487671-2.8812866-0.7496033-4.2834167c-0.4852295-3.3279419-0.7335205-6.6860962-0.7428589-10.0491943
		c-0.0039673-2.4741211,0.1166992-4.9468384,0.3615417-7.4087219c0.6060791-5.5794678,1.6556396-11.1017456,3.1388855-16.5143433
		c1.2376099-4.7603149,2.8443298-9.4169617,4.8052673-13.9276428c4.8794861-11.214325,11.8077698-21.4202271,20.429657-30.0939026
		c0.02005-0.0100403,0.0300903-0.0301208,0.046875-0.046875c6.2247314-6.2753296,13.3354187-11.6047363,21.1055603-15.8182068
		c0.4248962-0.2242126,0.8466492-0.438385,1.2682495-0.6593018c0.8835144-0.4573364,1.7668457-0.900116,2.6503601-1.3284607
		c2.7652588-1.3408508,5.5549927-2.5299377,8.3693237-3.5672607c0.6369019-0.2375183,1.2748718-0.4651794,1.914093-0.6826477
		c10.1040039-3.3596497,20.684082-5.0658875,31.3320618-5.0531006l1.1042786-0.0032959
		c6.3987427-0.0756226,12.7680969,0.8792114,18.8634949,2.8276672
		C508.5199585,266.5926514,508.9983215,266.7466125,509.4802856,266.9139099z M415.3444214,507.4575195
		c3.1898804-7.3988342,7.6765137-14.1677856,13.2482605-19.9878235c-1.4891663-1.526001-2.9382019-3.1054993-4.3803406-4.6915894
		c-5.8978577,6.4649048-10.7454529,13.8146667-14.3660278,21.7813416
		c-3.6765137,8.0184326-5.8854675,16.6310425-6.5220642,25.4291382c-0.1238708,1.4456177-0.2375488,2.6904907-0.4216003,3.8883667
		c-0.1975403,1.2850342-0.3146667,2.9482422-0.4551697,4.8723755c-0.364563,11.5372314-3.3441162,22.8409424-8.7139587,33.0587769
		c-4.7982483,8.947937-12.0843506,16.3152466-20.9783936,21.2126465c3.1724243-5.163208,4.5281067-11.2385254,3.8516541-17.2606201
		c-1.3585815-15.0620117-13.0339966-26.727417-22.5913086-33.8618774
		c-27.8771362-20.4815063-52.204895-45.3981628-72.0138855-73.7572327
		c-18.3882751-26.7475891-30.5958099-54.5357971-36.2812653-82.581604
		c-6.910965-34.2592468-5.7492371-69.6570129,3.393219-103.3894043
		c8.594223-31.9311371,24.5071564-61.4219818,46.4776459-86.1354828
		c42.4855347-47.2306976,105.3003235-72.9508514,181.671051-74.4100571l-0.8834839,2.4933624
		c-4.1092834,11.6252213-8.3558655,23.6521225-11.862915,36.9003983
		c-2.7171326,10.2732544-4.9325562,20.6436768-6.7729492,31.7135468
		c-2.1558533,12.4161987-2.8421021,25.0431366-2.0446472,37.6199036l5.9598389-1.3620148
		c-2.2420654-39.9055481,11.8360901-83.471817,23.9934387-113.2010345l0.1440735-0.3714371l-0.4049988-0.0067368
		c-2.2922363-0.0669403-4.6581421-0.1003494-7.0273743-0.1003494c-34.0976257,0.0885315-67.9157715,6.1536636-99.91922,17.9197922
		c-43.322113,16.3001709-77.9335938,42.52565-102.8640137,77.9469147
		c-14.6256714,20.7371674-25.3653412,43.956955-31.6968842,68.530365
		c-12.5421295,49.9312134-8.3358002,87.802002-4.7149506,105.9226379
		c4.2944336,19.8008728,11.1167297,38.9676208,20.2990417,57.0288391
		c1.8070068,3.5337219,11.0430603,19.7904358,17.1769409,28.688324c6.28302,9.1061707,13.081665,17.8455811,20.3627014,26.1753235
		c6.576355,7.5980225,13.5462952,14.8461609,20.8811951,21.7146912c1.7033386,1.6095581,3.1724548,3.0050049,4.5746155,4.4104614
		c6.8118286,6.5865479,14.0561523,12.7106323,21.6844177,18.3313599
		c6.993866,5.3743286,13.0306702,10.0157471,16.5612183,14.4730835
		c13.7133179,17.3409424,10.3703003,24.8902588,6.4985657,33.6310425c-2.0475464,3.7132568-4.7321167,7.0377197-7.9308167,9.8215332
		c-1.3855286,1.3652954-2.8143616,2.7775269-4.1528625,4.2699585l-0.4551392,0.5153809l0.6859436-0.046875
		c14.3289185-1.4211426,27.5299072-8.4024658,36.7699585-19.4459229
		c6.8648987-8.5634766,11.697937-18.5726318,14.1350708-29.2739258c1.3019409-5.9918823,2.1454468-12.0742188,2.5231934-18.1943359
		c0.344635-3.8883667,0.7094727-7.8973999,1.2481995-11.8427124
		C410.9049377,519.5193481,412.6947632,513.3123169,415.3444214,507.4575195z M555.369873,539.659729l-0.0654297-0.1069336
		l-0.0319214-0.053894l0.0032959,0.0073242l-0.0059204-0.0097656l0.0187378,0.0373535l0.1010132,0.2195435l-0.0078125-0.0331421
		l0.0115356,0.0232544L555.369873,539.659729z M671.0137939,383.9901123c0,0.0067444,0,0.0134888,0,0.0200806h-0.0001221
		c-0.1204224,106.8455505-86.8335571,193.3633423-193.6791077,193.2427979
		c-23.1700439-0.026123-46.1470642-4.2142944-67.8361816-12.3649292c0.9302368-2.7574463,1.6798401-5.4211426,2.3223572-7.9441528
		c1.0441895-4.4151611,1.7601318-8.9014893,2.1417236-13.4223022c3.4425659-1.1176147,6.8084106-2.4590454,10.0759888-4.015686
		c6.3781433-2.8710938,10.5578003-4.8555908,11.2269897-5.1734009
		c83.017334,23.4656982,169.3388062-24.8102722,192.8045654-107.8276062
		c16.1859131-57.2624207-1.5687866-118.7473755-45.7885742-158.566864c-0.0158081-2.103241,0.3050537-4.1956177,0.9504395-6.1975403
		c0.2409668-0.7897339,0.4852905-1.6462708,0.7227783-2.489624c0.2410278-0.8499756,0.4685059-1.6597595,0.6994629-2.4060669
		c11.7959595,11.7959595,18.6626587,9.6140747,18.9036255,9.5003967c0.4456787-0.2636414,0.9547119-0.4012451,1.4724121-0.3982239
		c2.0335083,0.3742981,3.8726807,1.4465332,5.2003174,3.0317993l0.0368652,0.043457l0.043396-0.0469055l-0.043396,0.0401611
		l0.1973877-0.20401l0.2008057-0.2075806v-0.0032959c-0.3413086-0.3881836-3.138855-3.7378235-1.8339233-6.3648071
		c0.1239014-0.2944641,2.9080811-7.3118134-9.5604858-20.5500641l-0.3079224-0.3279877l-0.1738892,0.4217377
		c-0.7373657,2.5609894-0.7582397,5.2751312-0.0603638,7.8472443l0.0435791,0.3245697
		c0.1795654,1.6286926-0.2520752,3.2660522-1.2114868,4.5945129c-0.9700928,1.0096893-2.3375854,1.5378265-3.7344971,1.4423065
		l-1.3450928-0.0936279c-1.9267578-0.6394806-3.9401855-0.9791565-5.9700317-1.0073395l-1.2012939,0.0536041
		c0.2208862-0.5655365,0.4752197-1.1478424,0.7663574-1.7735901c0.548584-1.0965576,0.9815063-2.2471466,1.291748-3.4333496
		l0.78302-0.1239929c1.8851929,0.2532196,3.6535645,1.057663,5.0830688,2.3124542l0.0435791,0.0401459l0.0368652-0.0536194
		l-0.0401611,0.046875l0.1738892-0.2375336l0.1674194-0.2376862c-0.3748779-0.3245544-3.6308594-3.2660522-2.6904907-6.0468445
		c0.0803223-0.307785,1.8672485-7.6464081-12.3079834-19.0375214l-0.3580933-0.2877197l-0.1071167,0.4416809
		c-0.3759766,2.6394806-0.0218506,5.3314667,1.0239868,7.7837219l0.0803223,0.3146667
		c0.4369507,1.674881,0.1774292,3.4553375-0.7193604,4.9358521c-1.1849976,1.3130798-2.9206543,1.9892731-4.6817017,1.823761
		c-1.2241211-0.2166443-2.4644775-0.328537-3.7077637-0.3345947c-1.7625732-0.074234-3.5203247,0.2328644-5.1533203,0.9001312
		l-0.4014893,0.2008362l0.3580933,0.2809753c2.442749,1.9687958,5.0552979,3.7168121,7.8069458,5.2237091l-0.7495728,0.2811279
		c-0.6658936,0.254303-1.3518677,0.5186615-2.0881348,0.7797089c-1.8037109,0.6492462-3.5805664,1.3988495-4.7585449,1.9107666
		c-1.140564,0.5100098-2.2541504,1.0785675-3.3363037,1.7033386
		c-25.0919189-16.0487366-54.2619324-24.5607605-84.0473633-24.5255737c-3.440094,0-6.9135742,0.1171265-10.3670044,0.3413239
		c-0.5465393-12.4528961,0.1879272-24.928894,2.1917725-37.2316895c2.7240295-0.1171265,5.4579468-0.1773376,8.171936-0.1773376
		C584.4950562,190.7580414,671.0110474,277.2697754,671.0137939,383.9901123z M502.7549133,210.6950073
		c0.6425171-9.5137482-28.5445557-1.924118-28.5445557-1.924118S502.1360168,219.8909302,502.7549133,210.6950073z
		 M512.8810425,221.3597565c8.0145264-0.0100403,10.5344238-3.0819855,10.668335-3.2593231l-0.0001221,0.0001373
		c0.8164063-1.2705994,2.2949829-1.9531097,3.7914429-1.7502136c1.1054688,0.0155334,2.2038574,0.1787109,3.2660522,0.48526
		l0.0568848,0.0133362l0.0770264-0.2743835l0.0368042-0.2944641c-0.4752197-0.1472168-4.6380615-1.5225677-4.9058838-4.4507294
		c-0.0534668-0.3178253-1.3786621-7.7467651-18.9437561-12.4518127l-0.438385-0.1171112l0.0769653,0.4451141
		c0.7192383,2.5776215,2.1367798,4.9065704,4.0959473,6.7293701l0.1875,0.2342377
		c1.0723877,1.3598175,1.5513306,3.094635,1.3284912,4.8121338c-0.5571594,1.6791534-1.8746338,2.9966278-3.553772,3.5539093
		c-2.9757385,0.5464325-5.719574,1.9719543-7.8775024,4.0924988l-0.2877197,0.3547974l0.438385,0.1136932
		C504.8020325,220.6858978,508.8282776,221.2783813,512.8810425,221.3597565z M538.4539795,227.8855438
		c5.2672729,0,7.2950439-1.8907166,7.4155884-2.0112762c0.7106934-0.9003906,1.8248901-1.385376,2.9682007-1.2917633
		c1.4521484,0.0637817,2.8787842,0.4044342,4.2030029,1.0039215l0.0535889,0.0233612l0.1204224-0.2643433l0.0737305-0.2811127
		c-0.4484253-0.2141724-4.3837891-2.1483307-4.2533569-5.0830841c-0.0032959-0.3179626-0.2877197-7.8640137-17.0363159-14.9415894
		l-0.4217529-0.1773376l0.0167847,0.4484253c0.3546753,2.648407,1.4338989,5.1475372,3.1188354,7.2214966l0.1572876,0.2643433
		c0.8800659,1.493988,1.1166382,3.2810364,0.6559448,4.9526215c-0.7854614,1.5848541-2.272583,2.7061615-4.0123291,3.0252228
		c-3.0227661,0.1330566-5.9364624,1.1679077-8.3659058,2.9714661l-0.3347168,0.3046112l0.4217529,0.1773376
		C528.0258179,226.4132843,533.1930542,227.6551514,538.4539795,227.8855438z M574.3672485,236.8769073
		c-0.418335-0.2743683-4.0490723-2.7339172-3.507019-5.62854h0.0001221
		c0.0401611-0.3145142,0.7998047-7.8270416-14.8144531-17.150116l-0.3881836-0.2376709l-0.046875,0.4551392
		c-0.0100098,2.6672516,0.7134399,5.2858429,2.0915527,7.5694275l0.1238403,0.2978973
		c0.6669922,1.6000977,0.6538086,3.4026947-0.0368042,4.9927521c-0.9949951,1.4625092-2.6231689,2.3684082-4.3904419,2.4429169
		l-0.7696533-0.0134735c-2.7585449-0.1605682-5.5059204,0.4636688-7.9241943,1.8003845l-0.3748779,0.2543182l0.3881836,0.2342377
		c8.2856445,4.8924255,13.9041138,5.9197083,17.1568604,5.9197083c1.7577515,0.1256409,3.5129395-0.2775574,5.0396118-1.1578827
		c0.6160278-0.6304169,1.4719849-0.9676208,2.352478-0.9269257c1.701416,0.15065,3.3410034,0.710968,4.7786255,1.6330872
		l0.0535889,0.0268097l0.1539307-0.244278L574.3672485,236.8769073z M646.177002,336.4248352
		c-1.4512329-0.0874329-2.8258667-0.680603-3.8850708-1.6765442h-0.0001221
		c-1.8234863-2.4147339-4.3245239-4.2320251-7.1846924-5.2202759l-0.4383545-0.1004944l0.0870361,0.4418335
		c3.7344971,17.7992249,11.0831909,19.5293579,11.4445801,19.5996094c3.185791,0.0602112,4.1796265,5.1434326,4.2834473,5.7423706
		l0.0133057,0.0602112l0.2811279-0.0534668l0.2744141-0.1037903c-0.0770264-0.4885559-0.7094727-4.8320618,1.7901611-6.3781433
		c0.2577515-0.1806335,6.3179932-4.6915894,2.6838989-22.5077209l-0.09375-0.4416809l-0.3646851,0.2676392
		c-1.9813232,1.7904968-3.4308472,4.0922241-4.1895752,6.6526794l-0.1238403,0.2776794
		C650.7380981,333.0248718,649.1519165,336.4248352,646.177002,336.4248352z M617.6660156,284.776947l0.7828369-0.0735474
		l1.0909424-0.2209167c2.5633545,0,4.895752,3.3696899,5.1535034,3.7546082l0.0266113,0.0434265l0.2410278-0.1638489
		l0.2075806-0.2008362c-0.2678223-0.4183044-2.6035156-4.1329041-0.9404297-6.5589294
		c0.1640015-0.274353,3.8884888-6.8400269-6.6257324-21.6778259l-0.2643433-0.367981l-0.227478,0.3948059
		c-1.090271,2.4434509-1.4850464,5.1402588-1.1411133,7.7936096l-0.0067749,0.2945862
		c0,0.2174988-0.1171265,5.3675232-4.7351074,5.3675232c-0.7824707-0.0132141-1.5598755-0.1290894-2.3123169-0.344635
		c-2.3378906-1.2035217-4.9145508-1.8710632-7.5427856-1.9542236c-0.378418-0.0063171-0.756897,0.0193787-1.1310425,0.0769958
		l-0.4450073,0.0837097l0.2643433,0.367981C608.7278442,283.4685364,615.2566528,284.776947,617.6660156,284.776947z
		 M630.5091553,304.948822l0.1640015-0.0100403l0.7228394-0.0935974c2.7340088,0,4.7451782,3.9988708,4.9726563,4.4538879
		l0.0234985,0.046875l0.2576294-0.1238403l0.2409668-0.1773376c-0.2141724-0.4451294-2.0045166-4.4540405-0.0233765-6.6224365
		c0.2007446-0.2475586,4.7954102-6.2409363-3.5739746-22.3838501l-0.2073975-0.4016724l-0.2744141,0.3615417
		c-1.4138184,2.2590942-2.1779785,4.8642273-2.2084961,7.5291443l-0.046875,0.3246765
		c-0.0368652,0.1941223-0.7664185,4.7183838-4.6616211,4.7183838c-1.0421143-0.0346375-2.0664063-0.2793274-3.0117798-0.7194824
		c-2.3991699-1.7756653-5.2521362-2.8359375-8.2286987-3.0584717l-0.5587769,0.0233459l0.2074585,0.3982544
		C622.3374023,304.510437,629.6960449,304.948822,630.5091553,304.948822z M639.9862061,326.6669312l-0.0001221-0.0001221
		l0.3547974-0.0200806c2.9380493,0,4.5109253,4.5744629,4.6915894,5.1166382l0.0167847,0.0602112l0.274353-0.0937805
		l0.2610474-0.133728c-0.1439209-0.4752197-1.3720703-4.6917114,0.8900757-6.5656738
		c0.2342529-0.2174683,5.6085205-5.5214539-0.4483643-22.6615295l-0.1472778-0.4283447l-0.324646,0.3178101
		c-1.7165527,2.0464783-2.835144,4.5267639-3.2325439,7.1680298l-0.0837402,0.3010559
		c-0.0133057,0.0402832-1.2481689,4.0725708-4.6245728,4.0725708c-1.2608643-0.0597839-2.480896-0.4649048-3.5270996-1.1710815
		c-2.1348877-2.1434937-4.8638306-3.5970764-7.8338013-4.1729126l-0.4551392-0.0435791l0.1572266,0.4283447
		C632.0953979,325.9474487,639.618103,326.6434326,639.9862061,326.6669312z M429.1180725,550.0971069
		c0,0,26.1954041,14.9415894,28.0592957,5.588562C458.9743347,546.6471558,429.1180725,550.0971069,429.1180725,550.0971069z
		 M485.671875,557.6033325l-0.0034485-0.2779541l0.0567627,0.2776489v-0.0366821l0.006897,0.0368652l-0.0167847-0.5789185
		l-0.254303,0.003479c-0.9403992,0-5.635437-0.1473999-6.3045959-3.1188354
		c-0.1204224-0.2946167-3.2727966-7.1512451-21.4536438-7.2950439h-0.4550171l0.1873779,0.4082642
		c1.51651,2.5969849,3.7766113,4.6798706,6.4885254,5.9799194c1.4981079,0.9728394,2.4436035,2.6005859,2.5466919,4.3837891
		c-0.2301025,1.7177734-1.1479797,3.2684937-2.5432434,4.2966309l-0.1572571,0.1238403
		c-2.4007263,1.2518921-4.4053955,3.147583-5.7892456,5.4747314l-0.1941223,0.4082642l0.622467,0.0032959
		c18.0403442,0,21.2394409-6.786438,21.3733521-7.0908813C480.8028259,557.857605,485.1800232,557.6166382,485.671875,557.6033325z
		 M509.6919861,554.9932251l0.0067444,0.0031738l-0.0001526-0.0001221l-0.046875-0.274353l0.09375,0.2643433l-0.003418-0.0268555
		l0.0134583,0.0268555l-0.1004944-0.5689697l-0.0562134,0.0067139l-0.0005493-0.0032959
		c-0.6511841,0.0996704-1.30896,0.1488647-1.9676819,0.1473389c-1.8405457,0-4.1696167-0.3948975-4.8991699-2.3425293
		c-0.1204224-0.1973877-3.0317993-4.7852173-14.8377991-4.7852173c-2.4837341,0.0145874-4.9641724,0.1889038-7.4256287,0.5219727
		l-0.4449768,0.0603638l0.2409668,0.3814697c1.8644714,2.3590088,4.3905334,4.1080322,7.2549133,5.0228271
		c1.6168823,0.758728,2.7770996,2.2406006,3.1255493,3.9921875c0.0100403,1.7318115-0.683197,3.3934937-1.9208069,4.6046753
		l-0.2442627,0.2342529c-2.1609802,1.5568237-3.8475342,3.6824341-4.872345,6.140625l-0.137207,0.4350586l0.4484253-0.0603638
		c18.0201416-2.4695435,20.262207-9.6776123,20.3526611-10.0021362
		C504.8999329,555.9234619,509.1832275,555.0802612,509.6919861,554.9932251z M533.1599121,549.0596924l0.0167847,0.0233765
		l-0.1705933-0.5519409l-0.0602417,0.0166016c-1.0931396,0.3270264-2.225708,0.5037231-3.3665161,0.5253906
		c-1.4782104,0.1862793-2.9317627-0.494873-3.7345581-1.750061c-0.1003418-0.1238403-2.5766602-3.0686646-10.2799683-3.0686646
		c-4.1862793,0.0910034-8.3418579,0.7369995-12.3580627,1.9208374l-0.438385,0.1205444l0.2944641,0.3444824
		c2.1734619,2.0820923,4.9205933,3.4655151,7.8873596,3.972229c1.7040405,0.5282593,3.055481,1.835022,3.6408081,3.5203857
		c0.24823,1.7159424-0.2092285,3.4592896-1.2682495,4.8322144l-0.1773682,0.227356
		c-1.937439,1.8482056-3.3270569,4.1955566-4.015625,6.7830811l-0.0735474,0.4484253l0.4383545-0.1238403
		c17.5014648-4.9258423,18.7329102-12.3815918,18.7763672-12.7095337c0.227478-2.9147339,4.3770142-4.34021,4.84552-4.4942017
		l-0.0835571-0.2643433l0.1338501,0.2543335L533.1599121,549.0596924z M555.5539551,539.9877319l0.0166016,0.0234985
		l-0.2475586-0.5388184l-0.0534668,0.0234985v-0.0001831c-1.3411255,0.6305542-2.7930298,0.9910278-4.2734375,1.06073
		c-1.130249,0.0834351-2.2284546-0.399231-2.9314575-1.288208c-2.0795898-1.4475098-4.6052246-2.1103516-7.1277466-1.8706665
		c-5.3555298,0.2470703-10.6080933,1.5598755-15.4501953,3.8616943l-0.418335,0.1806641l0.3380737,0.3012085
		c2.4375,1.7620239,5.3463135,2.7549438,8.3525391,2.8511353c1.7619019,0.2879028,3.2822876,1.395874,4.0959473,2.9849854
		c0.4812622,1.6636963,0.2688599,3.451355-0.5889282,4.9558716l-0.09375,0.1873779
		c-1.6900024,2.1135254-2.7583618,4.6557007-3.0852661,7.3419189l-0.0134888,0.4551392l0.418335-0.184021
		c16.6549683-7.2949219,16.8456421-14.8513184,16.8423462-15.182312c-0.1740723-2.9146729,3.737793-4.9024658,4.1895142-5.1199341
		l-0.1204224-0.2542725l0.1640015,0.2341919L555.5539551,539.9877319z M576.4822998,527.8742676l0.0233765,0.0233154
		l-0.3347168-0.4720459l-0.0357666,0.0220337l-0.0010986-0.0019531c-1.4421387,0.9588013-3.100647,1.5430908-4.8254395,1.6998901
		c-0.8778687,0.0313721-1.729187-0.3044434-2.3490601-0.9269409c-1.4659424-0.8066406-3.1328125-1.1748657-4.802063-1.0606689
		c-3.2728271,0-8.9347534,1.0641479-17.2839966,6.140625l-0.3848267,0.2375488l0.3781738,0.2476807
		c2.3399658,1.2598877,4.9829102,1.8482666,7.6364136,1.6998901l1.0272827-0.0233154
		c1.7852783,0.0413818,3.4451294,0.9265137,4.4742432,2.3858643c0.7084961,1.5819092,0.7446289,3.383667,0.1003418,4.9928589
		l-0.0669556,0.1873779c-1.3827515,2.3297729-2.0905762,4.9979858-2.0446777,7.7067261l0.0536499,0.4484253l0.3848877-0.2376709
		c15.4903564-9.5305176,14.633667-17.0296631,14.5900879-17.3642578c-0.5755615-2.864563,3.0252075-5.3742676,3.4366455-5.6486206
		l-0.1538086-0.2375488l0.1939697,0.2074585L576.4822998,527.8742676z M595.5164185,513.03302l0.0234985,0.0200806
		l-0.3816528-0.4386597l-0.0435791,0.0368042v0.003479c-1.4239502,1.2873535-3.2018433,2.1173706-5.1031494,2.3825073
		c-0.6851196,0.0114136-1.3530273-0.2144165-1.890686-0.6390381c-0.9570313-0.3880615-1.9866333-0.5650024-3.0183105-0.5186768
		c-3.4703369,0-9.4402466,1.4924927-18.1541748,8.6068726l-0.3444824,0.2877197l0.4047852,0.1975708
		c1.5634155,0.6182861,3.2394409,0.901062,4.9192505,0.829834c1.3074341-0.0021973,2.6116943-0.1287842,3.8950806-0.3781738
		h0.1640015c1.7290649-0.1702881,3.4366455,0.4874878,4.6047363,1.7736206
		c0.9071045,1.4647217,1.1870117,3.232666,0.7762451,4.9058838l-0.043457,0.1973877
		c-1.0474854,2.4980469-1.3800049,5.2381592-0.9604492,7.9141846l0.1136475,0.4384155l0.3548584-0.2879028
		c14.0246582-11.5783081,12.140564-18.8901367,12.0502319-19.2113647c-0.967041-2.7574463,2.2486572-5.7390747,2.6168213-6.0703735
		l-0.18396-0.2041626l0.2207642,0.1773682L595.5164185,513.03302z M612.3417969,495.6853333l0.0266724,0.0167847
		l-0.4515381-0.3782959l-0.0368652,0.0435791c-1.3100586,1.618103-3.1537476,2.7167358-5.2003174,3.0986023
		c-0.5211792,0.0007019-1.032959-0.1378784-1.4824829-0.4015198c-0.5375977-0.1499939-1.0950317-0.2177734-1.6530151-0.2007141
		c-2.9449463,0-9.2225952,1.4488831-18.2043457,11.1333618l-0.3044434,0.3345947l0.4249878,0.140625
		c0.8795166,0.2258606,1.7860107,0.3293762,2.6937866,0.3078003c2.0775757-0.0295715,4.1369019-0.3910828,6.1003418-1.0708618
		c1.8265381-0.4953003,3.7793579-0.0090637,5.1602173,1.2850342c0.9664917,1.3123779,1.4144897,2.9354248,1.2582397,4.5578003
		l-0.0401611,0.3280029c-0.6655884,2.5800781-0.6088257,5.2937012,0.1640015,7.843811l0.1773071,0.4217529l0.3045044-0.3347168
		c12.2978516-13.4022522,9.4234619-20.3895264,9.2895508-20.6972961c-1.338501-2.5968933,1.4422607-5.9899597,1.7601318-6.3681335
		l-0.2074585-0.1840515l0.2442627,0.1439209L612.3417969,495.6853333z M626.5939941,476.185791l0.0368652,0.0133362
		l-0.4985962-0.321106l-0.0267944,0.046875c-0.2643433,0.4015198-2.5633545,3.8182373-5.1367188,3.8182373l-1.1109619-0.2207642
		l-0.645813-0.046875c-1.8805542,0-8.6972046,0.9804077-17.5115356,13.616272l-0.2576294,0.3748779l0.4450073,0.0769958
		c0.3312988,0.0483704,0.6658936,0.0695496,1.0006104,0.0635071c2.6573486-0.0893555,5.2591553-0.7852173,7.6062622-2.0346375
		c0.786438-0.2486877,1.6046143-0.3827209,2.4294434-0.3982544c4.5375977,0,4.7216797,5.0865173,4.7250977,5.3039856
		l0.0067139,0.2577515c-0.3131104,2.6709595,0.1189575,5.3764343,1.24823,7.8170166l0.2342529,0.394928l0.2542725-0.3781738
		c10.3235474-14.9716797,6.512085-21.48703,6.3380127-21.7681274c-1.6798096-2.3827209,0.5856323-6.1171265,0.8632813-6.5589294
		h0.003479l-0.2377319-0.1472168l0.2610474,0.1070862L626.5939941,476.185791z M638.0751953,461.5757751
		c-1.9945068-2.1384277-0.2543335-6.1707153-0.046875-6.6191101l0.0002441-0.0001526l-0.2543335-0.1171265l0.2744141,0.0737
		l-0.0267944-0.0167847l0.0267944,0.0067444l-0.5220947-0.2409973l-0.0233765,0.0536194
		c-0.2175903,0.4650574-2.1953125,4.5142517-4.9460449,4.5142517l-0.7461548-0.09375h-0.0770874
		c-0.8098145,0-8.1483154,0.4450989-16.0324097,15.9420776l-0.1640015,0.4250183h0.4685059
		c2.9738159-0.2331238,5.8167114-1.3221436,8.1851196-3.1355896c0.9707642-0.4808655,2.0328369-0.7489014,3.1155396-0.786438
		c3.8383179,0,4.6246338,4.4639282,4.6547241,4.6548767l0.0569458,0.3280029
		c0.0666504,2.6643372,0.8629761,5.2594299,2.3022461,7.502594l0.2811279,0.3581238l0.2006836-0.4049988
		C642.9608765,467.7631226,638.2926636,461.8368225,638.0751953,461.5757751z M647.1407471,439.8407593
		c-2.2521973-1.8504333-1.0775757-6.0434265-0.9268799-6.5487366l-0.0001831,0.0001221v-0.003418l-0.2643433-0.0835876
		l0.2811279,0.0401306l-0.0266724-0.0068665h0.0266724l-0.5487671-0.1672974l-0.0167847,0.0536194
		c-0.1740112,0.5387268-1.7199707,5.1567383-4.6781006,5.1567383l-0.3781738-0.02005
		c-0.3179321,0.0233765-7.8304443,0.7762756-13.8674316,17.9298096l-0.1472168,0.4283447l0.4484253-0.0435791
		c2.9494629-0.5950928,5.6539917-2.0574341,7.7669678-4.199707c1.0567017-0.7381897,2.2999268-1.1637878,3.5873413-1.2281189
		c3.3530273,0,4.6112671,4.0023193,4.6246338,4.0391541l0.0668945,0.1839294
		c0.4077759,2.6789246,1.5498047,5.1925049,3.2996216,7.2616577l0.3245239,0.3179321l0.1472778-0.4283447
		C652.7994385,445.3322449,647.3850708,440.0750122,647.1407471,439.8407593z M653.2544556,417.0923462h0.0001221
		c-2.4863281-1.5326233-1.8538818-5.8795776-1.7803345-6.3681335l-0.274353-0.046875l0.2208862-0.0067139l0.0602417,0.0067139
		l-0.0266724-0.0067139h0.0266724l-0.5655518-0.09375l-0.0067749,0.0568848h-0.0032959
		c-0.1037598,0.5856323-1.0908813,5.6821594-4.3369141,5.7558594c-0.3079224,0.0635071-7.6531372,1.8036804-11.3743286,19.6063538
		l-0.09375,0.4416809l0.4418335-0.1037903c2.8447266-0.9772339,5.3318481-2.7836914,7.1410522-5.1868591
		c1.071167-1.0176697,2.4644775-1.628418,3.9387207-1.7267151c2.9715576,0,4.5578003,3.3965149,4.5778809,3.4333496
		l0.0869751,0.1807556c0.7523804,2.6014099,2.2174683,4.9405212,4.2298584,6.7528992l0.3646851,0.2677612l0.0870361-0.4450989
		C659.5925903,421.783905,653.5289307,417.2831421,653.2544556,417.0923462z M662.0220337,382.7386169
		c0.0015259-4.8887024-3.9602661-8.8529358-8.8488159-8.8545837c-0.0019531,0-0.0038452,0-0.0056763,0
		c-4.8901978,0-8.8545532,3.9642334-8.8545532,8.8544617c0,4.8901978,3.9642334,8.8545837,8.8544312,8.8545837
		S662.0220337,387.6288452,662.0220337,382.7386169z M509.6451111,554.6950684v-0.0869751l-0.045105-0.1769409
		L509.6451111,554.6950684z M576.1766968,527.5144653l0.1046143,0.1687012l-0.0368042-0.0835571L576.1766968,527.5144653z
		 M584.3026123,248.7432556l-0.0166626-0.1373291l-0.1138306-0.0735474l-0.7595825-0.1371918
		c-4.5310669,0-23.725708,5.3474274-42.3115234,21.7245636c-9.0229492,8.1234131-15.828064,18.4111023-19.7736206,29.8930969
		l-0.4985962,1.2481689c-6.9673462,17.8308716-12.4276123,36.214325-16.3236694,54.9573975
		c-0.8384094-4.0661011-2.3602905-7.9607849-4.5009155-11.5181274c-2.1782837-2.9753113-5.625946-4.7567444-9.3129272-4.8121338
		c-0.7726746,0.0012207-1.5440063,0.0671997-2.3056946,0.1973877c-4.9249878,1.0780029-8.9230652,4.6617432-10.5310059,9.4402161
		l-0.0536194,0.1437683c-1.6171265,3.7977905-2.3780212,7.9051208-2.2285767,12.0302124
		c0.0604858,2.9696655,0.8242493,5.8825684,2.2285767,8.4997864c4.2298279,7.5463257,12.356842,12.0586548,20.9984741,11.658783
		c1.2528687-0.0013733,2.5049133-0.0662842,3.7513123-0.1941223c4.029541-0.5123291,7.8744812-1.9961243,11.2036438-4.3234253
		c8.5098267-5.6854553,15.3934326-12.9906921,22.6850586-20.7206726c4.1328735-4.3770447,8.4061279-8.9080811,13.0073853-13.111084
		c4.9846802-4.7236023,10.427124-8.9396973,16.246582-12.5856934c4.6841431-2.7922058,9.7584229-4.8708496,15.0552979-6.1674194
		l0.7796631-0.4282227l-0.1640015-1.0006104l-0.180603-0.4551392c-1.9807739-5.572998-3.4021606-11.3292542-4.2432861-17.1836548
		c-1.1563721-6.9941406-1.5580444-14.0924683-1.197876-21.1723633c0.5682373-8.0344849,1.8880615-15.9978943,3.9420776-23.7860413
		l-0.0001221,0.0001526c0.8694458-3.0895386,2.0336914-6.0882263,3.4769287-8.9549408
		C583.7358398,250.8484039,584.1234741,249.818512,584.3026123,248.7432556z M415.3477173,529.2692261
		c-0.2677917,2.3356934-0.4953003,4.6848755-0.7027283,7.0006104c6.3814392-2.2052002,12.1706848-4.8555908,18.2678528-7.6464233
		c1.8571472-0.8532104,3.7445679-1.7166748,5.6987915-2.5934448c12.4853516-5.5983887,21.5306091-9.5772095,33.0253601-13.7736206
		c9.8509521-3.6292725,19.9075623-6.6742859,30.1172791-9.1188354c9.2558594-2.3708801,18.7570801-3.6510925,28.3103027-3.8148193
		c3.1749268-0.0089417,6.3468018,0.1978149,9.4936523,0.6190186c4.4362183,0.6895142,8.6620483,2.3622131,12.3682251,4.8957214
		l0.4349976,0.2878418v-0.5186768c0.0302124-5.3541565-1.1444092-13.4458008-4.5343628-18.625946
		c-2.3026733-3.6954956-5.2454224-6.9511108-8.6904297-9.6140747c-6.5786133-4.7687073-13.9251709-8.375824-21.7213135-10.6648865
		c-8.8643188-2.6789551-17.9483643-4.5679932-27.1457825-5.6453247l-0.1538391-0.0200806l-0.1004944,0.1171265l-0.9570313,1.1846924
		c-1.0832214,1.4994812-2.3848877,2.8280945-3.8616943,3.9419556l-0.602356,0.438385l0.7428589,0.0669556
		c9.3959351,1.1188354,18.711853,2.8300171,27.8921204,5.1233521c7.2080078,2.1081848,26.2388306,7.6799622,31.6834106,23.8562622
		c-4.6375122-1.0637207-9.3773804-1.617981-14.1350708-1.6531677h-0.2643433
		c-13.4800415,0.2533569-26.8634644,2.3325195-39.7849731,6.1807556
		c-11.8880615,3.1588135-23.5189209,7.2162781-34.7922363,12.1372681
		c-5.9800415,2.5465698-11.678833,5.1400146-17.1836548,7.6464233l0.0001221-0.0001221
		C431.3300476,522.4561768,423.6736145,525.9396973,415.3477173,529.2692261z M341.4096985,546.1784058
		c-1.5962524,0.0233765-3.115509,0.0401001-4.5744324,0.0401001c-8.7979736,0.112854-17.589325-0.5241089-26.2791138-1.9039917
		c-7.4906616-1.298645-14.8140259-3.4255371-21.835083-6.3414917
		c-19.1512146-7.9609375-30.0837402-18.6928711-42.2545776-34.4674988
		c6.3547821,1.592804,27.9020081,3.1923523,35.4983826,3.1923523l1.0440674-0.0133362
		c6.1003113-0.1439209,10.7652283-0.3848877,14.7774353-0.7696533c-1.4422913-1.5862427-2.9548035-3.2862854-4.5744324-5.1366882
		c-0.2643433-0.3046265-0.5219727-0.6056824-0.78302-0.9068909c-3.8842468,0.4235535-7.7883911,0.6369019-11.6955872,0.6390991
		c-3.0787048,0-6.5722656-0.1204224-11.0029297-0.3814697c-11.6487122-0.6859436-31.5294647-4.8287659-37.9812927-7.9074707
		l-0.7025909-0.3378906l0.3245544,0.7060242c6.1294708,10.8244934,13.6539459,20.7972412,22.3805695,29.6622925
		c9.0298462,8.3528442,19.2860718,15.2730103,30.4117432,20.5198364l1.1410828,0.4752197
		c15.2216187,6.5023804,31.6445313,9.7181396,48.1944885,9.4368896l-0.0001526-0.0001221
		c4.9593506,0,10.0626526-0.27771,15.2159729-0.7897949C346.4927979,550.0869751,344.0232239,548.1896362,341.4096985,546.1784058z
		 M278.350769,482.3232422c-1.4992065-2.0111389-2.954834-4.039032-4.3938293-6.0803833
		c-10.2935791-0.5841064-20.4908142-2.3068237-30.4051361-5.1367188
		c-20.5499268-5.8795471-36.1975403-17.3241272-48.8033142-27.7413025
		c-14.372757-11.8762512-25.4793091-29.8897705-30.2177734-37.5865173
		c-0.4617462-0.7528992-0.8700104-1.4120483-1.2080383-1.9508972c5.2036285,2.3659363,15.2528076,4.8355103,29.2071228,7.1612854
		c14.9325104,2.5336304,30.0382385,3.9109192,45.182724,4.1192932c1.6318512,0,3.1321564-0.0266418,4.5007782-0.0802612
		c-0.7529144-2.1384277-1.4790039-4.2732849-2.1617889-6.4016724c-1.2246857,0.0133362-2.4462128,0.0266724-3.6374969,0.0266724
		c-12.8749237-0.0058899-25.7292328-1.028656-38.4430389-3.0584717
		c-11.3744965-1.6931763-22.6061554-4.2357483-33.6009521-7.6062622c-4.6981812-1.3672485-9.3166199-2.9949646-13.8338928-4.8756409
		l-0.7461548-0.3280029l0.3847656,0.7195129c8.3004608,16.011322,18.4976959,30.9655762,30.3717346,44.5401917
		c5.1387482,5.5640869,10.6639099,10.7582397,16.5343933,15.5439758c6.22612,5.0841675,12.9235992,9.5618591,20.0013123,13.3720093
		c18.2883301,10.2905579,38.9597778,15.5943909,59.9434204,15.3799438
		C277.4639587,482.3399963,277.9090881,482.3265381,278.350769,482.3232422z M206.6380615,388.3135681
		c9.2239685,1.2068176,18.5052643,1.9250488,27.8049774,2.1517334c0.1907959,0,0.3714294,0,0.5488892-0.0032959
		c-0.3146515-1.3820801-0.6124115-2.750824-0.880188-4.089325c-0.1404877-0.7127686-0.2844238-1.4724121-0.4283447-2.2420654
		c-1.0641174,0.0501709-2.1751251,0.0736694-3.3395996,0.0736694c-11.3353119-0.3189087-22.6234589-1.592804-33.7447357-3.8082275
		l-0.9603424-0.1973877l-0.1271515-0.0167847h-0.2577515l-0.0067291,0.1070862
		c-20.5570831-4.592865-40.0556641-13.045929-57.4605103-24.9103394
		c-19.0303726-13.7567749-35.1599426-31.1327515-47.4649353-51.1325378
		c-4.9512482-7.7866211-9.3815002-15.8924255-13.2616196-24.2645264l0.421608,0.184082
		c10.959198,4.387085,22.8957825,8.5298767,35.4681473,12.3045654c23.9105606,7.0748291,48.3808823,12.098114,73.1449661,15.0151367
		l0.4551392,0.046875h-0.0001373c10.2234802,1.2299194,20.5041504,1.9257507,30.799942,2.0848083
		c5.1920929,0.01828,10.3808899-0.2632446,15.5405273-0.8433533c0.2743835-1.9509277,0.5755768-3.9353638,0.9001312-5.9397583
		c-3.2191772,0.1437683-6.6056519,0.2207642-10.09935,0.2207642c-22.394165-0.3194885-44.7303314-2.364563-66.810257-6.1170959
		c-23.0731049-3.6708984-61.1883011-16.4038086-69.3601074-19.4925537
		c-7.0073242-2.6470337-14.3425064-5.6721191-21.8082886-8.9983826l-0.0435715-0.0769653h-0.1337585l-0.6491165-0.2944641
		l0.3413315,0.6558533l0.0266647,0.1271667L65.2974701,268.875l0.3011856,0.739563
		c5.5617371,13.6736145,12.3349609,26.8225098,20.2388458,39.2897034
		c19.1814499,29.9399719,42.9105453,51.4671326,72.562645,65.8063354
		C175.7812195,383.1199646,196.0802612,386.841156,206.6380615,388.3135681z"/>
	<path class="st2" d="M380.4518127,582.5168457c0.0836792-0.6190796,0.1338501-1.0574341,0.1438904-1.1879883
		c0.6925354-7.0511475-0.7496643-14.1477051-4.1394958-20.3692627c-2.2366333-4.3497925-5.0631409-8.369873-8.3994141-11.9465332
		c-4.774292-5.2202759-10.1029968-9.9049072-15.8918152-13.9711304
		c-0.6291504-0.4484253-63.1961975-45.7147217-90.1679077-111.3370361
		c-16.3288879-39.1754761-20.6591187-82.3169556-12.4418335-123.9562073
		c1.8960114-9.4927368,4.3691101-18.8610229,7.4055176-28.0527344l0.1004028-0.3179016
		c8.4342651-26.4702148,22.1637878-50.9485931,40.3538513-71.9469452
		c39.5239563-44.7944794,102.9878845-71.7494812,174.4964294-74.1956253
		c-5.9225159,15.3611374-10.6690369,31.1501694-14.1986084,47.2306747
		c-0.7897339,3.4534607-7.5895386,33.8920288-5.8695068,58.6785736
		c-21.5674744,6.3050079-41.5422668,17.137207-58.5915833,31.7737885
		c-12.0183716,10.4432068-21.9845886,23.0354309-29.3877869,37.1313171
		c-6.7481384,13.1603699-10.8802185,27.504425-12.1673889,42.2378845c-0.1539612,1.2582703-0.3067627,2.4640808-0.4584961,3.6174316
		c-2.011261,14.9684143,2.8912659,52.9596558,23.749176,77.1539001c5.7189331,6.6391602,13.6531067,16.4808655,23.705719,28.942749
		l0.1271362,0.1639404c6.6827087,8.2856445,14.2187195,17.6286926,22.7017822,28.0124817
		c-6.8419495,7.0159302-12.2151489,15.3265686-15.8049011,24.4451904
		c-2.8191528,6.4715881-4.7106628,13.3087158-5.6185303,20.309082c-0.297821,2.5231323-0.5019836,5.1634521-0.7228394,7.9542847
		c-0.3664246,8.3550415-1.6913452,16.6402588-3.9487305,24.6928711c-1.5240479,5.0991211-3.6968994,9.9813232-6.4651794,14.5266113
		c-2.3648071,3.8305054-5.2262573,7.3311157-8.5097961,10.4105835"/>
</g>
</svg>
