<?xml version="1.0" encoding="utf-8"?>
<!-- Generator: Adobe Illustrator 22.0.1, SVG Export Plug-In . SVG Version: 6.00 Build 0)  -->
<svg version="1.1" id="Layer_1" xmlns="http://www.w3.org/2000/svg" xmlns:xlink="http://www.w3.org/1999/xlink" x="0px" y="0px"
	 width="720px" height="720px" viewBox="0 0 720 720" style="enable-background:new 0 0 720 720;" xml:space="preserve">
<style type="text/css">
	.st0{fill:#FFFFFF;}
	.st1{fill:#D24303;}
</style>
<g>
	<path class="st0" d="M480.1904297,135.0353088H36v14.0468597c0,39.02005,18.6846428,73.4419861,46.9883423,93.679657H36v14.0555878
		c0,39.0074463,18.6846428,73.4235535,46.9883423,93.6670837H36v14.0565491
		c0,39.0065002,18.6846428,73.4226685,46.9883423,93.6651611H36v14.063385
		c0,62.1372681,47.3812103,112.6951294,105.6210022,112.6951294h100.5545807l74.1821747-125.4106445
		c66.7398376,90.5488892,194.2475891,109.8499756,284.7964783,43.1101379s109.8499756-194.2475891,43.1101074-284.7965088
		c-38.4160156-52.1207733-99.3253784-82.8707275-164.0738525-82.8323975H480.1904297z"/>
	<path d="M480.1904297,149.0822906H54.110836c0,54.4892883,40.9968758,98.6560822,91.5702667,98.6560822h160.5031586
		c2.5071411,0.0020142,4.5379333,2.036087,4.5359192,4.5432129c-0.0020447,2.5042877-2.0316162,4.533905-4.5359192,4.5359192
		h-252.07341c0,54.4806213,40.9968758,98.6473694,91.5702667,98.6473694h96.7818298
		c2.5063324,0,4.5381165,2.0317688,4.5381165,4.5381165s-2.0317841,4.5381165-4.5381165,4.5381165H54.111805
		c0,54.4786682,40.9959145,98.6463928,91.5693207,98.6463928h33.0614319c2.5079346,0,4.5410309,2.0331116,4.5410309,4.5410461
		s-2.0330963,4.5410461-4.5410309,4.5410461H54.111805c0,54.4718628,40.9959145,98.6425171,91.5693207,98.6425171h88.4874268
		l165.4089661-279.6611938c26.2712708-44.5329132,83.6693726-59.3369293,128.2022705-33.0656738
		c44.532959,26.2712402,59.3369751,83.6693726,33.0657349,128.202301
		c-26.2713013,44.5329285-83.6694031,59.3369446-128.2023315,33.0656738
		c-27.9398804-16.4825439-45.355957-46.2541504-46.0307922-78.6864929l-62.5920715,105.8348389
		c59.5216064,86.2490845,177.6921082,107.9160156,263.9412231,48.3944092s107.9160767-177.6921082,48.3944092-263.9412231
		c-35.4213867-51.3270264-93.8024902-81.9717102-156.1654968-81.9724884L480.1904297,149.0822906z"/>
	<path class="st1" d="M480.1904297,284.9856567c-29.7384949,0.0018616-53.8448181,24.1111755-53.8429565,53.8497009
		c0.0018311,29.7384949,24.111145,53.8448181,53.8496704,53.8429565
		c29.7351074-0.0018311,53.8400269-24.105835,53.8429565-53.8409424
		c0.0049438-29.7365417-24.0972595-53.8467407-53.8337708-53.8517151c-0.0053101,0-0.0105896,0-0.0159302,0H480.1904297z"/>
</g>
</svg>
