<?xml version="1.0" encoding="utf-8"?>
<!-- Generator: Adobe Illustrator 22.0.1, SVG Export Plug-In . SVG Version: 6.00 Build 0)  -->
<svg version="1.1" id="Layer_1" xmlns="http://www.w3.org/2000/svg" xmlns:xlink="http://www.w3.org/1999/xlink" x="0px" y="0px"
	 width="720px" height="720px" viewBox="0 0 720 720" style="enable-background:new 0 0 720 720;" xml:space="preserve">
<style type="text/css">
	.st0{fill:#001425;}
	.st1{fill:#96D8D8;}
	.st2{fill:#C8102E;}
	.st3{fill:#639FB6;}
</style>
<g>
	<path class="st0" d="M101.9583282,563.5805664C228.11203,574.6190186,308.3916626,610.2000732,347.269928,684
		c133.4649048-21.6181641,256.8948669-107.2019653,256.8948669-217.5578003
		c0-146.9690552-178.1061096-170.0781555-182.8368835-212.9130707
		c74.8894043,27.1517181,157.348053-1.404892,196.7137756-94.8733215
		C501.6935425,150.0544128,416.5111389,107.6208954,379.6685181,36
		c-142.697052,25.316761-256.8661499,117.839035-256.8661499,217.4717865
		c0,145.7362213,187.3095703,184.3278046,208.26828,215.2354584
		C228.8574829,429.943634,140.6932526,474.0974121,101.9583282,563.5805664z"/>
	<path class="st1" d="M323.4440918,245.9312439c-15.9699097-16.227951-22.6216431-29.0153503-22.6216431-45.7020416
		c0-19.2097778,9.2321472-28.6712952,9.2321472-39.3370361c0-9.2321472-5.7342529-16.4859924-16.9160461-18.6936798
		c6.098175-6.8344421,14.7031555-10.9093781,23.8544922-11.2964935c47.6230469,0,61.7006531,105.2810059,161.0753479,101.4963989
		c35.4090881-3.3832092,68.8111267-20.5859833,89.941864-50.805542
		C481.222229,170.2390289,402.0034485,133.3677368,363.2685242,70.692276l0,0
		c-40.139801,7.3111801-208.5550079,65.4279022-204.2829895,186.8795013
		c4.41539,126.6411438,191.7249756,161.8494873,244.1361084,216.2389526
		c41.3153076,43.006958,12.2139587,86.013916-14.3356628,101.8117676
		c-41.1433105-106.9726257-176.328476-114.6852112-230.1444855-37.2727051
		c86.6733246,11.1531372,165.9207916,48.0531006,204.6270294,110.7285156
		c95.7334595-20.0698853,141.9229126-104.0194092,124.3474121-164.5732422
		c-29.1013794-100.3495483-217.9018555-117.8390198-268.1053162-211.7088318
		c-26.7789612-52.8125153-4.7594147-109.1802826,44.2111511-141.8942413
		c-18.1189117,22.7269897-27.9940796,50.9273071-28.0118561,79.9929352
		c4.3580475,4.7307587,6.1930084,15.8552246,6.250351,16.0559235c0.6307678,3.8706207,1.7776184,12.0706024-0.2580414,17.202774
		c2.1559601,5.6406555,4.8945618,11.0409851,8.1713104,16.1132813c6.5370483,1.6342468,13.9342651,10.1783142,14.0489502,10.3789978
		c7.2251587,8.2860107,8.3433533,13.5041809,8.6013794,15.4825134c4.4440613,3.985321,9.2321777,7.8272705,14.3356628,11.4685364
		c4.2146606-0.4874268,10.6657104,1.5482483,17.2027588,5.7342529c7.5119019,4.902771,11.2678223,9.8055725,12.3286743,13.4468384
		c5.2468567,3.0678406,10.6083679,6.0496521,16.1132813,9.0027771c4.2146912-1.1468506,11.1531372,0.1720276,18.0915833,3.7559509
		c6.938446,3.5838928,12.0992737,8.6013794,13.618866,12.5580139l16.65802,8.2860107
		c4.1860046-1.2328796,11.1817932,0,18.2062683,3.5552368c7.0244446,3.5552063,11.8985901,8.3433533,13.5041809,12.4146729
		c5.7342529,2.8671265,11.4685059,5.9349365,16.8873901,8.9740906c5.1608276-1.0608521,13.3894653,2.0930176,17.8908691,4.7594604
		c5.5415039,2.9018555,9.9522705,7.5750427,12.5293579,13.2748108c5.7342834,3.6412659,11.0384827,7.3972168,16.2566223,11.2677917
		c4.3867188-0.2007141,10.8664246,2.3223877,16.8873901,7.4545593c6.5083923,5.7342834,9.8629456,11.8985901,10.0063171,16.2279663
		c4.4510803,4.7277222,8.5704651,9.7572021,12.3286438,15.0524292c5.3328857,1.3189087,10.694397,7.4832153,13.6762085,13.676239
		c4.1287231,9.0314331,3.6126099,15.3677979,2.3797607,18.664978c7.1964722,22.3922729,9.1174316,50.6335144-2.4370728,83.146759
		c0,0.3154297-0.2580566,0.7167969-0.4300537,1.1468506c24.1698608-26.348938,40.5125122-58.7474976,39.1362915-97.6544189
		C563.1361694,335.5290527,375.8552246,300.3206787,323.4440918,245.9312439z"/>
	<path class="st2" d="M395.3230286,259.2060547c-21.3887634-24.5999756-35.0650024-68.2663574-58.6614685-85.2971039
		C326.0818481,211.4970245,348.1014099,252.5829926,395.3230286,259.2060547z"/>
	<path class="st3" d="M378.3783264,612.4077759c-4.1863403,12.5568237-9.2349243,24.8095093-15.1097717,36.6705322
		c-38.7062683-62.7041016-117.9537354-99.5753784-204.713089-110.8432007
		C248.1819458,493.2785339,341.0769348,540.5861816,378.3783264,612.4077759z M568.0102539,181.4781647
		c-89.6838074,44.9565887-182.5214844-2.3510437-219.8228149-74.2013168
		c4.1679077-12.5315628,9.2072144-24.7562485,15.0810852-36.5845718
		c-37.9034424,6.8237686-208.5836792,64.3097229-204.2829895,186.8221893
		c4.41539,126.6411133,191.7249756,161.8494568,244.1361084,216.2389221
		c41.3153076,43.0069275,12.2139587,86.0138855-14.3356628,101.8117371
		c-2.7648621,12.4508057-6.2106018,24.7406006-10.3216553,36.8139648
		c19.4964905-3.4119263,78.6453552-34.7209473,79.0467529-94.9880371
		c0.5160828-83.146759-106.8292542-105.0516357-188.1697083-155.45578
		c-67.0335083-41.4873352-80.0502777-82.6306458-83.4334869-108.6928558
		c-7.9992828-61.2705688,35.2657013-117.2656097,98.141861-143.6431885
		c-7.5734863,6.2946701-14.3946838,13.4429474-20.3279724,21.3027649
		c-18.114975,22.7402344-27.9892273,50.9480743-28.0118561,80.0216064
		c4.3580475,4.7307739,6.1930084,15.8265533,6.250351,16.0559235c0.6307678,3.8706207,1.7776184,12.0706177-0.2580414,17.202774
		c2.1834869,5.5101166,4.9213257,10.7840729,8.1713257,15.7405243c6.5370636,1.6629639,13.9342499,10.2070007,14.0489349,10.3790283
		c7.2251587,8.2860107,8.3433533,13.5328674,8.6013794,15.5111694c4.4440613,3.9852905,9.2321777,7.798584,14.3356628,11.4685059
		c4.2146912-0.4873962,10.665741,1.5769348,17.2027893,5.7342529c7.5118713,4.931488,11.2678223,9.805603,12.3286743,13.4468689
		c5.2372742,3.0582275,10.6083984,6.0592041,16.1132813,9.0027771c4.2146606-1.1468506,11.1531067,0.1720276,18.0915527,3.7559204
		c6.9384766,3.5839233,12.0993042,8.6014099,13.618866,12.5867004l16.65802,8.2573242
		c4.1860046-1.2041931,11.1818237,0,18.2062683,3.5839233c7.0244751,3.5839233,11.8985901,8.3146667,13.5041809,12.3859863
		c5.7342834,2.962738,11.3634033,5.9541016,16.8873901,8.9741211c5.1608582-1.0608521,13.3894958,2.0930176,17.8908997,4.7880859
		c5.546936,2.8947144,9.9597168,7.5700378,12.5293579,13.2748108c5.7342529,3.6412659,11.0384521,7.3972168,16.2566528,11.2677917
		c4.3866882-0.2007141,10.866394,2.3223877,16.8873901,7.4545593c6.5083923,5.7342529,9.862915,11.8985901,10.0062866,16.1992798
		c4.4443359,4.7337036,8.5632935,9.7626648,12.3286743,15.0524292c5.3328857,1.3475647,10.694397,7.5118713,13.6762085,13.6762085
		c4.1286621,9.0314636,3.6125488,15.3678284,2.3797607,18.6650085c7.1964722,22.4209595,9.1174316,50.6621704-2.4371338,83.1467896
		c30.9076538-52.3537903,27.9259033-104.3635864-6.5943604-148.2879944
		C450.1999512,318.49823,268.5959473,307.4311218,269.2840576,202.1501007
		c0.2983704-22.3003845,8.8478088-43.6995697,23.9978943-60.0663605
		c6.0758057-6.7677002,14.6242676-10.798996,23.7110901-11.1817474c47.6230469,0,61.7006531,105.2810059,161.0753479,101.4963989
		c35.4664001-3.4118805,68.9544983-20.6146698,89.9705505-50.805542L568.0102539,181.4781647z"/>
</g>
</svg>
