<?xml version="1.0" encoding="utf-8"?>
<!-- Generator: Adobe Illustrator 22.0.1, SVG Export Plug-In . SVG Version: 6.00 Build 0)  -->
<svg version="1.1" id="Layer_1" xmlns="http://www.w3.org/2000/svg" xmlns:xlink="http://www.w3.org/1999/xlink" x="0px" y="0px"
	 width="720px" height="720px" viewBox="0 0 720 720" style="enable-background:new 0 0 720 720;" xml:space="preserve">
<style type="text/css">
	.st0{fill:#00205B;}
	.st1{fill:#FFFFFF;}
</style>
<g>
	<path class="st0" d="M648.1644287,287.0219116c-7.8222656-3.0889282-15.9569702-5.3190918-24.2609253-6.6520386
		c6.6130981-14.5359497,11.347168-29.8548737,14.0873413-45.5871277c0.0114746-0.8485718-0.2644043-1.6759949-0.7827759-2.3479767
		c-0.538208-0.6272888-1.3261719-0.9854736-2.1517944-0.9781647h-0.7827148
		c-16.0112915,4.5653229-31.5930786,10.5226593-46.5655518,17.8043365
		c-1.7160034-10.0447998-5.0183716-19.7525787-9.7827759-28.7606964c-0.5966797-0.8180084-1.5320435-1.3214569-2.5436401-1.3695374
		c-0.6322632,0.0146332-1.2457275,0.2192078-1.7598877,0.5870667c-7.6309814,5.6738586-15.0654907,11.5434113-21.9137573,17.6086426
		c-6.5806885,5.7979584-12.7883301,12.0061035-18.5862427,18.5868225c-3.2177734-5.075058-7.406311-9.4637604-12.3264771-12.9129639
		c-0.425293-0.3918915-0.9875488-0.602478-1.5654907-0.5870514c-0.8830566-0.0075836-1.7316284,0.3459015-2.3482056,0.9784241
		c-17.4126892,21.7172699-41.673645,49.4998016-73.7599487,72.9779816
		c7.2390747-22.4997559,17.8035278-44.0216064,27.9781799-63.9779663c0.3908691-0.802597,0.3908691-1.740799,0-2.5436707
		c-0.3553162-0.8119965-1.086853-1.3974915-1.9563293-1.5649567c-4.8856201-1.1106415-9.8632202-1.765625-14.8700867-1.956604
		c12.9921265-20.3158722,23.0068665-42.3876801,29.7391357-65.5434875c0.374115-0.7874451,0.2184143-1.7245941-0.3908691-2.3479614
		c-0.538208-0.7579346-1.4191895-1.1984253-2.3482361-1.1738586c-11.9721375,0.5935822-23.8136597,2.764679-35.2172852,6.456604
		c1.3731995-9.3900757,1.8309326-18.8911896,1.3690186-28.3698425c-0.4545898-10.2438812-1.6313477-20.4431-3.5207825-30.5215988
		c-0.3427734-1.3509979-1.5414734-2.3095703-2.9345093-2.3477173c-0.3375549-0.0133209-0.6730347,0.0538254-0.9792175,0.1956863
		c-8.4189758,3.1853256-16.5379944,7.1136932-24.2599182,11.7391052c0.5486755-8.6055069,0.4180298-17.2410583-0.3918762-25.8261795
		c-0.7827454-8.8335876-2.2207642-17.5971527-4.3045959-26.2172852c-0.2184143-1.3180771-1.4066467-2.2515717-2.7390747-2.1522903
		c-0.3365173-0.0133209-0.6719666,0.0538254-0.9781799,0.1956863c-6.447998,2.3014755-12.6169434,5.3203735-18.3908691,9.0002747
		c-3.2563782-8.8307114-7.0457458-17.4552841-11.3482361-25.8261757
		c-4.1091614-7.6304665-8.6091614-15.8479919-15.0655212-26.2175446c-0.2267761-0.3443451-0.5214844-0.6390533-0.8652954-0.8663521
		c-1.4056091-0.926178-3.2950745-0.5384636-4.2209778,0.8663521c-9.7827759,16.2391014-19.957428,33.6523247-26.2172852,52.0437202
		c-5.8826294-3.6085739-12.1090698-6.6232986-18.5873413-9.0002747c-0.2926331-0.1773987-0.6395874-0.2468948-0.9781799-0.1956863
		c-1.2927246,0.0211639-2.4130249,0.9013596-2.7390747,2.1522903c-2.0159302,8.625618-3.3891296,17.3886642-4.1091614,26.2172852
		c-0.7733459,8.585907-0.9687805,17.2141418-0.5862732,25.8261795c-7.7647705-4.5475616-15.877533-8.4727859-24.2619934-11.7391052
		c-0.2926025-0.1776581-0.6385193-0.2468948-0.9781799-0.1956863c-1.3710938-0.0122757-2.5405273,0.9904556-2.7380371,2.3477173
		c-1.8894653,10.0784988-3.0672302,20.2777176-3.5218201,30.5215988c-0.4619141,9.478653-0.0041809,18.9797668,1.3690186,28.3698425
		c-11.4083557-3.674942-23.2472534-5.84552-35.2173004-6.4568787h-0.1954346
		c-0.8757477-0.0206299-1.6961212,0.426651-2.1522827,1.1738586c-0.5784454,0.7116852-0.7947693,1.6506653-0.5868073,2.5436707
		c6.8095856,23.1273193,16.8191223,45.1886749,29.7391357,65.5434723c-4.9911804,0.2518616-9.9583282,0.8402252-14.8700867,1.76091
		c-0.8423157,0.2241669-1.5524292,0.79216-1.9563446,1.5652313c-0.3271027,0.8331757-0.2549896,1.7700653,0.1954193,2.5434113
		c10.9814453,20.6048126,20.2730103,42.06633,27.7827759,64.1739349
		c-29.3477478-21.3261719-56.151825-51.2609863-73.7610016-73.1739502
		c-0.5622406-0.5938568-1.3345337-0.9447327-2.1517639-0.9781647c-0.6374817-0.0159454-1.2603302,0.1917572-1.76091,0.586792
		c-4.8736115,3.5032806-9.0533142,7.8820648-12.3264313,12.9132233
		c-5.8507385-6.4691467-12.0557404-12.6091156-18.5868073-18.3914032
		c-7.0003052-6.2993164-14.3135986-12.2415009-21.9132385-17.8043365c-0.5141602-0.3678589-1.1276093-0.5721588-1.76091-0.586792
		c-1.0617828,0.0431061-2.0253143,0.63591-2.5431366,1.5652313c-4.5632324,9.0245667-7.8551636,18.6374969-9.7822418,28.5650024
		c-14.9829407-7.207489-30.5626221-13.0992432-46.5655365-17.6083832c-0.229393-0.1554565-0.5068512-0.2249603-0.782753-0.1959534
		c-0.8632126,0.0250854-1.6637268,0.4613953-2.1517639,1.174118c-0.5747833,0.6356506-0.7952881,1.5161133-0.5873184,2.3477173
		c2.6220398,15.7366943,7.2913437,31.0624237,13.8913879,45.5871124
		c-8.2982559,1.3577881-16.4303513,3.5874023-24.2604218,6.6520386c-0.8067856,0.3163757-1.4447861,0.9543762-1.7609177,1.7606506
		c-0.2288666,0.7798767-0.158844,1.6169739,0.1954269,2.3479614c5.0366364,8.4688721,10.6595535,16.5756226,16.8258972,24.2609558
		c5.458847,6.8213196,11.5509949,13.110199,18.1959686,18.7825012c-5.1437531,3.199707-9.9311523,6.9381104-14.2827606,11.1520386
		c-0.4572067,0.5557251-0.7304916,1.2391663-0.7827454,1.956604c0.0167236,0.7840576,0.2915726,1.5406799,0.7827454,2.1522827
		c8.6446915,8.4848022,17.7220383,16.5176086,27.1954575,24.0652771
		c9.0804825,7.4133606,18.5502396,14.3363037,28.3695755,20.7391052
		c-6.9814911,5.4110107-13.4049072,11.5068359-19.1741409,18.1957092c-0.9666748,1.1903076-0.7921524,2.9378967,0.3918991,3.9129333
		c7.5034943,6.663269,15.5535431,12.6843567,24.0644684,18.0000305c8.3855133,5.1565552,17.1498718,9.6696167,26.217804,13.5
		c-6.2718964,4.8291931-11.9235382,10.4152832-16.8258972,16.6304932c-0.5747833,0.6358948-0.7952881,1.5161133-0.587326,2.3477173
		c-0.0449371,0.8888245,0.5193939,1.6947937,1.3695526,1.956604c14.224762,6.7973022,29.2923584,11.6661987,44.8041077,14.4781799
		c-20.5097198,6.6107483-40.3046265,15.2627563-59.0863495,25.8261719
		c-0.8809814,0.4423218-1.4181366,1.3630066-1.3700714,2.3477173c-0.0773315,0.9941101,0.3673401,1.9573669,1.174118,2.5434265
		c13.9028931,10.7624512,29.1648712,19.6433716,45.3914337,26.413208
		c-22.3882141,18.8496704-42.1313782,40.6330566-58.6954956,64.7607422
		c-0.5549164,0.8830566-0.6291199,1.9858398-0.1959534,2.9347534c0.5173035,0.9290771,1.4808502,1.5218506,2.5436707,1.5652466
		h0.3913727c21.4915466-2.4370728,42.7991638-6.293335,63.7822876-11.543396
		c-3.9487305,7.9345703-7.4115143,16.1019287-10.3695526,24.4563599c-0.3720398,0.9169922-0.2225952,1.9631348,0.3913727,2.7390747
		c0.5073853,0.7932129,1.409256,1.2438965,2.3477173,1.1741333h0.3913727
		c18.4588013-1.7637939,36.8104858-4.5065308,54.978241-8.2172852
		c-6.1778412,9.8674316-10.9830017,20.5306396-14.2822418,31.6954346c-0.1604156,0.8676758-0.0224762,1.7640991,0.3908539,2.543457
		c0.5664215,0.7244263,1.4285889,1.1555176,2.3482361,1.1738281h0.586792
		c18.4666443-3.4089966,36.6986694-7.9831543,54.586853-13.6954346c16.452301-5.1581421,32.5335999-11.4337158,48.1310425-18.78302
		c0.3574219,6.213623,1.3397522,12.3752441,2.9345093,18.3913574c1.3585815,5.6477661,3.2584839,11.1513062,5.6736145,16.4348145
		c4.4728394,9.8707886,10.5560913,18.9290771,18.0000305,26.8043213c0.7116699,0.6053467,1.609375,0.9502563,2.5436401,0.9784546
		c0.8172302-0.0336914,1.5895386-0.3845825,2.1517639-0.9784546l19.9563599-18.1956787
		c1.2321472-1.2953491,1.3157349-3.3023682,0.1954346-4.6956787v-0.1956787
		c-4.5125427-4.8579712-8.5119629-10.1686401-11.9345093-15.8477783c-5.4781799-9-7.6299438-16.8258667-6.4563599-22.8911133
		c0.2069092-0.4655762,0.6636047-0.7702026,1.173584-0.7827759c0.1964722,0,0.1964722,0,0.3919067,0.1957397
		c11.9345398,5.2824707,29.5426636,11.7390747,48.5208435,17.8043213
		c19.3868103,6.2679443,39.1143188,11.4284668,59.0874023,15.4563599c0.1567383,0.1504517,0.3720398,0.22229,0.5873108,0.1956787
		c0.9071045-0.0621948,1.7525635-0.4851685,2.3471985-1.1738892c0.6144714-0.7759399,0.763916-1.8222656,0.3918762-2.7390747
		c-3.3587952-11.1104736-8.0907898-21.7577515-14.0873413-31.6957397
		c18.1505127,3.8076782,36.5079651,6.5512085,54.9782715,8.2175293h0.3918457
		c0.9186401-0.0185547,1.7808228-0.449585,2.347229-1.1740723c0.522522-0.8128052,0.6646729-1.812439,0.3919067-2.7391357
		c-3.326416-8.6086426-6.8482666-17.0215454-10.3701172-24.4563599c20.9168091,5.2524414,42.1596069,9.1087036,63.5874023,11.543457
		c0.1013794,0.1115112,0.2403564,0.1812744,0.3908691,0.1956787c1.0910034,0.0592651,2.1047363-0.5643311,2.5436401-1.5652466
		c0.6239014-0.9745483,0.5455322-2.2411499-0.1954346-3.130188c-16.4575195-24.1549072-36.2142334-45.8873291-58.6954956-64.5653076
		c14.673645-5.8695679,28.7609863-14.2827759,45.5874023-26.6086426c0.7659912-0.6181641,1.2007446-1.55896,1.173584-2.5434265
		c-0.0804443-1.0009155-0.671936-1.8889465-1.5654907-2.3479919c-18.732605-10.5265503-38.4590454-19.1772766-58.8909302-25.8258972
		c15.4804077-2.6878967,30.499939-7.5628052,44.6081543-14.4784546c0.850708-0.3017578,1.4578857-1.0599365,1.5654907-1.956604
		c0.2080078-0.8313293-0.0125122-1.711792-0.5872803-2.3477173c-4.9682007-6.2219849-10.68573-11.8075562-17.0218506-16.6304626
		c9.1504517-3.7893677,17.9822388-8.3037415,26.4127197-13.5000305
		c8.4492188-5.3175049,16.4345093-11.3388367,23.8700562-17.9997559c1.184082-0.9752808,1.3575439-2.7229004,0.3919067-3.913208
		c-5.6704712-6.7824097-12.1048584-12.8878784-19.1746826-18.1957092
		c9.7827759-6.4563293,19.3701172-13.3043213,28.5655518-20.7388306c9.414917-7.5434875,18.4274292-15.5762939,27-24.0652771
		c0.5403442-0.5823364,0.8235474-1.358551,0.7827759-2.1522827c0.0386353-0.7354431-0.2476807-1.450531-0.7827759-1.956604
		c-4.3118896-4.2591248-9.1044922-8.001709-14.2827148-11.1520386c6.7081909-5.6681213,12.8656616-11.9570007,18.3919067-18.7825012
		c6.1658325-7.6419678,11.7265625-15.753418,16.6299438-24.2609558c0.0762939-0.134552,0.1410522-0.2748413,0.1954346-0.4190674
		C650.5115967,289.3479309,649.7236328,287.608429,648.1644287,287.0219116z"/>
	<path class="st1" d="M302.0559082,507.7173157v11.3479919h16.2391052v9.9781494h-16.2391052v11.5437012h22.6965027v9.9781494
		h-33.0655212v-52.8261719h33.0655212v9.9781799H302.0559082z M431.7733154,471.3258972h-19.1736145v-42.8475037h-10.3700562
		v52.8259583h29.5436707V471.3258972z M356.2514038,291.3262024c0.1954346,0,0.1954346,0.1957092,0.1954346,0.3913879
		c0.1964722,7.6304626,0.3918762,14.4781799,0.5873108,21.3261719c0,0.1954346,0.1964722,0.3911133,0.5873108,0.3911133h5.2827759
		c0.1954041,0,0.1954041,0,0.3908386-0.1954346c0.1954346,0,0.1954346-0.1956787,0.1954346-0.3913574
		c-0.1954346-4.6957092-0.3908691-9.5870972-0.5862732-14.2825012c-0.0271912-0.2155457,0.0449219-0.4310913,0.1954041-0.5873413
		c25.631012-19.3692932,45.7828064-41.8693237,55.3690796-61.825943l-0.3908386-0.195694
		c-11.7391052,19.7609406-30.3264465,38.7391357-54.978241,56.3477783c-0.1954041,0.1956787-0.3908386,0-0.3908386-0.1954346
		c-0.9792175-30.1307373-0.9792175-55.1739044,0-76.1087036c0-2.9350281,0.1954346-5.8695526,0.1954346-9.195694
		c0-0.3913727,0.1954041-0.5870667,0.5862732-0.7827454c11.2824097-6.4994507,21.5093079-14.6804047,30.3264465-24.2606812
		l-0.1954346-0.195694c-9.1525879,8.1796417-19.2718506,15.2102509-30.131012,20.9345398
		c-0.1954346,0-0.3908691,0-0.3908691-0.1956787v-0.195694c0.5873413-37.3695831-0.1954041-80.8044052-2.1528015-101.3478317
		h-0.1954346c0.1954346,21.7175446-0.1954041,44.0218887-0.7827454,66.1305313
		c0.0021057,0.1055603-0.0815125,0.1933441-0.1870422,0.195694c-0.0031433,0-0.005249,0-0.0083618,0h-0.1954346
		c-9.1546936-9.6118927-17.3458252-20.0966644-24.4563599-31.3046112h-0.3919067
		c6.8346558,12.8444977,15.0341492,24.9143677,24.457428,36.0000458c0.3866577,0.348526,0.6008911,0.8493652,0.5862732,1.3697968
		c-0.5862732,14.4781952-1.1736145,28.5652618-2.1517944,42.2607117c-0.1954041,4.6956787-0.3908386,9.7827454-0.5873108,15.652298
		c0,0.195694-0.1954346,0.3913727-0.3908386,0.195694c-12.0369568-8.8335876-22.376709-19.7700958-30.5218811-32.2825317
		l-0.1964722,0.195694c7.3373413,14.0306396,17.6948853,26.259079,30.3264465,35.8043518
		c0.4211731,0.3231812,0.6437683,0.8420563,0.5873108,1.3695374c-0.3918762,16.4347992-0.5873108,32.8695831-0.3918762,49.3043671
		v0.1957092h-0.1954346c-22.2147217-13.4313049-41.1876831-31.6032562-55.5645142-53.2173309l-0.3918762,0.195694
		C314.0803223,256.4608459,333.2528992,276.5050049,356.2514038,291.3262024z M546.8171387,332.9998474
		c-1.5028076,0.0285034-3.0056152-0.0370789-4.5-0.1956787h-0.1954346V332.60849
		c6.4563599-6.4563599,12.9126587-12.9126892,19.173584-18.9779358
		c12.9127197-12.9129639,25.0426636-26.2172852,36.3909302-39.3262024l-0.3908691-0.1954041
		c-13.1091919,13.3043213-26.8046265,26.6083984-41.2827759,40.3040771h-0.1954346
		c-1.3282471-9.7678528-0.9980469-19.6898499,0.9781494-29.3477173h-0.3919067
		c-3.5427246,10.1668091-4.8772583,20.9724121-3.9126587,31.6957092c0.2173462,0.4292603,0.0449219,0.9530945-0.3845825,1.1701965
		c-0.0020752,0.0010376-0.0042114,0.0023499-0.0062866,0.0036621c-11.152832,9.9781799-21.5218506,19.9563599-30.9137573,29.7391052
		c-0.1055298-0.0023499-0.1932983,0.0817871-0.1954346,0.1875916c0,0.0026245,0,0.0052185,0,0.0081177
		c0.0209351,0.1483765,0.0888672,0.2857971,0.1954346,0.3913574l3.7172852,1.9563599h0.3919067
		c0.1953735,0,0.1953735,0,0.3908081-0.1954346c3.5218506-3.7175293,7.4356079-7.826416,11.9356079-12.5218506
		c0.2685547-0.3790894,0.7084961-0.5993347,1.173584-0.5870667c14.4572754,0.105835,28.6668701-3.7512207,41.0863037-11.1522827
		l-0.1954346-0.3913879C569.3955078,330.2155762,558.1904297,332.8167114,546.8171387,332.9998474z M326.9041748,471.3261719
		h-14.2827454l-2.152832,9.9781799h-10.7598572l13.1080933-52.8259583h14.0873413l12.9126892,52.8259583h-10.5654907
		L326.9041748,471.3261719z M324.7524109,461.3479919l-4.8919067-21.9132385l-4.8918762,21.9132385H324.7524109z
		 M425.9032593,507.7173157v-9.9781799h-33.0644836v52.8261719h10.3700562V529.043457h16.2380676v-9.9781494h-16.2380676
		v-11.3479919H425.9032593z M458.7733459,413.413147v-0.0002441l16.0437012-47.9345703l0.7827454,0.1956787
		c4.1091309,1.5649719,8.4126892,2.9347839,12.5218201,4.4997559l3.3253784-9.5868225
		c-12.1299438-4.3043213-24.6517944-8.6086426-36.9782104-12.3258972l-3.1299438,9.5868225
		c4.1081238,1.3695374,8.4126892,2.7390747,12.7172546,4.1086121l0.5873413,0.1957092l-16.0436707,47.9348145
		C451.9251099,411.2608643,455.4469604,412.2392883,458.7733459,413.413147z M475.5997925,471.3258972h-20.152832v-11.543396
		h13.6964722v-9.9781799h-13.6964722v-11.5434265h20.152832v-9.7825012h-30.5218811v52.8259583h30.5218811V471.3258972z
		 M450.1652527,550.5653076v-0.0002441h14.8690186c5.8105164,0.024292,10.5404358-4.6664429,10.5655212-10.4771729
		c0-0.0292969,0-0.0585327,0-0.0880737v-7.4345093c0.2591553-3.8499756-1.7212219-7.5050659-5.0873413-9.3913574
		c0,0-18.3908691-8.2175293-18.5873413-8.2175293c-1.0387878-0.6236572-1.6992493-1.7241211-1.7598572-2.9348145v-1.1738281
		c-0.0230103-1.7065735,1.3428955-3.1082458,3.049469-3.1304626c0.0271606-0.0002747,0.0532837-0.0002747,0.0804443,0h8.6081238
		c1.7766113-0.0373535,3.2564087,1.3549194,3.326416,3.1304626v2.1520386h10.3700867v-4.8911438
		c-0.061676-5.777832-4.7874146-10.4165649-10.5655212-10.3695374h-14.8690186
		c-5.7791748-0.0470276-10.5049133,4.5917053-10.5655212,10.3695374v5.4781799
		c-0.2591553,3.8497314,1.7201538,7.5050659,5.0873413,9.3914185c0,0,18.5862732,8.2172241,18.7817078,8.2172241
		c0.9781799,0.6834717,1.6177368,1.7507324,1.7609253,2.9350586v3.3258667
		c-0.0700073,1.7755737-1.5498047,3.1678467-3.326416,3.1304932h-8.6081238
		c-1.7065735,0.0222168-3.1079712-1.3432007-3.1299133-3.0497437c-0.0010681-0.0269165-0.0010681-0.053833,0-0.0807495v-2.3477173
		h-10.5655212v4.8911133C439.6436157,545.8163452,444.3484802,550.5206909,450.1652527,550.5653076z M401.0560303,337.8912354
		l-10.1736145,59.8695984c3.5218506,0.5870667,7.0426331,1.1738586,10.5644836,1.5652466l5.8700562-34.4348145l0.9781799,3.1304626
		c3.9137268,11.3477173,7.826416,23.0868225,11.7391052,34.4345398c2.7390747,0.5873413,5.4781494,1.1741333,8.4126892,1.7609253
		l9.9792175-59.8693542c-3.326416-0.7827454-6.8482361-1.3695374-10.3700867-2.1522827l-5.8690186,34.4348145l-0.9781799-2.9347839
		c-3.9137268-11.543396-7.826416-23.0868225-11.7401428-34.6304932
		C406.7296448,338.6739807,403.9905396,338.2828674,401.0560303,337.8912354z M353.7088013,396.7826843
		c-6.2661438-0.0044556-11.3440857-5.0826416-11.3482666-11.3479919v-37.7607117
		c0.1327209-6.3518372,5.1949768-11.4989929,11.5436707-11.7390747h14.8690491
		c6.3486938,0.2400818,11.4099121,5.3872375,11.5436707,11.7390747v37.7607117c0,0.0310974-0.0010376,0.062439-0.0010376,0.0932617
		c-0.0794373,6.2954102-5.2472229,11.334137-11.5426331,11.2547302
		C360.5559998,396.5869751,354.8823853,396.7826843,353.7088013,396.7826843z M353.3168945,381.9212036
		c-0.0522461,2.5371399,1.962616,4.6356201,4.5,4.6875916h6.8482361c2.5781555-0.0352478,4.6599121-2.1172791,4.6954346-4.6959534
		v-31.3040771c-0.1201782-2.5094299-2.1831055-4.486145-4.6954346-4.5h-6.8482361
		c-0.0491028-0.0007935-0.0971985-0.0007935-0.1463013,0c-2.444397,0.0404968-4.3944702,2.0548401-4.3536987,4.5v31.3040771
		C353.3168945,381.915741,353.3168945,381.918335,353.3168945,381.9212036z M297.1650696,403.4347229l-9.7827759-59.8696289
		c8.2172852-1.5652161,16.4345398-2.9347839,24.4563904-4.1086121c0.5726929-0.1614685,1.1673279-0.2275696,1.7608948-0.1957092
		c5.7519836,0.1050415,10.6073303,4.3024902,11.5437012,9.9781799l3.1309814,19.1741638
		c0.8161621,5.1437378-2.0221863,10.1717529-6.8482666,12.130188l-0.7827454,0.3913879l0.5873413,0.7827454
		c3.7172546,5.2824707,7.4345093,10.7609253,11.3471985,16.043396c-3.5218506,0.5870667-6.8471985,0.9781799-10.3690491,1.5652466
		c-3.9137268-5.4781799-7.6309814-10.7609253-11.5436707-16.2391052l-0.1964722-0.3913879l-0.5862732,0.1957092
		c-1.3700562,0.1956787-2.9345093,0.3913574-4.3045654,0.5870361l-0.7827454,0.1957092l2.9355469,18
		C304.2087402,402.2608643,300.6868896,402.8479004,297.1650696,403.4347229z M299.5122681,351.5869446l3.5218201,22.1086426
		l0.9781799-0.1956787c3.1309814-0.586792,6.2609253-1.1738586,9.3908691-1.5649719
		c1.2394104-0.1400452,2.3680725-0.775177,3.1309814-1.7609253c0.6677856-1.0450439,0.9447327-2.2923279,0.7827454-3.5218201
		l-2.1517639-12.9129639c-0.4723816-2.4598083-2.808075-4.1033936-5.2827759-3.7172546
		c-3.1299133,0.3911133-6.2609253,0.9779053-9.5873108,1.5649719H299.5122681z M247.0776825,497.7391357v52.8261719h30.912735
		v-9.9781494h-20.5431824v-42.8480225H247.0776825z M193.4689941,351.0001526h0.1959534l3.5218353-1.7609253l0.3908539-0.3913879
		c0-0.1956787,0-0.1956787-0.1954346-0.3913574l-4.1086273-4.1086426c-0.2168579-0.3568726-0.3506165-0.7581787-0.3913727-1.1738586
		c-0.109726-13.7928772-5.1003876-27.1011353-14.0873413-37.5650024l-0.3908539,0.1954346
		c6.8670654,9.941864,10.4892273,21.7653503,10.3690338,33.8477478h-0.1954193
		c-8.6081085-8.8043213-18.1954498-17.6083984-28.1736298-26.6083984c-0.366806-0.1873169-0.594635-0.5669556-0.587326-0.9784241
		c1.0649109-10.1490479-0.7665405-20.3924255-5.2827454-29.5437012l-0.1954193,0.1956787
		c2.9329376,8.682312,3.7381592,17.9420166,2.3477173,27.0000305h-0.1954346
		c-11.152298-10.1738586-23.478714-22.3043518-37.5650101-37.173645l-0.1959457,0.1954346
		c13.5005341,15.9749756,27.8010712,31.2552185,42.8477631,45.7828064c2.5436554,2.3477173,5.0868073,4.8911133,8.0218353,7.8261414
		c-1.5654907,0-3.3264008,0.1956787-4.8913727,0.1956787c-12.592392-0.2134399-24.9700165-3.2911377-36.1959991-9.0002747v0.3913879
		c12.861496,7.9844666,27.7101593,12.1879578,42.8482971,12.1304626h1.5649567
		c0.2152863-0.0266418,0.4310913,0.0451965,0.5868073,0.1956787c5.674118,5.6738892,12.1309967,12.3261719,19.565506,20.5434265
		C193.1831818,350.9110413,193.3206024,350.9794922,193.4689941,351.0001526z M286.4041443,428.4783936h-8.2172852
		l-11.5436707,26.4129639l-11.3482361-26.4129639h-8.2172699v52.8259583h10.3695526v-24.4563904l9.1959534,21.1302185
		l9.3908691-21.1302185v24.4563904h10.3700867V428.4783936z M533.7079468,394.2392883l-17.4127197,33.4563599
		c-1.8800049,3.7749939-5.7613525,6.1344604-9.9781494,6.0652466c-1.8528748,0.0342102-3.679657-0.4394531-5.2827454-1.3695374
		c-4.5000305-2.3479919-8.8045959-4.5000305-13.3045959-6.8479919c-2.7568665-1.3023987-4.822937-3.7243042-5.6736145-6.6520386
		c-0.9812927-2.8302612-0.769165-5.9377441,0.5873108-8.6086426l17.4127197-33.4566345
		c2.0472717-3.923645,6.139679-6.3492126,10.5654907-6.2606506c1.7609253,0.0146179,3.4967651,0.4154053,5.0863037,1.1738586
		c4.3045654,2.1520081,8.8045654,4.5,13.1091309,6.8477173C534.4802246,381.5664063,536.6675415,388.565155,533.7079468,394.2392883
		z M520.5998535,385.6303711c-1.9573975-0.9781799-3.9137573-2.1520386-6.0654907-3.130188
		c-0.5863037-0.3720398-1.2624512-0.5750427-1.9563599-0.5873413c-1.7431641-0.0062561-3.3379211,0.9808044-4.1091614,2.5436707
		l-14.4781799,27.7825317c-0.5497131,1.0962524-0.6207581,2.3714905-0.1954346,3.5218201
		c0.3009644,1.1746521,1.0816345,2.1687622,2.1517639,2.7391052c1.9563293,0.9784241,4.1091614,2.1520081,6.0654907,3.1304626
		c0.6646729,0.3521729,1.4003906,0.5525513,2.1517639,0.5870361c1.7431641,0.0065308,3.3379211-0.9807739,4.1091614-2.543396
		l14.2827454-27.7827759c0.0250854-0.0462341,0.0501709-0.0930176,0.0731812-0.1400452
		C523.7590332,389.5002136,522.8498535,386.7600708,520.5998535,385.6303711z M246.6868439,407.5436096l-12.1309967-35.8043518
		c-2.0733948-6.0466919,1.0513153-12.6436157,7.0436707-14.8695679c4.6959534-1.5652161,9.3913727-3.1304626,14.087326-4.6956787
		c1.1338959-0.3848572,2.3236847-0.5831604,3.5218353-0.5870667c5.0779114,0.0666199,9.5904541,3.2563782,11.3471985,8.0218201
		l11.9345398,35.8041077c0.9823303,2.8305359,0.769165,5.9379883-0.5862732,8.6088867
		c-1.3627625,2.7101135-3.7611694,4.7557983-6.6517944,5.6738586c-4.6964722,1.5652466-9.3919067,3.1304626-14.0873413,4.6957092
		c-1.2268677,0.5585938-2.5661316,0.8263855-3.9131775,0.7827454
		C252.4759216,415.1051025,248.2533722,412.0556335,246.6868439,407.5436096z M245.9040985,370.9565125l9.9781799,29.7391052
		c0.6374664,1.8421631,2.355545,3.0917969,4.3040619,3.1304626c0.586792,0,0.9786682-0.1956787,1.5654907-0.1956787
		c2.1522827-0.7825012,4.3040466-1.5649719,6.4568481-2.3477173c1.1161194-0.3192749,2.0430908-1.1030579,2.5436707-2.1522827
		c0.6082153-1.0704041,0.7492981-2.343811,0.3908691-3.5215759l-10.1741333-29.7391357
		c-0.5700989-1.8910217-2.3299561-3.1706848-4.3040771-3.1304626c-0.5873108,0-0.9781647,0.1957092-1.5654755,0.1957092
		c-2.1517792,0.7824707-4.3045807,1.5649719-6.4563599,2.3477173c-0.0114899,0.0039063-0.0229797,0.0078125-0.0344849,0.0119934
		C246.2985992,366.1111145,245.0873871,368.6461487,245.9040985,370.9565125z M348.0341492,550.5650635h-10.7609253
		l14.4781799-52.8259277h14.0873413l14.2827454,52.8259277h-10.7609253l-2.3482361-9.9781494h-16.4345093L348.0341492,550.5650635z
		 M353.12146,530.6087036h11.3471985l-5.673584-21.9129639L353.12146,530.6087036z M376.2088013,465.8477173h-12.5218201v15.4566345
		h-10.3700867v-52.8259583h22.8919067c0.0376282-0.0002441,0.0752563-0.0002441,0.1139221,0
		c5.6955566,0.0316162,10.2864685,4.6740112,10.255127,10.3695679v16.4345093
		C386.6248779,461.0605774,381.9858704,465.7865906,376.2088013,465.8477173z M376.2088013,441.586792
		c0.0365906-1.7763367-1.3554077-3.2556152-3.1309814-3.3258972h-9.3908386v17.6089172h9.3908386
		c0.0271912,0.0002441,0.0533142,0.0002441,0.0804749,0c1.7065735-0.0224915,3.0724792-1.4238892,3.0505066-3.1307373V441.586792z
		 M210.099472,381.3260498c4.1091614-1.9563293,8.0218353-3.9129333,12.1304779-5.8692932l-4.6954346-9.0002441
		c-11.739624,5.6738586-23.2827759,11.7393494-34.6304932,18.0002747l4.6954193,8.8043213
		c3.913208-1.956604,7.826416-4.1088867,11.7391052-6.2609253l0.7827454-0.3913879l23.2827759,44.9998169
		c3.1304626-1.7609253,6.2609253-3.3258972,9.3913879-4.8911438l-23.2827759-45.0000305L210.099472,381.3260498z
		 M418.8595886,590.8696899c5.8104858,1.0497437,11.7046204,1.5738525,17.6091614,1.5652466
		c23.2827759,0,34.0437012-4.1086426,40.500061-6.8479614c-7.0436707,1.369751-13.6954651,3.5217896-37.173645,3.5217896
		c-21.5218506,0.1956787-48.5218811-12.913208-65.9346008-12.913208c-11.1517639,0-21.7172546,3.1304932-26.8045959,10.5654907
		c0,0,0,0.1956787-0.1954346,0c-8.0239258-5.3516846-17.3635559-8.3972778-27.0000305-8.8043213
		c-6.8482361,0-14.4781799,3.3259277-21.9137268,7.630249h-0.3908691
		c-20.1517944-2.9348145-39.3264465,0.9783936-58.3046417,8.413208c19.7609406-5.0870972,38.3482819-8.2175293,53.2173309-5.2827759
		v0.1956787c-8.8035583,5.2824707-17.6081238,11.1520386-25.2391357,13.6954346
		c16.0437012-1.7606201,36.7828064-19.9563599,53.0219116-19.9563599c10.7609253,0,21.7172852,6.6522827,24.4563599,8.6086426
		c0.1065979-0.0023193,0.1933289,0.0817871,0.1954346,0.1873169c0.0010376,0.0028687,0.0010376,0.0054932,0,0.0081177
		c-0.8757629,2.847229-1.1433105,5.8473511-0.7817078,8.8045654c5.2817078-14.6738281,15.8471985-18,30.5218506-18
		c11.347229,0,22.6954651,4.1086426,35.8035889,7.0436401c0.1964722,0,0.1964722,0,0.3918762,0.1954346
		c8.020813,6.8480225,22.6954651,13.8914185,29.9345703,15.0652466l2.9345093,0.5870972l-2.9345093-1.1738892
		c-5.8700867-2.3477173-16.6299744-7.6304321-22.1091919-12.9129639c-0.0020752-0.1057739,0.08255-0.1932983,0.1881104-0.1956787
		C418.8554077,590.8696899,418.8574829,590.8696899,418.8595886,590.8696899z"/>
</g>
</svg>
