<?xml version="1.0" encoding="utf-8"?>
<!-- Generator: Adobe Illustrator 22.0.1, SVG Export Plug-In . SVG Version: 6.00 Build 0)  -->
<svg version="1.1" id="Layer_1" xmlns="http://www.w3.org/2000/svg" xmlns:xlink="http://www.w3.org/1999/xlink" x="0px" y="0px"
	 width="720px" height="720px" viewBox="0 0 720 720" style="enable-background:new 0 0 720 720;" xml:space="preserve">
<style type="text/css">
	.st0{fill:#A7A9AC;}
	.st1{fill:#003D7D;}
	.st2{fill:#002D56;}
	.st3{fill:#FFFFFF;}
</style>
<g>
	<path class="st0" d="M357.8964539,434.6526489l137.8577576-68.782074
		c94.4165039,26.5148926,122.3989258,62.324646,122.3989258,62.324646l54.0081787-61.0527039
		C675.0965576,364.0116272,684,352.9557495,684,332.8982544c0-21.6228638-22.6012573-38.4515076-38.4514771-49.8010254
		c-26.9061279-70.5432892-175.6243591-90.9920349-186.58255-115.5500946
		c-3.8158569-8.512146-25.4387512-81.8929214-25.4387512-81.8929214
		c-12.9147339-37.962326-51.1704712-37.962326-65.5530701-37.962326c-14.4804382,0-45.4960327,4.8920593-45.4960327,4.8920593
		c0,52.9319153-7.1423645,117.4091568-14.6761475,129.2478027c-18.9390869,9.6506042-38.4450989,18.1456757-58.4110107,25.4386139
		l-75.3374786-50.7794037l19.763855,68.2929382C66.9177399,294.5444336,36,416.160675,36,416.160675
		s32.5810318,256.1474304,353.6948853,256.1474304c169.7540283,0,267.7904663-82.088501,267.7904663-82.088501
		L602.7922974,467.918457c0,0-83.5561523,43.4413757-190.3005371,43.4413757
		c-98.427948,0-136.879425-45.8873596-150.9685059-72.5979309
		C344.8836975,441.2079163,357.8964539,434.6526489,357.8964539,434.6526489z"/>
	<path class="st1" d="M353.0046082,421.0526733l141.3798523-70.6412659
		c95.7863159,27.0041199,123.3779297,56.2586365,123.3779297,56.2586365l43.8323364-49.3119202
		c0,0,8.0231323-7.533844,8.0231323-24.460022c-0.0979614-15.8503723-23.7755737-31.7983398-36.3967896-40.7996216
		c-26.2214355-70.836792-170.9283752-83.7519836-186.8766174-117.213562
		c-6.4571838-13.4041595-14.6760864-45.3980255-26.6125183-84.4364777
		c-9.5884094-28.1784172-37.8647461-28.1784172-51.9533691-28.1784172
		c-10.3866272,0.2513885-20.7462158,1.1662292-31.0159607,2.7396355c0,28.8628845-5.4786682,112.7127838-18.8831177,127.1930389
		c-3.3264771,4.1094513-27.982605,14.0892181-54.7903442,24.4603119l8.022522,5.3813477l-8.2183228,8.2183228
		l-15.4587402,15.4590302l-16.9273224,53.0297546l-22.1117096-11.545105l7.8272705,19.6661072l-39.4300842,6.5550537
		l22.3075256,7.7293701l-64.1835175,49.3119507l17.3183594,1.369812l-22.8949585,41.3867493
		c32.9723358-14.9697876,43.050293-17.8070374,43.050293-17.8070374l-9.4911041-9.7842102l66.5321198-26.8083191
		c0,0-4.9897308,13.3062439-4.9897308,39.1363525c0.1382141,5.2316284,0.7602081,10.4396362,1.8590546,15.5566406
		c8.2183075,40.2127686,47.4525909,123.1817932,186.093399,123.1817932
		c100.2865295,0,177.6786804-35.0271912,177.6786804-35.0271912l35.9077759,80.4252014
		c0,0-94.1230469,65.1620483-236.4814148,65.1620483c-290.9786377,0-327.8643188-228.7518311-327.8643188-228.7518311
		c40.1142731-107.3316956,107.6248703-154.2950745,150.5766602-174.2548676l-13.4038544-1.4674377l-1.1743011-4.0115356
		C84.2355804,301.2955627,50.676384,417.2366638,50.676384,417.2366638s34.537674,240.6888123,339.0186462,240.6888123
		c155.7622375,0,249.9832458-72.206604,249.9832458-72.206604l-44.0288086-98.5256958
		c0,0-82.2833862,38.5491943-183.1573792,38.5491943c-150.1861877,0-172.395813-102.4393005-172.395813-102.4393005
		S325.609436,428.3907166,353.0046082,421.0526733z M243.1290588,344.9324341l-77.0005341,11.545105l83.2624664-56.0628357
		L243.1290588,344.9324341z M313.3792725,221.6530304l-44.51828,71.1302338l-15.6545563-37.3752289L313.3792725,221.6530304z
		 M289.7010803,288.4782715l35.614624,29.8413696l-71.7176514-9.6863098L289.7010803,288.4782715z M186.3817596,348.6502686
		l56.3556671-38.2557983l-5.2834473,30.2330017L186.3817596,348.6502686z M300.3658752,235.839859l-32.9723206,44.6153412
		l-5.1855469-23.0904846L300.3658752,235.839859z M312.5960388,312.3514404l-46.7678223-5.6748047l19.2747498-10.3710938
		L312.5960388,312.3514404z M206.8302307,236.3290863l-20.9380035-61.7376099l73.2830048,50.5835724l-15.0677032,20.2532349
		L206.8302307,236.3290863z M192.1887207,268.0493774c-0.0063477,0.0037537-0.0126801,0.0075073-0.0190125,0.0115356
		l-0.0155487-0.0314026L192.1887207,268.0493774z M124.9372864,400.4084167l-10.5669098,31.7983093l51.953949,6.3595581
		l-11.9369965,45.5938416l27.1026001-12.7193909l14.2844391,50.9751587l30.4285126-0.3916016l0.5868683,33.2657471
		c0,0,50.1927948,31.4069824,127.2912445,39.52771c100.971283,10.6647949,211.9232178-32.8744507,211.9232178-32.8744507
		s-93.0466919,35.5161743-197.0513611,26.2214966c-78.7622375-7.0443726-125.2363586-39.2340088-125.2363586-39.2340088
		l-8.2183228-36.8862915l-24.6561127,3.1309814l-20.6442871-52.5404968l-21.5254364,6.3598328l10.371109-35.8098755
		l-50.0943298-9.2950134l24.6561127-16.241394l28.6667938-10.3713684l-4.7939301-10.3710938l36.6904602-12.1322632
		c-0.9341431,7.6611328-1.3914185,15.3726501-1.3695374,23.0904846c0,41.0930481,40.1142731,150.4793396,199.7909851,150.3814392
		c58.6247864-0.2853394,116.7323914-10.9859009,171.6125793-31.6025391l27.1020508,60.7591553
		c-25.4387817,15.0673828-108.211731,58.0194702-221.6095886,58.0194702
		c-262.6049805,0-310.2533875-188.6369324-315.7326355-215.9347534
		c31.8360519-83.0050354,79.7338333-127.6770935,118.2073135-151.4261475l17.1064301,34.604187l-49.3116455,9.490509
		l30.1347961,11.9367371l-69.4669724,51.757843l16.6330185-0.3913269l0,0L124.9372864,400.4084167z M222.5826721,285.3473206
		l-30.3939514-17.2979431c16.6186218-10.2564697,31.488205-16.6318665,42.5261993-20.4686127L222.5826721,285.3473206z"/>
	<path class="st2" d="M597.6066895,296.8926086c-59.9764404-4.8920288-83.2625732-24.5580444-83.2625732-40.0169983
		c0-7.4358978,6.8488159-8.8056793,11.4473877-8.8056793c24.4602051,0,62.324646,19.3725128,68.4885864,35.9077301
		c-10.7624512-11.5452271-29.5480347-21.6228638-43.8327026-21.6228638c-3.03302,0-6.2618408,0.8805847-6.2618408,4.6963501
		c0,9.6862488,17.2199707,24.851593,80.1317139,31.8961487c-24.0688477-69.4670258-156.9367065-74.3590851-186.7781982-117.996109
		c-8.3164978-12.1322632-22.0141907-89.622261-35.8097229-100.2869034
		c-15.1653748-11.6430664-54.1060181-6.3596802-54.1060181-6.3596802c0,10.7624893-2.6416931,105.8638229-22.3076782,125.7255478
		c-13.3063965,11.1538391-35.6140747,16.0458984-62.3246765,30.1349792l-15.4588318,15.4588776l-16.9264679,53.0297699
		l-22.1120605-11.5452271l7.827301,19.6660461l-39.4298706,6.5553284l22.3077087,7.7294312l-64.1836243,49.3117676
		l17.3178253,1.369812l-22.8947601,41.3866577c32.9723816-14.9697571,43.0499878-17.8070068,43.0499878-17.8070068
		l-9.4905853-9.7841187l66.5318298-26.8084106c0,0-4.9899139,13.3063965-4.9899139,39.1364136
		c0.1384888,5.231781,0.760788,10.4395447,1.8589172,15.5566711
		c2.8373871-5.4790955,55.1822662-102.0479126,167.3079071-108.6033936l-46.9635315,36.2989502l-93.1446228,71.9130249
		c0,0,76.7072449,3.2287598,95.4927063-2.1524963c59.2915955-27.5911255,106.7444153-53.3232727,143.9238281-72.0108948
		c35.7119141-17.9048462,62.031189-29.1565552,80.2295532-29.1565552c22.5033569,0,53.7146606,21.7206726,80.4251709,40.1147766
		c1.2937622-1.2133789,2.3258667-2.6783752,3.0330811-4.3050232c6.4574585-22.9926147-26.906189-40.9953003-59.0959473-48.6268921
		L597.6066895,296.8926086z M243.1291809,344.9325867l-77.0006561,11.5452271l83.2624664-56.0630188L243.1291809,344.9325867z
		 M313.3789063,221.6529846l-44.5175781,71.1303101l-15.6546478-37.3751831L313.3789063,221.6529846z M253.598175,308.6335144
		l36.103241-20.1551208l35.6141052,29.8414612L253.598175,308.6335144z M383.7265625,189.7569427
		c-11.0560303,0.6848907-33.4616089,7.9251251-33.4616089,7.9251251s20.1552429-11.6430664,24.2645569-17.9048767
		s5.1855469-76.8051147,5.1855469-76.8051147s6.4574585,69.0756683,11.9365845,76.0223694
		s25.8299866,15.5567017,25.8299866,15.5567017s-25.6343079-5.2834167-33.7550964-4.7942047H383.7265625z"/>
	<path class="st3" d="M592.9104614,331.1369629l16.1434937,8.7078247c-2.4735718,1.7585754-5.0548096,3.3598938-7.7293701,4.79422
		c-0.9019165,0.178833-1.8268433,0.2119446-2.739624,0.0976257c-4.7875977-2.0925903-9.458313-4.4440613-13.9907227-7.0443115
		c-0.7832642-0.5871582-0.9790649-0.9784851-0.7832642-1.4677429
		C586.6824951,334.255249,589.7285156,332.5522461,592.9104614,331.1369629z M619.131897,361.9567871
		c-0.489563,0.1955261-3.81604,2.7393494-6.3604126,4.6963196l16.0461426,9.8818665l5.968811-6.5553894
		c-4.892395-3.3264771-11.9370117-8.2185974-12.5238647-8.4141235
		C621.2028809,361.4646912,620.1339722,361.5982971,619.131897,361.9567871z M618.3486328,355.6948547
		c1.0153809-0.0241699,2.0145874-0.2574158,2.9354248-0.6847534c1.8493042-1.2523193,3.614502-2.6250305,5.2835083-4.109436
		l-14.4802856-9.197113c-2.6100464,1.5809021-5.1256714,3.3124084-7.5341187,5.1855469
		c0.1531982,0.5690308,0.4198608,1.1014404,0.7832642,1.5656433L618.3486328,355.6948547z M560.7202148,328.1038818h0.0005493
		c6.2619629,2.4459229,14.8718872,5.967926,15.5566406,6.0661316c1.1939087,0.2444763,2.4257813,0.2444763,3.6202393,0
		c0.7826538-0.1958008,5.8703003-2.739624,9.5883789-4.6963196c-3.6201782-1.7611389-10.9584961-5.1858215-15.8503418-5.1858215
		C569.1665649,324.9199219,564.8149414,326.2053833,560.7202148,328.1038818z M226.3007965,413.420929
		c2.8369598-2.8372498,60.1716766-59.9764404,120.4418793-72.3042297l46.963623-36.2991028
		C281.580658,311.4708557,229.2356567,408.039856,226.3007965,413.420929z M391.7493286,178.9943542
		c-5.4786682-6.9466858-11.9364319-76.0223389-11.9364319-76.0223389s-1.0763855,70.5430756-5.1855469,76.8050079
		s-24.2644653,17.9049377-24.2644653,17.9049377s22.405426-7.338028,33.4612732-7.9251709
		c8.1210022-0.4892426,33.8534851,4.7942047,33.8534851,4.7942047S397.2286072,185.9410553,391.7493286,178.9943542z
		 M624.3174438,357.1625977c-0.3916016,0.8805542-0.489563,1.1739807-0.2937012,1.369812
		c0.489502,0.4892273,8.0224609,5.4789734,13.1107178,8.9033813l5.8703003-5.8703308l-13.4038696-8.6102295
		C627.6824951,354.1482544,625.9092407,355.5600891,624.3174438,357.1625977z M541.0549927,335.5395508l23.3833008,8.3164978
		c3.2734985-1.2626953,6.4191895-2.8352356,9.3931885-4.6962891c0.2937012-0.6847839,0.2937012-1.1740112-0.6853027-2.0545959
		c-0.6842041-0.6850586-11.1531982-4.5007935-17.6109619-6.9466858L541.0549927,335.5395508z M659.0509033,335.6374512
		c0-14.284729-18.7852173-23.9710693-34.7334595-36.6901855c-62.9119263-7.0445862-80.1317749-22.2098999-80.1317749-31.8962402
		c0-3.8157043,3.2285767-4.6962891,6.2613525-4.6962891c14.2849731,0,33.0702515,10.0776672,43.8329468,21.6227722
		c-6.2613525-16.4372253-44.0281982-35.9077911-68.4885254-35.9077911c-4.5986938,0-11.4474487,1.4677124-11.4474487,8.8057404
		c0,15.4590454,23.2860107,35.1248474,83.2624512,40.0169678c32.1902466,7.6317444,65.5536499,25.5366821,59.0958862,48.724762
		C658.3171997,342.5429688,659.1252441,339.1093445,659.0509033,335.6374512z M616.0006104,359.60849
		c0.2931519-0.4892273,0.0979004-1.0760803-0.3910522-1.6632385c-0.7832031-0.6850586-12.3280029-6.9466858-13.2091675-7.1425171
		c-1.2203979-0.1177673-2.4522705,0.015564-3.6202393,0.3916321c-0.4889526,0.1955261-3.9133301,2.5438232-7.0440063,4.79422
		l17.7088623,8.2185974C611.7198486,362.8062744,613.9089355,361.270874,616.0006104,359.60849z M595.2584229,349.0419006
		v-0.0003052c0.3029785-0.463623,0.374939-1.0412598,0.1958618-1.5653381
		c-4.4967651-2.8119202-9.2072144-5.2653198-14.0892334-7.3380432c-1.1201782-0.2712402-2.3002319-0.1324463-3.3264771,0.3913574
		c-1.076416,0.4892273-7.1425171,3.9136353-9.3926392,5.087616l18.7852173,8.5123291
		C590.1621704,352.6281128,592.7779541,350.9277344,595.2584229,349.0419006z M493.1122742,338.9642334
		c86.4916077,22.9925537,123.3772888,52.9318542,123.3772888,52.9318542l9.1973877-10.3710938
		c-4.3049316-3.2288818-36.2009277-25.1450806-98.623291-45.5938416
		c18.5894165-7.3380127,41.0927734-16.0458679,47.1594849-16.0458679c13.7954712,0,42.1691284,17.9046326,72.5976563,37.8641663
		l6.9466553-7.8269958c-26.6130371-18.394165-57.8242188-40.1148376-80.4254761-40.1148376
		C555.0462646,309.8076172,528.7269287,321.0592957,493.1122742,338.9642334z"/>
</g>
</svg>
