<?xml version="1.0" encoding="utf-8"?>
<!-- Generator: Adobe Illustrator 22.0.1, SVG Export Plug-In . SVG Version: 6.00 Build 0)  -->
<svg version="1.1" id="Layer_1" xmlns="http://www.w3.org/2000/svg" xmlns:xlink="http://www.w3.org/1999/xlink" x="0px" y="0px"
	 width="720px" height="720px" viewBox="0 0 720 720" style="enable-background:new 0 0 720 720;" xml:space="preserve">
<style type="text/css">
	.st0{fill:#FFFFFF;}
	.st1{fill:#B4975A;}
	.st2{fill:#333F42;}
</style>
<g>
	<path class="st0" d="M397.7640991,71.4641495C391.2351379,65.3803558,360.0742188,36,360.0742188,36
		s-31.3093872,29.3803558-37.8383789,35.4641495H120.5797882v442.7826843
		C195.9597015,597.6395264,259.0235901,637.5552979,360.0742188,684
		c100.6053467-46.4447021,163.9660645-86.2120361,239.3460083-169.7531738V71.4641495H397.7640991z"/>
	<path class="st1" d="M394.4996643,79.7737808c-0.2967834-0.2968292-34.4254456-32.3480339-34.4254456-32.3480339
		s-34.1287231,31.9028206-34.5739136,32.3480339H128.8894043v431.2085876
		c70.631546,78.1993408,133.3986816,118.8569336,231.1847839,163.817749
		c97.3410034-44.9608154,160.2564392-85.3217773,231.0363464-163.817749V79.7737808H394.4996643z"/>
	<path d="M574.3430786,96.3929901v408.2088013c-64.399353,71.3734741-131.766449,113.8117676-214.2688599,151.7985229
		c-82.5023804-37.9867554-150.0178223-80.4251099-214.4171753-151.7985229V96.3929901h144.2308655
		c-56.8317108,33.0900116-94.2247925,90.6635437-94.2247925,168.4176483v219.6107178
		c38.7286377,40.2124329,91.1087952,80.5733337,140.8179626,104.018219l-109.2119904-314.725769l102.8312531,49.4124146
		l-12.464386,12.3158875l36.947998,119.302063h10.9805298l36.7996521-119.302063l-12.464447-12.315979l102.8312378-49.4124146
		L383.667511,588.4395752c49.2640381-23.2965088,101.6441345-63.5090332,140.6695251-104.018219V264.662262
		c0-77.6056213-37.244751-135.1792908-94.076416-168.2693481L574.3430786,96.3929901z"/>
	<path class="st2" d="M504.7502747,229.9399872l-121.8242798,58.6122589l-22.8511047,73.5992432V47.4256706l0.2965088,0.2967873
		c3.7085266,3.5611458,34.1283875,32.0511856,34.1283875,32.0511856s-2.9684448,2.967865-5.93573,15.5805588
		C452.8158264,118.7991638,493.9176941,166.875946,504.7502747,229.9399872z M425.3644104,558.7624512l15.7282104-20.3288574
		c0,0,41.2512817-31.7543945,66.624939-60.8380127V343.454834l8.3100281-47.1864319L425.3644104,558.7624512z
		 M212.2828369,343.454834l25.2253876,72.263855l41.9925079,98.9731445l-75.5279236-218.4234314L212.2828369,343.454834z
		 M231.7207336,237.9529419l105.5018921,50.5993042V134.379715l-8.3099976,140.3726959L231.7207336,237.9529419z"/>
	<path class="st0" d="M360.072998,444.2083435l-5.4901733,10.5372009l-36.947998-119.3034363l12.4663391-12.3151245
		l-2.9692993,14.690033L360.072998,444.2083435z M492.73172,273.712677L383.6683044,588.439209l14.5414429-16.9163208
		l105.2051392-302.8546143L492.73172,273.712677z M331.4357605,95.3542404
		c-0.7636108-3.3286285-1.755188-6.6008224-2.9676819-9.7934189c-0.5953369-2.1068802-1.604187-4.0741348-2.9677734-5.7870407
		c-76.4185791,27.8964996-129.8373871,91.9990463-129.8373871,185.0368652v219.6107178
		c2.670929,2.8193054,5.4902039,5.6386414,8.3096161,8.4579468V264.662262
		c0-77.9025116,37.5415497-140.669632,119.1536255-174.7983093
		C326.0643005,91.4256821,328.8467712,93.2640991,331.4357605,95.3542404z"/>
</g>
</svg>
