<?xml version="1.0" encoding="utf-8"?>
<!-- Generator: Adobe Illustrator 22.0.1, SVG Export Plug-In . SVG Version: 6.00 Build 0)  -->
<svg version="1.1" id="Layer_1" xmlns="http://www.w3.org/2000/svg" xmlns:xlink="http://www.w3.org/1999/xlink" x="0px" y="0px"
	 width="720px" height="720px" viewBox="0 0 720 720" style="enable-background:new 0 0 720 720;" xml:space="preserve">
<style type="text/css">
	.st0{fill:#8E9090;}
	.st1{fill:#041E41;}
	.st2{fill:#FFFFFF;}
	.st3{fill:#7B303E;}
	.st4{fill:#AC162C;}
	.st5{fill:#55565A;}
</style>
<g>
	<path class="st0" d="M684,360c0,178.9402466-145.0597534,324-324,324S36,538.9402466,36,360S181.0597382,36,360,36l0,0
		C538.9358521,36.0105896,683.9894409,181.0641327,684,360z"/>
	<path class="st1" d="M662.1733398,360c-0.0361328,166.921875-135.3822632,302.2094727-302.3041382,302.1734009
		c-166.921875-0.0361328-302.2095032-135.3822632-302.1734009-302.3041382S193.0780792,57.6597519,359.999939,57.695858H360
		c166.8748779-0.0108299,302.1625366,135.2592316,302.1734009,302.1341553
		C662.1734009,359.8866882,662.1734009,359.9433289,662.1733398,360z"/>
	<path class="st2" d="M389.2762756,138.9898987L360,65.4070053l-30.9754028,73.5828934
		c-110.6774445,15.0844421-193.2204742,109.5708466-193.302124,221.2714539
		c0,123.3787842,100.8987427,223.3626099,224.2775269,223.3626099
		c123.3471069-0.493042,222.9400024-100.8853149,222.4469604-224.2324524
		c-0.4450684-111.3491364-82.8411865-205.3605347-193.1706543-220.4017487L389.2762756,138.9898987z"/>
	<path class="st3" d="M497.494751,347.8449402l24.1785889-67.0477905l-66.2637939,25.0938416l-1.1767273-35.6804504
		l-45.3518372,45.2214966c1.1767273-7.0578308,17.2522888-101.4217682,17.2522888-101.4217682l-42.9995117,28.1001282
		l-23.133667,10.3250732l-22.7418213-10.5863037l-42.4758606-27.8388977c0,0,17.1204834,101.2908478,17.1204834,101.4217682
		l-45.2212219-45.2214966l-1.3073425,35.6804504l-66.2638092-25.0941467l24.1797943,67.0480957l-35.6813202,0.2615356
		l36.2037964,31.4979858v38.5558472l13.3313599-6.6654053l25.0941315,1.5683289l24.3092346,21.1729126L272.1712036,452.0112
		l23.551178,3.8608398l-12.0496521,29.46698v33.7200012l53.1936951-26.2700195l4.0515137-10.0638123l19.0821533,92.2725525
		l19.212738-93.0568542l4.3127747,10.848114l53.3243103,26.2700195v-33.7200012l-19.8658447-28.4919739l0.3918457,0.3921509
		l31.2367554-5.0973816l-14.245697-17.7747803l24.3103943-21.1731873l24.7011108-1.6989441l13.3313599,6.6656799v-38.2945862
		l36.4650269-31.7595215L497.494751,347.8449402z"/>
	<path class="st4" d="M516.5759888,286.1556702l-63.2577515,23.9177246l-18.5591431,32.0209656l12.6775818,6.012085
		L516.5759888,286.1556702z M421.6893616,220.4146423l-37.9023743,24.9633179l4.182312,19.6046753L421.6893616,220.4146423z
		 M195.582077,350.9818115l28.1000519,24.5711975v-24.7019043L195.582077,350.9818115z M346.2767029,492.9196472L360,562.4509277
		v-38.1636963L346.2767029,492.9196472z M311.9031677,319.6143188l-0.1307068-0.1307068l-42.3460693-42.2153625
		l-1.3070068,32.8051453l-63.3884583-23.9177246l61.9507751,64.9568481l52.0177307-24.8325806L311.9031677,319.6143188z
		 M336.6050415,244.9858551l-37.6408997-24.7018738v0.3920898l30.0605469,73.3215179l1.9604187-23.1335144L336.6050415,244.9858551z
		 M322.228241,417.1149902l-55.1543884-3.6595459l23.3948975,20.3888855
		c-0.3920898,0.9148865-12.6775818,16.0758667-12.6775818,16.0758667l27.1851501,4.4437256l17.2521362-24.7019043
		L322.228241,417.1149902z"/>
	<polygon class="st5" points="496.4484253,317.6532288 478.4113159,362.8757019 393.9805603,322.6200562 389.4064331,270.8650818 
		360.0008545,136.375946 331.116272,270.8650818 326.5422058,322.6200562 242.1114349,362.8757019 223.5506439,318.3078003 
		223.6815491,340.2644653 223.6815491,418.1600952 237.1446075,411.4940186 322.2273254,417.1154175 322.2273254,429.7929993 
		283.673584,485.3392029 283.673584,519.0596313 336.9968872,492.7881165 341.3091431,481.678894 360.0008545,524.2883301 
		379.2135925,481.678894 383.5258484,492.7881165 436.8491821,519.0596313 436.8491821,485.3392029 398.2954102,429.7929993 
		398.2954102,417.1154175 483.3781433,411.4940186 496.8411865,418.1600952 496.8411865,340.2644653 	"/>
	<polygon class="st0" points="336.8659973,271.6479187 332.0300598,326.4112854 329.4170532,357.3852234 323.9265747,330.3308105 
		239.1056671,370.8482666 229.5647736,347.9752197 229.5647736,408.7500916 235.9690094,405.4825134 328.1105347,411.624939 
		328.1105347,431.6231689 289.4232483,487.1693726 289.4232483,509.6496887 332.2919006,488.606781 338.9579468,471.8761597 
		335.2976379,453.3179932 341.5709839,467.8257141 360.0008545,509.7806091 360.0008545,160.0318451 	"/>
</g>
</svg>
