<svg xmlns="http://www.w3.org/2000/svg" xml:space="preserve" width="720" height="720" viewBox="0 0 720 720"><path d="M360 36C181.06 36 36 181.06 36 360s145.06 324 324 324 324-145.06 324-324v-.195C683.946 180.92 538.887 35.946 360 36" style="fill:#fff"/><path d="M637.77 241.972C589.954 131.13 480.717 59.414 360 59.614c-95.411-.248-185.26 44.87-242.045 121.544 7.987 2.43 23.267 6.598 42.02 12.154 29.517 8.682 127.793 37.505 146.199 43.408 53.479 17.364 67.717 23.962 82.65 39.936 14.932 16.322 37.851 34.727 60.424 50.354s33.337 32.643 33.337 59.73-20.836 50.006-33.685 57.646c0 0 4.515-12.85-1.736-18.752-6.25-5.904-26.045-16.67-76.399-13.197-50.353 3.82-118.07 28.129-163.91 52.785 0 0 21.878-34.38 54.521-50.006 0 0-27.087 0-178.148 65.98 66.06 153.133 243.75 223.72 396.883 157.66s223.72-243.751 157.66-396.884m-164.707 326.59A235.2 235.2 0 0 1 360 597.183a233.86 233.86 0 0 1-168.077-70.842c121.89-62.855 197.942-46.534 197.942-34.38 0 12.502-18.752 41.672-18.752 41.672C470.43 519.743 543.01 459.666 543.01 379.1c0-80.913-75.705-119.807-94.804-131.615-20.489-12.848-10.765-30.212-78.482-55.562-41.325-15.627-98.972-30.907-121.544-36.463 114.075-62.1 256.893-19.965 318.992 94.11s19.966 256.893-94.11 318.992M272.489 271.794c1.736-5.209-18.058-2.778-18.058-2.778 23.267-21.53 50.354-1.736 68.064 6.945a74.7 74.7 0 0 0 35.074 7.293c-3.125 38.2-34.38 46.881-61.813 35.421-26.74-11.46-25.004-41.672-23.267-46.88" style="fill:#c8102e"/></svg>