<svg xmlns="http://www.w3.org/2000/svg" xml:space="preserve" width="720" height="720" viewBox="0 0 720 720"><path d="M643.798 184.329c-87.242-55.087-287.294-97.258-436.476-131.786L36 236.78l147.337-3.163c-73.273 118.344-58.25 396.94 127.042 433.84-9.489-18.186-26.094-51.923-4.744-93.568 15.287-29.52 100.42-192.144 100.42-192.144h20.296c27.675 0 36.636 10.28 24.512 25.04 73.537-1.055 118.608-28.73 138.903-58.514-15.288-28.202-64.576-61.412-84.344-74.854h102.794c29.52 0 36.11 12.387 29.256 25.83 47.707-9.49 72.22-73.274 6.326-114.918" style="fill:#a5acaf"/><path d="M631.937 190.128C513.066 123.18 218.656 78.9 218.656 78.9L92.668 213.85H223.4c-96.731 127.568-75.118 385.078 66.684 438.847-10.016-23.985-15.287-51.66 2.9-86.979 20.558-39.8 52.977-107.01 99.893-196.361h38.218c31.629 0 41.645 13.442 37.427 23.721 26.094 0 73.537-2.635 108.065-44.543-28.73-40.063-123.879-86.98-123.879-86.98h163.151c23.985 0 35.846 8.435 32.683 22.931 41.645-20.558 30.838-68.001-16.605-94.358" style="fill:#fff"/><path d="M627.193 198.825C527.035 144.002 210.485 97.614 210.485 97.614l11.597 14.496-73.537 79.072 258.301 19.768c-.527 1.054-1.054 1.845-1.317 2.9H231.834l13.442 12.65c-11.07 15.551-20.295 32.156-28.202 49.552l144.965-29.52c-.79 1.054-1.581 2.372-2.372 3.427l-172.64 57.722 15.287 8.698c-7.116 23.721-11.86 48.234-13.97 72.746l146.81-89.088c-.526 1.318-.79 2.636-1.317 3.954L172.003 431.823l15.024 3.69c.79 27.676 4.744 54.824 11.597 79.863L330.41 360.132c.264 1.318.528 2.372.791 3.69L200.733 555.439l12.388.79c15.023 34.001 36.636 61.94 64.048 79.336-10.543-23.458-7.117-51.66 5.008-76.7 10.543-21.613 148.918-297.31 148.918-297.31l-23.194-12.387h215.075c22.14 0 34.264 9.225 34 21.613 13.18-11.861 16.079-46.653-29.783-71.956m1.318 23.986h-17.66c-7.116-11.598-27.411-28.203-27.411-28.203 10.806 3.69 35.582 17.396 45.07 28.203m28.993 32.683c-1.845-5.272-10.016-14.76-29.784-14.76h-49.552c.528-1.055 1.055-1.846 1.318-2.9 9.489-.79 42.7-3.69 61.413-7.116l-2.636-12.125c19.504 10.016 21.876 29.784 19.24 36.9m-93.041 92.777c-10.807 14.233-27.148 24.249-49.288 29.257 13.969-10.807 16.868-21.086 8.17-21.086h-31.101c-5.272 5.271-8.17 14.76-1.054 24.248-12.125-2.635-23.722-12.651-24.513-24.248h-65.893c8.698-17.66 34.265-68.002 41.381-81.971l-2.9-8.962c-.263.264 104.903 51.66 125.198 82.762"/><path d="M560.246 204.624c-.528 1.318-1.318 2.372-1.845 3.69l-342.645-47.443 21.086-22.667c115.181 17.923 253.293 46.125 323.404 66.42m-241.17 80.653-101.738 36.637c-2.372 8.434-4.217 16.868-5.799 25.566l105.693-57.722c.527-1.581 1.054-3.163 1.845-4.48m-13.969 67.738-98.312 83.553c.79 9.225 1.581 18.45 3.163 27.411l95.413-106.483c-.264-1.581-.264-2.9-.264-4.48M236.58 548.586c4.48 8.434 9.488 16.605 14.76 23.722l73.01-149.446c-.791-1.318-1.319-2.372-2.11-3.69zm9.225-295.728 103.32-18.45c.79-1.318 1.845-2.372 2.636-3.427l-93.041 2.109c-4.481 6.062-8.962 12.915-12.915 19.768m178.438 92.777h80.653c.527-1.318 1.055-2.372 1.845-3.426l-74.854-11.07z" style="fill:#a71930"/></svg>