<svg xmlns="http://www.w3.org/2000/svg" xml:space="preserve" width="720" height="720" viewBox="0 0 720 720"><path d="M517.93 583.835c-2.349-4.476-4.214-10.928-1.416-19.88 1.995-6.434 4.55-9.455 6.434-11.674 1.79-2.126 3.095-3.655 1.958-6.564-1.884-4.868-5.129-8.337-7.721-11.115l-.634-.672c-1.66-1.809-1.175-5.688-.765-8.783.168-1.362.317-2.518.28-3.413-.112-2.835-1.287-4.532-2.424-6.173-1.157-1.66-2.257-3.226-2.462-6.08l-.019-.298c-.429-5.819-.783-10.425 3.432-16.094 1.361-1.828 1.902-3.264 1.715-4.513-.223-1.492-1.436-2.387-2.629-3.245-.97-.728-1.996-1.473-2.574-2.574-2.33-4.457-2.741-9.585-1.268-16.168.746-3.376.82-5.633-1.1-6.416-1.156-.447-5.427-1.25-5.912-1.343l-.54-.093-7.311 14.565.13.317c1.045 2.462 1.511 6.322 1.53 8.896l-1.996 11.208-.335.615c-1.642 2.798-3.898 6.64-3.898 10.313 0 1.884-1.063 3.88-1.996 5.651-.895 1.678-1.603 3.002-1.324 4.084.261 1.026 1.492 2.536 3.208 4.625 1.622 1.977 3.637 4.439 5.091 6.919 3.245 5.501 6.565 12.681 6.565 24.039 0 10.779-3.115 25.008-4.14 29.689-.131.597-.243 1.026-.28 1.287-.056.298-.13.597-.205.876-.448 1.753-.877 3.562 1.398 6.08.243.26.485.54.802.82 3.86 3.637 8.56 9.362 10.425 21.577 2.816 18.538 3.73 20.589 4.494 21.148.057.038.094.094.131.15.28.317.298.895.28 2.238-.019.205-.019.484-.019.727v.522c0 1.995 1.753 13.67 3.338 18.183.187.522.373.988.541 1.287.299.522.672.634.933.634a.8.8 0 0 0 .242-.038c2.22-.652 1.343-20.383 1.305-21.222-.074-1.585-.093-4.737-.037-8.467.056-5.24.224-11.637.466-16.616.187-3.786.41-6.77.672-7.796.335-1.342.708-2.89.82-4.587.13-2.425-.298-5.147-2.294-8.02-.857-1.212-1.92-2.74-2.89-4.606M221.747 150.04c-2.051-2.63-2.424-3.786-6.229-.448-10.5 9.269-14.565 23.33-16.747 34.445 12.588-1.044 24.244-5.39 34.072-12.234-3.99-9.772-7.348-16.877-11.096-21.763m3.338-8.336c-1.771 1.119-3.02 1.883-.895 4.01 4.01 4.009 10.015 11.562 14.21 21.8 9.456-8.112 16.71-18.649 20.757-30.696-3.338-4.663-15.218-6.9-34.072 4.886m28.067-62.587c-11.6-19.674-32.617-33.158-56.842-34.258-.13.205-.243.41-.373.615-4.663 7.497-7.553 13.782-9.511 33.7-1.977 20.42-3.712 34.78-18.407 46.864-10.891 8.933-32.263 11.619-40.02 11.358-.243 0-.504 0-.728-.019a69.35 69.35 0 0 0 14.042 23.778 60 60 0 0 0 1.828 1.976c21.074-7.105 36.627-16.43 56.843-35.32s30.435-38.343 33.53-45.523c1.996-4.681 5.782-10.686 3.115-.448-2.667 10.201-12.439 31.965-32.207 50.651s-37.354 28.216-58.26 33.55c12.402 11.301 28.832 18.22 46.921 18.22.541 0 1.045-.019 1.567-.019 4.215-25.344 10.425-33.55 22.659-44.198 12.215-10.667 29.335-16.225 43.769-10.22 1.1-4.905 1.734-10.033 1.734-15.31a69.4 69.4 0 0 0-9.66-35.397m-80.993 27.321c-.242-.28-.485-.56-.671-.82-3.674-5.147-17.083-22.118-36.832-27.62-.317-.093-.634-.205-.951-.28l-.522-.13-.299.466a70.26 70.26 0 0 0-10.22 36.46c0 5.836.672 11.506 1.996 16.82l.13.504.523.056c.354.038.69.038 1.044.075 2.2.168 4.345.28 6.415.28 17.66 0 30.995-6.285 39.667-18.743q.363-.503.56-.783c2.219-2.835.372-4.905-.84-6.285m17.008-62.288c-21.41 1.194-40.879 11.917-53.41 29.41l-.616.876 1.044.261c.187.056.354.131.54.168 19.732 5.315 33.196 22.118 36.87 27.19 1.063 1.437 2.052 1.772 2.779 1.772.093 0 .168 0 .242-.018.877-.094 1.623-.709 2.052-1.697 1.38-3.19 4.046-14.006 4.046-22.491 0-17.81 2.276-25.27 7.013-34.128a2 2 0 0 1 .13-.261l.616-1.156z" style="fill:#8f3328"/><path d="M526.79 445.888c-.896-2.667.316-11.674-.336-13.446-.672-1.772-1.12-4.438-6.677-6.247-5.539-1.754-7.105-2.22-10.872 1.566-3.786 3.786-5.129 5.334-6.9 7.105s-6.21.243-2.425-3.32c3.767-3.542 7.31-7.105 8.43-8.223-.877-.896-2.22-2.22-3.096-2.91-6.024 6.024-14.006 9.567-19.34 10.705-2.013.41-5.762.634-3.114 4.196.69.895.895 3.338 2.462 2.462 1.548-.895 3.99-4.886 6.229-3.115 2.22 1.772-.448 5.987-3.115 8s-5.576 3.992-7.553 5.11c-2.014 1.1-3.114 2.22-2.909 5.782.224 3.543.448 9.977-1.566 14.882-1.977 4.886-.877 6.229.895 9.548 1.809 3.338 4.68 6.229 5.557 11.563.895 5.333 1.343 6.657 4.886 6.228 3.562-.447 4.886-2.014 6.23-4.233l.447-7.795c-1.343-3.973-1.996-9.773-4.234-13.092 1.79-4.886 7.628-18.015 17.55-21.987 1.118-.485 1.77-1.567 1.323-2.462-.447-.877 1.343-1.53 2.22 1.567.895 3.114 2.461 11.99 2.461 11.99.448 1.996-.447 3.563-.895 6.23-.429 2.648-1.566 8.672-.876 11.767.67 3.115 1.771 5.334 7.981 4.01 3.115-.69 2.91-1.567 3.767-4.233.896-2.667 3.339-10.22 4.234-14.454.895-4.196.112-14.527-.765-17.194m25.231-3.469c-1.23-3.73-1.995-3.748-2.405-3.748-.187-.019-.746.074-1.007.858-.075.242-.299 1.044-.634 2.2-1.474 5.129-4.924 17.139-7.068 21.242-2.574 4.96-2.555 6.918-2.537 8.485v.298c0 1.418-3.095 6.509-4.587 8.952-1.548 2.63-.485 3.767-.112 4.047.335.26.746.391 1.193.391 1.063 0 2.387-.69 3.674-1.976 3.245-3.283 11.581-15.74 14.08-19.918 2.853-4.755.989-16.094-.597-20.83m-14.993-14.863c-3.525-1.958-5.483-.988-6.341-.242-1.473 1.286-1.641 3.506-1.044 5.035.298.764.484 1.585.727 2.648l.13.597c.392 1.697.13 2.536-.242 3.71-.522 1.717-1.268 4.066-.317 9.922.802 4.98-.13 15.143-2.22 24.15-.484 2.145-.857 4.682.71 5.11.111.02.223.038.354.038 2.107 0 5.054-4.793 5.93-7.646.709-2.369 1.716-5.166 2.984-8.71 1.473-4.083 3.3-9.175 5.445-15.74 4.271-13.035-.764-15.87-6.116-18.872M314.824 176.539a3.5 3.5 0 0 1-.578-.466c-.02-.037-.056-.037-.075-.075a5 5 0 0 1-.466-.578l-.168-.224a7.4 7.4 0 0 1-.597-1.063c-.019-.018-.037-.056-.056-.074a11 11 0 0 1-.522-1.343l-.112.112v.019h-.019c-.223.149-.41.354-.615.54l-.112.112a6 6 0 0 0-.54.485c-.057.056-.113.093-.187.15-.15.167-.317.316-.466.484-.038.056-.075.094-.112.15-.187.205-.355.428-.541.652a30 30 0 0 0-1.268 1.66c-.056.093-.112.168-.168.261-.373.54-.746 1.082-1.1 1.66a4 4 0 0 0-.15.26c-.391.616-.764 1.25-1.156 1.903v.019h-.019a17 17 0 0 0-.596 1.119v.186h-.075c-1.156 2.574-.56 4.215 2.033 4.327l3.804-1.082v-.037h.187l.205-.075c-.373-3.935 1.23-6.228 2.816-7.982.093-.093.168-.205.261-.298.13-.15.261-.28.392-.41.056-.075.13-.15.205-.205-.075-.056-.13-.13-.205-.187m55.331 15.218c-.13-.783-.764-1.417-1.883-1.94-2.462-1.156-4.923-1.398-7.87-1.398-2.965 0-9.157-.485-11.376-2.294l-.746-.616-.392.896c-.839 1.94-3.468 5.053-11.562 4.121-2.89-.336-8.262-.951-9.138 3.152-.298 1.342-1.156 1.417-3.916 1.286a43 43 0 0 1-2.275-.186c-1.735-.187-2.891-.298-3.525.205-.224.205-.373.466-.392.727-.26 1.959 14.808 9.81 14.957 9.884.95.43 2.033 1.045 3.189 1.679 3.114 1.716 6.602 3.636 9.79 3.636.243 0 .485-.018.71-.037 6.359-.578 11.524-3.898 19.786-12.663a65 65 0 0 1 1.53-1.585c2.032-2.051 3.375-3.413 3.113-4.867m57.458-30.603c-4.68-8.448-12.439-4.215-16.224 2.014-3.767 6.21-8 13.11-8.206 23.759-2.667-.877-5.39.093-6.695 2.219-.634 1.1-10.406-.224-13.763.653-3.301.914-4.401-1.1-.876-5.763 3.543-4.662 16.075-21.558 15.329-34.202-.205-3.786.298-4.495.895-7.348.765-3.655 1.12-3.73-3.45-6.21-2.984-1.623-3.133-6.248-3.655-9.79-.578-3.768-1.287-3.805-5.576-2.873-3.17.653-8.43-2.462-10.854-6.452-6.229.67-11.991 4.438-17.735 8.429-5.781 3.99-26.687 21.558-31.573 25.102 5.128 2.704 6.471 8.019 4.68 16.914-.41 1.977 0 2.667 1.344 1.324 1.324-1.324 7.552-8 7.31-13.315-.205-5.371-2.667-8.467-3.114-9.12-.448-.69 1.771-3.356 4.233 2.22 2.424 5.557 1.772 13.315-5.558 21.987-7.31 8.672-13.091 8.448-16.224 10.015-3.077 1.529-6.192 3.99-3.32 8.671 2.91 4.644 8.43 2.872 10.649 1.325 2.238-1.567 5.334-3.339 12.439-2.686 7.105.671 9.473-3.842 4.68-8.653-1.566-1.567-5.557-5.11-.67-5.11 2.89 0 6.452 6.453 8.466 8.224 1.977 1.772 6.415 2.425 12.402 2.872 5.967.448 15.292 2.667 15.292 8.467 0 3.562-1.884 4.588-4.439 1.772-1.007-1.12-2.387.634-3.543 1.79-3.767 3.748-13.409 13.987-20.29 15.777-6.9 1.772-9.436-.242-18.556-5.129-9.082-4.886-17.53-9.772-19.992-11.338-2.443-1.53-7.534-5.091-5.091 2.014s8.448 14.453 20.44 18.444c11.99 3.99 13.763 5.334 16.43 6.658 2.666 1.342 1.1 2.666-2.462 2.219-3.078-.373-6.416-3.096-3.768 2.872 1.604 3.6 3.693 7.348 7.721 9.455.038 0 .056.019.075.037 1.063.541 2.275.97 3.636 1.268.075 0 .15.02.205.02 2.052.41 4.42.484 7.255.11 2.853-.353 5.035-.782 6.844-1.38l.224-.055c5.707-1.977 7.33-5.8 13.092-15.423 1.342-2.22 2.704-.69 1.79 5.091 6.005-2.872 9.325-3.767 12.868-4.662 3.58-.876 12.812-4.028 18.891-15.33 3.115-5.762 4.793-7.757 4.234-13.763-.205-2.256 3.114-6.657 6.415-9.809 3.357-3.096 12.439-14.882 7.795-23.311m-52.44 11.711c-3.73.094-9.698-1.119-13.894-3.972-4.103-2.853-5.371-4.121-4.681-8.15.596-3.263.82-4.625.97-5.594l.167-.989c.43-2.387.168-3.823-.82-4.4-.97-.579-2.369-.15-4.364 1.36-2.313-1.753-4.495-3.673-6.117-5.11-1.287-1.137-2.2-1.958-2.779-2.35-.373-.242-.97-.726-1.026-1.305-.037-.391.187-.857.69-1.361.318-.317.765-.317 1.436-.317.634 0 1.455.019 2.015-.615.522-.579.652-1.548.372-3.059.243-.186 1.362-.15 1.903-.112.895.019 1.585.056 2.07-.186.56-.28.708-.82.802-1.194.112-.447.224-.876 2.48-.298 1.063.28 1.567-.56 1.846-1.007.355-.56.578-.951 1.641-.746.578.093 1.1.224 1.548.317 1.567.391 3.19.783 3.823-1.548.243-.97.485-1.641.858-1.79.261-.112.933-.13 2.574.895 1.324.839 2.443 1.063 3.282.708.671-.28 1.1-.895 1.23-1.697.243-.13 1.418.094 3.171 1.12l.541.316c2.089 1.175 6.415 3.618 11.376 9.418.895 1.026 1.287 1.902 1.343 2.275l-.28.056c-.783.13-1.977.317-2.238 2.313-.093.764-.298 1.287-.447 1.53-.075-.076-.15-.225-.262-.449-.503-.988-1.025-1.361-1.771-1.25-.038-.092-.112-.223-.187-.447-.093-.26-.391-1.025-1.063-1.23-.578-.168-1.044.13-1.38.354-.56-1.231-1.343-1.138-1.865-.877 0 0-.056-.056-.149-.28-.429-.95-1.492-.615-2.126-.428-.373.112-.951.298-1.044.149-.653-1.212-1.81-.597-2.313-.336-.746.392-.783.336-.95.112-.131-.168-.523-.709-1.157-.69-.597.019-.933.485-1.212.84-.43.596-.522.633-.858.503-1.436-.522-2.014.391-2.257.783-.056.093-.13.224-.13.224s-.093.018-.355-.112c-1.566-.671-2.2.634-2.461 1.193-.299.616-.336.597-.504.56-.56-.15-1.268-.28-1.827.093-.616.41-.746 1.138-.896 2.126l-.093.578c-.335 1.959-1.119 9.38-1.025 11.19.037.503.26.95.652 1.268 1.306 1.063 4.476.671 9.511-.019 5.52-.802 15.628-3.86 20.831-8.187 1.604-1.342 2.854-1.25 2.966-1.268.037.317-.541 1.66-1.81 2.704l-.466.41c-1.753 1.53-5.39 4.719-12.96 6.21-6.136 1.194-15.405 2.985-16.822 2.668-.728-.168-1.063.149-1.212.354-.112.168-.318.597.074 1.193.56.84 2.294 1.865 4.196 1.436.261.056 1.026.765 1.585 1.268 1.586 1.493 3.991 3.749 7.199 3.749 4.065 0 9.81-4.29 11.47-5.595.67-.54 1.939-1.193 2.871-1.548-.112.13-.261.28-.429.448l-.317.317c-3.618 3.637-7.366 7.385-10.947 7.478m48.767-7.758c-.056.392-.262.84-.597 1.306-.019.018-.038.056-.056.074a7 7 0 0 1-.522.578c-.038.038-.075.094-.13.13-.187.169-.393.337-.616.523-.13.112-.261.224-.41.317-.504.373-.952.671-1.362.951-.056.038-.112.075-.15.112-.838.597-1.473 1.12-1.92 1.81h-.019v.018a5 5 0 0 0-.317.634c-.149.336-.242.69-.317 1.119-.056.28-.112.578-.13.932a64 64 0 0 1-.485 4.383 1.5 1.5 0 0 0-.038.298c-.149.82-.298 1.604-.484 2.275a5 5 0 0 1-.15.504c-.093.298-.186.56-.298.765a2 2 0 0 1-.354.522.5.5 0 0 1-.205.13h-.616c-.205-.112-.354-.317-.485-.56-.093-.242-.168-.503-.242-.745-.15-.541-.224-.951-.43-.466a1.4 1.4 0 0 1-.297.466.84.84 0 0 1-.299.224c-.839.503-2.07-.13-2.518-1.25 0-.019-.037-.056-.055-.074a1 1 0 0 0-.299-.168c-1.026-.41-3.73-.989-2.256-4.495h.018v-.018c.261-.635.672-1.38 1.268-2.238.392-.56.765-1.082 1.138-1.604.037-.056.093-.13.13-.187a50 50 0 0 1 1.828-2.387c.037-.037.056-.074.093-.112.15-.186.299-.354.448-.54.075-.075.15-.168.205-.243.112-.13.205-.261.317-.373.112-.13.224-.242.336-.373.764-.84 1.492-1.585 2.2-2.2.131-.112.262-.206.373-.299.15-.13.299-.242.43-.354.074-.056.13-.112.204-.168a12 12 0 0 1 1.753-1.1.8.8 0 0 1 .168-.094c.13-.074.261-.149.373-.205 1.1-.503 2.462-.429 3.47.056.148.075.297.15.428.243.466.317.783.746.877 1.286.037.187.037.392 0 .597m-197.196 58.26c-2.089-1.026-3.114.15-3.804.933-.243.26-.467.522-.69.652-.262.168-.541.261-.84.373-.95.336-2.163.765-3.58 2.704-.728.989-.84 2.126-.317 3.096.485.914 1.473 1.53 2.405 1.53h.094c.783-.02 1.398-.467 1.715-1.194.858-1.921 2.91-2.48 4.719-2.965.764-.206 1.492-.41 2.07-.71a1.48 1.48 0 0 0 .839-1.342c0-1.1-.97-2.238-2.611-3.077m-9.455 12.42c-.019-.037-.056-.056-.075-.093l-.54-.54c-.038-.02-.056-.057-.094-.075-.205-.205-.41-.392-.578-.578-.018 0-.018-.02-.037-.02 0-.018-.019-.018-.019-.018-.56-.503-1.268-.056-1.94.597l-.093.093c-.186.187-.373.373-.56.578 0 .019-.018.038-.036.056l-.467.467c-.037.037-.074.093-.111.13-.02.019-.02.037-.038.037a10 10 0 0 0-1.268 1.679c-.037.074-.112.168-.15.26-1.155 2.202-.894 4.589.448 7.46 1.81 3.749 3.786.877 4.234-.447.447-1.343 1.268-5.128 2.22-8 .13-.392-.318-.989-.896-1.586m46.884 34.016c-1.548-1.79-6.677-10.22-7.796-26.892-.652-9.977 1.12-16.43-5.09-19.973-6.211-3.562-20.459-11.991-22.212-28.458-.671-6.21-.224-15.778-6.452-10.649-6.21 5.091-6.21 8.672-6.863 12.42-.672 3.786 2.424 8.896 5.09 12.44 2.668 3.561 5.782 11.338 8.225 13.352 2.443 1.977 4.01 3.543 5.986 3.767 2.015.224 10.015.224 11.992.877 2.014.69 3.133 3.133-1.772 3.133-4.886 0-12.439 1.342-15.758 1.79-3.338.41-6.453.653-7.982 7.31-1.585 6.658-3.804 14.435-4.028 16.896-.205 2.425-1.548 3.768-1.548 5.092 0 1.342 2.667 7.795 8.672 1.342 5.986-6.434 8.448-12.886 9.53-15.982 1.137-3.114 2.461-2.667 1.342 2.22-1.1 4.867-1.455 17.1.895 21.315 2.5 4.55 7.572 9.232 13.987 6.005 1.343-.652 3.562-1.771 5.334-1.548 1.771.206-.317 3.32-1.884 4.644-1.548 1.343-6.676 6.993-15.665-1.082-2.22-2.014-5.296-6.452-5.986-12.028-.243-1.772-2.667-2.425-3.786-.877-1.1 1.567-7.106 7.124-11.339 3.096-4.215-3.99-5.949-6.173-3.562-14.658.448-1.53 1.306-3.227.243-3.544-2.891-.895-5.129 2.425-6.453 5.129-1.324 2.648-2.872 5.52 1.324 11.544 4.233 6.005 6.882 9.548 14.248 9.12 3.562-.243 6.658-2.91 7.758-4.44 1.119-1.585 1.324 1.082-.448 3.75-1.771 2.666-3.114 8.876.206 13.11 3.356 4.233 10.257 7.795 19.339 2.461 9.12-5.334 12.905-11.786 14.453-14.677 1.566-2.872 1.566-4.214 0-6.005" style="fill:#f0a47a"/><path d="M319.355 628.22c-.018 0-.018.019-.037.019a19 19 0 0 1-1.194.634l-.111.056c-.41.186-.802.317-1.1.391-1.25.243-2.649.299-4.029-.41-.018-.019-.037-.037-.056-.037-.186-.112-.391-.224-.578-.354-.13-.094-.242-.206-.373-.299a3 3 0 0 1-.28-.242c-.652-.616-2.424-2.275-4.475-4.234-.02 0-.02-.018-.038-.018-.205-.205-.41-.392-.615-.597-.019-.019-.056-.037-.075-.056-.186-.186-.391-.373-.578-.56-.019-.018-.056-.037-.074-.074a14 14 0 0 1-.541-.504c-.056-.056-.112-.093-.15-.149a11 11 0 0 1-.503-.466 1 1 0 0 1-.187-.187c-.167-.13-.317-.28-.466-.428-.074-.056-.13-.131-.205-.187-.13-.13-.28-.261-.41-.392-.093-.093-.187-.167-.28-.26-.13-.113-.261-.243-.373-.355s-.205-.205-.317-.298a845 845 0 0 0-4.196-3.954 4 4 0 0 0-.298-.28 3 3 0 0 1-.243-.26c-.596-.635-.578-1.026-.26-1.269a1 1 0 0 1 .148-.112c.597-.298 1.735-.354 2.667-.485.261-.037.485-.037.728-.056.167-.018.335-.037.484-.037 1.324-.093 2.649-.075 4.476-.224v.112a2.6 2.6 0 0 0-.56.802c-.037.037-.037.093-.055.13a2.3 2.3 0 0 0-.168.858c-.037.392.056.802.28 1.194.037.075.074.168.13.242a.44.44 0 0 0 .112.168l.261.336c.037.056.075.093.112.15a.7.7 0 0 1 .13.111c.616.597 2.015 1.81 3.6 3.19.019.018.037.018.056.036.205.168.391.355.597.523.056.037.111.093.149.13.168.15.335.299.503.429.075.075.15.13.224.186.15.131.298.262.429.374l.336.28c1.081.95 2.107 1.845 2.872 2.517a.3.3 0 0 0 .074.056c.205.205.41.373.578.54.019.02.075.057.094.094.149.13.26.242.335.317.056.056.13.093.187.13.074.075.168.131.242.206a5.5 5.5 0 0 0 1.063.615c.019.019.056.019.075.037 1.007.392 2.163.504 3.45.224 1.25-.28-.037.802-1.567 1.697m36.907-383.649c-1.753.112-3.413.205-4.588.205-.876 0-1.044.728-1.1 2.89-.019.784-.037 1.586-.186 2.295-.038.186-.038.335 0 .391.111.168.67.261 1.081.336.746.15 1.697.317 2.22 1.082.354.503.428 1.156.28 1.976-.038.15.279.41.764.541.802.243 2.107.168 2.48-.746a697 697 0 0 0 3.58-9.194c-1.398.038-2.983.13-4.531.224m38.25-159.636c-.653-2.331-2.78 1.343-5.558 4.662-2.76 3.338-6.751 1.324-7.199-.336s-1.212-3.543-3.674-6.77 2.332-7.664 4.327-8.205c2.014-.56 4.55-1.007 5.203-1.566.56-.485-.448-3.73-.97-6.285-8 2.294-17.735 6.453-26.314 10.686l-.093.075c2.742.913 1.958 6.023 1.623 6.75-.317.765-1.212 5.204.764 2.537 2.014-2.667 2.798-3.637 4.924-4.327 2.107-.671 4.4-.56 4.531 2.555.112 3.096-1.342 2.89-1.771 4.886-.448 2.014 0 1.884.988 2.331 1.007.448 1.66 1.772.895 3.917-.764 2.088-4.121 2.293-7.105 1.976s-3.338.112-2.331 1.12c.82.801 1.94 2.554 2.312 4.438 7.218-3.488 15.945-6.415 29.485-9.194.373-2.555.522-7.292-.038-9.25m-38.81-5.446c-1.622.84-3.226 1.716-4.68 2.518 0 .019-.02.019-.02.019s0 .018.02.018c.95 1.399 2.312 3.544 3.431.672.41-1.12.802-2.257 1.268-3.227zm1.865 22.77c-1.212-.447-2.219 1.455-2.983 2.78-.802 1.342-2.462 3.562-5.371 3.226-2.872-.317-3.544-1.324-4.308-3.786-.784-2.424-2.555-3.226-4.663-3.226-2.126 0-3.543-2.536-1.324-5.203s4.439-1.455 6.21-1.455c1.772 0 2.667-1.902 1.213-2.872-1.175-.82-3.283-3.04-3.544-4.793-6.34 4.178-15.404 10.593-23.311 17.736l-.075.055c1.455.112 3.17.523 3.935.896 1.007.429 2.779 1.771 2.574 3.785-.243 1.977.447 2.425 1.66 1.082 1.212-1.324-.206-5.315 3.879-6.881 4.102-1.548 4.68 1.566 4.438 3.655-.205 2.144 0 4.121 2.126 5.016 2.108.877 4.532 4.308-.112 6.322-4.68 2.015-7.217 2.443-9.12 3.003-1.864.56-1.454 2.443.113 3.674a22 22 0 0 1 2.219 1.977c-.466.429-.932.876-1.399 1.324.467-.43.933-.858 1.38-1.287 5.893-5.464 11.432-9.903 17.698-14.136 3.413-2.313 6.546-4.383 9.81-6.303.522-2.033.727-3.935-1.045-4.588m-33.214 26.557c-1.007-1.977-2.424-2.33-3.002-.764-.56 1.529-1.641 6.77-5.11 8.224a19 19 0 0 1-2.574.914 20 20 0 0 1-1.92-2.369 20 20 0 0 0 1.883 2.369c.037 0 .037 0 .037.037 1.175 1.268 2.518 2.387 4.029 3.487 2.722-2.872 5.259-5.501 7.72-7.926-.112-1.268-.354-2.554-1.063-3.972m-12.998-9.12c-.802-.242-2.368-1.77-3.021-3.132-1.1 1.473-2.07 2.928-2.835 4.382a91 91 0 0 0 1.417 4.178c2.78-.075 7.012-.206 7.106-2.07.112-2.238-1.548-3.003-2.667-3.357m66.969 129.35c-1.902 1.213-4.681 2.985-6.583-.242-1.884-3.226 2.107-3.543 2.35-5.09.205-1.567-1.343-1.772-.56-4.346.765-2.555 3.525-1.79 5.52-.448 2.35 1.567 1.66-2.126 1.362-3.562-.168-.764-.318-1.492-.318-2.144-2.35 1.081-4.513 2.219-6.508 3.45-8.802 5.408-10.015 9.567-10.127 11.115-.074 1.156.299 2.144 1.082 2.797.951.783 2.35 1.399 4.29 2.275 2.629 1.175 6.21 2.798 10.872 5.8.224-2.853 1.119-6.564 1.604-7.72.652-1.68-1.12-3.134-2.984-1.884m28.85-21.65c-6.994-.318-15.068 1.118-22.845 4.046 1.287.914 2.76 2.126 5.296 1.25 4.234-1.436 5.65 3.002 3.674 4.233-2.014 1.23-2.667 4.327 1.1 1.995 3.786-2.312 7.106 1.007 5.558 3.47-1.567 2.424-3.544.521-3.096 3.99.429 3.431-.373 6.546-3.45 7.105-3.133.56-3.786-4.121-5.24-3.785-1.436.354.354 8.224-.318 8.336-1.883.317-3.692 1.715-4.867 2.834l.093.056c5.409 3.88 9.455 5.427 12.104 4.663 2.07-.579 3.133-2.518 3.972-4.513 1.828-4.327 5.688-16.673 6.825-23.181l.243-1.268c.578-3.133 1.175-6.341.95-9.232m-62.157 16.858c-2.947-1.455-5.819-4.01-8.318-7.18l-.056-.056a36 36 0 0 1-1.809-2.517c-.037-.056-.074-.131-.13-.187a44 44 0 0 1-1.79-3.002c-.038-.075-.094-.15-.131-.224-.056-.13-.13-.243-.205-.373 0 0 .093-.448-.336-.709-.019-.018-.037-.037-.075-.056a1.7 1.7 0 0 0-.708-.13c-.858 0-3.208-.187-6.938-1.082-.018-.019-.056-.019-.074-.019-2.07-.503-4.513-1.212-7.404-2.238-8.243-2.909-9.325-1.119-10.462 2.425-.038.13-.075.298-.112.447v.038h-.019c-.224.783-.429 1.66-.634 2.722-.019.15-.056.318-.074.467-.206 1.063-.373 2.275-.541 3.618-.038.28-.075.578-.112.876-.019.224-.037.448-.056.653s-.037.41-.075.634c-.28 3.077-.503 6.75-.597 11.208-.223 10.686 4.439 17.362 7.348 16.225 1.399-.522 5.035-2.331 8.915-4.234.055-2.088.167-5.762.41-7.515.317-2.574-2.331-1.567-3.469-.243-1.082 1.343-3.189 3.562-5.203 3.227-2.014-.317-3.32-3.88-2.984-7.218.317-3.338-3.562-4.68-1.137-9.119 2.461-4.438 4.438 1.119 6.583.69 2.088-.447 1.007-1.585 0-5.017-1.007-3.431 3.133-4.457 5.762-2.014 1.66 1.567 2.425-1.865 4.886-1.417 2.425.448 3.88 2.107 2.425 4.532-1.082 1.902-1.865 6.34.242 3.99 2.107-2.293 4.196-3.748 6.21-2.219 2.014 1.567.653 4.793.093 6.453-.522 1.697 3.581 3.674.69 5.688-2.871 1.977-6.098-1.455-7.795-1.007-1.66.447-1.977 2.424.243 3.99 1.473 1.045 3.077 1.791 4.177 2.239 4.606-1.604 9.977-4.607 11.693-5.67l2.89.206c.243-3.749 0-6.21-1.323-6.882m-17.102 49.196c-.503-1.137-.764-1.305-.802-1.324-.373.13-1.417 1.921-2.536 3.805a211 211 0 0 1-2.704 4.475c-2.424 3.88-8.41 10.91-16.449 19.358 5.726 1.194 16.057 4.084 9.4 9.586-7.553 6.229-4.234 5.781-.896 5.333 3.32-.447 8.877 1.567 4.644 9.12-4.196 7.553-7.105 12.886-11.096 15.33-3.991 2.405-9.772 2.2-11.096-3.544-1.343-5.8-5.129 0-5.334 3.767-.242 3.749-.69 10.201-.242 12.42l-8.43-.447c-.205-3.543-.205-10.686.448-13.968.671-3.338.429-7.33-4.662-5.763-2.817.858-4.868.43-6.155-.13-.056.056-.112.093-.149.149-8.597 7.609-14.173 13.763-18.052 19.898v.094l-.15.167c2.556 2.033 6.285 3.432 10.295 1.79 4.886-2.013 12.887.43 8 7.983-4.904 7.553-4.68 11.338.206 6.657 4.886-4.643 12.737-12.662 15.105-4.196 1.567 5.54-3.562 7.31-3.32 11.75.206 4.438 4.644 8.876-1.566 14.247-6.229 5.315-8.877-3.786-13.091-2.462-2.07.653-2.742 2.35-2.854 4.066.187.261.355.503.522.746l.15.205c1.38 1.958 2.984 4.196 4.606 6.49 4.718 6.62 9.604 13.465 11.749 17.008 2.368 3.898 3.469 8.168 4.29 11.264.335 1.305.708 2.76 1.006 3.282 1.1-.858 3.021-2.592 4.57-3.99 1.08-.989 2.05-1.884 2.591-2.313 1.269-1.082 2.294-2.145 1.735-4.122-.765-2.872-3.208-15.87-2.443-24.915.839-9.958 5.408-21.372 9.399-28.738 3.6-6.658 13.8-26.482 16.206-31.685.914-2.033 2.126-4.215 3.32-6.303 1.939-3.469 3.934-7.068 4.624-10.015.802-3.543 3.208-10.425 5.148-15.945.746-2.107 1.436-4.047 1.92-5.539-.503-4.643-3.599-13.874-7.907-23.59M433.75 411.126c.056 1.343-.187 2.238-.709 2.704-1.007.933-3.375.616-6.117.261-1.025-.13-2.107-.28-3.245-.391-4.121-.373-12.14 1.025-22.584 3.916-.093-2.331-.578-5.67-1.492-8.952-1.305-4.904 1.81-3.543 4.681-.876 2.91 2.667 9.772 6.415 14.658 1.977 4.887-4.439-1.1-9.325-1.79-12.887-.634-3.543 3.562-5.762 1.343-11.544-3.842-10.051-9.53 1.996-12.887 5.334-3.3 3.32-2.778-2.331.243-5.334 1.548-1.566 8.43-5.8 4.438-10.443-3.99-4.681-9.772-2.014-12.662 0-2.872 1.977-5.092 4.438-9.567 3.114-4.439-1.342-8.206-1.79-10.873 4.644-2.648 6.453 2.443 4.68 6.677 9.362 4.196 4.643 1.566 4.867-1.79 3.748-3.302-1.1-4.887-5.333-9.773-4.643-4.867.652-4.867 8.429-3.338 10.443 1.567 1.996 4.68 3.077 2.462 6.882-2.22 3.785 1.1 8.224 5.09 9.996 4.03 1.771 10.015-5.334 12.235-8.225 2.219-2.872 4.438-2.219 3.99 0-.372 1.81-1.286 6.34-1.529 10.35a1.4 1.4 0 0 0-.26.075l-.337.112h-.074v.019c-10.313 3.356-20.458 7.254-27.88 10.779-22.156 10.555-34.408 19.563-37.634 22.08l-.541.41c-1.697 1.4-2.816 2.313-6.024-1.417-.54-.615-1.119-1.305-1.697-1.995-5.166-6.136-9.007-10.48-11.264-10.48h-.503c-1.81.036-3.022.074-4.57-9.829-.857-5.352-2.443-24.673 12.234-48.264 4.383-7.03 15.647-27.545 20.626-42.688l.224-.708c3.3-10.015 5.502-16.729 8.15-21.335l.335-.018v-.523c.15-.26.336-.485.504-.746 7.702-3.245 8.131.038 6.714 2.425-1.53 2.667-5.968 10.257-3.991 12.681 2.014 2.443 4.233-2.424 6.005-.653 1.771 1.772 5.78 3.749 5.78 2.425s.448-3.991 1.12-7.553c.653-3.543 2.2-5.558 3.73-2.667 1.566 2.91 3.785 5.334 9.324 4.01 5.576-1.343 4.886-7.106 3.786-11.339-1.119-4.215 2.872-6.229 4.886-7.348 1.996-1.1 7.105-5.09 3.32-8.653-3.749-3.543-7.106 1.548-10.425 2.22-3.339.652-2.014-2.22 4.886-7.535 5.576-4.327 1.566-8.634-1.958-10.48 3.487-3.525 5.333-5.52 6.117-6.658a91 91 0 0 0 1.976-2.966c1.455-2.256 2.5-3.879 3.637-4.121.54-.112 1.212.093 2.033.615 1.51.989 4.587 2.406 8.075 1.082 4.438-1.716 8.019-7.31 10.592-16.635.728-2.63 1.38-5.986 2.014-9.231.914-4.774 1.884-9.716 3.078-12.42.28-.653.522-1.231.746-1.716 1.025-2.276 1.492-3.301.746-4.513-.038-.075-4.364-6.378-5.968-6.378-.112 0-.243 0-.373.018-.224.019-.709.056-.802.038 0-.038-.13-.578 1.343-2.649.876-1.268 1.603-1.995 2.238-2.648.466-.466.895-.914 1.305-1.473.485-.69 1.92-.112 4.942 1.436 2.835 1.492 7.982 4.103 10.63 5.427-4.438 7.273-15.777 27.973-18.836 35.657-9.604 23.721-12.457 43.47-8.485 58.595.037.224.112.467.168.653.037.13.075.242.112.373-2.928 2.872-6.938 4.7-10.239 3.972-3.99-.876-9.175-1.566-9.772 6.677-.205 3.095 2.91 5.557 5.782 6.657 2.89 1.12 2.443 3.096-.653 2.015-3.115-1.138-5.539-1.79-7.758 4.643-2.257 6.453 1.734 7.348 3.748 7.777 2.014.447 3.562.895 3.115 3.562-.448 2.667-1.772 10.425 3.338 11.077 5.091.672 9.548-5.52 11.077-8.616 1.567-3.114 3.357-6.247 3.786-2.666.448 3.543-.205 5.333-1.977 9.324-1.809 3.972-1.809 5.744.896 5.502 2.648-.205 7.105 0 8.429-3.115 1.324-3.077 3.32-9.045 3.543-13.278.13-2.275 1.865-2.797 3.413-2.816 0 .056 0 .093-.019.15-.018.223-.037.428-.056.652-.97 8.71-1.23 15.852-.746 21.167.877 9.585 1.959 13.576 7.89 23.404a328 328 0 0 0 2.591 4.234c4.01 6.508 6.23 10.107 6.397 14.751m-81.18 6.863c-2.219-1.567-4.01-4.233-1.137-8.224 2.91-3.991 4.923-7.553.242-8.877-4.643-1.343-7.776 3.543-10.22 6.21s-3.785 1.119.448-6.21c4.215-7.348-6.21-8.877-10.2-6.005-4.01 2.89-9.064 4.457-13.801 4.233-12.197-.69-8.859 8.877-6.192 10.891 2.667 1.977 2.22 4.644-.69 4.644-2.89 0-5.52-4.644-8.634.895-3.133 5.557-.243 9.548 2.872 12.663 3.114 3.114-1.12 7.553 5.09 10.89 6.248 3.32 8.468-3.99 10.892-8.429 2.424-4.475 3.562 4.439 4.68 9.082 1.101 4.681 5.782 7.348 6.211 5.129.448-2.22 2.667-2.667 5.539-2.667 2.91 0 .242-3.562-2.22-7.348-2.424-3.748-2.219-6.862 1.343-5.538 3.544 1.342 4.439 3.767 9.791 2.219 12.29-3.6 8.206-12.01 5.986-13.558m23.293-51.322c-1.324-2.015-3.114-4.234-.895-7.964 2.22-3.804 2.872-7.105 1.1-9.119-7.31-8.243-10.854 2.667-12.439 5.315-1.529 2.667-4.196 4.886-3.3 1.343.876-3.562 3.99-3.767 5.09-10.425 1.53-9.175-8.858-6.695-11.282-4.681-2.462 1.996-6.005 4.01-11.786 1.548-5.782-2.424-8.411 2.014-8 6.247.447 4.439 3.114 6.863 6.433 8.877 3.338 1.977 2.014 3.973-.447 1.977-2.425-1.977-5.987-2.872-8-1.977-6.603 2.91-7.74 7.758-4.645 11.525 3.115 3.786 2.425 6.006.206 10.202-2.22 4.233 2.461 8.448 7.105 8.242 4.68-.223 8.896-7.105 11.581-10.462 2.63-3.32 4.439-1.1 5.091 1.343s-3.338 8.02-5.781 10.686.69 4.196 1.79 5.091c1.12.877 3.544.877 3.991.224 4.122-6.173 8.206-12.215 8.653-16.449 0 0 4.886 1.12 8.877.877 11.097-.615 7.982-10.406 6.658-12.42m-40.357 251.93c-.037-.093-.074-.205-.149-.317-.429-.727-1.436-1.622-2.946-2.91a.3.3 0 0 0-.075-.055 1.2 1.2 0 0 0-.168-.15c-.168-.148-.354-.298-.522-.447-.037-.037-.093-.074-.13-.112-.206-.168-.392-.335-.616-.503l-.037-.037a53 53 0 0 0-1.604-1.269l-.317-.26c-.168-.113-.317-.243-.485-.374a1 1 0 0 1-.168-.13c-.839-.634-1.64-1.231-2.387-1.79l-.168-.113c-1.063-.801-1.958-1.435-2.499-1.846-.018-.018-.037-.018-.074-.056-.13-.093-.28-.205-.355-.26-.596-.448-1.734-.169-2.871.26a1 1 0 0 0-.15.056c-.466.187-.913.392-1.324.578 0 0 .075.038.13.075.02.037.02.037.075.056.373.28 1.231.895 2.126 1.641.094.075.206.15.299.243.056.037.093.074.149.111.615.504 1.399 1.12 2.238 1.81.112.093.224.167.336.26.167.131.317.262.484.392.038.037.094.075.15.112 1.324 1.082 2.685 2.2 3.655 3.114.074.056.13.112.186.168a11 11 0 0 1 .504.485c.056.056.093.112.15.168 1.416 1.585 1.062 3.282.652 4.55-.038.13-.075.243-.13.373-.094.299-.02.43.13.467.224.074.671-.094 1.268-.392.037-.019.074-.037.093-.056.858-.43 1.958-1.1 3.133-1.79.019 0 .019 0 .037-.02.075-.036.112-.074.168-.11 1.1-.672 1.474-1.25 1.212-1.922m-40.524-48.189a5 5 0 0 0-.056-.242c-.224-.746-.597-1.194-1.1-1.194-.672 0-1.81-.15-2.5-.503a.8.8 0 0 1-.242-.131c-.223-.168-.373-.354-.373-.578l-2.61-.317c.354.074.69.224 1.007.41h.018v.019c.914.597 1.455 1.64.653 2.48v.056h-.056c-.075.074-.13.15-.242.224-.579.41-1.623.727-2.91 1.007-.112.018-.205.037-.317.056-2.63.503-6.34.727-10.22.503-.503-.018-.97-.074-1.398-.149a5 5 0 0 1-.522-.093c-.13-.019-.261-.056-.373-.075a9 9 0 0 1-.672-.186 7 7 0 0 1-1.268-.485 2.3 2.3 0 0 1-.466-.261 5 5 0 0 1-1.361-1.063 2.4 2.4 0 0 1-.299-.336 4 4 0 0 1-.317-.429c-.037-.074-.093-.15-.13-.224-.187-.354-.355-.69-.467-1.044-.056-.224-.13-.429-.167-.653a7 7 0 0 1-.112-.895c-.038-1.156.056-2.182.093-3.543v-2.518c-.056-1.081-.15-2.07 0-2.853.037-.168.075-.317.13-.466a1.76 1.76 0 0 1 .672-.858c.578-.373.839-.15 1.026.205.055.093.093.168.13.261.168.429.317.895.746.895 1.026 0 2.779.093 4.811.243 2.052.13 4.383.317 6.64.522 3.692.336 7.124.69 8.522.895.783.112 1.343.075 1.753-.056.112-.056.187-.112.28-.186a.9.9 0 0 0 .336-.299c.074-.112.149-.224.186-.354.15-.504.056-1.175-.15-1.921a.4.4 0 0 0-.036-.13c-.038-.168-.094-.318-.15-.485-.149-.523-.727-.485-1.118-.056v.018h-.02c-.111.13-.204.261-.279.448-.336.914-3.226.56-3.226.56s-1.735-.169-3.917-.355h-.26v-.019a204 204 0 0 0-5.39-.391 65 65 0 0 1-8.989-1.1c-1.995-.392-4.401-.374-4.886.372a.45.45 0 0 0-.093.41c.018.113.056.43.093.858.15 2.015.41 6.882.615 10.798 0 .243.019.504.038.728.111 2.2.186 3.972.223 4.606.13 2.014.243 2.779 1.25 2.779 2.536 0 19.75.205 23.74.205 4.028 0 3.786-.448 3.916-2.667.038-.951-.018-1.79-.186-2.443" style="fill:#a2894f"/><path d="M650.955 341.528c0-77.972-30.342-151.263-85.432-206.39-47.331-47.331-107.213-76.237-173.268-83.641a35.5 35.5 0 0 0-4.681-3.6c-23.778-15.31-44.087-5.333-57.514 1.269l-4.98 2.462a289.8 289.8 0 0 0-68.926 16.84 82.6 82.6 0 0 0-7.777-9.064c-14.733-14.732-34.314-22.845-55.108-22.845-42.986 0-77.935 34.986-77.935 77.99 0 16.84 5.185 32.711 15.05 46.083-40.618 51.36-62.96 115.456-62.96 180.896 0 77.99 30.362 151.281 85.47 206.39 25.96 25.996 55.947 46.529 89.18 61.094-1.045 11.693.428 20.476 2.648 25.922-2.779 2.685-4.55 5.315-5.39 9.082-7.46 11.842 8.69 24.15 16.542 30.137l1.156.876c10.518 8.057 18.034 9.53 25.12 9.53 2.015 0 4.01-.112 6.006-.242 1.062-.056 2.163-.13 3.282-.168 10.965-.448 22.397-9.045 34.948-26.277 6.919-.839 9.772-.41 10.78-.13l.745 2.983 3.991-.615c5.539-.84 11.805-2.107 20.141-5.613 9.921-4.178 15.498-9.586 16.542-16.039a13 13 0 0 0-.336-5.669c42.352-2.685 82.541-14.21 119.615-34.314.579.746 1.1 1.473 1.604 2.2 2.555 3.768 5.073 17.102 6.565 34.781.932 11.003 2.816 18.37 7.982 34.911 1.398 4.57 3.785 12.215 9.436 11.488 4.923-.634 6.247-7.18 6.509-12.55l.018-.355c.261-5.091 1.1-20.608.448-32.151-.914-15.423-.466-28.664 1.119-33.736 2.704-8.654-1.735-12.607-3.413-14.1 0-.036-.019-.074-.019-.111-.186-1.268-.522-3.525-1.846-7.945a297.3 297.3 0 0 0 39.256-32.99c55.09-55.127 85.432-128.417 85.432-206.39M521.157 579.08c.13.522.243 1.063.41 1.566 2.872 9.12 1.753 9.567 2.872 10.891 1.1 1.324 5.092 3.115 2.872 10.22s-1.976 23.759-1.286 35.303c.634 11.58-.243 27.563-.485 32.002-.205 4.457-2.22 16.467-7.31 0-5.13-16.43-6.9-23.535-7.777-33.979-.896-10.443-3.115-30.678-7.33-36.888a52 52 0 0 0-4.196-5.352c-38.958 21.763-82.634 34.128-128.193 35.9q.587 1.202 1.342 1.901c2.014 1.772 7.423 11.694-11.749 19.769-8.448 3.562-14.658 4.662-19.096 5.333-.448-1.771-3.115-3.99-17.325-2.014-7.106 10.015-19.489 25.456-32.655 25.997-10.648.466-17.847 2.275-31.535-8.206-6.658-5.11-22.883-16.653-16.225-25.773.69-4.01 2.462-6.229 6.695-9.772-2.779-4.233-5.26-14.546-3.376-29.726-33.512-14.248-64.302-34.93-90.783-61.468-54.307-54.287-84.182-126.497-84.182-203.256 0-68.48 24.076-131.42 64.171-180.86-10.555-13.016-16.262-29.13-16.262-46.118 0-40.562 32.953-73.571 73.515-73.571 19.619 0 38.1 7.665 51.975 21.558a74 74 0 0 1 9.268 11.302 284.8 284.8 0 0 1 71.855-17.903 176 176 0 0 1 3.32-1.66c13.315-6.453 32.505-17.474 55.5-2.667 1.902 1.25 3.618 2.61 5.09 4.121 65.012 6.956 125.23 35.639 172.132 82.523 54.25 54.306 84.126 126.478 84.126 203.275 0 76.76-29.876 148.969-84.126 203.256a293 293 0 0 1-41.252 34.296m45.41-237.496c0 31.237-6.955 60.926-19.413 87.538-1.678-2.965-4.121-5.967-6.285-6.918-7.926-3.47-11.096 3.133-13.763 2.237-2.667-.876-14.863-5.8-14.863-5.8s-2.257 2.574-3.618 4.029c-.224.242-.429.466-.578.615a.04.04 0 0 1-.037.038c-.877-.896-2.22-2.22-3.096-2.91 3.99-4.643 4.438-6.657 3.096-7.31-1.324-.672-2.443-1.324-2.667-5.315-.224-4.028-3.544-9.12-5.11-17.362-1.548-8.225-3.767-13.558-6.434-13.987-.933-3.003-1.884-6.695-2.797-10.78-3.656-15.963-6.826-37.54-6.956-44.291-.243-8.448-6.677-1.343-6.472-2.91.224-1.528 1.138-5.762 2.238-15.534 1.082-9.772 5.11-34.221 4.234-35.564-.896-1.324-4.01-8.224-6.9-16.653-2.91-8.448-8.896-17.568-12.887-22.454s-9.12-4.233-13.11-2.22c-3.991 1.996-10.425 3.787-12.887.896-1.697-1.995-2.816-3.338-4.252-3.99-.727 1.267-.019 3.505.466 4.661 3.823 8.859 14.248 5.092 18.892 2.649 4.68-2.444 5.78-2.22 8.877 2.443 3.114 4.68 14.21 30.677 17.996 38.902-.429 5.333-7.105 48.655-7.777 51.788-.652 3.077 2.015 5.334 3.991 3.077 5.595-6.191 4.439-.652 4.439 3.544 0 4.233 6.788 36.235 8.466 41.979 1.1 3.804 2.872 6.9-.876 8.69-3.804 1.772-16.672 6.21-22.006 7.534-5.334 1.343-7.105.448-9.12-4.233-3.319-7.758-13.762-25.717-16.43-29.95-2.666-4.215-1.118-9.101 1.567-15.983 2.649-6.9 5.092-11.338 5.092-12.923 0-1.53-3.544-19.079-5.968-26.426-2.462-7.31-3.152-5.54-4.439-2.425-1.342 3.096-5.818 14.882-8.69 21.745-2.89 6.9-15.535 18.444-21.987.243-6.453-18.24 2.666-45.765 6.657-57.346 3.991-11.544 12.533-30.007 17.997-37.336.298-.391.802-.895 1.25-1.324 1.305-2.126 1.435-3.04-1.922-4.196-4.438-1.566-12.439-6.024-15.982-9.362v-.037c-.653-1.921-.298-5.65 1.884-10.052 2.219-4.438 9.212-10.126 9.884-13.446.391-1.977 4.662-6.9 5.78-11.991 2.724-12.588-4.233-19.34-10.443-22.472 0-1.063.168-3.954.261-7.013 31.312 9.922 60.032 27.265 83.959 51.155 39.163 39.2 60.74 91.306 60.74 146.75m-79.444 163.18c-25.643 20.14-56.115 34.37-89.348 40.673 4.401-10.593 9.53-28.44 11.394-36.795 2.462-10.89 13.763-36.645 16.673-43.788 2.872-7.105 8.43-31.76 9.53-44.646.111-1.081 1.566-1.324 2.461-7.982.877-6.695-6.024-17.79-11.786-29.782-2.5-5.185-3.655-10.891-3.935-16.784-.392-7.665.727-15.628 2.387-22.976 2.872-12.887 8-25.307 10.667-33.755 2.667-8.467 4.662-5.334 5.11-2.89.448 2.424.448 3.748 2.425 9.753 2.014 6.024.242 11.339-1.977 17.362-2.257 5.968-6.658 16.188-2.257 23.964 1.23 2.108 2.872 5.11 4.737 8.542 5.017 9.231 11.47 21.483 14.397 26.985.056 2.443.354 5.128.82 8.038.933 5.893 2.854 16.69 5.968 24.094 1.828 4.401 3.637 4.644 12.756 7.665.653 2.424 1.772 5.539 3.991 8-6.21 2.649-7.105 8.225-6.9 12.663.243 4.439-.205 9.53-1.977 15.106-1.156 3.6-.895 7.777 1.324 9.996s5.129 6.9 5.54 10.462c1.547 12.215 3.58 9.977 6.694 11.544 1.921.932 2.033 2.685 1.306 4.55M346.21 251.862c-.093.84-.093 2.182-.093 4.159-5.781 6.676-13.54 18.686-14.863 22.453-1.343 3.786-8.449 14.882-12.887 19.32-.671-4.438-22.23-7.757-25.55-8.634-2.46-.56-2.666 4.196-5.557 13.316-2.872 9.119-9.324 17.996-14.658 22.882s-7.553.448-9.53-1.977c-2.014-2.462-11.133-13.595-12.886-15.367-1.809-1.771-3.786-2.667-1.809-4.886 2.014-2.22 9.567-11.991 12.476-15.758 2.872-3.786 7.105-11.563 8.187-15.125 1.138-3.543 1.585-3.99 4.457.895 2.89 4.887 11.339 13.969 13.763 14.453 1.12.206 2.89.672 3.45-.223.243-.392.355-.746.41-1.082-.093-.205-.186-.392-.316-.485-9.94-6.62-16.188-17.343-19.302-23.106-.448.877-2.667 3.786-4.681 5.763-3.096-3.32-4.886-22.883-4.886-32.413 0-9.567-2.22-13.557-13.11-19.134-4.178-2.126-7.404-5.053-9.847-8.261-3.917-5.091-5.93-10.835-7.03-15.069-1.623-6.303-1.94-12.047-1.791-14.49 19.656-15.702 41.792-27.545 65.44-35.116-4.514 5.296-8.188 10.574-9.68 13.614 1.79 2.909 5.13 8 7.796 8.671 6.863 1.772 14.21-2.666 16.635-4.886 2.107-1.883 3.58-1.566 3.338 0-.205 1.548-.858 5.54-5.11 10.463-4.215 4.886-7.758 11.543-8.317 15.87-4.215.877-20.31 3.3-32.99 6.21-12.104 2.779-8.337-1.473-6.416-7.44 1.026-3.283 1.958-6.808 1.473-8.971-.615-1.23-2.573-2.536-4.177-2.797-8.616-1.362-13.52 1.771-17.082 4.438-4.439-3.114-2.891 5.557-2.015 11.786 2.108 14.64 7.553 13.316 14.006 11.768 6.434-1.567 35.526-5.315 48.208-7.33.205 5.446 1.94 9.829 4.494 13.279 6.304 8.616 17.437 11.786 21.708 12.271 6.005.671 4.438 3.99 3.99 5.763-2.424 0-11.32-3.32-16.877-4.886-5.539-1.53-8.43 1.771-10.014 5.576-1.53 3.785-3.749 12.215-1.53 28.44s7.777 14.415 10.891 12.886c8.877-4.438 21.316-9.772 24.878-11.339 3.04-1.324 5.278-3.99 6.826-5.557v.056zm-47.853 269.89c-17.083 6.9-18.65-.877-20.626-3.544-7.05-9.38-14.211-9.567-23.33-6.005-2.35-2.35-7.758-4.27-12.327.672a208.5 208.5 0 0 1-29.578-24.599c-39.182-39.2-60.777-91.306-60.777-146.693 0-55.295 21.52-107.307 60.553-146.489.317 3.972 1.716 7.683 2.574 9.828.41 1.007 1.156 2.294 2.033 3.73 3.412 5.334 9.044 12.42 7.086 12.066-2.424-.448-5.78 4.438-11.32 9.753-5.557 5.334-6.247 8-5.557 12.234.671 4.196-.243 5.781-2.667 9.12-4.849 6.601-2.462 10.648 3.562 19.973 5.968 9.343 13.987 7.553 15.535 8.69 1.566 1.082-1.324 5.091 6.005 12.868 5.93 6.303 11.749 5.576 15.105 4.439 1.884-.616-3.114 4.68-5.333 7.105 1.772.895 7.553 3.357 13.091 10.891 5.558 7.553 16.225 18.015 17.55 17.12 1.342-.895 3.561-2.425 4.885-3.767 1.324-1.362 2.91-1.79 4.439-.877 1.566.877 3.114 2.667 4.68 4.196.896.895.653 1.772-.69 2.91-15.497 11.954-25.1 21.987-31.2 30.286-4.96 6.825-7.608 12.513-9.193 17.231-3.562 10.444.858 10.35 3.99 9.325 4.644-1.548 9.083 12.215 12.869 15.777-6.528 14.21 11.226 45.317 19.096 72.638 4.98 17.325 10.462 30.23 19.545 41.122m206.557-106.655c-8.672 7.982-20.663 11.097-27.769 11.339-4.68.15-7.105.224-8.895-4.439-1.772-4.68-5.11-18.015-6.21-22.453-1.12-4.438-2.611-5.968 3.32-6.9 5.762-.877 19.86-6.956 24-9.325 6.23-3.543 6.23 2.872 7.553 9.12 1.269 5.93 5.54 19.786 8 22.658M381.196 270.922c-5.24 5.203-32.86 32.207-41.513 39.555-2.667-7.105-6.21-17.12-8.877-22.677 2.667-9.101 14.863-23.983 17.082-27.098 2.257-3.114 5.11-2.014 8.672-2.014 3.525 0 5.092-2.666 5.54-3.543.447-.895 1.323-.895 3.113.224 1.772 1.1 12.42 7.758 15.33 9.772 2.872 1.995 2.63 3.786.653 5.781m-64.153 28.645c0 1.343-4.233 7.348-7.553 11.357-3.338 3.991-15.124 14.883-21.353 19.321-2.648-1.1-4.439-4.233-6.658-7.777 5.576-9.324 8.97-21.39 10.667-28.216.224-.895.877-.895 3.096-.447 8 1.603 16.225 4.886 18.239 4.438 1.995-.447 3.562 0 3.562 1.324m112.342-209.97c-6.098 6.565-27.078 13.558-43.098 17.997-15.982 4.438-30.827 12.01-39.051 20.01-8.803 8.56-17.773 14.658-29.335 23.088-11.544 8.466-15.311 11.58-20.645 10.89-7.217-.876-1.566-4.643 1.1-5.762 9.94-4.14 30.678-21.11 38.865-28.01 8.243-6.864 27.545-21.112 47.723-26.203 20.235-5.11 32.244-11.357 38.23-18.444 2.425-2.89 3.992-3.543 6.659-.876 2.666 2.648 2.424 4.196-.448 7.31M327.58 159.252c-6.005 3.617-5.893 11.655-5.782 13.557.131 1.903-.559 1.697-1.212 1.697-.914 0-2.685-.13-3.897-1.25-1.66-1.547-1.865-5.333.111-11.748 2.015-6.453 2.686-7.497 4.439-8.467 2.22-1.212.895 1.772 2.22 1.567 3.971-.653 5.24 3.99 4.12 4.644m-75.846 41.68c-2.667.448-6.789 1.977-8.877-9.324-.69-3.58-.448-9.12-.895-10.444 2.872-1.343 6.863-2.667 10.648-2.667 3.115 0 5.092 0 4.886 3.544-.205 3.562-1.771 8.448-2.014 11.786-.205 3.32-.205 4.643 1.81 4.643 1.995 0-2.891 2.015-5.558 2.462m61.076-7.907c-.896.69-1.81-1.678-5.446-1.082-3.431.56-31.424 4.868-33.438 5.091-6.21.672-6.527-.335-.764-1.547 5.78-1.213 26.91-5.054 33.195-6.341l5.296-1.175c.82 4.495 2.033 4.401 1.157 5.054m11.99 364.534c-3.113 3.953-5.985 3.543-9.529 2.424-6.471-2.014-21.353-8.877-25.568-10.891-4.214-1.995-11.32-4.215-16.43-4.215-1.995-4.233-1.771-11.58-.428-14.229 1.324-2.667 1.324-5.334 2.424-4.662 1.119.653 2.667 1.79 2.667 1.79 2.89 1.772 9.772 3.749 21.54-1.137 11.786-4.886 24.877-1.53 26.891 6.9 1.977 8.448 2.07 19.339-1.566 24.02m23.33 53.951c-2.013.896-9.324 3.115-14.005-.205-2.461-1.771-5.333-4.233-2.424-4.438 2.853-.224-3.562-25.344-5.334-29.783-1.771-4.438-6.9-9.995-1.771-9.995 2.872 0 8.093 1.212 9.753 6.452 1.343 4.233 9.978 5.334 13.782 5.11 3.748-.224 3.096 1.79 2.89 4.01-.242 2.219-.876 8.876-.876 11.543s.634 11.992 1.082 13.763c.447 1.772-1.082 2.667-3.096 3.543m-97.515-89.31c-2.443 2.667-5.334 14.9-4.886 23.572-1.548-.484-4.886-1.137-6.677-.69-.652-4.886-.205-20.215 2.015-25.101 2.219-4.886 4.438-6.21 7.105-5.334 1.193.392 1.79 1.548 2.667 3.115.895 1.547 1.193 2.909-.224 4.438m44.702 152.27c-.616.429-1.716.82-3.17 1.063-2.07.298-5.409.447-9.045.186-4.16-.317-8.728-1.193-12.272-3.095-6.527-3.488-16.802-9.884-23.572-19.228-.13-.186-.28-.354-.41-.54-.784-1.12-.784-2.276-.373-2.91.429-.634 1.25-.764 2.144.243 5.54 6.247 15.983 15.777 23.778 19.115 7.758 3.32 12.868 4.439 19.75 3.767 3.71-.354 4.438.56 3.17 1.399m71.22-32.934c-7.664 4.792-17.082 8.205-21.968 8.205 0-1.1-.242-2.872-1.119-6.863 7.982-2.014 16.337-6.191 20.868-8.243 2.425-1.118 3.32 1.343 3.991 2.872.653 1.567 0 2.91-1.771 4.029m-43.19-21.466c-.653.448-4.532 1.455-6.304 1.567-2.014-1.772-4.793-4.662-5.334-5.24-1.119-1.082 5.203-2.425 6.546-2.425 1.53 1.007 4.383 3.506 5.408 4.57.69.652.355 1.08-.317 1.528m43.396-134.515c-5.091 1.529-18.183 1.771-24.188 1.529 1.343 2.667 3.114 10.22 3.114 17.791 0 7.553-2.424 19.097-4.886 26.65.672 1.119 2.462 4.886 3.338 7.105.896 2.22-1.324 4.68-3.095.895-1.79-3.767-10.22-17.772-11.787-19.992-1.548-2.219-2.872-2.014-3.767-1.566-.876.447-1.809 1.342-2.667 2.704-.876 1.287-1.118 1.977.653 3.3l-5.091-3.095c1.1-1.343 3.767-4.01 5.539-5.334s3.114-1.566 5.128-.447c1.977 1.1 5.763 6.229 6.863 7.758 1.119 1.566 2.014 1.119 2.014-.205s1.324-10.22.448-24.002c-.895-13.781-6.9-14.9-10.668-15.553-16.634-2.928-28.01-13.558-32.449-17.101-4.438-3.562.895-4.01 1.79-2.872 5.67 7.068 23.554 17.306 41.774 19.525 10.5 1.287 24.822 1.343 26.836 1.1 1.996-.205 6.23.243 1.1 1.81M290.71 567.76l-2.61-.317c-.131-.019-.262-.038-.392-.038-1.66 0-11.674.802-13.782 0-.074-.018-.13-.074-.205-.093l-.224-.112a4.4 4.4 0 0 1-1.697-1.492c-.093-.149-.186-.28-.242-.429-.355-.801-.317-1.603.391-2.07 1.362-.932 3.712-.242 6.285.131.056 0 .112 0 .168.019a17 17 0 0 0 2.2.167c3.432 0 7.106-.876 7.982-.317.373.224.802.336 1.194.672.019.037.056.056.093.093.205.224.41.578.56 1.082v2.144h.26c.02.187.02.355.02.56m-27.227 60.665-5.334 1.977c-.447-1.772-1.324-4.886-3.096-14.882-1.79-9.977-.652-16.877 0-21.558.672-4.644 2.891-10.854 3.544-12.44.69-1.566 3.562-3.337 1.809 1.101-1.81 4.476-4.029 13.8-3.786 19.358.652 16.43 3.99 24.673 6.863 26.444m271.622-429.03 39.374-27.888 23.92 33.542-8.674 6.158-16.105-22.618-6.571 4.678 15.126 21.404-8.673 6.128-14.684-21.848-6.78 4.825 13.44 20.368-8.674 6.129zm31.47 48.906 42.57-18.532 5.477 12.08-30.137 12.55 8.853 19.274-12.88 5.95zm50.15 48.345-1.125-17.29 12.817-.946 3.554 41.535-12.789.947-1.125-12.375-28.569 3.345-1.332-11.871zm14.861 43.755.177 14.151-42.008.119-.178-14.151zm-6.099 45.088c3.7 6.483 5.596 11.99 4.056 20.012-.888 4.737-5.151 11.487-10.747 14.921l-6.868-8.289c3.968-2.368 5.684-5.388 6.247-8.852 1.45-8.733-3.109-16.075-11.102-17.23-7.549-1.125-13.706 2.31-15.926 9.888-1.185 3.937-.742 7.816.355 10.392l-11.102 3.73c-1.54-5.3-2.25-11.34-1.363-15.928 1.392-7.253 3.82-11.25 9.06-15.246 5.832-4.41 14.18-5.566 21.226-4.233 6.454 1.243 12.553 4.5 16.164 10.835m-15.601 70.162c-1.155 5.478-3.168 11.34-7.046 15.247l-9.473-6.365c2.664-1.894 4.263-7.046 5.388-10.391.858-2.487 1.006-6.484-1.333-7.786-1.45-.8-4.233-.474-7.49 2.575-6.394 6.04-17.526 13.263-21.937 13.677-5.744.533-7.52-2.693-8.496-7.785-.74-3.938 0-10.154 1.776-15.454 1.54-4.588 5.33-9.148 8.704-11.99l6.957 3.109c-3.76 2.516-6.187 6.453-7.757 11.131-1.065 3.197-2.042 8.082 1.155 9.177 3.582 1.185 11.339-6.63 13.559-8.763 3.848-3.7 11.841-10.154 17.704-8.644 3.878.977 11.042 9.03 8.289 22.262M498.75 164.047c-1.657-7.134.741-15.217 4.855-21.078 3.79-5.388 10.51-10.036 17.733-10.984 7.107-.918 13.797.415 19.45 5.3 3.642 3.167 7.254 10.657 8.083 17.17l-10.836 1.865c-.532-4.588-1.686-7.726-4.618-9.68-7.342-4.885-15.631-3.494-20.367 3.05-3.82 5.239-3.524 13.44 2.457 18.62 3.109 2.664 6.838 3.849 9.621 3.937l-1.184 11.635c-5.447-.77-11.22-2.605-15.068-5.299-6.01-4.233-8.675-8.111-10.126-14.536m-390.217 250.01c-5.92.651-13.234-3.285-15.78-15.364-1.184-5.478-.65-12.937.712-18.237l9.384.03c-1.332 2.99-2.34 10.569-1.598 14.032.532 2.575 2.516 5.773 5.21 5.654 2.102-.117 2.665-4.617 2.723-6.957.208-12.404 6.365-18.561 9.8-19.302 5.654-1.183 8.585-.296 12.463 3.138 4.026 3.583 5.773 7.432 6.927 12.908 1.007 4.737 1.45 10.273 0 14.448l-8.97.946c1.954-4.114.593-7.874-.443-12.7-.682-3.286-2.873-6.513-6.188-5.803-3.434.711-3.257 6.514-3.552 9.682-1.007 10.213-4.353 16.815-10.688 17.525m-7.905-53.377L90 360.8l-.443-39.581 10.628-.119.148 14.151 33.157-.414.147 10.42-33.156.415zm53.437-107.997-41.12-23.891 5.416-10.48 38.901-1.096-28.51-17.94 6.307-9.828 41.8 24.128-8.11 12.492-33.897.563-.089.118 25.608 14.773zm-35.17 52.134c14.18 0 25.697-11.487 25.697-25.668s-11.517-25.696-25.697-25.696-25.667 11.516-25.667 25.696 11.486 25.668 25.667 25.668m0-39.05c7.401 0 13.381 5.982 13.381 13.382 0 7.372-5.98 13.381-13.381 13.381-7.372 0-13.351-6.009-13.351-13.381 0-7.4 5.979-13.381 13.35-13.381m42.245 182.336c0-14.181-11.516-25.698-25.696-25.698s-25.668 11.517-25.668 25.698c0 14.18 11.487 25.667 25.668 25.667s25.696-11.487 25.696-25.667m-25.696 13.38c-7.372 0-13.352-6.01-13.352-13.38 0-7.402 5.98-13.382 13.352-13.382 7.4 0 13.38 5.98 13.38 13.382 0 7.37-5.98 13.38-13.38 13.38m38.396 14.714c-2.723-.887-5.298-.71-7.49 1.243-3.967 3.493-5.86 11.784-2.131 17.408-4.056-1.954-12.227-2.635-15.956.621-2.369 2.044-3.405 4.352-3.464 6.78v.444c.177 6.928 7.934 14.891 14.625 21.582l12.818 12.67 1.598-1.302 32.507-26.91-13.826-16.046c-3.494-4.411-11.516-14.151-18.68-16.49m0 40.322-5.95 5.713c-3.374-4.056-13.5-12.02-9.177-16.075 3.819-3.612 12.878 6.839 15.127 9.532.179.208.297.356.386.475zm9.83-8.526-.89-1.066c-1.983-2.398-7.37-8.171-8.94-12.67-.532-1.54-.62-2.903 0-3.968.149-.208.297-.414.504-.622 3.612-3.405 12.7 8.17 15.275 11.25l1.097 1.333z" style="fill:#fff"/><path d="M646.535 341.528c0-76.797-29.876-148.97-84.126-203.275-46.902-46.884-107.12-75.567-172.131-82.523-1.473-1.51-3.19-2.872-5.091-4.121-22.995-14.807-42.185-3.786-55.5 2.667-.951.466-2.089 1.025-3.32 1.66a284.8 284.8 0 0 0-71.855 17.903 74 74 0 0 0-9.268-11.302c-13.875-13.893-32.356-21.558-51.975-21.558-40.562 0-73.515 33.009-73.515 73.57 0 16.99 5.707 33.103 16.262 46.12-40.095 49.439-64.171 112.38-64.171 180.859 0 76.76 29.875 148.969 84.182 203.256 26.481 26.538 57.271 47.22 90.783 61.468-1.883 15.18.597 25.493 3.376 29.726-4.233 3.543-6.005 5.763-6.695 9.772-6.658 9.12 9.567 20.663 16.225 25.773 13.688 10.481 20.887 8.672 31.535 8.206 13.166-.54 25.55-15.982 32.655-25.997 14.21-1.977 16.877.243 17.325 2.014 4.438-.671 10.648-1.771 19.096-5.333 19.172-8.075 13.763-17.997 11.75-19.769q-.756-.699-1.343-1.902c45.56-1.771 89.235-14.136 128.193-35.9a52 52 0 0 1 4.197 5.353c4.214 6.21 6.433 26.445 7.329 36.888.876 10.444 2.648 17.549 7.776 33.979 5.091 16.467 7.106 4.457 7.31 0 .243-4.439 1.12-20.421.486-32.002-.69-11.544-.933-28.198 1.286-35.303s-1.771-8.896-2.872-10.22c-1.119-1.324 0-1.771-2.872-10.89-.167-.504-.28-1.045-.41-1.567a293 293 0 0 0 41.252-34.296c54.25-54.287 84.126-126.497 84.126-203.256M319.411 104.72l.075-.055c7.907-7.143 16.97-13.558 23.311-17.736 0 0 .019 0 .019-.037.075-.037.15-.075.224-.13.13-.094.28-.187.41-.28 1.977-1.268 4.588-2.816 7.553-4.476v.019s.019 0 .019-.02a202 202 0 0 1 4.68-2.517h.02c0-.018 0-.018.018-.018 1.436-.746 2.984-1.51 4.494-2.275l.093-.075c8.579-4.233 18.314-8.392 26.314-10.686a69 69 0 0 1 3.227-.82c4.438 6.9 7.515 15.777 6.415 28.215-.578.112-1.156.224-1.734.355-13.54 2.779-22.267 5.706-29.485 9.194a70 70 0 0 0-6.452 3.506v-.037c-3.264 1.92-6.397 3.99-9.81 6.303-6.266 4.233-11.805 8.672-17.698 14.136-.447.429-.913.858-1.38 1.287l-.018.018c-.933.896-1.865 1.81-2.835 2.76-.485.467-.97.952-1.455 1.436-2.461 2.425-4.998 5.054-7.72 7.926-1.511-1.1-2.854-2.219-4.029-3.487 0-.037 0-.037-.037-.037a20 20 0 0 1-1.883-2.369c-.02 0-.02-.019-.038-.037-.037-.056-.074-.13-.13-.187-1.753-2.536-3.208-5.576-4.663-9.473a91 91 0 0 1-1.417-4.178c.765-1.454 1.734-2.909 2.835-4.382 2.2-2.984 4.942-5.987 7.963-8.933a118 118 0 0 1 3.114-2.91m210.53 344.505c-.951-5.856-.205-8.205.317-9.921.373-1.175.634-2.014.242-3.711l-.13-.597c-.243-1.063-.43-1.884-.727-2.648-.597-1.53-.43-3.749 1.044-5.035.858-.746 2.816-1.716 6.34.242 5.353 3.002 10.388 5.837 6.117 18.873-2.144 6.564-3.972 11.656-5.445 15.74-1.268 3.543-2.275 6.34-2.984 8.709-.876 2.853-3.823 7.646-5.93 7.646-.13 0-.243-.019-.355-.037-1.566-.43-1.193-2.966-.708-5.11 2.088-9.008 3.02-19.172 2.219-24.15m3.842 31.48c1.492-2.443 4.587-7.534 4.587-8.952v-.298c-.018-1.567-.037-3.525 2.537-8.485 2.144-4.103 5.594-16.113 7.068-21.242.335-1.156.56-1.958.634-2.2.26-.784.82-.877 1.007-.858.41 0 1.175.018 2.405 3.748 1.586 4.737 3.45 16.076.597 20.831-2.499 4.178-10.835 16.635-14.08 19.918-1.287 1.286-2.61 1.976-3.674 1.976a1.9 1.9 0 0 1-1.193-.391c-.373-.28-1.436-1.418.112-4.047m13.371-51.584c-1.678-2.965-4.121-5.967-6.285-6.918-7.926-3.47-11.096 3.133-13.763 2.237-2.667-.876-14.863-5.8-14.863-5.8s-2.257 2.574-3.618 4.029c-.224.242-.429.466-.578.615a.04.04 0 0 1-.037.038c-1.12 1.118-4.663 4.68-8.43 8.224-3.786 3.562.653 5.091 2.425 3.32s3.114-3.32 6.9-7.106c3.767-3.786 5.333-3.32 10.872-1.566 5.558 1.809 6.005 4.475 6.677 6.247.652 1.772-.56 10.78.335 13.446.877 2.667 1.66 12.998.765 17.194-.895 4.234-3.338 11.787-4.234 14.454-.857 2.666-.652 3.543-3.767 4.233-6.21 1.324-7.31-.895-7.981-4.01-.69-3.095.447-9.12.876-11.767.448-2.667 1.343-4.234.895-6.23 0 0-1.566-8.876-2.461-11.99-.877-3.096-2.667-2.444-2.22-1.567.448.895-.205 1.977-1.324 2.462-9.921 3.972-15.758 17.1-17.549 21.987 2.238 3.32 2.891 9.12 4.234 13.092l-.448 7.795c-1.343 2.22-2.667 3.786-6.229 4.233-3.543.43-3.99-.895-4.886-6.228-.876-5.334-3.748-8.225-5.557-11.563-1.772-3.32-2.872-4.662-.895-9.548 2.014-4.905 1.79-11.339 1.566-14.882-.205-3.562.895-4.681 2.91-5.781 1.976-1.12 4.886-3.096 7.552-5.11s5.334-6.229 3.115-8c-2.238-1.772-4.681 2.219-6.229 3.114-1.567.876-1.772-1.567-2.462-2.462-2.648-3.562 1.1-3.786 3.115-4.196 5.333-1.138 13.315-4.681 19.339-10.705 3.99-4.643 4.438-6.657 3.096-7.31-1.324-.672-2.443-1.324-2.667-5.315-.224-4.028-3.544-9.12-5.11-17.362-1.548-8.225-3.767-13.558-6.434-13.987-.933-3.003-1.884-6.695-2.797-10.78-3.656-15.963-6.826-37.54-6.956-44.291-.243-8.448-6.677-1.343-6.472-2.91.224-1.528 1.138-5.762 2.238-15.534 1.082-9.772 5.11-34.221 4.234-35.564-.896-1.324-4.01-8.224-6.9-16.653-2.91-8.448-8.896-17.568-12.887-22.454s-9.12-4.233-13.11-2.22c-3.991 1.996-10.425 3.787-12.887.896-1.697-1.995-2.816-3.338-4.252-3.99-.727 1.267-.019 3.505.466 4.661 3.823 8.859 14.248 5.092 18.892 2.649 4.68-2.444 5.78-2.22 8.877 2.443 3.114 4.68 14.21 30.677 17.996 38.902-.429 5.333-7.105 48.655-7.777 51.788-.652 3.077 2.015 5.334 3.991 3.077 5.595-6.191 4.439-.652 4.439 3.544 0 4.233 6.788 36.235 8.466 41.979 1.1 3.804 2.872 6.9-.876 8.69-3.804 1.772-16.672 6.21-22.006 7.534-5.334 1.343-7.105.448-9.12-4.233-3.319-7.758-13.762-25.717-16.43-29.95-2.666-4.215-1.118-9.101 1.567-15.983 2.649-6.9 5.092-11.338 5.092-12.923 0-1.53-3.544-19.079-5.968-26.426-2.462-7.31-3.152-5.54-4.439-2.425-1.342 3.096-5.818 14.882-8.69 21.745-2.89 6.9-15.535 18.444-21.987.243-6.453-18.24 2.666-45.765 6.657-57.346 3.991-11.544 12.533-30.007 17.997-37.336.298-.391.802-.895 1.25-1.324 1.305-2.126 1.435-3.04-1.922-4.196-4.438-1.566-12.439-6.024-15.982-9.362v-.037c-.653-1.921-.298-5.65 1.884-10.052 2.219-4.438 9.212-10.126 9.884-13.446.391-1.977 4.662-6.9 5.78-11.991 2.724-12.588-4.233-19.34-10.443-22.472 0-1.063.168-3.954.261-7.013 31.312 9.922 60.032 27.265 83.959 51.155 39.163 39.2 60.74 91.306 60.74 146.75 0 31.237-6.956 60.926-19.414 87.538m-201.485 75.753c0 7.553-2.424 19.097-4.886 26.65.672 1.119 2.462 4.886 3.338 7.105.896 2.22-1.324 4.68-3.095.895-1.79-3.767-10.22-17.772-11.787-19.992-1.548-2.219-2.872-2.014-3.767-1.566-.876.447-1.809 1.342-2.667 2.704-.876 1.287-1.118 1.977.653 3.3l-5.091-3.095c1.1-1.343 3.767-4.01 5.539-5.334s3.114-1.566 5.128-.447c1.977 1.1 5.763 6.229 6.863 7.758 1.119 1.566 2.014 1.119 2.014-.205s1.324-10.22.448-24.002c-.895-13.781-6.9-14.9-10.668-15.553-16.634-2.928-28.01-13.558-32.449-17.101-4.438-3.562.895-4.01 1.79-2.872 5.67 7.068 23.554 17.306 41.774 19.525 10.5 1.287 24.822 1.343 26.836 1.1 1.996-.205 6.23.243 1.1 1.81-5.09 1.529-18.182 1.771-24.187 1.529 1.343 2.667 3.114 10.22 3.114 17.791m-55.313 75.771c3.804 0 6.9-.205 9.12-.447-.877-7.348-1.66-18.332-1.66-22.566 5.333 2.22 12.774 5.446 18.78 6.583 1.976 4.644 3.617 7.684 5.333 12.197 2.536 6.77 7.105 21.54 6.21 28.682-2.22-.895-3.674-1.771-4.55-2.014-6.789 2.91-21.652 6.21-32.338 6.658.466-6.658-.447-21.11-.895-29.093m-33.736 21.335c.652 16.43 3.99 24.673 6.863 26.444l-5.334 1.977c-.447-1.772-1.324-4.886-3.096-14.882-1.79-9.977-.652-16.877 0-21.558.672-4.644 2.891-10.854 3.544-12.44.69-1.566 3.562-3.337 1.809 1.101-1.81 4.476-4.029 13.8-3.786 19.358m-2.22-89.777c-2.35-2.35-7.757-4.27-12.326.672a208.5 208.5 0 0 1-29.578-24.599c-39.182-39.2-60.777-91.306-60.777-146.693 0-55.295 21.52-107.307 60.553-146.489.317 3.972 1.716 7.683 2.574 9.828.41 1.007 1.156 2.294 2.033 3.73 3.412 5.334 9.044 12.42 7.086 12.066-2.424-.448-5.78 4.438-11.32 9.753-5.557 5.334-6.247 8-5.557 12.234.671 4.196-.243 5.781-2.667 9.12-4.849 6.601-2.462 10.648 3.562 19.973 5.968 9.343 13.987 7.553 15.535 8.69 1.566 1.082-1.324 5.091 6.005 12.868 5.93 6.303 11.749 5.576 15.105 4.439 1.884-.616-3.114 4.68-5.333 7.105 1.772.895 7.553 3.357 13.091 10.891 5.558 7.553 16.225 18.015 17.55 17.12 1.342-.895 3.561-2.425 4.885-3.767 1.324-1.362 2.91-1.79 4.439-.877 1.566.877 3.114 2.667 4.68 4.196.896.895.653 1.772-.69 2.91-15.497 11.954-25.1 21.987-31.2 30.286-4.96 6.825-7.608 12.513-9.193 17.231-3.562 10.444.858 10.35 3.99 9.325 4.644-1.548 9.083 12.215 12.869 15.777-6.528 14.21 11.226 45.317 19.096 72.638 4.98 17.325 10.462 30.23 19.545 41.122-17.083 6.9-18.65-.877-20.626-3.544-7.05-9.38-14.211-9.567-23.33-6.005m-8.671 33.568c-1.548-.484-4.886-1.137-6.677-.69-.652-4.886-.205-20.215 2.015-25.101 2.219-4.886 4.438-6.21 7.105-5.334 1.193.392 1.79 1.548 2.667 3.115.895 1.547 1.193 2.909-.224 4.438-2.443 2.667-5.334 14.9-4.886 23.572m47.984-379.509c6.863 1.772 14.21-2.666 16.635-4.886 2.107-1.883 3.58-1.566 3.338 0-.205 1.548-.858 5.54-5.11 10.463-4.215 4.886-7.758 11.543-8.317 15.87-4.215.877-20.31 3.3-32.99 6.21-12.104 2.779-8.337-1.473-6.416-7.44 1.026-3.283 1.958-6.808 1.473-8.971-.615-1.23-2.573-2.536-4.177-2.797-8.616-1.362-13.52 1.771-17.082 4.438-4.439-3.114-2.891 5.557-2.015 11.786 2.108 14.64 7.553 13.316 14.006 11.768 6.434-1.567 35.526-5.315 48.208-7.33.205 5.446 1.94 9.829 4.494 13.279 6.304 8.616 17.437 11.786 21.708 12.271 6.005.671 4.438 3.99 3.99 5.763-2.424 0-11.32-3.32-16.877-4.886-5.539-1.53-8.43 1.771-10.014 5.576-1.53 3.785-3.749 12.215-1.53 28.44s7.777 14.415 10.891 12.886c8.877-4.438 21.316-9.772 24.878-11.339 3.04-1.324 5.278-3.99 6.826-5.557v.056h.578c-.093.84-.093 2.182-.093 4.159-5.781 6.676-13.54 18.686-14.863 22.453-1.343 3.786-8.449 14.882-12.887 19.32-.671-4.438-22.23-7.757-25.55-8.634-2.46-.56-2.666 4.196-5.557 13.316-2.872 9.119-9.324 17.996-14.658 22.882s-7.553.448-9.53-1.977c-2.014-2.462-11.133-13.595-12.886-15.367-1.809-1.771-3.786-2.667-1.809-4.886 2.014-2.22 9.567-11.991 12.476-15.758 2.872-3.786 7.105-11.563 8.187-15.125 1.138-3.543 1.585-3.99 4.457.895 2.89 4.887 11.339 13.969 13.763 14.453 1.12.206 2.89.672 3.45-.223.243-.392.355-.746.41-1.082-.093-.205-.186-.392-.316-.485-9.94-6.62-16.188-17.343-19.302-23.106-.448.877-2.667 3.786-4.681 5.763-3.096-3.32-4.886-22.883-4.886-32.413 0-9.567-2.22-13.557-13.11-19.134-4.178-2.126-7.404-5.053-9.847-8.261-3.917-5.091-5.93-10.835-7.03-15.069-1.623-6.303-1.94-12.047-1.791-14.49 19.656-15.702 41.792-27.545 65.44-35.116-4.514 5.296-8.188 10.574-9.68 13.614 1.79 2.909 5.13 8 7.796 8.671m17.642 19.358-.205.075h-.187v.037l-3.804 1.082c-2.592-.112-3.19-1.753-2.033-4.327h.075v-.186c.168-.355.373-.728.596-1.12h.02v-.018c.39-.653.764-1.287 1.155-1.902.038-.075.094-.168.15-.261.354-.578.727-1.12 1.1-1.66.056-.093.112-.168.168-.261.41-.578.839-1.138 1.268-1.66.186-.224.354-.447.54-.653.038-.055.075-.093.113-.149.149-.168.317-.317.466-.485.074-.056.13-.093.186-.149a6 6 0 0 1 .541-.485l.112-.112c.205-.186.392-.391.615-.54h.02v-.019l.111-.112c.13.429.317.895.522 1.343.019.018.037.056.056.074.168.373.373.728.597 1.063l.168.224c.149.205.298.41.466.578.019.038.056.038.075.075.167.168.372.336.578.466.074.056.13.13.205.187-.075.056-.15.13-.205.205-.13.13-.261.26-.392.41-.093.093-.168.205-.261.298-1.585 1.754-3.189 4.047-2.816 7.982m1.455 7.404c-.896.69-1.81-1.678-5.446-1.082-3.431.56-31.424 4.868-33.438 5.091-6.21.672-6.527-.335-.764-1.547 5.78-1.213 26.91-5.054 33.195-6.341l5.296-1.175c.82 4.495 2.033 4.401 1.157 5.054m-55.519 5.445c1.996 0-2.89 2.015-5.557 2.462s-6.789 1.977-8.877-9.324c-.69-3.58-.448-9.12-.895-10.444 2.872-1.343 6.863-2.667 10.648-2.667 3.115 0 5.092 0 4.886 3.544-.205 3.562-1.771 8.448-2.014 11.786-.205 3.32-.205 4.643 1.81 4.643m75.492 32.618c.037.074.093.149.13.224a44 44 0 0 0 1.79 3.002c.057.056.094.13.131.187a36 36 0 0 0 1.81 2.517l.055.056c2.5 3.17 5.371 5.725 8.318 7.18 1.324.671 1.566 3.133 1.324 6.882l-2.891-.206c-1.716 1.063-7.087 4.066-11.693 5.67-.093.018-.186.074-.298.112-2.369.802-6.751 2.872-10.835 4.848-3.88 1.903-7.516 3.712-8.915 4.234-2.909 1.137-7.571-5.54-7.348-16.225.094-4.457.318-8.131.597-11.208.038-.224.056-.429.075-.634s.037-.43.056-.653c.037-.298.074-.597.112-.876.168-1.343.335-2.555.54-3.618.02-.15.056-.317.075-.467.205-1.062.41-1.939.634-2.722h.019v-.038c.037-.149.074-.317.112-.447 1.137-3.544 2.219-5.334 10.462-2.425 2.89 1.026 5.334 1.735 7.404 2.238.018 0 .056 0 .074.019 3.73.895 6.08 1.082 6.938 1.082.317 0 .54.056.708.13.038.019.056.038.075.056.429.261.336.709.336.709.074.13.149.242.205.373m20.905 20.682c-.522-.765-1.473-.933-2.219-1.082-.41-.075-.97-.168-1.081-.336-.038-.056-.038-.205 0-.391.149-.71.167-1.511.186-2.294.056-2.163.224-2.89 1.1-2.89 1.175 0 2.835-.094 4.588-.206 1.548-.093 3.133-.186 4.532-.224a697 697 0 0 1-3.581 9.194c-.373.914-1.678.989-2.48.746-.485-.13-.802-.391-.765-.54.15-.821.075-1.474-.28-1.977m2.872 6.918c3.525 0 5.092-2.666 5.54-3.543.447-.895 1.323-.895 3.113.224 1.772 1.1 12.42 7.758 15.33 9.772 2.872 1.995 2.63 3.786.653 5.781-5.24 5.203-32.86 32.207-41.513 39.555-2.667-7.105-6.21-17.12-8.877-22.677 2.667-9.101 14.863-23.983 17.082-27.098 2.257-3.114 5.11-2.014 8.672-2.014m26.314 2.108a45 45 0 0 0-2.816-1.921c-.13-.075-.242-.15-.354-.224-4.662-3.002-8.243-4.625-10.873-5.8-1.94-.876-3.338-1.492-4.289-2.275-.783-.653-1.156-1.641-1.082-2.797.112-1.548 1.325-5.707 10.127-11.115 1.995-1.231 4.159-2.369 6.508-3.45.15-.056.28-.13.41-.187 1.12-.503 2.257-1.007 3.339-1.417.168-.056.336-.112.485-.168 7.777-2.928 15.851-4.364 22.845-4.047.224 2.89-.373 6.099-.951 9.232l-.243 1.268c-1.137 6.508-4.997 18.854-6.825 23.18-.84 1.996-1.902 3.935-3.972 4.514-2.649.764-6.695-.784-12.104-4.663l-.093-.056-.093-.074zM297.648 440.18c.56 1.977-.466 3.04-1.735 4.122-.54.429-1.51 1.324-2.592 2.312-1.548 1.399-3.468 3.133-4.569 3.991-.298-.522-.671-1.977-1.007-3.282-.82-3.096-1.92-7.366-4.29-11.264-2.144-3.543-7.03-10.388-11.748-17.008-1.622-2.294-3.226-4.532-4.606-6.49l-.15-.205a60 60 0 0 0-.522-.746c-1.995-2.872-4.625-6.64-4.886-7.441-.466-1.23-7.44-16.038-11.357-16.038-1.361 0-2.536-.056-2.947-.709-.429-.671-.447-2.462 1.81-7.105l.149-.317c1.38-2.779 2.685-5.409 4.438-8.225h.019l.149-.167v-.094c3.879-6.135 9.455-12.29 18.052-19.898.037-.056.093-.093.15-.15.839-.727 1.678-1.491 2.592-2.275l.708-.615c9.176-7.87 20.048-18.239 29.801-28.477.112-.112.206-.224.317-.336 8.038-8.448 14.025-15.479 16.449-19.358a211 211 0 0 0 2.704-4.475c1.119-1.884 2.163-3.674 2.536-3.805.038.019.299.187.802 1.324 4.308 9.717 7.404 18.948 7.908 23.591-.485 1.492-1.175 3.432-1.921 5.54-1.94 5.52-4.346 12.4-5.148 15.944-.69 2.947-2.685 6.546-4.624 10.015-1.194 2.088-2.406 4.27-3.32 6.303-2.406 5.203-12.607 25.027-16.206 31.685-3.99 7.366-8.56 18.78-9.4 28.738-.764 9.045 1.68 22.043 2.444 24.915m-16.169-117.713c5.576-9.324 8.97-21.39 10.667-28.216.224-.895.877-.895 3.096-.447 8 1.603 16.225 4.886 18.239 4.438 1.995-.447 3.562 0 3.562 1.324 0 1.343-4.233 7.348-7.553 11.357-3.338 3.991-15.124 14.883-21.353 19.321-2.648-1.1-4.439-4.233-6.658-7.777M238.4 167.513c-4.195-10.238-10.2-17.791-14.21-21.8-2.126-2.127-.876-2.891.895-4.01 18.854-11.787 30.734-9.549 34.072-4.886-4.047 12.047-11.301 22.584-20.756 30.696m-5.557 4.29c-9.828 6.843-21.484 11.189-34.072 12.233 2.182-11.115 6.248-25.176 16.747-34.445 3.805-3.338 4.178-2.182 6.229.448 3.748 4.886 7.105 11.991 11.096 21.763m-10.22 12.028c6.23-5.129 5.782 4.439 6.453 10.649 1.753 16.467 16.001 24.896 22.211 28.458 6.21 3.543 4.439 9.996 5.091 19.973 1.12 16.673 6.248 25.102 7.796 26.892 1.566 1.79 1.566 3.133 0 6.005-1.548 2.89-5.334 9.343-14.453 14.677-9.082 5.334-15.983 1.772-19.34-2.462-3.319-4.233-1.976-10.443-.205-13.11 1.772-2.667 1.567-5.334.448-3.748-1.1 1.529-4.196 4.196-7.758 4.438-7.366.43-10.015-3.114-14.248-9.12-4.196-6.023-2.648-8.895-1.324-11.543 1.324-2.704 3.562-6.024 6.453-5.129 1.063.317.205 2.015-.243 3.544-2.387 8.485-.653 10.667 3.562 14.658 4.233 4.028 10.239-1.53 11.339-3.096 1.119-1.548 3.543-.895 3.786.877.69 5.576 3.767 10.014 5.986 12.028 8.989 8.075 14.117 2.425 15.665 1.082 1.567-1.324 3.655-4.438 1.884-4.644-1.772-.223-3.991.896-5.334 1.548-6.415 3.227-11.488-1.454-13.987-6.005-2.35-4.214-1.995-16.448-.895-21.316 1.12-4.886-.205-5.333-1.343-2.219-1.081 3.096-3.543 9.548-9.53 15.982-6.004 6.453-8.671 0-8.671-1.342 0-1.324 1.343-2.667 1.548-5.092.224-2.461 2.443-10.238 4.028-16.896 1.53-6.657 4.644-6.9 7.982-7.31 3.32-.448 10.872-1.79 15.758-1.79 4.905 0 3.786-2.443 1.772-3.133-1.977-.653-9.977-.653-11.992-.877-1.976-.224-3.543-1.79-5.986-3.767-2.443-2.014-5.557-9.79-8.224-13.353-2.667-3.543-5.763-8.653-5.091-12.439.652-3.748.652-7.329 6.863-12.42m-5.408 51.863c.019.037.056.056.075.093.578.597 1.026 1.194.895 1.585-.951 2.873-1.772 6.658-2.22 8.001-.447 1.324-2.424 4.196-4.233.448-1.342-2.872-1.603-5.26-.447-7.46.037-.093.112-.187.15-.261a10 10 0 0 1 1.267-1.679c.019 0 .019-.018.038-.037.037-.037.074-.093.111-.13l.467-.467c.018-.018.037-.037.037-.056.186-.205.373-.391.56-.578l.093-.093c.671-.653 1.38-1.1 1.94-.597 0 0 .018 0 .018.019.019 0 .019.019.037.019.168.186.373.373.578.578.038.018.056.056.094.074zm.616-7.665c1.417-1.94 2.63-2.368 3.58-2.704.299-.112.578-.205.84-.373.223-.13.447-.391.69-.652.69-.784 1.715-1.959 3.804-.933 1.641.84 2.61 1.977 2.61 3.077 0 .578-.316 1.082-.838 1.343-.578.298-1.306.503-2.07.709-1.81.484-3.86 1.044-4.719 2.965-.317.727-.932 1.175-1.715 1.193h-.094c-.932 0-1.92-.615-2.405-1.529-.522-.97-.41-2.107.317-3.096m47.555 327.105c.485-.746 2.89-.764 4.886-.373 2.331.448 5.24.896 8.989 1.1 1.641.094 3.636.243 5.39.392v.019h.26c2.182.186 3.917.354 3.917.354s2.89.355 3.226-.56a1.5 1.5 0 0 1 .28-.447h.019v-.018c.391-.43.97-.467 1.118.056.056.167.112.317.15.484a.4.4 0 0 1 .037.13c.205.747.298 1.418.15 1.922-.038.13-.113.242-.187.354a.9.9 0 0 1-.336.299c-.093.074-.168.13-.28.186-.41.13-.97.168-1.753.056-1.398-.205-4.83-.56-8.522-.895a254 254 0 0 0-6.64-.522c-2.032-.15-3.785-.243-4.811-.243-.429 0-.578-.466-.746-.895a2 2 0 0 0-.13-.261c-.187-.354-.448-.578-1.026-.205a1.76 1.76 0 0 0-.672.858 3.5 3.5 0 0 0-.13.466c-.15.783-.056 1.772 0 2.853v2.518c-.037 1.361-.13 2.387-.093 3.543q.027.448.112.895c.037.224.111.43.167.653.112.354.28.69.467 1.044.037.075.093.15.13.224.093.15.205.299.317.429.093.112.187.224.299.336a5 5 0 0 0 1.361 1.063c.15.093.298.186.466.26a7 7 0 0 0 1.268.486h.019c.205.056.429.13.653.186.112.019.242.056.373.075.168.037.354.074.522.093.429.075.895.13 1.399.15 3.879.223 7.59 0 10.22-.504.111-.019.204-.038.316-.056 1.287-.28 2.331-.597 2.91-1.007.111-.075.167-.15.242-.224h.056v-.056c.802-.84.261-1.883-.653-2.48v-.019h-.018a3.4 3.4 0 0 0-1.007-.41c-.131-.019-.262-.038-.392-.038-1.66 0-11.674.802-13.782 0-.074-.018-.13-.074-.205-.093l-.224-.112a4.4 4.4 0 0 1-1.697-1.492c-.093-.149-.186-.28-.242-.429-.355-.801-.317-1.603.391-2.07 1.362-.932 3.712-.242 6.285.131.056 0 .112 0 .168.019a17 17 0 0 0 2.2.167c3.432 0 7.106-.876 7.982-.317.373.224.802.336 1.194.672.019.037.056.056.093.093.205.224.41.578.56 1.082v2.144h.26c.02.187.02.355.02.56 0 .224.149.41.372.578.056.056.15.093.243.13.69.355 1.827.504 2.499.504.503 0 .876.448 1.1 1.194.019.074.037.149.056.242.168.653.224 1.492.186 2.443-.13 2.22.112 2.667-3.916 2.667-3.99 0-21.204-.205-23.74-.205-1.007 0-1.12-.765-1.25-2.779-.037-.634-.112-2.406-.223-4.606a9 9 0 0 1-.038-.728c-.205-3.916-.466-8.783-.615-10.798a15 15 0 0 0-.093-.857.45.45 0 0 1 .093-.41m49.886 4.85c-6.471-2.015-21.353-8.878-25.568-10.892-4.214-1.995-11.32-4.215-16.43-4.215-1.995-4.233-1.771-11.58-.428-14.229 1.324-2.667 1.324-5.334 2.424-4.662 1.119.653 2.667 1.79 2.667 1.79 2.89 1.772 9.772 3.749 21.54-1.137 11.786-4.886 24.877-1.53 26.891 6.9 1.977 8.448 2.07 19.339-1.566 24.02-3.114 3.953-5.986 3.543-9.53 2.424m47.388-128.437c-22.156 10.555-34.408 19.563-37.634 22.08l-.541.41c-1.697 1.4-2.816 2.313-6.024-1.417-.54-.615-1.119-1.305-1.697-1.995-5.166-6.136-9.007-10.48-11.264-10.48h-.503c-1.81.036-3.022.074-4.57-9.829-.857-5.352-2.443-24.673 12.234-48.264 4.383-7.03 15.647-27.545 20.626-42.688l.224-.708c3.3-10.015 5.502-16.729 8.15-21.335l.335-.018v-.523c.15-.26.336-.485.504-.746.858-1.305 1.772-2.461 2.779-3.468.857-.802 2.405-2.257 4.42-4.122 6.9-6.471 18.443-17.288 25.828-24.728.056-.038.094-.094.15-.15 3.487-3.524 5.333-5.52 6.117-6.657a91 91 0 0 0 1.976-2.966c1.455-2.256 2.5-3.879 3.637-4.121.54-.112 1.212.093 2.033.615 1.51.989 4.587 2.406 8.075 1.082 4.438-1.716 8.019-7.31 10.592-16.635.728-2.63 1.38-5.986 2.014-9.231.914-4.774 1.884-9.716 3.078-12.42.28-.653.522-1.231.746-1.716 1.025-2.276 1.492-3.301.746-4.513-.038-.075-4.364-6.378-5.968-6.378-.112 0-.243 0-.373.018-.224.019-.709.056-.802.038 0-.038-.13-.578 1.343-2.649.876-1.268 1.603-1.995 2.238-2.648.466-.466.895-.914 1.305-1.473.485-.69 1.92-.112 4.942 1.436 2.835 1.492 7.982 4.103 10.63 5.427-4.438 7.273-15.777 27.973-18.836 35.657-9.604 23.721-12.457 43.47-8.485 58.595.037.224.112.467.168.653.037.13.075.242.112.373 2.872 9.716 10.145 19.283 18.425 18.817a255 255 0 0 0-1.697 11.842v.056c0 .056 0 .093-.019.15-.018.223-.037.428-.056.652-.97 8.71-1.23 15.852-.746 21.167.877 9.585 1.959 13.576 7.89 23.404a328 328 0 0 0 2.591 4.234c4.01 6.508 6.23 10.107 6.397 14.751.056 1.343-.187 2.238-.709 2.704-1.007.933-3.375.616-6.117.261-1.025-.13-2.107-.28-3.245-.391-4.121-.373-12.14 1.025-22.584 3.916l-.167.056c-2.78.765-5.782 1.66-9.717 2.89a1.4 1.4 0 0 0-.26.075l-.337.112h-.074v.019c-10.313 3.356-20.458 7.254-27.88 10.779m46.51 77.095c2.462-10.89 13.763-36.645 16.673-43.788 2.872-7.105 8.43-31.76 9.53-44.646.111-1.081 1.566-1.324 2.461-7.982.877-6.695-6.024-17.79-11.786-29.782-2.5-5.185-3.655-10.891-3.935-16.784-.392-7.665.727-15.628 2.387-22.976 2.872-12.887 8-25.307 10.667-33.755 2.667-8.467 4.662-5.334 5.11-2.89.448 2.424.448 3.748 2.425 9.753 2.014 6.024.242 11.339-1.977 17.362-2.257 5.968-6.658 16.188-2.257 23.964 1.23 2.108 2.872 5.11 4.737 8.542 5.017 9.231 11.47 21.483 14.397 26.985.056 2.443.354 5.128.82 8.038.933 5.893 2.854 16.69 5.968 24.094 1.828 4.401 3.637 4.644 12.756 7.665.653 2.424 1.772 5.539 3.991 8-6.21 2.649-7.105 8.225-6.9 12.663.243 4.439-.205 9.53-1.977 15.106-1.156 3.6-.895 7.777 1.324 9.996s5.129 6.9 5.54 10.462c1.547 12.215 3.58 9.977 6.694 11.544 1.921.932 2.033 2.685 1.306 4.55-25.643 20.141-56.115 34.37-89.348 40.674 4.401-10.593 9.53-28.44 11.394-36.795m56.19-115.997c5.763-.877 19.861-6.956 24.001-9.325 6.23-3.543 6.23 2.872 7.553 9.12 1.269 5.93 5.54 19.786 8 22.658-8.671 7.982-20.662 11.097-27.768 11.339-4.68.15-7.105.224-8.895-4.439-1.772-4.68-5.11-18.015-6.21-22.453-1.12-4.438-2.611-5.968 3.32-6.9m-37.746-231.491c4.644 8.43-4.438 20.215-7.795 23.311-3.3 3.152-6.62 7.553-6.415 9.81.56 6.005-1.12 8-4.234 13.762-6.08 11.302-15.31 14.454-18.891 15.33-3.543.895-6.863 1.79-12.868 4.662.914-5.78-.448-7.31-1.79-5.09-5.763 9.622-7.385 13.445-13.092 15.422l-.224.056c-1.809.597-3.99 1.026-6.844 1.38-2.835.373-5.203.298-7.255-.112-.055 0-.13-.019-.205-.019-1.361-.298-2.573-.727-3.636-1.268-.019-.018-.037-.037-.075-.037-4.028-2.107-6.117-5.856-7.72-9.455-2.649-5.968.69-3.245 3.767-2.872 3.562.447 5.128-.877 2.461-2.22-2.666-1.323-4.438-2.666-16.43-6.657-11.99-3.991-17.996-11.339-20.439-18.444s2.648-3.543 5.091-2.014c2.462 1.566 10.91 6.452 19.992 11.338 9.12 4.887 11.656 6.9 18.556 5.129 6.881-1.79 16.523-12.029 20.29-15.777 1.156-1.156 2.536-2.91 3.543-1.79 2.555 2.816 4.439 1.79 4.439-1.772 0-5.8-9.325-8.02-15.292-8.467-5.987-.447-10.425-1.1-12.402-2.872-2.014-1.771-5.576-8.224-8.467-8.224-4.886 0-.895 3.543.672 5.11 4.792 4.811 2.424 9.324-4.681 8.653-7.105-.653-10.201 1.119-12.44 2.686-2.218 1.547-7.739 3.319-10.648-1.325-2.872-4.68.243-7.142 3.32-8.671 3.133-1.567 8.914-1.343 16.224-10.015 7.33-8.672 7.982-16.43 5.558-21.987-2.462-5.576-4.681-2.91-4.233-2.22.447.653 2.909 3.749 3.114 9.12.242 5.315-5.986 11.991-7.31 13.315-1.343 1.343-1.753.653-1.343-1.324 1.79-8.895.447-14.21-4.681-16.914 4.886-3.544 25.792-21.111 31.573-25.102 5.744-3.991 11.506-7.758 17.735-8.43 2.424 3.991 7.683 7.106 10.854 6.453 4.289-.932 4.998-.895 5.576 2.872.522 3.543.671 8.168 3.655 9.79 4.57 2.481 4.215 2.556 3.45 6.21-.597 2.854-1.1 3.563-.895 7.349.746 12.644-11.786 29.54-15.33 34.202-3.524 4.662-2.424 6.677.877 5.763 3.357-.877 13.129.447 13.763-.653 1.305-2.126 4.028-3.096 6.695-2.22.205-10.648 4.439-17.548 8.206-23.758 3.785-6.23 11.543-10.462 16.224-2.014M317.08 195.71c.019-.26.168-.522.392-.727.634-.503 1.79-.392 3.525-.205.727.075 1.51.15 2.275.186 2.76.131 3.618.056 3.916-1.286.876-4.103 6.247-3.488 9.138-3.152 8.094.932 10.723-2.182 11.562-4.121l.392-.896.746.616c2.22 1.809 8.41 2.294 11.376 2.294 2.947 0 5.408.242 7.87 1.398 1.119.523 1.753 1.157 1.883 1.94.262 1.454-1.081 2.816-3.114 4.867a65 65 0 0 0-1.53 1.585c-8.26 8.765-13.426 12.085-19.786 12.663a9 9 0 0 1-.708.037c-3.19 0-6.677-1.92-9.791-3.636-1.156-.634-2.238-1.25-3.19-1.679-.148-.074-15.217-7.925-14.956-9.884m4.718-22.9c.131 1.902-.559 1.696-1.212 1.696-.914 0-2.685-.13-3.897-1.25-1.66-1.547-1.865-5.333.111-11.748 2.015-6.453 2.686-7.497 4.439-8.467 2.22-1.212.895 1.772 2.22 1.567 3.971-.653 5.24 3.99 4.12 4.644-6.004 3.617-5.892 11.655-5.78 13.557m64.489-65.216c-15.982 4.438-30.827 12.01-39.051 20.01-8.803 8.56-17.773 14.658-29.335 23.088-11.544 8.466-15.311 11.58-20.645 10.89-7.217-.876-1.566-4.643 1.1-5.762 9.94-4.14 30.678-21.11 38.865-28.01 8.243-6.864 27.545-21.112 47.723-26.203 20.235-5.11 32.244-11.357 38.23-18.444 2.425-2.89 3.992-3.543 6.659-.876 2.666 2.648 2.424 4.196-.448 7.31-6.098 6.565-27.078 13.558-43.098 17.997m-127.933-27.49a282 282 0 0 1 51.509-14.322l2.704-.485-2.107 1.772c-6.024 5.073-10.015 10.5-11.842 16.094-7.124 21.8.26 38.324 7.496 50.278l.336.522-.466.41a67 67 0 0 0-3.413 3.152l-.317.168c-17.157 4.793-33.717 11.824-49.27 20.887l-.952-1.063c9.157-12.476 14.006-27.32 14.006-42.967 0-11.675-2.798-23.219-8.057-33.42l-.391-.727zm-122.6-6.543c12.532-17.493 32.002-28.216 53.411-29.41l1.306-.074-.616 1.156a2 2 0 0 0-.13.261c-4.737 8.858-7.013 16.318-7.013 34.128 0 8.485-2.666 19.302-4.046 22.49-.43.989-1.175 1.604-2.052 1.698-.074.018-.149.018-.242.018-.727 0-1.716-.335-2.779-1.771-3.674-5.073-17.138-21.876-36.87-27.19-.186-.038-.353-.113-.54-.169l-1.044-.26zm-10.443 58.334-.523-.056-.13-.503c-1.324-5.315-1.996-10.985-1.996-16.822a70.26 70.26 0 0 1 10.22-36.459l.299-.466.522.13c.317.075.634.187.95.28 19.75 5.502 33.159 22.473 36.833 27.62.186.26.429.54.671.82 1.212 1.38 3.059 3.45.84 6.285q-.197.28-.56.783c-8.672 12.458-22.006 18.743-39.667 18.743-2.07 0-4.214-.112-6.415-.28-.354-.037-.69-.037-1.044-.075m1.958 5.483c.224.019.485.019.727.019 7.758.26 29.13-2.425 40.021-11.358 14.695-12.084 16.43-26.444 18.407-46.865 1.958-19.917 4.848-26.202 9.51-33.699.131-.205.243-.41.374-.615 24.225 1.1 45.242 14.584 56.842 34.258a69.4 69.4 0 0 1 9.66 35.396c0 5.278-.634 10.406-1.734 15.311-14.434-6.005-31.554-.447-43.77 10.22-12.233 10.649-18.443 18.854-22.658 44.198-.522 0-1.026.019-1.567.019-18.09 0-34.52-6.919-46.92-18.22 20.905-5.334 38.491-14.864 58.26-33.55 19.767-18.686 29.54-40.45 32.206-50.65 2.667-10.24-1.119-4.234-3.114.447-3.096 7.18-13.316 26.63-33.531 45.522s-35.77 28.216-56.843 35.321a60 60 0 0 1-1.828-1.976 69.35 69.35 0 0 1-14.042-23.778M248.9 598.12l-.187.877-.82-.354c-32.376-14.062-61.524-33.96-86.645-59.1-52.87-52.907-82-123.232-82-198.015 0-64.638 21.316-125.248 61.598-175.283l.522-.634.579.578c13.725 13.651 31.945 21.167 51.322 21.167 7.366 0 14.583-1.082 21.484-3.208l2.275-.69-1.492 1.865a12.5 12.5 0 0 0-1.399 2.2l-.149.206c-42.818 40.505-66.41 95.147-66.41 153.855 0 56.525 22.007 109.656 61.99 149.64a216 216 0 0 0 30.137 25.064l.56.392-.317.578c-5.204 9.567-3.973 23.367-3.32 29.801 4.103.373 7.46.877 9.959 1.548l.242.056.15.205c6.359 7.926 10.238 22.976 7.664 29.82-2.48 6.49-4.401 13.017-5.744 19.432m46.417 76.35c-.616.429-1.716.82-3.17 1.063-2.07.298-5.409.447-9.045.186-4.16-.317-8.728-1.193-12.272-3.095-6.527-3.488-16.802-9.884-23.572-19.228-.13-.186-.28-.354-.41-.54-.784-1.12-.784-2.276-.373-2.91.429-.634 1.25-.764 2.144.243 5.54 6.247 15.983 15.777 23.778 19.115 7.758 3.32 12.868 4.439 19.75 3.767 3.71-.354 4.438.56 3.17 1.399m24.038-46.25c-.018 0-.018.019-.037.019a19 19 0 0 1-1.194.634l-.111.056c-.41.186-.802.317-1.1.391-1.25.243-2.649.299-4.029-.41-.018-.019-.037-.037-.056-.037-.186-.112-.391-.224-.578-.354-.13-.094-.242-.206-.373-.299a3 3 0 0 1-.28-.242c-.652-.616-2.424-2.275-4.475-4.234-.02 0-.02-.018-.038-.018-.205-.205-.41-.392-.615-.597-.019-.019-.056-.037-.075-.056-.186-.186-.391-.373-.578-.56-.019-.018-.056-.037-.074-.074a14 14 0 0 1-.541-.504c-.056-.056-.112-.093-.15-.149a11 11 0 0 1-.503-.466 1 1 0 0 1-.187-.187c-.167-.13-.317-.28-.466-.428-.074-.056-.13-.131-.205-.187-.13-.13-.28-.261-.41-.392-.093-.093-.187-.167-.28-.26-.13-.113-.261-.243-.373-.355s-.205-.205-.317-.298a845 845 0 0 0-4.196-3.954 4 4 0 0 0-.298-.28 3 3 0 0 1-.243-.26c-.596-.635-.578-1.026-.26-1.269a1 1 0 0 1 .148-.112c.597-.298 1.735-.354 2.667-.485.261-.037.485-.037.728-.056.167-.018.335-.037.484-.037 1.324-.093 2.649-.075 4.476-.224v.112a2.6 2.6 0 0 0-.56.802c-.037.037-.037.093-.055.13a2.3 2.3 0 0 0-.168.858c0 .299.056.616.168.914v.019c.037.093.074.168.112.261.037.075.074.168.13.242l.112.168.261.336c.037.056.075.093.112.15a.7.7 0 0 1 .13.111c.616.597 2.015 1.81 3.6 3.19.019.018.037.018.056.036.205.168.391.355.597.523.056.037.111.093.149.13.168.15.335.299.503.429.075.075.15.13.224.186.15.131.298.262.429.374l.336.28c1.081.95 2.107 1.845 2.872 2.517a.3.3 0 0 0 .074.056c.205.205.41.373.578.54.019.02.075.057.094.094.149.13.26.242.335.317.056.056.13.093.187.13.074.075.168.131.242.206a5.5 5.5 0 0 0 1.063.615c.019.019.056.019.075.037 1.007.392 2.163.504 3.45.224 1.25-.28-.037.802-1.567 1.697m3.991-8.15c-.652.448-4.531 1.455-6.303 1.567-2.014-1.772-4.793-4.662-5.334-5.24-1.119-1.082 5.203-2.425 6.546-2.425 1.53 1.007 4.383 3.506 5.408 4.57.69.652.355 1.08-.317 1.528m10.947.448c-.056.037-.093.075-.168.112-.018.019-.018.019-.037.019-1.175.69-2.275 1.36-3.133 1.79-.019.019-.056.037-.093.056-.597.298-1.044.466-1.268.392-.15-.038-.224-.168-.13-.467.055-.13.092-.242.13-.373.41-1.268.764-2.965-.653-4.55-.056-.056-.093-.112-.15-.168l-.037-.037c-.13-.13-.298-.299-.466-.448a2 2 0 0 0-.186-.168c-.97-.913-2.331-2.032-3.655-3.114a1 1 0 0 1-.15-.112c-.167-.13-.317-.261-.484-.392-.112-.093-.224-.167-.336-.26-.84-.69-1.623-1.306-2.238-1.81-.056-.037-.093-.074-.15-.111-.092-.094-.204-.168-.298-.243-.895-.746-1.753-1.361-2.126-1.641-.056-.019-.056-.019-.074-.056-.056-.037-.13-.075-.13-.075.41-.186.857-.391 1.323-.578.038-.018.094-.037.15-.056 1.137-.429 2.275-.708 2.871-.26.075.055.224.167.355.26.037.038.056.038.074.056.541.41 1.436 1.045 2.5 1.846l.167.112c.746.56 1.548 1.157 2.387 1.79.056.057.112.094.168.131.168.13.317.261.485.373.112.094.205.168.317.261.54.41 1.082.84 1.604 1.269l.037.037c.224.168.41.335.616.503.037.038.093.075.13.112.168.15.354.299.522.448.056.037.112.093.168.149a.3.3 0 0 1 .075.056c1.51 1.287 2.517 2.182 2.946 2.91.075.111.112.223.15.316.26.672-.112 1.25-1.213 1.921m-.168-9.213c-2.461-1.771-5.333-4.233-2.424-4.438 2.853-.224-3.562-25.344-5.334-29.783-1.771-4.438-6.9-9.995-1.771-9.995 2.872 0 8.093 1.212 9.753 6.452 1.343 4.233 9.978 5.334 13.782 5.11 3.748-.224 3.096 1.79 2.89 4.01-.242 2.219-.876 8.876-.876 11.543s.634 11.992 1.082 13.763c.447 1.772-1.082 2.667-3.096 3.543-2.014.896-9.325 3.115-14.006-.205m32.413 30.23c-7.665 4.793-17.083 8.206-21.969 8.206 0-1.1-.242-2.872-1.119-6.863 7.982-2.014 16.337-6.191 20.868-8.243 2.425-1.118 3.32 1.343 3.991 2.872.653 1.567 0 2.91-1.771 4.029m126.608-54.156c-38.902 21.316-81.235 32.766-125.788 34.09h-.503l-.206-.466a13 13 0 0 0-.764-1.548c-1.641-3.04-5.073-5.949-7.833-8.28-2.312-1.958-3.636-3.096-3.972-4.066-1.995-5.949-.54-22.789.186-28.775l.056-.466.448-.15c5.017-1.585 12.327-4.196 18.519-7.497 6.508-3.468 15.553-12.065 20.197-18.033.317-.41.69-.97 1.063-1.623l.167-.317.355-.056c32.132-5.464 61.784-17.977 88.173-37.167l.857-.616.28 1.007c.69 2.387 2.742 5.707 6.658 10.798 8.28 10.649 8.597 29.466 6.36 42.352-.933 5.371-2.406 9.642-3.47 12.775-1.1 3.208-1.902 5.539-1.193 6.322.093.093.205.186.298.28.075.074.15.167.243.242l.802.69zm29.97 9.082c-.113 1.697-.486 3.245-.821 4.587-.261 1.026-.485 4.01-.672 7.796-.242 4.98-.41 11.376-.466 16.616-.056 3.73-.037 6.882.037 8.467.038.839.914 20.57-1.305 21.222a.8.8 0 0 1-.242.038c-.261 0-.634-.112-.933-.634-.168-.299-.354-.765-.54-1.287-1.586-4.513-3.339-16.188-3.339-18.183v-.522c0-.243 0-.522.019-.727.018-1.343 0-1.921-.28-2.238a.5.5 0 0 0-.13-.15c-.765-.559-1.679-2.61-4.495-21.148-1.865-12.215-6.564-17.94-10.425-21.577-.317-.28-.56-.56-.802-.82-2.275-2.518-1.846-4.327-1.398-6.08.074-.28.149-.578.205-.876.037-.261.149-.69.28-1.287 1.025-4.681 4.14-18.91 4.14-29.69 0-11.357-3.32-18.537-6.565-24.038-1.454-2.48-3.469-4.942-5.091-6.919-1.716-2.089-2.947-3.6-3.208-4.625-.28-1.082.43-2.406 1.324-4.084.933-1.772 1.996-3.767 1.996-5.65 0-3.675 2.256-7.516 3.898-10.314l.335-.615 1.996-11.208c-.019-2.574-.485-6.434-1.53-8.896l-.13-.317 7.31-14.565.541.093c.485.094 4.756.896 5.912 1.343 1.92.783 1.846 3.04 1.1 6.416-1.473 6.583-1.063 11.711 1.268 16.168.578 1.1 1.604 1.846 2.574 2.574 1.193.858 2.406 1.753 2.63 3.245.186 1.25-.355 2.685-1.716 4.513-4.215 5.67-3.86 10.275-3.432 16.094l.019.298c.205 2.854 1.305 4.42 2.462 6.08 1.137 1.641 2.312 3.338 2.424 6.173.037.895-.112 2.051-.28 3.413-.41 3.095-.895 6.974.765 8.783l.634.672c2.592 2.778 5.837 6.247 7.72 11.115 1.138 2.909-.167 4.438-1.957 6.564-1.884 2.22-4.439 5.24-6.434 11.674-2.798 8.952-.933 15.404 1.417 19.88.97 1.865 2.033 3.394 2.89 4.607 1.996 2.872 2.425 5.594 2.294 8.019m-1.977-27.508c1.025-6.9 3.636-13.595 5.315-16.075 2.648-4.01 2.871-10.22-3.134-15.348-5.986-5.11-5.538-6.453-4.438-10.891 1.119-4.439-2.22-10.444-5.091-18.444-2.91-7.982 1.53-9.996 2.872-11.992 1.324-2.014 6.657-9.753 8.224-11.338 1.567-1.567 1.772-3.096 3.786-.206 1.995 2.872 6.676 3.115 8.653 1.306 5.296-4.7 15.777-20.42 17.12-23.535 1.324-3.115 1.529-8 1.082-12.44-.821-8.522-3.32-14.937-5.185-15.926 13.8-28.477 21.11-59.919 21.11-92.48 0-56.75-22.08-110.067-62.157-150.219-24.877-24.822-54.81-42.762-87.427-52.814-.037-.168-.037-.354-.037-.503-.914-17.307-6.005-25.568-7.982-28.888-2.014-3.338-3.562-4.886-1.79-5.781 1.79-.877 7.758-3.338 16-8.43 8.188-5.128 8.188-10.443 5.092-14.676-3.077-4.234-8-5.334-11.544.429-3.562 5.78-10.22 7.795-18.873 11.562-.428-6.994-1.212-17.978-6.023-27.563 60.348 8.075 116.128 35.526 159.916 79.295 52.72 52.759 81.776 122.935 81.776 197.532 0 93.674-46.343 176.7-117.265 227.425M386.12 165.388c-3.624 3.628-7.37 7.378-10.955 7.485-3.723.091-9.684-1.13-13.892-3.984-4.1-2.85-5.367-4.11-4.669-8.147.584-3.266.805-4.623.963-5.591l.163-.984c.432-2.39.167-3.834-.809-4.414-.979-.58-2.371-.143-4.367 1.376-2.317-1.754-4.499-3.69-6.12-5.127-1.278-1.134-2.202-1.953-2.788-2.344-.355-.237-.96-.72-1.016-1.296-.04-.407.19-.864.684-1.36.324-.321.766-.332 1.44-.33.644.009 1.457.021 2.015-.609.516-.584.647-1.547.372-3.062.235-.184 1.367-.141 1.91-.119.882.034 1.58.061 2.064-.182.562-.28.702-.824.796-1.184.116-.45.227-.873 2.487-.3 1.067.269 1.571-.56 1.842-1.002.35-.572.578-.952 1.647-.762.578.098 1.092.222 1.546.332 1.571.38 3.198.77 3.822-1.558.243-.963.484-1.636.867-1.79.249-.102.917-.12 2.559.903 1.337.828 2.446 1.065 3.294.699.657-.28 1.1-.881 1.227-1.688.242-.129 1.419.08 3.166 1.119l.55.312c2.082 1.172 6.414 3.61 11.37 9.42.894 1.033 1.282 1.907 1.34 2.275q-.14.026-.282.05c-.786.127-1.973.32-2.24 2.318-.088.767-.292 1.294-.44 1.529a2.5 2.5 0 0 1-.271-.445c-.5-.983-1.014-1.374-1.761-1.254a4 4 0 0 1-.192-.45c-.095-.25-.385-1.013-1.061-1.223-.575-.177-1.048.12-1.373.344-.564-1.224-1.352-1.14-1.873-.877-.002-.002-.058-.058-.149-.266-.423-.95-1.483-.627-2.118-.433-.383.117-.964.294-1.045.147-.649-1.214-1.814-.596-2.31-.333-.745.394-.79.328-.953.112-.132-.171-.53-.71-1.153-.685-.6.006-.942.468-1.218.84-.432.583-.534.616-.86.492-1.441-.526-2.017.394-2.262.79-.052.083-.131.21-.126.222 0-.004-.096.009-.355-.107-1.57-.684-2.197.626-2.466 1.183-.296.614-.33.608-.508.557-.549-.147-1.25-.267-1.81.094-.63.407-.746 1.134-.907 2.14l-.096.574c-.335 1.954-1.105 9.366-1.013 11.187.034.506.257.941.646 1.257 1.308 1.066 4.468.687 9.518-.015 5.518-.792 15.627-3.855 20.826-8.187 1.598-1.335 2.86-1.246 2.97-1.255.038.311-.551 1.642-1.814 2.7l-.47.406c-1.747 1.532-5.385 4.72-12.964 6.215-6.133 1.188-15.403 2.979-16.807 2.67-.742-.17-1.08.148-1.221.353-.11.16-.323.599.08 1.195.558.83 2.296 1.86 4.187 1.434.268.04 1.027.75 1.58 1.27 1.596 1.491 4.006 3.745 7.2 3.745 4.078 0 9.81-4.29 11.469-5.605.677-.534 1.955-1.182 2.882-1.542q-.176.194-.425.442zm32.048 5.527v.002a4 4 0 0 0-.335.65 5.2 5.2 0 0 0-.318 1.106 8 8 0 0 0-.118.937 61 61 0 0 1-.487 4.38l-.046.297c-.134.83-.292 1.613-.473 2.28q-.071.264-.149.501a5.6 5.6 0 0 1-.306.772 1.9 1.9 0 0 1-.345.51.7.7 0 0 1-.207.14h-.622c-.205-.105-.358-.315-.474-.569a5 5 0 0 1-.247-.732c-.148-.552-.225-.956-.433-.475a1.7 1.7 0 0 1-.296.475 1.2 1.2 0 0 1-.296.224c-.837.498-2.078-.13-2.516-1.26-.009-.023-.038-.044-.06-.065a1 1 0 0 0-.303-.172c-1.022-.415-3.726-.998-2.246-4.5h.003v-.009c.273-.645.678-1.381 1.273-2.242.389-.566.762-1.084 1.134-1.599.045-.063.093-.133.139-.196a59 59 0 0 1 1.821-2.379l.104-.124c.148-.182.293-.354.439-.527.07-.084.142-.173.212-.255.1-.118.207-.253.306-.367.118-.134.23-.246.345-.374a27 27 0 0 1 2.2-2.201c.127-.11.25-.201.375-.305.143-.118.286-.237.427-.347.064-.05.13-.11.195-.16.597-.45 1.178-.809 1.752-1.113l.172-.092c.128-.065.258-.146.385-.204 1.088-.505 2.463-.434 3.464.053q.224.107.42.243c.466.323.787.76.883 1.284v.602c-.06.403-.254.842-.603 1.312l-.049.066a6 6 0 0 1-.526.585c-.043.042-.08.083-.125.125-.295.278-.625.56-1.036.852-.498.355-.94.657-1.352.947l-.158.111c-.826.588-1.473 1.117-1.923 1.813" style="fill:#171614"/><path d="M328.139 605.095c-2.22-.895-3.674-1.771-4.55-2.014-6.789 2.91-21.652 6.21-32.338 6.658.466-6.658-.447-21.11-.895-29.093 3.804 0 6.9-.205 9.12-.447-.877-7.348-1.66-18.332-1.66-22.566 5.333 2.22 12.774 5.446 18.78 6.583 1.976 4.644 3.617 7.684 5.333 12.197 2.536 6.77 7.105 21.54 6.21 28.682m169.26-38.529c2.237-12.886 1.92-31.703-6.36-42.352-3.916-5.091-5.968-8.41-6.658-10.798l-.28-1.007-.857.616c-26.389 19.19-56.04 31.703-88.173 37.167l-.355.056-.167.317a14.5 14.5 0 0 1-1.063 1.623c-4.644 5.968-13.689 14.565-20.197 18.033-6.192 3.301-13.502 5.912-18.519 7.497l-.448.15-.056.466c-.727 5.986-2.181 22.826-.186 28.775.336.97 1.66 2.108 3.972 4.066 2.76 2.331 6.192 5.24 7.833 8.28.298.504.54 1.026.764 1.548l.206.466h.503c44.553-1.324 86.886-12.774 125.788-34.09l.933-.504-.802-.69c-.093-.075-.168-.168-.243-.242-.093-.094-.205-.187-.298-.28-.709-.783.093-3.114 1.194-6.322 1.063-3.133 2.536-7.404 3.468-12.775m141.005-225.038c0 93.674-46.343 176.7-117.265 227.425 1.025-6.9 3.636-13.595 5.315-16.075 2.648-4.01 2.871-10.22-3.134-15.348-5.986-5.11-5.538-6.453-4.438-10.891 1.119-4.439-2.22-10.444-5.091-18.444-2.91-7.982 1.53-9.996 2.872-11.992 1.324-2.014 6.657-9.753 8.224-11.338 1.567-1.567 1.772-3.096 3.786-.206 1.995 2.872 6.676 3.115 8.653 1.306 5.296-4.7 15.777-20.42 17.12-23.535 1.324-3.115 1.529-8 1.082-12.44-.821-8.522-3.32-14.937-5.185-15.926 13.8-28.477 21.11-59.919 21.11-92.48 0-56.75-22.08-110.067-62.157-150.219-24.877-24.822-54.81-42.762-87.427-52.814-.037-.168-.037-.354-.037-.503-.914-17.307-6.005-25.568-7.982-28.888-2.014-3.338-3.562-4.886-1.79-5.781 1.79-.877 7.758-3.338 16-8.43 8.188-5.128 8.188-10.443 5.092-14.676-3.077-4.234-8-5.334-11.544.429-3.562 5.78-10.22 7.795-18.873 11.562-.428-6.994-1.212-17.978-6.023-27.563 60.348 8.075 116.128 35.526 159.916 79.295 52.72 52.759 81.776 122.935 81.776 197.532m-22.808-62.176 1.138 17.287-28.57 3.357 1.323 11.86 28.57-3.337 1.12 12.364 12.793-.932-3.543-41.55zm-77.561-123.028 10.835-1.865c-.82-6.509-4.439-14.006-8.075-17.176-5.651-4.886-12.346-6.21-19.451-5.296-7.236.95-13.95 5.594-17.736 10.984-4.121 5.856-6.508 13.95-4.867 21.073 1.455 6.434 4.121 10.313 10.126 14.547 3.86 2.685 9.623 4.513 15.069 5.296l1.193-11.637c-2.778-.093-6.508-1.268-9.622-3.935-5.987-5.185-6.285-13.39-2.462-18.63 4.737-6.546 13.036-7.926 20.365-3.04 2.946 1.958 4.084 5.09 4.625 9.679m27.451 67.826-13.446-20.383 6.77-4.812 14.695 21.839 8.672-6.117-15.124-21.41 6.564-4.68 16.113 22.62 8.672-6.153-23.927-33.55-39.368 27.899 21.689 30.864zm14.975 55.481 12.868-5.967-8.84-19.265 30.137-12.55-5.482-12.085-42.576 18.537zm21.13 153.762c-5.856-1.51-13.857 4.942-17.698 8.635-2.22 2.144-9.978 9.958-13.558 8.765-3.19-1.1-2.22-5.968-1.156-9.176 1.566-4.68 3.99-8.616 7.758-11.133l-6.956-3.096c-3.376 2.835-7.162 7.385-8.71 11.973-1.771 5.315-2.517 11.525-1.771 15.46.97 5.091 2.76 8.317 8.504 7.795 4.4-.429 15.534-7.646 21.931-13.688 3.245-3.04 6.042-3.376 7.478-2.574 2.35 1.306 2.2 5.297 1.343 7.796-1.119 3.338-2.723 8.485-5.39 10.387l9.474 6.36c3.88-3.898 5.893-9.773 7.05-15.237 2.741-13.24-4.42-21.297-8.3-22.267m23.89-47.91c-3.6-6.321-9.698-9.585-16.15-10.835-7.05-1.324-15.405-.167-21.242 4.234-5.24 4.01-7.665 8-9.045 15.255-.895 4.587-.187 10.63 1.361 15.926l11.097-3.73c-1.1-2.573-1.548-6.452-.355-10.387 2.22-7.59 8.374-11.022 15.926-9.903 8.001 1.156 12.551 8.504 11.097 17.232-.56 3.469-2.275 6.49-6.248 8.858l6.882 8.28c5.595-3.431 9.847-10.182 10.742-14.919 1.529-8.019-.355-13.52-4.066-20.01m6.284-30.938-.187-14.136-41.997.112.168 14.154zM135.444 434.72c-7.372 0-13.352 5.98-13.352 13.382 0 7.37 5.98 13.38 13.352 13.38 7.4 0 13.38-6.01 13.38-13.38 0-7.402-5.98-13.382-13.38-13.382m23.269 71.436c-4.323 4.056 5.803 12.019 9.178 16.075l5.95-5.713.385-.355a9 9 0 0 0-.386-.475c-2.249-2.693-11.308-13.144-15.127-9.532M118.895 292.53c7.401 0 13.381-6.009 13.381-13.381 0-7.4-5.98-13.381-13.381-13.381-7.372 0-13.351 5.98-13.351 13.381 0 7.372 5.979 13.381 13.35 13.381m55.449 197.137a5 5 0 0 0-.504.622c-.62 1.065-.532 2.427 0 3.967 1.57 4.5 6.957 10.273 8.94 12.67l.89 1.067 7.046-5.743-1.097-1.333c-2.575-3.08-11.663-14.655-15.275-11.25m80.299 89.021c-2.48 6.49-4.401 13.017-5.744 19.432l-.186.877-.82-.354c-32.376-14.062-61.524-33.96-86.645-59.1-52.87-52.907-82-123.232-82-198.015 0-64.638 21.316-125.248 61.598-175.283l.522-.634.579.578c13.725 13.651 31.945 21.167 51.322 21.167 7.366 0 14.583-1.082 21.484-3.208l2.275-.69-1.492 1.865a12.5 12.5 0 0 0-1.399 2.2l-.149.206c-42.818 40.505-66.41 95.147-66.41 153.855 0 56.525 22.007 109.656 61.99 149.64a216 216 0 0 0 30.137 25.064l.56.392-.317.578c-5.204 9.567-3.973 23.367-3.32 29.801 4.103.373 7.46.877 9.959 1.548l.242.056.15.205c6.359 7.926 10.238 22.976 7.664 29.82M112.947 228.794l41.121 23.89 6.304-11.153-25.605-14.788.093-.112 33.885-.56 8.113-12.495-41.793-24.132-6.303 9.828 28.496 17.94-38.903 1.101zm-19.712 50.352c0 14.192 11.488 25.68 25.661 25.68s25.699-11.488 25.699-25.68c0-14.173-11.525-25.698-25.699-25.698-14.173 0-25.66 11.525-25.66 25.698m-3.226 81.646 10.611-.112-.13-15.012 33.14-.41-.131-10.425-33.159.41-.149-14.136-10.63.112zm18.518 53.262c6.341-.709 9.68-7.31 10.686-17.53.299-3.152.13-8.97 3.562-9.679 3.32-.709 5.502 2.518 6.192 5.8 1.025 4.83 2.387 8.597.429 12.7l8.97-.933c1.455-4.177 1.007-9.716 0-14.453-1.138-5.482-2.89-9.324-6.919-12.905-3.879-3.431-6.807-4.326-12.457-3.133-3.432.727-9.605 6.882-9.81 19.302-.056 2.331-.615 6.826-2.723 6.956-2.685.112-4.68-3.077-5.203-5.67-.746-3.45.261-11.04 1.604-14.023l-9.399-.038c-1.361 5.315-1.884 12.775-.709 18.24 2.555 12.084 9.866 16.019 15.777 15.366m26.911 59.714c14.192 0 25.698-11.487 25.698-25.66 0-14.193-11.506-25.7-25.698-25.7-14.173 0-25.661 11.507-25.661 25.7 0 14.173 11.488 25.66 25.661 25.66m70.904 34.967-13.82-16.056c-3.486-4.402-11.524-14.136-18.686-16.486-2.722-.877-5.296-.709-7.478 1.25-3.972 3.487-5.874 11.786-2.144 17.399-4.047-1.94-12.216-2.63-15.945.634-2.369 2.033-3.413 4.345-3.47 6.77v.447c.169 6.919 7.927 14.882 14.622 21.577l12.83 12.681 1.585-1.305zM310.46 67.07l2.107-1.772-2.704.485a282 282 0 0 0-51.509 14.323l-.764.298.391.727c5.26 10.201 8.057 21.745 8.057 33.42 0 15.646-4.85 30.49-14.006 42.967l.951 1.063c15.554-9.063 32.114-16.094 49.271-20.887l.317-.168a67 67 0 0 1 3.413-3.151l.466-.41-.336-.523c-7.235-11.954-14.62-28.477-7.496-50.278 1.827-5.595 5.818-11.021 11.842-16.094m60.833 24.86c-.988-.448-1.436-.318-.988-2.332.429-1.995 1.883-1.79 1.771-4.886-.13-3.114-2.424-3.226-4.531-2.555-2.126.69-2.91 1.66-4.924 4.327-1.976 2.667-1.081-1.772-.764-2.537.335-.727 1.119-5.837-1.623-6.75-1.51.764-3.058 1.529-4.494 2.275-.019 0-.019 0-.019.018-.466.97-.858 2.108-1.268 3.227-1.119 2.872-2.48.727-3.431-.672-.02 0-.02-.018-.02-.018v-.02c-2.964 1.66-5.575 3.209-7.552 4.477-.13.093-.28.186-.41.28-.094.055-.168.111-.243.167.261 1.753 2.369 3.973 3.544 4.793 1.454.97.56 2.872-1.213 2.872-1.771 0-3.99-1.212-6.21 1.455s-.802 5.203 1.324 5.203c2.108 0 3.88.802 4.663 3.226.764 2.462 1.436 3.469 4.308 3.786 2.909.336 4.569-1.884 5.37-3.226.765-1.325 1.772-3.227 2.984-2.78 1.772.654 1.567 2.556 1.045 4.589v.037a70 70 0 0 1 6.452-3.506c-.373-1.884-1.492-3.637-2.312-4.439-1.007-1.007-.653-1.436 2.331-1.119s6.34.112 7.105-1.976c.765-2.145.112-3.47-.895-3.917m18.575-26.315a69 69 0 0 0-3.227.821c.522 2.555 1.53 5.8.97 6.285-.653.56-3.189 1.007-5.203 1.566-1.995.541-6.788 4.98-4.327 8.206s3.227 5.11 3.674 6.77 4.439 3.673 7.199.335c2.779-3.32 4.905-6.993 5.557-4.662.56 1.958.41 6.695.038 9.25.578-.13 1.156-.243 1.734-.355 1.1-12.438-1.977-21.315-6.415-28.216m-51.845 46.66c-2.126-.895-2.331-2.872-2.126-5.016.243-2.089-.336-5.203-4.438-3.655-4.085 1.566-2.667 5.557-3.88 6.881-1.212 1.343-1.902.895-1.66-1.082.206-2.014-1.566-3.356-2.573-3.785-.764-.373-2.48-.784-3.935-.896a118 118 0 0 0-3.114 2.91c-3.021 2.946-5.763 5.949-7.963 8.933.653 1.361 2.219 2.89 3.02 3.133 1.12.354 2.78 1.119 2.668 3.357-.094 1.864-4.327 1.995-7.106 2.07 1.455 3.897 2.91 6.937 4.663 9.473.056.056.093.13.13.187.019.018.019.037.038.037a20 20 0 0 0 1.92 2.369 19 19 0 0 0 2.574-.914c3.469-1.455 4.55-6.695 5.11-8.224.578-1.567 1.995-1.213 3.002.764.709 1.418.951 2.704 1.063 3.972.485-.484.97-.97 1.455-1.436.951-.95 1.902-1.864 2.835-2.76l.018-.018c.467-.448.933-.895 1.399-1.324a22 22 0 0 0-2.22-1.977c-1.566-1.231-1.976-3.115-.111-3.674 1.902-.56 4.438-.988 9.12-3.003 4.643-2.014 2.219-5.445.111-6.322M394.4 238.92c-3.767 2.332-3.114-.764-1.1-1.995 1.977-1.23.56-5.67-3.674-4.233-2.536.876-4.01-.336-5.296-1.25-.15.056-.317.112-.485.168-1.082.41-2.22.914-3.338 1.417-.13.056-.261.13-.41.187 0 .652.149 1.38.317 2.144.298 1.436.988 5.129-1.362 3.562-1.995-1.342-4.755-2.107-5.52.448-.783 2.574.765 2.779.56 4.345-.243 1.548-4.234 1.865-2.35 5.091 1.902 3.227 4.68 1.455 6.583.243 1.865-1.25 3.636.205 2.984 1.883-.485 1.157-1.38 4.868-1.604 7.721.112.075.224.15.354.224.895.56 1.828 1.193 2.816 1.92h.019l.093.075c1.175-1.119 2.984-2.517 4.867-2.834.672-.112-1.118-7.982.317-8.336 1.455-.336 2.108 4.345 5.24 3.785 3.078-.56 3.88-3.674 3.451-7.105-.448-3.469 1.53-1.566 3.096-3.99 1.548-2.463-1.772-5.782-5.558-3.47m-59.957 6.77c.56-1.66 1.921-4.886-.093-6.453-2.014-1.529-4.103-.074-6.21 2.22-2.107 2.35-1.324-2.09-.242-3.991 1.454-2.425 0-4.084-2.425-4.532-2.461-.448-3.226 2.984-4.886 1.417-2.63-2.443-6.77-1.417-5.762 2.014 1.007 3.432 2.088 4.57 0 5.017-2.145.429-4.122-5.128-6.583-.69-2.425 4.439 1.454 5.781 1.137 9.12-.336 3.338.97 6.9 2.984 7.217 2.014.335 4.121-1.884 5.203-3.227 1.138-1.324 3.786-2.33 3.469.243-.243 1.753-.355 5.427-.41 7.515 4.084-1.976 8.466-4.046 10.835-4.848.112-.038.205-.094.298-.112-1.1-.448-2.704-1.194-4.177-2.238-2.22-1.567-1.903-3.544-.243-3.991 1.697-.448 4.924 2.984 7.795 1.007 2.891-2.014-1.212-3.991-.69-5.688m-20.514 88.993c-3.338.448-6.657.896.896-5.333 6.657-5.502-3.674-8.392-9.4-9.586-.111.112-.205.224-.317.336-9.753 10.238-20.625 20.607-29.8 28.477l-.71.615c-.913.784-1.752 1.548-2.592 2.276 1.287.56 3.338.988 6.155.13 5.09-1.566 5.333 2.425 4.662 5.763-.653 3.282-.653 10.425-.448 13.968l8.43.447c-.448-2.219 0-8.671.242-12.42.205-3.767 3.99-9.567 5.334-3.767 1.324 5.744 7.105 5.95 11.096 3.543 3.99-2.443 6.9-7.776 11.096-15.33 4.233-7.552-1.324-9.566-4.644-9.119M287.26 384.01c-2.368-8.466-10.22-.447-15.105 4.196-4.887 4.681-5.11.896-.206-6.657 4.887-7.553-3.114-9.996-8-7.982-4.01 1.64-7.74.242-10.294-1.79h-.019c-1.753 2.815-3.058 5.445-4.438 8.224l-.15.317c-2.256 4.643-2.238 6.434-1.809 7.105.41.653 1.586.709 2.947.709 3.916 0 10.891 14.807 11.357 16.038.261.802 2.89 4.569 4.886 7.44.112-1.715.783-3.412 2.854-4.065 4.214-1.324 6.862 7.777 13.091 2.462 6.21-5.37 1.772-9.81 1.567-14.248-.243-4.438 4.886-6.21 3.32-11.749m60.418 10.42c1.125.888 3.553.888 3.997.237 4.115-6.188 8.201-12.228 8.644-16.461 0 0 4.886 1.125 8.882.889 11.102-.622 7.993-10.421 6.661-12.435-1.333-2.013-3.108-4.233-.888-7.964 2.22-3.789 2.872-7.104 1.095-9.118-7.312-8.23-10.864 2.665-12.434 5.33-1.539 2.664-4.203 4.884-3.316 1.331.888-3.552 3.997-3.76 5.092-10.42 1.54-9.177-8.851-6.69-11.279-4.677-2.457 1.983-6.01 3.996-11.782 1.539-5.773-2.428-8.408 2.013-7.993 6.246.443 4.44 3.107 6.869 6.424 8.881 3.345 1.984 2.012 3.968-.445 1.984-2.427-1.984-5.98-2.871-7.993-1.984-6.602 2.902-7.756 7.757-4.648 11.517 3.11 3.79 2.428 6.01.208 10.213-2.22 4.233 2.457 8.438 7.105 8.23 4.677-.207 8.882-7.104 11.575-10.45 2.635-3.315 4.441-1.095 5.092 1.332.651 2.457-3.345 8.023-5.773 10.688-2.457 2.664.681 4.203 1.776 5.091m53.286-78.377c-2.928 2.872-6.938 4.7-10.239 3.972-3.99-.876-9.175-1.566-9.772 6.677-.205 3.095 2.91 5.557 5.782 6.657 2.89 1.12 2.443 3.096-.653 2.015-3.115-1.138-5.539-1.79-7.758 4.643-2.257 6.453 1.734 7.348 3.748 7.777 2.014.447 3.562.895 3.115 3.562-.448 2.667-1.772 10.425 3.338 11.077 5.091.672 9.548-5.52 11.077-8.616 1.567-3.114 3.357-6.247 3.786-2.666.448 3.543-.205 5.333-1.977 9.324-1.809 3.972-1.809 5.744.896 5.502 2.648-.205 7.105 0 8.429-3.115 1.324-3.077 3.32-9.045 3.543-13.278.13-2.275 1.865-2.797 3.413-2.816v-.056a255 255 0 0 1 1.697-11.842c-8.28.466-15.553-9.1-18.425-18.817m-17.791-16.69c-3.749-3.544-7.106 1.547-10.425 2.218-3.339.653-2.014-2.219 4.886-7.534 5.576-4.327 1.566-8.634-1.958-10.48-.056.055-.094.111-.15.149-7.385 7.44-18.928 18.257-25.828 24.728-2.015 1.865-3.563 3.32-4.42 4.122-1.007 1.007-1.921 2.163-2.78 3.468 7.703-3.245 8.132.038 6.715 2.425-1.53 2.667-5.968 10.257-3.991 12.681 2.014 2.443 4.233-2.424 6.005-.653 1.771 1.772 5.78 3.749 5.78 2.425s.448-3.991 1.12-7.553c.653-3.543 2.2-5.558 3.73-2.667 1.566 2.91 3.785 5.334 9.324 4.01 5.576-1.343 4.886-7.106 3.786-11.339-1.119-4.215 2.872-6.229 4.886-7.348 1.996-1.1 7.105-5.09 3.32-8.653m33.978 97.515c-.634-3.543 3.562-5.762 1.343-11.544-3.842-10.051-9.53 1.996-12.887 5.334-3.3 3.32-2.778-2.331.243-5.334 1.548-1.566 8.43-5.8 4.438-10.443-3.99-4.681-9.772-2.014-12.662 0-2.872 1.977-5.092 4.438-9.567 3.114-4.439-1.342-8.206-1.79-10.873 4.644-2.648 6.453 2.443 4.68 6.677 9.362 4.196 4.643 1.566 4.867-1.79 3.748-3.302-1.1-4.887-5.333-9.773-4.643-4.867.652-4.867 8.429-3.338 10.443 1.567 1.996 4.68 3.077 2.462 6.882-2.22 3.785 1.1 8.224 5.09 9.996 4.03 1.771 10.015-5.334 12.235-8.225 2.219-2.872 4.438-2.219 3.99 0-.372 1.81-1.286 6.34-1.529 10.35 3.935-1.23 6.938-2.125 9.717-2.89l.167-.056c-.093-2.331-.578-5.67-1.492-8.952-1.305-4.904 1.81-3.543 4.681-.876 2.91 2.667 9.772 6.415 14.658 1.977 4.887-4.439-1.1-9.325-1.79-12.887m-64.587 21.117c-2.221-1.57-3.998-4.234-1.126-8.23 2.902-3.997 4.914-7.55.237-8.881-4.648-1.333-7.785 3.552-10.213 6.216-2.457 2.665-3.79 1.125.443-6.216 4.205-7.343-6.216-8.882-10.213-6.01-3.997 2.9-9.06 4.47-13.795 4.233-12.198-.681-8.853 8.881-6.188 10.894 2.664 1.984 2.22 4.648-.681 4.648s-5.537-4.648-8.645.889c-3.138 5.565-.236 9.562 2.873 12.67 3.107 3.109-1.126 7.55 5.09 10.894 6.247 3.317 8.468-3.996 10.895-8.436 2.428-4.47 3.553 4.44 4.679 9.088 1.094 4.677 5.772 7.342 6.215 5.121.445-2.22 2.665-2.664 5.537-2.664 2.901 0 .237-3.552-2.22-7.342-2.428-3.759-2.22-6.868 1.332-5.536s4.441 3.76 9.799 2.22c12.286-3.611 8.201-12.019 5.98-13.558" style="fill:#007141"/></svg>