<svg xmlns="http://www.w3.org/2000/svg" xml:space="preserve" width="720" height="720" viewBox="0 0 720 720"><path d="M374.33 575.976c9.209 0 37.45-.075 60.985-20.138 20.864-18.916 23.002-41.191 23.614-66.26l-.153-70.616c0-22.085 0-49.153-23.081-68.247a63.9 63.9 0 0 0-17.387-10.252A54.94 54.94 0 0 0 440.357 311a98 98 0 0 0 3.362-30.188l-.19-62.858c-.573-17.387-2.485-37.217-16.546-53.269-12.415-13.666-31.102-20.761-54.785-20.761h-.459l-85.25.229a10 10 0 0 0-6.88 2.865 9.1 9.1 0 0 0-2.788 6.724l.726 412.728a9.46 9.46 0 0 0 4.662 8.214 10.2 10.2 0 0 0 5.389 1.53l86.74-.23zm32.902-182.616a79.9 79.9 0 0 1 3.015 24.914l.154 58.501c0 26.672-1.643 39.202-11.845 47.078-6.076 4.357-13.527 6.918-32.567 7.566 0 0-32.673.075-35.194.075-2.943 0-4.09-1.81-4.09-4.586 0-24.073-.343-156.71-.343-157.816a2.542 2.542 0 0 1 2.829-2.904 314 314 0 0 1 34.428 1.146c9.972 1.07 20.595 2.864 29.193 8.328a33.67 33.67 0 0 1 14.368 17.653zM328.4 187.933h23.5c30.607 0 43.79 4.523 43.79 35.806v52.958c-.383 12.725-.603 34.277-25.794 41.843-7.032 1.987-10.395 2.6-25.716 3.133h-15.17q-.15.03-.302.04c-2.37 0-3.015-1.261-3.015-3.173 0-1.224-.154-127.094-.154-127.094 0-2.063.727-3.248 2.865-3.477zM360.003 36C181.063 35.998 36.002 181.057 36 359.997S181.057 683.998 359.997 684 683.998 538.943 684 360.003V360c-.211-178.853-145.147-323.789-324-324zM653.32 280.9a302.3 302.3 0 0 1 10.087 64.004c-8.94 17.732-26.518 32.327-39.319 39.503-1.107-8.368-2.56-17.845-4.523-26.557a574 574 0 0 0-6.496-26.328 94.6 94.6 0 0 0 26.175-23.768 95.7 95.7 0 0 0 14.061-26.863zM360.003 56.214c112.602.068 215.94 62.379 268.554 161.932a72.61 72.61 0 0 1-3.706 75.01 43 43 0 0 1-1.81 2.485 73 73 0 0 1-16.012 15.59c-16.431-51.969-39.74-97.325-69.658-135.157a341.4 341.4 0 0 0-112.993-92.971 356 356 0 0 0-69.89-26.838c1.833 0 3.618-.075 5.464-.075zM162.597 590.688A303.34 303.34 0 0 1 56.29 367.415a316.2 316.2 0 0 0 61.866 49.982 376.6 376.6 0 0 0 138.978 50.962v-20.506a355.7 355.7 0 0 1-127.362-47.041c-41.88-25.934-65.382-53.917-72.755-63.546a301.4 301.4 0 0 1 43.182-134.66c12.876-4.852 72.45-23.195 147.73 17.96a786 786 0 0 1 8.79 4.892v-23.16c-59.104-31.982-109.403-30.836-139.093-25.296a306.15 306.15 0 0 1 114.049-92.395A165.5 165.5 0 0 1 339.703 73.41a334.6 334.6 0 0 1 75.469 27.628 321.4 321.4 0 0 1 106.35 87.516c29.118 36.837 51.7 81.355 67.445 132.597a133.7 133.7 0 0 1-33.397 8.745c-28.774 3.975-61.368-3.133-94.988-16.012a61.2 61.2 0 0 1-7.756 18.609c29.651 11.386 58.962 18.723 86.36 18.723 6.404.006 12.8-.415 19.146-1.26a157 157 0 0 0 36.265-9.21 545 545 0 0 1 5.234 21.437 296 296 0 0 1 5.275 32.097c-29.616 15.286-71.953 30.722-126.024 42.338v20.505c49.216-10.316 93.2-24.425 127.513-40.962a268 268 0 0 1-3.745 52.81 362.4 362.4 0 0 0-51.203 39.09c-48.149 42.518-94.844 79.94-179.024 106.878-42.34 13.57-84.983 15.093-116.66 13.298a156.93 156.93 0 0 1-93.366-37.627zM581.4 538.451c-3.402 7.539-6.954 14.474-10.47 20.864a178.13 178.13 0 0 1-77.685 73.636A303.6 303.6 0 0 1 266.8 649.153c3.317.075 6.725.154 10.253.154a335.7 335.7 0 0 0 101.722-15.017c87.772-28.126 138.176-68.552 186.246-110.97 12.227-10.775 22.544-19.068 31.294-25.451a290.6 290.6 0 0 1-14.902 40.618zm18.952 7.068a304 304 0 0 0 20.328-63.087c12.188-6.076 17.652-5.618 19.489-5.126a305.4 305.4 0 0 1-39.805 68.207zm47.995-89.913a18.2 18.2 0 0 0-7.237-.533 68 68 0 0 0-16.546 3.516 293.7 293.7 0 0 0 1.643-52.732 213 213 0 0 0 18.265-11.76 153 153 0 0 0 18.696-15.82 302.8 302.8 0 0 1-14.863 77.341z"/><path d="M640.17 477.306a305.4 305.4 0 0 1-39.805 68.207l-.012.006a304 304 0 0 0 20.328-63.087c12.188-6.076 17.652-5.618 19.489-5.126M255.962 628.237a156.93 156.93 0 0 1-93.365-37.627v.078A303.34 303.34 0 0 1 56.29 367.415a316.2 316.2 0 0 0 61.866 49.982 376.6 376.6 0 0 0 138.978 50.962v-20.506a355.7 355.7 0 0 1-127.362-47.041c-41.88-25.934-65.382-53.917-72.755-63.546a301.4 301.4 0 0 1 43.182-134.66c12.876-4.852 72.45-23.195 147.73 17.96a779 779 0 0 1 8.79 4.892v-23.16c-59.104-31.982-109.403-30.836-139.094-25.297a306.14 306.14 0 0 1 114.05-92.394A165.5 165.5 0 0 1 339.703 73.41a334.6 334.6 0 0 1 75.468 27.628 321.4 321.4 0 0 1 106.351 87.516c29.118 36.837 51.7 81.355 67.445 132.597a133.7 133.7 0 0 1-33.397 8.745c-28.774 3.975-61.368-3.133-94.988-16.012a61.2 61.2 0 0 1-7.756 18.609c29.651 11.386 58.962 18.723 86.36 18.723 6.403.006 12.8-.415 19.146-1.26a157 157 0 0 0 36.265-9.21 545 545 0 0 1 5.234 21.437 296 296 0 0 1 5.275 32.097c-29.616 15.286-71.953 30.722-126.024 42.338v20.505c49.216-10.316 93.2-24.425 127.513-40.962a268 268 0 0 1-3.745 52.81 362.4 362.4 0 0 0-51.203 39.09c-48.149 42.518-94.844 79.94-179.024 106.878-42.34 13.57-84.983 15.093-116.66 13.298m26.247-53.552a10.2 10.2 0 0 0 5.39 1.53l86.74-.23-.01-.009c9.21 0 37.45-.076 60.986-20.138 20.864-18.916 23.002-41.191 23.614-66.259l-.153-70.617c0-22.085 0-49.153-23.081-68.247a63.9 63.9 0 0 0-17.387-10.252A54.94 54.94 0 0 0 440.357 311a98 98 0 0 0 3.362-30.188l-.19-62.858c-.573-17.387-2.485-37.217-16.546-53.269-12.415-13.666-31.102-20.761-54.785-20.761h-.459l-85.25.229a10 10 0 0 0-6.879 2.864 9.1 9.1 0 0 0-2.79 6.725l.727 412.728a9.46 9.46 0 0 0 4.662 8.214m96.566 59.604a335.7 335.7 0 0 1-101.722 15.018c-3.528 0-6.936-.079-10.253-.154a303.6 303.6 0 0 0 226.446-16.202 178.13 178.13 0 0 0 77.685-73.636c3.516-6.39 7.068-13.325 10.47-20.864l.012.036a291 291 0 0 0 14.903-40.619c-8.751 6.384-19.068 14.677-31.295 25.451-48.07 42.42-98.474 82.845-186.246 110.97m-50.067-312.577q.152-.008.302-.039h15.17c15.323-.534 18.685-1.146 25.717-3.133 25.191-7.566 25.411-29.118 25.794-41.843v-52.958c0-31.283-13.183-35.806-43.79-35.806h-23.5l.003.036c-2.138.23-2.865 1.414-2.865 3.477 0 0 .154 125.87.154 127.094 0 1.912.645 3.172 3.015 3.172m34.91 45.622a314 314 0 0 0-34.427-1.146 2.542 2.542 0 0 0-2.829 2.904c0 1.107.344 133.743.344 157.816 0 2.777 1.146 4.586 4.089 4.586 2.52 0 35.194-.075 35.194-.075 19.04-.648 26.49-3.209 32.567-7.566 10.201-7.876 11.845-20.406 11.845-47.078l-.154-58.5a79.9 79.9 0 0 0-3.015-24.914l-.052-.046a33.66 33.66 0 0 0-14.368-17.652c-8.597-5.464-19.221-7.259-29.193-8.33M613.07 331.52a574 574 0 0 1 6.496 26.328c1.963 8.712 3.416 18.19 4.523 26.557 12.801-7.176 30.378-21.772 39.319-39.503a302.3 302.3 0 0 0-10.087-64.003l-.015-.01a95.7 95.7 0 0 1-14.061 26.863 94.6 94.6 0 0 1-26.175 23.768m13.139 74.335c1.035 17.59.485 35.24-1.643 52.732a68 68 0 0 1 16.546-3.516c2.411-.31 4.86-.128 7.2.527a302.8 302.8 0 0 0 14.858-77.323 153 153 0 0 1-18.696 15.82 213 213 0 0 1-18.265 11.76M360.003 56.213l-.051-.024c-1.846 0-3.63.075-5.464.075a356 356 0 0 1 69.89 26.838 341.4 341.4 0 0 1 112.993 92.97c29.917 37.833 53.227 83.19 69.658 135.158a73 73 0 0 0 16.013-15.59 43 43 0 0 0 1.809-2.484 72.61 72.61 0 0 0 3.706-75.01C575.943 118.591 472.605 56.28 360.003 56.212" style="fill:#fff"/></svg>