<svg xmlns="http://www.w3.org/2000/svg" xml:space="preserve" width="720" height="720" viewBox="0 0 720 720"><path d="M659.747 213.115c-22.545-10.93-47.823-9.223-47.823-9.223-25.62-39.624-60.462-55.679-60.462-55.679l-3.074 4.1c-15.03-6.833-40.991-8.54-40.991-8.54l-1.366 4.782-49.873 4.44 2.391 8.54c-7.856.342-34.159 9.565-34.159 9.565-38.941 12.98-73.442 33.134-73.442 33.134-37.234 21.52-44.066 33.476-44.066 33.476-65.585 26.986-107.943 64.903-107.943 64.903l-108.967 8.54L36 407.48l127.414-18.104s-14.005 32.451-59.096 61.145l-8.198 5.465c-3.416 2.391-3.416 10.248-6.148 17.08-3.075 5.807-4.441 6.832-7.174 10.59-4.782 5.465-11.272 9.905-20.837 16.054l1.708 11.614-8.54 18.788 32.451 46.115 22.204-59.437 15.03-11.614 3.757 3.074-10.247 13.664 33.134 44.065 27.669-61.145 110.334-89.497s21.52-1.708 44.066 4.099l9.564-7.515 26.303-.342 4.099 5.466-12.639 7.173-18.788 53.289 47.482-20.154c1.366 2.05 17.42.341 17.42.341l-12.296 44.749 42.699-17.421 5.807 1.024c26.985-2.05 50.555-9.564 50.555-9.564 30.744-9.223 33.818-29.036 33.818-29.036 5.124-12.638 1.025-39.624 1.025-39.624l13.322.341c5.124.684 3.757 8.54 3.757 8.54l-5.124 45.09c15.372-9.564 32.793-25.96 32.793-25.96l1.025 7.856c10.59-9.223 35.867-40.991 35.867-40.991 25.961-1.025 29.719-18.788 29.719-18.788 4.782-12.98 7.515-20.154 7.515-20.154 4.44-10.589 16.396-22.886 16.396-22.886 4.1-5.807 6.49-10.248 6.49-10.248 1.367-3.416 3.075-8.881 3.075-8.881C684 286.558 684 251.374 684 251.374c-.342-28.694-24.253-38.259-24.253-38.259" style="fill:#fff"/><path d="M606.117 276.993 96.462 321.06l-42.358 74.125 543.473-80.957s-18.787-14.347 8.54-37.234" style="fill:#c60c3d"/><path d="M516.62 405.09s3.757 24.253 1.366 34.843c0 0-3.757 16.054-20.154 22.203 0 0-24.253 10.248-60.461 12.639l-1.708-1.366-27.328 11.614 8.882-31.768s36.892-2.733 47.823-6.15c0 0 28.352-5.465 32.792-41.673zm-353.89 61.487s0 19.129-23.228 32.11l1.025 6.148-10.93 15.03 19.47 25.961 21.862-48.506 101.453-82.324c0-.341-64.903-1.024-109.651 51.58m492.576-244.922s-17.42-9.564-49.872-6.832c0 0-6.49-22.545-51.239-53.63l-3.416 4.783s-15.372-10.59-36.892-10.248l-1.025 3.074s-12.98 0-41.674 2.733l2.733 7.857s-59.095 2.732-143.127 58.754l-1.025 4.782-10.59 5.124 5.808 3.074s-64.22 23.228-110.676 61.145l433.822-35.526s-42.358 29.036-27.67 53.972c0 0-15.37 8.54 1.709 20.495 0 0-26.303 11.956-19.47-20.495l-427.332 64.56s-9.223 38.6-69.685 75.493c0 0-4.44 2.732-4.783 7.515 0 0 .342 6.148-5.123 13.322 0 0-6.832 11.955-22.545 22.203l1.024 7.857-7.515 17.08 18.105 25.96 16.396-44.407 32.451-24.936s31.768-49.872 84.032-69.343c0 0 46.115-19.812 113.75-8.54l6.149-5.807 78.224-1.708s3.075.683 1.025 2.391c0 0-15.372 11.956-32.11 13.323l1.708 4.782s.342 1.708-.683 2.05l-16.396 6.49-10.931 30.06 30.743-13.322 1.708 1.366s26.644 1.708 66.952-6.49c0 0 28.01-5.466 35.526-41.674l52.946-2.392s10.931 2.392 9.565 12.64l-3.757 30.06 24.253-21.52 1.708 5.806s18.445-19.812 23.228-31.426c0 0 20.154.341 25.278-7.857 0 0 2.39-2.391 8.881-20.154 0 0 3.074-12.639 15.372-24.595 0 0 9.564-8.88 15.03-32.792 0 0 6.49-34.501 6.49-40.991-.683 0 6.49-34.16-17.08-44.066" style="fill:#00338d"/></svg>