<svg xmlns="http://www.w3.org/2000/svg" xml:space="preserve" width="720" height="720" viewBox="0 0 720 720"><path d="M684 103.68s-21.658 10.48-27.422 13.1c11.528-37.377 18.864-70.565 18.864-70.565s-142.53 93.447-246.804 176.588l-1.572-1.223v-5.415c0-1.222 0-3.143-.699-5.763-1.048-3.494-3.493-7.336-9.607-11.179 7.686-5.764 21.135-15.021 22.358-16.244 10.13-8.384 11.527-17.641 10.829-22.706l-1.572-10.83-55.02 40.871c-15.896-4.541-37.03-8.558-67.072 0l-55.02-40.87-1.572 10.829c-.699 4.541 1.222 14.148 10.829 22.706 1.223 1.572 15.021 10.48 22.357 16.244-5.764 3.843-8.384 7.685-9.607 11.179-.698 2.62-.698 4.54-.698 5.763v5.415L291 222.803C189.355 141.584 44.558 46.04 44.558 46.04s8.908 40.172 18.864 70.565c-6.287-3.144-27.422-13.1-27.422-13.1s8.035 25.327 14.672 41.92c9.781 27.422 28.122 68.12 42.444 95.543 8.034 13.1 20.436 25.85 35.806 35.457 9.607 6.114 20.786 11.179 31.964 15.022 0 0 9.607 23.23 19.039 34.933h-38.6v52.75l-37.03 17.641 37.03 18.34v44.366l35.805 22.008s28.646-3.493 42.445-5.065l113.195 65.49c22.706 103.927 28.12 132.048 28.12 132.048s5.764-29.518 28.121-132.048l113.183-65.5c13.974 1.572 42.445 5.065 42.445 5.065l35.806-22.008v-44.366l37.029-18.514-37.03-17.641v-52.4h-38.6c9.607-12.228 18.864-34.585 18.864-34.585 18.861-6.462 51.176-23.056 67.42-50.828 9.607-16.594 28.819-56.943 43.491-95.543l-.02.01s8.558-21.66 12.401-41.92" style="fill:#a1a1a4"/><path d="M647.867 130.392c11.878-37.03 19.563-68.643 19.563-68.643s-132.572 87.857-236.148 170.3l-8.908-5.415c0-.699.35-8.035.35-8.908 0 0 1.222-8.559-14.323-13.8-1.223-.348-1.922-.698-2.62-.698 7.335-5.764 19.213-14.322 27.421-20.086 13.45-9.258 11.878-19.563 11.878-19.563l-49.255 36.679c-37.728-12.402-69.342 0-69.342 0l-49.254-36.68s-1.572 9.957 11.877 19.564c8.559 5.763 20.436 14.322 27.773 20.086-.699.35-1.922.699-2.62.699-15.371 5.415-14.323 13.799-14.323 13.799 0 .698.35 8.034.35 8.908l-8.909 4.54C187.755 148.93 55.36 61.249 55.36 61.249s7.336 31.614 19.563 68.643C58.679 122.205 47.5 116.44 47.5 116.44s21.483 64.802 50.13 117.028c10.48 21.134 35.457 42.444 68.993 52.4 0 0 5.764 13.1 10.48 22.356 6.052 11.76 17.054 24.185 17.272 24.43h-46.23v50.13l-27.772 13.45 27.773 14.672v44.366l30.74 18.864c11.18-1.572 25.5-3.493 42.445-5.065l118.248 68.12 21.659 99.036c0-.349 22.008-99.036 22.008-99.036l118.248-68.12c16.593 1.92 31.265 3.493 42.444 5.065l30.393-18.864v-44.366l27.772-14.323-27.772-13.799v-50.13h-46.286s7.336-6.986 16.244-22.356c3.843-6.463 7.336-14.672 11.528-23.93 33.536-9.956 58.163-31.613 68.993-52.4 28.82-52.399 50.478-117.026 50.478-117.026s-12.401 6.113-27.422 13.449" style="fill:#1d1160"/><path d="M221.337 335.46s-22.708-16.245-35.808-46.295l8.908 2.61c29.695 7.688 86.64 15.739 86.64 15.739-27.427.7-50.832 2.61-63.932 4.182-2.62-3.481-6.114-7.688-7.337-10.83 0 0 1.223 10.492 3.493 16.946 3.494 9.598 8.036 17.648 8.036 17.648m11.176 107.41c-4.192.363-8.03.702-11.875 1.234l80.528 46.633c-4.376-4.714-7.857-9.259-10.83-14.336zm102.189 32.83c-2.104-5.753-8.22-12.039-14.675-18.856l-5.753-5.754c-8.05 3.143-12.765 6.116-15.376 8.026 5.754 5.416 16.584 12.402 35.804 16.584m-29.006-218.149c-43.851-35.806-129.09-101.308-225.33-159.472 7.686 23.056 8.037 21.659 8.037 21.659 90.826 58.514 172.219 111.788 218.865 142.181-.87-1.223-1.233-2.797-1.572-4.368m32.305-23.58c2.442 5.763 3.844 27.774 16.246 33.19-10.298 9.604-23.063 6.984-32.66-1.574 11.87 25.85 31.96 35.81 39.647 38.953 6.817-5.246 10.298-21.136 6.986-37.38 12.402-5.415 13.974-27.426 16.246-33.19 5.077-12.05 12.402-17.466 18.518-20.087-2.61-.698-5.415-1.922-8.026-2.62-5.778 2.97-15.375 10.306-18.518 24.63 0 0-1.064-16.246 6.987-27.773-6.383-1.748-13.538-2.705-21.081-2.749a96.5 96.5 0 0 0-23.305 2.749c8.22 11.527 7.01 27.772 7.01 27.772-3.166-14.671-12.764-21.484-18.517-24.63-2.273.7-4.908 1.4-8.05 2.621 6.116 2.447 13.465 8.56 18.517 20.087m-2.598 250.48c-25.505-5.777-36.166-18.179-36.166-18.179 5.415 10.492 13.103 20.09 22.7 26.206.363.17 11.193-3.312 13.466-8.026m52.049-8.388c19.557-4.206 30.05-11.193 35.803-16.608-2.272-2.248-7.349-5.416-15.375-8.026l-5.754 5.753c-6.285 6.48-12.402 12.765-14.674 18.881m113.611-141.135c-.12.097-.435.339-.435.339.072.024.242-.097.435-.339m-60.172-27.608c27.245.363 50.816 2.636 63.92 4.207 2.804-3.505 6.116-7.35 7.348-10.83 0 0-1.232 10.298-3.505 16.946-2.587 8.51-6.237 15.69-7.591 17.285 2.32-1.716 23.305-17.89 35.368-45.932l-8.92 2.61c-30.026 8.027-86.62 15.714-86.62 15.714m-24.296-49.769c-.338 1.571-1.209 3.145-1.571 4.192 46.658-30.39 127.524-83.143 218.35-142.179 0 0 0 1.922 8.026-21.659-95.371 58.338-180.42 123.84-224.805 159.646m-27.402 240.342c-2.273-1.233-5.053-3.142-7.326-5.415-2.635-2.61-4.545-5.754-4.545-9.96 0-12.402 8.558-16.947 18.156-26.206 1.934-1.91 3.844-4.182 6.116-6.116-8.896-2.249-20.79-4.183-37.036-4.521l-4.182 53.62h-.363l-3.82-53.62c-16.245.338-28.478 2.272-37.036 4.52 1.91 2.273 4.182 4.207 6.116 6.117 9.598 9.26 18.156 13.466 18.156 26.206 0 3.844-1.91 7.35-4.545 9.96-1.571 2.273-4.714 3.844-7.325 5.415-.701.532-1.934.87-2.611 1.209 10.806 6.648 18.494 9.26 21.637 10.492 0 0-6.093 1.04-13.442.338 2.442 3.844 4.714 7.35 6.987 11.532 1.934-.701 8.026-4.182 16.584-4.182 8.92 0 14.674 3.481 15.907 4.182 1.91-4.182 4.715-7.688 6.987-11.532-6.987 1.233-13.441-.338-13.441-.338 3.142-1.233 11.169-3.505 21.636-10.492-.677-.508-1.91-.87-2.61-1.209m42.79-21.492c-2.611 5.077-6.117 9.622-10.831 14.336l80.527-46.633c-3.843-.532-7.687-.87-11.87-1.233zm-8.728-9.96s-10.492 12.765-36.166 18.18c2.273 4.545 13.466 8.026 13.466 8.026 9.597-6.986 17.648-15.714 22.7-26.206" style="fill:#00788c"/><path d="M313.73 345.058v-.339h.169zm-47.853-67.42 6.985 1.22-142.876-103.225 182.88 99.733c-2.272-4.192-4.206-8.382-6.116-13.447-46.462-30.393-127.507-83.32-218.333-142.181 0 0 8.034 17.991 19.212 43.491L74.62 146.638s22.706 59.734 35.98 80.52c28.645 38.076 79.82 43.14 79.82 43.14zm47.853 47.33v19.751h-5.246v-7.349h-6.624v7.35h-5.778v-22.363h15.037zm-5.246 2.273h-6.624v5.415h6.624zm75.112-4.884h15.013l2.635 2.611v20.09h-15.037l-2.611-2.611zm5.415 17.624h6.455v-12.378h-6.455zm1.04-91.165c-1.572 13.45-10.83 19.565-10.83 19.565 22.724 1.224 10.83-19.565 10.83-19.565m-57.465 96.411h-5.753v-22.362h15.182l2.635 2.635v11.87h-2.273l3.675 7.688h-5.778l-3.481-7.688h-4.207zm0-13.272h6.649v-4.545h-6.649zm-78.944-2.611v-6.987h-16.594v20.09l2.798 2.61h13.796v-7.324h-5.413v2.248h-5.24v-12.208h5.24v1.57zm118.785 10.637h-8.22v-17.624h-5.753v22.7h13.973zm-28.647-71.6s-9.26-6.116-10.831-19.565c.17 0-12.233 20.789 10.83 19.565m-6.99 90.312 6.093 7.325v58.866h15.738c-.17-.532-.17-52.049-.17-52.049h17.624v51.687c5.415 0 10.83 0 16.246.362v-58.866l-7.325-7.325zm122.617 14.142h13.441v55.893c5.754.338 11.17.701 16.947 1.571v-57.464h13.441v-14.336h-43.83zm-34.592-27.777v-17.285l4.545-.363v-5.053h-15.714v5.416h5.052v17.285zm16.076-17.285h5.053v17.285h6.116v-17.285l4.207-.363v-5.053H440.89zm45.063 0v-5.416h-16.609v22.7h16.609v-5.076H474.76V336.5h11.193v-5.246H474.76v-3.481zm40.856 48.543v-17.623h16.608v6.454h15.714V344.72h-53.089l6.116 6.987v36.674l31.96 13.804v20.428s-7.35-.701-16.608-2.273v-6.454l-15.352-1.934v20.79c16.923 1.91 32.661 4.182 47.311 6.987-.338-11.532-.338-28.479-.338-36.867 5.077-2.249 9.597-4.521 14.336-6.963-15.376-7.349-30.751-13.465-46.658-19.582m88.215-213.087c10.83-25.5 19.22-43.84 19.22-43.84a60816 60816 0 0 0-218.327 142.18c-1.934 5.065-3.844 9.257-6.116 13.449l183.393-99.733-142.876 103.226 6.987-1.223 75.45-7.338s51.18-5.064 79.827-43.143c13.442-20.785 36.142-80.517 36.142-80.517zm-336.76 181.829h5.415v-22.7h-5.415v10.298h-6.455v-10.299h-5.415v22.7h5.415v-7.324h6.455zm-83.129 31.62-17.638 7.326v-38.946h-15.37v45.425s-12.753 6.092-12.753 6.455l12.752 6.624v37.036c5.065-.7 9.956-1.91 15.37-2.61v-35.466l17.639-7.325v39.647c5.067-.7 9.955-1.57 15.37-1.934v-87.852h-15.37zm255.35 35.442c-9.96-.339-20.09-1.21-30.05-1.572v-10.83c9.96.362 20.09.701 30.05 1.233v-15.376c-9.96-.338-20.09-.338-30.05-.7v-11.508h30.05V359.03h-52.049l5.754 7.325v59.398c15.738.339 31.621 1.233 46.634 2.273v-15.714h-.339zM263.781 358.5l7.338 7.349v61.308c-14.672.87-29.344 1.91-42.793 3.48l-6.114-7.324v-57.827l-5.766-6.987zm-8.57 14.335h-17.64v41.219c6.114-.532 11.527-.87 17.64-1.233zm105.682 160.16c-7.35 0-9.259 1.935-11.531 3.506l11.87 47.673 11.193-47.335c-1.572-1.91-4.207-3.843-11.532-3.843M324.906 401.29c2.804 7.35 5.415 15.738 8.558 23.063-5.415 0-9.96.363-15.375.363-2.78-7.35-5.391-15.738-8.534-23.063-4.207 0-7.688.338-11.532.338h.17v23.595c-5.416.339-9.96.339-15.376.701v-60.8l-6.116-7.325h47.335l6.986 6.986v36.142zm-9.269-28.454h-17.624v14.143c6.093-.339 11.532-.339 17.624-.339z" style="fill:#fff"/></svg>