<svg xmlns="http://www.w3.org/2000/svg" xml:space="preserve" width="720" height="720" viewBox="0 0 720 720"><path d="M366.78 692.602c-25.491 0-61.09-3.857-75.865-37.214-3.644-8.314-6.989-16.768-10.223-24.944-6.18-15.626-12.02-30.385-19.83-44.506l-.097-.181c-4.328-8.22-13.055-17.347-21.988-17.965l-.46-.031-.457-.074c-33.546-5.461-60.69-26.745-82.819-46.843l-4.641-4.216 1.771-6.014c1.376-4.67 1.135-11.032-3.593-15.047-2.258-1.487-5.628-2.272-9.774-2.272-4.273 0-9.118.84-13.644 2.364l-4.653 1.568-4.086-2.723c-4.392-2.928-7.219-7.1-9.49-10.453-.345-.51-.686-1.014-1.028-1.503l-.126-.182-.119-.187C92.9 462.04 87.466 438.94 84.048 418.478l-1.178-.949c-8.971-7.212-21.257-17.089-20.642-33.408l.012-.248c.448-7.161 2.98-13.22 5.436-18.291a280 280 0 0 0-.636-4.06c-.737-4.569-1.496-9.268-1.63-14.42-9.476-16.83-7.192-36.761-5.164-54.453.759-6.629 1.477-12.891 1.578-18.661.087-7.438-.523-10.94-2.285-12.475-6.394-1.652-9.016-6.903-8.745-11.604l.057-.99.25-.958c2.41-9.247 6.57-17.366 10.594-25.218 3.686-7.193 7.17-13.991 9.052-21.13.686-3.299.818-7.171.834-11.31a127 127 0 0 0-3.227-1.533c-3.272-1.52-6.962-3.233-10.56-5.814-6.87-4.02-16.046-10.557-21.958-19.365-10.233-13.34-12.798-33.517-6.25-49.309C34.68 100.73 46.61 88.661 59.583 83.83c5.49-3.385 11.13-5.993 16.593-8.518 3.72-1.72 7.233-3.344 10.605-5.16l.587-.316.623-.235c10.098-3.81 21.26-5.825 32.279-5.825 7.532 0 14.806.92 21.682 2.739.774-.427 1.578-.902 2.403-1.389 3.408-2.013 7.455-4.402 12.541-5.415l-4.145-11.152h14.386c3.647 0 7.11.419 10.303.906l3.4-7.437c3.456.915 6.945 1.734 10.493 2.463l1.97-5.44 4.225-1.648c16.782-6.546 34.802-10.005 52.114-10.005 9.428 0 18.539 1.037 27.082 3.083 12.589 2.475 24.543 6.173 36.104 9.75 8.01 2.479 16.292 5.041 24.509 7.092 5.594 1.193 11.28 2.06 17.298 2.979q1.796.273 3.594.55c1.398-.63 2.667-.967 3.588-1.211.21-.056.424-.105.633-.173l.11-.052.253-.104c34.09-14.026 66.916-21.137 97.567-21.137 12.06 0 23.852 1.132 35.048 3.366l.258.052.254.065c1.85.47 3.708.922 5.569 1.373 8.727 2.117 17.753 4.307 26.445 8.607l8.48 4.195.851-.078 2.208 1.105c1.277.417 4.176 1.385 6.553 4.349l2.368 2.952-.024.496c1.352-.003 2.707-.024 4.048-.046 1.505-.024 2.995-.047 4.45-.047 1.482 0 2.779.024 3.965.075l22.75.96-11.55 11.551c6 4.116 11.256 9.429 16.016 14.242q1.034 1.046 2.06 2.077c1.997 1.75 3.526 3.596 4.886 5.236.822.993 2.039 2.462 2.65 2.896l.286.038a32.6 32.6 0 0 0 4.622.313c4.14 0 8.37-.681 12.849-1.402 5.127-.825 10.428-1.68 16.317-1.68.714 0 1.428.014 2.133.04a43 43 0 0 1 7.188-.585c3.51 0 6.876.382 10.13.75.972.11 1.966.223 2.99.329l.308.036c15.287 2.055 29.47 12.545 35.432 25.92 3.438 3.859 3.667 8.594 3.766 10.625.012.267.029.617.046.809l.255.987.012 1.225c.077 8.029-2.297 14.71-4.39 20.605-1.22 3.432-2.373 6.675-2.915 9.834l-.092.544-.153.53c-6.35 22.068-26.385 32.36-43.76 39.363q.113.236.221.48c18.965 37.91 19.059 82.975 19.149 126.561l.014 6.888-4.562 4.563c6.153 20.049 10.946 44.985-1.029 66.084-7.893 13.794-13.461 28.326-19.356 43.712l-.309.806-.442.74c-1.087 1.822-2.121 3.67-3.216 5.625-2.192 3.916-4.459 7.966-7.242 11.92l-5.174 7.353-1.038-.576c-2.34 3.908-5.312 5.917-7.996 6.929-2.505 6.681-6.817 13.676-14.818 18.197l-19.724 11.148 1.762-7.699c-2.872.96-5.677 1.689-8.238 2.354-2.982.774-5.8 1.506-8.257 2.423l-.711.264-3.297.685c-16.715 3.454-32.503 6.717-41.624 20.321l-.292.435-.335.402c-5.72 6.858-10.863 14.144-16.308 21.857-11.165 15.817-22.71 32.172-39.572 44.565l-.184.135-.19.127c-1.56 1.04-3.086 1.746-4.433 2.302-1.863 23.594-10.33 44.325-18.539 61.704l-.12.255-.137.25c-11.013 20.261-32.162 31.882-58.022 31.883-1.285 0-2.593-.03-3.893-.089-2.87.077-5.49.116-7.997.116" style="fill:#fff"/><path d="M335.08 57.067c8.357 1.793 16.914 2.887 25.47 4.278 1.591-1.988 3.979-1.788 6.069-2.785 38.206-15.72 83.474-25.867 126.852-17.212 10.149 2.587 20.596 4.578 30.048 9.254-1.99 1.292-5.573.994-6.069 3.581 2.188 2.986 6.567 1.792 9.255 2.587l8.654-.795c.994.497 2.088.497 2.885 1.491-.1 2.091-2.985 4.477-.398 6.468 7.063 1.292 15.52.398 22.585.697-2.787 2.786-7.263 2.983-9.352 6.067 3.282 1.792 7.66.896 11.142 2.189 7.76 3.98 14.527 11.342 21.092 17.909 4.577 3.88 6.966 10.148 13.234 10.744 13.332 1.892 24.674-3.382 38.007-2.586 6.365-1.293 11.838-.299 18.603.398 11.84 1.592 24.177 10.248 28.357 21.89 2.884 1.79 1.79 5.172 2.485 7.859.1 10.547-5.472 18.804-7.161 28.653-6.27 21.79-30.047 29.849-48.355 36.914.598 3.78 3.882 6.467 5.373 9.949 18.407 36.612 18.11 81.383 18.207 125.06l-.298.3c-2.785-.697-5.473-2.489-8.258-2.09 7.363 21.392 16.814 49.546 4.278 71.634-8.255 14.426-14.128 29.75-19.998 45.07-3.383 5.672-6.268 11.543-10.048 16.915-1.79-.995-.895-4.377-2.19-6.167-2.585 3.38-1.891 8.752-3.878 12.534-.897 1.89-2.19 3.583-4.38 3.98-.396-2.19-.396-4.677-.994-6.766l-1.093.995c-1.693 9.252-4.08 19.202-13.234 24.376.797-3.483 3.283-6.369 2.785-10.349-.597-1.59-1.69 0-2.485 0-6.667 13.632-21.591 13.532-33.33 17.91-18.606 3.88-38.504 7.263-50.445 25.072-18.008 21.59-30.842 47.659-54.123 64.77-2.687 1.791-6.069 2.19-8.556 4.378-.697 23.38-8.557 43.876-17.91 63.676-10.545 19.4-31.239 27.658-53.028 26.564-28.258.796-61.687-1.492-74.82-31.141-10.248-23.382-18.008-47.757-30.445-70.242-5.869-11.145-17.213-22.386-30.146-23.28-29.947-4.876-54.918-23.681-77.703-44.376 2.785-9.45.498-19.7-7.163-25.868-8.855-6.267-22.882-4.675-32.634-1.39-3.285-2.19-5.571-6.073-7.86-9.354-12.04-19.004-17.212-41.092-20.793-63.675-9.155-7.762-21.591-15.422-21.092-28.656.397-6.366 3.082-11.839 5.768-17.21-.893-7.661-2.784-14.925-2.585-22.984-12.934-19.799-3.98-47.457-3.582-70.14.099-8.458-.299-17.611-8.16-21.89-.992-.598-2.982-.1-2.885-1.79 4.279-16.418 15.423-30.049 19.702-46.564 1.291-5.969 1.092-12.734 1.092-19.3-5.77-4.18-12.535-5.772-18.307-10.05-7.062-4.08-14.724-9.85-19.3-16.815-8.259-10.544-10.348-27.26-5.076-39.796 3.98-10.746 14.13-21.391 25.074-25.072 8.756-5.57 18.505-9.053 27.56-13.928 15.82-5.97 34.82-7.065 51.24-1.79 6.963-2.59 12.335-8.757 20.79-7.861 3.584-.698 7.563-.1 10.745-1.792-1.59-3.383-5.866-5.472-7.16-8.955 8.456 0 16.216 2.785 24.375 2.488v-.696c-4.28-3.183-8.855-5.67-13.233-8.657 10.147 2.687 20.595 4.576 31.437 5.771.798-.498.798-1.195.402-1.79-2.986-3.085-6.667-5.074-9.353-7.86l.396-1.096c22.188-8.654 49.15-12.336 73.428-6.466 20.891 4.08 40.094 11.74 60.49 16.813" style="fill:#111729"/><path d="M680.4 125.511c-8.933.997-15.912-2.87-23.648-4.665-6.66-2.473-13.36-5.184-20.418-6.78-24.166-8.135-52.52-4.147-76.606 1.396-2.672-3.988-5.065-8.334-8.933-11.445-5.503-5.264-13.957-4.745-21.215-4.666-.798-10.129-7.059-19.181-16.111-24.684-26.878-15.792-63.685-17.387-94.91-12.92-5.783 1.594-12.442 2.192-16.829 6.46 8.255 2.79 17.427 3.27 26.16 4.984 10.05.28 20.219.997 30.069.678-20.099 14.356-50.167 19.62-74.812 10.767-3.908 5.743-6.181 13.44-3.589 20.498 1.994 6.061 8.454 11.724 14.635 12.84 18.304 4.068 30.746-10.248 47.336-12.561 27.556-7.338 57.624-.2 75.928 23.01.08.678 1.276 1.355.279 2.073-24.764-7.058-52.719-2.193-73.017 11.126-11.246 5.703-21.574 17.307-35.412 12.163-9.371-3.788-5.264-15.433-11.844-21.096-2.273-.717-5.064-.318-7.178.28-11.644 5.663-21.693 16.828-31.145 26.16h-.797c2.113-13.718 2.791-29.031 3.988-43.667.398-16.31-2.872-31.145-6.46-45.86-26.64-8.255-54.434-13.917-83.466-16.43-1.994.599-4.985.2-6.78.32-3.07-.798-6.659.08-9.65-.718l-6.859.398c4.387 4.706 10.249 9.77 15.114 14.357v.677c-11.923 1.396-24.166 2.114-36.608 2.872-9.252 1.395-17.188.12-26.48.997l3.191 3.31-.678.678c-6.979-1.277-14.316-1.676-21.494-2.473-1.994.877-4.786-.399-6.46 1.077 2.671 1.316 5.782 1.714 8.653 2.512 1.077.798 3.27.997 3.59 2.472-7.06 3.27-15.155 4.985-21.216 10.05l3.31 19.7c.08.797-.917.717-1.516.717-8.254-5.503-17.706-8.175-26.838-11.445l-23.607-5.383c-12.243-1.515-24.845-2.99-37.287-2.911-6.38-2.154-10.847 2.113-15.751 4.705-7.458 11.445-14.596 23.489-13.6 37.885 1.397 16.908 19.382 24.405 32.621 29.47-7.058-8.574-12.84-19.421-9.371-30.467 3.788-8.056 12.243-13.997 20.418-15.792 19.101-3.709 34.335 9.65 44.065 24.366 2.712 2.193.598 5.184-1.795 6.46-29.749 26.36-33.617 67.873-31.144 107.073-.08 12.72 1.515 22.053 1.395 34.694l-20.696 39.4c-2.872 6.18-6.94 11.764-8.654 18.304 1.396 9.172-.399 20.019 5.782 26.878 4.188 1.994 8.853.678 13.24 1.077-.519 2.113-2.114 3.987-1.396 6.1-1.794 7.657-.12 15.713 1.396 22.85 2.393-4.665 6.34-9.051 10.328-12.8 1.715 0 2.712-3.31 4.387-1.117l3.19 24.366c4.387 17.028 7.577 38.044 26.878 45.501 4.068 1.595 8.454-.718 12.522 1.077 6.18 7.856 13.439 14.715 20.378 21.494 4.586 7.059 5.303 16.031 10.448 22.571 1.794-2.671 2.113-6.141 4.307-8.653 3.947 1.794 3.15 6.859 4.267 10.448 1.874 4.666 1.874 10.567 4.267 14.635 1.914-4.586 2.87-11.724 8.653-12.522 8.255 5.144 16.23 11.326 25.084 15.393 7.258 2.991 16.11 7.577 24.285 3.19 5.065-3.987 5.145-11.126 4.347-17.506-17.387-7.856-34.495-16.51-50.127-28.672-36.409-27.556-60.296-65.96-67.354-108.51-1.595-8.972-2.991-18.303-2.871-27.555-.599-13.24-.599-26.678 1.395-39.798.08-3.789 2.273-7.577 1.476-11.047-4.387 3.749-8.773 8.455-12.92 12.123l-.718-.678c-.997-11.564-1.077-24.405-2.473-36.249l.28-27.835c1.794-8.374 6.18-15.712 8.972-23.688.678-2.073 2.273-4.865 1.076-6.46-3.868.479-6.938 4.985-10.727 6.86-1.715-11.526 8.734-19.023 16.111-27.277 2.273-5.145-6.061-2.274-5.662-7.139 6.26-4.506 15.791-8.853 15.033-18.304-1.116-1.794-3.11-1.794-4.306-3.19.917-4.187 4.586-7.378 7.457-10.767 6.58-6.141 14.356-10.727 24.007-10.329 0 .28.08.878-.32.997-16.43 26.759-26.28 56.986-23.687 90.644l.718 2.193a74 74 0 0 0 14.037-5.384c26.957-15.831 16.31-50.924 32.5-73.136 11.047-16.63 29.95-23.369 49.17-19.98 5.982 1.476 11.725 3.35 17.507 5.663 6.181 2.872 12.442 5.583 18.304 9.332-7.457 1.914-15.233 3.11-21.893 6.78-4.068 2.591-5.942 6.659-6.062 11.125 6.181 11.365 21.694 7.697 32.541 11.445 15.313 1.914 27.955 16.35 31.942 30.467.2 1.396.997 2.871.679 3.988-8.854-4.307-20.179-11.166-30.029-4.307 12.641 5.982 32.62 9.97 34.016 28.274 0 7.058-.997 14.037-4.666 19.3-4.905-7.656-9.77-18.104-19.021-21.095-5.863-3.07-11.525.678-16.51 3.19-2.074-4.785-3.669-10.168-7.457-13.917l-.718 5.743c-1.755 6.38-3.868 12.96-10.05 17.107-3.947 2.393-9.33 3.39-13.997 1.795-5.902-.479-10.647-3.59-15.752-6.062.997 2.194 2.194 4.267 3.988 6.062 1.117 1.914 3.789 3.708 3.59 5.782-5.783-2.472-11.645-4.586-16.111-9.65l-1.117 2.472c.399 4.985 4.187 8.973 8.295 12.163-.718 3.589-2.991 6.46-3.59 10.05-.917 4.067-.518 8.733 3.191 11.125 7.457 2.592 15.114-.598 20.776-5.383 10.17-11.525 22.173-28.234 39.001-25.443-2.392 6.341-6.26 12.243-10.328 17.906-8.295 11.644-19.5 22.092-23.688 35.491-.2 1.994 1.476 3.19 2.871 4.586.997.798 2.592 0 3.19 1.516-2.87 5.144-8.653 9.85-8.972 16.39.598 2.711 3.51 2.512 5.384 2.91 1.196.4 2.512-1.196 3.27.4-2.752 4.546-4.746 9.45-5.344 14.994.28 2.99 3.788 1.715 5.663 2.512-2.792 23.488-6.78 54.912 17.227 69.149-14.835 24.365-2.712 54.314 10.448 75.61.28-9.572-.518-20.698.28-30.867 1.395-12.601 5.263-24.046 10.447-35.093h.678c7.378 6.86 9.451 17.507 17.946 23.29 3.868-7.378 4.267-16.75 11.006-22.213l9.77 8.574c3.27 0 5.862-1.994 8.973-2.792l6.061 2.074c4.347-6.46 10.329-.478 15.712-.279 3.27-2.792 6.78-4.785 10.05-7.178 5.662 4.785 3.987 13.32 5.782 20.019h.678c3.788-4.706 7.058-9.172 10.767-13.958l1.356-.398c5.104 10.647 5.782 23.608 5.782 35.85.399 10.528-.798 21.574-.399 32.222 10.25-13.32 19.301-27.078 22.611-43.268 5.264-13.36.36-27.995-7.895-38.403 10.049 2.752 18.503 13.718 30.745 10.05 5.903-1.117 7.857-7.378 10.05-11.844 6.46 8.055 9.77 17.985 10.767 28.632.678 38.522-24.565 66.956-38.722 99.616-6.26 6.062 2.313 11.126 3.988 16.51h.718c21.175-22.093 40.875-45.382 52.6-71.662 1.196-3.27 1.993-6.66 3.588-9.65 4.267 3.589 7.856 7.377 11.844 11.046 4.187-6.141 6.38-13.12 7.856-20.378.718-2.592.12-5.782 1.795-7.856 7.457 2.593 15.313 5.264 23.687 4.666 31.225 1.874 40.796-39.28 70.226-42.988 3.19 4.585 5.264 9.969 8.972 13.917l3.59-8.534c1.475-4.666-1.117-9.57-2.194-14.037 4.945-28.354 11.326-63.766-1.396-90.643l5.384-13.918c12.402-36.927 5.543-81.79-9.371-115.328-1.476-2.353-4.586-2.672-7.178-3.27-9.452-3.589-18.982-6.859-26.839-14.316-15.432-11.844-14.754-32.74-10.049-49.37l.678-.797c15.114 12.642 35.731 12.043 55.51 12.96 14.357.798 29.75-2.113 42.99 2.473 1.714-3.788 2.512-7.856 3.588-11.844.479-2.791.798-6.54-.319-9.252M112.732 349.388c-2.393 9.132-8.893 16.39-15.034 23.967.598-18.305-.32-38.124 3.589-55.51l1.396-3.191c6.46 9.93 13.399 21.574 10.049 34.734M300.759 162.04c23.169-22.292 35.332-49.768 33.617-82.787 14.237 17.107 8.853 44.783 5.065 65.28-1.197 11.126-2.752 26.04 1.395 36.808 3.908 4.865 8.773-.519 12.96-1.396 2.672-.717 5.265.798 6.062 3.19 2.792 12.642-3.19 23.369-5.383 34.814-1.595 1.276-3.39-.877-5.065-1.076-5.663-2.194-11.644-4.188-17.108-6.9-3.589-18.782-15.233-35.89-31.543-47.933m121.788 223.837c-3.908 9.052-11.565 17.227-19.421 24.006 2.114 3.35 6.46 5.743 9.77 8.654-12.242-.12-26.28-1.197-39.4-1.795-14.356-.518-29.669.399-42.71-.399-10.048.678-21.493 1.396-31.543 2.194 2.712-2.194 5.703-4.307 7.976-6.86-6.46-4.306-18.783-1.993-18.982-13.239-14.835-34.335-2.193-74.213 16.39-103.165 1.116-1.994 3.589-3.19 4.386-5.383.08 3.588-1.794 6.739-1.076 10.049-.519 1.994-.32 4.267.279 6.061 2.193 3.39 5.982 5.783 10.05 5.783 6.26-1.516 14.116-3.31 19.7 1.076 5.582 5.384 6.858 12.841 6.06 20.418-3.19-.319-6.38-2.592-9.65-.718-3.988 1.715-3.47 5.862-4.985 8.973-6.54-2.592-12.322-7.059-18.583-10.448-3.868 2.592-4.586 7.736-3.59 12.242 2.872 5.862 9.053 10.249 15.314 11.406 8.255-.678 18.703-5.743 25.881.717-1.396 4.467-3.27 8.534-5.064 12.92 2.671 1.596 4.586 0 7.537 0 6.859-.677 17.905-4.146 22.61 3.191.878 2.473.878 5.463 1.396 8.255 3.55-6.86 7.258-13.44 10.329-20.378.598-3.988 4.187-5.583 7.577-6.46 11.126-4.785 22.49-15.034 22.89-27.995v-5.343c5.343 6.54 9.132 14.715 6.46 23.687-3.31 9.332-11.246 16.79-15.712 25.762 1.954.598 3.669-1.516 5.663-1.795 1.674-1.116 3.39-2.392 5.343-2.512 5.902 5.383 7.497 13.638 5.105 21.096m-49.05-66.956c3.27-4.945 7.736-13.24 14.994-11.445 3.11.997 5.782 3.708 7.896 6.38 1.475 4.188 3.549 8.056 3.15 12.92-.798 4.587-1.874 9.572-6.061 12.164-7.258 1.196-14.237-.997-18.584-7.178-2.113-3.59-2.113-8.534-1.396-12.841M584.412 207.5c3.19 10.528 3.987 22.093 5.383 33.338.08 43.388-11.565 83.585-28.672 120.672 2.392.718 4.785-.997 7.178-1.396 18.902-8.255 25.362-27.955 30.028-45.182 7.657 9.89 14.117 20.817 21.215 31.145-15.353 12.76-15.034 32.54-17.227 50.964-5.384 12.92-20.099 20.099-31.544 26.838 3.59-7.058 9.65-14.595 5.782-22.97-1.515-.797-1.515-2.79-3.31-2.87-11.006 11.724-16.788 26.04-26.838 38.003-.797-.598-1.595-.2-1.794-1.396.28-4.665 2.592-9.77.797-14.037l-2.591 1.117c-8.176 8.534-13.719 19.181-22.492 26.44l-.797-.679c-.2-4.107 2.113-7.656.797-11.844-2.672 1.077-4.068 4.068-6.18 6.142-4.946 6.978-8.535 14.635-13.918 21.494-.798-10.727.598-24.764-3.988-35.093-4.068-8.374-7.737-22.212-19.98-21.893-8.772-1.117-16.828 1.874-25.083 2.871 2.712-19.78 1.994-41.991-2.472-60.495 4.785 9.371 13.718 20.019 25.362 19.7 27.676-3.47 47.575-32.54 60.177-54.793 3.19-8.574 8.574-17.028 6.5-26.878-8.853 10.648-20.816 17.307-34.734 14.317-17.028-3.39-30.946-14.436-44.464-26.16l.678-.678a296 296 0 0 0 29.47-5.384c7.935-1.316 15.193-4.068 21.773-8.654 1.794-2.113 2.791-4.586 2.871-7.457-2.273-7.976-9.331-14.954-15.712-20.098-.797 2.472-2.671 4.386-4.386 6.46-8.455 6.46-17.387 11.844-26.838 16.11 7.257-8.653 17.506-16.908 14.316-29.03-3.19-8.973-12.522-15.155-21.774-15.354-5.184.598-10.567 1.117-14.037 4.985 1.994 1.196 5.464-.997 6.46 1.794 1.197 2.274 1.875 4.666 3.27 6.78 5.384-.2 12.164-10.648 16.151-.718 1.675 3.589 2.672 7.856 1.755 12.243-1.356 4.585-5.663 10.169-10.727 11.046-7.856 1.675-16.031-.798-21.495-6.062-4.267-4.067-5.383-10.049-4.665-15.712-4.387 3.67-6.98 9.132-9.372 14.316-1.675-1.595-3.55-2.671-5.663-3.27-9.73 2.274-13.12 12.722-15.432 20.777-1.875 9.371-2.273 18.424-2.473 27.955-7.258-16.829-10.528-35.532-21.175-51.244-2.911-3.589-6.7-6.26-11.445-6.061-4.586.678-8.255 3.788-11.844 6.779 8.733-23.09 17.506-46.179 26.559-69.149 3.27 4.068 4.785 10.05 10.727 10.727 9.85-.677 16.948-8.254 25.403-12.521 4.067 7.258 11.923 12.84 20.098 14.037 8.654 1.675 18.304 2.751 23.568 11.006 1.874 3.59 3.669 7.497 3.988 11.166-4.785.28-8.853-2.074-13.638-.718-10.448.32-20.617 3.988-25.762 13.639-1.914 2.91-2.313 6.859-2.512 9.97 5.304-5.863 10.967-13.36 18.623-15.713 7.059-2.392 15.034-1.515 22.571-.718 2.792-4.586 7.378-9.45 13.24-8.932 10.368 1.954 17.706 12.72 24.365 19.979 5.663.997 12.163 1.874 15.712-3.59 3.789-8.254 0-17.905-6.46-24.285-9.65-9.85-21.574-15.712-34.295-18.703-5.184-.877-11.246-.2-15.832 0 3.868-8.454 12.123-16.31 21.494-17.507 10.528 0 19.302 4.387 27.237 10.369 4.786-.32 9.571-.598 13.24-3.59 1.396-2.472-.598-5.383-2.473-7.457 26.759 5.065 50.127 29.35 57.306 55.112M412.087 652.034c1.096 5.373-.994 10.545-6.068 13.631-16.316 9.053-37.509 9.55-56.91 7.86-9.751-2.19-21.989-5.871-24.773-17.214-.896-1.69-1.195-3.582-.996-5.77 5.173 3.978 10.745 6.866 16.815 8.657 23.082 5.075 49.945 2.187 70.538-7.164zm9.75-108.546c4.377 17.112 3.98 37.608.3 54.82-2.092 7.959-6.868 17.012-15.424 19.998-5.57 3.183-13.231-1.79-18.205 2.887-2.789.992-5.373 2.485-8.257 3.281-15.722 6.169-35.819 4.677-49.051-5.77-7.363 1.69-15.421 1.89-21.49-2.886-9.751-10.148-9.751-25.768-8.258-39.4l-.4-.298c1.194-5.272 1.593-10.645 2.886-15.818 1.69.695 1.195 2.884 1.793 4.278 5.372 13.233 5.073 32.035 21.888 37.309 1.99 2.986 1.594 6.864 3.184 10.05 3.382-2.588 7.063-4.379 10.446-7.164 4.677.995 8.059 5.473 13.233 5.372 3.78-.697 6.864-2.587 9.651-5.372 4.277.797 7.86 3.084 11.839 4.576 5.671-2.885 11.144-6.468 16.813-9.65l-1.094-1.095c-6.964 0-14.126-1.69-20.397 1.096-4.376-.2-7.36-3.683-11.141-5.376-6.766 3.683-15.72 5.175-23.581 2.887l-1.095-1.094c-14.723-36.912-29.947-83.972-11.84-124.266 2.09-2.09 1.991-6.766 6.07-6.07 10.049 2.09 13.333 15.818 24.077 16.417 14.726 2.487 23.977-18.109 39-8.556 4.777 17.61 8.458 36.114 7.861 55.515.2.2.498.398.398.696 0 .897.1 2.787-.398 3.983.699 21.688-2.289 42.68-4.277 63.772 9.85-6.865 12.734-18.503 16.815-28.652 3.281-8.358 5.77-16.916 8.654-25.47M207.232 364.399c-2.087 7.166-.398 13.134-1.393 20.795-1.492-.197-2.486-1.79-3.282-2.885-7.265-9.55-6.071-22.683-10.746-33.33-2.189 1.591-2.29 4.676-3.184 7.164h-.697c-3.581-6.07-4.378-13.234-7.859-19.303-.199-.497-.797-.396-1.095-.396-2.387 3.383-2.686 7.56-4.678 11.143-3.481-2.288-2.783-7.264-2.883-10.747l-.299-.396 1.393-11.84-.695-.698c-2.589.798-1.89 3.683-3.981 5.074l-.299-1.094c.897-8.157 1.194-16.913.996-25.071l-.299-.399c.994-.695-.398-1.194 0-2.088 1.393-10.946 3.681-21.491 8.953-30.843 1.99 6.964 4.478 14.327 7.463 21.092 10.249 22.187 32.833 36.713 54.522 43.378.897 1.792-.3 3.584-.397 5.374-4.08 23.48 2.188 46.263 5.77 68.451 2.686 11.442 5.868 22.684 8.954 34.025-1.79.3-3.88-.796-5.771-1.492-22.086-10.943-18.705-37.508-25.47-57.306-2.388-7.363-4.577-14.925-11.042-20.795-1.593-.996-3.186.894-3.981 2.187m55.517-141.079c-1.294-2.984-2.587-6.366-2.886-9.35 3.483-.301 6.666.1 8.954 2.484-1.59 2.49-3.481 5.175-6.068 6.866" style="fill:#e54311"/></svg>