<svg xmlns="http://www.w3.org/2000/svg" xml:space="preserve" id="Layer_1" width="720" height="720" x="0" y="0" version="1.1" viewBox="0 0 720 720"><style>.st0{fill:#fff}</style><path d="M693.997 559.128v-.364l-.026-.365c-2.95-40.406-11.933-81.329-27.453-125.058v-.358l-2.539-6.183c-4.468-11.469-13.09-17.285-25.626-17.285-2.084 0-4.311.148-6.806.454l-9.523 1.009-3.366.3c-11.935 1.069-26.789 2.398-42.09 2.399-8.458 0-16.181-.425-23.044-1.265l-29.14-69.708a36.2 36.2 0 0 0 15.045-14.955c1.698-3.096 2.869-6.691 3.528-10.868a29 29 0 0 0 2.843.142c.868 0 1.924 0 3.202-.15 11.07-.706 20.477-7.774 24.071-18.198.872-2.61 3.128-12.091-4.333-24.773l-30.815-55.97-9.782 3.762-13.867 5.872c-23.77-39.823-55.715-70.88-95.05-92.388-37.672-20.598-81.326-31.486-126.242-31.486-42.299 0-84.774 9.604-122.832 27.773-39.248 18.736-72.929 46.255-97.4 79.579-23.366 31.82-38.164 68.162-43.984 108.018-6.307 43.192-1.828 89.56 13.314 137.824 6.103 19.398 13.99 38.63 23.46 57.216-.29 2.033-.432 4.18-.432 6.486 0 3.563.352 6.919 1.048 9.974l.04.178.048.178c2.714 10.18 5.021 16.823 12.62 33.83-.804 7.298 1.394 14.994 6.187 21.229 6.837 8.894 17.849 13.792 31.006 13.792 3.65 0 7.499-.38 11.442-1.128 28.317-4.067 44.508-12.846 50.82-16.97h4.149c30.208 22.063 68.822 34.637 106.792 34.637 39.975 0 73.38-14.358 92.813-39.63 3.802.44 7.928.662 12.335.662 8.106 0 14.726-.757 16.331-.956 15.67-1.08 29.653-4.72 41.705-10.845 15.984 20.958 38.756 35.76 66.415 43.057 14.35 3.764 29.586 5.674 45.283 5.674 17.984 0 36.096-2.482 53.887-7.38 1.572.384 3.194.583 4.821.583 3.703 0 7.359-.998 10.6-2.89.509-.273.976-.56 1.407-.85 14.686-3.43 24.8-6.01 31.497-8.039v4.927l16.195-12.773c10.565-8.334 11.524-22.88 11.446-28.72m-113.67-98.25c1.168 3.177 2.503 6.998 3.794 10.767a533 533 0 0 1-5.879.011l-4.035-9.602q3.227-.597 6.12-1.176m-88.468-91.773 1.723 4.134s1.451 3.383 2.19 5.113a133 133 0 0 1-4.8-6.038q.414-1.64.887-3.209m6.348 63.806q-3.112.354-6.12.682a186 186 0 0 0-1.163-3.873q-.286-1.255-.547-2.525a130 130 0 0 0 7.83 5.716m66.106 141.297c-21.09 0-58.319-4.664-80.447-34.473 26.861-3.042 54.741-6.85 78.368-10.705 11.106 16.583 25.52 30.63 41.448 40.389-13.214 3.18-26.433 4.789-39.369 4.789m61.468-105.157a333 333 0 0 0-5.114-14.706 321 321 0 0 0 8.626-1.908c1.777 5.118 3.274 9.988 4.53 14.732l.151.63q-4.107.718-8.193 1.252m16.429 74.827a370 370 0 0 0-4.605-29.247 604 604 0 0 0 9.093-2.139c1.991 10.824 4.318 23.798 5.9 34.53a94 94 0 0 1-10.388-3.144" class="st0"/><path d="M683.996 559.128c-2.964-40.592-12.086-81.07-27.479-124.057v-.115l-1.825-4.446c-3.876-10.034-10.946-11.973-22.006-10.605l-9.692 1.027c-19.384 1.71-50.512 4.903-76.51.57l-35.461-84.834c.114 0 .228-.114.342-.114 8.21-1.14 15.393-6.271 19.27-13.569 2.394-4.332 2.964-10.147 2.964-15.05 0-.343 3.65-1.711 4.561-2.395 2.509.912 5.018 1.482 7.64 1.482.798 0 1.482 0 2.28-.114 7.07-.342 13.228-4.789 15.508-11.402.114-.342 2.28-6.841-3.535-16.648l-26.681-48.46-1.483.57-19.384 8.21-1.14-.114-2.053-.114C372.028-5.517-49.973 130.057 51.622 453.885c6.385 20.296 14.595 39.908 24.4 58.721-.684 2.623-.911 5.36-.911 7.982 0 2.623.227 5.246.798 7.754 2.736 10.262 5.017 16.647 13.34 35.12-3.306 12.428 8.324 30.786 36.602 25.313 32.839-4.676 47.776-15.85 49.145-16.99 0-.114.113-.114.227-.114 0-.114.114-.114.114-.114.913-.57 2.737-1.939 5.131-3.877a55 55 0 0 0-5.7-3.649c2.052 1.027 3.99 2.28 5.815 3.535 1.368 1.026 2.736 2.052 3.876 3.079 59.635 46.522 157.125 50.17 193.042-4.789h.114c14.367 2.965 32.155.57 32.155.57 18.814-1.254 33.865-6.385 45.61-14.139 14.48 22.69 37.057 38.996 66.02 46.635 29.987 7.868 64.08 7.07 96.92-2.508 3.192 1.597 7.069 1.368 10.261-.57.684-.342 1.254-.798 1.938-1.368 17.675-4.105 28.165-6.842 34.322-8.78 6.157-2.052 8.21-3.307 9.35-4.219.798-.456 1.482-1.026 2.166-1.596v.114c8.096-6.386 7.64-20.183 7.64-20.867m-78.448-48.232a4.8 4.8 0 0 1 1.37 2.851v.456a176.5 176.5 0 0 1 4.445 24.401 103.6 103.6 0 0 1-23.944-24.401c5.815-1.14 11.288-2.28 16.19-3.42 1.255-.343 1.826 0 1.94.113m-45.381-56.555c8.323-1.369 15.85-2.737 22.235-4.105 0 0 2.85-.456 3.763.228 1.595 1.14 1.71 2.052 1.71 2.052v.115c2.736 6.727 7.526 21.094 10.034 28.619v.114a532 532 0 0 1-26.34.228l-11.402-27.137c-1.026.114-2.052.342-3.079.456 1.027-.228 2.053-.342 3.079-.57m-16.191 2.622c-1.254.114-2.51.342-3.877.57 3.42 8.096 6.613 15.736 9.578 22.463l-61.117-10.718c-.114-1.824-.342-3.535-.57-5.36 17.217-1.824 35.462-3.99 52.109-6.499 1.368-.114 2.623-.342 3.877-.456m11.06 42.189c-22.12 3.763-45.039 7.297-69.669 9.806 1.825-6.727 2.965-13.911 3.421-20.98zm-70.353-139.68c1.939-4.674 4.447-9.121 7.526-12.884.114-.342.456-.684.684-.912 1.14 2.623 4.79 11.403 9.92 23.717 5.245 12.2 11.859 27.936 18.814 44.355-1.482-.684-3.078-1.596-4.333-2.736-6.955-4.22-23.489-16.99-37.058-36.488 1.027-5.245 2.51-10.376 4.447-15.051m-6.955 41.277c14.139 17.446 33.18 30.673 54.389 37.97-15.05 2.053-31.47 4.105-47.434 5.702h-.114c-.912-3.991-2.052-8.096-3.306-12.087-2.395-10.376-3.535-20.98-3.649-31.585zm133.864 176.965c-52.337 14.253-113.226 6.728-140.706-39.452v-.114c2.053-2.394 3.763-4.903 5.474-7.64 28.163-3.078 61.8-7.525 90.762-12.428 12.087 20.068 28.734 35.917 46.636 45.61.342 5.017.456 8.209.456 8.323a6.15 6.15 0 0 1-2.622 5.701m7.07-97.832c-3.307-11.174-7.184-22.234-11.745-33.067-.114-.456-.342-.912-.456-1.368.114.456.342.912.57 1.368 18.585-3.42 26.339-5.7 28.505-6.385 3.08 7.981 5.816 16.077 7.982 24.287l2.623 10.832c-9.008 2.053-18.244 3.534-27.48 4.333m44.924 79.132h-.114a39 39 0 0 0-5.244-.684 104 104 0 0 1-25.314-7.411 358 358 0 0 0-7.183-44.014c8.095-1.482 23.374-5.244 28.848-6.727.227 0 .342-.114.57-.114-.114.114-.343.114-.57.228l.456 2.28c2.85 15.394 7.183 38.654 8.78 53.022.114 1.14 0 2.28-.229 3.42" style="fill:#311d00"/><path d="M373.37 501.857a187.8 187.8 0 0 0-14.052-42.512c3.088 12.295 8.138 26.415 10.236 41.852-37.007-6.339-80.766-13.859-96.863-16.616l8.714-12.899c12.212 7.3 29.53 18.044 29.53 18.044 11.951 7.59 21.145-3.307 24.053-7.19 2.265-3.02 9.194-12.363 8.961-20.35-.232-7.78-6.2-11.937-11.525-15.436h.013l-24.824-16.276c2.28-3.69 5.943-9.632 11.624-18.812 11.141 11.143 23.972 23.356 24.082 23.45a98.7 98.7 0 0 0 23.053 18.663c5.254 17.33 11.196 31.573 12.65 38.242.715 3.24 1.607 7.04 2.457 11.239q-3.972-.679-8.11-1.4m21.593-179.73a92.8 92.8 0 0 0-19.142 10.223c1.77 3.746 3.871 8.234 6.259 13.311a87.6 87.6 0 0 1 13.516-10.581c.781-.645 4.405-2.867 4.405-2.867h-.014c14.27-7.699 26.317-11.869 45.625-14.751l5.626-.783c3.842-.575 11.184-2.085 13.282-5.914a16.7 16.7 0 0 0 1.4-8.534c-24.067 5.035-49.192 11.06-70.957 19.897m-27.55 42.36-7.946-17.316a658 658 0 0 0-6.998 10.77c0-.014-10.73 17.098-22.053 35.403h.016c7.972 8.672 19.635 21.365 28.911 30.572-2.002-13.007-2.47-26.373.22-38.736a75 75 0 0 1 7.85-20.694m7.921 157.926c3.079.57 5.93 1.026 8.78 1.482.343 8.552-.798 17.331-3.535 25.427-.228 1.026-.684 1.939-1.025 2.85-.114.115-.114.23-.114.23-1.711 3.99-3.763 7.639-5.93 11.173-12.429 18.928-31.926 30.216-54.161 35.347-2.052.457-4.105.799-6.157 1.141-4.106.798-8.324 1.254-12.657 1.596-3.648.228-7.411.456-11.174.456-36.26 0-74.686-12.77-100.57-33.067-21.55-16.761-37.171-17.217-59.405-10.034-23.261 7.412-23.717-6.841-23.717-6.841-20.639-29.532-39.794-60.889-55.986-120.18-7.525-30.217-10.376-58.609-9.122-85.063 0-2.28.114-4.447.342-6.613.115-2.85.342-5.587.685-8.324.114-.456.114-.798.114-1.14.341-3.078.684-6.043 1.254-9.008.114-1.824.456-3.649.798-5.359.114-1.254.342-2.394.684-3.534.342-2.623.913-5.246 1.482-7.755a240 240 0 0 1 3.421-13.682c.798-3.079 1.71-6.043 2.737-9.008.912-2.623 1.824-5.131 2.736-7.64a174 174 0 0 1 6.158-15.05 84 84 0 0 1 3.078-6.5c.57-1.368 1.255-2.623 1.939-3.877l3.078-5.815c.456-.798.798-1.482 1.254-2.166 1.255-2.281 2.623-4.562 3.991-6.842 3.307-5.359 6.727-10.49 10.49-15.507a183 183 0 0 1 5.701-7.411 123 123 0 0 1 5.132-6.158c8.551-10.148 18.016-19.384 28.277-27.822 1.94-1.71 3.991-3.306 6.044-4.903 14.48-11.402 30.216-21.094 46.978-29.076 1.824-.912 3.648-1.824 5.472-2.508a239 239 0 0 1 28.849-11.175h.114c33.295-5.815 67.388-4.56 100.112 3.763 66.59 17.104 116.874 61.46 142.416 104.788h.114c-.229.114-.456.228-.684.456-.342.342-.799.57-1.027.912-.57.342-.912.798-1.254 1.254-.57.799-.798 1.711-1.026 2.623a12.2 12.2 0 0 0-.342 2.85c0 5.017 2.509 10.263 2.736 10.833 0 0 .457 1.254 1.14 3.193.343.912.685 2.052 1.14 3.306q.344 1.026.685 2.052c.456 1.369 1.026 2.737 1.482 4.22.343.683.57 1.482.799 2.166.455 1.482.912 2.964 1.482 4.333.456 1.368.912 2.623 1.254 3.763.456 1.14.798 2.052 1.027 2.85-17.218 3.42-34.322 7.525-48.917 11.63-11.288 3.193-21.208 6.5-28.62 9.578-3.876 1.483-7.64 3.193-11.288 5.246-3.535 1.938-6.956 4.104-10.262 6.613v.114c-.342.114-.457.342-.57.57-1.255.456-2.509 1.026-3.535 1.825s-2.053 1.71-2.851 2.736c-2.052 1.596-3.99 3.193-5.701 5.017-2.737 3.079-5.13 5.815-7.867 9.35q-1.197 1.71-2.737 3.763c-3.535 5.131-15.963 24.857-27.024 42.759-1.026.456-1.938.912-2.736 1.596-.684.456-1.254 1.14-1.71 1.71-1.597 1.825-2.51 4.333-2.51 6.842 0 .57 0 1.14.115 1.71v.114q-3.42 5.474-6.157 9.92c-1.825 2.85-3.421 5.36-4.79 7.64q-2.052 3.249-3.42 5.473c-1.368 2.224-1.597 2.623-2.167 3.535h-.114c-3.078.342-5.928 2.052-7.639 4.675-2.166 4.218-11.288 19.384-13.226 21.55-.457.57-.799 1.14-1.141 1.71-1.254 2.509-1.71 5.36-1.14 8.096l-.912 1.71-20.753 31.015a7.75 7.75 0 0 0-.798 7.982c.57 1.026 1.14 1.824 1.939 2.622 2.28 2.395 5.244 3.877 8.437 3.991h.57c1.026.114 2.053 0 2.965-.456.912-.228 1.824-.685 2.622-1.14l.115-.114c7.753 1.368 66.817 11.402 110.374 18.7-5.473 46.521-54.96 68.755-98.516 64.65-9.008-.34-18.586-1.937-28.05-4.446-6.385-1.596-12.657-3.648-18.814-5.815-9.121-3.307-17.902-7.184-25.427-11.06-9.92-5.702-33.409-18.017-42.759-18.472 2.623.57 6.157 1.824 9.92 3.42 8.438 3.649 18.472 9.008 25.542 13.227 2.28 1.369 4.333 2.623 5.815 3.65 17.331 9.463 46.521 22.804 73.773 23.83 18.814 1.14 35.233-.913 49.258-5.473q7.184-2.224 13.34-5.474c20.753-10.147 33.98-26.34 38.997-44.013.456-1.368.798-2.85.912-4.219.798-2.85 1.14-5.7 1.368-8.665zm-70.808 14.595c.456 1.026 1.14 1.938 1.938 2.736 3.42 3.079 8.666 2.85 11.745-.57 4.789-1.938 7.868-6.727 7.868-11.858 0-7.184-5.816-12.999-13-12.999-3.762 0-7.297 1.597-9.805 4.447-4.676 5.359-4.106 13.455 1.254 18.244m-93.044.798c-4.333-6.157-11.744-8.21-16.647-4.789-3.307 2.28-4.56 6.841-3.991 11.402-1.482 2.851-.684 7.07 2.28 10.262 3.194 3.307 7.527 4.219 10.49 2.509 2.624.342 5.246-.342 7.298-1.825 4.562-3.876 4.79-11.516.57-17.56m-6.385-53.135c5.701 6.157 13.683 9.692 22.12 9.92 2.851 0 5.702-.456 8.438-1.255v-.113l17.56-25.998c-.114-8.323-3.42-16.19-9.236-22.235a30.6 30.6 0 0 0-22.006-9.805 24.43 24.43 0 0 0-18.472 7.525c-10.832 10.946-10.034 29.76 1.596 41.961m-19.726 27.138c24.515 31.47 67.73 31.584 89.508 8.552-9.236 4.56-48.003 29.987-89.508-8.552" style="fill:#ff3c00"/><path d="M637.858 572.841c-1.124.205-2.47.411-3.76.617-.014-.563.015-1.097.015-1.675 1.235.316 2.484.796 3.732 1.058zm-505.695-10.84v-.016c-.234.084-.41.124-.645.206a146 146 0 0 1 15.175-1.618 40.85 40.85 0 0 1 22.148 6.064 84 84 0 0 0 3.048-1.865l.004.004c-.822.547-1.943 1.218-3.039 1.861-1.743 1.03-3.375 1.948-3.375 1.948-19.252 9.304-35.719 12.419-45.063 13.091-9.18.631-7.397-4.72-1.359-7.766 3.32-1.688 6.12-4.898 7.355-10.759-1.03.51-.987.275-2.62.578-1.99 14.421-30.203 12.952-27.088-6.684 0 0-4.061-8.315-6.367-13.144.042.206-.59-3.048-.274-3.103 0 0 6.888 11.157 9.742 14.683-3.842 13.502 16.07 19.074 21.147 8.7-.741.165-2.745.303-3.637.412a20.5 20.5 0 0 1-3.623-.33c-.508-.069-1.07-.027-1.551-.137a.2.2 0 0 1-.082-.027 12.7 12.7 0 0 1-3.897-1.702 12.53 12.53 0 0 1-5.64-9.07c-.41-.562-.796-1.124-1.207-1.689a318 318 0 0 1-22.106-35.127c-.028.124-.041.26-.069.371-2.662 11.101 11.705 40.411 12.844 43.224l-.014-.029c1.167 2.829 1.167 2.814 1.167 2.814-4.062 11.267 7.629 26.003 28.664 22.614a133.5 133.5 0 0 0 50.723-16.27c.93.74 1.862 1.48 2.766 2.342 0 0-.206.151-.274.206.646-.438 2.662-1.866 5.475-4.116-10.866-7.74-26.32-13.42-48.328-5.667m175.791-39.207q-.144.107-.282.221c-1.51 1.538-.288 2.512.892 1.784a7.93 7.93 0 0 1 9.056 1.235c.974 1.482 2.347.22 1.071-1.687a7.67 7.67 0 0 0-10.737-1.553m5.491-6.173c-11.814.04-12.788 12.637-9.948 15.287-1.468-4.392 1.303-12.817 9.716-12.474 8.067.343 10.566 8.714 7.518 15.3a10.63 10.63 0 0 0-7.286-18.113m5.653 16.603v.006a7.114 7.114 0 0 1-7.08 7.145 7.075 7.075 0 1 1 7.08-7.15m-1.496-.066a5.646 5.646 0 0 0-11.292.013 5.675 5.675 0 0 0 5.653 5.64 5.646 5.646 0 0 0 5.64-5.653m-9.163.383c-.165-.523-.48-.892-.645-.18-.412 3.254 5.736 6.602 8.426 1.29v-.012s.013-1.332-.646-.357c-1.304 1.893-5.598 1.702-7.135-.74m-107.077 5.625c-1.892-.659-2.483 1.893-.919 2.196a10.04 10.04 0 0 1 5.215 4.5c.741 1.592 2.594.166.865-2.689a13.36 13.36 0 0 0-5.161-4.007m-8.44 1.648c6.656-10.458 23.534 2.689 14.863 13.954 13.09-9.619-9.304-30.998-14.862-13.954m9.717 4.61c3.032 3.182 3.554 7.602 1.166 9.866s-6.779 1.523-9.811-1.675c-3.032-3.196-3.554-7.629-1.167-9.893 2.388-2.265 6.78-1.51 9.812 1.688zm-1.084.987c-2.183-2.484-5.806-3.718-7.835-1.756-1.839 1.756-1.62 5.516 1.029 7.93 2.47 2.28 5.803 3.473 7.792 2.006l.016-.016c2.278-1.7.768-6.146-1.002-8.164m-5.573.398v-.013c-.206-1.413-1.317.097-1.317.097-1.51 2.196 2.127 7.135 6.201 6.75 1.222-.219 1.03-1.111.44-1.248a7.77 7.77 0 0 1-5.324-5.586m235.385-98.769c12.228-.082 27.897-1.14 44.57-2.718a155 155 0 0 0-7.287-21.955c-13.666-32.287-49.742-19.814-50.881-.892h-.014c3.966 8.631 7.904 17.235 11.706 25.565zm-42.733 56.437c22.655 3.897 39.382 6.766 39.382 6.766 2.635.383 4.94.67 7.136.905l-19.376-42.237c-5.201 13.173-14.82 26.977-27.142 34.566m90.912-39.63c-14.477 1.456-27.98 2.608-38.916 3.294-.041 0-.865-.014-2.14-.069a1945 1945 0 0 1 18.758 43.567q.086-.047.178-.081h-.015a856 856 0 0 0 19.034-1.592c4.336-14.16 4.926-29.887 3.1-45.119m-34.449 68.062c-.26-.014-.495-.014-.755-.04a251 251 0 0 1-27.306-3.336s-11.527-1.948-28.283-4.79a75.1 75.1 0 0 1-6.97 33.4l2.127.275c30.49 2.483 52.199-2.964 67.224-13.147a109 109 0 0 1-5.173-11.154zm27.383-123.662c-4.089-18.894.233-54.01 14.024-64.04-19.705 2.402-25.194 51.719-14.024 64.04m-100.606 47.588c4.94 15.094 10.333 28.46 12.665 38.326-1.894-11.513-5.324-23.82-8.672-36.529v-.013c-1.331-.575-2.663-1.138-3.993-1.784m-2.129-87.258c-9.37 18.73-9.22 39.45-5.42 59.155l.015.015a90 90 0 0 0 5.542 4.529c-3.842-19.776-4.993-39.878 2.005-59.033zm14.378-19.498c.261.548.535 1.14.796 1.701a109 109 0 0 1 21.681-17.962 62.8 62.8 0 0 0-14.34 9.112 87 87 0 0 0-8.137 7.149m70.1-29.956c-6.82 1.414-12.39 1.647-15.204 2.594l6.491.234a58.2 58.2 0 0 0 17.454-3.43c6.545-2.43 11.39-6.876 9.331-18.609-.768.153-1.523.303-2.306.467l.015.014c.699 11.966-5.338 16.576-15.78 18.73m1.179-65.604 10.14 28.034 2.141-.412a125 125 0 0 0-1.936-5.282c-3.663-9.346-8.096-21.49-9.4-25.62h-.013a16.7 16.7 0 0 1-.467-9.729s-4.46 3.541-.465 13.009m53.375 51.032-17.646.232s-6.273.495-9.318-6.805c-2.003.412-4.075.836-6.12 1.248 1.756 11.212.11 22.024-21.64 24.124 3.72 2.566 37.681-3.705 58.086 1 .754.317 8.824 3.212-.782 7.41 18.99-4.212 19.924-23.148 16.274-37.17l-3.033-.275-1.593-.231c-1.167 5.062-5.201 8.916-14.228 10.467m14.202-10.47.026.003v-.004zm-1.309-18.716c-3.594-11.046-8.273-25.111-11.497-33.36v-.013l-5.408-.467s9.894 22.615 14.464 33.716zm-54.344-35.004a25.7 25.7 0 0 0-4.638-.234c-2.813.234-5.447.356-3.526 7.04 1.412 4.953 1.948 6.12 3.046 9.18 1.332 3.663 5.626 14.723 8.755 24.135 1.467-.274 2.908-.507 4.378-.768l-3.198-9.083a200 200 0 0 1-2.758-7.85h.013l-1.77-5.035s-3.898-7.89-1.373-14.93c.268-.855.627-1.678 1.071-2.455m48.492 36.142c3.541 8.932 3.843 12.939 3.843 12.939H504.02a49 49 0 0 0-2.128-7.767l-9.18-21.419-.163-.467-5.531-13.392-1.426-3.526c-.277-.63-.49-1.288-.633-1.963-1.77-8.191 5.325-8.864 8.233-7.67v-.001c4.008 1.66 6.821 6.354 8.949 11.294 1.865 4.336 11.017 25.22 13.68 31.972m-9.167-13.57c-1.288-5.75-3.827-7.892-6.352-10.416v-.014c.467-10.21-5.86-17.564-10.402-16.219 0 0-4.047.946-2.127 8 0 0 .343.851.618 1.59a22.25 22.25 0 0 0 5.502 7.577 23.8 23.8 0 0 0 .66 6.256l.123.412a16.9 16.9 0 0 0 3.472 6.985c4.693 5.406 9.975 2.359 8.506-4.172m-17.398-22.751c.069 3.636 3.103 9.481 5.504 11.004 1.729-2.771.108-10.935-5.504-11.004m8.84 16.545a7 7 0 0 0-1.996-.779 14.86 14.86 0 0 0 4.557 10.387 7.03 7.03 0 0 0-2.561-9.608m-21.85-17.534c-3.527 4.46 1.18 16.22 1.18 16.22s3.526 11.046 8 22.106c11.745-3.06 22.01 18.25-.562 20.144 2.044 8.617 21.488 5.009 13.954-14.505-1.51-3.924-13.16-30.806-15.986-37.379a18.5 18.5 0 0 1-1.866-8.273c.04-.686.139-.85.189-.89zm-7.049 3.28s-2.29 4.39.22 11.993c3.308 10.003 8.548 24.467 8.548 24.467l4.228-.797-8.056-22.49s-3.444-7.835-1.344-14.902zm48.81 53.391c-5.008-.095-14.408-.095-14.408-.095-.234 3.074-4.008 5.721-4.008 5.721 15.685 1.113 18.416-5.626 18.416-5.626m-165.135 31.15a124 124 0 0 0-10.799 13.942c-3.54 5.283-13.708 21.269-25.111 39.779l.013-.014c2.594-.233 5.558 2.293 5.558 2.293l5.64 6.201 21.105-34.36c3.14-4.94 7.752-10.99 8.602-12.157.124-.164.164-.233.11-.18 0 0-2.553-5.35-4.034-8.341-.234-.48-.453-.934-.618-1.248-.068-.124-.068-.235-.123-.343a9 9 0 0 1-.385-1.14 7.34 7.34 0 0 1 .029-4.391c.108-.137.068-.095.013-.042m265.327 96.67s-19.019 1.908-25.152 1.412v.016a9 9 0 0 1 5.173 2.098s15.41-2.236 19.979-3.526m-129.321 60.13 67.47 11.198s-3.759-8.687-4.94-12.063l-62.229-11.362a94.5 94.5 0 0 1-.301 12.228m88.66 10.044-.001-.002-.012.002zm21.16-9.797s-9.894.15-25.646-.096l4.485 9.89 18.088-3.77s4.94.33 3.072-6.024m-49.778-49.235s-39.26-93.075-41.92-98.482c0 0-7.11.164-11.487 4.913h-.013l40.712 95.38s6.93-.782 12.708-1.811m8.173 19.088c-.069-.15-.125-.3-.18-.439 0 0-10.964 1.62-13.173 1.893 0 0 .096.234.233.577 1.058 2.54 5.682 13.708 9.948 23.793 3.363 7.932 6.492 15.191 7.452 17.016v-.014s10.58-1.4 12.707-2.346c0 0-2.498-5.64-5.997-13.832-3.184-7.479-7.203-17.07-10.99-26.648m56.328 104.615a.7.7 0 0 1 .137.068s-.712-11.758-1.166-15.986c0 0-.274-.19-.48-.328a113.4 113.4 0 0 1-27.977-27.895 3277 3277 0 0 1-12.694 2.357s16.644 28.584 42.18 41.784m-29.487-44.143.001.002.012-.002zm85.362 48.892v.013s3.307 9.893-32.919 14.587c0 0 21.625-3.074 27.512-10.346 0 0 5.64-4.708-5.873-7.301-11.197-2.524-12.926-1.18-23.74-5.872 0 0 .687 10.579.468 13.173a43.6 43.6 0 0 0 11.046 1.866s.219-3.28-8.946-6.12c0 0 39.505 3.774-2.1 12.706a69 69 0 0 1-.948 13.405s21.559-5.665 28.227-7.531c7.52-2.127 22.106-8.935 7.273-18.58m-247.557-90.84c12.268 26.827 15.065 33.427 17.398 38.56 4.703.475 9.447.319 14.108-.468l-19.116-43.195s-8.233-1.483-12.39 5.104m3.53-25.878-58.73-126.215a2.13 2.13 0 0 0-2.017-.906 8.72 8.72 0 0 0-6.861 4.212 7.54 7.54 0 0 0-.975 7.205c.042.068 29.351 61.447 53.776 114.852 4.893.8 9.855 1.086 14.806.852m161.32-17.372a7.6 7.6 0 0 0-2.976 2.29l-.15 1.18.973 4.145s-3.28-3.252-6.806-2.772c-29.378 5.227-100.705 15.917-146.193 16.494-.618.014-15.068-.152-25.057-1.414-19.635-2.47-31.34-7.945-45.419-18.923-12.447-13.007-36.666-38.46-41.125-44.445-2.127-2.455-6.34-1.056-8.233.44a6.957 6.957 0 0 0-1.484 9.727q.002 0 .002.003c10.223 11.196 35.636 35.387 35.883 35.62 22.956 24.907 46.682 29.764 67.47 30.93 12.31.85 28.528.974 28.693.961 38.27-2.292 101.048-10.017 138.564-17.55a6.41 6.41 0 0 0 4.721-5.421 9.5 9.5 0 0 1 .452 4.843c3.554.715 5.475 4.886 5.585 5.243l-.055-.18c3.705 9.332 11.101 32.756 11.197 33.016 0 0 2.813 11.526 1.62 13.516 0 0-2.1-3.115-5.175-2.648l-.121.04-.124.042-8.452 1.523c-40.852 7.37-83.116 14.97-132.501 18.51-.275.056-12.925 2.183-36.073-1.276-.016-.013-141.159-24.232-151.437-26.003a31 31 0 0 0-.645-.108c-.15-.193-.823 1.153-1.33 3.032l-.041-.069a12.46 12.46 0 0 0-.165 6.848 5.24 5.24 0 0 0 2.936 3.539c.068.042 149.31 24.48 149.31 24.48a154.8 154.8 0 0 0 33.74 2.69l4.557-.11a82 82 0 0 0 9.015-.767c42.305-4.27 95.86-11.089 130.482-19.335 0 0 6.765-.385 7.423-5.75.15-1.193 1.166 5.296 1.166 5.296 2.346.715 3.718 4.666 3.787 5.45 6.19 22.282 6.848 55.175 6.916 56.752 0 0-.109 10.813-1.755 14.106-1.95-2.798-5.86-2.03-5.86-2.03-56.15 14.353-121.028 4.843-146.453-49.565 0 0-7.89.07-11.912 5.476 16.37 36.254 45.859 50.69 70.792 57.275 27.499 7.26 60.102 6.806 90.565-1.029 4.94-1.633 3.814-4.72 3.814-4.72 4.459 7.053 10.058 3.019 10.058 3.019a6.86 6.86 0 0 0 3.43-5.983c3.115-49.948-15.025-118.79-34.811-155.25a8.31 8.31 0 0 0-8.797-1.138m-282.68 51.168v-.04l-3.033-1.813-25.948-15.918-.082-.053-.069-.042v.014a10.66 10.66 0 0 1-5.407-6.01c-.725-2.662.124-5.75 2.526-9.125 5.488-7.712 8.151-12.13 9.33-14.175a13.6 13.6 0 0 0 4.817 4.72c9.207 5.75 28.57 17.468 34.14 20.555 5.983 3.349 7.205 4.94 7.205 4.94 6.956 6.587 5.652 13.146 2.235 17.716-3.842 5.16-11.21 8.453-17.372 4.35zm.315-6.092c.372.992.817 1.956 1.332 2.882v-.029a10.1 10.1 0 0 0 3.595 3.719c10.895 6.478 16.92-1.784 16.973-1.853.042-.068 5.009-6.544-2.248-13.666a14.42 14.42 0 0 0-10.635-3.362 12.34 12.34 0 0 0-12.817-9.18l-.069.015h-.068c-7.246.48-8.92 4.404-9.756 6.655l.013.013a11.3 11.3 0 0 0 .879 9.234c.04.069 3.552 6.998 12.801 5.572m29.792-22.901c-5.407-4.104-17.962-12.323-27.5-18.457l-2.237 2.154s21.147 14.078 26.568 17.715c6.228 4.171 8.644 9.496 7.655 14.832 0 0 5.243-8.85-4.486-16.244m-4.858 3.882-27.691-18.525c-5.173 1.414-16.11-4.323-15.712-11.431-2.758 2.361-3.28 6.903 1.934 10.17v-.016c9.125 5.723 38.889 23.232 38.889 23.232s8.04 5.104 8.383 11.553c2.43-6.9-1.673-11.992-5.803-14.983m-6.444 22.67v-.014l1.467-.234c4.09-5.97-2.264-14.12-10.429-13.86a9.35 9.35 0 0 1-3.335 5.9c1.195 6.313 5.188 9.126 12.297 8.207m-17.005-6.107c1.114 6.134 6.99 10.203 13.124 9.088a11.3 11.3 0 0 0 3.342-1.17c-4.006.631-12.281.383-13.598-9.126-6.011 2.21-16.755.509-15.822-11.252-3.21 8.66 5.366 14.793 12.954 12.473zm295.332-41.057c2.937 5.695 4.09 9.275 5.106 11.484-.399.235 4.391-.781 9.165-1.673 6.655-1.248 11.457-2.484 15.698-3.526a28.4 28.4 0 0 0 5.695-1.92 5.15 5.15 0 0 0 1.784-1.059 5.32 5.32 0 0 0 1.536-5.132 5.79 5.79 0 0 0-5.241-5.296s-.96.11-2.291.303a39 39 0 0 0-4.612.945c-8.26 2.1-17.728 4.172-26.84 5.86zm59.627 52.61c-2.813-9.866-15.753-5.406-15.753-5.406-6.12 1.413-24.465 4.94-24.465 4.94l1.18 3.28.012-.014c4.94-.467 26.333-5.874 26.333-5.874 4.09-.068 4.24 2.662 4.24 2.662-8.233 3.074-29.323 7.465-29.323 7.465.946 3.994 2.978 11.746 2.978 11.746 24.932-4.46 30.339-7.204 30.339-7.204 7.3-3.046 4.46-11.595 4.46-11.595m-7.435-46.82c-4.557-17.084-14.422-14.97-14.422-14.97 5.406 1.646 8.316 10.744.302 16.617a244 244 0 0 1 10.579 35.045c.48 0 .823.165 1.277.193a14.21 14.21 0 0 1 11.389 5.776c4.68 6.669 2.84 16.837-4.185 19.116 0 0 6.901 34.812 8.782 53.912.14 2.147.163 4.3.069 6.45 7.533 1.564 11.924 6.807 11.924 9.633 3.663-21.941-9.18-85.447-25.715-131.772m-123.02-3.457h.04l-6.352-15.52a3 3 0 0 1-.289-.137c-2.744-1.248-24.617-11.855-44.5-39.244v.013a93 93 0 0 0-1.523 15.753s21.845 29.023 52.624 39.135m22.149.96s19.06-2.098 27.513-4.225a4.215 4.215 0 0 1 3.76-3.76 158.6 158.6 0 0 1-35.266-1.18zm-285.525 26.59-19.753 30.15a4.01 4.01 0 0 0-.494 4.283 9.03 9.03 0 0 0 7.246 4.46 5.38 5.38 0 0 0 5.133-2.32c0-.014 14.86-22.08 19.018-28.24 0 0-9.894-5.94-11.15-8.332m-.007-.01.007.01.007-.01zm100.569-144.67c1.303.741 2.155.632 3.499 3.883.768 1.853 3.596 7.643 3.596 7.643a66.5 66.5 0 0 1 19.127-9.948c28.322-11.499 62.229-18.277 92.116-24.26l2.291-.453c4.886-.769 6.19-3.732 5.805-6.299a6.73 6.73 0 0 0-7.711-5.049c-37.365 6.023-80.577 17.167-101.433 25.893a103.5 103.5 0 0 0-17.29 8.59M291.31 423.86c-.357.604-.59.974-.63 1.057l-.07.11h-.013l-.095.11c-1.77 2.098 1.166 5.132 1.783 5.721 2.676 2.58 6.957 4.227 8.988 2.607l2.072-3.28 13.076-20.692a82 82 0 0 1-9.782-10.62c-9.88 16.012-13.928 22.696-15.329 24.987m254.026-129.74c4.858 0 5.722-3.212 5.846-4.653.232-2.634-1.222-5.803-3.664-6.146l-.179-.042-.164-.056c-3.445-1.166-20.157-3.087-26.689-3.718 0 0 3.033 7.04 3.033 11.993l-.014.014c7.346.14 14.66 1.013 21.831 2.607m3.879-14.533c6.328 1.84 7.92 10.759 3.597 15.384a9.78 9.78 0 0 1-9.002 2.715v.029a32 32 0 0 0-5.023-1.098 30.4 30.4 0 0 0-4.376-.316c9.81 13.434 35.455 5.476 21.625-16.466l-24.232-44.446-9.867 4.24 16.933 38.092c3.502.28 6.967.906 10.345 1.866m-14.323-2.072-.014-.013-15.987-36.693-4.46 1.894 11.98 33.633s6.12.713 8.481 1.18M305.378 466.852v.013a8.1 8.1 0 0 1-3.088-.453 17.4 17.4 0 0 0 .399 3.568c5.694.878 8.48-2.716 8.808-5.352l-.465-.055c.22-3.65-2.717-7.204-6.766-8.479a18.2 18.2 0 0 0-1.99 8.178c1.017.49 2.106.809 3.226.947a13 13 0 0 0-.124 1.633m-6.78 1.88v.026c.384.18.603.496.974.633a17.2 17.2 0 0 1-.411-4.2c-.728-.494-1.29-.686-1.647-1.33v-1.964c.49.404 1.014.766 1.563 1.085a15.3 15.3 0 0 1 1.757-7.218 7.63 7.63 0 0 0-6.009 2.045s-1.881 7.753 3.774 10.922M431.81 174.506a229.4 229.4 0 0 1 28.639 27.882 225 225 0 0 1 22.984 32.067l2.607-1.193q.648-.355 1.344-.604h.029q.557-.203 1.137-.33.274-.016.536-.095a8.3 8.3 0 0 1 1.44-.15 12.7 12.7 0 0 1 3.911.604 11.4 11.4 0 0 1 2.896 1.343q.726.455 1.371 1.016.365.278.687.604c.234.206.453.452.686.686a20 20 0 0 1 2.003 2.457h2.25a124 124 0 0 0-2.744-5.175c-1.385-2.538-2.634-4.514-3.774-6.27-.768-1.194-1.523-2.319-2.235-3.403a94 94 0 0 1-2.607-4.103 251 251 0 0 0-20.652-25.619c-50.483-54.914-119.106-78.887-186.755-76.91a269.2 269.2 0 0 0-55.603 7.477c83.155-12.157 152.382 9.4 201.85 49.716" class="st0"/></svg>