<svg xmlns="http://www.w3.org/2000/svg" xml:space="preserve" id="Layer_1" width="720" height="720" x="0" y="0" version="1.1" viewBox="0 0 720 720"><style>.st0{fill:#fff}</style><path d="m632.415 194.718-.54-.772-.753-.566c-1.978-1.482-5.447-3.686-6.499-4.348a39 39 0 0 0-2.155-6.929l-.303-.726-.483-.621c-28.182-36.187-64.603-66.476-105.323-87.591l-.373-.177a55 55 0 0 0-15.136-4.107 40 40 0 0 0-13.522-8.625C447.755 64.153 406.006 56.07 363.28 56.107a315 315 0 0 0-25.712 1.204l15.545-20.89-11.242-.356C277.51 34.046 230.71 79.934 223.727 87.188a358 358 0 0 0-44.994 24.857c-20.693 7.122-37.73 22.439-47.014 42.238-8.77 7.35-22.343 25.004-25.707 29.447a108 108 0 0 0-11.428 8.918l-.39.383a130.76 130.76 0 0 0-31.8 60.763 7.75 7.75 0 0 0-.884 3.066c-.252 1.024-.386 2.03-.508 2.946-.109.82-.211 1.595-.378 2.262l-.13.695c-.237 1.896-.6 3.715-.986 5.64-.41 2.05-.834 4.17-1.124 6.494l-.125.998a174 174 0 0 0-5.597 19.62c-.438 1.873-5.34 16.397-9.826 29.357l-.098.313c-22.859 80.256 3.984 131 13.528 145.602 21.409 61.61 61.481 114.518 115.925 153.044 55.617 39.357 121.523 60.16 190.553 60.16.746.006 1.485.009 2.23.009 50.362-.001 100.718-11.878 145.762-34.4 45.712-22.856 85.93-56.66 116.31-97.76l.366-.494.254-.559a30.3 30.3 0 0 0 2.468-8.508c3.858-2.086 6.084-4.01 7.024-6.133 32.385-49.702 49.35-107.313 49.065-166.551.776-62.855-17.83-123.327-53.808-174.877" class="st0"/><path d="M627.597 198.081c-2.11-1.582-6.33-4.22-6.33-4.22a6.3 6.3 0 0 1-2.11-2.11 33 33 0 0 0-2.11-7.385A314.6 314.6 0 0 0 513.653 98.38a49 49 0 0 0-13.715-3.692 4.04 4.04 0 0 1-2.638-1.055 34.4 34.4 0 0 0-12.133-7.913 321.5 321.5 0 0 0-121.855-23.738 308 308 0 0 0-38.508 2.637l16.88-22.683c-66.466-2.11-114.47 50.114-114.47 50.114a351 351 0 0 0-45.894 25.32 75.17 75.17 0 0 0-44.838 40.62c-8.968 6.857-26.376 30.067-26.376 30.067a102 102 0 0 0-11.605 8.968 124.84 124.84 0 0 0-30.596 59.081 1.94 1.94 0 0 0-.527 1.583c-.528 1.583-.528 3.693-1.055 5.802-.528 4.22-1.583 7.913-2.11 12.133l.527-.527a2.3 2.3 0 0 1-.527 1.582 168 168 0 0 0-5.803 20.046c-.527 2.637-10.023 30.068-10.023 30.068-23.738 83.347 7.913 133.46 13.188 141.373 42.201 122.383 161.419 209.95 301.21 209.95 102.28.712 198.737-47.517 259.535-129.768a24.6 24.6 0 0 0 2.11-7.913 3.64 3.64 0 0 1 1.583-2.637c4.22-2.11 5.803-3.693 5.803-4.22a296.7 296.7 0 0 0 48.53-164.056 293.24 293.24 0 0 0-52.75-171.442"/><path d="M452.463 603.21c-154.561 7.386-192.542-66.466-192.542-66.466a27 27 0 0 0-1.583-2.638c2.638 1.055 49.059 16.88 93.37-23.738l-10.023-84.93-11.078 28.486a11 11 0 0 1-1.055-3.164c-.527-1.056-34.288-168.804-35.343-174.607 5.275 4.748 25.32 23.21 42.201 31.65 0 0 4.748 3.166 2.11.528 0 0-69.104-59.081-60.664-131.878 17.936 35.87 41.146 44.311 41.146 44.311l-29.013-103.92s-3.165-27.43 26.903-61.191c0 0 3.693-2.638-2.11-.527 0 0-47.476 10.55-76.49 50.64a113 113 0 0 0-3.692 28.486h-.527l-1.583 1.583c-.527.527-1.582 1.055-2.11 2.11a252.2 252.2 0 0 0-41.673 58.554c-23.732 45.881-36.39 109.16 22.11 167.701-4.504-.39-36.727-4.055-55.344-30.021 1.056 5.275 10.55 42.728 25.32 66.466-17.407-4.747-32.177-25.848-34.287-30.068 0-1.055-.528 0-.528 0 6.33 22.156 11.606 30.068 11.606 30.068 2.637 5.276 21.1 40.091 64.356 87.567h-.528c-56.443-5.274-75.961-25.32-75.961-25.32-.528-1.055-.528 0-.528.528a163 163 0 0 0 15.298 26.903c4.22 6.858 100.755 165.111 286.967 115.525a36.8 36.8 0 0 0 7.385-1.583c.273-.3.65-.489 1.055-.527.527-.528-3.165-.528-3.165-.528M308.979 462.892c3.693 0 6.858 3.165 8.968 7.913a89.8 89.8 0 0 1 6.33 17.935c1.055 5.275 2.11 10.55 2.638 14.77.527 2.638.969 5.4.516 11.09-20.573-63.83-25.31-11.09-25.31-11.09l-9.495-19.517c2.796-12.905 11.606-21.1 16.353-21.1M296.847 68.841l-.528.527c-15.825 20.046-18.99 36.398-19.518 40.091v1.055c-8.967-4.22-18.463 10.55-21.1 14.77-.528 1.056-.528 0-.528 0 8.968-46.42 40.091-55.916 41.674-56.443m-37.454 130.295v.528a140.6 140.6 0 0 0 16.353 53.279 11.7 11.7 0 0 0 2.11 3.692 32.25 32.25 0 0 1-21.743-9.088 44 44 0 0 1-2.39-2.422c-6.74-7.404-16.614-33.215 5.67-45.989m-29.013-10.023c.528-.527.528-1.582.528-.527a9.3 9.3 0 0 1-.528 3.165v1.583c-2.638 15.825-6.33 63.828 31.65 83.874a4.03 4.03 0 0 0 2.638 1.055c.528.527 1.055 1.055 1.583 1.055a32.3 32.3 0 0 1 6.33 2.638l2.638 11.077 4.747 20.573c-1.582-.527-88.094-36.926-49.586-124.493M210.862 363.72h.022a.517.517 0 0 1 .506.527s-.204-.014-.528-.042zm-16.88 15.298s16.353 11.077 29.54 6.33c0 0 42.729 93.37 49.586 106.557 0 0 0 1.055.528 1.055 0 0 0 .528-1.055-1.055-7.913-8.967-57.499-57.499-78.6-112.887" class="st0"/><path d="M502.049 506.148a304.3 304.3 0 0 1-5.275 58.554 11.29 11.29 0 0 1-7.386 6.858 298 298 0 0 1-59.608 6.33 181.2 181.2 0 0 1-49.587-5.803h-.022a.517.517 0 0 1-.505-.527c0-.528 0-.528.527-.528l46.949-37.98-23.738-88.623 6.33-59.609h1.055c11.078 3.165 15.825 17.408 18.463 31.124a118 118 0 0 1 2.638 23.21 152.6 152.6 0 0 0 16.353-65.411c0-24.266-7.913-37.981-12.133-43.784a19 19 0 0 0-2.11-2.637c-.528 0-.528-.528 0-.528 0-.527.527-.527 1.055 0 56.443 52.751 67.521 127.13 66.994 179.354M399.184 118.954v.528l.527-.528a53.5 53.5 0 0 1 8.968-3.165 96.8 96.8 0 0 1 24.266-3.165c15.855.01 31.453 4 45.366 11.605-7.385 3.693-42.201 21.1-50.114 41.674l.528.527s35.343 31.651 108.14 31.651a242 242 0 0 0 37.98-2.637 22.6 22.6 0 0 0 6.33-1.055c3.166-1.056 6.858-2.11 6.858-5.803a9.8 9.8 0 0 1-1.582-2.11S511.544 86.248 370.698 86.248h-3.165a2.74 2.74 0 0 0-2.11 1.056c0 1.055 1.055 1.582 2.11 2.11a257.4 257.4 0 0 1 31.65 29.54m214.17 366.094c-5.275-145.594-155.089-217.863-158.781-219.445-1.583-1.055-2.11-1.583-2.638-1.583h-1.055v1.055c0 1.055.528 1.055 1.055 2.11l1.583 1.583a102 102 0 0 1 18.463 34.815c1.582 7.386 2.637 13.188 3.165 15.826a67 67 0 0 0-26.903-16.88 7.1 7.1 0 0 0-2.638-.528h-1.055a1.84 1.84 0 0 0-.528 1.055l1.583 1.582c.4.056.77.241 1.055.528 59.609 57.499 72.269 131.878 72.269 185.157a295.4 295.4 0 0 1-3.692 49.058 148 148 0 0 1-3.693 19.518v2.638c0 1.583 0 2.637 1.055 3.165.528 1.055 2.11 1.055 2.638 1.055a6.7 6.7 0 0 0 3.165-1.055c52.75-16.353 88.094-60.664 89.677-62.247a20.4 20.4 0 0 0 5.275-14.77zm36.398-144.011c-4.22-59.609-27.958-109.195-47.476-130.823 0-.528-2.637-5.275-11.078-5.275h-2.11s-9.495 2.11-23.738 3.692a391 391 0 0 1-53.806 4.22c-20.573 0-41.146-2.11-57.499-8.44l-1.582-.527 1.055 1.582a56.4 56.4 0 0 1 2.637 15.298 47.97 47.97 0 0 0-35.87-16.353h-3.693l2.637 1.055a260 260 0 0 1 31.651 16.88c56.971 33.761 170.914 115.526 174.08 235.799 0 3.692.527 5.802 2.11 6.33 2.11 0 4.22-2.638 6.857-7.913 6.857-14.243 16.353-49.059 16.353-93.897 0-6.858 0-14.243-.528-21.628" style="fill:#007dc5"/><path d="M362.258 297.253c-3.165-21.628-14.77-86.512-53.806-170.914a127.7 127.7 0 0 1 24.265 16.88 206.3 206.3 0 0 1 45.894 55.917c.528.528.528.528 1.055.528l.528-.528s12.66-14.77 16.88-47.476c.9 3.652 1.605 7.35 2.11 11.078a222 222 0 0 1 3.165 37.98 248.5 248.5 0 0 1-21.1 101.283c4.747-16.88 15.825-64.357 15.825-107.612v-5.825a.517.517 0 0 0-.528-.505l-1.582.527s-3.165 9.495-6.33 19.518a104.5 104.5 0 0 1-11.606 23.21c-1.582-7.385-14.242-45.893-31.65-59.609h-1.055v1.055s4.747 16.353 8.967 39.036a452.6 452.6 0 0 1 8.968 78.072zm61.719-29.54a107 107 0 0 0-5.275-31.651c-.528 14.243-4.748 66.466-22.683 81.764a4 4 0 0 0 2.11-1.055 35 35 0 0 0 10.55-8.44 54.87 54.87 0 0 0 15.298-40.619m34.816-144.011a72 72 0 0 0-22.156-3.693 63.3 63.3 0 0 0-22.683 3.693q-6.33 2.373-7.913 3.165a161 161 0 0 1 7.913 18.463c13.188-20.046 35.344-21.628 44.839-21.628M327.43 514.599c.528-4.22 8.44-56.443-17.935-63.829 0 0-18.463-4.747-16.88 33.234.274-1.078 1.793-4.9 2.162-5.71 4.904-10.76 9.775-14.9 14.19-15.39 3.693 0 6.858 3.692 8.968 8.44a134.5 134.5 0 0 1 5.803 17.407 88 88 0 0 1 3.165 15.298 54.5 54.5 0 0 1 .527 10.023zm87.05 12.65-24.792-84.402 11.078-101.283-18.99 96.535 23.737 85.457-38.508 40.091zm132.934 66.994c-61.719 35.87-118.163 46.948-164.584 46.948-72.797 0-119.218-26.903-119.218-26.903C109.58 534.106 107.47 394.843 107.47 394.843a.517.517 0 0 1 .527-.527h1.055c19.518 38.508 43.784 51.168 54.334 55.388a19 19 0 0 0 3.693 1.583c-44.839-55.916-57.5-103.392-57.5-138.736 0-47.476 22.684-73.852 22.684-73.852l.527-.527a.517.517 0 0 1 .528.528 238 238 0 0 0-4.22 43.783 161.3 161.3 0 0 0 6.33 46.949 118 118 0 0 0 4.748 12.132 237 237 0 0 1-2.11-32.705 257.84 257.84 0 0 1 74.906-181.992c-10.022 4.22-21.628 14.77-31.123 24.793-10.55 10.55-18.99 21.1-18.99 21.1h-.528c-.528 0-.528 0-.528-.527a57.2 57.2 0 0 1 7.913-23.738 97.7 97.7 0 0 0-19.518 28.485 125 125 0 0 0-7.913 20.046v.527a219.3 219.3 0 0 0-33.233 51.697 166 166 0 0 0-9.495 24.793c-.527 2.11-1.055 3.165-1.055 3.692 0 0 0 .528-1.055.528s-.528-.528-.528-1.055v-.528c.028-1.074.205-2.14.528-3.165 0-20.045 8.44-41.673 11.605-50.113-23.21 24.793-29.013 59.081-29.013 85.984a192.3 192.3 0 0 0 5.275 45.366 338 338 0 0 0 5.803 51.169c3.693 15.825 6.33 27.43 6.33 27.43a22.6 22.6 0 0 1 1.583 5.276v.527h-.528c-1.055 0-1.055-.527-1.582-1.055-.528 0-.528-.528-1.056-1.583l-1.054-2.11c-16.88-25.32-24.794-66.466-26.376-76.489a21.6 21.6 0 0 0-.528 5.803c0 40.09 6.858 81.765 41.674 135.57 33.233 69.105 93.37 106.03 121.855 120.273a2221 2221 0 0 1 15.298 6.858 289.5 289.5 0 0 0 124.493 28.486 299.3 299.3 0 0 0 164.056-50.642c8.44-5.802 13.188-9.495 13.188-9.495l2.855-2.854c-.268.124-.543.217-.745.217zm-228.94-145.594L281.02 325.74l6.33 110.25c18.99-16.353 31.124 12.66 31.124 12.66m232.85 143.267c.432-.202.838-.513.838-.838zm-232.85-371.152-28.486-103.92v2.11l7.913 65.94c.36.831.54 1.73.527 2.637 0 3.692-2.11 8.44-20.045-10.023-.528-1.055-1.055-1.055-1.055-1.055 17.935 36.398 41.146 44.311 41.146 44.311m-68.05 18.99a34.2 34.2 0 0 1-3.692-15.297 32.8 32.8 0 0 1 12.133-24.793l.527-.528a169.5 169.5 0 0 1 0-26.376c-9.39 13.566-29.073 46.218-6.028 71.94-.17-.242-2.133-3.495-2.94-4.945" style="fill:#c4ced4"/></svg>