<svg xmlns="http://www.w3.org/2000/svg" xml:space="preserve" width="720" height="720" viewBox="0 0 720 720"><path d="M714.776 280.326H443.78L360 22.52l-83.78 257.806H5.224l219.277 159.337-83.785 257.816L360 538.137 579.284 697.48 495.5 439.663z" style="fill:#fff"/><path d="M684 290.327H436.515L360 54.88l-76.515 235.448H36l200.258 145.516-76.515 235.449L360 525.775l200.258 145.517-76.515-235.449zM468.792 446.654l57.962 178.56L374.95 514.888 360 504.001l-14.951 10.887-151.803 110.326 57.961-178.56 5.75-17.634-14.95-10.887L90.205 307.961h206.161l5.75-17.634 57.96-178.56 57.962 178.56 5.75 17.634H629.95L477.993 418.133l-14.95 10.887zm-22.157-125.046h-32.89l-4.37-13.57-5.75-17.634L360 156.08l-43.624 134.323-5.75 17.633-4.37 13.57H132.142l114.236 83.032 14.95 10.887 11.654 8.434-4.37 13.57-5.75 17.634-43.625 134.323 114.236-83.032 14.874-10.887L360 487.135l11.654 8.433 14.95 10.887 114.236 83.032-43.624-134.323-5.75-17.634-4.37-13.57 11.653-8.434 14.95-10.887 114.236-83.031z" style="fill:#024"/></svg>