<svg xmlns="http://www.w3.org/2000/svg" xml:space="preserve" width="720" height="720" viewBox="0 0 720 720"><path d="M655.91 378.897c-6.78-1.695-13.897-.339-13.897-.339s-1.695-3.39-6.44-6.44c-4.745-3.389-12.54-4.745-22.708-7.795s-19.32-11.185-19.32-11.185c2.034-2.372 8.474-12.202 8.474-12.202 2.372 1.017 10.507 3.729 15.93 3.729 5.762 0 13.218-1.356 13.218-1.356s13.218 5.084 23.386.678 13.897-13.896 13.897-13.896 5.762-3.39 9.151-9.83 2.034-11.523 2.034-11.523c4.067-7.796 3.728-15.591-.34-22.709-4.067-7.117-14.235-13.218-21.691-15.252s-14.235-1.017-14.235-1.017c-3.05-3.389-9.152-6.1-17.625-6.44-8.134 0-15.93 6.44-16.608 6.78 6.44-6.78 10.507-20.676 10.507-20.676 8.813-12.54 18.98-16.946 18.98-16.946s-16.268-16.947-29.487-25.081-26.097-13.219-26.097-13.219-4.068-11.524-10.507-16.269c-6.779-4.745-15.591-8.134-15.591-8.134-1.356-4.406-7.118-11.863-15.252-15.93s-19.658-6.1-35.588-12.201-47.112-27.793-47.112-27.793c-2.712 6.44-2.712 18.302-2.712 18.302-23.725 2.373-35.926 11.524-35.926 11.524 7.117 2.373 13.557 7.796 13.557 7.796-10.507-.678-24.742 1.355-37.96 7.456-13.22 6.1-23.387 18.98-27.793 24.064s-8.474 6.78-16.947 9.49c-8.473 2.373-19.658 3.39-19.658 3.39.678 6.779 7.456 17.624 7.456 17.624-8.812 13.897-8.134 28.47-8.134 28.47s-7.795 6.78-15.59 17.964c-7.796 11.185-7.457 23.048-7.457 23.048-3.39-.678-7.457-2.373-7.457-2.373-.339 16.27 7.457 30.843 7.457 30.843s-6.101 6.101-9.83 12.54c-3.728 6.44-9.829 17.286-9.829 17.286-2.711 2.712-18.98 15.93-18.98 15.93s-10.507 3.39-12.54 4.067c-2.373.678-9.83 3.05-16.27 6.78-6.1 4.066-22.369 20.335-22.369 20.335-27.453-6.1-31.86-22.708-35.249-36.266s-8.473-24.742-18.98-37.282c-10.507-12.541-26.098-19.32-26.098-19.32-3.05-10.168-9.151-17.624-16.947-22.03s-19.319-7.796-43.044.678C53.963 282.64 36 301.959 36 301.959c8.473.339 31.86 4.067 38.638 12.202 6.44 8.134 12.88 16.607 23.387 20.675 10.168 4.067 19.319 1.694 19.319 1.694 13.557 8.474 16.269 23.726 19.658 38.639s7.118 25.759 20.675 41.01c13.557 15.253 39.655 22.37 39.655 22.37s-.339 9.49-1.016 15.252c-.678 5.762-1.017 21.353-3.05 28.81s-6.44 12.54-10.169 15.59-11.185 9.152-12.54 18.98c-1.356 9.83 5.084 18.642 5.084 18.642 0 1.356-.678 30.165-1.017 33.555 0 3.389-3.728 16.946 9.49 29.487s30.504 5.084 30.504 5.084 7.795 1.694 14.913-2.034 10.168-10.846 10.168-10.846c2.373-1.694 11.185-7.456 10.168-23.386s-16.269-21.692-16.269-21.692l-.339-5.762c10.507-7.456 25.081-14.574 32.877-18.302s12.88-8.135 12.88-8.135c4.744 12.541 14.912 15.93 23.386 16.608s36.943-2.033 36.943-2.033 10.846 7.456 19.659 7.456 14.913-3.39 14.913-3.39 11.523 2.034 20.336-2.033c9.15-4.067 11.523-11.862 11.523-11.862s4.407-2.034 8.474-9.83c4.067-7.795 2.033-17.285-3.728-26.097s-17.286-12.88-17.286-12.88c7.795-2.711 16.947-9.151 21.692-17.963s7.456-25.081 7.456-25.081c9.83-.678 21.353-5.423 27.454-8.474 6.1-2.711 25.759-13.557 25.759-13.557 6.44 5.084 9.829 15.252 9.829 15.252 22.708-1.017 30.165-4.745 30.165-4.745 12.88 7.456 41.35 13.218 54.23 13.557 12.879.678 19.657 4.067 19.657 4.067s7.118 10.846 17.964 14.236c10.507 3.389 18.641 2.372 18.641 2.372s7.118 5.423 16.947 3.728 13.896-6.778 13.896-6.778 7.118-.34 11.863-5.084c4.745-4.745 7.456-12.88 7.456-12.88s5.084-3.05 7.118-11.862c2.034-8.474-1.017-17.625-6.1-24.743-6.78-5.761-14.575-11.184-21.354-12.879" style="fill:#b0b7bc"/><path d="M667.772 397.2c-8.473-8.813-13.218-9.83-17.964-10.169s-12.201 1.356-12.201 1.356c-2.373-7.456-9.151-11.185-12.202-11.863-3.05-.677-8.812-1.694-20.336-6.44-11.524-4.744-23.047-15.93-23.047-15.93 2.711-3.05 14.574-19.657 16.268-22.03 1.695-2.372 3.39-3.39 3.39-3.39s7.456 5.763 14.574 6.44c6.779.34 16.608-1.694 16.608-1.694s10.168 5.084 18.302 2.372 11.524-12.879 11.524-12.879 5.762-2.373 7.795-6.779.678-10.507.678-10.507c7.457-9.49 1.695-16.607-4.406-21.691-6.1-4.745-13.557-6.44-17.963-6.101-4.068.339-8.474 0-8.474 0-1.017-1.695-4.745-5.423-9.829-6.101s-11.185 2.034-12.88 4.067c-2.033 1.695-5.761 4.067-5.761 4.067s-3.39-1.694-8.474-3.05-11.184-1.356-11.184-1.356v-2.372s7.795-3.05 12.88-10.507c5.083-7.457 8.133-17.964 8.133-17.964 2.712-3.728 13.219-12.201 13.219-12.201s-10.507-10.168-18.302-15.93c-7.796-5.762-24.743-13.219-26.437-13.896s-3.39-1.695-4.407-3.39c-1.016-1.694-2.033-4.406-2.71-6.44s-5.085-7.456-9.152-9.49-14.235-6.44-14.235-6.44c-2.373-11.184-12.88-15.251-18.98-17.285-6.101-2.034-24.404-8.134-34.233-12.202-9.49-4.406-30.504-19.319-30.504-19.319-1.356 4.745-1.695 13.219-1.695 13.219-12.201-1.017-25.08 3.05-25.08 3.05 5.761 2.373 12.2 9.83 12.2 9.83-3.388 1.355-12.2 6.778-12.2 6.778s-17.286-2.034-34.233 4.067c-16.947 6.1-30.843 25.42-30.843 25.42s-5.762 5.084-13.218 7.457c-7.457 2.372-17.625 3.389-17.625 3.389 1.017 5.423 6.44 12.201 6.44 12.201s-5.084 6.78-7.796 15.252c-2.711 8.474-2.033 17.286-2.033 17.286-12.202 10.507-21.353 24.064-23.048 32.538s1.695 14.235 1.695 14.235c-2.711.339-6.779-.678-6.779-.678 0 10.507 7.118 18.641 7.118 18.641s-7.796 9.83-10.846 14.236-13.218 22.37-13.218 22.37c-3.39 2.71-21.353 17.963-21.353 17.963s-10.168 3.389-12.88 4.067c-3.05.678-9.829 2.372-15.93 6.44-6.1 4.067-23.725 22.708-23.725 22.708-6.44-.339-18.302-3.39-28.47-10.507s-16.608-23.386-18.642-31.52-5.084-20.337-15.93-33.216c-10.506-12.88-28.809-20.675-28.809-20.675s-1.356-12.202-10.168-19.32c-8.812-7.117-23.047-5.761-35.927-2.033s-31.86 16.947-31.86 16.947c3.05 0 18.98 2.372 24.743 6.779 5.761 4.406 11.862 16.946 22.708 21.691s19.32.678 19.32.678c15.93 8.135 20.674 21.014 24.741 37.622 3.729 16.607 6.101 29.148 19.659 44.739s43.722 22.37 43.722 22.37c-1.695 6.44-2.372 29.487-2.711 36.943-.34 7.118-2.373 16.608-4.745 23.387-2.373 6.778-7.457 10.168-11.185 13.557-4.067 3.39-8.474 8.473-9.151 12.54-1.017 4.407 2.372 10.846 4.067 13.558 1.355 2.711 1.355 4.745 1.355 6.779s-1.355 32.198-1.355 40.672 6.778 16.607 14.913 18.302c8.134 1.695 15.59-2.034 15.59-2.034s5.763 2.034 11.186-.339c5.422-2.033 7.456-9.49 7.456-9.49 7.118-2.711 7.796-9.49 8.134-14.913 0-5.762-2.711-9.829-5.761-12.54-3.05-2.712-10.168-4.067-10.168-4.067-.34-1.695-.678-16.608-.678-16.608s4.745-4.745 12.88-9.49c8.134-5.084 23.386-11.863 30.842-16.27 7.118-4.405 11.185-10.167 13.896-15.59 3.05-5.084 10.507-20.675 10.507-20.675s5.084 2.372 6.779 3.728c1.695 1.017 1.356 3.05.678 4.067s-5.084 6.44-8.135 10.507c-3.05 3.729-7.456 13.558-4.406 19.658 3.39 6.101 8.474 9.83 16.27 9.83s32.876-2.034 35.248-2.034c2.373 0 3.728.678 5.084 1.356s9.83 6.1 16.269 5.762c6.44-.34 11.524-3.729 11.524-3.729s11.185 2.034 17.963-.339 8.135-10.168 8.135-10.168c5.423-2.711 8.812-6.778 9.15-12.54.34-5.762-3.727-12.88-11.523-18.642s-17.285-3.728-20.675-2.711c-3.39 1.356-8.134 3.728-10.507 4.067-2.711 0-11.185-2.033-11.185-2.033 3.05-2.712 9.83-8.474 15.252-11.185 5.762-2.712 12.202-4.406 17.625-6.44s14.574-7.118 17.625-11.185c3.389-4.067 7.117-16.608 8.473-22.708 1.356-6.44.339-10.168.339-10.168 2.372-.34 18.641-1.695 27.792-6.101s34.91-18.641 34.91-18.641c11.863 7.117 15.591 17.624 15.591 17.624 11.185 0 25.082-6.44 25.082-6.44 9.15 6.779 36.943 14.236 51.178 14.574 14.236 0 28.132 5.762 28.132 5.762s3.728 7.796 11.863 11.863 20.675 3.05 20.675 3.05c3.05 2.373 9.49 5.762 15.59 3.729 6.101-1.695 8.474-6.101 8.474-6.101s6.1.678 10.168-3.05c4.406-4.068 4.745-11.185 4.745-11.185s5.084-3.05 6.44-6.779c1.017-5.423 3.05-13.218-5.423-22.03" style="fill:#fff"/><path d="M657.604 417.535s1.017 9.152-2.373 11.185c-3.389 2.373-9.49-1.017-9.49-1.017s-.339 6.44-5.084 8.135-10.507-4.067-10.507-4.067-11.185 2.033-18.98-1.695c-7.796-3.39-9.49-10.507-9.49-10.507s-12.54-5.762-24.742-7.118c-10.507-1.016-33.216-2.372-52.535-11.523 7.795-4.745 19.658-12.202 28.81-19.658 8.812-7.457 16.946-15.252 22.03-20.336 5.762 5.422 14.574 12.54 21.692 15.59 11.862 5.423 20.675 7.796 24.403 8.474s6.779 4.745 7.795 7.117c1.017 2.373 4.745 5.762 9.49 5.423 4.407-.339 10.169-3.05 15.591 0 5.085 3.05 10.169 9.152 10.846 13.219 1.017 4.067-3.728 6.778-7.456 6.778m-88.8-63.041s-27.793 27.792-52.535 41.35c0 0-11.524 5.423-20.675 6.778 0 0-7.118-13.557-21.353-17.624 0 0-30.165-11.524-73.549-2.373 0 0 41.35-3.05 62.025 8.813-9.49 5.084-22.37 12.201-29.148 14.913-11.524 4.406-26.776 4.067-32.538 5.084 0 0 3.05 10.168 2.712 13.557-.34 3.05-3.39 19.32-9.151 23.725-5.423 4.406-19.659 9.151-27.115 11.524-7.457 2.711-23.725 12.88-29.148 27.115 0 0 19.319 4.067 24.403 4.745s10.168-2.373 13.557-3.729c3.39-1.694 8.135-2.711 12.88.34s7.117 7.117 8.134 10.167-2.711 6.101-8.473 7.118c0 0 .678 6.779-3.05 8.473-3.729 1.695-12.202.678-17.286-1.016 0 0-3.05 4.406-9.83 4.406-6.778 0-11.184-7.118-18.302-7.457-7.117-.339-29.487 2.712-37.282 2.034-8.135-.678-8.813-5.423-7.118-10.168 1.695-4.406 11.524-14.574 13.218-18.98 1.356-4.068 2.712-10.846-13.557-17.286.678-1.017 12.202-15.252 30.504-26.098 17.963-10.846 35.588-20.675 56.263-27.454-8.473.678-21.353 4.068-37.96 10.846-25.082 10.507-39.656 24.404-39.656 24.404s1.695-7.118 23.726-26.776h-.34c-29.826 13.557-42.366 44.061-42.366 44.739-3.728 7.795-14.235 28.47-17.964 32.538-4.745 5.084-18.302 10.168-28.47 15.93-10.168 5.761-23.047 13.218-24.403 17.963-1.695 4.745.339 26.776 1.017 28.131 0 0 11.184 1.017 13.557 3.729 2.373 3.05 2.034 8.812.678 10.168-1.356 1.694-6.101 1.694-6.101 1.694s.339 6.44-3.05 8.474c-3.05 2.033-10.168-1.017-10.168-1.017s-2.034 3.05-6.78 3.39c-4.744.677-8.472-1.357-10.506-4.746-2.373-3.39-1.356-8.473-1.356-12.202s1.695-30.842 1.017-37.282-6.1-10.846-5.084-15.252c1.017-4.067 12.88-10.846 16.608-17.964s7.456-16.607 8.473-32.876c1.017-16.608 1.017-31.521 3.39-39.994l1.016-3.05c-10.507-2.034-32.876-8.135-43.383-17.286-11.863-10.168-16.947-20.675-19.658-33.894-2.373-13.218-7.796-28.47-13.219-37.96-5.762-9.83-22.708-18.98-22.708-18.98s-7.796 6.1-17.964.677c-11.185-6.1-12.54-10.168-16.269-15.252-3.389-4.745-10.506-6.1-12.201-6.44 23.725-9.15 35.249 3.39 35.249 3.39s-.678-6.44-9.83-8.812c-2.71-.678-6.1-1.695-9.828-2.034 1.694-.678 3.39-1.356 4.745-1.695 4.067-1.016 13.557-2.033 20.675 2.712 6.778 4.406 9.151 17.963 9.151 17.963 3.39 2.034 22.709 11.524 28.81 19.658 6.44 8.135 10.845 16.27 13.557 27.115s6.44 26.776 22.708 39.994c12.202 10.168 30.504 12.54 38.3 13.219.339-.34.678-1.017 1.017-1.356 5.422-7.118 22.03-22.709 26.775-24.742 4.745-2.373 24.065-7.118 26.437-9.49 2.373-2.373 21.353-17.286 23.048-19.658 1.694-2.373 10.168-17.625 15.59-25.42 5.084-7.796 17.964-22.031 17.964-22.031s-10.846-.34-13.896-5.084c0 0 11.862-5.423 12.88-11.863.677-4.067-2.034-6.778-10.169-3.39 0 0 1.017-7.795 7.796-17.285 6.778-9.829 19.658-20.336 24.742-24.064 6.44-4.745 8.812-10.507 7.117-13.896s-8.812-3.729-13.557 2.033c0 0 4.406-13.557 12.88-19.319 0 0-6.101-1.356-8.474-6.1 0 0 9.49.338 15.93-3.39 6.44-3.39 23.386-14.235 29.826-14.574 0 0-5.084-2.712-13.218.339 0 0 12.201-14.913 31.182-17.625 18.98-3.05 35.927 2.373 43.383-1.356 0 0-3.39-4.406-11.862-4.406 0 0 10.506-6.1 16.946-6.1 0 0-5.423-6.44-13.218-9.49 0 0 16.946.677 23.047 3.389 0 0-4.067-4.745-3.39-10.168 0 0 12.88 11.523 31.86 17.963s30.505 8.812 33.894 13.896 1.356 8.135 1.356 8.135 13.896 5.762 18.641 8.473 6.779 8.474 7.457 10.507c.677 2.034 3.728 7.457 6.44 8.474 2.71 1.016 16.946 7.117 24.402 11.862 7.796 4.745 15.252 11.524 15.252 11.524s-7.456 4.067-9.15 7.795c-1.695 3.39-4.746 20.675-18.642 25.081 0 0 4.067-7.117 1.017-14.235 0 0-16.608-1.017-28.132 6.101 0 0-2.033 13.896 5.423 17.625s15.93-7.796 16.947-10.507c0 0-.34 6.44 0 10.846 0 .338 2.034 0 2.034.338.338 4.746-.34 11.185-.34 11.185s5.424-4.067 14.575-2.711c9.15 1.694 11.185 4.406 14.235 4.406s8.812-3.728 10.507-5.762c2.033-2.034 5.084-3.39 8.134-2.372 3.05 1.016 4.406 5.422 4.406 5.422s10.846 1.017 14.575.34c3.389-.678 10.507 3.389 12.54 4.744 2.034 1.695 4.067 4.068 3.39 6.101s-5.085 4.745-5.085 4.745 2.712 5.084 2.373 8.474c-.339 3.389-7.118 4.406-7.118 4.406s-2.372 8.812-6.44 10.846c-4.067 2.372-16.268-2.712-16.268-2.712s-7.118 2.712-15.252 2.373c-8.135-.34-12.54-6.44-12.54-6.44s-6.102-1.017-10.847 3.39c-5.423 6.1-15.252 24.741-25.42 33.554m-31.86-144.725s9.829 2.034 12.54 4.067c2.712 1.695 10.846 8.135 10.846 8.135s-2.034-2.712-1.695-4.067c.678-1.356 4.068-6.44 4.068-6.44-4.068-.34-10.169-4.067-12.88-4.067s-12.88 2.372-12.88 2.372m-131.846 41.35s21.692-8.473 44.74-6.1c23.047 2.372 44.739 19.657 44.739 19.657s-12.88-21.691-41.35-26.775q-5.592-1.017-10.168-1.017c-23.386.339-37.96 14.235-37.96 14.235m19.659 25.081c11.523-5.762 27.114-10.846 47.79-7.795 0 0-11.525-4.745-26.776-4.745-9.152 0-19.659 1.694-30.166 7.117-27.453 14.574-40.672 22.37-68.464 23.387 0 0 15.93 7.117 35.927 2.372 19.658-4.406 31.52-15.252 41.689-20.336m143.707 17.964s-13.218-7.118-23.047-7.796c-8.473-.339-13.896 8.812-14.574 17.964-6.779 4.067-16.608 6.1-16.608 6.1v-.338c.339-1.356 1.356-12.541-11.863-19.32-7.117-3.728-17.285-6.44-29.826-6.778-12.201 0-26.437 2.711-41.35 10.845 29.488-11.184 60.67-5.084 69.82 4.746 11.524 12.201 3.39 23.725 3.39 23.725 11.863-2.034 45.756-14.235 64.058-29.148" style="fill:#0076b6"/></svg>