<svg xmlns="http://www.w3.org/2000/svg" xml:space="preserve" width="720" height="720" viewBox="0 0 720 720"><path d="M360 36C181.06 36 36 181.06 36 360s145.06 324 324 324 324-145.06 324-324v-.121C683.967 180.972 538.907 35.967 360 36" style="fill:#b5b3b3"/><path d="M360 45.337C186.217 45.337 45.337 186.217 45.337 360S186.217 674.662 360 674.662 674.663 533.783 674.663 360v-.075C674.642 186.163 533.763 45.317 360 45.337" style="fill:#1d428a"/><path d="M359.888 91.687C211.67 91.72 91.544 211.897 91.575 360.112 91.606 508.33 211.785 628.456 360 628.425S628.344 508.215 628.313 360v-.055C628.266 211.744 508.088 91.64 359.888 91.687" style="fill:#c8102e"/><path d="M360 91.687C211.815 91.687 91.688 211.815 91.688 360S211.815 628.313 360 628.313 628.313 508.185 628.313 360C628.138 211.887 508.113 91.862 360 91.687m0 15.413c104.282.129 197.826 64.159 235.687 161.325-45-61.537-133.762-103.5-235.687-103.5s-190.8 41.963-235.687 103.5C162.147 171.238 255.708 107.197 360 107.1m0 505.912c-104.282-.128-197.826-64.158-235.687-161.324 45 61.537 133.762 103.5 235.687 103.5s190.8-41.963 235.688-103.5C557.8 548.833 464.272 612.85 360 613.012M611.55 385.65C594 473.737 487.912 541.8 359.888 541.8c-128.026 0-234.113-67.95-251.663-156.15-.562-5.85-.9-11.7-1.013-17.775H156.6v-15.75h-49.388c.225-5.962.45-11.925 1.126-17.775C125.775 246.262 231.975 178.2 360 178.2s234.112 67.95 251.662 156.15c.563 5.85.9 11.813 1.125 17.775H563.4v15.75h49.275c-.225 5.963-.45 11.925-1.125 17.775M246.6 367.087h18.9v85.163h-18.9zm72.9.45a19 19 0 0 1 0 3.6 12.5 12.5 0 0 1-1.575 4.5 7.81 7.81 0 0 1-7.087 4.276h-14.85v4.837c0 5.738 4.95 8.213 9.45 10.35 1.125.45 2.362 1.125 3.487 1.688a28 28 0 0 1 3.038 2.025 7.48 7.48 0 0 1 3.262 5.737c.338 5.963.338 34.537-.225 38.7-1.912 5.4-6.75 8.55-13.95 8.887h-20.587l-.113-11.362h15.638l-.113-30.712a2.26 2.26 0 0 0-1.237-1.013l-1.013-.337c-.225 0-.337-.113-.563-.113-5.512-1.687-11.362-4.387-13.95-11.7-1.574-4.5-.225-20.475-.225-20.7q.01-.735.113-1.463c.9-4.95 4.5-7.65 10.238-7.65h1.012c3.713-.112 23.175 0 28.462 0h.563zm86.512-.562a47 47 0 0 0-12.262 1.125c-9.338 2.25-13.837 8.438-13.837 19.012v50.738c0 12.937 9.337 15.637 23.287 15.637 16.875 0 26.55-5.962 26.55-16.424v-52.876c0-17.212-10.913-17.212-23.738-17.212m4.388 62.55a31 31 0 0 1-.113 3.15 12.3 12.3 0 0 1-.337 2.925l-.338.337c-1.125.113-2.25.226-3.375.226a6.98 6.98 0 0 1-5.062-1.576c-1.463-1.574-1.575-4.162-1.463-7.2v-36c0 .226 0-3.824.113-5.174a29 29 0 0 1 .562-5.288l.338-.338q1.342-.202 2.7-.225h.338c6.412.113 6.637 2.026 6.637 13.613zm63.45-62.438h19.462v85.276h-19.574L460.35 418.05v34.313h-19.237V367.2l.45-.113c.854-.151 1.72-.226 2.587-.225 5.962 0 20.475 3.6 29.588 36.45h.112zm-250.425-.112-47.925.112h-.562v.563a12.51 12.51 0 0 0 10.8 12.487v72.226h19.687v-36.226h16.537c8.776 0 13.725-5.737 13.725-15.75v-3.037c0-24.3-1.012-29.138-12.262-30.375m-7.65 37.912h-10.687v-24.75s5.85-.112 6.637 0c2.137.226 4.05 1.126 4.05 3.6.113.788 0 21.15 0 21.15m113.85-37.8h44.438v.563a13.8 13.8 0 0 1-3.263 9.563 10.52 10.52 0 0 1-8.212 3.15h-.676v72h-19.575v-71.888h-12.712zm215.55.45a19 19 0 0 1 0 3.6 12.6 12.6 0 0 1-1.575 4.5 7.81 7.81 0 0 1-7.087 4.276h-14.85v4.837c0 5.738 4.95 8.213 9.45 10.35 1.125.45 2.362 1.125 3.487 1.688a28 28 0 0 1 3.038 2.025 7.48 7.48 0 0 1 3.262 5.737c.337 5.963.337 34.537-.225 38.7-1.912 5.4-6.75 8.55-13.95 8.887h-20.587l-.113-11.362h15.637l-.112-30.712a2.26 2.26 0 0 0-1.237-1.013l-1.013-.337c-.225 0-.337-.113-.562-.113-5.513-1.687-11.363-4.387-13.95-11.7-1.575-4.5-.225-20.475-.225-20.7q.01-.735.112-1.463c.9-4.95 4.5-7.65 10.238-7.65h1.012c3.713-.112 23.175 0 28.463 0h.562zm-174.487-53.1h3.262c3.15.113 8.437 1.013 8.437 6.75 0 2.7.225 11.25.338 14.4v1.238c.052 1.807.202 3.61.45 5.4 1.35 4.95 5.175 7.987 11.25 8.55h5.512V320.4a16.4 16.4 0 0 0-3.487-8.887l-.45-.563a16.42 16.42 0 0 0 4.275-12.15v-2.925c0-23.513-.9-28.237-11.925-29.475h-36.675v83.25h19.012zm.112-34.762h3.825c4.95.112 6.862.112 6.637 8.887 0 6.975 0 7.426-.112 10.913v.675a4.75 4.75 0 0 1-1.013 2.812 2.22 2.22 0 0 1-1.575.675H370.8zm117.676 70.087h-18.563v-83.25h18.563zm-177.639-70.087h-12.374v-13.05h43.312v.563a13.5 13.5 0 0 1-3.15 9.337 10.77 10.77 0 0 1-8.1 3.038h-.675v70.312h-19.013zm199.688-.112H498.15v-13.05h43.313v.562a13.5 13.5 0 0 1-3.15 9.337 10.43 10.43 0 0 1-8.1 3.15h-.675v70.313h-19.013zm-222.075 70.2h-38.476l.114-83.252h38.362v12.827h-19.913v18.787h13.726v18.001h-13.726v20.248h19.913zm-62.55-83.25h-47.475l-.113.562a12.58 12.58 0 0 0 2.475 8.663 11.75 11.75 0 0 0 8.888 3.824v70.088H225c8.1 0 13.5-6.863 13.5-16.988v-38.587c0-21.375 0-27.113-12.6-27.562m-6.638 69.862h-10.575v-56.812a27.7 27.7 0 0 1 7.988.337c2.475 1.012 2.362 5.513 2.362 5.625.788 6.638.338 45.675.225 50.85m240.525-1.238v-51.75c0-16.874-10.912-16.874-23.512-16.874a47.4 47.4 0 0 0-12.263 1.125c-9.225 2.137-13.724 8.324-13.724 18.562v49.613c0 12.712 9.225 15.3 23.062 15.3 16.762 0 26.437-5.85 26.437-15.976m-19.35-7.2a27 27 0 0 1-.112 3.038 11.4 11.4 0 0 1-.338 2.813l-.337.337c-1.125.113-2.25.225-3.375.225a6.25 6.25 0 0 1-4.95-1.575c-1.463-1.575-1.575-4.05-1.463-6.975v-35.213c.113 0 .113-3.824.113-5.174.025-1.74.213-3.472.562-5.176l.338-.337c.893-.14 1.796-.216 2.7-.225h.337c6.413.112 6.525 2.025 6.525 13.388z" style="fill:#fff"/></svg>