<svg xmlns="http://www.w3.org/2000/svg" xml:space="preserve" width="720" height="720" viewBox="0 0 720 720"><path d="M588.884 209.937c-61.01-40.548-143.242-62.526-230.779-62.526C183.411 147.41 36 245.179 36 361.137c0 120.505 138.695 211.452 322.105 211.452 107.242 0 208.8-37.515 272.085-100.8C665.053 436.926 684 397.516 684 361.137c-.379-57.221-34.105-111.032-95.116-151.2" style="fill:#ffb612"/><path d="M358.105 157.263c-166.358 0-312.631 95.116-312.631 203.874 0 53.81 30.694 104.21 86.779 141.726 57.979 38.653 137.936 59.874 225.473 59.874 104.59 0 203.495-36.758 264.885-97.769 32.968-32.968 50.778-69.726 50.778-103.831 0-112.548-141.347-203.874-315.284-203.874" style="fill:#203731"/><path d="M634.358 349.39H308.842l.758 48.884 187.579-.38c-24.632 37.517-78.063 65.938-144 65.938-109.895 0-160.674-52.674-160.674-112.927s72-109.137 160.674-109.137c64.8 0 119.747 25.769 144.758 63.285h122.4C582.82 237.6 479.747 187.579 358.105 187.958c-145.894.758-277.39 79.579-277.39 173.179s124.296 169.768 277.39 169.768 277.39-76.168 277.39-169.768c0-4.169-.758-7.958-1.137-11.748" style="fill:#fff"/></svg>