<svg xmlns="http://www.w3.org/2000/svg" xml:space="preserve" width="720" height="720" viewBox="0 0 720 720"><path d="M514.27 164.95c138.536 105.698 33.181 121.433-75.253 136.825 0 0-45.836-12.656-124.853-51.993C134.58 160.503 191.02 118.43 332.294 93.117 106.19-5.397-81.947 165.977 125.686 332.561l-57.124 40.706C115.425 402 212.229 462.203 198.205 554.56l-48.231 34.548 147.087 66.703 115.96-52.678c.683-50.967 92.014-77.648 131.351-181.635 216.526-49.6 161.454-239.787-30.101-256.548" style="fill:#fff"/><path d="M415.415 311.353C143.817 206.682 126.029 120.824 295.35 91.065c-211.737-57.81-335.563 95.777-125.879 242.18l-56.098 40.364c59.86 40.021 123.143 98.856 101.593 191.897l-28.392 20.182 108.776 49.257c101.251-110.829 154.27-218.578 120.065-323.592m-68.413 168.98-41.732-47.547-47.889 7.183 22.235-36.6-41.732-47.206 55.414 24.971 21.892-36.6 11.972 51.993 55.415 24.97-47.89 7.184z" style="fill:#03202f"/><path d="M552.924 181.37c93.041 72.859 28.391 119.38-85.174 132.036 28.734 121.09-59.519 231.918-152.56 317.776l85.516-38.653c6.157-49.257 93.041-74.912 134.089-184.03 193.265-42.758 161.796-181.293 18.129-227.13" style="fill:#a71930"/></svg>