<svg xmlns="http://www.w3.org/2000/svg" xml:space="preserve" width="720" height="720" viewBox="0 0 720 720"><path d="m443.833 337.018.696-57.974c0-27.16-28.378-31.687-49.27-31.513 13.928-4.7 30.816-12.535 43.003-25.767 12.883-11.838 21.936-28.552 20.37-51.881-2.612-39.347-51.882-58.846-133.361-51.012a31 31 0 0 1-4.004.349A420.4 420.4 0 0 0 302.464 36l-4.005 4.004a547.5 547.5 0 0 0-21.066 85.309 649 649 0 0 0-82.697 19.5l-4.004 4.004s39.346-3.482 84.09-2.96c-5.05 51.011.174 99.411 0 190.814-72.426-2.09-135.972 9.923-151.467 29.423-5.05 4.178-7.835 8.879-7.66 13.753.87 22.111 66.68 42.48 159.127 50.315l4.004 125.7 4.005-4.004 6.441-85.309a11.6 11.6 0 0 1 .522-3.656c1.916.348 3.83 2.786 3.83 7.138l2.786 112.295 4.005-4.005 6.964-91.402a20.4 20.4 0 0 1 .522-5.05c1.915.35 3.83 3.135 3.656 8.358l3.134 116.995 4.004-4.004 5.571-170.27a992 992 0 0 0 32.557.522q17.497 0 34.472-.522l5.571 177.582 4.004-4.005 4.701-92.969c-.04-1.583.137-3.164.522-4.7 1.741.348 3.482 3.133 3.482 8.008l4.875 130.4 4.004-4.003 4.875-112.643c.016-1.363.251-2.716.696-4.004 2.264 0 4.701 2.785 4.701 8.182L432.69 684l4.005-4.005 5.92-250.007c79.04-6.964 139.105-22.807 154.078-41.262 4.874-4.178 7.66-8.53 7.66-12.883-1.044-24.026-74.34-42.828-160.52-38.825m-169.747 63.373v3.656c-63.373-6.093-106.201-18.977-106.201-35.168a6.7 6.7 0 0 1 1.044-3.482c14.799-10.446 60.413-17.062 106.027-23.852 0 17.933-.348 37.432-.87 58.846m129.182-214.665c2.437 17.932-2.786 31.512-12.013 41.784-16.54 14.972-42.48 21.762-63.547 24.896.348-33.775-.174-68.943-3.133-103.415 40.739 4.352 75.733 14.624 78.693 36.735m-12.013 221.803c-9.924.348-20.022.523-30.468.523-12.187 0-24.2-.175-35.69-.697l.522-14.45c-1.044-36.561 1.219-82.524 1.915-131.62 29.771 3.482 65.462 11.839 64.94 32.73zm157.734-28.204c-14.798 11.665-53.97 20.718-105.852 25.245l.696-62.328c59.368 7.66 107.594 16.365 107.594 30.641a11.03 11.03 0 0 1-2.438 6.442"/><path d="m443.833 337.193.696-57.975c-.174-35.865-49.27-32.383-65.81-30.12 19.326-3.482 83.917-19.673 79.913-78.867-2.612-39.347-51.882-58.846-133.361-51.011a31 31 0 0 1-4.004.348 420.4 420.4 0 0 0-18.803-83.22c-11.317 35.168-17.933 62.85-21.589 88.617a628 628 0 0 0-86.18 20.196s39.347-3.482 84.091-2.96c-5.049 51.708.174 100.804 0 194.992-85.657-2.96-159.998 13.58-159.127 38.998.696 22.11 66.68 42.48 159.127 50.315l4.005 125.7 6.441-85.309c.174-10.62 8.183-9.575 8.183-.522l2.96 112.295 6.964-91.403c-.175-12.361 8.53-11.665 8.182-.697l3.134 116.995 5.571-174.447c11.839.348 24.026.696 36.387.696q17.497 0 34.472-.522l5.571 177.582 4.7-92.97c0-11.839 8.01-11.316 8.01-.696l4.874 130.4 4.875-112.642c.348-11.142 9.227-10.62 9.401 0l4.005 149.204 5.919-253.49v-.174c94.014-7.835 161.913-28.204 161.913-50.315-1.044-24.374-74.34-43.176-160.52-38.998M278.09 396.387l.174 8.183c-65.81-6.094-110.38-19.151-110.38-35.69 0-14.974 55.539-22.982 111.076-31.339 0 17.932-.348 37.432-.87 58.846m129.182-214.665c6.616 49.096-43.525 65.287-79.564 70.684a1069 1069 0 0 0-3.482-107.942c42.48 4.179 79.912 14.276 83.046 37.258m-12.013 225.807q-16.713.523-34.472.523c-12.187-.175-24.026-.349-35.69-.697l.522-14.45c-1.044-37.78 1.393-85.31 1.915-135.972 30.294 3.133 69.466 11.316 68.77 33.253zm47.878-2.96.87-66.854c61.11 7.835 111.424 16.714 111.424 31.164 0 16.54-45.962 29.771-112.294 35.69" style="fill:#ce1141"/></svg>