<svg xmlns="http://www.w3.org/2000/svg" xml:space="preserve" width="720" height="720" viewBox="0 0 720 720"><path d="M164.469 72.077 36 654.23h254.242s28.3-115.892 30.545-126.223h110.052c82.651.45 150.03-27.4 195.398-80.854 83.1-90.287 68.726-221.9 6.289-297.364a231 231 0 0 0-181.024-84H165.816z" style="fill:#bec0c2"/><path d="M302.37 505.097 271.825 631.32H64.748L184.233 89.596h266.82a207.33 207.33 0 0 1 163.505 75.913c59.293 71.421 65.133 190.457-5.84 267.269-43.571 50.758-107.805 73.667-177.88 72.769z" style="fill:#002d62"/><path d="M273.172 213.572h-116.79l1.798-13.026h191.355c39.529 0 85.347 11.678 116.34 31.893 31.444 19.764 43.572 33.24 73.219 33.24 4.492 0 4.941 1.347 5.839 6.288a72 72 0 0 1 1.348 15.272c0 2.247-2.246 3.594-6.738 3.594h-238.52c-5.39 0-15.273-5.84-14.374-14.374a169.4 169.4 0 0 1 8.535-34.588c5.839-17.518-8.535-28.299-22.012-28.299m17.519 124.876a204 204 0 0 0 10.332 29.197c23.806 45.818 104.212 20.663 126.222 14.374 19.765-5.84 56.15-28.3 72.77-41.326a65.6 65.6 0 0 1 36.384-9.882c3.593 0 7.636 1.347 8.085-4.043.449-4.94 1.797-13.026 1.797-17.518.449-4.492.898-6.289-2.695-6.289l-406.518-.449-3.594 13.925h125.325c18.417 0 29.198 9.882 31.892 22.01m248.852 10.78c2.246-7.637-2.246-7.187-7.636-6.738-17.968 1.348-36.834 17.519-61.54 33.69-25.155 15.271-75.014 30.544-123.077 30.544H114.609l-3.145 12.129h212.018a38.4 38.4 0 0 1 23.808 7.187 193.7 193.7 0 0 0 66.03 32.79c10.781 3.594 30.096-.898 47.165-10.331 42.224-24.256 69.625-69.625 79.058-99.27M336.509 187.07c5.84 0 55.25 1.797 82.65 10.332a253.2 253.2 0 0 1 69.177 33.241c22.459 14.374 30.545 23.807 48.961 21.561 4.043-.45 3.145-5.39 0-14.374-16.17-44.47-53.903-86.245-94.78-102.416a41.4 41.4 0 0 0-19.315-.898 166.37 166.37 0 0 0-89.838 47.164c-2.695 2.696-3.144 5.39 3.145 5.39m225.494 73.22c-5.39 2.246-3.594 6.737-3.594 10.33a68 68 0 0 0 1.348 14.375c0 3.593 0 6.288 5.84 6.288h46.715a4.34 4.34 0 0 0 4.043-4.043c-.899-21.56-4.492-43.122-16.171-60.64-3.144-4.94-6.289.898-7.636 4.492a73.83 73.83 0 0 1-30.545 29.198m51.207 42.223h-48.513c-2.695 0-4.491 2.695-4.491 6.289-.45 4.043-1.797 14.824-2.247 17.968 0 3.593 0 5.84 3.145 7.636a71.5 71.5 0 0 1 34.138 36.384c.45 3.145 4.043 1.797 4.493 0a152.7 152.7 0 0 0 17.068-65.581c0-.899-2.245-2.696-3.593-2.696m-55.7 45.818c-4.492-1.347-4.492-.899-8.085 9.882-8.085 27.85-39.978 75.464-75.015 96.126-11.679 6.738-4.043 8.086-.45 7.188a165.8 165.8 0 0 0 109.603-64.234c4.043-4.493.899-22.46-5.39-31.444a49 49 0 0 0-20.663-17.518M472.614 136.31c18.416 12.129 63.785 52.106 79.057 105.56 1.797 5.84 3.594 7.187 11.68 2.696 8.085-4.492 31.442-29.647 18.416-48.513-21.56-32.791-65.133-56.598-109.153-62.887-2.696-.45-3.145 1.348 0 3.144" style="fill:#fdbb30"/></svg>