<svg xmlns="http://www.w3.org/2000/svg" xml:space="preserve" width="720" height="720" viewBox="0 0 720 720"><path d="m364.721 217.169 9.961 17.994c-70.21-8.033-153.756 3.535-213.202 44.665l16.387 15.263C98.017 341.684 37.285 418.161 36 502.831c56.715-62.498 143.474-135.762 291.447-141.706l-17.03-18.316c80.01-.322 150.703 22.654 214.166 54.626l-15.263-35.186c74.71 33.097 137.369 92.222 173.358 140.582 14.138-94.31-84.67-268.31-317.957-285.662" style="fill:#fff"/><path d="M675.609 480.499c-4.981-102.183-108.128-234.41-295.625-253.37l10.444 18.799c-75.834-12.854-160.987.482-215.131 35.025l17.03 15.745C110.71 340.56 57.047 410.128 45.48 480.499c67.319-70.371 154.882-118.892 263.813-126.444l-17.995-19.44c67.962-2.25 136.566 8.033 216.416 45.468l-14.78-33.9c60.249 23.296 126.925 66.837 182.676 134.316" style="fill:#0080c6"/><path d="m411.635 248.659 12.532 22.493c-64.587-19.922-158.576-18.798-220.272 13.496l17.673 16.388c-56.554 24.26-116.321 76.155-139.939 123.873 38.72-35.025 123.07-75.513 192.316-84.028l-17.19-18.637c66.515-13.175 155.041-.161 218.343 25.545l-12.21-28.277c46.593 9.48 133.03 51.092 183.48 106.04-31.812-85.475-127.408-159.22-234.733-176.893" style="fill:#ffc20e"/></svg>