<svg xmlns="http://www.w3.org/2000/svg" xml:space="preserve" width="720" height="720" viewBox="0 0 720 720"><path d="M489.343 250.952c.286 7.718 4.002 32.3 37.445 65.457l1.143 4.002c-22.01-9.433-44.59-18.58-67.744-26.869-17.15-6.003-32.872-10.862-48.307-14.864-8.575-2.286-16.864-4.001-24.868-5.716-8.575-1.715-16.865-3.145-25.154-4.288l-2-.286-2.002.286c-9.718 1.43-19.437 3.144-29.441 5.145a600 600 0 0 0-28.87 6.86c-17.722 4.574-36.016 10.576-55.453 17.722-15.721 6.003-32.586 12.863-51.451 20.867l.857-2.859c33.73-33.443 37.16-57.74 37.445-65.457l.858-2.573h256.684zm-57.168-76.034c-18.294-10.29-18.866-24.868-18.58-30.299l-.572-2h-33.729l-8.29 31.728 61.742 2zm146.922 50.308-10.005 30.014 2.001 4.573h89.754l3.716-11.148C620.543 128.326 507.35 41.431 373.292 36.285l10.576 68.03c82.893 7.147 154.068 53.739 195.229 120.911m-247.538-120.91 10.004 38.017h-33.729l-.571 2c.285 5.431-.286 20.01-18.58 30.3l-.572 1.715 61.742-2.001 4.287 16.864h-84.894l-.572 2.001c.858 6.289.572 24.582-30.585 38.017l-.857 2.572 123.197-3.144 123.197 3.144-.858-2.572c-30.87-13.435-31.442-31.728-30.584-38.017l-.572-2h-84.895l-4.859 18.293-1.715-.572V35.714c-174.648 0-316.997 138.347-323.857 311.28l68.03-10.576c11.148-121.482 106.618-218.382 227.243-232.102m86.038 407.322c.286.286.572.572.857 1.144.572.857 1.715 1.715 2.859 2.572 1.143.858 2.572 1.715 4.287 2.287 2.859 1.43 6.86 2.573 11.72 3.716 8.861 2.286 18.865 3.43 27.726 4.287 2.573.286 4.86.572 7.432.572q6.003-17.15 14.578-34.3c-10.29 4.573-21.438 8.575-33.157 12.005-14.864 4.287-27.441 6.574-36.302 7.717m153.782-51.451v-.286l-2 4.574 10.003 30.013c-41.16 66.886-112.335 113.478-194.657 121.196l-10.576 68.03c134.06-5.43 246.966-92.326 290.986-212.38l-3.716-11.147zm-288.127 61.17c4.86-1.143 8.575-2.287 11.72-3.716 1.714-.572 3.144-1.715 4.287-2.287 1.143-.857 2.287-1.715 2.858-2.572.286-.286.572-.858.858-1.144-8.575-1.143-21.438-3.43-36.302-7.432-11.72-3.43-22.867-7.431-33.157-12.005 5.717 11.434 10.576 22.581 14.578 34.3 2.572-.285 4.859-.285 7.432-.57 8.575-1.144 18.865-2.288 27.726-4.574m329.86-161.214H684v12.577l-68.03 10.576-71.174 11.148c-15.15 24.582-31.443 49.164-45.735 74.032-1.715 1.144-3.43 2.001-5.145 3.145-22.581 12.862-47.735 20.58-75.462 22.867 2.573-6.003 6.289-11.72 10.005-17.436 2-3.145 4.287-6.289 7.146-10.29a481 481 0 0 1 7.718-10.291c7.146-9.147 14.577-18.58 21.723-27.44 3.43-4.288 7.146-8.862 10.862-13.435l8.29-10.29c.286-.572.571-.858 1.143-1.43 2.287-3.144 4.573-6.288 6.86-9.147 2.573-3.43 5.145-7.146 7.718-10.861.857-1.144 1.43-2.287 2.287-3.43.285-.572.857-1.43 1.429-2.001l-13.72-4.002s0 .286-.286.286c-.572 1.143-1.43 2.286-2.001 3.43-2.001 3.144-4.288 6.288-7.432 10.29-4.002 5.431-9.433 12.291-15.436 18.866-.285.285-.571.857-.857 1.143-7.146 8.29-15.15 16.864-22.581 24.868-4.288 4.573-8.861 9.433-13.15 14.292-5.43 6.003-11.719 13.149-17.435 20.58-2.859 3.716-5.431 7.432-8.004 11.148-2 3.144-4.573 7.718-6.574 12.577-1.43 3.43-3.144 8.861-2.859 15.15 0 6.002 2.573 12.29 6.86 16.864 2.287 2.573 4.86 4.574 7.432 6.289a77 77 0 0 0 8.29 4.287c4.859 2.001 10.29 3.43 16.579 4.574 5.43 1.143 10.861 1.715 16.007 2 5.43.572 11.147.572 15.72.572h3.717c-.858 3.145-1.43 6.289-2.287 9.433l-47.45 17.15-29.441 10.862-20.58-211.521-2.001-19.152-3.716-38.874-2.287.858v373.879C181.207 684.286 36 539.365 36 360.429v-.286h209.807l.571-2.001-31.156-8.575-29.156-8.004 1.144-3.144c53.452-23.725 111.477-46.306 172.933-54.881 60.312 8.003 118.338 32.014 173.22 55.739l.857 2.286-29.156 8.004-30.87 8.575.57 2zM336.704 615.684l-5.717-37.16-28.012-10.575-47.45-17.15h-.285c-.572-3.145-1.43-6.29-2.287-9.433h3.716c4.859 0 10.29 0 15.721-.572 5.145-.286 10.576-.858 16.007-2.001 6.289-1.143 11.434-2.573 16.579-4.573 2.572-1.144 5.43-2.287 8.29-4.288 2.286-1.715 5.144-3.716 7.431-6.289 4.288-4.573 6.574-10.862 6.86-16.864 0-2.859 0-7.718-2.858-15.15-2.001-4.859-4.574-9.432-6.575-12.577a100 100 0 0 0-8.003-11.147c-5.717-7.432-12.005-14.578-17.436-20.58-4.288-4.86-8.861-9.72-13.15-14.293-7.717-8.003-15.434-16.579-22.58-24.868-.286-.286-.572-.572-.858-1.143-6.003-6.86-11.434-13.72-15.435-19.152a1405 1405 0 0 0-7.432-10.29c-.858-1.143-1.43-2.287-2.001-3.43 0 0 0-.286-.286-.286l-13.72 4.002c.571.572.857 1.43 1.429 2 .857 1.144 1.43 2.288 2.287 3.43 2.572 3.717 5.145 7.433 7.717 10.863l6.86 9.433c.286.285.572.857.858 1.143l8.29 10.29c3.715 4.574 7.145 9.147 10.861 13.435 7.146 9.147 14.864 18.293 21.724 27.44 2.859 3.716 5.431 6.86 7.718 10.29 2.858 4.002 5.145 7.147 7.146 10.29 3.716 5.718 7.432 11.435 10.004 17.437-27.44-2.572-52.88-10.29-75.176-22.867-1.715-.858-3.43-2.001-5.145-3.144-14.006-24.868-30.299-49.45-45.734-74.033l-71.174-11.148c10.862 123.77 108.619 221.812 231.816 232.96" style="fill:#0a2240"/></svg>