<svg xmlns="http://www.w3.org/2000/svg" xml:space="preserve" width="720" height="720" viewBox="0 0 720 720"><path d="M604.986 206.423c-88.708-88.752-226.934-104.548-333.392-38.144a280.2 280.2 0 0 0-74.933 73.193c-.064.087-.15.174-.218.261h-55.59L36 478.937h136.01a216.86 216.86 0 0 0 85.855 87.094c69.404 38.186 154.218 34.986 220.533-8.307 9.64-6.31 12.337-19.239 6.029-28.875a20.86 20.86 0 0 0-17.188-9.421 20.9 20.9 0 0 0-6.114.914 144.7 144.7 0 0 1-41.797 6.116 142.97 142.97 0 0 1-106.765-47.519h127.022l21.822-30.397h84.66s-2.59 6.573-4.006 9.769l-9.073 20.626h138.555l2.957-10.835c25.456-93.386-1.088-193.23-69.514-261.68M411.91 255.747c2.48-.133 4.982-.198 7.42-.198 13.204 0 26.345 1.697 39.117 5.07l-93.688 131.266h-85.921c0-.285-.022-.588-.022-.87.002-72.108 58.441-131.506 133.094-135.268m139.14 67.297a197.3 197.3 0 0 1 7.202 39.6h-35.444z" style="fill:#003594"/><path d="M660.316 464.229H555.53a213 213 0 0 0 10.727-30.398 214 214 0 0 0 7.332-55.588v-.892c-.544-117.883-96.539-213.01-214.422-212.466a213.5 213.5 0 0 0-79.785 15.864c119.515-74.499 276.8-37.99 351.299 81.528a254.98 254.98 0 0 1 29.634 201.952m-193.08 69.883c-.63 0-1.262.111-1.87.285a159.3 159.3 0 0 1-46.038 6.745c-55.634.307-107.202-28.981-135.441-76.891h-102.85a199 199 0 0 0 13.01 23.13C254.314 579.7 378.03 605.697 470.37 545.41a6.19 6.19 0 0 0 2.764-4.896c.154-3.396-2.5-6.249-5.897-6.4m-105.96-355.496c-1.457 0-2.915 0-4.35.044a199.52 199.52 0 0 0-153.436 77.783h34.42l-66.534 150.15h93.558a149 149 0 0 1-.83-15.579c0-80.153 65.252-145.82 147.063-149.951q4.043-.199 8.159-.198h1c21.128 0 42.058 4.114 61.64 12.119a147.46 147.46 0 0 1 64.294 51.24l.022-.023C517.456 229.42 446.2 178.618 361.278 178.618" style="fill:#ffd100"/><path d="M573.588 377.35v.893a214 214 0 0 1-7.333 55.588h-112.53l-21.693 30.398v.022H331.164v-.022h.022l116.12-162.66 34.662-48.585a147.46 147.46 0 0 1 64.294 51.24l-20.171 28.262-32.028 44.867h57.704a82 82 0 0 1 .848 3.307 147 147 0 0 0-.826-3.307h21.799zM354.01 406.594H171.378l66.535-150.15h-87.49L58.563 464.23v.022h232.545c4.178 0 7.964-.544 11.488-1.57.5-.128 1.001-.302 1.48-.454 3.918-1.262 7.42-3.111 10.618-5.376a47 47 0 0 0 4.046-3.22c3.242-2.894 6.136-6.18 8.75-9.702l11.028-15.515z" style="fill:#fff"/></svg>