<svg xmlns="http://www.w3.org/2000/svg" xml:space="preserve" width="720" height="720" viewBox="0 0 720 720"><path d="M116.735 284.204c1.9-21.662 79.427-50.164 205.597-54.725a75 75 0 0 0-29.263 49.024l-1.14 9.12a96 96 0 0 1-3.8 17.482c-4.94 12.541-18.621 23.182-33.063 30.783-50.544-6.08-93.107-17.102-117.809-30.403-13.681-6.84-21.282-14.821-20.522-21.281m482.639-6.461c4.94 5.32 4.56 8.74 4.56 9.881-.38 6.08-7.98 13.68-20.902 20.142-26.982 14.06-73.345 24.702-128.07 30.402a77 77 0 0 1 7.98-4.18l.761-.38c15.961-6.46 33.823-13.681 34.583-39.904.38-4.18.38-16.72 2.66-21.281 3.04-6.08 10.64-14.821 17.101-17.482l-11.02-1.9h-1.52a26.7 26.7 0 0 0 7.98-9.5c44.844 9.5 74.866 22.041 85.887 34.202m54.724-32.682c-23.182-26.222-75.626-47.124-142.511-59.665 0-7.6 4.94-11.021 13.3-17.102a146 146 0 0 0 14.062-11.02c21.662-20.902-3.8-52.065-4.56-53.585l-14.062-17.101 3.42 22.042c2.28 14.82-3.04 20.141-19.76 31.542a66 66 0 0 0-5.321 4.56 104.8 104.8 0 0 0-2.28-34.962c-3.04-13.681-9.881-19.382-9.881-19.382l-1.9 20.142c0 .38-1.52 15.961-22.422 34.963a73 73 0 0 0 4.94-6.46c10.261-15.202 7.22-31.923 3.8-51.685l-.76-4.18c-3.42-20.142 1.9-33.063 5.32-35.343 3.421-4.18 10.262-11.021 10.262-11.021s-3.42-1.52-13.681-.38c-12.921 1.9-34.963 9.88-34.583 27.742a78.7 78.7 0 0 0 5.32 21.662c2.28 7.22 4.56 14.06 2.28 17.101-1.52 2.66-6.08 4.94-13.68 6.46-31.163 5.701-54.725 19.762-66.506 40.284a67.7 67.7 0 0 0-8.36 22.042c-76.387.38-148.972 9.88-204.837 26.982C88.613 218.078 54.03 244.68 51.37 275.463c-1.52 16.341 6.08 39.523 46.364 61.945h-.38l11.4 5.7 6.081 2.66a352.4 352.4 0 0 0 64.985 21.282 136.5 136.5 0 0 0-23.942 17.101c-72.147 59.396-82.485 166.033-23.09 238.181s166.034 82.485 238.181 23.09a169.2 169.2 0 0 0 58.151-96.337c13.681-40.664 12.161-84.367 11.401-101.088-1.52-37.623 17.101-58.525 28.882-67.646 53.205-6.84 100.708-18.621 135.671-34.203l5.7-2.66 12.161-5.7-.38-.38c28.503-15.962 44.464-34.203 45.984-53.965 1.52-13.68-3.42-26.602-14.44-38.383"/><path d="M100.774 526.663c0-3.8-.38-7.6-.38-11.781a162.1 162.1 0 0 1 9.881-56.244 116.6 116.6 0 0 0 6.84 63.464c7.981 19.762 20.522 38.383 32.683 56.245 6.46 9.5 12.921 19.001 18.242 28.122a102 102 0 0 1-24.702-12.921 107.62 107.62 0 0 1-42.564-66.885m85.507 48.264c-23.562-58.525-20.522-130.73 8.74-172.534a158 158 0 0 1 56.245-48.644c19.762-10.64 32.303-14.061 45.224-21.662 13.68-7.98 20.902-21.661 11.78-52.444a59.5 59.5 0 0 1-2.28-21.662 58.5 58.5 0 0 0-6.84 21.282 168 168 0 0 1-5.7 28.122c-12.161 31.923-71.066 49.404-78.667 52.065a149.8 149.8 0 0 0-54.724 29.262c-36.413 32.278-49.114 83.688-31.923 129.21 7.601 18.622 19.762 36.483 31.543 53.584a455 455 0 0 1 24.702 39.904 220 220 0 0 0 22.802 3.42 188 188 0 0 1-20.902-39.903M294.21 343.108c-35.343 15.201-58.145 24.322-88.167 62.325-14.442 17.861-22.422 48.264-23.562 78.286a219.2 219.2 0 0 0 15.2 86.647 201.6 201.6 0 0 0 24.703 44.844 183 183 0 0 0 28.502-3.8 74.63 74.63 0 0 1-17.861-44.084c-3.42-56.244 26.602-79.806 72.966-116.67l20.901-17.48c82.847-70.306 58.525-141.752 67.646-202.937a179 179 0 0 0-20.142-.76l1.14 5.7c1.52 11.402-1.9 20.522-15.201 22.422-14.061 2.28-19.002-9.88-20.142-19.761 0-3.8.38-6.46.38-8.36h-6.84a81.8 81.8 0 0 0-16.342 12.54c-2.66 6.08-6.08 14.441-.76 33.823 9.121 34.583 4.94 55.484-22.421 67.265m39.523 98.808-20.142 16.341c-45.224 36.103-71.065 58.905-69.165 107.929a58.5 58.5 0 0 0 18.621 41.423 184.6 184.6 0 0 0 37.243-15.58c58.525-33.443 95.388-83.227 109.449-147.072 8.74-40.284 8.74-72.966 8.36-99.568 0-13.301 1.9-39.143 1.9-39.143 1.9-16.342 4.18-39.904 23.562-69.926.76-1.14 1.14-1.9 1.9-3.04-11.78-1.14-24.701-1.9-38.002-2.66a306 306 0 0 0-4.56 38.002c-3.421 53.205-1.52 113.63-69.166 173.294m93.487-40.283c-1.9 9.88-2.28 20.521-3.42 31.162-.76 3.8-1.52 7.98-1.9 11.781a11.1 11.1 0 0 1-.76 3.42c-14.442 67.266-52.825 119.33-114.77 154.293a200 200 0 0 1-31.922 14.82c18.241 11.782 39.143 15.582 53.584 13.302 55.485-7.98 82.467-44.083 95.388-82.846 13.301-39.524 11.78-81.707 11.02-99.188-1.9-58.525 42.944-80.187 42.944-80.187-34.583-1.9-46.364 13.301-50.164 33.443m-94.627 240.179a92.27 92.27 0 0 1-70.306-19.382c-.76-.38-.76-.76-1.52-1.14a192.6 192.6 0 0 1-28.882 5.32c22.041 23.943 51.684 37.624 90.827 39.904h.38a161.8 161.8 0 0 0 68.025-49.784c-.38 0-.38.38-.76.38a112.2 112.2 0 0 1-57.764 24.702m-196.476-38.383a118.6 118.6 0 0 1-19.382-17.481 161.9 161.9 0 0 0 67.646 71.445 80.4 80.4 0 0 0-8.74-36.483c-13.91-4-27.207-9.881-39.524-17.481m161.133 70.685a145.4 145.4 0 0 1-57.385-25.081 142 142 0 0 1-23.182-22.042 124 124 0 0 1-26.602-2.66 80.8 80.8 0 0 1 5.7 39.143 160 160 0 0 0 67.646 14.44 167.4 167.4 0 0 0 33.823-3.42c.38-.38 0-.38 0-.38m189.635-400.551c-3.8 12.54-16.341 11.02-20.142 4.18-5.7-10.64-3.42-19.002 2.66-24.702 5.701-5.7 15.582-8.74 25.083-13.301h.38c-11.021-1.9-22.802-3.42-34.963-4.94-.38.38-.38.38-.76.38a33 33 0 0 1-3.04 3.8 138.1 138.1 0 0 0-24.323 68.405l-.38 5.32a218 218 0 0 0-1.14 33.063v5.32c-.38 4.561-.38 9.121-.38 13.302.38-1.9.38-2.28.38-1.52 5.32-17.862 15.582-28.503 30.023-34.583 15.96-6.08 31.162-11.781 31.922-34.583.38-9.5 1.14-19.001 3.04-23.562a22.98 22.98 0 0 1 11.021-11.4c-7.6-.38-15.96 2.66-19.381 14.82" style="fill:#98002e"/><path d="M535.149 153.093c-14.061 12.921-28.503 15.581-29.643 30.783a81 81 0 0 0-9.5-1.14 155 155 0 0 0 2.28-22.422 20.98 20.98 0 0 1 9.5-14.821c15.962-11.401 24.703-18.622 21.662-37.623 0 0 23.562 28.122 5.7 45.223m-78.666 4.56a147 147 0 0 0-11.782 9.881c-2.66 2.66-5.32 4.94-7.6 7.6 15.581 1.14 30.782 3.041 45.603 4.941 9.121-17.101 13.682-36.103 7.981-69.165 0 0-1.14 22.421-34.202 46.743m5.7-22.041c9.5-13.681 5.7-30.783 1.9-51.304-6.08-35.343 9.12-41.804 9.12-41.804s-30.022 4.18-29.262 21.282c.76 23.182 24.703 44.844-11.4 51.684-39.523 7.22-64.225 28.502-69.546 56.625a35 35 0 0 1 6.08-.38c17.862.38 35.343.76 52.825 2.28a8.3 8.3 0 0 1 1.52-1.9c11.4-12.161 29.262-22.802 38.763-36.483" style="fill:#f9a01b"/><path d="M369.076 180.835C203.382 179.315 65.43 221.88 60.87 276.223c-1.9 21.662 17.481 41.803 52.064 58.524a368.5 368.5 0 0 0 80.187 25.843c6.46-2.66 12.54-4.94 19.761-7.221 9.077-2.7 17.964-6 26.602-9.88-46.363-6.461-83.606-17.102-106.788-29.643-17.102-9.12-26.222-19.382-25.082-30.403 3.04-36.482 118.95-64.605 258.42-63.465 139.851 1.52 250.44 32.303 247.02 68.406-.76 10.26-10.261 19.381-25.842 27.742-29.263 15.581-80.567 26.982-143.272 32.682a76 76 0 0 0-5.7 9.881c28.502-10.64 61.565 5.32 61.565 5.32 1.31.544 2.58 1.179 3.8 1.901 41.423-7.6 77.146-18.241 103.748-30.782 31.543-14.822 50.924-33.443 52.445-52.825 4.56-54.344-125.41-99.568-290.723-101.468" style="fill:#fff"/></svg>