<svg xmlns="http://www.w3.org/2000/svg" xml:space="preserve" width="720" height="720" viewBox="0 0 720 720"><path d="M435.747 36H284.063c-37.033 0-67.055 30.023-67.055 67.055v513.7c0 37.065 29.99 67.14 67.055 67.245h151.684c37.095-.105 67.14-30.148 67.245-67.245v-513.7c-.21-37.02-30.226-66.95-67.245-67.055" style="fill:#fff"/><path d="M380.92 145.275c-1.912-1.91-.958-5.923.19-7.45 4.203-.574 9.551-9.744 13.944-19.105 3.44.192 4.587-3.247 5.732-5.158 3.822-6.112 7.835-11.27 2.676-14.71 11.844-21.013 4.202-35.15-2.101-35.724-2.675-5.158-7.069-8.405-14.902-11.27h49.096c28.203.104 51.008 22.995 51.008 51.197v247.967a54 54 0 0 0-5.922-10.698c0-6.876-7.642-7.26-9.362-9.36-1.719-2.102 1.911-3.438-10.89-6.305-2.29-1.336-4.201-20.058-4.201-20.058-1.911-12.227-6.113-20.442-12.608-33.24-3.25-6.688-4.777-27.129-8.216-37.445 2.101-47.76-13.181-61.514-25.598-69.347-4.777-2.865-7.069-5.157-11.652-7.832v-2.102a60.4 60.4 0 0 0-17.195-9.36m46.656 264.949c-23.405-9.383-34.772-35.963-25.39-59.369a45.66 45.66 0 0 1 31.46-27.343c-5.35-13.181-16.43-34.577-19.677-41.646-3.249-7.069-10.698-50.434-12.227-59.03-.381-1.912-19.676 11.271-19.676 12.035s-14.52 36.105-15.092 38.016c-.574 1.91-.383 5.923-.383 5.923s6.495.763 10.316 12.226c3.821 11.462 15.093 53.3 15.093 53.3s-3.057 3.248-3.248 3.056c14.519 48.332 9.362 69.156 15.856 83.293 8.214 20.059 10.316 17.385 17.384 34.196 4.968 12.224 10.508 60.368 12.418 62.47 7.832 9.93 12.036 17.574 12.036 23.114s-6.687 22.16-4.204 31.902c1.528 5.732 2.294 18.342 4.775 20.824 2.485 2.484 2.485 4.775 1.147 6.877a4.8 4.8 0 0 0-.764 2.674c4.392 15.093 18.149 41.075-4.392 54.638h.572c24.932-3.873 43.285-25.394 43.175-50.626V385.278c-9.541 23.103-35.924 34.27-59.179 24.946" style="fill:#da1a32"/><path d="M335.25 560.701v17.888c0 5.06-1.123 6.637-5.51 6.637h-4.613v-30.825h4.724c4.05 0 5.4 2.025 5.4 6.3m-5.51 34.761h-4.613v28.69h4.724c4.276 0 5.4-2.252 5.4-6.64v-15.749c0-4.613-1.462-6.3-5.511-6.3m41.625-42.186h-.675c-.79 11.25-2.362 30.827-2.812 37.124l-1.464 15.978h9.677l-1.466-15.978c-.447-6.411-2.248-25.874-3.26-37.124m64.382 114.678H284.063c-28.307-.105-51.198-23.082-51.198-51.39v-513.7c0-28.276 22.922-51.199 51.198-51.199h87.113c-16.62 6.495-19.104 13.755-19.676 36.87-2.866.192-8.787-2.483-6.686 11.653 0 0 .955 9.36 4.776 7.833-3.63 24.836.573 26.746-25.217 27.892l-1.337 1.91c-25.79 2.484-33.814-.763-55.401 43.175 0 0-5.54 13.563-7.26 19.295-5.349 11.08-18.34 35.724-22.16 51.77-1.147 5.35-3.63 7.07-.191 14.902 4.967 11.271-3.44 14.137 25.598 13.373v6.686s-7.642 6.687-9.36 10.698c-1.72 4.013-6.113 24.071-5.923 33.432.572 24.644 20.632 45.468 26.744 70.112l13.373 1.91c7.642 17.193 40.31 63.613 46.996 69.728 1.528 4.201 10.699 11.08 14.71 14.9s27.7 29.803 55.4 45.66c-.19 0 4.396 9.169 6.686 16.618-9.36 7.26 8.597 21.015 13.946 43.367.382 2.867-5.156 6.112 3.06 13.374-.576 34.003-10.892 51.77 6.493 61.131M304.201 542.702h-10.8v17.211c0 18.786 1.575 40.84 2.701 59.064l-13.839-76.164h-17.098v93.039h10.8v-.001h-.114v-29.363c0-14.288-.338-28.01-1.239-45.225l13.84 74.475h15.75zm43.425 18.787c0-13.051-6.412-18.676-16.875-18.676h-18v93.039h18c10.012 0 16.875-5.738 16.875-18.45v-13.5c0-7.088-2.588-11.251-6.187-13.724 3.6-2.14 6.187-6.414 6.187-14.852zm43.763 74.363-10.8-93.039h-17.776l-11.25 93.039h12.488l1.576-18.901h11.25l1.461 18.9z" style="fill:#00438c"/></svg>