<svg xmlns="http://www.w3.org/2000/svg" xml:space="preserve" width="720" height="720" viewBox="0 0 720 720"><path d="m420.199 133.768-1.54-10.783 4.383.81 2.062 10.54zm-22.32 11.35-2.441-25.731-4.455-.498 2.314 25.87zm225.255 136.87 33.165 72.765-81.147 83.554s-29.448-18.453-49.84-26.546l-24.769 28.293c-2.791 58.815-42.813 110.403-99.059 127.722l-42.561 54.898-42.947-55.771c-54.639-18.03-92.669-67.412-96.186-124.857l-29.774-28.848c-25.331 10.914-47.575 22.473-47.575 22.473l-79.895-80.192 33.676-73.824L36 203.447h95.808l18.549-40.392 47.434-19.14 5.265-14.314 38.444 17.564 9.145-31.951 6.272-2.088c30.41-10.13 65.456-15.587 101.332-15.787 1.03-.066 12.432.134 12.699.134 1.34 0 6.938.303 6.938.303 30.351 1.466 58.86 6.516 84.746 15.017l6.36 2.095 8.42 30.47 13.839-10.455 77.711 27.626 18.748 40.933H684zm-186.022-163.18s5.708 27.82 8.862 41.94l9.047 1.77-3.03-13.108 5.564 1.25 3.483 13.166 8.931 2.002-5.426-18.778-3.575-3.933 1.932-2.777-4.119-15.422c-4.087-1.237-7.925-2.314-7.925-2.314l3.864 15.92-1.492 2.059-3.1-.625c0-.002-3.182-12.802-4.8-19.022-3.63-1.17-8.215-2.129-8.215-2.129zm-27.865-5.486.006.003 5.761 42.507 8.677 1.076-1.85-12.484 5.217.579 2.372 12.807 8.7 1.504-2.63-15.367-3.044-3.633 1.723-2.395-2.985-15.468-5.367-6.202zm-26.177 1.912c.682 11.129 1.246 22.293 2.083 33.355l4.709 5.126 13.05.879 4.038-6.167c-1.096-10.122-2.888-20.517-3.806-31.365l-4.733-5.126-10.875-1.064h-.001.001c-1.436 1.555-3.273 2.792-4.466 4.362m-25.106 20.952 4.813 4.918 1.597.115.08 11.454 7.961.232-.22-11.431 1.493-.081 4.5-4.49-.96-26.737c-2.2-.185-7.104-.347-7.104-.347l.278 23.695-4.663.034-.07-23.833s-4.827-.116-7.404-.116zM312.01 113.36l-5.577 37.88 4.246 4.049 9.684-.903 4.177-3.552 3.297 2.87 8.897-.532 5.184-5.16 2.163-37.787c-2.688.163-4.29.118-7.37.451l-2.626 33.136-5.149.463L331.944 111l-7.22.706-4.095 33.517-5.241.579 3.945-33.448zm-22.398 4.246c-1.703 9.804-8.562 41.57-8.562 41.57 6.124-1.066 12.541-1.98 18.917-2.765.46-2.636 1.365-8.539 1.365-8.539l-9.117 1.331 1.678-8.758 8.885-1.273c.592-3.228.755-4.392 1.296-7.798-3.862.51-5.847.826-9.099 1.411l1.608-9.151 8.851-1.666 1.25-7.833zm-40.45 48.245 9.021-2.062 7.257-24.919 2.867 6.214-4.235 17.32 9.235-1.82 9.566-41.543h.003-.003c-2.874.645-8.582 2.163-8.582 2.163l-2.186 8.457s-2.43-4.592-3.437-6.872c-2.74.822-5.05 1.524-8.145 2.568-3.761 13.5-7.607 27.003-11.361 40.494m359.547 114.387 49.919-64.363-78.901-.001-19.643-43.044-.163-.326-.34-.126-65.717-23.406-.452-.163-.392.297-17.43 13.298-.178.141-.089.222-2.992 7.316s-27.241-6.842-67.256-10.84c-4.08-.407-14.964-1.303-32.35-2.673l-1.689-.134-1.755-.133-.407-.03-.288.29-12.988 12.935.015-13.284s-36.838 2.081-60.963 5.361c-24.116 3.288-47.848 9.256-47.848 9.256l-4.362-9.345-.14-.296-.29-.133L211 146.86l-.873-.392-.326.896-3.614 9.818-.814-1.97-.34-.807-.815.334-44.376 17.786-.326.14-.156.326-19.513 42.872-78.624-.002h-.012l49.432 64.163-33.14 72.81 67.211 67.309 3.132-1.778c2.022-1.155 4.887-2.858 8.13-4.753 8.13-4.798 19.267-11.352 24.584-13.921l1.089-.518c4.066-1.966 6.94-3.358 15.354-7.054l35.022 45.46c1.818 56.174 39.755 103.197 91.372 118.6l35.527 46.114 35.166-45.34c53.62-14.71 93.172-63.342 94.15-121.393l33.193-42.796c15.865 7.783 32.675 17.257 48.684 27.512l3.236 2.08 68.033-70.062z" style="fill:#fff"/><path d="M237.783 375.516c2.589-.862 5.791-1.89 9.483-3.015a127.4 127.4 0 0 0-14.65 47.479l-25.014-32.468a5865 5865 0 0 1 17.053-7.324l2.732-1.022c.03-.007 3.665-1.421 10.396-3.65m253.534 4.39c-2.593-.729-8.534-2.37-16.873-4.481a127.3 127.3 0 0 1 12.95 42.946l23.657-30.502c-5.643-2.566-11.127-4.904-16.32-6.91zm93.128-152.861-6.597 12.603 17.719 11.907.207.133.096.237 7.607 16.773 32.304-41.652zm-243.91 333.011 18.425 23.914 18.307-23.605c-5.616.752-11.337 1.177-17.16 1.177-6.654 0-13.19-.508-19.571-1.486M134.762 227.04H83.967l31.93 41.443zm-9.64 126.889a508 508 0 0 0-21.392 11.766l42.704 42.843c5.175-3.11 10.66-6.282 16.695-9.777zm426.281-18.087a508 508 0 0 0-20.591-8.083v-.001l-26.402 47.47c3.901 1.515 8.078 3.307 12.37 5.257a373 373 0 0 1 10.37 4.911c17.835 8.777 35.866 19.177 44.666 25.086 5.85-5.598 37.59-38.915 41.951-43.49a517 517 0 0 0-51.735-26.571 510 510 0 0 0-10.629-4.579m-259.938-34.556a500 500 0 0 0-29.78 4.883c3.106 10.099 6.906 23.017 10.255 34.188a128.6 128.6 0 0 1 24.003-17.954c-1.5-7.034-3.172-14.823-4.478-21.117m49.276-4.037a506 506 0 0 0-30.683 1.955c.648 4.245 1.532 10.028 2.317 15.186a127.2 127.2 0 0 1 28.745-7.814zm-133.478 22.827c6.931 16.475 14.686 33.45 22.92 49.252 6.534-2.406 15.324-5.583 23.944-8.08.87-1.277 1.77-2.532 2.684-3.775l-17.558-46.433c-11.247 2.717-21.03 5.578-31.99 9.036m-18.349 6.038a466 466 0 0 0-22.045 8.527 536 536 0 0 0-10.645 4.547c-.738.325-1.46.629-2.204.96l32.962 46.88c.457-.392 2.054-1.222 4.325-2.303 2.734-1.301 6.463-2.973 10.498-4.738 4.739-2.073 9.867-4.264 14.217-6.102-8.456-15.313-18.63-32.192-27.108-47.772m324.426-4.43c-11.107-3.621-21.828-6.614-33.217-9.465l-17.246 44.512c1.844 2.47 3.572 5.027 5.238 7.63l21.125 4.967zm-139.95-24.47c-.129 2.575-.185 5.75-.266 8.608a127.4 127.4 0 0 1 42.722 12.073l2.377-17.21c-15.093-1.86-29.381-2.992-44.83-3.472zm-13.282 7.952c2.845 0 5.658.126 8.456.309l.164-10.159L357.4 283.55l.161 21.68c.85-.017 1.692-.064 2.546-.064m63.783 17.018a128.6 128.6 0 0 1 24.973 18.736l10.144-33.548c-10.351-2.14-20.401-4.007-30.96-5.496z" style="fill:#9ea2a2"/><path d="m415.014 155.832 8.677 1.076-1.85-12.484 5.217.579 2.372 12.807 8.7 1.504-2.63-15.367-3.044-3.633 1.723-2.395-2.985-15.468-5.367-6.202-16.58-2.927.006.003zm3.645-32.847 4.383.81 2.062 10.54-4.905-.567zm239.969 92.89-78.901-.002-19.643-43.044-.163-.326-.34-.126-65.717-23.406-.452-.163-.392.297-17.43 13.298-.178.141-.089.222-2.992 7.316s-27.241-6.842-67.256-10.84c-4.08-.407-14.964-1.303-32.35-2.673l-1.689-.134-1.755-.133-.407-.03-.288.29-12.988 12.935.015-13.284s-36.838 2.081-60.963 5.361c-24.116 3.288-47.848 9.256-47.848 9.256l-4.362-9.345-.14-.296-.29-.133L211 146.86l-.873-.392-.326.896-3.614 9.818-.814-1.97-.34-.807-.815.334-44.376 17.786-.326.14-.156.326-19.513 42.872-78.624-.002h-.012l49.432 64.163-33.14 72.81 67.211 67.309 3.132-1.778c2.022-1.155 4.887-2.858 8.13-4.753 8.13-4.798 19.267-11.352 24.584-13.921l1.089-.518c4.066-1.966 6.94-3.358 15.354-7.054l35.022 45.46c1.818 56.174 39.755 103.197 91.372 118.6l35.527 46.114 35.166-45.34c53.62-14.71 93.172-63.342 94.15-121.393l33.193-42.796c15.865 7.783 32.675 17.257 48.684 27.512l3.236 2.08 68.033-70.062-32.677-72.058zM434.494 171.97l8.36 43.9 2.129 11.173.722 3.793 2.838-3.793 8.36-11.173 3.959-5.292-9.568-35.785 24.33 5.403 9.545 35.554-.09.12-8.371 11.173-3.016 4.025 20.166 16.487 19.56 70.048a505 505 0 0 0-32.603-9.36l-10.482-47.76-11.396-9.371-7.798 10.528 7.821 41.627a502 502 0 0 0-30.347-5.264c-2.36-18.833-5.893-46.247-9.099-70.96l-1.45-11.174c-3.39-26.083-6.1-46.754-6.1-46.754l-.008-.003zM300.547 359.894c-2.292 2.827-4.47 5.75-6.688 8.878l-.139-.046c-17.393-3.887-31.102 5.106-42.113 16.302 2.057-5.19 5.015-10.756 8.53-16.232 5.467-8.516 12.308-16.806 19.41-23.07 10.752.466 18.563.295 30.336 3.968-3.502 3.367-6.506 6.71-9.336 10.2m-61.295-48.855 17.558 46.433a129 129 0 0 0-2.684 3.774c-8.62 2.498-17.41 5.675-23.944 8.081-8.234-15.801-15.989-32.777-22.92-49.252 10.96-3.458 20.743-6.319 31.99-9.036m70.805-11.836a506 506 0 0 1 30.683-1.956l.38 9.328a127.2 127.2 0 0 0-28.746 7.814c-.785-5.158-1.67-10.941-2.317-15.186m47.343-15.654 11.327 11.766-.164 10.159c-2.798-.183-5.611-.31-8.456-.31-.854 0-1.696.048-2.546.065zm70.646 18.326c10.56 1.489 20.61 3.356 30.961 5.496l-10.144 33.548a128.6 128.6 0 0 0-24.973-18.736zm-12.201 16.019a127.4 127.4 0 0 0-42.722-12.073c.081-2.858.137-6.033.266-8.609h.003c15.449.48 29.737 1.612 44.83 3.472zm-143.906 22.462c-3.349-11.171-7.15-24.09-10.255-34.188a500 500 0 0 1 29.78-4.883c1.306 6.294 2.979 14.083 4.478 21.117a128.6 128.6 0 0 0-24.003 17.954m14.031.163c8.234-7.552 20.224-13.519 31.435-18.095l16.845 8.353c-7.478 4.48-13.49 9.32-19.703 14.845-10.396-2.829-15.848-3.622-28.577-5.103m38.886-20.57c10.107-3.682 20.809-5.02 31.898-5.265 3.696-.082 7.432-.045 11.21.07-9.84 3.428-19.315 8.434-28.704 12.796-6.405-3.836-10.072-4.81-14.404-7.602m55.28-3.518c31.416 5.354 61.81 24.15 79.656 52.747-30.211-30.426-75.51-28.232-113.948-38.99 0 0 22.623-10.773 34.292-13.757m82.74 40.3 17.246-44.512c11.389 2.85 22.11 5.843 33.217 9.464l-24.1 47.644-21.125-4.968c-1.666-2.602-3.394-5.16-5.238-7.629M358.444 180.025l14.127-14.104v.003l31.562 2.257 2.754 21.6-23.487-1.145 1.547 27.232.634 11.173 2.273 40.036 27.71 1.643 3.066 27.987a510 510 0 0 0-45.4-3.424l-14.832-15.18.024-51.062.005-11.174zm-37.555-12.796 23.868-1.25-1.736 49.888-.389 11.174-2.306 66.297a505 505 0 0 0-30.648 1.967l5.975-68.265.978-11.174zm-77.749 13.918 26.055-6.525 8.238 39.58 7.266-42.056 22.167-3.228v-.002l-5.637 46.95-1.342 11.174-8.442 70.301-.059.012a509 509 0 0 0-29.306 4.755l6.468-36.895-7.847-38.173-2.161-10.513-2.31 10.513-17.613 80.15a505 505 0 0 0-31.736 8.792l23.918-88.943 3.005-11.174zm-159.173 45.89h50.794l-18.864 41.444zm4.631 123.618 28.421-62.355 5.259-11.537 22.665-49.725 5.093-11.175 16.382-35.94 28.23-11.27-18.7 47.21-4.426 11.175-3.137 7.92 9.196-7.92 12.977-11.174 6.647-5.724 17.98-51.138-.003-.004 20.016 8.99-14.373 47.876-1.917 6.386-5.038 4.789-22.822 21.694 13.456 22.214-15.596 51.01a516 516 0 0 0-24.556 9.418 511 511 0 0 0-10.661 4.525c-.224.097-.45.19-.672.288l.278-.8 4.4-12.653 16.83-48.408-5.206-6.062-21.775 19.46-5.688 14.453-4.784 12.153-14.333 36.416a510 510 0 0 0-21.971 12.114zm57.835 57.88-42.704-42.842a508 508 0 0 1 21.392-11.766l38.007 44.832c-6.035 3.495-11.52 6.667-16.695 9.777m44.873-23.81c-2.27 1.08-3.868 1.91-4.325 2.303l-32.962-46.881c.743-.331 1.466-.635 2.204-.96a536 536 0 0 1 10.645-4.547 466 466 0 0 1 22.045-8.527c8.479 15.579 18.652 32.458 27.108 47.771-4.35 1.838-9.478 4.029-14.217 6.102-4.035 1.765-7.764 3.437-10.498 4.738m33.349-4.538 2.732-1.022c.03-.007 3.665-1.421 10.396-3.65 2.589-.862 5.791-1.89 9.483-3.015a127.4 127.4 0 0 0-14.65 47.479l-25.014-32.468a5865 5865 0 0 1 17.053-7.324m18.167 71.405a122 122 0 0 1-1.432-20.224 119.2 119.2 0 0 1 4.513-31.011c10.294-14.37 23.34-27.17 40.586-26.842v-.005q1.724.031 3.506.243c-17.624 27.044-25.97 57.89-24.648 88.71.31 7.23 1.135 14.457 2.517 21.634 2.427 12.606 6.516 25.055 12.296 37.08-18.905-15.875-32.961-41.183-37.338-69.585m69.443 90.137a145 145 0 0 1-19.4-10.32c-7.589-11.076-13.126-23.492-16.72-36.564-2.152-7.822-3.592-15.88-4.363-24.03-3.185-33.676 5.235-68.905 23.998-95.449l.001.003c15.047 4.325 23.237 24.021 25.28 30.093 15.636 46.49 19.101 97.966 59.605 144.793-16.743 3.397-33.395 2.299-49.073-1.807a131 131 0 0 1-19.328-6.719m46.695 42.24-18.424-23.914a129 129 0 0 0 19.571 1.486c5.823 0 11.544-.425 17.16-1.177zm79.682-61.552c-10.827 9.737-22.387 16.348-33.98 20.904-5.88 2.311-11.768 4.103-17.574 5.486-.16-.166-.303-.342-.463-.509-30.295-31.736-40.361-72.817-51.138-113.315-8.308-31.238-14.087-54.8-36.109-64.36l-.023-.174c2.905-4.09 6.069-8.03 9.447-11.831 2.082-2.344 4.226-4.646 6.496-6.865l-.002-.002c4.616 1.302 9.212 2.874 13.78 4.648 49.88 19.37 95.925 65.8 116.099 116.407a166 166 0 0 1 4.44 12.556c2.042 6.623 3.64 13.282 4.704 19.931-3.124 5.058-10.641 12.088-15.677 17.124m20.492-23.6c-1.356-6.338-3.132-12.655-5.282-18.918a181 181 0 0 0-4.7-12.22c-20.241-47.476-61.615-90.23-108.545-111.888-6.874-3.172-13.86-5.92-20.923-8.134 5.975-5.369 12.963-10.546 20.131-14.937l.002.004c37.076 13.04 81.274 9.457 112.988 37.44l.112.105c20.544 18.873 25.366 38.446 25.758 59.343.115 6.131-.147 12.375-.51 18.75-.01.08-.027.158-.038.239-2.532 18.23-8.731 35.406-18.993 50.217m28.26-80.447a127.3 127.3 0 0 0-12.95-42.946c8.34 2.11 14.28 3.752 16.873 4.482l3.414 1.051c5.193 2.007 10.677 4.345 16.32 6.911zm84.42-7.89c-8.799-5.91-26.83-16.309-44.665-25.086a373 373 0 0 0-10.37-4.911c-4.292-1.95-8.469-3.742-12.37-5.256l26.402-47.471a508 508 0 0 1 20.591 8.084 510 510 0 0 1 10.63 4.579 517 517 0 0 1 51.734 26.57c-4.36 4.576-36.102 37.893-41.951 43.49m58.517-60.101-13.514 13.86a518 518 0 0 0-27.617-15.214c-8.117-4.155-16.36-8.069-24.698-11.791a514 514 0 0 0-10.616-4.597c-2.045-.858-4.083-1.731-6.14-2.563a512 512 0 0 0-15.561-6.005l-16.962-55.859 31.713 9.337 8.874 24.724 16.022 7.227 9.836 4.436-4.526-11.282-11.406-28.437-62.175-43.93-.998-3.242-3.44-11.173-14.884-48.353 10.668-8.237.002.004L553 179.913l16.27 35.96 1.686 3.724-11.616-3.725-19.16-6.144-8.19-19.957-20.236-7.196 11.373 31.932 2.044 1.364 16.735 11.173 46.589 31.104 8.548 18.845 5.233 11.537zm-34.46-98.455-.097-.237-.207-.133-17.72-11.907 6.598-12.602v-.001h51.336l-32.304 41.653zm-149.897-91.177c-3.154-14.12-8.862-41.94-8.862-41.94v-.001s4.586.96 8.217 2.13c1.617 6.219 4.798 19.02 4.798 19.021l3.1.625 1.493-2.06-3.864-15.92s3.838 1.078 7.925 2.315l4.12 15.422-1.933 2.777 3.575 3.933 5.426 18.778-8.931-2.002-3.483-13.166-5.565-1.25 3.031 13.109zm-139.541-9.51 5.577-37.879 7.323-1.006-3.945 33.448 5.24-.579 4.096-33.517 7.22-.706-3.008 33.275 5.149-.463 2.626-33.136c3.08-.333 4.682-.288 7.37-.451l-2.163 37.787-5.184 5.16-8.897.532-3.297-2.87-4.177 3.552-9.684.903zm-25.383 7.937s6.859-31.766 8.562-41.57l17.071-3.47-1.249 7.832-8.85 1.666-1.609 9.151c3.252-.585 5.237-.9 9.099-1.41-.54 3.405-.704 4.569-1.296 7.797l-8.885 1.273-1.678 8.758 9.117-1.33s-.906 5.902-1.365 8.538c-6.376.785-12.793 1.699-18.917 2.765m108.812-5.46 13.05.879 4.038-6.167c-1.096-10.122-2.888-20.517-3.806-31.365l-4.733-5.126-10.875-1.064c-1.436 1.555-3.273 2.792-4.466 4.362.682 11.129 1.246 22.293 2.083 33.355zm1.121-34.826 4.455.498 2.44 25.73-4.58-.358zm-132.8 44.9-9.021 2.06c3.754-13.49 7.6-26.994 11.361-40.493 3.095-1.044 5.406-1.746 8.145-2.568 1.007 2.28 3.437 6.872 3.437 6.872l2.186-8.457s5.708-1.518 8.582-2.163l-9.566 41.544-9.235 1.818 4.235-17.32-2.867-6.213zm104.594-22.685-4.813-4.918.301-26.587c2.577 0 7.405.116 7.405.116l.07 23.833 4.662-.034-.278-23.695s4.905.162 7.104.347l.96 26.738-4.5 4.489-1.493.08.22 11.432-7.96-.232-.081-11.454zm-79.901-22.064h-.003z" style="fill:#1d428a"/><path d="m630.33 350.38-13.513 13.86a518 518 0 0 0-27.617-15.214c-8.117-4.155-16.36-8.069-24.698-11.791a514 514 0 0 0-10.616-4.597c-2.045-.858-4.083-1.731-6.14-2.563a512 512 0 0 0-15.561-6.005l-16.962-55.859 31.713 9.337 8.874 24.724 16.022 7.227 9.836 4.436-4.526-11.282-11.406-28.437-62.175-43.93-.998-3.242-3.44-11.173-14.884-48.353 10.668-8.237.002.004L553 179.913l16.27 35.96 1.686 3.724-11.616-3.725-19.16-6.144-8.19-19.957-20.236-7.196 11.373 31.932 2.044 1.364 16.735 11.173 46.589 31.104 8.548 18.845 5.233 11.537zM258.54 216.528l2.16 10.513 7.848 38.173-6.468 36.895a509 509 0 0 1 29.306-4.755l.059-.012 8.442-70.301 1.342-11.174 5.638-46.95v.002l-22.168 3.228-7.266 42.056-8.238-39.58-26.055 6.525-9.336 34.718-3.005 11.174-23.918 88.943a505 505 0 0 1 31.736-8.793l17.612-80.15zm-44.67 10.512 5.038-4.789 1.917-6.386 14.373-47.876-20.016-8.99.002.004-17.98 51.138-6.646 5.724-12.977 11.174-9.196 7.92 3.137-7.92 4.426-11.175 18.7-47.21-28.23 11.27-16.382 35.94-5.093 11.175-22.665 49.725-5.259 11.537-28.42 62.355 12.17 12.206a510 510 0 0 1 21.972-12.114l14.333-36.416 4.784-12.153 5.688-14.453 21.775-19.46 5.206 6.062-16.83 48.408-4.4 12.653-.278.8c.223-.098.448-.19.672-.288a511 511 0 0 1 10.661-4.525 516 516 0 0 1 24.556-9.417l15.596-51.011-13.456-22.214zm204.76 69.668-3.066-27.987-27.71-1.643-2.273-40.036-.634-11.173-1.547-27.232 23.487 1.145-2.754-21.6-31.562-2.257v-.003l-14.127 14.104-.017 35.842-.005 11.174-.024 51.062 14.832 15.18a510 510 0 0 1 45.4 3.424m55.062-65.64 3.016-4.025 8.371-11.172.09-.12-9.544-35.555-24.331-5.403 9.568 35.785-3.96 5.292-8.359 11.173-2.838 3.793-.722-3.793-2.128-11.173-8.36-43.9-22.539-2.858.008.003a49309 49309 0 0 0 7.55 57.928c3.206 24.713 6.739 52.127 9.099 70.96a502 502 0 0 1 30.347 5.264l-7.821-41.627 7.798-10.528 11.396 9.37 10.482 47.76a505 505 0 0 1 32.603 9.36l-19.56-70.047zm-131.06-4.026.39-11.174 1.735-49.888-23.868 1.25-4.258 48.637-.978 11.174-5.975 68.265a505 505 0 0 1 30.648-1.967zm102.543 245.765c-20.174-50.608-66.218-97.037-116.099-116.407-4.568-1.774-9.164-3.346-13.78-4.648l.002.002c-2.27 2.219-4.414 4.521-6.496 6.865-3.378 3.801-6.542 7.74-9.447 11.83l.023.175c22.022 9.56 27.801 33.122 36.11 64.36 10.776 40.498 20.842 81.579 51.137 113.315.16.167.302.343.463.51 5.806-1.384 11.694-3.176 17.575-5.487 11.592-4.556 23.152-11.167 33.98-20.904 5.035-5.036 12.552-12.066 15.676-17.124-1.064-6.649-2.662-13.308-4.704-19.931a166 166 0 0 0-4.44-12.556m-179.828-10.343c-1.323-30.82 7.024-61.666 24.648-88.71a35 35 0 0 0-3.506-.243v.005c-17.246-.328-30.292 12.472-40.586 26.842a119.2 119.2 0 0 0-4.513 31.01 122 122 0 0 0 1.432 20.225c4.377 28.402 18.433 53.71 37.338 69.584-5.78-12.024-9.869-24.473-12.296-37.079a148 148 0 0 1-2.517-21.634m30.434-87.094v-.003c-18.764 26.544-27.184 61.773-23.999 95.45.77 8.15 2.211 16.207 4.362 24.029 3.595 13.072 9.132 25.488 16.72 36.563a145 145 0 0 0 19.4 10.321 131 131 0 0 0 19.329 6.719c15.678 4.106 32.33 5.204 49.073 1.807-40.504-46.827-43.97-98.304-59.605-144.793-2.043-6.072-10.233-25.768-25.28-30.093m157.136-5.1-.112-.106c-31.714-27.982-75.912-24.4-112.988-37.439l-.002-.004c-7.168 4.391-14.156 9.568-20.131 14.937 7.063 2.214 14.05 4.962 20.923 8.134 46.93 21.658 88.304 64.412 108.544 111.888a181 181 0 0 1 4.701 12.22c2.15 6.263 3.926 12.58 5.282 18.919 10.262-14.81 16.461-31.988 18.993-50.217.01-.08.028-.159.039-.239.362-6.375.624-12.619.509-18.75-.392-20.897-5.214-40.47-25.758-59.343M334.25 330.777l-16.845-8.353c-11.211 4.576-23.201 10.543-31.435 18.095 12.729 1.481 18.18 2.274 28.577 5.103 6.213-5.524 12.225-10.364 19.703-14.845m-54.703 14.949c-7.102 6.264-13.943 14.554-19.41 23.07-3.515 5.476-6.473 11.042-8.53 16.232 11.01-11.196 24.72-20.189 42.113-16.302l.14.046c2.216-3.128 4.395-6.05 6.687-8.878 2.83-3.49 5.834-6.833 9.336-10.2-11.773-3.673-19.584-3.502-30.335-3.968m180.245 23.452c-17.845-28.597-48.24-47.393-79.656-52.747-11.67 2.984-34.292 13.757-34.292 13.757 38.437 10.758 83.737 8.564 113.948 38.99m-134.936-49.23c4.332 2.792 8 3.766 14.404 7.602 9.39-4.362 18.864-9.368 28.705-12.797a214 214 0 0 0-11.212-.07v.001c-11.088.245-21.79 1.583-31.897 5.264" style="fill:#f58426"/></svg>