<svg xmlns="http://www.w3.org/2000/svg" xml:space="preserve" id="Layer_1" width="720" height="720" x="0" y="0" version="1.1" viewBox="0 0 720 720"><style>.st0{fill:#fff}</style><path d="M673.76 319.975c-20.075-36.586-65.654-74.927-128.354-107.98-64.071-33.78-139.914-45.756-185.404-45.756s-121.33 11.977-185.405 45.757c-62.7 33.039-108.282 71.393-128.356 107.98-6.793 12.369-10.33 26.206-10.24 40.017-.087 13.812 3.45 27.65 10.24 40.032 20.074 36.586 65.656 74.927 128.356 107.98 64.062 33.78 139.915 45.756 185.405 45.756v-.009c45.486 0 121.343-11.994 185.404-45.761 62.7-33.04 108.279-71.393 128.353-107.98 6.793-12.369 10.33-26.206 10.24-40.018.09-13.811-3.447-27.648-10.24-40.018" class="st0"/><path d="M657.652 328.175c-18.066-32.935-61.65-69.511-120.995-100.785-61.092-32.207-133.137-43.6-176.659-43.6s-115.562 11.393-176.658 43.6c-59.343 31.274-102.915 67.846-120.995 100.785-5.341 9.73-8.218 20.696-8.127 31.818-.09 11.11 2.786 22.073 8.127 31.82 18.067 32.934 61.65 69.51 120.995 100.784 61.093 32.208 133.137 43.6 176.658 43.6s115.563-11.392 176.66-43.6c59.341-31.274 102.915-67.847 120.994-100.784 5.338-9.73 8.218-20.696 8.127-31.82.091-11.11-2.773-22.073-8.127-31.818" style="fill:#115740"/><path d="M510.959 324.5h93.014l-10.004 17.372h-64.684l45.204 17.877c3.942 1.56 5.576 6.261 3.463 9.938l-19.987 34.704a6.92 6.92 0 0 1-5.998 3.468H434.693l12-20.84h78.147l-36.417-14.408c-3.941-1.56-5.572-6.261-3.46-9.939l19.984-34.703h.01a6.93 6.93 0 0 1 6.002-3.468m-27.877 17.372h.004L493.09 324.5H382.205L372.2 341.87h27.72l-38.01 66h55.442l38.011-66zm-124.753 0 .003-.003h-.001zm-80.08-17.371-48.017 83.37h114.346l12-20.852h-58.902l8.01-13.89h31.168l10.006-17.37h-31.18l8.01-13.89h34.64l10.004-17.368zm333.724-13.9c-4.264-2.493-11.105-5.651-20.27-7.237v.013l-.003-.003s-8.218-1.664-32.361-3.338l-84.627-8.343c-46.515-4.117-87.339-14.836-125.194-41.47h-1.269l31.948 51.7H218.483l-47.006 81.628a6.94 6.94 0 0 1-6.002 3.471h-51.437l-12 20.84h102.877c4.95 0 9.526-2.65 12-6.95l52.022-90.31z" class="st0"/></svg>