<svg xmlns="http://www.w3.org/2000/svg" xml:space="preserve" width="720" height="720" viewBox="0 0 720 720"><path d="M675.702 241.614h-.013c-81.537 19.257-85.101-27.966-207.728-36.627-165.06-11.654-303.767 60.259-414.613 69.476-24.083 2-20.96 22.041-3.652 25.446 41.78 9.75 84.891 8.511 124.349 3.218-1.326 3.18-2.655 8.077 1.753 11.835 15.626 13.282 78.451 14.422 106.027 12.835 9.366-.536 29.356-2.425 29.356-2.425-5.7.543-14.608 17.915 4.229 22.808 116.407 32.591 171.175 85.216 234.048 168.106 25.548-3.265 49.607-34.008 39.35-57.474l5.1-12.594 18.816-8.715-5.392-42.035 28.692-13.51s44.68-120.083 47.294-128.828c2.615-8.742-2.8-12.652-7.616-11.516" style="fill:#fff"/><path d="M352.7 258.159c-80.706 4.767-177.543 50.38-300.847 30.05 109.285-14.747 192.596-50.895 294.215-65.286zm3.215 16.924c-53.062 10.594-101.266 32.154-165.671 33.904 74.717 14.082 126.512 1.593 171.155-3.67z" style="fill:#c60c30"/><path d="M667.438 256.283c-72.55 15.053-96.054-31.862-199.276-38.264-42.046-2.61-79.913-.678-115.461 3.988l5.795 35.88c23.754-.82 46.118 2.201 67.342 11.855-23.333-1.444-44.32.492-64.802 4.29l5.144 30.784c32.713-3.517 61.567-2.401 93.022 16.775-65.602-7.118-97.715 11.207-138.604 15.28 144.447 37.905 197.33 118.903 233.15 163.79 25.035-10.638 26.392-32.395 20.013-40.157l6.443-13.822.299-8.874 17.26-8.07-5.463-43.002 32.32-13.239zm-85.79 64.494-34.97 8.237 21.607-25.168-17.82-23.608 29.851 10.244 17.38-18.267 2.888 25.612 28.83 10.82-27.046 6.776 2.665 34.53z" style="fill:#024"/><path d="m544.08 448.897 15.917-10.902 12.116.712.448-6.901-12.377-5.928 4.259-4.652 22.896 1.428-6.582-50.995c-9.05-1.105-16.663 3.639-19.95 16.732L520.215 386c5.717-12.947 14.612-18.773 31.496-16.623-9.475-13.265-55.63-14.493-62.148 6.321l35.83 29.366 4.635 26.84-14.724-21.367c-13.234-11.465-27.141-19.498-37.725-6.843l-.003.01c39.044 27.342 59.095 57.634 79.442 84.145 10.349-4.3 13.597-16.31 10.19-20.553l-9.855-12.13 11.208.658 5.147-8.935-13.934-.827z" style="fill:#b0b7bc"/></svg>