<svg xmlns="http://www.w3.org/2000/svg" xml:space="preserve" id="Layer_1" width="720" height="720" x="0" y="0" version="1.1" viewBox="0 0 720 720"><style>.st0{fill:#fff}</style><path d="m580.177 110.13-.573-.41c-19.659 14.744-58.976 34.403-108.123 22.116C384.655 110.54 360.081 36 360.081 36s-24.736 74.457-111.398 95.836c-49.884 12.287-88.465-7.536-108.942-22.034h-15.564v401.365c0 10.649 2.458 30.307 18.922 50.785 20.396 24.574 54.799 40.382 102.39 47.263 38.497 5.488 66.347 17.447 86.006 36.532C346.239 659.754 360.164 684 360.164 684s14.334-24.737 28.341-38.253c19.823-19.085 47.918-30.962 86.007-36.532 47.672-6.889 81.911-22.935 102.389-47.59 16.464-19.987 18.922-40.055 18.922-50.13V110.13z" class="st0"/><path d="M581.242 125.283s-47.262 36.778-113.856 20.15c-77.57-19.413-108.123-77.488-108.123-77.488s-30.143 58.157-108.123 77.488c-65.529 16.383-113.038-20.477-113.038-20.477v385.802c.008 13.106 5.489 68.805 109.761 83.55 41.038 5.938 71.673 19.084 93.38 40.3a124 124 0 0 1 18.511 22.443c4.612-7.102 10.649-14.826 18.512-22.444 22.034-21.215 52.67-34.402 93.379-40.3 104.027-14.99 108.942-70.69 109.761-83.55v-385.8z" style="fill:#013369"/><path d="M555.03 511.331c0 2.13 3.277 44.232-86.825 58.075-77.98 12.041-108.123 49.229-108.123 49.229h-.82s-29.815-37.106-108.122-49.229c-89.48-13.843-86.826-55.945-86.826-58.075v-202.32h390.717zm-380.559-243.44-6.504 20.805 17.611-12.368 17.611 12.368-6.504-20.805 17.693-13.352h-21.624l-7.135-20.478-7.134 20.478H156.86l17.693 13.27zm76.587 0-6.504 20.805 17.611-12.368 17.611 12.368-6.504-20.805 17.693-13.352h-21.624l-7.135-20.478-7.134 20.478h-21.625l17.693 13.27zm-76.587-68.806-6.504 20.806 17.611-12.369 17.611 12.369-6.504-20.806 17.693-13.351h-21.624l-7.135-20.478-7.134 20.478H156.86l17.693 13.27zm76.587 0-6.504 20.806 17.611-12.369 17.611 12.369-6.504-20.806 17.693-13.351h-21.624l-7.135-20.478-7.134 20.478h-21.625l17.693 13.27zm300.696 89.202-.094-.066.02.066zm-17.651-54.635-7.135 20.478h-21.625l17.693 13.351-6.503 20.806 17.61-12.369 17.517 12.303-6.491-20.74 17.692-13.351h-21.624zm-94.567 54.635 17.61-12.369 17.528 12.31-6.494-20.747 17.693-13.351h-21.625l-7.142-20.478-7.135 20.478h-21.624l17.693 13.351zm35.222 0-.084-.06.018.06zm76.996-68.806-.094-.066.02.066zm-35.221 0 17.61-12.368 17.517 12.302-6.491-20.74 17.692-13.35h-21.624l-7.134-20.479-7.135 20.478h-21.625l17.693 13.352zm-41.775 0-.084-.059.018.06zm-35.222 0 17.61-12.368 17.528 12.31-6.494-20.747 17.693-13.352h-21.625l-7.142-20.478-7.135 20.478h-21.624l17.693 13.352zm-138.037 36.406c-9.83-72.41 42.348-114.761 99.113-115.494 3.858-.051 5.307.658 5.307.658s-12.532 4.75-26.948 15.727c0 0-3.49-1.417-7.094-2.334-2.334 1.523-4.701 3.096-6.93 4.693 6.717 1.638 15.318 5.103 23.673 11.96 1.835-1.737 3.809-3.588 5.742-5.3-1.86-1.548-5.103-3.826-7.986-5.456 12.778-12.59 21.952-17.365 21.952-17.365l-.115-.036c1.81-.164 2.876 2.08 3.424 3.432 7.798 19.25 9.706 42.84 3.882 65.365-9.01 34.321-37.76 66.078-99.931 74.13-1.327.172-2.972-.242-3.13-1.048 2.868-13.024 9.83-38.007 24.984-64.465a61.5 61.5 0 0 1 8.355 5.57c.876-1.523 2.113-3.448 3.94-6.405-7.618-6.078-16.383-10.247-26.376-12.123 0 0-1.908 3.678-3.284 6.561 0 0 3.841.688 8.518 2.367-13.45 28.67-17.987 55.372-19.249 67.413-3.8-6.143-6.79-20.158-7.847-27.85m48.917-85.143c9.338 2.048 18.176 6.209 26.048 12.696l.033-.016c1.761-1.958 3.62-3.875 5.537-5.84-5.406-4.465-13.27-9.715-24.983-12.533-2.04 1.704-4.366 3.547-6.635 5.693m-12.286 13.27c10.32 2.13 19.445 6.806 26.948 13.105l.05-.024c1.589-2.089 3.276-4.284 5.078-6.447-8.846-7.298-18.97-11.459-26.867-12.86-1.777 2.015-3.628 4.186-5.21 6.226m-10.075 14.826c9.256 1.72 18.692 5.873 26.785 12.614v-.008a433 433 0 0 1 4.62-6.7c-6.472-5.407-15.646-10.698-26.95-12.943-1.613 2.4-4.455 7.037-4.455 7.037" class="st0"/><path d="M256.286 329.53h54.963v24.9l-11.468 6.758v195.768l-29.324-8.765-42.43-125.324-.008 82.73 13.515 10.321v25.474l-58.894-14.99v-21.706l13.515-5.275v-138.43l-13.843-6.84v-24.9h44.56l41.47 127.347-.015-95.41-12.04-6.758zm67.1 24.982 12.778 6.48v174.47l-12.86 5.275v21.133l58.402 21.789v-24.901l-11.623-13.884V448.3h19.659l7.331 10.567h15.563v-52.178h-15.563l-7.618 11.14h-19.33v-58.648h25.801l6.75 20.805h22.28v-50.703h-101.57zm190.263 108.254-4.816 38.334-25.147 6.79V361.27l11.468-6.48v-25.228H436.75v25.228l12.369 6.48V516.9l-14.499 11.877v24.901l-.18.664 103.208-27.523v-64.054z" style="fill:#d50a0a"/></svg>