<svg xmlns="http://www.w3.org/2000/svg" xml:space="preserve" id="Layer_1" width="720" height="720" x="0" y="0" version="1.1" viewBox="0 0 720 720"><style>.st1{fill:#0050b5}.st2{fill:#fff}</style><path d="M669.579 272.799C632.225 162.408 528.685 88.088 412.146 88.017v.01c-97.34.145-187.166 52.348-235.481 136.852h-70.406l47.638 45.483-46.434 71.699H53.47l45.433 43.37L36 482.572l96.109-56.705 22.271 21.262C202.52 589.395 356.877 665.7 499.144 617.56 641.412 569.422 717.718 415.066 669.58 272.8" style="fill:#061922"/><path d="m145.494 316.621 31.724-48.98-25.75-24.583h41.654l28.809-44.499v44.5h48.232l-48.232 28.465v38.785l-25.12-23.97zm17.762 43.596v-40.92l-26.49 40.92H98.7l23.532 22.459L92.93 427.93l47.413-27.967 22.913 21.882v-35.41l44.444-26.22zm300.336-142.61a152.4 152.4 0 0 0-52-9.315l.024.012a138.8 138.8 0 0 0-57.536 12.319l-2.33 1.049v-48.124l-34.803 53.77H266.53l31.159 29.743-12.992 20.041v-19.14L245.26 318.88h-58.47l36.142 34.495-42.588 65.773 68.898-40.649 13.475 12.861.112.51a154 154 0 0 0 2.994 12.103l.628 2.133h-42.159l30.912 28.918-37.088 58.218 62.61-35.568a5 5 0 0 1 2.487-.71 7.65 7.65 0 0 1 4.599 2.189c.181.148 1.733 1.433 3.624 2.981 2.946 2.429 6.68 5.51 7.177 5.905a239.8 239.8 0 0 0 60.033 35.83c79.048 28.98 166.622-11.61 195.602-90.658 28.98-79.05-11.608-166.623-90.656-195.603" class="st1"/><path d="m326.408 510.912 10.371 7.135-27.627 40.48-10.36-7.124 14.859-21.793.552-.802-20.664 7.905-1.474-1.016-.45-21.782-.01-.937-15.558 22.785-10.371-7.123 27.615-40.48 10.472 7.191.294 24.605zm132.723 38.798-21.014 2.347-3.126 10.92 11.71-1.31-.124.44a11.96 11.96 0 0 1-10.033 8.525 14.13 14.13 0 0 1-10.585-3.004 14.32 14.32 0 0 1-5.198-9.665c-.927-7.729 4.587-14.746 12.316-15.674l.305-.033a14.36 14.36 0 0 1 10.63 3.05l.562.45 7.133-10.015-.563-.395a27.8 27.8 0 0 0-16.016-4.967 28.05 28.05 0 0 0-21.318 9.857 25.48 25.48 0 0 0-5.748 19.172c1.387 12.423 11.426 22.097 23.892 23.023 1.954.175 3.921.152 5.871-.068a24 24 0 0 0 16.659-9.507v-.011a26.9 26.9 0 0 0 5.063-19.273zm13.361-27.328 18.86 45.26 11.717-4.92-18.862-45.26zm79.452-6.254-.012.012a16.84 16.84 0 0 1-5.792 7.487c-6.02 4.93-14.896 4.046-19.827-1.974-4.93-6.02-4.046-14.896 1.975-19.826q.43-.354.889-.67a16.83 16.83 0 0 1 8.752-3.58l1.236-.103-7.548-10.003-.415.09a23.9 23.9 0 0 0-9.71 4.573 27.16 27.16 0 0 0-10.674 17.615c-1.926 14.066 7.79 27.075 21.823 29.222l.27.034a26.7 26.7 0 0 0 19.809-5.533 24.26 24.26 0 0 0 7.053-8.083l.192-.387-7.595-10.047zm70.471-84.29v.012a27.17 27.17 0 0 1-13.136 15.639 24.96 24.96 0 0 1-19.685 1.58c-13.658-4.942-20.763-19.983-15.906-33.671a28.5 28.5 0 0 1 2.025-4.663 26.8 26.8 0 0 1 11.18-11.032 25.14 25.14 0 0 1 19.753-1.547q.199.07.398.144c13.506 5.016 20.388 20.032 15.371 33.538m-11.932-14.486c-3.437-6.795-11.687-9.579-18.538-6.256a13.93 13.93 0 0 0-6.997 8.108l-.056.163c-2.387 7.226 1.535 15.019 8.761 17.406 1.468.496 3.007.752 4.556.757h.013a13.5 13.5 0 0 0 11.923-7.148 16.5 16.5 0 0 0 1.012-2.337 14.02 14.02 0 0 0-.674-10.693M403.967 189.91c-1.69.085-3.383.018-5.061-.203a26.7 26.7 0 0 1-14.308-6.437 25.34 25.34 0 0 1-8.619-17.918q-.009-.252-.013-.504c-.264-14.369 11.17-26.23 25.539-26.495.472-.022.945-.033 1.405-.033a26.92 26.92 0 0 1 17.886 6.64 25.16 25.16 0 0 1 8.615 17.817v.012c.443 14.508-10.938 26.638-25.444 27.121m12.542-26.444a13.62 13.62 0 0 0-11.923-13.086 16 16 0 0 0-2.531-.103c-7.459.303-13.339 6.457-13.303 13.92.036 7.66 6.275 13.838 13.933 13.801l.697-.024a13.72 13.72 0 0 0 9.622-4.533 13.84 13.84 0 0 0 3.505-9.975m63.58 38.006-14.58-4.47-.011.01-5.455-16.395-4.096 13.46-12.148-3.728 14.287-46.927 13.328 4.09c13.42 4.12 18.808 11.867 15.603 22.413a15.69 15.69 0 0 1-13.6 10.76l-.361.045zm-8.528-31.21a5.67 5.67 0 0 0 3.386-3.838 4.84 4.84 0 0 0-.192-3.84 9.3 9.3 0 0 0-5.827-3.85l-2.036-.62-3.475 11.427 2.159.664c1.075.339 2.193.518 3.32.533.91.012 1.814-.15 2.665-.476m53.825 45.403-13.365-8.931.17-.248 20.506-30.881-10.573-7.07-27.11 40.841 23.927 16zm62.273 11.71-26.277 45.537-8.537-10.67 3.812-6.256.1-.178-11.145-13.958-.136-.17-7.11 2.451-8.29-10.377 49.977-15.886h.013zm-17.008 5.724-14.817 5.06 6.65 8.31v.012zM367.364 527.61l.01.003.003-.003zm11.833 2.733 7.504 52.075-13.286-3.07-.876-7.273-.022-.213-17.57-4.055-4.074 6.346-12.913-2.98 29.414-43.56zm-7.953 30.644-1.854-15.58-8.258 12.827-.235.361zM595.68 286l-18.29 26.898 3.96 11.221 46.063-16.405-4.242-12.014-25.445 9.068 18.887-27.632-3.993-11.28-46.063 16.418 4.251 12.004 25.401-9.046zm29.201 87.587a24.78 24.78 0 0 1-16.367 5.951c-1.113-.012-2.283-.034-3.397-.135l-.35-.031c-12.834-1.236-22.236-12.643-21-25.477l-.135-15.199 48.888-.451.134 15.064h.01a25.87 25.87 0 0 1-7.783 20.278m-3.846-19.545-.023-2.958-25.647.237.033 2.97a12.93 12.93 0 0 0 3.274 8.819 12.78 12.78 0 0 0 9.607 3.68h.112q.724.042 1.45-.006c6.608-.426 11.62-6.132 11.194-12.742" class="st2"/><path d="M647.057 272.227c-36.64-98.069-130.29-163.105-234.98-163.185v-.012a249.4 249.4 0 0 0-172.081 68.843v14.115c93.26-95.516 246.294-97.345 341.811-4.084s97.345 246.295 4.084 341.81c-93.26 95.517-246.295 97.346-341.811 4.086a241.7 241.7 0 0 1-58.55-91.043l-8.82 5.205c48.529 129.884 193.16 195.834 323.042 147.306 129.883-48.529 195.834-193.16 147.305-323.041" class="st1"/><path d="M213.752 291.194 197.98 276.13l-26.738 15.774 16.525-25.518-15.851-15.13h25.648l16.187-25.012v25.011h26.378l-26.378 15.571zm-58.358 54.729-14.353 22.186h-22.667l14.005 13.37-14.68 22.684 23.769-14.024 13.925 13.313v-21.533l23.419-13.81h-23.418zm305.543-118.571a142.4 142.4 0 0 0-49.31-8.976l-.01.01a141.54 141.54 0 0 0-69.832 18.45v-29.572l-19.439 30.024h-30.888l19.088 18.224-19.898 30.757.068-.043a141.2 141.2 0 0 0-14.928 33.286V288.1l-25.691 39.7h-41.013l25.343 24.196-26.018 40.21 42.116-24.852 21.842 20.855a142 142 0 0 0 6.718 23.485l-2.464 4.551h-26.593l18.314 17.129-20.744 32.045 28-16.52a15.37 15.37 0 0 1 18.536 2.27c.238.182.676.575 1.339 1.14a222.6 222.6 0 0 0 65.963 41.802c73.663 27.476 155.652-9.966 183.13-83.629 27.476-73.663-9.965-155.654-83.63-183.13" class="st2"/><path d="M351.66 264.264a68.6 68.6 0 0 0-34.949 9.71 128.3 128.3 0 0 1 53.915-35.32 67.35 67.35 0 0 1 40.585-1.344 107.09 107.09 0 0 1 68.91 76.477v.01c-39.393-4.188-76.368-49.533-128.46-49.533m142.173 49.32.01.01c19.326-2.923 27.831-16.72 21.114-29.288a128.18 128.18 0 0 0-90.822-51.771 112.65 112.65 0 0 1 69.698 81.05m-10.384 79.989a177 177 0 0 0 2.814-26.265c-75.94-1.175-186.221-3.862-186.221-3.862v-4.966s110.281-2.69 186.221-3.862a177 177 0 0 0-2.814-26.265c-49.548-2.89-85.624-52.335-136.783-52.335-24.935-.055-47.145 15.757-55.253 39.339a129.63 129.63 0 0 0 .157 91.404c8.056 23.524 30.23 39.28 55.096 39.147 51.159 0 87.235-49.457 136.783-52.335m16.593-39.158c16.076-.227 29.844-.34 39.81-.33a127.8 127.8 0 0 0-14.153-52.323c.26 12.725-9.831 23.531-28.56 26.197a177 177 0 0 1 2.903 26.456m-19.92 53.735v-.013c-39.406 4.19-76.369 49.536-128.461 49.536a68.8 68.8 0 0 1-34.41-9.405c2.486 2.698 5.061 5.329 7.773 7.813a128 128 0 0 0 49.224 28.138 63.83 63.83 0 0 0 35.243.892 106.59 106.59 0 0 0 70.63-76.961m13.72.182a113.1 113.1 0 0 1-68.762 80.731 128.16 128.16 0 0 0 90.203-52.144c6.04-12.384-2.48-25.718-21.44-28.587m-.009-.002q.006 0 .01.002v-.002zm46.019-40.491c-9.956.011-23.747-.113-39.81-.328a180 180 0 0 1-2.902 26.456c18.684 2.665 28.775 13.438 28.56 26.119a128.75 128.75 0 0 0 14.174-52.214z" class="st1"/></svg>