<svg xmlns="http://www.w3.org/2000/svg" xml:space="preserve" id="Layer_1" width="720" height="720" x="0" y="0" version="1.1" viewBox="0 0 720 720"><style>.st0{fill:#fff}</style><path d="M629.811 238.14C662.273 187.501 684 136.933 684 136.933s-74.983 13.844-173.656 43.06l36.154-35.364S433.662 181.54 381.93 203.04l31.58-33.112c-77.253 35.882-119.576 55.613-186.922 98.519-68.354 43.556-68.414 79.373-154.395 116.906 1.382 4.769 5.772 12.496 12.921 18.641C52.77 432.067 36 464.115 36 464.115s3.41 50.058 21.265 64.955c26.582 22.192 52.524 25.477 71.534 21.432 27.162-5.777 43.851-23.454 43.851-23.454.155 35.288 24.443 56.017 24.443 56.017s30.84-13.906 58.649-47.933c14.505-17.75 28.55-47.078 31.881-58.625 3.212-5.292 28.895-18.498 45.783-14.105 18.735 4.852.598 50.616.598 50.616s41.976 19.219 94.335-18.704c0 0 36.3 9.653 106.842-53.203 49.051-43.716 86.219-97.28 86.219-97.28l-23.855-5.935c42.624-44.068 79.533-105.21 79.533-105.21s-40.988 4.777-47.267 5.453" class="st0"/><path d="M658.5 244.238s-32.177 3.745-47.607 5.22c31.863-45.325 55.806-98.68 55.806-98.68s-73.264 12.109-188.772 47.873l32.694-31.98s-112.655 38.348-166 61.967l27.008-28.314c-47.941 21.398-87.39 43.614-124.85 66.203C166.41 314.977 156.651 358.336 85.467 389c1.338 3.04 6.634 10.771 13.6 15.333C63.733 433.03 45.6 466.256 45.6 466.256s3.042 43.015 17.724 55.722c24.816 21.493 48.454 22.483 63.716 19.363 24.275-4.96 38.16-20.28 38.16-20.28s-30.09-10.086-24.875-22.014c7.379-16.894 37.661-23.384 41.547-17.44 1.272 1.957 3.572 6.491 1.782 18.106-8.208 53.295 15.458 71.503 15.458 71.503s26.031-13.22 49.551-42.177c13.559-16.695 27.233-45.177 30.097-55.44 2.623-9.43 35.6-27.056 57.123-20.205 27.797 8.859 9.676 52.723 9.676 52.723s40.802 15.548 89.786-30.54c.016.133.413 1.829.463 3.694.062 3.39-.547 5.563-.547 5.563s28.224 6.596 91.85-49.111c49.844-43.656 78.52-86.212 78.52-86.212s-21.574-4.92-26.857-5.701c47.549-45.655 79.725-99.572 79.725-99.572" style="fill:#004851"/><path d="M640.744 169.749s-64.163 13.504-94.874 20.07c-57.656 12.318-103.425 27.996-103.425 27.996l27.606-26.747s-88.521 27.947-140.771 53.588c-5.783 2.838-19.044 8.51-19.044 8.51l15.843-19.95s-41.994 17.928-96.851 54.427c-49.792 33.123-72.726 77.693-131.205 104.508 0 0 3.77 6.302 15.905 10.95-11.445 8.21-39.052 30.288-60 65.013 0 0 3.974 38.58 14.656 47.719 43.554 37.253 81.202 7.198 81.202 7.198s-26.07-11.549-18.628-28.003c9.243-20.434 38.521-23.962 46.23-23.609 0 0 19.35-.948 14.24 29.637-6.934 41.492 9.233 59.911 9.233 59.911s50.6-28.989 70.533-90.614c7.677-23.726 107.79-56.666 84.191 29.78 19.43 4.497 66.238-12.704 81.563-40.723 3.206 4.016 5.858 9.845 6.318 16.676 40.852-3.204 113.938-81.087 138.394-120.753-6.515-2.7-18.216-4.813-21.064-5.404 50.617-48.29 73.037-93.378 73.037-93.378s-20.852 1.134-40.194 2.5c32.017-44.988 47.092-89.297 47.092-89.297zM221.895 397.055c-8.1 4.84-17.708 3.659-21.481-2.602a11 11 0 0 1-1.08-2.496 38 38 0 0 0 3.492-2.213c.164.76.415 1.495.823 2.177 2.668 4.44 9.626 5.166 15.555 1.633 5.929-3.546 8.573-10.003 5.916-14.437-1.503-2.511-4.4-3.792-7.677-3.828 1.11-1.372 2.124-2.658 3.034-3.786 3.945.439 7.352 2.28 9.263 5.45 3.768 6.28.256 15.273-7.845 20.102"/><path d="M539.978 306.41s-38.053-2.015-54.682-1.641c-49.653 1.105-100.832 21.06-100.832 21.06 32.32-8.139 67.753-2.134 67.753-2.134-13.773.789-47.653 9.843-64.659 16.843-24.489 10.087-49.253 24.445-67.285 37.722-7.296 4.327-11.2 7.18-11.2 7.18s9.256-4.975 24.842-10.982c26.554-8.937 71.54-16.906 121.5-.128-77.008-15.336-137.839 20.726-137.839 20.726 44.103-14.408 72.075-.818 72.075-.818-53.457-6.496-93.324 21.628-107.047 39.175 7.726-15.613 19.148-25.681 19.148-25.681-2.752 1.361-5.47 2.919-8.155 4.633-11.02 6.347-56.11 29.247-95.274 4.918a89 89 0 0 1-6.242-4.244c13.015 6.817 34.505 7.405 43.426-1.377-31.231 8.064-36.781-6.195-37.448-15.067-2.014.382-5.254.134-7.677-.43 0 0 5.12-2.172 7.656-3.484.437-.222.858-.476 1.289-.719.253.863.603 1.704 1.079 2.501 3.77 6.266 13.376 7.432 21.481 2.597 8.093-4.823 11.605-13.825 7.834-20.096-1.9-3.17-5.307-5.017-9.252-5.461 2.806-3.261 8.218-10.476 16.556-16.476-6.146 7.364-8.111 12.357-8.344 12.985 3.76.59 7.074 2.194 8.662 5.179 3.126 5.863.993 10.462-.146 12.814h-.005c-2.09 4.418-5.968 8.777-11.192 12.07-7.073 4.465-14.826 5.858-20.525 4.25 0 0 1.017 1.866 2.673 2.966 2.76 1.843 10.889 4.521 22.655-.797 4.359-1.975 7.64-4.214 10.136-6.488 8.845-6.634 9.815-15.121 12.969-22.576 7.447-17.601 22.832-32.848 40.752-39.177-17.034 2.077-37.873 17.442-37.264 10.583.282-3.199 9.417-33.606 65.393-56.88 1.017-.372 2.03-.743 3.073-1.103 0 0-27.17 4.202-68.124 28.625-16.099 9.608-30.572 22.885-37.897 32.964.317-6.627 3.9-13.05 6.068-18.114-15.234 9.815-11.442 23.476-22.919 36.792-5.027 5.367-10.324 10.496-15.94 14.146-32.458 21.127-64.496 7.988-64.496 7.988 43.496-23.52 42.192-28.816 70.852-59.2 32.13-34.058 51.863-51.602 105.931-78.116-3.54 4.557-18.147 17.373-21.301 21.021 0 0 10.844-5.806 31.39-15.555 72.854-34.596 126.65-47.47 126.65-47.47l.019.002s-13.319 9.532-22.527 15.641c-12.49 8.292-23.561 16.298-23.561 16.298l1.382-.593c104.884-32.872 191.526-22.592 191.526-22.592-56.7 5.466-102.56 16.229-126.885 27.345 0 0 33.587-5.767 50.663-5.762 16.713 0 30.372 1.623 30.372 1.623-106.86 16.67-164.349 47.554-178.357 55.88-5.835 2.479-8.887 4.026-8.887 4.026s17.426-5.459 39.517-10.936c38.874-5.96 95.756-2.751 150.64 13.544m-335.046 81.735c.23.658.789 1.798 2.087 2.757 2.292 1.688 5.814 1.398 5.814 1.398-3.093-2.331-3.668-5.516-3.514-8.028a58 58 0 0 1-4.387 3.873" class="st0"/><path d="M445.672 353.617c27.293.695 56.12 6.245 83.857 20.149-4.4 9.435-15.535 23.467-33.295 40.948-16.915 16.642-28.156 21.435-31.085 23.026-.468.253-.708.368-.708.368-6.036-22.845-56.292-44.59-128.613-26.658-30.525 7.576-43.768 17.032-56.138 28.691a74 74 0 0 1 2.935-6.723c13.718-17.549 53.574-45.689 107.037-39.187 0 0-27.967-13.586-72.075.825 0 0 60.836-36.075 137.842-20.737-49.964-16.778-94.952-8.798-121.51.128 23.427-9.048 61.157-20.457 103.266-20.893h.005q4.217-.042 8.482.063M248.705 383.53s.08 7.359-7.758 14.479c8.85-6.64 9.814-15.127 12.968-22.584 7.458-17.602 22.835-32.846 40.758-39.175-17.037 2.078-37.873 17.45-37.267 10.588.285-3.198 9.423-33.616 65.391-56.885l.005-.003c-.582.201-1.954.703-2.056.745-51.294 19.14-78.263 49.545-74.273 64.941 1.498 5.783 11.537-.193 11.537-.193s-13.567 11.49-19.005 23.896c-.034.687 0 3.175-1.787 6.674 1.322.305 2.7.499 3.86.379 3.509-.387 7.627-2.862 7.627-2.862m198.97-110.086c41.522-8.226 89.76-10.275 109.183-12.21 27.696-26.75 38.576-60.518 38.576-60.529-.112.01-48.286 3.901-102.974 14.05-56.935 10.57-93.718 25.422-101.066 28.53 104.879-32.875 191.516-22.59 191.516-22.59-56.702 5.469-102.556 16.237-126.886 27.353 0 0 33.599-5.772 50.675-5.772 16.707 0 30.37 1.625 30.37 1.625-106.866 16.674-164.35 47.56-178.364 55.88 14.2-6.016 44.952-17.615 88.97-26.337m47.307 6.31h.005c-21.343.178-43.737 1.372-63.752 4.45-13.81 2.127-28.68 5.399-41.884 8.662 38.874-5.962 95.756-2.754 150.64 13.538 0 0-38.058-2.012-54.685-1.64-49.653 1.105-100.842 21.068-100.842 21.068 32.323-8.147 67.764-2.145 67.764-2.145-13.776.794-47.654 9.843-64.66 16.843-24.491 10.087-49.255 24.45-67.29 37.725 28.877-17.126 110.99-57.37 215.2-35.161 0 0 6.815-5.242 24.947-25.137 19.234-21.09 23.319-34.103 23.319-34.103s-41.814-4.492-88.762-4.1M272.826 432.347c-2.898 5.13-4.17 10.784-6.06 17.468-14.583 67.818-63.716 97.21-63.716 97.21-8.947-20.314-3.938-39.94-2.42-47.291 3.47-16.744-4.577-29.211-4.577-29.211 32.325 1.528.642 41.795 12.647 59.326 21.722-12.642 34.815-57.134 38.053-73.016.222-.598-3.07-2.929-5.725-3.914-31.202-10.034-83.53-1.445-102.444 9.997-59.237 35.859-3.817 60.447-3.817 60.447s-36.48 12.185-57.361-20.797c-5.122-8.743-6.413-24.68-7.534-37.144 21.72-36.754 55.851-51.367 65.339-57.91 8.223 2.23 23.13 3.251 34.879-.347l.01.003c-.005 0 39.603 50.052 102.726 25.179m-101.54-9.48c-9.203-.873-12.707-2.807-16.088-5.58h-.003c-7.867 4.077-13.752 7.241-13.752 7.241-4.643 6.956 5.132 5.58 9.66 4.231a7502 7502 0 0 1 20.183-5.892m181.404-.939c-39.464.852-57.567 18.506-57.567 18.506s18.228-13.724 49.158-8.751c45.76 7.356 44.453 36.193 44.453 36.193s20.593-8.866 31.014-26.977c0 0-12.927-12.326-36.287-16.46-11.43-2.014-21.665-2.71-30.771-2.51" style="fill:#a2aaad"/></svg>