<svg xmlns="http://www.w3.org/2000/svg" xml:space="preserve" width="720" height="720" viewBox="0 0 720 720"><path d="M360 36C181.364 36 36 181.34 36 360c0 178.653 145.35 324 324 324s324-145.35 324-324c.017-178.653-145.33-324-324-324"/><path d="M676.89 359.983c0-174.99-141.887-316.878-316.894-316.878C184.989 43.107 43.1 184.993 43.1 360c0 175.024 141.886 316.912 316.912 316.912l-.017-.017c175.007 0 316.894-141.887 316.894-316.912" style="fill:#a5acaf"/><path d="M359.996 96.404c-146.009 0-264.359 118.368-264.359 264.36 0 145.998 118.357 264.358 264.359 264.358v.017c145.998 0 264.358-118.357 264.358-264.359 0-145.991-118.35-264.376-264.358-264.376" style="fill:#fff"/><path d="M361.726 99.377c-7.642 93.164-45.024 119.65-131.16 130.704 61.525 3.116 123.813 27.462 130.82 131.054v.001C364.44 252.86 466.723 227.432 492.42 229.764c-63.348-3.44-125.87-30.209-130.693-130.387" style="fill:#eead1e"/><path d="M492.416 229.762c-7.631 93.164-44.886 120.318-131.033 131.373 61.525 3.115 124.387 30.429 131.393 134.02h.001c3.053-108.277 103.539-134.995 129.24-132.664-63.56-2.353-124.778-32.56-129.601-132.729" style="fill:#c60c30"/><path d="M361.402 361.135c-7.642 93.174-43.922 121.154-130.058 132.208 61.525 3.137 124.62 27.122 131.636 130.693 3.047-108.297 104.104-131.212 129.814-128.88-63.348-3.448-126.571-33.838-131.392-134.021" style="fill:#00539b"/><path d="M179.859 362.984c0 2.135-.385 2.988 3.9 2.923l-.008 11.879c-5.06-.124-14.635 1.596-14.678-9.577l-.082-21.04-3.964.13-.043-9.152 4.204-.133v-3.658l10.627-5.83v-.001l.044 9.622 4.046-.088.043 9.38-4.089-.067zm32.155 2.063.022 4.671c.08 3.105-1.21 6.48-6.457 8.287-5.569 1.735-9.051.693-12.302 0-4.278-1.567-6.356-4.97-6.553-9.766v-19.342c-.196-3.63 1.83-6.793 5.328-9.096 2.984-1.304 5.297-1.783 7.423-1.74h-.001c2.125.043 4.064.607 6.301 1.383 4.286 2.332 6.21 5.218 6.26 9.249v12.273h-16.732l-.015 5.452c.022 3.556 7.792 4.285 7.989-.197v-1.13zm-16.34-12.368 7.915.03c.867-3.683-1.795-5.663-4.282-5.54-2.195.109-4.255 1.854-3.634 5.51m-34.234-.714c-2.106-2.974-3.667-4.322-9.3-7.07.13 0-1.779-.816-1.64-.816-5.962-1.902-8.33-5.546-6.479-9.423 1.02-2.157 4.883-3.018 6.588-1.466 1.152 1.057 1.414 3.316 1.509 5.058l3.973-.028h7.301c.153-5.029-.925-7.858-2.004-9.753-2.82-4.98-8.105-7.439-13.61-7.402h.002a18.9 18.9 0 0 0-7.43 1.594c-2.865 1.254-4.848 3.527-6.248 6.02-1.399 2.522-2.186 4.525-2.361 7.404-.365 6.078 2.675 12.485 8.396 16.056 4.009 2.507 6.945 2.835 10.349 6.108 1.807 1.72 1.662 6.187 1.08 7.215-1.655 2.93-5.956 1.851-7.012.744-1.065-1.115-1.53-5.132-1.319-6.72l-11.349.066c-.437 5-.093 8.076 1.423 11.464 1.538 3.455 3.695 4.752 6.493 6.093 6.079 2.886 14.278 2.644 20.195-2.88 1.45-1.348 1.974-2.93 1.974-2.93 1.378-3.345 2.917-7.134 1.845-13.241-.503-2.857-1.742-5.197-2.376-6.093m142.649-14.264c-3.513.787-4.446 2.421-5.999 5.154l-.044-4.978-10.32.11v39.647h10.516v-22.98c.117-2.39-.473-5.504 8.411-4.877v-12.076zm-63.068 27.346.022 4.671c.072 3.105-1.21 6.48-6.457 8.287-5.569 1.735-9.046.693-12.303 0-4.279-1.567-6.355-4.97-6.552-9.766v-19.342c-.197-3.63 1.83-6.793 5.328-9.096 2.988-1.304 5.3-1.783 7.424-1.74s4.062.607 6.3 1.383c4.285 2.332 6.208 5.218 6.26 9.249v12.273H224.31l-.016 5.452c.022 3.556 7.791 4.285 7.988-.197v-1.13zm-16.341-12.368 7.914.03c.867-3.683-1.794-5.663-4.282-5.54-2.195.109-4.254 1.854-3.632 5.51m58.954-3.986v12.273h-16.777l.036 5.452c.015 3.556 7.785 4.285 7.974-.197v-1.13l8.746-.044.013 4.671c.087 3.105-1.201 6.48-6.449 8.287-5.568 1.735-9.045.693-12.303 0-4.278-1.567-6.354-4.97-6.551-9.766v-19.342c-.197-3.63 1.822-6.793 5.328-9.096 2.988-1.304 5.298-1.783 7.422-1.74 2.125.043 4.063.607 6.308 1.383 4.278 2.332 6.21 5.218 6.253 9.249m-12.73-1.524c-2.196.109-4.254 1.854-3.632 5.51l7.914.03c.867-3.683-1.795-5.663-4.282-5.54m63.313 15.873c-.568-1.983-.626-2.207-.983-2.9-2.12-4.045-4.847-4.832-7.668-5.78.095 0-2.623-.627-2.529-.627-4.97-.562-5.276-3.374-4.62-5.283.547-1.582 1.807-2.107 3.44-2.107 1.385.016 2.747.984 3.002 2.004.175.729.154 1.567.154 2.522l9.213.043c-.073-3.585-.73-7.303-2.735-9.321-2.455-2.49-6.388-4.147-10.357-4.09v.001c-1.803.027-3.614.408-5.297 1.226-1.618.78-2.799.61-5.503 3.956-1.283 1.582-1.646 3.929-1.77 5.962-.255 4.3 1.166 9.97 7.018 11.45 3.272.824 6.997 1.254 8.74 3.885.954 1.436.676 2.033.246 3.133-.612 1.56-4.088 1.539-5.48.992-1.377-.525-2.237-2.135-2.055-3.527l-8.906.058c.167 3.44.197 5.525 1.508 8.068 1.268 2.463 3.826 4.256 6.172 4.97 4.781 1.45 10.044 1.196 13.942-1.21.715-.444 2.72-2.267 3.536-3.732 1.341-2.449 2.135-5.583.932-9.693m-89.946 14.936h10.706v-55.843l-10.706-.03z"/></svg>