<svg xmlns="http://www.w3.org/2000/svg" xml:space="preserve" id="Layer_1" width="720" height="720" x="0" y="0" version="1.1" viewBox="0 0 720 720"><style>.st0{fill:#fff}</style><ellipse cx="360" cy="360" class="st0" rx="324" ry="191.583"/><ellipse cx="359.296" cy="361.409" rx="314.139" ry="183.13"/><ellipse cx="360.704" cy="363.522" rx="273.991" ry="169.043" style="fill:#b3995d"/><ellipse cx="361.409" cy="360.704" rx="252.157" ry="157.774" style="fill:#a00"/><path d="M558.413 340.102v.006h-.694v-5.74H457.702c-2.145-11.255-8.623-21.693-17.857-29.844-9.096-10.46-22.32-18.327-37.363-21.315l-6.24-1.282c-14.44-3.034-25.836-5.436-71.712-5.205 0 0-8.826-.303-17.388-1.437-2.168-.548-4.073-1.204-5.707-1.909.632-3.816 7.62-9.076 15.496-10.097.82-.148 50.465-9.283 101.57 23.813l1.256.808h33.583v-51.395h-5.744v-5.742h-46.092s-5.475 4.18-7.764 5.932c-13.269-3.323-78.267-17.545-134.384 7.021-23.585 9.749-38.222 28.146-37.186 46.825.529 9.419 5.04 17.632 12.83 24.006 5.734 7.156 14.748 12.742 26.491 16.123 16.62 4.786 30.683 6.76 44.326 7.542v23.433h5.75v5.742h17.522c7.258 0 9.125 4.022 9.57 5.52-22.364-1.464-56.38-7.831-81.413-31.003l-.942-1.016h-.176a96 96 0 0 1-4.066-4.113l-1.498-1.626h-25.209v73.162h5.745v5.734h20.553c3.016.208 12.568-.858 19.161-20.107 10.692 3.72 37.039 11.654 69.488 12.535v45.513c-1.134 15.282-34.799 20.069-46.53 20.53l-4.844.188v22.628h5.74v5.733h147.808v-21.647l-3.77-1.002a82 82 0 0 1-1.969-.528v-4.953l-4.616-.396c-8.307-.735-14.704-2.179-19.667-3.94-9.289-5.216-10.88-9.442-11.075-10.126v-24.269h43.323c4.573.694 8.489 2.697 11.815 5.307 6.24 7.682 9.079 16.465 9.128 16.607l1.105 3.553 3.721.024h.114c.517 1.299.794 2.124.798 2.168l1.106 3.564h23.277v-88.025h-5.738v-5.75h-23.171l-.837 4.031c-6.076 29.249-39.894 28.818-69.967 24.434a166 166 0 0 0 17.724-5.89c16.101-6.4 28.18-15.105 35.716-25.296h64.916c4.529.145 8.374 1.27 11.61 3.39 6.812 9.993 6.125 24.683 6.12 24.859l-.281 5.32h6.042l-.011.413-.292 5.326 5.338.012h20.536v-68.149z"/><path d="M261.87 381.628c-6.146 23.104-15.732 21.634-15.732 21.634H230.41v-63.056h17.944c42.03 45.467 114.05 37.683 114.05 37.683s21.39-.547 35.393-13.764c10.946-13.355 9.209-27.618-9.486-33.096-6.665-2.023-16.3-2.46-27.385-2.884-39.669-1.514-64.624 3.213-103.77-8.07-44.453-12.814-36.474-54.904 4.226-71.731 60.55-26.506 133.474-6.143 133.474-6.143l8.353-6.389h39.34v41.3h-27.04c-53.591-34.71-104.965-24.583-104.965-24.583-16.723 2.163-32.94 20.597-4.425 27.723 9.096 1.233 18.434 1.53 18.434 1.53 51.735-.267 58.905 2.818 76.933 6.389 46.876 9.289 72.805 68.562 4.676 95.625-70.342 27.924-144.293-2.168-144.293-2.168m82.324-11.891c20.712 3.77 38.211-1.75 46.566-9.5 8.86-8.221 6.06-20.377-14.973-20.377-20.9.118-50.44 0-64.92 0v16.734h18.687c12.936 0 14.642 13.143 14.64 13.143m115.612-30.32c.003 0-.218 12.989-4.944 18.715h53.803c30.732.98 28.51 39.322 28.51 39.322h15.495v-58.036zm-75.847 64.296c0-.003-17.718 4.422-38.612 3.987v44.567c-1.596 23.359-51.368 25.296-51.368 25.296v12.716h137.705v-12.716c-40.924-3.539-41.105-24.393-41.105-24.393v-29.76h48.914c22.374 3.194 30.974 31.228 30.974 31.228h14.5V376.71h-14.01c-9.74 46.943-81.674 25.824-86.998 27.003" class="st0"/></svg>