<svg xmlns="http://www.w3.org/2000/svg" xml:space="preserve" id="Layer_1" width="720" height="720" x="0" y="0" version="1.1" viewBox="0 0 720 720"><style>.st0{fill:#b1babf}</style><path d="M658.16 71.868c.022.394 1.47 27.792-3.709 52.901-5.041 24.438-7.815 33.751-7.815 33.751-10.672 6.255-27.95 13.952-53.2 18.154-47.13 7.859-89.898-4.8-136.589-23.131-46.7-18.33-109.187-38.072-167.16-31.416-56.215 6.457-96.435 29.229-117.818 44.075-21.384 14.834-25.32 18.758-43.648 23.999 0 0 14.408 5.67 21.824 5.67 0 0-3.494 14.42-2.189 19.21 0 0 30.548-13.968 34.045-7.417 3.494 6.549-10.911 10.924-20.945 13.527-10.032 2.627-36.231 2.173-36.231 2.173s12.284 9.513 16.62 16.114c0 0-23.16 10.087-48.918 6.59 0 0-.855 9.54 20.316 25.159-4.51 1.614-10.219 4.23-13.755 8.003 0 0 22.185-4.575 36.126 10.952 3.668 4.603 4.87 8.724 4.456 13.926-.76 9.431-4.375 13.033-13.259 18.903-5.083 2.066-10.486 4.655-15.702 7.843-24.534 15.076-42.475 38.02-55.066 64.233-5.458 11.35-9.818 24.544-12.9 36.509-3.08 12.032-4.215 22.72-4.936 29.389-.721 6.656-1.707 27.64-1.707 27.64s11.005-15.42 16.167-22.812c5.135-7.361 37.685-48.29 85.096-60.149 15.168-3.855 30.268-5.468 44.703-5.468 34.698-.026 65.686 9.39 84.028 18.369 26.626 12.886 70.37 43.303 127.716 52.811 13.5 2.23 28.055 3.335 43.141 3.335 14.473 0 29.455-1.054 44.423-3.096a1787 1787 0 0 1-24.28 35.34c-7.817-7.443-18.423-8.219-18.423-8.219-12.86-1.214-19.302 6.619-19.302 6.619-2.603 2.813-4.553 6.47-5.31 10.779-.908 3.987.17 8.63.92 10.992 2.453 7.793 9.11 11.34 11.699 12.472-18.796 25.04-24.253 53.868-24.253 53.881l-8.575 7.563 3.093 12.54c-4.776 15.381 2.721 26.92 12.449 31.697 9.87 4.857 19.09 2.042 19.09 2.042a26 26 0 0 0 14.632-10.646c.55-.813 1.03-1.639 1.453-2.467 2.002-1.08 3.722-2.294 5.19-3.602 2.708.307 9.644.52 9.644.52 14.22-.121 28.123-4.15 38.727-13.155 8.351-7.47 17.542-20.21 17.86-37.62 0-3.266.6-16.447-10.282-27.934 68.689-100.849 113.28-165.774 141.749-231.825 75.406-175.06 11.119-248.069 10.805-248.724" class="st0"/><path d="M663.732 102h-.009c-.762 36.524-10.766 61.962-10.766 61.962-14.3 8.565-33.819 17.703-56.107 21.011-46.57 6.886-69.45-.079-112.577-13.873-43.102-13.794-107.788-43.555-174.172-43.114-66.406.425-113.804 29.255-156.261 62.042.652-.2 11.072-3.453 14.834-4.696 0 0-9.911 11.634-12.926 18.102 0 0 19.757-14.767 46.876-13.192 0 0-9.432 2.362-13.366 8.258 0 0 11.005-2.373 12.965 1.963 1.974 4.322-4.708 14.153-16.887 19.65-12.18 5.51-31.843 9.83-44.423 10.62 0 0 12.594 3.936 20.838 11.793 0 0-9.605 1.374-20.049 5.497-8.698 3.44-24.374 5.51-31.056 4.721 0 0 9.151 8.564 20.049 15.328 31.908 19.794 18.436 49.144 8.165 58.76-6.763 1.921-77.266 21.105-93.42 134.922 0 0 35.725-49.839 89.819-63.606 54.106-13.766 106.558 0 134.091 13.434 27.533 13.448 70.155 42.942 125.558 52.133 30.467 5.056 67.152 4.136 102.664-2.656-.574.88-27.669 41.182-39.314 57.43 0 0-8.643-10.858-20.342-11.938 0 0-4.91-.986-8.886 1.08v.013c-3.51 1.615-6.51 5.07-7.485 9.86-.983 4.856.776 8.618 3.07 11.285 2.186 2.548 4.936 3.84 7.162 4.44 1.99.48 4.75 1.694 5.271 4.323-5.337 8.218-12.646 20.09-17.917 31.562-4.136 9.031-6.11 16.78-7.764 21.999-1.56 5.348-2.95 7.443-3.403 7.71l-5.615 4.951s2.147 8.685 2.763 10.137a18 18 0 0 0-2.056 8.26v.158c0 5.896 2.91 11.686 8.192 15.17 4.123 2.841 10.085 3.014 10.085 3.014 5.885 0 11.66-2.907 15.141-8.137a17.7 17.7 0 0 0 1.95-3.937c4.229-1.72 6.83-4.12 8.177-6.095 3.132.721 12.26 1 12.632 1 12.751-.093 24.838-3.75 33.685-11.284 7.108-6.362 14.874-17.246 15.126-31.83 0-2.602.787-16.315-12.378-27.2 11.377-16.448 25.357-36.95 40.058-59.19 27.334-41.42 49.692-77.412 66.7-107.464 17.796-30.55 73.476-114.472 73.355-229.385-.052-33.49-12.047-54.992-12.047-54.992"/><path d="M570.888 197.25c-64.057-.387-133.441-36.434-194.994-50.17-22.3-4.976-42.624-7.095-60.993-7.191l.009.002c-88.506-.469-131.625 45.991-131.647 46.013.014-.013 21.024-7.657 31.617-.775 11.511 7.484 1.36 26.788-2.346 30.642-10.646 11.088-25.945 19.273-42.848 19.273 0 0 17.887 4.298 23.675 9.622 0 0-16.591 2.174-25.638 5.311-9.03 3.146-26.72 8.255-30.642 8.255 0 0 46.596 21.305 17.674 66.805 0 0 20.222-3.096 37.073 4.989 0 0-92.312-14.9-123.54 86.99 11.764-9.697 48.73-35.778 106.278-36.058 69.473-.307 99.276 15.673 126.874 32.388 42.074 25.506 73.89 33.056 98.06 37.565 69.463 12.968 139.22-10.391 169.44-24.479 87.741-134.425 97.835-210.355 99.33-264.573-28.347 28.534-75.852 35.526-97.382 35.392m-47.617 155.283c-31.056 21.968-79.679 28.679-79.679 28.679-.547 2.108-3.763 4.323-3.763 4.323s4.975 1.84 17.198 11.03c12.203 9.192 8.897 8.738 12.79 11.367 3.66 2.456 5.835 1.957 6.085 1.886l.026-.008c1.174 2.36 1.323 5.871 1.323 5.871 1.626 1.534 9.59 9.136 2.187 17.006-7.419 7.872-15.983.563-15.983.563-3.03.64-5.974-.361-5.974-.361s-15.85 9.98-31.589-.892c-12.81-8.832-12.032-19.304-11.285-22.92-4.325 2.483-8.967 4.418-13.73 5.91-12.846 4.029-29.24 5.696-45.527.28-10.698-3.604-19.556-9.843-26.547-16.767-7.005-6.936-12.18-14.593-15.556-21.492a69 69 0 0 1-1.413-3.107c-1.12 2.668-6.485 12.793-23.092 12.072-19.118-.828-25.745-18.342-25.745-18.342s-2.95-.986-4.976-3.309c0 0-11.228.666-12.402-10.087-1.162-10.75 9.788-12.004 12.017-12.245 0 0 2.215-2.72 4.574-3.895 0 0 1.334 1.935 6.016 2.189 4.682.252 1.775-1.39 17.063-1.348 15.288.027 20.358 1.576 20.358 1.576s-1.23-3.71-.388-5.725c0 0-34.723-34.682-46.237-70.94-11.513-36.259-7.99-49.706 5.99-87.938 0 0 10.366 65.138 42.182 106.066 18.156 23.357 38.581 41.568 52.787 52.906.32 0 .65.015.973.015-3.028-3.376-5.335-7.34-6.48-11.874-2.842-11.205-7.498-21.622-9.632-29.921-2.134-8.31 2.614-24.92 2.614-24.92-6.376-10.218-3.269-27.04-3.269-27.04s3.455-1.64 6.084-4.828c2.614-3.201 1.705-12.646 3.84-26.545 2.135-13.902 11.18-28.283 31.219-36.461 4.98-2.036 10.588-2.89 16.202-3.035 16.839-.425 33.728 5.594 33.928 5.664.267.079 30.59 9.62 41.58 28.135 11.047 18.61 9.58 35.552 2.897 47.915-6.684 12.379-13.114 19.357-12.94 23.493.159 4.121 1.931 7.508 1.931 7.508s-7.655 15.302-18.93 19.626c0 0-6.228 16.104-12.95 21.438-6.697 5.337-16.701 10.832-25.734 18.062-3.56 2.855-7.655 4.612-12.015 5.508.291.213.572.427.865.642 18.156-.482 45.317-2.682 73.742-10.326 50.066-13.472 97.624-59.178 97.624-59.178-11.905 38.928-17.218 51.788-48.259 73.774" style="fill:#a71930"/><path d="M419.133 385.01c-4.259-12.673-18.454-32.453-40.345-39.797-6.608-2.217-13.36-3.06-19.865-2.957-19.517.32-36.831 9.184-41.56 15.156a8 8 0 0 0-.7 1.023c-.022.04-.046.114-.077.14 1.865-1.527 3.93-1.825 3.93-1.825-3.275 1.514-3.13 4.788-2.57 5.997 4.77 11.667 19.666 30.828 42.083 38.356 22.84 7.662 46.56 1.466 57.187-5.234 1.236-.874 2.875-3.083 1.278-6.095 0 0 1.244 1.273 1.895 3.317.278-1.98-.154-4.792-1.256-8.08m-72.015-25.887c-9.74-1.74-18.587-2.462-25.736-2.524 3.703-.821 9.048-1.371 15.45-1.323 3.84.03 8.063.278 12.539.81q-1.17 1.47-2.253 3.037m48.367 16.28a58 58 0 0 0 .046-3.74h.002c10.074 5.908 17.57 12.263 21.392 16.816-5.604-4.132-12.887-8.72-21.44-13.075" style="fill:#dc4405"/><path d="M395.52 371.002c.004.222.009.44.017.664a59 59 0 0 1-.046 3.74c-.013.36-.035.72-.057 1.082a207 207 0 0 0-2.872-1.426 39 39 0 0 1-1.612 6.424 106 106 0 0 0-4.378-2.404 51 51 0 0 0 1.55-6.108 178 178 0 0 0-4.845-2.112 73 73 0 0 1-1.566 5.837 116 116 0 0 0-4.58-1.998 124 124 0 0 0 1.64-5.649 173 173 0 0 0-4.917-1.807q-.856 2.732-1.768 5.51a114 114 0 0 0-4.724-1.586 367 367 0 0 1 1.91-5.46 178 178 0 0 0-5.014-1.51 120 120 0 0 0-2.095 5.482 113 113 0 0 0-4.855-1.172 71 71 0 0 1 2.26-5.57c-1.734-.44-3.456-.847-5.152-1.222a50 50 0 0 0-2.425 5.767c-1.64-.285-3.295-.524-4.947-.73a39.4 39.4 0 0 1 2.56-6.031 174 174 0 0 0-3.173-.579q.342-.512.692-1.019a54 54 0 0 1 2.252-3.036q.136-.175.272-.344 1.357.16 2.747.36a50 50 0 0 1 2.614-3.456q2.315.3 4.526.673a61 61 0 0 0-2.403 3.551q2.451.447 4.967 1.015a85 85 0 0 1 2.127-3.67c1.407.3 2.796.629 4.158.977q-.941 1.856-1.84 3.788 2.338.622 4.706 1.363c.497-1.321.995-2.627 1.494-3.909q1.985.616 3.942 1.321a496 496 0 0 1-1.17 4.014c1.555.554 3.078 1.137 4.576 1.737q.445-2.071.816-4.107a95 95 0 0 1 3.908 1.726 87 87 0 0 1-.508 4.171q2.34 1.047 4.566 2.152.18-2.11.214-4.209 1.996 1.035 4.023 2.195a51 51 0 0 1 .009 4.222c.815.445 1.612.894 2.4 1.343m-76.094-61.608c-44.673-48.395-53.209-93.393-56.08-105.48h-.003s-4.248 26.549 16.355 64.291l1.479 2.656c.964 1.568 2.173 3.667 3.729 6.213 7.464 11.954 17.389 24.808 30.679 38.19l.033.033c.828.812 16.708 16.455 23.574 22.504a83 83 0 0 1 8.549-1.84c-9.811-8.113-19.477-16.992-28.315-26.567m32.821-63.27s4.603-2.963 6.95-7.296c2.375-4.325 4.323-12.872 4.323-12.872 8.87-1.001 17.17-10.448 17.676-11.035-2.2 2.122-5.081 3.707-8.072 4.936.16-2.027-.175-5.44-.08-10.495.12-6.279 6.15-30.265 35.542-29.892 3.044.039 6.332.335 9.894.942 7 1.454 12.62 3.15 14.088 3.615.144.052.28.094.427.146.719.228 1.705.548 2.892.986.346.136.708.265 1.082.412q.741.279 1.56.616 1.083.438 2.283.96c.787.36 1.613.736 2.467 1.147a71 71 0 0 1 5.817 3.151c.2.105.399.224.585.344a.7.7 0 0 1 .173.11c15.461 9.403 19.705 20.888 19.705 30.385 0 8.352-3.282 15.183-5.083 17.703-2.535 3.52-4.815 5.935-5.99 7.712-1.4-2.51-2.482-5.178-2.892-7.846v.042c.055.788.96 12.904 7.125 19.124l.32.313s-3.589 8.017-4.336 12.887c-.734 4.884 1.16 10.017 1.16 10.017s-.483.773-1.175 1.84c-3.788 4.47-10.418 8.339-13.98 7.684-4.043-.748-13.781-4.056-19.423-2.895-4.629.96-7.42 3.576-8.952 6.218 0 0 .014-.013.027-.013-.412.495-.8 1.043-1.065 1.683 0 0-1.203 2.092-1.536 4.892-.824-.36-1.531-.638-1.531-.638a2 2 0 0 1-.027.56c-.054.41-.239 1.081-.265 1.173-.017.147-.03.252-.055.294-.094.372-.201.747-.293 1.122a85 85 0 0 1-1.137 3.8.3.3 0 0 0-.053.095c-.425 1.267-1.704.852-1.704.852-.013 0-.147-.052-.147-.052a187 187 0 0 0-3.03-1.468s-1.2-.625-1.012-1.867c-.013-.028 0-.054.013-.094.013-.052 0-.092.028-.134.04-.107.066-.238.106-.333.332-1.2 1.04-3.774 1.134-4.375.12-.705.588-2.002.881-2.51-.201-.2-.708-.745-1.148-.96-.375-.189-.773-.268-1.321-.228-.2.173-.532.692-.548.973-.013.16-.436 1.494-.907 2.962-.48 1.48-1.025 3.109-1.266 3.843-.265.8-.84.972-1.306.972-.291 0-.534-.068-.64-.103l-.054-.017c-.934-.375-2.202-.828-3.204-1.203-.063-.013-.116-.052-.184-.066-1.2-.453-1.121-1.48-1.042-1.893.519-1.549 1.187-3.51 1.695-5.043.108-.36.235-.72.342-1.095 0-.014.018-.027.03-.053.042-.158.496-1.306 1.188-1.652-.453-.346-1.362-.708-2.04-.949-.817-.267-2.271-.519-2.35-.532.239.52.296 1.424.173 1.878-.173.6-1.775 6.191-1.84 6.406-.082.212-.36.878-.8 1.04-.427.158-1.626-.227-1.626-.227l-.201-.04c-1.015-.309-2.456-.534-3.416-.802 0 0-1.575-.451-1.082-1.893 0 0 1.027-3.764 1.536-5.55 0-.04.013-.107.026-.157.04-.136.267-.88.346-2.016.08-1.134-.68-1.402-1.238-1.402-.532 0-1.124.96-1.255 1.519-.145.6-.48 1.601-.48 1.601l-.042.094a3 3 0 0 0-.105.265 134 134 0 0 0-1.472 4.11c-.462 1.232-1.742 1.133-2.003 1.1l-.046-.006a145 145 0 0 0-3.284-.655c-.015 0-.142-.04-.142-.053 0 0-1.284-.44-.857-1.707 0-.041 0-.08.026-.12.458-1.323.84-2.388 1.374-3.707.145-.346.684-1.615.988-2.11.32-.493.745-.76.745-.76.018-.294-.423-.841-1.225-1.122q-.14-.04-.32-.079c.467-1.16 1.052-2.76 1.335-4.108.878-3.268.773-7.872-3.017-12.205-3.801-4.336-13.582-7.565-17.236-9.406-3.672-1.838-6.967-10.68-6.527-16.79m66.091 13.649c.013 2.469.854 12.006 5.046 14.501.024.013.05.029.094.044 4.171 2.857 12.87 4.189 17.008 3.68.545-.063 1.573-.385 1.597-.385l.017.015c1.828-1.027 3.467-1.8 4.96-3.363 1.99-2.068 3.56-4.618 4.696-7.232a27.5 27.5 0 0 0 1.244-3.56s.88-4.047 2.588-4.645c.188-.026.357-.052.532-.079l.12.014-.01-.04s-5.313-1.334-11.356-.642a42 42 0 0 0-1.733.241c-6.74 1.227-13.02 2.255-17.328.8-1.415-.469-2.646-1.269-3.687-2.136-.013-.027-.04-.042-.05-.053a14 14 0 0 1-.8-.736 21 21 0 0 1-2.563-2.96 2 2 0 0 0-.077-.107c-.02.074-.309 4.189-.298 6.643m-16.565 4.732h-.003c-.731 2.189-1.971 3.55-3.2 4.962-2.281 2.857-4.229 2.656-4.976 4.912l-.745 2.2c-.427 1.268.026 2.603.96 3.576.453.468.988.867 1.656 1.095 2.08.692 4.283-.28 4.908-2.176a.625.625 0 0 1 .786-.374c.333.122.52.469.414.788-.642 1.878.52 3.988 2.585 4.682.669.215 1.335.215 1.964.134 1.345-.201 2.52-.999 2.944-2.28l.75-2.203c.749-2.254-.92-3.27-1.015-6.912-.134-1.88-.265-3.709.469-5.882.59-1.764-.397-3.714-2.237-4.525-.125-.048-.248-.102-.377-.144-.11-.042-.228-.066-.346-.092-1.963-.498-3.952.48-4.537 2.239m-33.692-13.336c.068.134 1.084 1.895 1.032 1.95-.094.079-.19.16-.298.228q.159-.097.298-.217c.013 0 .624.87 1.025 1.27 2.989 2.895 10.738 7.07 15.797 7.325.041 0 .08.026.12.026 4.829.532 11.233-6.562 12.738-8.536 1.499-1.96 3.79-5.47 3.79-5.47s-1.763.589-3.978.867q-.517.06-1.076.079c-.03.015-.053.015-.068.015-1.347.066-2.826-.043-4.23-.508-4.308-1.44-8.7-6.056-13.339-11.1a32 32 0 0 0-1.242-1.237c-4.268-4.068-9.112-6.19-9.417-6.312h-.002c.027.029.042.042.042.053l.028.013c.119.12.254.254.375.388 1.001 1.507-.734 5.256-.734 5.256a28 28 0 0 0-1.085 3.347c-1.003 3.878-1.375 8.694.224 12.563m-91.339 97.953c2.465-1.481 6.339-2.377 8.786-2.51.07-.008-.863-.027-1.33-.025-3.039.015-6.078.315-9.086.734-2.664.37-5.223.837-7.687.813a13 13 0 0 1-1.718-.11l-.55-.087a9.8 9.8 0 0 1-2.033-.61c.03.11 1.466 6.188 9.49 6.188.077-.086.358-.616.408-.71.767-1.45 2.272-2.831 3.681-3.653.013-.01.026-.024.04-.03m12.305-2.412a108 108 0 0 0-3.15-.103c-2.183.42-4.687 1.202-6.438 2.353-2.033 1.316-3.345 2.962-4.038 4.368 6.66-.786 19.276-.62 22.466-.07.02-.024.048-.05.072-.077 1.84-2.907 4.568-4.204 6.549-4.861-3.302-.521-7.171-.964-10.5-1.262a121 121 0 0 0-4.961-.348m180.775 69.962a9.4 9.4 0 0 1-1.935-.706c-.677-.33-1.325-.754-1.967-1.231-.848-.631-3.346-2.99-3.95-3.604-.822-.83-1.652-1.65-2.483-2.47-1.01-.992-3.2-3.016-4.224-3.79-.225-.168-2.909-2.324-2.909-2.324.099.08 4.555 4.785 5.532 7.348.587 1.45.911 3.25.817 4.816a7.6 7.6 0 0 1-.169 1.176c.007.007.018.029.025.037q.421.32.83.594c.445.298.911.563 1.385.809.751.387 1.533.685 2.355.883.587.14 1.24.232 1.847.232 1.761 0 3.393-.686 4.787-1.729zm43.325 41.044c-.692 1.051-35.282 52.684-47.516 69.68.291.253 8.533 7.31 8.803 7.525 3.306-4.456 51.308-73.121 57.404-82.367-.171.066-.347.12-.52.173-5.963 1.867-12.03 3.495-18.171 4.989m-78.226-144.328c-.504-2.195-3.481-4.062-4.507-4.651-.611.112-3.047.598-4.266 1.499-1.395 1.03-6.46 8.568-13.099 11.403.629-3.73-1.783-5.663-2.406-5.6-.615.075-1.108 1.536-1.235 1.906-.127.375-1.409 2.897-1.845 4.08-.438 1.185-.309 1.28-.309 1.28a64 64 0 0 1-3.183-.172 99 99 0 0 0 2.776-5.718c.617-1.586-1.074-1.935-1.085-1.943a85 85 0 0 1-2.833-.482c-.035-.007-.06 0-.103-.002-1.183-.213-1.901.528-2.055.981-.118.302-.23.598-.357.896-.431 1.05-.9 2.093-1.35 3.138-.021.059-.039.127-.067.181-.537 1.321-.081 2.426-.081 2.426-.373-.027-1.25.004-2.73-.29-.704-.138-1.643-.556-1.643-.556.521-.425.839-1.238.85-1.233.944-2.307 2.403-5.892 2.403-5.892s.578-1.542-.427-1.84a86 86 0 0 1-4.062-1.113c-1.019-.217-1.464.622-1.578.894-.208.54-.573 1.376-.696 1.752q-.78 2.215-1.543 4.406.002.034-.008.06c-.318.944-.066 1.829-.066 1.829s-1.308-.267-1.992-.45c-.694-.181-1.726-.906-1.726-.906.164-.171.366-.638.508-.97.627-2.19 1.214-4.933 1.74-7.222.04-.32.046-1.27-.916-1.676a86 86 0 0 1-3.42-1.323c-1.001-.316-1.437.508-1.597.997-.454 2.07-.984 4.546-1.326 6.344-.144 1.26.425 2.145.425 2.145-.528-.133-1.597-.593-2.458-.96-.563-.236-1.814-1.055-1.814-1.055.642-.057 1.008-1.422 1.008-1.422.712-1.477 1.185-2.756 1.744-4.154.022-.066.05-.123.072-.19.018-.043.022-.073.046-.128.552-1.485-.482-2.272-.655-2.399-1.487-.743-3.161-1.619-3.179-1.619-.852-.456-1.42.147-1.601.732-.592 1.67-1.512 3.185-1.834 5.024-.15 1.04-.062 1.77-.062 1.77-2.03-.966-2.778-2.496-2.778-2.496.487-.58 1.133-2.627 1.144-4.544.022-1.917.143-3.704-.754-4.338-.896-.637-2.392.973-3.161 2.11-.765 1.14-.942 1.799-.942 1.799v.147c-3.595-6.26-3.094-15.363-3.578-17.032-.497-1.659-2.607-3.878-2.607-3.878s-1.174-.204-2.612-.189c-1.437.016-3.137.246-4.18 1.122 0 0 1.216 6.689 4.494 12.567 3.273 5.878 7.175 16.195 8.619 20.362.593 1.71 1.753 3.65 3.648 5.596 2.602-1.446 8.982-.995 15.93 1.338 6.647 2.235 11.833 5.52 13.325 8.177 2.392-.44 4.28-1.24 5.672-2.167 3.674-2.45 12.999-8.327 19.161-11.04 6.16-2.71 11.16-7.31 11.16-7.31m-3.56 258.67c.013-.028.026-.052.026-.08-.36.747-.732 1.496-1.065 2.23-7.31 15.983-7.085 27.48-14.25 33.83 0 0 .176.052.485.094 1.921.252 9.177-.026 12.926-17.247v-.015c-.252-.96-.471-1.95-.602-3.028-.627-4.978.891-11.807 2.48-15.783m20.737-169.682c-.193-.14-.386-.285-.579-.427a107 107 0 0 0-4.664-3.144 164 164 0 0 0-6.724-4.09c-1.078-.62-2.165-1.227-3.25-1.839-.23-.129-.44-.234-.663-.361 1.18 1.713 2.594 4.52 2.316 7.94 2.859 1.48 13.025 8.954 17.86 13.607.298-1.542.239-3.648-.587-5.924-.706-1.976-2.222-4.106-3.71-5.762m99.681-96.599c-1.137.938-2.38 1.948-3.79 3.065-15.461 12.206-47.7 34.163-100.197 43.597-12.724 2.285-25.69 3.536-38.312 4.095a82 82 0 0 1 5.712 6.561s5.523-.407 6.286-.468c9.53-.8 19.054-1.964 28.468-3.662 23.287-4.204 40.893-10.152 49.256-13.298a181 181 0 0 0 5.65-2.356c41.137-17.842 51.026-40.557 51.276-41.14-.048.098-1.696 1.457-4.349 3.606m-103.838 237.6q-.199.302-.398.599c-2.816 4.375-5.594 8.781-8.234 13.261-2.537 4.299-7.515 13.904-7.698 14.279-.027.199-1.238 7.36.09 12.921l.017-.035c.048-.127.12-.291-.013.049 8.216-18.089 17.463-30.176 17.479-30.189-1.683-4.962-1.354-9.962-1.243-10.884" style="fill:#fff"/><path d="M413.639 241.608c.493.188 2.642 1.253 9.806.692 8.27-.385 22.945-1.908 27.253 3.427 0 .144-10.434-1.026-17.466.11-6.99 1.48-16.914 2.427-21.316.891-4.427-1.428-11.78-8.176-16.449-13.566-4.894-5.111-13.86-10.446-13.86-10.62q.624-.152 1.293-.177c6.685-.236 16.544 8.913 22.494 13.88 5.403 4.778 7.763 5.231 8.245 5.363m-40.589-32.241c.136-6.924 7.458-35.42 45.435-28.95l-.184-.04c-1.24-.252-2.522-.504-3.843-.732a73 73 0 0 0-10.271-.75h-.002c-30.763.134-39.51 23.025-40.806 28.265-1.373 5.578-1.36 12.646-1.682 15.85 0 0 5.909-.842 11.434-3.149.158-2.024-.173-5.44-.081-10.494M313.718 335.11a.7.7 0 0 0-.252.026c-.436.12-.738.478-.618 1.168.117.688.822 2.7-.206 5.784-1.031 3.098-3.347 5.094-5.63 6.093-2.274.995-5.076 3.253-5.863 6.943-.776 3.69-2.771 8.54-2.217 11.745.21 1.223 1.417 2.912 4.204 2.791-1.904 1.578-3.7 1.46-5.162.791-2.307 4.257-5.78 6.01-12.093 4.785-6.466-1.253-14.649-7.451-16.347-17.917 0-.186 2.163-.206 3.05-.206h.394c-.38-.5-.79-1.22-.819-2.002-.01-.436.171-1 .451-1.6-8.025 0-9.46-6.075-9.49-6.185 0 0-2.546 2.045-2.654 5.535a3.55 3.55 0 0 0-2.957-2.844 3.54 3.54 0 0 0-4.038 2.973 3.557 3.557 0 0 0 2.98 4.042 3.55 3.55 0 0 0 4.04-2.975c.006-.046.004-.094.01-.14.046.412.125.848.248 1.292.337 1.234.795 2.115 1.266 2.78 1.13 1.598 2.362 1.83 2.362 1.83.013.004.17-.228.184-.241.085-.099.804-.85.898-.789-.813-.523-4.272-3.148-2.166-8.877 0 0-.121 5.17 4.156 7.922.469 2.143 3.825 14.938 16.372 18.923 13.7 4.35 18.982-2.178 20.21-4.638.558-1.126 1.958-4.617 1.958-4.617 1.187-3.404 4.202-16.644 5.332-18.186 1.127-1.547 4.522-7.743 3.149-13.437.004-.002-.21-.716-.752-.769m125.909-52.533c6.831.374 9.456-3.707 12.203-8.14 2.75-4.416 4.42-15.673 4.42-15.673l-.123-.013c-.173.026-.342.052-.53.079-1.707.598-2.59 4.644-2.59 4.644a28 28 0 0 1-1.245 3.56c-1.135 2.612-2.703 5.162-4.693 7.233-1.496 1.562-3.135 2.335-4.962 3.363.05.238.118.466.213.69 1.266 3.11-2.693 4.257-2.693 4.257m-70.678-47.32s1.735-3.748.734-5.255c-.121-.134-.257-.265-.375-.386l-.029-.015-.08-.053s-5.456 9.993-5.936 15.17c-.497 5.188-.841 10.032 4.816 13.833-.173-.239-2.349-3.36.425-4.988a4 4 0 0 0 .32-.215c.107-.066.203-.147.298-.228.052-.053-.962-1.812-1.032-1.948-1.6-3.869-1.227-8.687-.228-12.567a28 28 0 0 1 1.087-3.347m60.554 56.857c3.345.411 6.667 1.124 9.949 1.908 8.365 1.974 9.846.228 12.858-2.042 2.594-1.948 4.71-4.951 6.286-7.754a1 1 0 0 0 .094-.142c-3.788 4.467-10.407 8.336-13.967 7.683-4.044-.749-13.783-4.057-19.427-2.894-4.642.96-7.43 3.589-8.978 6.244.015-.015.026-.04.055-.04.026-.028.04-.028.05-.054 3.127-3.602 8.797-3.455 13.08-2.91m20.185-100.322c.065.029.12.068.175.11 15.461 9.405 19.7 20.89 19.7 30.385 0 8.354-3.282 15.186-5.083 17.705-2.532 3.52-4.813 5.935-5.987 7.71 2.138 3.856 4.975 7.298 7.083 9.607 1.8-2.92 5.909-8.045 7.977-13.233 2.28-5.777 11.044-35.992-28.72-55.12l-1.545-.654a71 71 0 0 1 5.815 3.149q.3.158.585.341M287.947 352.796q.003 0 0 0m127.359-56.037-.022.042c-.171.311-1.203 2.287-1.51 4.853 0 .015 1.626.734 1.948.907.283.16.732.333.905.615.4.574.508.8.508.8-.388.066-.775.12-1.161.186-.212-.013-1.172.336-1.172.627-1.867 5.979-1.297 7.033-.857 7.313.377.237 4.538-2.147 5.78-6.47 0-.028.692-3.632.839-5.06.256-2.31 1.216-4.937 1.332-5.257l-.026.016c0-.013.026-.04.026-.04-4.228-.199-6.59 1.468-6.59 1.468m8.378-17.356c-1.334-3.882-.292-5.122-.305-5.122-4.176-2.496-5.02-12.033-5.032-14.502-.013-2.456.278-6.577.295-6.643-3.137 1.613-14.595-2.232-16.05-5.394 0 0-2.294 3.515-3.788 5.473-1.507 1.972-7.91 9.07-12.738 8.536v.02c-.002.193-.131 1.741-3.348 3.886 0 0 5.55 1.777 9.724-.517 4.193-2.296 9.725-12.766 16.77-10.485 6.99 2.44 5.097 14.127 7.045 18.478 1.877 4.23 7.105 6.165 7.427 6.27m-30.083-5.015c.744-2.257 2.692-2.057 4.975-4.912 1.227-1.415 2.471-2.776 3.203-4.962.587-1.762 2.572-2.737 4.535-2.242a7 7 0 0 0-2.344-.25c-2.272.152-4.222 1.458-4.914 3.48-.572 1.733-1.53 2.776-2.776 4.16l-.037.055c-.949 1.135-1.685 1.56-2.59 2.145-.883.532-2.123 1.481-2.614 3.058l-.71 2.106c-.946 2.828.925 6.003 4.163 7.096 0 0-1.413-1.76-.705-3.867 0-.028.015-.068.028-.094-.937-.975-1.391-2.307-.962-3.575zm17.222 9.509.708-2.106c.56-1.547.12-3.056-.243-4.003-.357-1.014-.688-1.8-.756-3.28v-.03l-.02-.053c-.131-1.84-.263-3.227.311-4.962.91-2.715-.769-5.745-3.786-6.952 1.84.809 2.824 2.76 2.237 4.522-.732 2.171-.596 4.003-.464 5.885.094 3.641 1.759 4.656 1.012 6.91l-.747 2.204c-.423 1.28-1.6 2.077-2.95 2.279 0 .026-.012.05-.023.078-.71 2.095-2.894 2.654-2.894 2.669 3.253 1.082 6.669-.32 7.615-3.161m38.36 270.367c-.015.013-9.265 12.103-17.48 30.19.214.893.492 1.745.856 2.52 2.533 5.403 4.776 6.886 9.259 6.617 0 0 10.472-17.86 17.862-27.413-1.522-1.268-3.345-2.883-5.536-4.896-2.44-2.241-3.99-4.643-4.96-7.018M274.842 355.21c.022.77.381 1.462.73 1.974 0 0 12.21.649 19.886 2.756a101 101 0 0 1 1.23-4.061 11.4 11.4 0 0 1 1.268-2.693q-.041.036-.075.072c-1.595-.276-5.547-.453-9.933-.464-4.384-.013-9.202.14-12.532.534-.346.717-.583 1.38-.574 1.882m179.1 61.83c.597-.202 1.296-.533 1.776-1.135.309-.395.52-1.065.673-1.84-4.836-4.654-15.004-12.125-17.863-13.608 0 0-.267 1.766-.633 2.806a116 116 0 0 1-1.479 3.975c6.812 3.067 13.273 6.89 17.525 9.802m50.913-73.724-.26.208s-34.19 20.356-86.138 24.074c1.665 2.469 3.133 4.914 4.365 7.308 16.162-.907 32.521-3.152 47.978-7.44 9.883-2.74 19.609-6.22 28.89-10.6 9.339-4.412 18.5-9.685 26.553-16.186 5.254-4.24 10.179-8.81 14.694-13.829 6.211-6.901 11.886-15.12 14.949-23.957 0 0 .25-.727.245-.723v-.002c-.247.585-10.14 23.302-51.276 41.147m36.6 106.066c-12.861 20.21-56.73 85.432-60.555 90.89 2.347 1.96 4.467 3.76 6.11 5.253.064.052.189.136.266.201 11.22-16.236 58.674-87.73 67.374-101.482h-.002c-4.32 1.816-8.696 3.55-13.194 5.138M458.086 594.98c3.107.015 6.323-.478 8.75-1.479 3.35-1.24 7.13-5.966 6.926-9.193 0-.784-.162-1.496-.508-2.23-1.321-2.763-4.136-4.669-6.095-5.642-2.868 3.749-6.178 8.832-8.845 13.194a431 431 0 0 0-3.135 5.216c.949.097 1.92.134 2.907.134m-96.651-327.145c2.684 1.172 5.337 2.428 7.883 3.871 3.816 2.16 7.927 4.709 9.513 9.047.013.039.017.076.044.118.427 1.093.466 2.454.17 3.575 0-.144-.063-.333-.16-.532-.346-.684-.946-1.174-1.332-1.814 0-.013-.015-.026-.039-.053-.857-.97-1.777-1.868-2.86-2.602v.043l-.025-.052s-.826 2.894-2.119 5.03c-.736 1.227-1.523 2.585-2.35 4.454a.2.2 0 0 1-.025.08c-1.612 4.19.265 8.62.706 8.644.521.042 1.627-.466 3.722-6.347a5 5 0 0 0 .228-.72c.052-.28-.044-.79-.162-1.203 0 0 .017-.031.026-.068.256-.96 1.485-.879 2.259-.785.265.027.53.066.786.134.467-1.161 1.052-2.763 1.334-4.108.88-3.269.772-7.872-3.016-12.205-3.804-4.336-13.584-7.566-17.24-9.406-3.668-1.842-6.963-10.687-6.523-16.797 0 0-.348 3.404-.348 6.83 0 1.374.041 2.766.188 3.925.08.587.186 1.117.307 1.573 1.056 3.617 1.176 5.913 9.033 9.368m-81.843.158.055.098c-20.534-37.676-16.294-64.175-16.294-64.175s-.256.76-.256.764c-1.727 5.083-2.378 10.635-2.66 15.97-.478 9.028.368 18.107 2.28 26.939 2.03 9.381 5.276 18.421 9.257 27.145 4.07 8.928 9.105 17.403 14.712 25.452 6.903 9.914 14.78 19.142 23.32 27.684a256 256 0 0 0 11.329 10.648c.475.42 4.362 4.287 4.75 4.103 2.423-1.154 5.067-2.221 7.883-3.2l-1.175-1.035c-38.518-34.068-53.201-70.393-53.201-70.393m198.296 285.765c-6.108-5.403-21.907-17.744-23.401-20.412-1.613-2.908-8.922-12.822-18.927-14.822 0 0-.108-.013-.265-.015v.002c-.482-.009-1.464.099-1.648 1.067-.12.787.215 1.52 1.404 1.84 1.173.31 4.869.684 8.992 4.566 4.12 3.88 5.589 9.003 5.512 13.327-.107 4.323 1.426 10.418 6.671 14.355 5.267 3.935 11.483 10.578 16.94 12.098.331.092.651.145.984.173 3.615.32 7.044-2.935 6.496-4.765 1.19 3.95.11 6.818-1.665 8.873 6.058 5.964 8.994 12.767 7.099 18.89-2.417 7.872-11.207 18.452-27.284 18.237-11.447-.144-18.171-3.332-21.105-5.161l1.052-2.36c-6.71 1.612-9.162-8.325-9.267-8.764-3.751 17.22-11.005 17.501-12.927 17.247-.309-.044-.484-.094-.484-.094s1.442 5.63 7.044 8.327c-2.55-.762-5.374.158-6.923 2.507-1.896 2.855-1.107 6.71 1.75 8.606a6.23 6.23 0 0 0 8.62-1.762c1.877-2.855 1.106-6.71-1.765-8.59-.144-.094-.278-.147-.422-.228.758.28 1.531.532 2.438.681 7.471 1.24 9.925-2.362 9.925-2.362s-.504-1.03-.855-2.471c0 0-7.39 5.206-15.555-3.054.283.094 2.973 1.03 7.62.267 6.921-1.027 7.87-3.203 8.339-3.602a.7.7 0 0 1 .054-.201c5.986 3.256 12.602 4.776 22.021 4.962 10.565.2 20.678-3.109 26.628-8.297 5.938-5.177 12.966-16.169 10.335-27.776-2.213-9.723-14.574-19.207-17.431-21.289M436.32 312.15c2.425-4.108 6.529-13.642 6.529-13.642s-3.937-.776-5.239-.936l-.063.105c-.579 1.028-5.274 9.307-6.985 11.038 0 0-.05.007-.14.024 1.023.59 4 2.454 4.507 4.651 0 0-5.002 4.601-11.16 7.314-6.164 2.712-15.486 8.59-19.162 11.04-1.392.924-3.28 1.724-5.67 2.162-1.492-2.66-6.68-5.942-13.325-8.172-6.95-2.336-13.332-2.787-15.935-1.34-1.895-1.944-3.054-3.883-3.645-5.596-1.447-4.168-5.346-14.482-8.617-20.36-3.278-5.88-4.494-12.567-4.494-12.567 2.09-1.751 6.794-.936 6.794-.936-.044-.32-.055-.765-.048-1.297.048-3.477 1.006-10.703 1.141-11.717q.016-.117.018-.118c-1.128-.66-4.75-2.419-4.75-2.419s-.013.042-.026.116c-.276 1.126-2.48 10.267-2.986 14.708-.542 4.725.186 7.021 1.07 9.775.882 2.75 5.031 14.515 6.052 17.723.132.403.272.904.43 1.485 1.104 4.062 3.016 11.962 6.877 16.118 4.377 4.715 8.601 6.838 13.813 8.593l.053.013c.015.007.033.018.046.02 2.605.872 5.074 1.523 7.68 1.816 2.604.294 5.354.226 8.52-.333 6.384-1.135 13.693-7.692 16.438-9.635 2.758-1.944 13.17-8.819 15.527-10.48 2.357-1.669 4.327-3.064 6.75-7.153m.302 64.192c-.414-.086-.854.238-.854.238-4.538 3.71-5.563 10.703-5.596 12.618-.03 1.917-5.615 14.284-6.717 17.71-.046.141-1.001 3.081-1.223 4.87-.337 2.731-.234 11.092 13.315 15.892 12.407 4.39 22.763-3.839 24.432-5.271 3.488.258 6.021-1.56 7.254-2.774.561-.554.89-.977.89-.977-1.339 4.397-4.134 5.481-5.84 5.722a5.7 5.7 0 0 1-1.241.046c.037.114.05.202.077.303.197.736.155 1.18.155 1.18s.406.191 1.102.235c.98.06 2.56-.18 4.58-1.729.341-.27.602-.556.876-.837-.79 1.668-.18 3.675 1.468 4.568a3.51 3.51 0 0 0 4.758-1.415 3.504 3.504 0 0 0-1.415-4.756 3.49 3.49 0 0 0-3.795.295c1.03-1.7 1.148-3.441 1.093-4.537a14 14 0 0 0-.14-1.04c-.015.013-.033.02-.046.032-1.393 1.045-3.025 1.729-4.787 1.729a8.2 8.2 0 0 1-1.847-.232c-.821-.2-1.604-.498-2.355-.883a14 14 0 0 1-2.215-1.402l-.035-.025c-.138.645-.33 1.203-.605 1.543-.49.609-1.26.94-1.855 1.11q.02.009.039.027c.894.716 1.812 1.35 2.58 2.213-7.665 7.317-17.93 7.328-23.847 4.428-5.786-2.838-7.489-6.334-6.757-11.137-1.562-.346-3.07-1.312-3.632-3.72.05.046.116.077.17.123 1.333 1.075 3.51 1.47 4.858.19 1.214-1.152 2.156-3.05 3.006-5.085.775-1.869 1.448-3.786 2.305-5.617a9 9 0 0 0 .727-2.364c.39-2.28-.092-4.706-1.216-6.72-1.207-2.169-1.86-5.157-.808-8.255 1.047-3.074 2.815-4.252 3.32-4.732.518-.474.487-.947.216-1.31a.66.66 0 0 0-.395-.254" class="st0"/><path d="M418.49 389.776c1.596 3.013-.045 5.221-1.28 6.095h.002c-10.628 6.7-34.342 12.896-57.185 5.234-22.42-7.528-37.313-26.692-42.083-38.358-.558-1.212-.705-4.48 2.57-5.997 0 0-2.068.296-3.932 1.825 0 0-.165.241-.333.741-2.509 7.486 12.683 39.348 41.366 48.977 28.7 9.632 59.742-5.762 62.54-14.105.192-.606.23-1.095.23-1.095-.651-2.044-1.896-3.317-1.896-3.317" style="fill:#c2242b"/></svg>