<svg xmlns="http://www.w3.org/2000/svg" xml:space="preserve" width="720" height="720" viewBox="0 0 720 720"><path d="M671.104 419.641c-.806-1.209-2.015-2.82-2.82-4.03-.807-1.208-2.822-3.626-3.628-4.835l-2.82-2.821c-2.419-2.418-4.836-4.836-6.851-6.448a7.2 7.2 0 0 1-2.821-2.015A93 93 0 0 0 631.208 387l-9.671-3.627a64 64 0 0 0-8.463-2.015 3.92 3.92 0 0 0-3.627.403c-1.209.806-1.209 2.418-1.209 4.03-.403 4.03-.403 8.463-.806 12.896-.403 4.432-.806 8.462-1.209 12.895-.403 4.03-.403 7.657-.805 11.687A101 101 0 0 1 603 438.582c-1.612 9.269-3.627 18.94-5.642 28.209a27 27 0 0 1-2.015 7.657 63.8 63.8 0 0 0-3.627 12.492 147 147 0 0 1-8.06 25.791 99 99 0 0 1-8.865 20.15 1.48 1.48 0 0 0-.403 1.208c-2.016 4.433-3.627 8.866-5.642 12.896a75 75 0 0 0-4.03 8.06 81 81 0 0 1-5.642 10.074c-3.224 5.24-6.85 10.075-9.672 15.314a94 94 0 0 1-6.85 10.477 6.5 6.5 0 0 0-1.612 2.821 64 64 0 0 1-6.045 8.463c-4.03 5.239-8.463 10.478-12.896 15.716-2.82 3.224-5.641 6.045-8.462 9.269-2.418 2.82-5.24 5.642-8.06 8.463a8.8 8.8 0 0 1-2.015 1.612 43 43 0 0 0-4.836 4.03 60 60 0 0 1-10.88 9.268c-1.612 1.209-3.627 2.418-5.24 3.627a67.7 67.7 0 0 1-13.7 8.463q.605 1.208 1.209 1.208c1.763-.14 3.514-.41 5.239-.806l3.223-1.612 9.672-3.627 23.776-11.283 4.03-2.015 2.015-.806 2.418-1.612 4.03-2.418 4.836-2.82 6.447-4.03 11.284-8.06 5.642-4.433 7.656-5.642 7.254-5.239 3.224-2.418 4.836-4.433 4.836-4.835 8.06-8.463 9.268-8.866 10.477-12.09 5.642-7.656 2.015-2.821 6.448-7.657 12.09-17.73 3.223-5.643 8.06-16.119 4.433-8.866 8.06-16.12 4.432-9.67 4.836-14.911s5.642-19.746 8.463-30.224a3.04 3.04 0 0 0-.403-3.224c-1.612-2.418-2.82-5.239-4.433-8.06m11.687-97.119s-2.821-19.746-4.836-29.418a9.79 9.79 0 0 0-5.642-6.85 28 28 0 0 0-3.224-1.21c-2.014-.806-4.432-1.611-6.447-2.418-4.836-1.209-9.672-2.82-14.508-3.626-6.044-.806-11.686-1.612-17.731-2.015-4.836-.403-9.672-.806-14.507-.806H605.82c-2.015 0-4.433 0-5.239 1.209a10.1 10.1 0 0 0 0 6.044c.806 4.836 1.612 7.254 2.418 11.687a298 298 0 0 1 5.239 41.91c.403 6.448.806 12.896.806 18.94v4.836a7.6 7.6 0 0 0 .806 3.224 2.87 2.87 0 0 0 2.418 1.209c1.208.403 2.418.403 3.627.806s3.626.806 4.835 1.209c5.642 2.015 11.687 4.03 16.926 6.045a98 98 0 0 1 11.283 5.642c.403.403.806.403 1.21.805 2.014 1.612 4.432 3.224 6.447 4.836a61.2 61.2 0 0 1 14.507 12.493c.806.806 1.612 2.015 2.418 2.82 1.612 1.21 4.03 6.448 6.045 8.463.806.404.806.807 1.209.807.219-.217.36-.5.403-.806.065-.816.2-1.625.403-2.418L684 385.388l1.209-19.344v-21.76zM152.06 113.372h1.209l8.865-3.626h1.21l9.67-4.03 5.24-1.612 5.239-2.015 7.253-2.417 17.732-6.851h1.612l8.865-3.224 7.254-2.82.806.805 13.701.403 8.866.806h.403L267.716 90l24.582 1.209v.403l8.866 7.657h.806l8.866 8.462.806-.403 12.09.403.402-.403 30.627 1.612v.806l13.701 8.06h.404l24.179 11.686v1.21l13.701-5.24 20.15 6.851 3.223 5.642 7.254.403 7.254 8.06h.806l5.641 6.447v.404h.806l15.717 3.626 6.044 8.866L488.15 171a226 226 0 0 0 23.776 4.836 70.8 70.8 0 0 0 23.373 1.612 21.3 21.3 0 0 0 5.24-.403c1.208 0 2.014 0 2.82-1.21a3.02 3.02 0 0 0-.806-2.82c-.403-.806-4.03-7.657-4.03-7.657l-3.627-5.642-15.313-22.164-3.224-3.627-2.82-4.03-4.837-5.641-12.492-13.702-5.24-5.239-19.342-17.73-15.717-12.09-5.642-2.822-18.537-11.283-12.895-6.85-2.418-1.21-10.478-4.03-15.716-5.641-1.21-.403-4.835-1.21-1.21-.402-4.432-1.21-9.269-1.611h-4.432l-8.463-1.612-10.075-.806-3.627-.403h-6.044l-10.478.403-10.075 1.209h-8.06l-6.85.806-7.254 1.612-5.642 1.612-8.865 1.612h-2.015l-8.463 2.82-4.836 1.21-2.82 1.611-7.254 2.015-3.627 2.015-4.433 1.612-10.88 4.433-13.702 5.239-4.433 2.015-9.671 5.239-8.463 5.641-7.657 4.03-2.82 1.612-8.463 4.433-1.21.806-9.67 7.657-8.06 5.238-1.612 1.21-8.866 7.253-3.224 2.821s-4.836 4.03-4.836 4.836l3.224-1.209s6.045-2.418 6.448-2.418m437.238 58.434s-4.835 4.03-5.641 4.433a36 36 0 0 1-4.433 2.82l-4.836 2.822s-3.627 1.611-4.433 2.014-1.209.403-1.612.806-.403.806-.403 1.612.403 1.21.806 2.015c2.015 4.433 4.03 8.463 6.045 12.896a163 163 0 0 1 8.06 19.343 42 42 0 0 1 2.417 6.448c2.015 5.642 3.627 11.284 5.24 16.925.805 2.418 1.611 4.836 2.417 7.657.806 2.418 1.209 5.239 2.015 7.657a3.064 3.064 0 0 0 3.224 2.418H603c6.044 0 11.686-.404 17.731-.404 1.612 0 13.299 1.21 13.299 1.21s4.03.402 6.044.805c4.433.807 8.866 2.015 13.299 2.821a49.3 49.3 0 0 1 10.88 3.627c1.685.72 3.441 1.26 5.24 1.612.547.085 1.087.22 1.611.403q1.209-.605 1.209-1.209a69 69 0 0 0-2.015-7.254l-.806-2.418-.806-3.224-2.418-7.656-2.418-6.85-7.656-16.926-3.224-8.06-4.433-9.672-5.239-8.462-1.209-2.418-3.627-6.85-3.223-5.24-1.21-1.612-22.163-29.82s-2.015-2.418-3.224-3.627q-.604-1.21-1.21-1.21s-6.85 10.881-9.67 14.105c-2.822 3.224-8.464 8.463-8.464 8.463M418.03 42.045l12.09 4.836a62 62 0 0 0 7.656 3.223 20.2 20.2 0 0 1 5.24 2.015L461.148 63a60.4 60.4 0 0 1 10.075 7.658 34 34 0 0 0 7.657 5.641c1.209.806 2.417 2.015 3.626 2.821.806.404 1.21 1.21 2.015 1.612A111 111 0 0 1 495 89.597a129 129 0 0 0 10.478 10.477 80.6 80.6 0 0 1 9.671 10.478 80.6 80.6 0 0 0 7.657 8.866c5.239 5.238 9.269 11.283 14.104 16.925a8.4 8.4 0 0 0 1.612 2.418c3.224 4.836 6.045 10.075 9.672 14.508a88.5 88.5 0 0 1 6.85 10.074 56.5 56.5 0 0 0 4.03 6.448 3.49 3.49 0 0 0 2.822 1.612 5 5 0 0 0 2.015-.806l2.417-1.21s3.224-1.611 4.433-2.014a24 24 0 0 0 4.433-2.418c.806-.806 4.433-3.224 6.045-4.836a51 51 0 0 0 5.641-6.448l2.821-3.627 4.836-8.06a8.1 8.1 0 0 0 .806-2.417 11.8 11.8 0 0 0-1.612-3.224l-1.209-2.015-3.224-3.627-2.015-3.224-4.03-4.03-1.208-1.208c-6.851-5.642-20.956-16.926-20.956-16.926l-4.03-3.224-7.253-6.447-36.269-21.762-28.612-13.701-15.313-6.045-5.642-2.015-18.94-6.448-13.298-3.223-12.896-2.821h-2.015l-1.21 1.209.404.403a5 5 0 0 0 2.015.806m-309.896 297 14.508-.807 8.866-10.074.805-2.015 1.21.403 23.776-2.821 1.209-.806h8.865l1.21.403 2.82-3.627 10.88-6.448 11.284-8.06 32.24.404.402.806 12.493 1.209 9.671-2.015 18.135-18.538h.403l14.507-13.7 21.358-2.822.806-.403.806.806 11.284 5.239.806-.806 10.074-1.209.403-.403 9.269-1.612.806-.403 10.075 8.462.403-.805 20.955-.403 1.612-1.21 16.522.806.806.404 2.418-.807.403-.805 6.851-2.821h.806l7.657-3.627.806-.806 8.06-3.224.402-.806 22.567-8.866v-.403l4.03-1.209.806-.806 1.21 1.21 6.447 3.223h2.015l7.254 4.03.403-.806 2.418-1.209h.403l3.626-1.612v-.403l5.24-1.209 13.7 3.627 2.822-.806 2.418 1.612 10.074 1.612 9.672 3.627 5.642-.403 2.015 1.209 1.612-.806s19.343-2.418 29.014-3.224c6.448-.403 12.493-1.21 18.94-1.612 3.627-.403 7.254-.806 10.478-1.21 2.418 2.016 3.224 1.21 2.418-1.208-2.015-6.044-3.627-11.686-5.642-17.73a154 154 0 0 0-5.24-14.508c-1.208-2.821-2.014-6.045-3.223-8.866-.403-1.612-1.209-2.82-1.612-4.433a200 200 0 0 0-10.075-20.955c0-.403-.403-.806-.805-1.21a3.15 3.15 0 0 0-1.612-1.611c-.806-.403-1.612 0-3.224 0-3.224.403-6.851.806-8.463.806s-7.657.403-12.493.806l-1.209-.403h-6.044l-15.717-2.015c-5.641-.806-18.94-4.03-18.94-4.03l-9.671-3.224-11.687-4.03-.806.403-18.537-1.612-.403.403-10.478-8.06h-1.209l-6.448-6.044-.403-1.21-7.253-1.208-.806.403-6.045-2.015-.806-.806-13.701.806-12.493-4.836-42.716 2.418-.806-.403-8.06.403-.806.806-20.955 1.612-.403-.403-29.821 17.329-.403 1.208-1.209 1.21-.806-.403-14.91-1.612-.806.402h-26.597l-.403-.402-7.657-.403-2.418-1.21-27.806 21.762V198l-9.672 7.656-10.88-5.239-.806.404-4.03-1.21s-20.15 5.24-19.746 5.24l-18.94-2.821-1.21-1.21-3.626 3.627-7.657 3.627v.806l-14.91 11.284-21.359 15.313-24.179 17.732-10.88 8.06-.404 4.432-4.432 10.478-2.015 8.865-2.821 18.135-1.612 8.06-.806 9.671L36 340.656l-1.209 43.523 1.21 2.418.805 12.09s0 2.014.806 2.014l53.194-54.806zm209.552 184.164-1.209-4.03 4.433-16.925 8.866-2.82.403-.404 2.82-.403v-1.612l12.09-19.343 1.21-.404 4.835-9.671 8.06-4.433 1.209-1.21 1.611.404 4.836-2.82h.403l8.866-4.03.806-1.21L406.343 441h1.612l.403-1.612 1.208-.806 2.821-10.075 9.27-4.03 10.88-1.209 9.671-6.85 13.702.403 1.209 1.209.806-.806 19.343-8.463v-2.418l4.836-8.866 9.671-2.418.404-.805 12.895-2.822 4.836-6.044h.806a23 23 0 0 1 3.224-2.82l8.865 1.208.403.403 4.836.806 3.224.403s13.299-6.045 18.537-8.463c2.418-.806 4.433-1.612 6.851-2.417 3.224-1.21 6.045-2.015 9.269-3.224 1.612-.404 3.224-.806 4.433-1.21l6.044-1.208 7.254-1.21 4.433-.402c.93-.194 1.873-.328 2.82-.403a3.84 3.84 0 0 0 2.822-.806c.806-.806.806-1.612 1.209-2.418a12.4 12.4 0 0 1-.806-4.433c0-1.21-.403-2.015-.403-3.627a102 102 0 0 1-.403-11.284c0-1.209-.403-2.418-.403-3.627-.403-4.432-.403-9.268-.806-13.7-.403-6.046-1.612-11.688-2.418-17.33l-2.418-13.298c-.806-4.836-1.612-8.865-2.82-13.701-1.21-4.836-2.016-5.24-6.852-4.836a1.48 1.48 0 0 0-1.209.403c-1.612.403-4.433.403-6.044.806-9.269 1.209-18.135 1.612-27.806 2.82l-27 9.27-39.09-1.21-4.433-1.209v.806l-11.686 8.463h-1.612l-9.269 8.463-.403 1.209-23.373 3.224-21.358 16.522h-2.418l-11.284 6.85-4.433.404-4.432 3.627-1.21-.806-21.76-1.612-3.628 4.433v.805l-18.94 20.553-.403 1.209h-.806l-24.179 27.403h-6.447l-.403.806-19.747 3.224h-1.612l-.403.805-32.642 18.135-14.507-1.612-3.224 1.209-14.507-.806-14.508 15.716-8.463 1.612-4.836-.403-5.238 2.015-3.224-.403v.806l-17.732 13.702-1.612.403-27.805 21.761.402 1.209L117 510.313l.806 1.612-28.612 2.418-9.269 8.06-.805 3.224 12.895 17.731 9.269 14.508 8.06 10.477 13.298 14.508c-.002.436.14.86.403 1.209.403 0 1.612 0 1.612.403l8.06 2.82 9.671 3.225a.395.395 0 0 0 .386.403h.824l16.119 6.448h1.209l.806 1.208h1.612l3.626 2.418 6.851-3.626h.403l3.224-2.015 24.582 6.044 18.135-9.268 39.895-4.03 16.523-26.194 7.253-7.254h.806l5.642-5.239v-.806l10.075-9.268 4.835-4.836 1.21-.806 5.641-5.642 4.433-4.433zm177.717 101.15c2.82-2.419 5.239-5.24 8.06-8.06.403-.404 1.208-.807 1.208-1.612.98-1.999 2.35-3.78 4.03-5.24a26 26 0 0 0 3.224-3.626 38.6 38.6 0 0 1 6.85-7.254 70 70 0 0 0 5.24-6.044c2.82-4.03 5.239-8.06 8.06-12.09 3.626-5.239 7.253-10.478 10.477-16.12 3.224-6.044 6.448-12.089 9.672-17.73 2.82-4.836 5.642-10.075 8.06-15.314 3.626-8.866 7.656-17.328 10.88-26.597a221 221 0 0 0 8.866-29.015c2.015-7.254 3.223-14.91 5.642-21.761.403-.806.403-2.015.805-2.821 1.21-6.045 2.015-12.09 2.821-17.731l2.418-16.926c.404-4.03 1.21-7.656 1.612-11.686.403-5.24.806-10.881.806-16.12V387a8.2 8.2 0 0 1-.403-2.015 5.42 5.42 0 0 0-.806-3.627 4.44 4.44 0 0 0-2.418-1.209c-.806 0-4.03.403-4.03.403l-5.641.806a3.63 3.63 0 0 0-2.016.403c-3.223.806-6.85 1.612-10.074 2.418a86 86 0 0 0-10.88 3.627c-3.628 1.612-8.06 2.82-11.687 4.836-1.21.806-14.105 6.85-19.747 9.671l-7.253 7.657-.403 1.612-.806-.403-4.433.403-.403.403-14.91 4.836v1.612l-1.612 1.612v.806l-6.851 12.089h-.806v1.21a52 52 0 0 0-2.82 4.835l-31.434 20.15h-.806l-4.835 4.029-3.224 13.299-3.224 2.82-12.09 45.538 1.612 5.239L414 538.925h-2.821l-3.627 15.717-.403.403-4.433 14.507.403.806-2.015 12.493-.806.806.403 1.209-17.328 27.806-1.21.403-4.432 6.85v1.21l-14.91 20.955-15.717 9.268.806 1.21-.806 6.447 1.21 2.418-2.419.806-11.283 6.85-1.21-.403-16.925 10.075-2.015 3.224a35.4 35.4 0 0 0 6.448.806l10.88.806 7.254.403h25.389l23.373-2.821 14.104-2.418 10.478-2.82 11.283-3.225 14.508-5.641 1.209-.807 4.03-2.417a155 155 0 0 0 16.925-10.075c8.866-6.85 18.134-13.702 26.597-21.358 2.821-2.821 5.642-5.239 8.463-8.06" style="fill:#bd1b21"/></svg>