<svg xmlns="http://www.w3.org/2000/svg" xml:space="preserve" width="720" height="720" viewBox="0 0 720 720"><path d="M359.992 36c-178.934.009-323.984 145.066-323.984 324s145.05 323.991 323.984 324c178.94 0 324-145.06 324-324s-145.06-324-324-324" style="fill:#fff"/><path d="M316.879 120.67c-119.106 13.455-197.014 81.462-236.856 141.306 29.932-86.583 98.93-154.886 185.93-183.886v.003c19.157 5.587 40.439 17.434 50.926 42.576m105.488-50.964c-20.177-4.368-41.116-6.734-62.598-6.756-21.573-.02-42.543 2.32-62.81 6.687 14.922 7.715 29.818 21.873 39.285 47.703l23.454-34.54 23.488 34.54c9.422-25.741 24.281-39.918 39.18-47.634m30.798 8.45v.003c-19.067 5.631-40.228 17.475-50.65 42.507C520.69 134.013 598.36 201.069 638.47 260.553c-30.176-85.848-98.836-153.53-185.305-182.397" style="fill:#e31837"/><path d="M114.766 524.613c-30.775-45.27-49.213-99.506-50.787-157.97 5.033-30.907 14.795-58.042 27.056-81.655 22.171-42.614 65.022-82.798 117.681-113.839 22.484-13.048 38.75-16.056 49.403-15.832 10.654.225 15.693 3.707 15.693 3.707l34.47 19.296-1.767 6.375-7.517 27.334s-14.164 39.36-47.842 72.993c-63.741 63.032-145.17 155.34-136.39 239.59m540.255-160.606c-5.144-29.821-14.712-56.11-26.64-79.054-22.172-42.57-65.027-82.74-117.682-113.804-22.493-13.048-38.785-16.097-49.438-15.867h.004c-10.65.23-15.659 3.742-15.659 3.742l-34.47 19.296 1.767 6.41 7.518 27.298s14.15 39.336 47.807 72.993c63.569 62.836 144.722 154.78 136.493 238.83 30.907-45.785 49.238-100.713 50.3-159.842M359.691 217.6l.004.004c-3.415 2.439-112.538 80.98-160.606 158.733-64.874 104.935-56.449 165.449-39.666 199.992 41.815 38.446 94.731 64.997 153.397 74.31l25.29-358.45 21.062-21.167.278-.278h.034l.243.278 21.097 21.167 25.463 358.173-.347.174c59.11-9.334 112.41-36.114 154.403-75.004 16.518-34.676 24.339-95.057-40.047-199.199C472.228 298.575 363.129 220.039 359.69 217.6" style="fill:#002b5c"/><path d="m359.74 271.048.242 405.67 45.936-26.19.346-.174L380.8 292.18zm43.788-106.805 24.493-13.165 11.778-6.374c-5.631-1.242-11.38-2.074-17.079-3.05-12.837-2.194-25.719-3.994-38.8-4.815l-9.25-.589-.174-.38-.208-.381-3.707-7.552-.208-.45-10.703-21.72-3.464 6.997-6.86 13.996h-.034l-.278.589-.277.588-3.707 7.552-.312.659-.069.104-9.215.589c-13.059.82-26.02 2.62-38.834 4.815-5.687.974-11.423 1.811-17.045 3.049l18.119 9.77 18.118 9.768 5.612 3.014 5.613 3.014-3.395 12.298-.208.693-1.525 5.681-10.115 36.653 23.002-16.94 15.555-11.502 4.607-3.395 4.573-3.396v-.173l.139.104.138-.104v.173l4.608 3.396 4.608 3.395 38.523 28.441-10.081-36.652-.867-3.187-.866-3.187-3.395-12.298 3.638-1.94z" style="fill:#c4ced4"/></svg>