<svg xmlns="http://www.w3.org/2000/svg" xml:space="preserve" id="Layer_1" width="720" height="720" x="0" y="0" version="1.1" viewBox="0 0 720 720"><style>.st0{fill:#fff}</style><path d="M476.519 671.712C475.271 670.45 366.206 561.1 265.907 545.45l-10.098-1.576-1.006-10.17c-2.59-26.18-17.921-44.085-37.331-66.753-24.224-28.29-54.203-63.304-63.026-125.585-14.65-12.022-60.841-53.463-87.01-117.395l-10.612-25.926 7.66 2.38c-11.35-15.2-22.5-32.988-30.974-50.998l-13.13-27.899 17.989 5.996c-11.302-21.737-18.97-45.162-22.072-62.582L11.142 36l25.06 15.372c135.813 83.317 221.733 96.596 297.54 108.312 57.756 8.927 112.31 17.36 179.204 54.1 99.62 54.847 123.57 128.374 132.348 187.49 14.21 14.215 64.937 70.43 63.535 147.156l-.258 14.138-14.087-1.225a245 245 0 0 0-21.134-.935c-74.823 0-134.045 36.562-176.02 108.673L488.646 684z" class="st0"/><path d="M632.865 407.631c-7.14-51.863-25.932-127.027-126.276-182.273-152.583-83.808-237.143-15.409-477.292-162.73 4.885 27.435 20.67 65.768 40.964 89.445l-24.804-8.268c18.04 38.334 46.978 72.533 62.01 83.808l-27.81-8.644c29.69 72.534 87.19 115.377 87.19 115.377 13.154 110.867 94.331 129.658 101.096 198.058 105.981 16.536 217.976 130.034 217.976 130.034 58.628-100.72 140.557-120.263 209.708-114.25 1.503-82.305-62.762-140.557-62.762-140.557"/><path d="M611.443 388.464c-7.516-35.327-12.402-91.324-117.632-149.2-110.491-60.508-245.41-21.047-417.913-128.155C92.81 162.22 199.92 221.976 199.92 221.976l-94.33-30.818c24.052 41.716 122.517 93.956 122.517 93.956l-87.942-28.563c36.079 60.883 118.76 101.848 118.76 101.848l-50.737-3.759c6.765 57.125 85.312 105.982 89.446 149.953 35.703 13.53 81.553 37.206 117.256 68.023 68.4-33.448 49.608-147.321-80.802-308.924 179.267 10.899 174.381 143.94 277.356 124.772" style="fill:#97233f"/><path d="M559.956 405.376c-22.925 37.206-62.01 26.683-75.916-19.542l28.186 1.879c-24.804-14.657-46.977-36.455-64.265-57.877C442.7 432.06 538.91 477.91 570.854 406.128c-3.758 0-7.516-.376-10.898-.752" class="st0"/><path d="M682.849 526.766c-25.18-25.18-77.795-50.735-142.06-58.252 27.059-7.516 58.252-24.428 71.03-50.36 27.059 17.288 65.017 66.52 71.03 108.612m-146.194-33.824s19.167 32.697 8.644 68.776c41.716-23.301 95.458-34.576 134.543-26.684-23.3-20.294-79.298-44.346-132.664-42.843-3.383 0-7.14.376-10.523.751" style="fill:#ffb612"/></svg>