<svg xmlns="http://www.w3.org/2000/svg" xml:space="preserve" id="Layer_1" width="720" height="720" x="0" y="0" version="1.1" viewBox="0 0 720 720"><style>.st0{fill:#fff}.st1{fill:#9a7611}</style><path d="M683.1 396.198c-2.7-15.975-13.05-39.375-48.375-60.525-2.475-1.35-4.95-2.925-7.425-4.275 6.525-2.25 13.5-4.5 13.5-4.5l-39.15-15.3c-3.375-1.35-6.75-2.475-10.35-3.6 2.475-2.7 5.4-5.4 5.4-5.4l-29.925-4.275c-13.05-1.8-23.175-2.25-31.05-2.025 0-1.35-.225-2.475-.225-3.375l-4.95-37.575s-11.7 15.75-12.825 17.325c-2.475-4.05-5.175-7.875-8.55-11.7l-32.4-36.675s1.35 10.8 2.25 19.35c-10.575-7.425-22.05-13.95-34.875-19.35-51.975-22.275-117.9-27-180.675-12.825-52.425 11.925-128.25 42.975-191.025 123.075L36 381.123l54.675-21.825c.45-.225 42.525-16.65 76.725-21.375 12.6-1.8 22.5-2.025 14.625 15.525-6.3 13.725-20.25 33.75-20.475 33.975l-27.45 39.825 45.675-15.75c22.05-7.65 41.625-11.475 51.525-11.7 3.6 0 4.275 2.475 3.15 4.95-.225.9-.45 1.35-2.925 5.175l-28.575 40.95 47.025-16.875c33.975-12.15 78.975-20.25 94.95-14.175 1.35.45 5.625 2.7 1.35 9l-18.45 29.25s27.225-4.05 31.05-4.725c2.25 26.775 15.525 41.4 17.325 42.975l19.8 20.25 6.975-27.45c4.95-19.8 14.4-30.6 22.725-36.45l1.575 11.25 18.225-6.525c15.525-5.625 27.675-12.375 36.45-19.8 11.7-.9 40.05-2.7 67.275 0 47.025 4.725 78.525-1.575 87.075-3.6 11.475-2.7 21.15 2.25 21.15 2.25l13.95 7.65 7.425-14.175c.9-1.8 5.175-10.575 5.175-23.625 0-3.375-.225-6.75-.9-9.9" class="st0"/><path d="M676.575 398.898c-2.25-14.175-11.925-35.1-44.325-54.45-8.775-5.175-18-9.675-27.675-13.275l11.475-3.825-15.75-6.075c-7.875-3.15-15.975-5.625-24.525-7.65l3.375-3.375-12.15-1.8c-18.675-2.7-31.5-2.25-39.15-1.575v-5.175c0-2.475 0-4.725-.225-6.75l-2.025-15.075s-7.425 10.125-8.325 11.475c-2.475-6.75-6.525-15.075-13.725-23.4l-13.05-14.85 1.575 12.375c-11.7-10.8-28.125-22.5-50.4-31.95-50.625-21.6-114.75-26.1-175.95-12.375-51.3 11.475-125.325 41.85-186.975 120.375l-15.525 19.8 23.4-9.225c.45-.225 43.875-17.325 79.2-22.05 13.95-1.8 23.4-.225 27 4.725 3.375 4.5 2.25 13.5-2.925 24.075-6.975 13.95-21.15 34.65-21.15 34.875l-11.7 17.1 19.575-6.75c25.65-9 58.05-15.525 65.7-10.575 1.8 1.125 2.7 2.475 3.15 4.275 1.125 6.3-4.275 15.75-6.075 18.675l-12.15 17.55 20.025-7.2c32.175-11.475 89.55-24.75 107.325-11.025 8.325 6.3.45 18.675.225 19.35l-7.875 12.6 14.625-2.25s3.6-.675 7.2-1.125c0 1.125-.225 2.25-.225 3.375 0 28.35 14.4 43.425 15.075 44.1l8.55 8.55 2.925-11.7c8.325-33.075 28.125-44.55 38.925-48.375.225 2.25 1.8 12.825 1.8 12.825l7.875-2.925c19.125-6.975 29.925-14.625 36-20.25 8.775-.675 41.175-3.15 72.45-.225 45.9 4.5 76.275-1.575 84.6-3.375 15.3-3.6 27.45 2.925 27.675 2.925l6.075 3.375 3.15-6.075c.225-.45 4.05-8.1 4.05-19.575-.45-2.475-.675-5.175-1.125-8.1" class="st1"/><path d="M628.2 351.198c-13.5-9.675-31.725-16.65-49.5-21.6 7.425-2.475 14.85-2.25 14.85-2.25-11.475-4.275-23.175-6.975-34.2-8.775l4.05-3.6c-20.25-3.375-34.2-3.15-42.75-2.25 1.125-4.05 1.8-10.35.9-18.9 0 0-2.475 7.2-8.325 11.7-.9-9.45-3.825-23.175-13.95-32.4l1.8 16.65c-9-13.5-26.1-31.05-58.725-46.125-88.2-41.175-243.675-25.425-329.175 84.825.9-.45 33.975-16.65 79.2-17.55 24.075-.675 29.925 12.825 21.15 35.55-8.55 22.275-23.625 41.85-24.3 42.75 1.8-.675 103.725-36.45 71.1 14.4 0 0 78.525-23.625 102.15 4.05 11.025 12.825-1.8 30.6-1.8 30.6l22.275-4.725c-7.2 28.35 5.4 46.35 5.4 46.35 9.225-37.125 41.175-46.8 52.65-48.825l2.475 10.125c19.125-6.975 27.9-14.175 33.075-20.25 40.275-6.3 67.725-.9 98.775.675 45.225 2.475 68.625-5.4 76.05-5.4 5.4 0 11.925 4.725 11.925 4.725s3.15-5.4 3.15-14.175c.225-12.6-6.3-32.85-38.25-55.575"/><path d="M470.7 312.048c-2.025-5.175-7.2-8.325-13.05-8.55-1.8 0-3.825.225-5.85.9-7.65 2.475-11.475 9.9-8.55 16.425 2.7 6.75 11.25 10.125 18.9 7.65s11.475-9.9 8.55-16.425m-23.175 8.1c-2.025-4.95.9-10.575 6.75-12.6 1.35-.45 2.925-.675 4.275-.675 2.25 0 4.5.675 6.3 1.8-2.25-.45-4.5-.45-6.75.45-5.85 1.8-9 7.425-6.75 12.6.675 1.8 2.25 3.375 3.825 4.5-3.6-.9-6.525-3.15-7.65-6.075m17.775 5.625c-4.275 1.575-8.775-.45-10.35-4.5s.675-8.55 4.95-9.9c1.125-.45 2.25-.45 3.15-.45 3.15 0 6.075 2.025 7.2 4.95 1.35 4.05-.9 8.325-4.95 9.9" style="fill:#c8102e"/><path d="M447.525 320.148c-2.025-4.95.9-10.575 6.75-12.6 1.35-.45 2.925-.675 4.275-.675 2.25 0 4.5.675 6.3 1.8-2.25-.45-4.5-.45-6.75.45-5.85 1.8-9 7.425-6.75 12.6.675 1.8 2.25 3.375 3.825 4.5-3.6-.9-6.525-3.15-7.65-6.075m173.025 38.7c-36.225-24.075-91.575-28.125-91.575-28.125l13.95 11.25-26.1-2.25 20.7 14.85c-13.14-4.308-39.484-12.932-68.95-16.623l-.03-.018a92 92 0 0 0-4.541-.573c.1.03.213.059.313.088-2.7-.225-14.092-1.099-23.092-.874-11.925 0-23.85 1.125-35.325 4.05 1.35 0 54.675-.45 78.975 14.175-90-14.625-137.7 15.75-139.275 16.875.45-.225 1.125-.225 1.575-.45 1.35-.45 2.475-.675 3.825-1.125 49.05-12.825 87.75-9 100.575-7.2-21.6 5.175 3.825 20.925 19.35 29.25.126.068.266.691.322.835l.382.962c.287.72.572 1.443.841 2.17.618 1.666 1.163 3.363 1.54 5.1.794 3.655.826 7.562-.94 10.945-.574 1.097-1.326 2.098-2.125 3.058 2.55-2.404 3.756-4.49 4.231-5.174l.003-.014c1.7-2.498 4.245-6.772 6.321-12.257l12.6 10.125c37.8-4.725 65.7 3.375 96.975 3.15 22.5 0 39.375-2.025 52.65-5.175-49.05-20.925-144.9-29.925-159.75-28.8 0 0-8.1 2.25 1.35 11.25-13.05-4.95-26.1-14.85-27-19.8-.9-5.175 8.775-6.75 31.275-4.05 84.375 10.125 157.725 24.3 167.625 45 0 0 5.175-25.875-36.675-50.625m-249.525-23.625s-10.28 1.372-26.053 7.693c-11.323 4.357-25.053 10.99-38.562 20.686-2.087.18-4.173.196-6.26.196l-20.25 1.125c-6.075.225-14.175.945-21.6 1.755a626 626 0 0 0-17.55 2.07h-.45c-.4.08-.72.125-.996.159-.5.06-.804.066-.804.066 15.75-55.125 29.925-74.475 39.375-83.475 2.925-3.6 6.75-6.3 11.025-8.775.9-.675 2.025-1.35 3.15-1.8 2.25-.9 4.5-1.8 6.525-2.7.9-.45 2.025-.675 2.925-1.125-10.125.45-20.25 1.35-29.925 2.25-4.725.45-9.45.9-14.175 1.575-3.15.45-6.075.675-9 1.125s-5.85.675-8.55 1.125c-26.316 3.824-44.761 7.647-44.774 7.65h-.001c.675-.45 1.35-1.125 2.027-1.576 10.978-8.232 23.46-14.317 36.228-19.23 13.248-5.095 26.62-9.535 40.532-12.488 21.495-4.564 44.246-8.789 66.394-8.096 9.184.288 18.298.694 27.28 2.819 7.57 1.79 14.981 4.947 20.944 10.023 3.038 2.586 4.444 5.42 4.856 9.465.425 4.175-.799 8.341-2.51 12.107-2.962 6.517-10.501 11.353-16.474 14.794a83 83 0 0 1-11.448 5.453 83 83 0 0 1-5.922 2.047c-1.583.48-4.335 1.777-5.982 1.557 6.75.9 12.375 3.375 16.425 6.975.45.225.675.45.9.675 6.3 5.85 8.325 14.175 4.5 22.5-.45 1.125-1.125 2.25-1.8 3.375m-47.7-24.075h-13.5a71 71 0 0 0-2.925 5.85c-3.712 7.988-6.75 15.57-8.865 21.173s-3.285 9.202-3.285 9.202h11.7c.067 0 .135-.022.18-.022 1.84.022 3.626-.16 5.394-.46 4.488-.771 8.99-2.329 12.772-4.906 3.736-2.547 6.681-6.077 8.654-10.137 6.75-14.625.675-20.7-10.125-20.7m25.65-24.75c5.625-9.675 1.35-16.425-7.425-17.325h-9s-.405.338-1.148 1.215c-.764.855-1.89 2.272-3.352 4.41-2.475 3.825-5.85 9.45-9.9 18.45-.675 1.35-1.35 2.925-2.025 4.5l8.1-.225h1.867c.945 0 1.913-.067 2.835-.157.046 0 .113-.023.18-.023a30 30 0 0 0 3.488-.585c.54-.112 1.057-.225 1.53-.36.315-.067.63-.157.9-.225.157-.045.293-.09.45-.112.113-.046.225-.068.315-.09.292-.09.54-.18.743-.248.157-.045.292-.09.382-.135.045 0 .09-.022.135-.045 5.535-2.047 9.832-5.242 11.925-9.045" class="st0"/><path d="M386.1 276.273c-3.6 7.425-18.9 16.875-35.775 20.475l-11.25 2.475c9.9-4.05 13.275-7.875 15.975-11.475 5.175-6.75 4.5-12.15 1.8-16.65s-9.675-6.75-17.325-6.75c0 0-11.7-.225-22.275 0-25.2.9-65.025 4.05-98.775 12.15 38.475-18.9 83.925-23.4 93.15-24.75 8.775-1.125 16.875-1.575 23.625-1.575 11.25 0 18.45.9 18.45.9 18.45.9 28.8 5.175 33.075 11.925 2.025 3.6 1.8 7.875-.675 13.275m-18.225 42.075c1.575 4.05 1.35 9.225-.675 13.275-.872 1.744-1.956 3.48-3.046 5.018-4.551 1.124-11.148 3.055-19.182 6.275-9.213 3.545-20.025 8.606-31.01 15.575-4.677.592-9.334.807-13.587.807l-17.55.675s-16.65.9-35.1 2.925c10.8-34.2 24.3-62.775 36.675-73.8 13.275-12.825 30.6-15.525 35.775-15.525h.9c-4.275 6.975-8.55 15.3-14.4 29.25 0 0 24.975-1.8 42.075 2.25 13.05 3.15 17.1 7.2 19.125 13.275m-28.575-4.725c-2.025-3.15-6.3-7.2-15.975-7.2H304.65s-9.9 18.45-19.125 47.475l21.15-.9c5.625 0 23.85-1.575 31.5-18.45 4.05-8.775 4.5-15.75 1.125-20.925" class="st1"/><path d="M501.075 332.748s-7.875.45-17.325-16.875c-8.775-16.425-21.825-18.675-21.825-18.675s9.675-.9 23.175 4.95c-.675-.9-19.8-28.35-73.125-26.325 0 0 27.225 3.375 38.925 18.675 0 0-36.9-5.85-69.975 11.25 0 0 29.475-4.95 52.2 10.35 0 0-33.975-2.475-52.65 16.875a174.5 174.5 0 0 1 53.325-1.8c12.375 1.8 22.867 4.024 30.517 6.274-2.7-.225-14.092-1.099-23.092-.874-11.925 0-23.85 1.125-35.325 4.05 1.35 0 54.675-.45 78.975 14.175-90-14.625-137.7 15.75-139.275 16.875.45-.225 1.125-.225 1.575-.45 1.35-.45 2.475-.675 3.825-1.125 49.05-12.825 87.75-9 100.575-7.2-21.6 5.175 3.825 20.925 19.35 29.25.126.068.266.691.322.835l.382.962c.287.72.572 1.443.841 2.17.618 1.666 1.163 3.363 1.54 5.1.794 3.655.826 7.562-.94 10.945-.906 1.733-2.244 3.241-3.537 4.692a53 53 0 0 1-4.102 4.127c-2.287 2.056-4.765 3.907-7.417 5.466-1.651.972-3.373 1.838-5.162 2.528-.495.191-.998.357-1.502.525 6.75-17.1-1.575-29.25-1.575-29.25s-5.85 17.55-30.6 28.125c-27.225 11.475-31.5 28.125-31.5 28.125s-.9-15.3 13.5-31.275c4.725-5.175 8.1-9.45 10.125-13.275l-30.375 8.325c20.475-59.4-97.425-35.55-97.425-35.55 2.397-3.406 6.034-7.314 10.676-11.432.03-.031.037-.056.071-.088.093-.076.186-.147.28-.223.779-.685 1.596-1.378 2.43-2.073.094-.087.172-.149.25-.214l.262-.215c16.228-13.596 33.666-22.238 47.503-27.562 15.772-6.321 26.053-7.693 26.053-7.693.675-1.125 1.35-2.25 1.8-3.375 3.825-8.325 1.8-16.65-4.5-22.5-.225-.225-.45-.45-.9-.675-4.05-3.6-9.675-6.075-16.425-6.975 1.647.22 4.399-1.077 5.982-1.557a83 83 0 0 0 5.922-2.047 83 83 0 0 0 11.448-5.453c5.973-3.44 13.512-8.277 16.473-14.794 1.712-3.766 2.936-7.932 2.511-12.107-.412-4.045-1.818-6.88-4.856-9.465-5.963-5.076-13.375-8.233-20.944-10.023-8.982-2.125-18.096-2.531-27.28-2.819-22.148-.693-44.899 3.532-66.394 8.096-13.911 2.953-27.284 7.393-40.532 12.489-12.768 4.912-25.25 10.997-36.228 19.229-.677.451-1.352 1.126-2.027 1.576 0 0 18.45-3.825 44.775-7.65 2.7-.45 5.625-.675 8.55-1.125s5.85-.675 9-1.125c4.725-.675 9.45-1.125 14.175-1.575 9.675-.9 19.8-1.8 29.925-2.25-.9.45-2.025.675-2.925 1.125-2.025.9-4.275 1.8-6.525 2.7-1.125.45-2.25 1.125-3.15 1.8-4.275 2.475-8.1 5.175-11.025 8.775-9.45 9-23.625 28.35-39.375 83.475 0 0 .305-.006.806-.067l-18.806 2.992s30.825-49.275 10.575-70.425c-17.55-18-75.825.225-75.825.225 57.825-55.35 162.45-84.375 262.575-54.45 98.1 29.25 83.25 85.5 83.25 85.5m-174.983-35.325c.945 0 1.913-.067 2.835-.157.046 0 .113-.023.18-.023a30 30 0 0 0 3.488-.585c.54-.112 1.057-.225 1.53-.36.183-.04.349-.085.523-.13.553-.804 2.077-3.046 2.627-4.145 5.568-11.804 1.115-17.206-9.232-17.315-1.703 2.633-3.84 6.15-6.32 10.998a770 770 0 0 0-3.569 7.433l-.004.009c-.675 1.35-1.35 2.925-2.025 4.5l8.1-.225zM306.9 316.998c-3.712 7.988-6.75 15.57-8.865 21.173s-3.285 9.202-3.285 9.202h11.7c.067 0 .135-.022.18-.022 1.84.022 3.626-.16 5.394-.46a39 39 0 0 0 3.279-.713l.082-.076h-.008c2.423-2.223 4.83-4.883 6.373-8.629 6.75-14.4.675-20.475-10.125-20.475z" style="fill:#24135f"/></svg>