<svg xmlns="http://www.w3.org/2000/svg" xml:space="preserve" width="720" height="720" viewBox="0 0 720 720"><path d="M611.332 247.015s-17.537-3.978-33.695-1.218c-16.157 2.76-19.242 10.799-19.242 10.799s19.648 7.226 22.084 22.41c2.355 15.182-6.901 26.955-12.098 30.365.65-.243 22.085-9.012 21.03-30.041-.163-3.491-1.056-6.414-2.518-8.931a19.5 19.5 0 0 0-5.602-6.171c.406.081 6.414 2.03 9.906 5.278 1.623 1.542 3.329 3.085 4.952 5.115 1.787 2.435 2.436 3.978 2.436 3.978.812 1.624 1.38 3.491 1.786 5.684 1.38 7.794-1.055 15.426-1.055 15.426-5.196 21.11-18.025 45.062-29.473 63.737-11.367 18.43-21.435 31.665-21.679 32.07.382-.324.764-.657 1.161-1.006-.486.655-.754 1.007-.754 1.007s3.167 11.448.974 29.23c-1.948 15.426-5.845 36.942-29.473 49.69-.73.324-1.705.73-2.76 1.136-.081.081-.65.243-1.786.568l-1.705 3.735 15.589 55.536v.081l-12.26.569c-72.18.65-136.242-30.285-212.157-59.92-20.055-7.795-40.516-13.479-60.651-17.457-2.76-.487-8.444-1.624-16.401-2.842-11.449-1.543-31.666-3.735-39.135-4.384-37.268-2.517-71.45-.487-97.919 2.68.081-.163.163-.244.244-.407-.325.081-.569.081-.893.163-.135.018-.257.031-.39.05.158-.021.313-.038.478-.067 65.937-123.648 228.55-202.803 228.55-202.803-10.555 1.137-19.405 3.004-19.405 3.004-14.453-10.312-25.495-30.204-27.85-34.67.082.163.163.244.244.407-.081-.244-.812-1.95-.73-3.248 0-.081.08-.244.08-.325s.082-.162.082-.243c.812-1.95 2.842-2.03 5.602-1.706.163 0 .325 0 .487.082 6.74.974 25.414 5.845 51.883 2.923 27.849-3.086 37.917-11.611 37.592-14.047 0 0 21.11-9.986 47.579-11.773s61.869 6.009 75.753 23.87c2.598 3.249 4.06 5.766 4.709 7.795.893-1.38 1.299-3.085 1.137-5.033-.731-7.145-9.5-14.696-17.295-19.162-6.9-3.897-24.033-10.23-14.208-9.662 9.743.568 60.57 7.957 79.812 20.38 11.855 7.632 12.91 15.507 12.91 15.507s14.615-6.008 30.853.65c16.239 6.658 19.974 15.264 23.221 21.191zm18.318-29.595c-1.015-1.753-3.208-2.127-5.059-1.802-5.456.958-11.018 1.543-16.53 2.103-2.786.284-5.562.536-8.347.747-1.137.089-2.29.08-3.427.105-.235.008-1.153.179-1.355.025a37 37 0 0 1 3.085 2.614 43 43 0 0 1 8.468 11.115c2.371 4.466 3.97 9.313 4.799 14.298q.014.077.016.138c.024.163.032.252.032.252.674-.6 1.405-1.023 2.07-1.648a59.6 59.6 0 0 0 10.831-13.762 58 58 0 0 0 3.11-6.252c.455-1.072.886-2.16 1.275-3.256.3-.844 1.592-3.873 1.032-4.677z" style="stroke:#000;stroke-width:.1;stroke-miterlimit:10"/><path d="M684 313.106s-26.631-13.56-75.347-14.046c-8.899 23.172-29.116 68.9-59.328 95.45-.397.35-.78.682-1.16 1.007.243-.406 10.31-13.64 21.678-32.071 11.448-18.675 24.277-42.627 29.473-63.737 0 0 2.436-7.632 1.055-15.426-.406-2.193-.974-4.06-1.786-5.684 0 0-.65-1.543-2.436-3.978-1.623-2.03-3.329-3.573-4.952-5.115-3.492-3.248-9.5-5.197-9.906-5.278a19.5 19.5 0 0 1 5.602 6.17c1.462 2.518 2.355 5.44 2.517 8.932 1.056 21.029-20.38 29.798-21.029 30.041 5.197-3.41 14.453-15.183 12.098-30.366-2.436-15.183-22.084-22.41-22.084-22.41s3.085-8.037 19.242-10.798c16.158-2.76 33.695 1.218 33.695 1.218.674-.6 1.405-1.023 2.07-1.648a59.6 59.6 0 0 0 10.831-13.762 58 58 0 0 0 3.11-6.252c.455-1.072.886-2.16 1.275-3.256.3-.844 1.592-3.873 1.032-4.677-1.015-1.753-3.208-2.127-5.059-1.802-5.456.958-11.018 1.543-16.53 2.103-2.786.284-5.562.536-8.347.747-1.137.089-2.29.08-3.427.105-.235.008-1.153.179-1.355.025a37 37 0 0 1 3.085 2.614 43 43 0 0 1 8.468 11.115c2.371 4.466 3.97 9.313 4.799 14.298q.014.077.016.138c.024.163.032.252.032.252-3.247-5.927-6.982-14.533-23.22-21.191-16.24-6.658-30.854-.65-30.854-.65s-1.055-7.875-12.91-15.508c-19.242-12.422-70.07-19.81-79.812-20.379-9.825-.568 7.307 5.765 14.208 9.662 7.795 4.466 16.564 12.016 17.295 19.162.162 1.948-.244 3.653-1.137 5.033-.65-2.03-2.111-4.546-4.71-7.794-13.883-17.862-49.283-25.657-75.752-23.87s-47.58 11.772-47.58 11.772c.326 2.436-9.742 10.961-37.591 14.047-26.47 2.922-45.144-1.95-51.883-2.923-.162-.082-.324-.082-.487-.082-2.76-.324-4.79-.243-5.602 1.706 0 .08-.081.162-.081.243s-.082.244-.082.325c-.08 1.299.65 3.004.731 3.248-.081-.163-.162-.244-.243-.406 2.354 4.465 13.396 24.357 27.849 34.669 0 0 8.85-1.867 19.405-3.004 0 0-162.613 79.155-228.55 202.803a17 17 0 0 1-.82.114c-.024 0-.049.008-.073.008-.698.081-1.388.162-2.079.252a.6.6 0 0 0-.121.016c-15.24 1.867-27.703 4.043-36.537 5.797C41.278 461.933 36 463.313 36 463.313c99.948-125.768 211.426-188.368 254.296-205.743-.081-.162-14.29-18.593-17.781-28.417-3.086-8.526-2.923-12.423-1.543-15.67 1.624-5.116 9.662-4.953 9.662-4.953 21.679 1.055 37.998-3.492 37.998-3.492s42.951-14.37 102.79-19.405c0 0 13.64-1.542 32.234-1.705v.082c41.733-.731 88.581 3.978 133.643 20.46.487.163.893.325 1.38.487 1.186.487 2.388.902 3.59 1.3 2.979.998 6.016 1.842 9.069 2.557a107 107 0 0 0 13.12 2.249q3.803.412 7.616.52c1.202.032 2.387-.017 3.58 0 1.089.016 2.234.21 3.135.86.877.65 1.348 1.657 1.518 2.712.154.966.073 1.9 0 2.485-.008.016-.008.032-.008.04-.032.195-.057.35-.081.447 0 .04-.008.073-.008.097s-.008.049-.008.073c-.398 3.142-1.69 8.363-4.174 14.022-2.598 5.846-6.576 12.26-12.503 17.376 2.273 4.222 3.247 9.093 3.166 15.02 33.2 1.567 48.951 12.163 49.438 12.496-.665-.284-18.032-7.624-49.52-7.949h-.405c-.162 0-.974 5.846-1.624 8.769h.73c38.161-.252 61.659 14.525 62.381 14.988-1.404-.674-23.261-10.985-63.598-9.63 0 0-.325 0-.812.082a178 178 0 0 1-2.68 9.58C667.665 295.836 684 313.106 684 313.106m-349.616-52.288s56.672-10.88 121.545 4.466c2.355-2.111 5.034-4.222 8.12-6.415 0 0-59.433-16.482-129.665 1.949m107.897-38.762c.187-.097.373-.194.56-.3a15 15 0 0 1 1.42-.617c2.226-.812 5.002-1.202 8.42-.593a49 49 0 0 0-1.428-.251c-.025-.008-.05-.008-.065-.008a60 60 0 0 0-9.792-.796c-14.94 0-27.2 5.115-27.93 5.44 16.92.3 22.993 1.745 23.716 1.932q.073.014.073.016c0 .002 1.535-2.858 5.026-4.823M329.35 314.811s-9.5 37.024 13.072 64.792 77.62 30.772 77.62 30.772-34.426-7.632-62.194-35.725c-27.686-28.011-28.498-59.839-28.498-59.839M197.492 452.19h.325c1.056.082 4.303.406 4.547.406.487.082 6.17.65 6.17.65 6.39.706 12.886 1.575 19.406 2.598q1.437.22 2.874.455c.723.113 1.437.235 2.16.357v-.008c18.276-66.895 69.176-103.188 70.719-104.325-70.557 34.345-100.273 89.962-106.2 99.867m138.516-147.77c1.299-.407 47.74-14.453 106.119-10.393-.325-2.111-.325-4.628.243-7.551-23.79-.65-63.736 1.543-106.362 17.943m180.84 171.34-.024-.105c-.244.081-11.773 4.141-26.063 1.543 0 0 18.918 18.268 38.08 58.215v.081l.568-.065.162-.016c-1.867-18.187-9.662-48.716-11.448-54.318zM334.765 282.968c2.225-.503 50.981-12.227 110.203-4.043 1.137-2.273 2.68-4.71 4.79-7.226-21.913-2.517-66.22-4.466-114.993 11.27m163.385-29.862c32.64 12.666 32.233 32.233 32.233 32.233 4.953-18.755 28.012-28.742 28.012-28.742s-11.855-5.765-28.418-6.901c-16.482-1.137-31.827 3.41-31.827 3.41m32.64 104.982c-4.385-20.542 7.306-34.507 7.306-34.507-26.55 23.302-10.473 46.605-2.435 64.71 8.038 18.107 4.79 31.341-3.248 40.597s-30.123 10.068-45.062 7.226c-14.858-2.841-22.49-18.512-26.55-36.942-3.897-18.269 3.085-50.259 3.248-51.07-10.88 16.481-10.88 50.258-2.436 77.62s30.528 34.182 46.604 34.182c16.077 0 44.981-13.64 40.597-46.199-4.466-32.72-13.56-35.156-18.025-55.617" style="fill:#0085ca"/><path d="M531.033 389.103s1.38 18.187-11.286 27.443c0 0-13.64 2.842-22.572.081 0 0 1.43-2.931 1.43-9.077 0-3.557-.48-8.2-1.998-13.982 0 0-8.038 22.247-16.239 30.448 0 0 10.555 5.845 29.067 4.14s22.978-8.606 24.683-15.426 0-16.401-3.085-23.627M454.387 220.87l-1.38-.325a18 18 0 0 0-1.754-.251c-.025-.008-.05-.008-.065-.008-2.737-.26-5.034.137-6.926.852a15 15 0 0 0-1.421.617 17 17 0 0 1-.56.3c-3.345 1.876-4.953 4.555-5.1 4.807q-.009.014-.007.016c-3.573 5.197-2.192 7.714-2.192 7.714 33.914-.56 52.385 4.79 52.921 4.944-.487-.536-13.3-14.046-33.516-18.666m71.855 83.71c-27.28-1.949-49.527 6.901-49.527 6.901 7.307 21.516-4.953 50.259-4.953 50.259 16.076-13.803 28.742-42.22 28.742-42.22 26.47-5.36 41.084 0 41.084 0 3.37 20.436-4.027 37.161-4.214 37.583 15.337-12.26 22.239-44.891 22.239-44.891s-6.171-5.765-33.37-7.632m39.379-73.886c-10.555 2.111-11.205 13.56-11.205 13.56 11.448-10.555 35.888-6.009 35.888-6.009-4.466-4.222-14.128-9.662-24.683-7.55" style="fill:#bfc0bf"/></svg>