<svg xmlns="http://www.w3.org/2000/svg" xml:space="preserve" width="720" height="720" viewBox="0 0 720 720"><path d="M683.768 191.316c-2.613-45.157-22.765-85.835-34.708-110.093l-1.492-2.612-5.225-10.45 1.12 11.57c1.12 16.047 4.851 71.28-11.57 103.001-20.525 42.171-80.61 38.066-100.389 36.946h-1.12c-32.467-2.239-138.082-5.97-170.55-5.97-42.544.373-89.566 3.731-127.632 6.717-18.66 1.493-34.707 2.612-45.53 2.985-1.12 0-2.239.374-4.105.374-52.994 4.851-86.581-10.823-99.643-46.65-7.837-22.018-7.837-65.682-7.837-86.58v-14.93l-4.105 7.464a281.3 281.3 0 0 0-34.707 110.093c-3.732 67.175 31.348 91.433 57.845 103.375 27.99 13.062 56.352 14.928 65.682 15.674h.373c2.1.31 4.223.435 6.345.373a41 41 0 0 1 9.33.747c-5.225 1.12-11.943 2.239-17.54 2.985-6.345 1.493-12.316 2.24-15.302 2.986-6.344 1.492-33.214 7.464-47.395 12.688-11.943 4.106-25.378 10.45-25.75 10.45l-2.24 1.12 1.866 2.239s4.478 5.97 8.957 10.822a87.52 87.52 0 0 0 67.175 22.019c25.004-2.986 38.812-9.33 44.037-11.943a257 257 0 0 0 9.703 27.99c11.196 27.99 37.32 82.103 47.022 100.763 7.837 15.3 15.675 28.736 20.9 37.693l1.865 3.358a23.15 23.15 0 0 1-8.956 11.943c-.747.746-1.12 1.492-1.866 1.866l-.374.746v1.12c-.373 4.851-1.492 52.247 30.23 86.58l.372.374h.374c16.047 6.344 36.573 12.689 70.16 12.689 33.96 0 62.697-8.21 72.773-13.062l.373-.374.373-.373c22.019-26.123 32.468-66.055 32.468-80.236v-.747l-.746-.746-1.493-1.493a33.56 33.56 0 0 1-10.45-17.54c2.986-4.479 8.211-15.674 12.69-24.631a85 85 0 0 1 5.597-11.569c9.33-18.66 36.573-77.625 47.77-105.241 6.717-17.913 10.449-26.497 12.315-30.229 4.851 2.613 17.913 8.584 42.544 11.196 31.721 2.986 61.95-17.913 70.534-29.855 1.492-1.866 3.732-4.479 4.105-4.852l1.866-2.24-2.612-1.119c-.374 0-1.12-.373-6.345-2.239l-17.54-5.598-17.54-5.971c-4.852-1.493-26.497-6.344-41.798-9.703l-11.942-2.612 3.732-.747c36.573-7.838 133.603-24.631 128.006-120.542"/><path d="M279.598 538.76c45.156-23.885 109.719-24.631 155.622-1.493 3.732 1.493 6.717 4.105 10.076 4.852a197.2 197.2 0 0 1-10.076-61.577 203.4 203.4 0 0 1 11.569-70.907 113.3 113.3 0 0 1-24.63 8.583c-23.139 5.971-48.143 0-61.578-20.899a42.7 42.7 0 0 0-5.225 5.971c-19.78 22.392-55.233 20.153-79.49 10.076 11.942 31.722 16.793 67.922 10.076 102.63-1.866 7.463-4.105 15.673-6.344 22.764m14.927-112.332c2.613 27.99 17.167 58.592 45.157 67.175 25.385 8.063 53.124-.052 70.16-20.525a122.1 122.1 0 0 0 22.02-48.516 4.8 4.8 0 0 1 3.731 1.493c-5.971 29.482-24.63 63.443-55.98 72.027-24.63 6.344-52.246 1.12-69.04-19.406a94.2 94.2 0 0 1-19.78-51.501 6.73 6.73 0 0 1 3.732-.747M76.207 170.417a206 206 0 0 0-16.048-15.301c-5.225 5.598-9.703 11.569-14.928 16.793a322.3 322.3 0 0 1 26.124-77.624c-1.12 25.004-.747 52.247 4.852 76.132m145.546 260.116a21.84 21.84 0 0 1-5.225-10.076c13.061 8.584 30.228 1.866 41.424-6.344l.374.373c-1.12 9.703-4.479 20.899-14.928 24.631-8.584 2.24-16.048-2.612-21.645-8.584m52.993 103.749c-19.78-29.856-34.707-61.578-48.888-93.3 6.344 3.36 17.167 5.599 23.884 1.12a35.16 35.16 0 0 0 12.315-18.66c16.048 32.095 19.78 73.893 12.69 110.466zm-11.942 20.152c1.12 29.856 8.583 57.845 28.736 79.49 40.678 17.168 95.538 15.675 136.216-.373a136.1 136.1 0 0 0 30.975-74.265c-10.823-8.957-23.138-14.928-35.453-20.9-49.635-22.39-117.183-15.3-160.474 16.048m27.243 9.33c7.837-10.45 22.019-12.689 33.588-8.957a29.1 29.1 0 0 1 16.047 13.062c5.225 8.584 2.612 19.78-2.24 27.99-.746 1.12-1.865 2.239-3.358 1.12-2.24-2.613.746-4.852 1.12-7.465.68-2.173.808-4.482.373-6.717a29.18 29.18 0 0 1-29.11 12.315 26.94 26.94 0 0 1-18.659-16.047 18.2 18.2 0 0 1 2.239-15.301m136.216 64.19c-4.105-1.12-8.583-2.613-13.062-4.106-37.319-14.554-84.715-10.45-119.795 4.105a5.43 5.43 0 0 1-2.24-3.358c40.679-18.287 96.658-20.526 137.71-.374-.747 1.866-1.12 1.866-2.613 3.732m3.359-64.19c3.359 6.344.746 13.435-2.986 19.033a27.39 27.39 0 0 1-28.363 9.33 29.3 29.3 0 0 1-15.674-11.942c-1.492 5.224 2.24 8.956 1.866 13.808a1.973 1.973 0 0 1-2.985.373c-5.971-7.837-8.21-19.78-2.986-28.363 6.345-11.942 18.66-16.793 31.722-15.674a26 26 0 0 1 19.406 13.435M675.557 167.43l-13.062-9.33c-5.97 2.613-11.568 6.345-17.166 8.957a326.3 326.3 0 0 0 3.731-74.266c11.57 21.272 17.914 44.41 25.005 67.922zM504.261 415.606c-2.986 8.956-10.823 17.913-19.78 19.779a16.86 16.86 0 0 1-17.166-8.21 22.57 22.57 0 0 1-4.106-11.196c11.57 9.33 29.856 7.09 41.052-.373m122.035-80.984c3.358 1.12 15.3 5.971 15.3 5.971s-4.478 5.225-6.344 7.091c-12.315 11.57-33.214 22.765-51.5 23.138a117 117 0 0 1-42.918-7.464c-6.717-2.612-8.21-3.732-11.942-5.224-1.12 2.985-4.852 10.076-6.344 13.808-4.106 10.449-9.703 26.497-15.675 34.334a38.66 38.66 0 0 1-20.899 10.822 24.9 24.9 0 0 1-17.167-4.478c-.746-.746-3.358-3.732-3.358-3.732s19.033-1.12 31.348-10.45c11.57-8.583 16.048-25.003 18.287-39.558 2.985-1.493 5.97-.746 8.956-2.612 4.106-2.613 3.36-7.464 2.613-10.45-1.12-2.612-1.493-11.569-19.033-11.942-17.914-.373-31.349 11.942-36.946 16.794-6.718 6.344-25.751 26.87-37.693 33.96-15.301 8.957-37.32 10.077-50.008-1.12-13.435-11.568-13.808-25.003-16.794-34.333 27.616-.747 70.534-6.345 76.878-7.09 6.344-1.12 5.225-7.465-.746-6.345a691 691 0 0 1-77.252 6.717c-.373-4.105-.373-11.195-.373-16.793a544 544 0 0 0 74.266-7.464c7.09-1.12 6.344-7.837-2.24-5.971-22.764 5.224-49.634 5.97-72.399 6.717v-20.152a496 496 0 0 0 74.266-8.584c3.358-.373 4.105-6.717-3.359-5.225a508 508 0 0 1-70.907 6.718v-16.794c0-6.344-5.598-5.97-5.598.373v16.794a668 668 0 0 1-75.385-5.97c-4.852-.747-6.345 4.85 0 5.97a511.6 511.6 0 0 0 75.385 6.718c0 7.09-.373 14.928-.373 20.152a594 594 0 0 1-76.132-7.464c-5.225-1.492-6.344 4.852-.746 6.345a480.4 480.4 0 0 0 76.878 7.837c-.373 7.09-.373 13.062-.373 16.794-30.602-.374-73.52-5.972-73.52-5.972-5.225-1.492-8.21 4.852-1.493 5.972a634 634 0 0 0 73.893 6.344 62 62 0 0 1-18.66 35.453c-15.674 15.674-39.931 8.584-52.62 1.12-11.942-6.718-31.722-27.243-38.44-33.588a79.3 79.3 0 0 0-24.257-14.928c-15.674-4.851-22.018 0-25.75 5.225a16 16 0 0 0-3.36 13.435c.747 4.479 2.987 5.225 10.823 6.345 2.24 26.496 16.048 44.036 48.89 45.902a28.93 28.93 0 0 1-21.273 11.196c-12.689-.373-20.526-7.837-25.377-17.913-3.36-6.344-8.21-21.645-11.943-32.095a53 53 0 0 0-3.732-7.837s-7.463 3.359-11.195 4.852c-13.435 5.971-34.707 8.21-45.903 7.837a77.31 77.31 0 0 1-58.965-29.482c0 .373 2.24-1.493 7.464-3.36a474.2 474.2 0 0 1 121.661-25.75c3-30.972 9.896-61.441 20.526-90.686 18.66-1.12 101.882-6.344 134.35-6.344 32.841 0 117.183 3.358 136.216 4.478 8.21 23.511 13.062 49.262 16.42 90.686a368.7 368.7 0 0 1 114.572 21.272M493.438 439.117c-13.062 32.468-28.736 63.816-44.783 95.165-5.598-15.675-4.105-32.468-3.359-50.009a313 313 0 0 1 13.435-60.084c4.479 7.464 11.57 15.301 20.153 16.794 4.93.488 9.907-.15 14.554-1.866" style="fill:#ce1141"/><path d="M218.767 226.77a393.3 393.3 0 0 0-19.406 80.236c-47.77 1.866-96.658-2.24-131.738-33.96-24.258-24.258-30.229-57.846-25.004-91.06 5.598-6.718 11.942-12.316 17.54-19.033 7.837 8.583 20.526 15.3 22.392 26.497 16.047 30.975 48.515 41.051 81.73 39.185 18.286 0 36.2-1.866 54.486-2.985zm460.15-36.574c-.747-5.225-.747-9.703-1.867-14.555-5.598-2.985-9.33-7.464-14.928-10.076-6.717 3.359-13.061 7.837-19.779 10.823-3.359 6.344-7.464 11.195-11.196 17.167-29.855 41.424-84.715 29.482-129.872 30.228a460 460 0 0 1 14.555 71.654c.746 4.105 1.12 9.33 1.866 13.062 42.17-1.493 81.73-8.21 116.064-29.11 31.348-18.66 47.395-52.62 45.156-89.193M500.155 364.105a44.86 44.86 0 0 1-5.225 21.272c-5.598 8.21-15.674 11.942-25.75 11.942a15 15 0 0 0 0 4.105 37.93 37.93 0 0 0 19.406-4.105c12.688-6.717 17.54-21.272 17.167-35.453a12.64 12.64 0 0 0-5.598 2.239m-249.668 30.602c-26.87 0-32.094-17.167-32.094-30.23a9.25 9.25 0 0 0-6.345 0 33 33 0 0 0-.1 2.608c.027 18.167 14.775 32.873 32.942 32.846 2.074.588 4.27.588 6.344 0-.747-1.865 1.12-2.239-.747-5.224" style="fill:#fff"/></svg>