<svg xmlns="http://www.w3.org/2000/svg" xml:space="preserve" width="720" height="720" viewBox="0 0 720 720"><path d="M617.644 352.56h-.342c-3.42-1.71-2.908-4.788-.513-6.67 29.073-21.548 48.912-49.253 48.912-92.009 0-50.622-36.257-121.596-177.691-121.596H123.05l-82.603 144h60.541c6.841 0 12.314 5.473 12.314 12.143v143.658c0 6.84-5.473 12.142-12.314 12.142H36l83.458 143.487h386.338C630.299 587.715 684 522.898 684 453.121c-.171-46.005-33.007-83.63-66.356-100.56" style="fill:#fff"/><path d="M572.494 356.836h.513c-4.446-1.026-3.591-6.499-.513-7.696 38.087-14.52 61.157-39.78 62.594-83.8v-4.789c.17-24.627-8.21-46.347-23.943-63.449l-.171-.17-2.514-2.635c-5.353-5.438-11.459-10.364-18.282-14.793-7.799-5.028-16.538-9.355-26.2-12.93-.07-.033-.138-.068-.206-.085-20.865-7.867-45.834-12.142-74.223-12.142H146.138l-60.2 106.375h42.927c7.525.684 13.34 7.012 13.34 14.708v171.534c0 8.21-6.67 14.88-14.88 14.88H86.28l60.713 105.862h358.632c102.442 0 144.513-68.067 144.513-118.005-.171-43.953-32.494-81.92-77.644-92.865m-230.708-85.34c0-5.66 4.447-10.415 10.005-10.894.36-.034.735-.05 1.112-.05h48.912c2.394 0 4.617.17 6.84.341 23.602 2.223 32.495 15.905 32.495 33.35 0 20.18-10.604 34.717-39.335 34.717h-60.029zm60.2 190.176-18.18.069-21.31.068-9.422.034c-.855 0-1.71-.17-2.566-.342-4.788-1.197-8.38-5.473-8.38-10.603v-57.634h60.029c28.902 0 39.335 14.023 39.335 33.69-.342 20.181-10.946 34.718-39.506 34.718" style="fill:#fb4f14"/><path d="M262.432 537.435c-.17 0-87.905-77.986-120.228-128.266v-133.74c0-7.695-5.814-14.023-13.34-14.707H85.939l60.2-106.204h59.686c-23.943 127.582-7.354 263.715 56.608 382.917m348.713-340.333-.171-.17-2.514-2.635a110.6 110.6 0 0 0-18.009-14.793c-7.798-5.148-16.555-9.594-26.303-13.186-.051.086-.12.171-.17.257-72.582 108.051-112.208 245.604-94.61 371.373 21.72-105.178 77.986-202.148 165.72-272.608v-4.789c.17-24.627-8.21-46.347-23.943-63.449m-297.92-42.755c-47.885 185.387.685 328.19 35.744 413.359h44.808a605 605 0 0 1-7.269-53.171 664 664 0 0 1-2.702-52.794l-21.31.068-8.738.205c-1.197 0-2.395-.17-3.42-.513-4.79-1.197-8.38-5.473-8.38-10.603v-57.634h44.465c1.881-21.788 4.703-43.696 8.09-64.304h-52.556v-57.464c0-5.61 4.361-10.33 9.834-10.894.36-.034.735-.05 1.112-.05h48.912c2.394 0 4.617.17 6.84.341 9.595-38.531 31.588-100.526 33.743-106.546z"/></svg>