<svg xmlns="http://www.w3.org/2000/svg" xml:space="preserve" width="720" height="720" viewBox="0 0 720 720"><path d="M450.652 322.224a2.428 2.428 0 0 0 3.34 3.187L684 192.233v-47.58l-11.61-11.763C522.97-9.243 202.962 177.36 94.37 267.283l-53.65 83.474 66.702-16.543C4.902 462.536 41.554 546.845 45.88 555.572c10.776 30.354 35.439 54.638 75.355 70.574 30.354 12.141 64.73 13.583 94.25 12.217 127.41-5.919 278.044-85.371 375.329-170.135l2.276-1.973 19.655-97.437-37.943 21.02a2356 2356 0 0 1-236.839 89.545c-69.131 21.552-100.851 25.042-123.465 19.806l-2.96-.607a11.08 11.08 0 0 1-7.588-9.561c-1.063-43.255 73.305-136.594 110.792-176.434 34.908-37.488 89.773-78.617 136.215-98.196 31.113-13.052 51.147-18.288 60.708-17.302a200 200 0 0 1-12.9 30.354s-36.122 71.257-48.112 94.781" style="fill:#b4975a"/><path d="M281.58 269.712c15.404-16.164 64.502-61.695 107.377-84.46h-.303c75.278-44.318 188.044-73.154 125.438 49.552l146.156-89.393C523.73 15.495 218.139 187.451 106.512 279.728c31.34-8.65 63.288-15.556 95.008-22.765-348.162 332.682 5.616 465.253 380.414 148.66a2354 2354 0 0 1-239.04 90.455c-274.4 85.447-186.601-92.884-61.315-226.366" style="fill:#72253d"/></svg>