<svg xmlns="http://www.w3.org/2000/svg" xml:space="preserve" width="720" height="720" viewBox="0 0 720 720"><path d="m684 429.452-5.315-3.986c-10.409-7.973-4.872-23.918-4.65-24.582l3.764-9.966-20.596-9.744c-11.073-9.523-51.6-35.656-74.854-50.273l-.443-.221.443-.221 7.972-5.316-71.754-31.669c-31.004-39.642-87.699-37.205-87.699-37.205-6.422-10.41-24.804-36.32-52.93-56.473-15.723-11.295-32.333-19.046-49.386-23.254-20.596-4.872-41.856-4.43-63.56 1.107-14.616 3.987-48.721 21.482-55.365 25.247-28.79 16.61-57.802-23.918-57.802-23.918-.664 2.88-2.658 14.174-1.329 28.347 3.544 32.555 25.247 42.743 25.247 42.743s-16.61 3.764-32.776-5.537c-26.355-19.489-19.932-74.411-19.932-74.411-.222.221-16.167 17.052-21.703 39.863-3.322 13.51-4.208 25.911-2.658 37.427 1.772 14.174 8.416 27.24 17.496 37.206 0 0-9.966-1.108-23.918 7.308C62.797 309.863 36 271.992 36 271.992c1.107 36.542 19.932 65.553 46.729 88.143 10.63 8.858 21.26 16.388 39.42 23.475 19.046 7.308 45.178 14.173 85.042 22.367 45.842 9.08 79.062 24.14 101.43 45.843 18.603 17.939 28.347 38.313 34.548 57.138l11.294 36.984c0 1.107.665 1.993 1.772 2.879s2.658 1.329 4.208.886c.886-.222 1.993-.443 2.658-1.108.664-.664.885-2.436.885-2.657.665-18.16 2.88-39.863 2.88-39.863 1.771-26.355 15.059-48.28 39.42-65.11 13.066-9.08 26.132-14.174 32.776-16.389h.443c16.61 11.738 35.213 17.053 55.144 15.946 16.61-.886 30.12-6.201 36.763-9.08 38.756 15.945 41.857 31.89 42.078 33.662l-.886 9.301v.222h.222l47.393 2.879 26.132-23.475c-.221 0-6.865-.886-6.865-.886-9.966-1.107-37.206-5.758-42.078-14.617-1.55-2.879-.664-9.301 11.516-9.08 10.63.222 31.89 5.98 54.48 36.985l3.986 5.536z" style="fill:#0a2343"/><path d="M310.392 261.805c-44.735 5.094-89.692 17.939-133.099 37.87-21.703-1.55-41.856-10.408-53.594-23.918-14.838-17.052-19.71-42.3-9.523-74.19.665 27.683 8.859 43.85 22.147 52.93 15.502 10.63 39.641 10.852 73.525.443 52.708-16.388 88.364-13.73 100.544 6.865m-214.154 40.97c-26.797 13.731-42.742-1.55-42.742-1.55s12.18 63.339 103.201 11.074c-18.16-5.758-25.91-16.167-40.085-15.724-5.315 0-11.737 1.771-20.374 6.2m450.455 32.777-7.087 5.094 1.993-7.751c-1.328-.665-2.657-1.33-3.764-1.994-1.33 1.108-1.994 2.88-2.215 4.651-.222 3.987 2.658 7.308 6.644 7.53 3.765.221 7.087-2.436 7.53-5.98-1.108-.442-1.994-1.107-3.1-1.55M373.731 211.755c-14.838-11.074-30.34-18.825-46.286-22.811-9.523-2.436-19.489-3.765-29.233-3.544s-19.932 1.55-29.898 4.208c-13.066 3.544-42.52 17.939-53.594 23.697-29.011 15.06-47.835-4.43-54.922-11.738l-.222-.221c.665 3.986 1.993 11.294 5.315 18.603 3.987 9.301 9.745 15.945 17.274 20.153 13.288 7.53 31.891 6.422 55.145-3.1 25.91-10.63 47.614-13.953 64.445-9.745 15.281 3.765 29.233 15.945 37.649 32.555 28.126-1.107 56.252.886 83.713 5.98-14.174-21.925-31.226-40.528-49.386-54.037" style="fill:#fc4c02"/><path d="M660.497 410.604c0-7.033 2.022-12.57 2.461-13.714l-12.219-5.714c-3.78-4.131-26.02-18.988-47.558-32.965-21.45-13.89-42.108-26.812-42.547-27.075l-.176-.264.176-.176 5.977-4.044-55.381-23.471c-11.165-16.79-27.78-25.581-42.723-30.065-14.945-4.57-28.219-4.923-32.526-4.923 16.79 5.363 21.889 10.461 23.208 13.802.878 2.198 0 3.692 0 3.692v.264h-.176c-191.376-52.305-347.675 67.777-354.356 72.875 7.56 7.473 24.35 17.67 85.006 31.207 13.539-10.636 77.974-56.436 175.464-53.8l-15.736-23.91s60.218 15.735 94.765 34.724c-2.637 25.493 13.098 50.107 38.504 57.58 18.197 5.361 37.009.703 50.547-10.638l43.162 27.691-41.404-16.175c-17.758 12.835-40.965 17.318-63.118 10.022-27.69-8.88-45.888-33.23-48.525-60.48-93.446-23.472-162.278 35.69-176.08 48.524 11.077 3.516 21.538 7.472 30.857 11.956 11.252 5.538 21.449 11.692 30.504 18.548 6.856-8.35 34.547-37.36 87.467-37.8 0 0-51.777 13.45-68.391 55.734 14.592 17.054 22.328 34.987 28.13 52.304 1.318-16.439 6.593-31.207 15.472-44.481 7.296-10.9 17.317-20.658 29.449-28.834 20.834-14.153 41.228-19.251 41.404-19.251h.264c16.35 13.098 33.317 17.142 47.998 17.142 23.12 0 40.525-10.022 40.789-10.286 12.834 4.836 23.91 10.374 32.525 16.351 6.857 4.923 12.396 10.021 16.176 15.12 5.977 8.176 6.241 13.89 5.977 15.296l31.471 1.934 9.318-7.736c-28.57-3.78-37.185-12.658-39.03-20.13-3.078-18.373 15.735-20.659 24.174-19.516 19.955 2.637 44.042 20.395 53.184 32.79l6.593-18.197c-9.318-6.593-11.252-16.615-11.076-23.911M466.924 289.027c25.933.704 3.253-9.757.528-10.988 2.198.352 20.13 4.22 30.943 21.186-10.812-3.956-22.592-8-31.47-10.198m82.194 56.262-6.857 4.658s-10.813-14.153-36.306-31.03c0 0 2.813.35 8.176 2.109 4.659 1.494 11.34 3.956 19.954 8 .704.351 1.847.879 3.166 1.582.175.088.351.176.527.352l4.043 2.021c1.583.88 3.253 1.759 4.923 2.638 1.055.527 2.11 1.142 3.077 1.582.88.528 1.758.967 2.373 1.318 1.055.528 1.847.967 2.11 1.143 15.824 9.23 35.603 22.505 59.074 41.493zm92.566 51.601c4.484 0 9.758 1.32 9.758 1.32-14.329 5.713 2.726 21.888 4.308 23.382-26.46-20.746-21.538-24.702-14.066-24.702" style="fill:#fff"/></svg>