<svg xmlns="http://www.w3.org/2000/svg" xml:space="preserve" id="Layer_1" width="720" height="720" x="0" y="0" version="1.1" viewBox="0 0 720 720"><style>.st0{fill:#ffc627}</style><path d="M360.162 36.001a321.9 321.9 0 0 0-229.23 94.932 323.95 323.95 0 0 0-94.931 229.328C36.117 539.173 181.249 684.117 360.162 684c178.524 0 323.837-145.314 323.837-324-.218-178.786-145.05-323.691-323.837-323.999" class="st0"/><path d="M360.162 61.921C195.57 61.76 61.921 195.571 61.921 359.84c0 164.591 133.65 298.403 298.241 298.403 164.268 0 297.917-133.65 297.917-298.241 0-164.268-133.65-298.08-297.917-298.08" style="fill:#8b2332"/><path d="M360 83.953c-152.118 0-276.047 123.768-276.047 275.886 0 152.28 123.93 276.21 276.047 276.047 152.368-.031 275.88-123.542 275.91-275.91C635.941 207.564 512.412 83.984 360 83.953" style="fill:#0d2240"/><path d="M369.396 570.114a69 69 0 0 1 38.718 17.82 82.45 82.45 0 0 1-38.718 14.256zm-68.202 6.966a86.52 86.52 0 0 1 51.678-23.814v-27.054H278.19a81.85 81.85 0 0 0 23.004 50.868m51.516 25.11v-32.076a70.57 70.57 0 0 0-38.88 17.82 84.4 84.4 0 0 0 38.88 14.256m117.613-356.562-82.297-101.086-11.826 15.552-16.362-39.205v180.955l55.08-70.633zm107.08-1.295 6.156-3.402-19.763-30.78-5.508 4.05c-33.696-42.606-93.636-90.072-150.66-97.2 42.93 19.602 91.206 69.66 120.69 108.216l-30.942 22.518 3.726 5.67-139.968 90.882-139.968-90.882 3.726-5.67-31.104-22.518c29.646-38.556 77.76-88.614 120.852-108.216-56.862 7.128-116.802 54.594-150.336 97.038l-5.832-4.212-19.764 30.618 6.156 3.564-.161.324c-24.624 48.438-42.768 123.12-25.11 177.876-.486-47.304 24.947-112.266 47.79-155.52l33.371 18.792 3.402-5.346 129.924 81.648-171.396 111.456-.324-.325-23.003 6.156.323.648c-1.133 4.212.972 12.15 5.832 19.764 4.86 7.776 11.016 12.798 15.714 13.77l.324.648 15.228-18.468-.162-.324 341.334-214.65 3.402 5.347 33.534-18.792c22.842 43.254 48.275 108.378 47.952 155.52 17.496-54.918-.81-129.762-25.434-178.2M369.397 553.266a84.75 84.75 0 0 1 51.516 23.814 81.16 81.16 0 0 0 23.166-50.868h-74.682zm190.35-80.352-.324.325-157.626-102.384-27.54 16.362 171.234 107.73-.162.324 15.228 18.467.486-.647c4.536-.81 10.692-5.994 15.713-13.77 4.698-7.614 6.966-15.39 5.832-19.764l.324-.648z" class="st0"/><path d="M301.032 461.25a87.2 87.2 0 0 0 51.678 23.652v24.624h-74.52a84.3 84.3 0 0 1 22.842-48.276m68.364-25.11v31.914a68.5 68.5 0 0 0 38.718-17.82 84.7 84.7 0 0 0-38.718-14.094m18.63-291.598L376.2 160.094l11.826 26.89zm32.886 316.708a85.9 85.9 0 0 1-51.516 23.653v24.623h74.52a84.5 84.5 0 0 0-23.004-48.276M303.948 231.536l55.89 70.308V120.889l-99.953 121.986zm48.762 236.518V436.14a82.45 82.45 0 0 0-38.718 14.256 69.9 69.9 0 0 0 38.718 17.658" style="fill:#fff"/></svg>