<svg xmlns="http://www.w3.org/2000/svg" xml:space="preserve" width="720" height="720" viewBox="0 0 720 720"><path d="M360 684c178.94 0 324-145.06 324-324-.012-178.935-145.065-323.987-324-324C181.06 36 36 181.06 36 360s145.06 324 324 324" style="fill:#1d428a"/><path d="m571.97 148.136-.124-.124C454.881 30.98 265.187 30.923 148.154 147.888s-117.09 306.66-.124 423.693l.124.124c116.965 117.033 306.659 117.089 423.692.123s117.09-306.659.124-423.692M81.456 412.678a301.5 301.5 0 0 0 42.766-43.048l-28.039 94.452a277.5 277.5 0 0 1-14.727-51.404m19.967 63.583 36.96-124.474a642.5 642.5 0 0 0 48.713-76.044L120.823 512.23a275.5 275.5 0 0 1-19.4-35.968m82.7 106.064a297 297 0 0 1-24.64-21.949c-5.948-5.948-11.613-12.178-16.994-18.55l44.607 1.557c-.85 13.736-1.84 26.764-2.974 38.942m4.814-71.937-24.357.85 28.464-108.472c-.992 35.968-2.266 73.07-4.107 107.622m4.956-144.016L155.8 511.523l-26.34.849L194.884 279c0 25.065-.424 55.227-.99 87.372m22.516 89.497h12.178v52.961l-12.178.425zm0-16.143v-33.703h12.178v33.703zm0-49.846v-32.712h12.178v32.712zm0-48.855v-17.418h12.178v17.418zm0-33.562v-17.701h12.178v17.701zm12.037-33.844H216.41v-10.904h12.037zm332.072 286.757A281.94 281.94 0 0 1 360 643.359a282.2 282.2 0 0 1-101.675-18.693c-1.274-19.4-2.549-42.624-3.823-67.972l-25.915-8.78v63.3c-4.106-2.125-8.213-4.39-12.178-6.798v-60.042l12.178.425v.425h13.17l23.932.85 298.369 10.62c-1.133 1.275-2.407 2.408-3.54 3.682m-28.605-61.458-29.172.991-23.79-61.6 4.673 2.266 13.028 6.514c4.39 2.124 8.78 4.107 13.17 6.231 1.274.567 2.549 1.133 3.682 1.7zm-7.08-38.66c11.753 5.382 23.648 10.48 35.543 15.436l9.77 21.808-29.312.991zm-31.155 39.934-29.879.992-31.012-88.08 5.947 3.398 6.373 3.54c4.248 2.407 8.496 4.673 12.744 7.08l9.771 5.24zm-38.517 1.275-26.623.85-38.8-115.836c5.947 3.823 11.895 7.647 17.984 11.329l12.462 7.646 1.699.992zm-35.544 1.274-27.897.992-46.022-147.698c10.62 7.93 21.524 15.577 32.428 23.082zm-36.676 1.275-26.906.85-54.803-184.516c3.824 3.398 7.789 6.655 11.754 9.912a611 611 0 0 0 21.1 16.852zm-35.544 1.133-29.738.991-65.423-233.512c5.664 6.372 11.612 12.461 17.7 18.55 6.373 6.373 12.887 12.462 19.401 18.551zm-38.376 1.274-25.773.85-35.968-137.077c-1.133-35.402-2.124-67.972-2.832-94.311zm-34.411 1.133-22.233.708c-1.416-32.57-2.69-66.84-3.823-100.117zm308.423 27.472-329.523-6.514-.141-3.115 335.612 1.84c-1.983 2.55-3.824 5.24-5.948 7.79m25.49-38.8-29.313 1.132-7.505-16.993a936 936 0 0 0 37.668 14.444c-.284.425-.567.992-.85 1.417m-91.338-59.476c-4.39-1.983-8.78-3.824-13.028-5.806l-12.886-6.09-6.514-3.115-6.372-3.115-12.745-6.372c-4.248-2.125-8.497-4.39-12.603-6.656l-6.373-3.399c-2.124-1.132-4.106-2.265-6.23-3.398l-12.462-6.94-12.32-7.221a805 805 0 0 1-94.453-64.432c-14.869-11.895-29.455-24.215-43.19-37.385-6.94-6.514-13.595-13.31-20.11-20.25-1.557-1.699-3.256-3.398-4.814-5.24-1.557-1.698-3.115-3.54-4.673-5.38-1.557-1.841-3.115-3.54-4.531-5.381 0-.142-.142-.142-.142-.284-.566-20.816-.85-33.278-.85-33.278l-14.16-3.398v18.975h-12.037v-19.966l-15.152 3.681.142 7.222-7.08 3.824c.14 5.947.283 13.736.424 22.94-5.806 10.055-68.538 118.527-115.552 151.946a292 292 0 0 1-2.69-38.659 280.14 280.14 0 0 1 82.84-200.093c110.852-110.581 290.36-110.362 400.942.49 82.978 83.182 106.05 208.925 58.011 316.147-34.41-11.612-68.255-24.64-101.392-39.367" style="fill:#fdb927"/></svg>