<svg xmlns="http://www.w3.org/2000/svg" xml:space="preserve" width="720" height="720" viewBox="0 0 720 720"><path d="M681.117 337.314c-5.81-46.482-16.406-69.381-23.925-91.94-5.81-16.063-24.95-54.684-35.887-72.457-9.57-14.013-27.001-39.647-34.179-48.533-2.05-2.734.684-1.367 1.71-1.367 2.734.683 4.1.683 5.81.683 1.367 0 4.443-.341 6.152-1.025 9.228-2.05 22.9-12.304 21.19-30.419.342-4.101-4.101-38.621-7.519-49.216-4.443-15.039-13.33-22.216-29.393-23.583-8.203 0-42.04-.684-57.078 1.709-30.76 3.076-53.318 11.962-66.647 39.305-10.596 23.924-7.178 60.837 7.86 89.547 5.127 9.57 15.039 27.684 23.925 39.646 8.203 11.621 11.28 17.773 18.457 30.76 7.177 13.672 30.418 64.94 38.621 98.434 15.38 62.546 6.836 98.433-22.9 147.308-21.874 32.47-47.165 56.053-66.989 66.648-32.47 20.507-76.9 25.975-100.142 25.975s-67.331-5.81-100.142-25.975c-19.824-10.595-45.116-34.178-66.99-66.648-29.393-48.875-37.937-84.762-22.899-147.308 8.203-33.495 31.444-84.762 38.621-98.433 7.178-12.988 10.254-19.14 18.457-30.76 8.544-11.621 18.798-29.736 23.924-39.647 14.697-28.368 18.457-65.623 7.861-89.547-13.67-27.685-36.229-36.571-66.989-39.647-15.38-2.393-49.217-1.709-57.078-1.709-16.405 1.025-25.292 8.203-29.735 23.241-3.418 10.595-7.86 45.115-7.519 49.217-1.709 18.114 11.62 28.368 21.19 30.418 1.71.342 4.786 1.026 6.153 1.026 2.05 0 3.418 0 5.81-.684 1.025 0 3.418-1.367 1.709 1.367-7.178 8.887-24.608 34.52-34.178 48.533-10.937 18.115-29.735 56.736-35.546 72.8-7.519 22.558-18.114 45.799-23.924 91.94-5.127 32.127-2.393 68.014 0 83.053 3.76 28.71 12.987 81.344 61.179 146.624 33.494 45.457 72.457 78.268 119.623 103.219 24.267 12.646 74.509 31.444 140.131 31.102s116.206-18.456 140.131-31.102c47.166-24.95 86.13-57.762 119.624-103.219 48.191-65.28 57.42-117.915 61.179-146.624 2.734-15.039 5.468-50.584.342-82.712" style="fill:#fff"/><path d="M662.66 319.542c-22.215-103.56-66.647-155.853-91.94-191.74-11.961-17.431.343-27.343 9.913-23.925 8.202 3.076 13.67 3.418 13.67 3.418 14.356-2.05 12.305-11.279 9.57-35.887l-3.417-20.165c-3.076-17.773-10.937-17.431-32.128-17.09-33.494.684-39.646 1.026-57.76 4.444-24.267 5.468-55.711 29.393-30.761 95.699 15.38 35.545 31.444 47.507 48.875 84.42 18.798 41.014 64.255 132.611 33.494 210.88-35.887 97.066-125.775 142.865-203.36 143.89-77.585-1.367-159.27-38.963-201.652-143.89-30.76-78.269 14.697-170.208 33.495-210.88 17.43-36.913 33.495-48.875 48.875-84.42 24.95-66.306-6.836-90.573-30.76-95.7-18.115-3.417-24.267-3.759-57.762-4.443-21.19-.341-29.051-.683-32.127 17.09l-3.418 20.165c-2.734 24.608-4.785 33.836 9.57 35.887 0 0 5.468-.342 13.671-3.418 9.57-3.76 22.216 6.494 9.912 23.925-24.609 35.887-69.04 88.18-91.256 191.74-19.14 113.13 19.823 178.068 36.57 208.829 37.597 61.862 76.218 93.99 119.283 119.624 58.103 36.57 144.915 38.963 149.358 37.596 21.191-.342 98.434-5.81 144.574-37.596 42.723-25.292 81.686-57.762 119.283-119.624 16.405-30.76 55.368-95.7 36.228-208.83M524.58 140.106c-4.443 0-7.86-3.418-7.86-7.861s3.417-7.861 7.86-7.861 7.861 3.418 7.861 7.86c0 4.102-3.418 7.862-7.86 7.862m-329.136-15.722c4.443 0 7.86 3.418 7.86 7.86 0 4.444-3.417 7.862-7.86 7.862s-7.861-3.418-7.861-7.861 3.418-7.861 7.86-7.861m-92.623 230.02c-4.443 0-7.861-3.418-7.861-7.862s3.418-7.86 7.86-7.86 7.862 3.417 7.862 7.86-3.418 7.862-7.861 7.862m47.166 182.17c-4.443 0-7.861-3.418-7.861-7.861s3.418-7.861 7.86-7.861c4.444 0 7.862 3.417 7.862 7.86s-3.76 7.862-7.861 7.862m209.512 99.8c-4.443 0-7.86-3.418-7.86-7.861s3.417-7.861 7.86-7.861 7.861 3.418 7.861 7.86-3.417 7.862-7.86 7.862m210.88-99.8c-4.443 0-7.86-3.418-7.86-7.861s3.417-7.861 7.86-7.861 7.861 3.417 7.861 7.86-3.76 7.862-7.86 7.862m46.824-182.17c-4.443 0-7.86-3.418-7.86-7.862s3.417-7.86 7.86-7.86 7.861 3.417 7.861 7.86-3.417 7.862-7.86 7.862" style="fill:#013369"/></svg>