<svg xmlns="http://www.w3.org/2000/svg" xml:space="preserve" width="720" height="720" viewBox="0 0 720 720"><path d="M660.323 290.204s-10.532-23.114-40.51-42.812c7.512-9.633 10.424-21.208 6.955-30.357-3.595-9.508-28.83-26.87-38.337-31.795-9.508-4.907-22.629-12.132-22.629-12.132s-33.718-20.453-60.212-32.01c-31.938-13.912-89.47-32.442-152.033-19.233 0 0-37.546-12.312-105.433 8.664-23.748 6.52-64.066 17.238-86.671 21.013-33.504 5.587-67.493 6.16-93.823 8.948-13.876 1.473-23.114-1.601-27.625 6.223-19.825 34.34 39.29 92.47 60.714 101.65-6.344 35.717 1.708 77.966 39.198 120.194 40.766 45.939 97.168 54.651 130.236 79.078 37.115 27.41 44.81 62.024 75.812 94.413 28.523 29.8 84.276 55.215 134.222 30.879 54.173-26.404 64.002-70.472 65.963-78.743.647-4.224-1.798-8.501-7.244-11.126-.916-.431-2.732-1.33-5.122-2.588 2.157-8.627 7.657-34.581 2.229-57.21 0 0-15.314 22.413-26.889 34.815-3.235-3.037-18.1-18.081-15.637-35.91 6.794-2.697 14.685-6.381 20.706-10.91a129 129 0 0 0 9.328-7.782c30.483-8.735 37.33-21.334 37.33-21.334 1.132 3.091 4.978 7.045 4.978 7.045 4.493-2.534 10.478-7.045 10.478-7.045.575 3.666.504 10.154.504 10.154a19.4 19.4 0 0 1 4.475-1.042c-2.265 11.27-15.457 30.374-15.457 30.374 46.244-13.246 65.711-47.394 65.711-47.394l-.017-.18c1.744-.36 2.966-.827 2.966-.827s31.04-8.825 45.291-39.253c14.253-30.428-11.52-59.923-19.465-63.77z"/><path d="M310.625 186.467c2.84 1.222 5.156 3.717 6.72 6.34-4.152-.305-8.32-.535-12.471-.715 1.923.665 3.25 1.31 3.591 1.471 0 0-3.448-.522-5.785-.576 0 0 1.169.646 1.816 1.365 0 0 .125 1.367-.073 2.14-.18.79-.575 1.96-.126 3.253.45 1.312 1.757 4.226 1.955 5.268 0 0-3.985-.324-6.322-.378 0 0 6.45 3.128 8.409 4.314 0 0-1.309-.072-2.153 0 0 0-2.215 1.296-2.664 2.14-.467.845.003 4.692-2.154 6.382-2.138 1.689-5.018 1.29-5.917 2.332-.916 1.042.524 2.485.524 2.485s-4.672-1.06-6.11-1.186c0 0 2.225 2.244 3.645 3.286 0 0-1.83-.417-3.718-.165-1.887.27-7.747.72-10.893-1.743-3.127-2.48-1.488-4.436-.769-5.208.72-.773.894-1.767-1.173-4.175-2.084-2.408-1.76-2.403-1.365-3.697 0 0 7.28.016 9.887.735 0 0-7.1-4.005-9.887-4.598 0 0 .127-.902 1.69-2.088 1.564-1.168 3.646-2.106 4.347-5.036 0 0 5.253 1.009 8.236 1.458-3.253-1.24-4.767-3.074-10.105-4.565 0 0 3.72-.18 5.122-.305 0 0 2.558-.45 3.744-1.564.485-.45 1.096-1.02 1.869-1.524-10.335.198-20.638 1.168-30.792 3.558-16.212 3.81-32.348 7.836-48.525 11.808-.126.036-.272.07-.398.106 2.732-1.707 5.108-4.114 7.283-6.487-4.781 1.186-9.634 2.17-14.505 3.015-7.944 1.402-16.12 2.627-24.226 2.16-13.39-.773-26.781-3.83-39.829-6.831l-3.452-.809c.287.198 4.707 2.965 6.235 3.863 6.434 3.793 13.069 7.248 20.078 9.854 2.12.7 4.222 1.508 6.36 2.173a102 102 0 0 0 7.19 1.922c2.21.503 4.457.897 6.686 1.239 3.99.593 8.054.83 12.08.722 4.061-.09 8.104-.648 12.112-1.385 4.637-.863 9.24-1.869 13.77-3.18.754-.198 1.489-.434 2.226-.65 6.254-1.923 12.308-4.69 18.149-7.673 1.528-.755 3.06-1.53 4.552-2.34a.3.3 0 0 0 .106-.065c.036 0 .07-.022.106-.04-.09.108-10.858 9.043-16.141 12.278-1.15.701-2.32 1.398-3.506 2.08a140 140 0 0 1-5.877 3.148 88 88 0 0 1-5.082 2.445c-.899.396-1.8.774-2.717 1.133-.054.018-.085.055-.139.073-.467.234-.94.484-1.425.736-3.091 1.923-6.254 3.722-9.561 5.267-.036.018-.086.03-.14.067a110 110 0 0 1-3.306 1.51c-.018.018-.055.022-.073.04-.036.018-.057.015-.093.033-3.001 1.312-6.093 2.502-9.13 3.598-2.427.845-4.869 1.65-7.349 2.333-17.56 5.14-28.274 5.016-28.274 5.016 1.186.539 2.787 1.021 4.26 1.345 5.285 1.186 17.942 2.305 18.534 2.485.054-.018.088-.022.106-.04-.036.036-.364.396-1.047 1.007-7.907 7.243-18.007 11.63-28.287 14.452a120 120 0 0 1-16.89 3.306c-.88.108-1.745.196-2.644.285-.36.126-.612.293-.702.49-2.804 8.753-2.89 18.207-2.406 27.3.27 4.89.862 9.757 1.743 14.592.018.018.013.055.013.073a30 30 0 0 1 2.247-2.015s2.609-2.158 7.156-2.823c0 0-.055-.07-.199-.178a2 2 0 0 0-.199-.18c-.97-.826-2.458-1.24-3.77-1.437-.36-.09-.701-.123-1.007-.16.09 0 .394-.073.861-.145 2.84-.593 6.202-1.116 8.952-.523a.4.4 0 0 1 .2.04c1.67.377 3.143 1.49 4.041 2.928.09.162.16.307.232.45q.163.296.272.59c.018.054.035.11.053.146.072.198.143.412.179.61.054.197.09.398.126.596 0 .036.02.09.02.126.018.198.033.412.033.61 0 .736-.14 1.472-.464 2.173-1.078 2.39-3.041 6.955-3.041 8.68 0 .791-4.079 3.63-5.175 4.745-.072.072-.125.144-.18.198.109 0 .237-.02.345-.02.072-.018.175-.015.265-.033 1.204-.108 2.394-.325 3.598-.45.665-.054 1.27-.106 1.756-.106h.06s2.801 5.207 4.976 6.95c2.175 1.726 4.113 5.415 4.778 8.237.018 0 .054.013.072.013.27.018.578-.067.902-.192.035-.018.07-.04.106-.04q.16-.052.377-.16c.378-.16.7-.323.809-.377.413-.162.812-.343 1.226-.523.341-.162.734-.374 1.166-.59l.106-.053s-4.099 6.033-8.88 8.872c.306.054 4.117.617 6.004-.192.018 0 .035-.02.053-.02 0 0 .328 7.204-6.7 14.969-.484.539 5.23 7.32 8.734 11.29.144.163.272.303.398.465.107.125.233.25.304.357.27.306.538.593.736.809.216.27.374.453.464.543.251-.216 2.179-1.868 3.167-2.677a80 80 0 0 1 5.301-3.863c1.707-1.168 5.659-3.273 5.659-3.273.018 0 .035-.022.053-.04.198-1.78.795-2.803 1.299-3.432.665-.827 1.671-1.006 2.498-1.491.341-.198.72-.413 1.08-.809.126-.126.245-.27.37-.45.073-.108.148-.212.22-.338.09-.144.18-.304.251-.484.072-.144.125-.287.18-.43.197-.45.374-.99.536-1.637.288-1.097 1.206-2.12 1.206-2.12-.018 0-.053-.02-.053-.02-1.258-.468-2.534-.864-3.81-1.26a104 104 0 0 0-6.162-1.636 100 100 0 0 0-4.155-.915c10.784-7.135 22.717-12.453 34.992-16.605 4.097-1.384 12.795-3.863 12.795-3.863-1.222-1.132-2.424-2.464-3.035-3.704-1.528-3.038 1.075-7.605 2.154-9.33 1.096-1.743-.862-2.823-.862-2.823 1.743-1.312 3.042-3.465 3.042-3.465-.036 0-.057.02-.093.02-3.864.844-7.495 1.06-7.495 1.06l-.02-.02c-2.156-1.726-3.015-5.41-2.584-7.369.432-1.94 1.292-4.996 1.292-4.996h-.073c-.718.072-1.509.015-2.246-.093-1.258-.161-2.356-.464-2.644-.536l-.013-.02c8.232-1.079 12.345-4.115 12.345-4.115-.036 0-.07.02-.106.02-2.175.413-5.95.63-5.95.63V292c.035-.234.305-2.43 1.941-3.526.611-.413 1.885-.415 3.413-.199.862.126 1.797.31 2.75.544.449.107.902.212 1.351.338a85 85 0 0 1 4.367 1.312c.036 0 .037.02.073.02 3.253 1.096 4.777 5.426 4.777 5.426.88 2.804 2.267 4.834 3.903 6.362.018.018.035.04.053.04a15 15 0 0 0 2.405 1.722c.324.216.668.4 1.028.543.341.162.68.32 1.04.464 1.042.432 2.103.771 3.127 1.04.665.18 1.333.345 1.962.471.323.072.648.14.954.212a5.3 5.3 0 0 1 1.577.63c1.456.826 2.515 2.338 3.234 3.83a372 372 0 0 1 17.24-1.458 26 26 0 0 0-2.318-2.386c-5.77-5.32-13.842-8.734-21.085-11.052 14.414-1.923 28.99-2.499 43.494-3.002a961 961 0 0 1 24.894-.596c-1.743-1.456-4.15-2.301-6.235-3.128 4.87-.557 9.952-.088 14.823.272-4.152-2.085-8.86-3.273-13.299-4.586a348 348 0 0 0-9.416-2.624c.054 0 .216.02.378.02-.054-.018-.112-.021-.166-.04 2.12.18 4.3.381 6.474.597.36.018.699.057 1.04.093 12.419 1.312 24.806 2.712 37.153 4.42a812 812 0 0 1 46.496 7.832c14.036 2.785 28.036 6.24 41.912 9.727a661 661 0 0 1 17.507 4.652c-9.472-2.732-19.864-5.483-31.15-8.197-7.402-6.954-14.702-13.925-22.536-20.323-17.919-4.762-37.722-9.368-59.469-13.484-13.57-2.552-26.149-4.613-37.797-6.248a835 835 0 0 1 38.604 4.598 845 845 0 0 1 50.327 8.754c-8.448-6.003-17.399-11.019-26.187-16.447-3.038-1.869-6.167-3.826-8.773-6.288-1.33-1.24-2.75-2.806-2.929-4.711a5.6 5.6 0 0 1 0-1.094c0-.018.02-.055.02-.073a5 5 0 0 1 .106-.702l.053-.219c.018-.053.06-.105.06-.159.072-.18.138-.416.192-.596.036-.108.092-.23.146-.338.773-1.797 2.154-3.435 3.538-4.585.198-.162.383-.34.617-.537.143-.126.287-.214.43-.358.198-.162.377-.309.557-.47.216-.162.428-.36.59-.504.018-.018.021-.013.04-.013.071-.054.14-.132.211-.186.036-.036.09-.07.126-.106l.04-.033c.072-.054.123-.092.159-.146l.484-.987c11.952-21.442 41.858-26.922 41.858-26.922-3.091-4.332-6.739-6.686-6.739-6.686 4.026-1.42 9.078-.544 11.02-.113-.018-.09-.018-.175-.054-.265-.647-2.606-.342-4.117.305-4.638 0 0 4.365.142 5.659.61-.467-.216-2.421-1.202-3.717-2.227a346 346 0 0 0-15.154-3.293c-20.525-3.99-41.53-5.516-62.38-6.288-3.72-.144-7.44-.232-11.179-.232zm129.225 22.582c-.848.593-2.103 1.533-3.253 2.663v.272c0 3.307 2.39 10.232 7.48 14.385 6.597 5.394 18.878 10.788 18.878 10.788-.589-2.087-.304-4.784-.304-4.784 1.799 2.983 5.705 7.478 11.688 10.787.383.218.791.417 1.226.616 1.852.881 4.28 1.922 6.706 2.876 1.769.696 3.773 1.319 5.308 1.743 6.443 1.33 13.281 2.41 19.746.795 3.885-.97 8.14-2.897 11.178-5.626l-.007-.006c.017 0 .028-.02.047-.053-6.727 2.48-13.937 3.29-20.846.914-1.145-.394-2.33-.805-3.479-1.292-.435-.18-.85-.38-1.279-.596-6.926-3.471-13.197-8.507-19.335-13.2-10.52-8.057-21.525-15.159-33.754-20.283m83.496 7.759c21.216 21.938 6.242 40.664 6.242 40.664s-26.723-5.54-47.005-4.407c-9.676.556-21.1 4.945-30.414 9.37.09.016.186.015.258.033h.034c1.993.072 3.817.271 5.506.596a29 29 0 0 1 3.161.776c2.987.915 5.43 2.208 7.388 3.664q1.004.729 1.836 1.51.436.38.815.79c4.619 4.71 5.572 9.965 5.572 9.965h.007c.177-.143.371-.31.583-.47 1.744-1.294 3.656-2.338 5.6-3.307a95 95 0 0 1 4.883-2.286 109 109 0 0 1 18.003-5.95c7.302-3.47 28.488-5.554 32.641-5.215 4.173.361 9.727 1.043 9.727-1.385s-2.425-11.115-9.025-24.298c-4.387-8.756-11.495-16.093-15.81-20.051zm-46.601 62.963c13.266-.483 22.906 13.29 25.478 16.758h.378c7.658 0 15.411-.325 23.106-.126.864.02 8.457.362 8.872.398 2.227.142 4.436.306 6.646.504 4.798.431 9.601.975 14.366 1.656 1.188.16 2.377.34 3.565.517 0 0-4.172-3.772-6.15-6.845-1.978-3.097-1.802-6.368-1.802-6.368l.007-.007c5-.305 7.896-2.603 8.634-5.533.88-3.526-3.021-6.4-3.021-6.4l-.239-.093c1.44 1.276 1.997 2.625 1.332 4.008-3.202 6.602-20.198-2.267-38.432-3.902-18.216-1.636-42.74 5.433-42.74 5.433m133.87-62.06c-1.096 2.195-5.879 7.515-26.307 4.154.126.072.265.128.391.199 3.688 1.872 7.588 4.103 11.238 6.368 5.002 3.059 9.514 6.15 12.875 9.117 0 0 6.802-8.29 2.736-17.963-.213-.54-.5-1.1-.808-1.657-.034-.07-.088-.145-.126-.219" style="fill:#9f792c" transform="translate(1.062 1.206)"/><path d="M138.077 166.02c-3.257.235-6.533.43-9.787.609-17.912.95-35.84.538-53.733 1.637-2.66.163-5.291.232-7.951.232H66.5c1.458.323 2.916.724 4.353 1.12 1.961.52 3.902 1.074 5.845 1.67a264 264 0 0 1 19.421 6.639 252 252 0 0 1 9.422 3.863 212 212 0 0 1 9.8 4.605c.88-1.35 4.858-1.352 4.858-1.352l-.504-1.04s1.114.7 2.498.61c.108 0 .182-.018.272-.034.377-.144.72-.27 1.007-.378.45-.285.827-.686 1.69-.974 1.475-.52 3.525-.304 3.525-.304.557-1.007 3.021-1.975 3.021-1.975-.485-.451-1.08-.934-1.08-.934.989-.162 3.257.3 4.208.41.65-.055 1.17-.11 1.365-.218.036-.018.057-.033.093-.053.27-.216.45-.663.198-1.06-.467-.43-1.514-.755-2.233-1.08-.826-.376-.912-.915-.934-1.06-.014-.035-.013-.056-.033-.074-.863.162-2.85-.682-2.85-.682s1.665-.091 2.095-.364c.197-.106.59-.3 1.093-.497l.166-.166a.3.3 0 0 0 .086-.073c.054-.052.13-.101.165-.14.036-.035.067-.059.067-.059s1.371-1.366 2.431-1.67c1.059-.287 9.82-4.366 9.82-4.366s-2.396.144-4.539 0a19 19 0 0 1-4.075-.756c-.936-.325-.216-1.42.325-2.087M54.78 181.46a75 75 0 0 0-8.614.29s7.608 1.873 12.967 9.045c-1.675 7.052 7.443 22.679 21.217 34.656 2.393 2.083 4.983 4.333 7.806 6.58-2.48-.052-10.376-.232-10.376-.232 7.3 4.714 26.637 11.079 26.637 11.079-4.245 1.418-11.55 2.59-11.55 2.59.484.542 14.44 7.79 40.46 8.867 14.282.575 28.47-1.928 41.632-7.501.127-.056.216-.11.305-.146a7 7 0 0 1 .417-.232c-.594-.18-13.253-1.29-18.54-2.478-1.458-.323-3.063-.812-4.248-1.352 0 0 10.698.13 28.268-4.996 2.482-.7 4.933-1.494 7.342-2.339 3.055-1.098 6.127-2.286 9.13-3.598.038-.016.056-.02.093-.04.018-.016.057-.013.073-.033a110 110 0 0 0 3.307-1.51c.054-.038.108-.055.146-.073 3.308-1.546 6.476-3.343 9.568-5.268.487-.252.949-.5 1.418-.736-11.223 4.461-22.646 5.989-34.727 6.852-10.395.736-25.52 1.152-41.003-.769-25.444-3.183-38.897-11.748-38.897-11.748 23.254 4.081 35.535 3.36 41.129 2.425-8.488-5.395-15.769-12.19-25.266-18.123-19.84-12.403-38.75-20.752-58.692-21.214zm378.175 12.375c-3.762-.09-12.08.304-18.46 4.917l.702.437c.072.054.16.087.232.14q.246.16.49.324c.09.036.154.092.226.146.18.108.343.228.503.338q.086.055.166.113c.217.143.43.286.63.43 0 0 .02.013.039.013.178.126.337.235.477.345.056.052.132.092.186.146.09.054.16.105.232.159.054.036.107.09.159.112.02.017.024.034.04.034.073.053.105.088.159.126 0 0 .023.02.04.02a1 1 0 0 1 .085.066c-1.637-.397-5.018-.863-6.6-1.08-.47.469-1.508 1.513-1.94 2.054 0 0-.952 1.238-1.511 4.42-.178 1.026.393 3.388 1.437 4.306 1.041.899 4.303 3.896 4.824 5.315.525 1.44-.434 3.674-.218 4.644 0 0-2.517-1.619-3.937-2.014.286.288 3.162 3.236 1.544 3.612 0 0-1.439-1.666-4.048-2.837-2.608-1.17-7.409-3.531-8.846-4.823-1.35-1.224-2.23-3.812-2.32-4.135.16.215.955 1.279 1.67 1.404.723.126 2.843 1.49 3.115 1.67-.09-.214-.827-1.993-1.69-2.71-.9-.793-3.109-1.84-4.28-3.26l1.292-.398s.363-2.55-.212-5.069c-1.945-.43-6.996-1.313-11.026.106 0 0 3.655 2.356 6.745 6.673 0 0-29.905 5.484-41.865 26.922l-.49.988s-.05.06-.16.165c.163-.126.253-.199.253-.199s.034-.002.086-.02h.02c0-.02.002-.02.02-.02.469-.393 5.182-4.435 8.057-6.036 4.19-2.338 8.863-3.783 13.432-5.168 4.746-1.419 10.307-2.535 15.233-3.002 16.69-1.582 33.2 1.204 48.684 6.454 15.068 5.11 28.936 12.934 44.382 17.069q2.951.791 5.937 1.424c.369.078.744.15 1.114.226-1.533-.425-3.532-1.043-5.295-1.737-2.426-.954-4.854-1.995-6.706-2.875-.434-.2-.843-.4-1.225-.617-5.984-3.308-9.883-7.803-11.683-10.787 0 0-.291 2.697.299 4.784 0 0-12.283-5.4-18.878-10.794-5.09-4.153-7.481-11.079-7.481-14.385v-.272c-.899.863-1.723 1.84-2.28 2.883-1.817 3.344-1.676 5.877-1.676 5.877s-1.566-.666-2.982-1.763c0 0 .718 3.023 3.273 4.3 0 0 1.458 1.926.829 3.38 0 0-4.48-.361-5.527-1.206-1.042-.864-4.366-2.067-4.366-2.067s1.111-.18 2.299-.106c0 0-1.202-2.928-2.352-3.916-1.152-.974-3.479-2.757-2.956-5.023 0 0 2.739.193 4.05.716 0 0-4.315-3.74-6.958-4.334l3.61-.192s-.486-2.554 4.102-4.784c4.605-2.23 6.024-3.651 6.998-5.09.95-1.439 1.346-2.913 2.55-3.776 0 0 2.252 1.276 4.03 2.624 0 0-1.026-3.038-4.281-5.268 0 0-.747-.089-2.001-.12zM374.26 233.79a48 48 0 0 0-4.817.106c-.125.02-1.961.217-1.961.2 1.42 4.602 7.713 11.396 7.713 11.396-2.986.216-6.819-.841-6.819-.841 5.54 7.444 20.863 16.81 32.787 19.15 11.923 2.338 22.767 1.908 22.767 1.908-1.693.862-4.459 1.921-4.459 1.921s4.675-.217 11.06 1.06c.826.162 1.724.382 2.696.65 4.23 1.08 9.46 2.824 12.537 3.903.36.118.696.242.987.344-1.479-.987-2.965-1.966-4.492-2.882-3.13-1.961-7.428-4.548-11.404-6.633-6.022-3.183-12.214-6.147-18.56-8.667a249 249 0 0 1-11.675-6.348c-5.176-3.003-10.317-6.17-15.207-9.641-2.32-1.636-5.016-3.005-7.03-5.016-.13-.128-.294-.267-.418-.285a29 29 0 0 0-3.704-.325m45.879 3.234c2.647.61 5.455 2.73 7.574 4.22 1.297.919 2.46 1.999 3.704 2.97.251.195 3.485 2.18 3.63 2.18.45.161.934.27 1.386.27 1.58 0 2.766-1.08 2.875-2.862h.007c.11-1.797-2.18-2.803-2.18-2.803-1.71-.469-3.453-.957-5.327-1.444-3.718-.989-10.048-2.226-11.67-2.531m-127.4 45.644a349 349 0 0 1 9.416 2.624c4.44 1.312 9.147 2.5 13.299 4.586-4.87-.36-9.952-.83-14.823-.272 2.085.827 4.492 1.672 6.235 3.128-8.285.09-16.591.29-24.894.596-14.504.503-29.08 1.078-43.494 3.002 7.243 2.318 15.316 5.732 21.085 11.052.827.755 1.6 1.547 2.319 2.392-5.733.342-11.501.84-17.235 1.451l.013.02c1.133 2.319 1.511 4.658 1.511 4.658-1.51 2.588-5.646 4.977-5.646 4.977 1.96.431 4.566 0 4.566 0-1.096 3.684-.212 5.426-.212 9.11 0 3.703-4.569 5.23-11.722 6.309s-10.191-1.292-10.191-1.292l1.08-2.412c-2.39.431-9.343.669-9.343.669 4.565-1.977 10.423-6.096 10.423-6.096-2.804 1.096-8.647 2.498-8.647 2.498s-1.762-1.256-3.505-2.91c0 0-8.698 2.48-12.795 3.864-12.276 4.152-24.21 9.47-34.992 16.605 1.402.27 2.789.591 4.155.915a104 104 0 0 1 6.162 1.636c1.276.396 2.552.792 3.81 1.26 0 0 .035.02.053.02 1.905-2.14 5.288-3.685 5.288-3.685-1.761 2.211-1.977 4.544-1.995 5.03.018.018.035.02.053.02 3.81-6.04 10.244-5.553 10.244-5.553-1.33.341-2.981 1.332-2.981 1.332s2.817.989 5.638 1.815c2.822.845 9.115 1.325 12.782 1.325 3.649 0 10.443 1.332 10.443 1.332 2.984-.988 12.133-3.306 12.133-3.306-3.163 1.977-8.793 4.797-8.793 4.797 11.449 6.309 1.656 19.27 1.656 19.27s-2.015.499-6.149 3.644c-4.151 3.163-5.155 7.302-5.155 7.302 2.157-1.977 5.155-3.81 5.155-3.81-.844 1.33-.499 1.995-2.332 6.129-1.815 4.152-6.31 3.99-9.456 4.314-3.145.341-8.29-3.472-8.29-3.472-1.832.665-5.154 3.81-5.154 3.81 1.491-4.98 6.97-10.278 6.97-10.278-2.318.989-6.466 3.97-6.466 3.97-2.319-1.816-10.48-4.154-15.943-7.137-5.482-2.984-4.817-8.786-4.817-8.786.341-3.487 3.326-8.144 3.326-8.144-1.833 1.007-3.81 3.167-3.81 3.167a10.3 10.3 0 0 1 .02-1.835v-.053c-.018.018-.035.033-.053.033 0 0-3.958 2.105-5.665 3.274a80 80 0 0 0-5.301 3.863c-.989.809-2.91 2.461-3.16 2.677.287.323.5.555.609.662 9.076 9.777 19.753 18.315 30.699 25.935a280 280 0 0 0 15.797 10.138c19.105 11.377 39.29 21.01 59.635 29.924 12.599 5.536 24.568 12.675 35.046 21.661 6.704 5.716 12.794 12.17 18.043 19.27 6.111 8.285 10.57 17.612 16.089 26.292 9.13 14.378 20.001 27.786 32.905 38.93 7.37 6.363 15.44 12.043 24.193 16.321 2.372 1.168 4.797 2.227 7.295 3.108.935.323 2.015.804 3.022.894-.268 2.337-2.68 4.334-4.46 5.646 14.595 2.876 29.707 2.461 44.284-.073-2.606 2.804-5.243 5.607-7.885 8.429 14.81-.575 29.991-5.123 43.31-11.377 12.815-6.021 24.519-14.378 34.025-24.928 5.571-6.183 10.353-13.066 14.253-20.416.468-.898.573-.936-.272-1.332-5.5-2.875-12.005-4.132-18.115-4.797-18.513-1.995-36.556 4.349-53.79 10.244-7.333 2.516-14.806 5.59-22.516 6.759-10.945 1.653-22.144 1.688-32.243-3.506-9.492-4.888-17.362-12.721-24.246-20.773-6.488-7.62-12.24-15.874-17.506-24.41-10.604-17.165-19.142-35.518-25.756-54.567-5.572-16.068-9.901-33.068-9.29-50.215.503-13.767 3.971-28.345 11.304-40.134 3.63-5.841 8.405-11.05 14.32-14.644a39.1 39.1 0 0 1 10.177-4.334 46 46 0 0 1 5.626-1.093 838 838 0 0 0-57.34-10.948c-13.64-2.12-26.278-3.759-37.98-5.014a821 821 0 0 1 38.737 3.346c118.57 13.03 183.25 44.606 183.25 44.606s5.267 3.47 2.391 7.82c-1.383 2.084-4.224 1.828-6.255 1.271-2.264-1.114-6.724-3.237-13.266-6.023-7.404-3.289-17.686-7.53-30.752-12.238a89.3 89.3 0 0 0 8.952 14.074c4.78 6.146 10.424 11.684 16.983 15.962 8.663 5.643 18.71 8.57 28.99 9.343 9.957.755 19.897-.773 29.314-3.936 6.65-2.229 12.886-5.46 19.428-7.905 9.04-3.361 17.899-6.96 27.406-8.846 5.32-1.042 10.754-1.616 16.181-1.544a78 78 0 0 1 2.048.073c.503.018.214-7.442.106-8.197-.288-2.228-.879-4.437-1.67-6.54-1.653-4.331-4.24-8.575-7.978-11.397-.072-.072-.127-.107-.199-.179-1.815-1.725-3.814-3.291-5.917-4.711-9.525-6.47-20.23-11.393-30.798-15.976-.953-.413-1.906-.826-2.876-1.239-12.65-5.446-25.559-10.514-38.57-14.935a216 216 0 0 1 6.307 3.518c.378.216.754.454 1.114.67.523.305 1.042.628 1.563.934 1.816 1.06 3.648 2.136 5.427 3.286 4.817 3.02 9.884 6.256 13.982 10.317-.737-.018-1.51.092-2.247.272s-1.47.392-2.153.59c5.104 3.594 9.741 7.82 13.875 12.457.54.593 5.137 6.56 5.28 6.56-2.803 1.294-5.644 2.48-8.574 3.485a75 75 0 0 1-4.327 1.332c-5.176 1.42-10.392 1.943-15.73 2.266-.144.018-.339-.003-.59-.04l-.02.04a5 5 0 0 1-.61 1.147c-1.42 2.067-4.244 1.746-6.275 1.153-2.247-1.169-6.65-3.399-13.12-6.328-24.46-11.525-80.642-34.513-165.81-49.702-13.283-2.372-25.411-4.295-36.845-5.805-.018 0-.054.005-.072-.013-.072 0-.214-.022-.358-.04-.162 0-.324-.02-.378-.02zm367.862 20.29s-7.544 18.863-27.34 28.466c-14.193 6.889-27.223 14.907-35.551 24.457a48 48 0 0 0-3.273 4.208l.146.013c20.066 2.23 29.922 10.702 33.157 14.823.22.284.395.54.557.775l.073-.02c1.241-.22 21.382-3.85 33.826-17.573a17 17 0 0 1-1.351 0c-3.061-.126-14.82.2-11.848-5.718.988-1.977 4.513-1.433 6.262-1.325 3.023.18 6.02.5 9.038.338 4.175-.234 4.946-4.009 5.99-7.461.99-3.343 1.58-6.494 1.855-9.463-4.605 5.863-12.875 7.846-15.591 8.33-.184.035-.347.054-.47.072-1.854.288-5.464-.27-4.977-2.895.29-1.62 2.516-2.99 3.916-3.565 3.978-1.618 7.88-3.13 11.457-5.54 1.294-.862 2.515-1.797 3.631-2.895.306-.288 1.944-1.598 1.889-2.081a38.1 38.1 0 0 0-2.843-10.556c-.43 1.007-1.132 2.35-2.12 3.844-2.197 3.74-4.91 5.469-5.885 6.01-1.436.808-4.241 1.653-5.52-.829-1.293-2.464 2.267-4.585 2.267-4.585 5.252-3.796 7.378-7.642 8.243-10.158-2.826-4.371-5.54-6.673-5.54-6.673zm-50.146 72.212c-4.064-.103-8.578 2.34-11.252 4.055-.576-1.204-1.677-2.268-3.743-2.989-6.224-2.1-13.922 3.837-13.922 3.837.649-4.533-5.553-3.241-5.804-3.207-1.836.144-9.537 2.595-14.088 5.149-6.742 2.354-15.643 5.214-25.478 7.587 1.851 10.486 1.279 17.857 1.279 17.857 10.45-5.41 19.097-16.529 24.364-24.55 1.134 5.394 5.679 12.683 5.679 12.683 7.303-4.531 13.816-11.119 13.816-11.119 2.25 4.066 1.875 12.59 1.875 12.59 5.14-1.671 9.742-4.983 12.709-7.481-3.292 17.407-13.829 34.31-13.829 34.31 12.338-4.64 35.877-29.707 37.404-36.526 1.495-6.813-.753-10.52-7.302-11.993a8.6 8.6 0 0 0-1.71-.206zm-74.784 14.55c-11.436 2.733-24.1 4.82-36.094 4.679 2.101 21.344-16.85 40.606-16.85 40.606 30.714-8.613 46.845-33.32 51.791-42.19.522-1.31.918-2.396 1.153-3.095m-66.292 70.852s-9.805 24.054-21.117 35.816c-11.31 11.76-17.497 14.767-18.216 16.44-.72 1.637-.86 7.603 12.411 5.897 13.272-1.709 22.642-11.602 22.642-11.602s18.164-3.376 34.133-1.2c0 0 4.424 4.817 10.735 4.367 6.315-.43 19.442-25.139 18.454-48.463 0 0-18.918 30.289-27.44 36.541 0 0-2.037-4.94-4.532-7.388 0 0-10.383 6.995-12.45 10.84.213-.393-1.865-3.273-2.08-3.65-1.173-1.922-2.363-3.815-3.804-5.54-4.132 2.446-8.916 6.007-11.092 10.377a53.4 53.4 0 0 0 4.008-10.894c.575-2.338.99-4.712 1.226-7.103.843-8.235-.214-16.616-2.876-24.437z" style="fill:#fff" transform="translate(1.062 1.206)"/><path d="M410.375 127.07c-15.297.019-24.398 2.273-24.398 2.273s6.855.414 21.131 5.414c.9-.288 2.085-.774 3.148-1.53 2.052-1.475 3.381-1.763 4.26-1.763.883 0 4.678 4.532 4.678 4.532s-.416-3.505-1.152-6.454c0 0 3.74-.324 5.161 0 2.089.487 3.816 1.186 4.553 1.186s1.04-.888 1.04-.888 1.312.87 1.312 1.915c0 0 2.955 2.046 2.955 3.97 0 1.906-.45 4.404 0 5.591 0 0-.742.436-1.928-1.47 0 0-1.901 1.616-3.81 1.616-.902 0-1.71.213-2.339.464 6.582 2.935 14.025 6.55 22.39 11.026 0 0 .949.667 1.65 1.186 0 0 .688-2.782 1.14-3.213 0 0 .862.77 1.04 1.219 0 0 .159-1.223-.093-2.61 0 0 2.34-1.902 4.155-2.082 1.837-.181 2.538-.165 3.127-.523 0 0 .413-1.456-.198-3.002 0 0 3.063 1.776 3.67 4.042 0 0 .27-1.38.18-2.783 0 0 3.204-.52 5.559.093 2.338.61 3.903 1.397 4.426 2.26s1.977 3.779 1.166 4.406c-.827.63-2.305.883-2.736 1.584-.432.683-.607 1.291-1.22 1.722-.593.432-1.384.544-1.384.544s-.161 2.41.45 3.63c0 0-1.244-.162-1.855-1.636 0 0 .289 1.369-.59 2.34-.863.954-1.463 1.55-2.326 1.802 0 0-2.14-2.037-2.319-2.83 0 0 .237 4.803-.59 3.903 0 0-4.515-3.994-5.413-4.48 0 0-1.941.288-2.71.2-.791-.072-3.476-1.112-3.996-1.995 0 0-.097 1.047 1.378 2.087 0 0-1.327-.215-1.828-.45 0 0-.773.881-2.16 1.239 0 0 1.39 1.567 2 2.16 0 0-2.74-.489-3.982-1.802 0 0-1.575.079-3.306-.444-1.742-.521-2.79-.345-4.354-.093-1.56.252-1.816.089-2.948-.179-1.134-.253-4.241-1.994-4.241-1.994s.517 1.386 1.04 1.835c0 0-.268 1.134-2.783.43-2.518-.702-2.615-1.475-3.91-2.265-1.31-.772-2.174-1.909-1.9-2.863.249-.953 1.04-1.657 1.04-1.657s.778.703 2.16 1.312c0 0-2.335-2.944-2.604-3.989 0 0 1.222.25 1.835.338 0 0 .425-1.652 4.075-2.425a46 46 0 0 1 3.081-.556c-10.042-3.127-24.087-7.047-40.304-10.302-.271.307-.486.61-.682.934-.236.378-.437.773-.636 1.186-.594 1.224-1.044 2.467-1.995 3.274 0 0-7.535-2.356-9.959-3.559 0 0 3.812 3.135 6.474 4.553 0 0-2.292 3.792-10.257 2.895 0 0-3.681 1.602-6.58 1.292-2.87-.303-7.254-2.192-8.153-3.684-.902-1.495-.797-4.588 2.297-6.388 0 0 4.223 2.571 6.308 3.757 0 0-3.718-4.637-3.432-6.129 0 0 1.325-1.095 2.909-2.047-1.85-.252-3.719-.49-5.605-.69-17.048-1.924-32.135-2.212-45.82-1.437 1.081 1.563.858 3.02 1.722 4.585 1.043 1.905-.484 2.77-.484 2.77-1.134-.936-5.877-2.949-5.877-2.949 1.8 1.71 3.326 4.082 3.326 4.082-1.134.667-4.153 1.263-7.408 1.425-3.253.147-7.878 2.836-7.878 2.836-1.943-.577-3.598-2.553-5.235-4.062-.304-.268-.59-.505-.809-.703-.07-.072-.164-.125-.218-.179-.054-.036-.085-.07-.12-.106-.053-.018-.111-.072-.165-.106.074.07.147.34.199.517 0 .02-.005.035.013.053 0 .018.002.042.02.06.108.287.213.552.325.821.23.54.487 1.103.775 1.624.827 1.581 1.812 3.07 2.803 4.545.016.018.033.055.053.073.413.663.794 1.281 1.12 1.783.142.199.265.374.37.57.038.055.054.096.074.132.053.072.09.12.125.192.056.11.112.165.146.219.018.036.055.088.073.126.054.054.07.108.086.145-.411-.523-1.703-.771-2.332-.987-.036-.018-.077-.022-.113-.04-1.077-.431-2.086-.986-3.074-1.616-.018-.018-.037-.034-.053-.034-.45-.307-1.762-1.516-2.3-1.318l-.324.112c-.056.02-.144.03-.219.067l-.41.112c-.164.036-.329.086-.524.14-.162.035-.336.076-.537.112-.232.054-.504.085-.775.14-.468.09-.92.129-1.385.165h-.073a17 17 0 0 1-1.869.02c-3.328-.2-7.406-3.043-10.249-5.904-1.024-1.005-1.347-2.116-1.367-3.14-2.965.7-5.876 1.431-8.719 2.206-4.244.988-27.32 6.149-50.896 11.436.142 1.637-.537 3.403-.537 4.32 0 1.637 1.312 2.875 1.312 2.875-2.697.216-7.46-1.583-7.46-1.583 1.349 1.925 5.234 4.135 5.234 4.135s-.563 2.143-2.346 2.882c-1.78.737-3.123.447-5.334.285-2.23-.145-4.154.901-6.977 1.047-2.824.144-6.282-1.604-6.282-1.604 3.113.29 5.434-1.815 5.434-1.815-3.992-.451-5.236-1.929-5.686-2.81-.323-.648-1.308-1.524-2.206-2.173-17.319 3.868-30.72 6.865-30.72 6.865-10.967 1.475-19.832 2.59-19.832 2.59-.54.667-1.26 1.769-.324 2.094 0 0 1.81.587 4.075.75 2.142.143 4.539 0 4.539 0s-8.762 4.085-9.82 4.373c-1.06.303-2.432 1.67-2.432 1.67s-.03.016-.066.052c-.036.038-.112.094-.166.146a.3.3 0 0 1-.086.073l-.166.159c.613-.27 1.389-.52 2.108-.61 1.313-.177 2.875 1.04 2.875 1.04s1.386.257 2.77-.264c1.42-.502 4.312-.432 4.168-.398-.899.146-1.793.755-2.657.755.7 0 1.656.486 2.213.882 2.572 1.743-.69 4.008-2.359 4.817-2.552-.288-4.135.722-4.135.722s3.29.002 3.128.954c-.18.953-1.65 1.562-3.214 1.902-1.565.343-2.79 1.908-2.79 1.908.701.089 1.312.776 1.312.776s-1.66.178-1.908.358c-.271.161-1.134 2.086-1.835 2.948-.687.865-3.108 1.478-3.108 1.478 1.114.613 4.671 1.04 4.671 1.04-1.962.703-4.256.827-5.049.862.557.343 5.991 3.795 6.189 3.922.016 0 .015.013.033.013l3.453.815c13.055 3.004 26.434 6.061 39.829 6.832 8.093.467 16.28-.752 24.225-2.153 4.876-.847 9.73-1.836 14.512-3.022-2.173 2.372-4.547 4.78-7.283 6.487.124-.036.272-.07.398-.106 16.164-3.974 32.315-8 48.518-11.814 10.161-2.39 20.461-3.368 30.785-3.565 1.132-.735 2.594-1.361 4.605-1.432 3.723-.125 7.264.753 9.78 1.617q6.232.262 12.464.716c-1.549-2.626-3.884-5.122-6.706-6.348 3.723 0 7.441.088 11.165.232 20.86.773 41.869 2.303 62.387 6.295 5.054.97 10.123 2.087 15.161 3.293.052-.02.38-.123.63-.63.252-.573.127-1.833 1.292-2.087 1.17-.27 3.257.778 3.777 1.047.523.25 3.47 2.102 4.406 2.551.541.252.772 1.149.862 1.922a326 326 0 0 1 8.276 2.412c-.017 0-.02-.017-.04-.033-.052-.022-.105-.077-.159-.113a3 3 0 0 0-.232-.16c-.054-.053-.13-.086-.186-.138-.14-.11-.305-.226-.483-.351-.017 0-.034-.014-.034-.014q-.301-.215-.63-.43c-.052-.038-.11-.07-.165-.106-.16-.11-.324-.237-.504-.345-.072-.054-.142-.11-.232-.146-.163-.11-.32-.217-.484-.324-.071-.053-.16-.086-.232-.14l-.702-.43c8.508-6.15 20.462-4.804 20.462-4.804s2.733.362 4.744 1.047c0 0 2.74-1.354 4.77-1.14 2.035.216 5.7 2.127 6.043 3.293.32 1.172-.688 4.785-1.351 6.242-.687 1.456-4.334 3.682-6.401 4.387 0 0-.09-.183-.252-.451-.057-.088-.125-.177-.199-.285a8.5 8.5 0 0 0-2.193-2.253c.017.056.055.183.093.345.036.108.066.217.105.344.017.088.057.197.073.305.036.09.052.184.073.272.108.377.195.82.285 1.252.068.378.121.735.16 1.06 0 0-.434.236-1.06.67 12.228 5.123 23.233 12.225 33.753 20.282 6.138 4.693 12.408 9.73 19.335 13.2.428.215.844.416 1.28.596 1.148.487 2.34.899 3.484 1.292 6.91 2.376 14.119 1.566 20.846-.914h.014l.384-.325c.446-.431.854-.883 1.233-1.352.36-.465.703-.932 1.027-1.418v-.02c.178-.287.358-.587.503-.894 2.193-4.1 2.338-8.887 1.617-13.293a7 7 0 0 0-.086-.61 24 24 0 0 0-.325-1.636 46 46 0 0 0-1.312-4.552 54 54 0 0 0-1.438-3.704 21 21 0 0 1-.43-.974c-.072-.16-.144-.302-.212-.444-.13-.272-.259-.527-.365-.762-.072-.126-.125-.252-.199-.358a4 4 0 0 1-.145-.305c-.069-.126-.124-.234-.18-.324l-.105-.212c1.799 1.527 3.384 2.999 4.824 4.492 4.315 3.958 11.416 11.295 15.803 20.051 6.6 13.183 9.025 21.87 9.025 24.298 0 2.429-5.554 1.747-9.727 1.385-4.153-.34-25.34 1.745-32.64 5.215h.033c4.84-1.134 9.717-1.89 14.194-1.941 12.968-.162 31.108 3.575 36.538 8.415l.239.093s3.9 2.874 3.021 6.4c-.738 2.93-3.634 5.235-8.634 5.54 0 0-.183 3.271 1.796 6.368 1.977 3.073 6.156 6.845 6.156 6.845 6.058.917 12.08 2.105 18.07 3.419.053.018.106.037.178.053 3.291 1.096 6.923 1.582 10.284 2.445 1.89.503 3.777.988 5.665 1.51a265 265 0 0 1 12.338 3.672c2.606.844 5.216 1.709 7.806 2.644.685.235 3.923 1.883 4.387 1.543 1.297-.914 8.545-5.965 14.226-7.063 6.262-1.204 12.12-3.563 12.12-10.595-.611-7.355-6.419-14.98-12.75-20.07 0 0-9.135 11.297-13.669 7.825-4.547-3.47 2.375-8.113.921-17.142-1.445-9.026-31.04-39.433-68.429-61.855 0 0 17.299 7.135 34.004 16.003 20.428 3.36 25.211-1.959 26.306-4.155a31 31 0 0 0-2.246-3.346 16 16 0 0 0-3.035-1.597c-2.36-.9-4.584-1.28-6.149-2.054 0 0-3.596-3.63-4.784-5.374 0 0-.38 1.583.61 3.472 0 0-2.77-2.43-5.308-2.955-2.533-.521-5.592-1.54-6.381-2.134-.775-.593-2.34-1.961-2.34-1.961s.074 1.241.451 2.16c0 0-2.603-.202-3.054-2.936s1.69-3.85 1.69-3.85-.198-.77 0-1.742c0 0 2.339 2.588 3.452 3.253 0 0 .505-1.65-.451-4.492-.286-.162-.574-.329-.861-.49a41 41 0 0 0-2.505-1.253c-.663-.309-39.182-22.136-57.437-31.309a22.8 22.8 0 0 1-5.162-1.08s-3.051-1.42-3.558-2.876c0 0-.216.75.232 1.577.773 1.402 2.41 2.9 2.896 4.844 0 0-3.045-1.8-5.54-3.094-2.196-1.133-6.782-2.452-9.403-4.393a6.2 6.2 0 0 1-1.239-1.2 2.3 2.3 0 0 1-.271-.364 4 4 0 0 1-.537-1.133 2.5 2.5 0 0 1-.113-.45c-.017-.073-.034-.126-.034-.2a2.6 2.6 0 0 1-.04-.483c0-.216.02-.338.02-.338.075.054.09.07.127.106.036.037.07.07.139.106.038.037.112.092.185.145 1.08.935 2.25 1.975 3.618 2.353.103.036.23.075.338.093a.8.8 0 0 0-.126-.16 1.4 1.4 0 0 0-.139-.165 27 27 0 0 0-.344-.391 16.6 16.6 0 0 1-2.465-3.605c-14.86-7.362-32.671-15.214-56.827-19.963-12.993-2.569-24.393-3.364-33.587-3.352zm-42.89 107.017a75 75 0 0 0-3.955.524c-3.936.629-7.817 1.561-11.484 2.478-.018.018-.56.145-.775.199-.234.053-.429.09-.537.125-.018 0-.02.002-.02.02h-.02c-.054.018-.086.014-.086.014s-.039.023-.093.06c-.036.053-.087.085-.159.139l-.04.04c-.035.035-.09.07-.125.105-.072.054-.14.125-.212.18-.018 0-.022.001-.04.02-.162.143-.374.341-.59.503-.18.162-.359.302-.556.464-.144.143-.287.238-.431.364-.234.198-.419.375-.616.537-1.384 1.15-2.766 2.788-3.539 4.585-.054.108-.11.23-.146.338-.054.18-.126.417-.198.597 0 .053-.035.105-.053.159l-.053.218a5 5 0 0 0-.106.696c0 .018-.02.055-.02.073-.036.36-.036.74 0 1.1.18 1.905 1.598 3.464 2.928 4.704 2.606 2.463 5.736 4.426 8.773 6.295 8.789 5.428 17.74 10.444 26.187 16.447 85.718 17.63 131.386 41.766 131.386 41.766s5.142 3.65 2.14 7.892c-1.455 2.05-4.281 1.705-6.295 1.094-2.228-1.205-6.608-3.466-13.06-6.467-18.117-8.736-53.76-24.052-105.826-37.91 7.837 6.4 15.131 13.374 22.536 20.33 11.287 2.714 21.678 5.465 31.15 8.196.899.252 1.798.517 2.697.769a516 516 0 0 1 16.817 5.089c9.274 2.983 18.447 6.236 27.486 9.813.557.216 1.112.45 1.67.683.772.323 1.547.609 2.266.914a356 356 0 0 1 11.715 5.016 447 447 0 0 1 6.665 3.055.16.16 0 0 1 .126.053c.108.054.204.092.312.146l.105.053s3.411 2.373 3.088 5.572c-.017.216-.072.451-.126.703-.035.126-.071.272-.125.397.251.036.452.052.596.034 5.338-.324 10.548-.847 15.724-2.266a75 75 0 0 0 4.334-1.326c2.927-1.006 5.765-2.199 8.567-3.492-.144 0-4.742-5.967-5.28-6.56-4.135-4.636-8.772-8.856-13.876-12.45.683-.198 1.417-.417 2.154-.597a8.7 8.7 0 0 1 2.246-.265c-4.097-4.061-9.164-7.297-13.981-10.317-1.78-1.15-3.612-2.233-5.427-3.293-.521-.305-1.04-.629-1.564-.934-.36-.216-.736-.447-1.113-.663a217 217 0 0 0-6.308-3.525l-.073-.033a.2.2 0 0 1 .086-.02h-.106c-2.57-3.47-12.22-17.237-25.484-16.751 0 0-.055-.267-.18-.716a2.3 2.3 0 0 0-.105-.378 21 21 0 0 0-1.802-4.188c-.126-.251-.267-.483-.411-.735a21.6 21.6 0 0 0-3.075-3.956 4 4 0 0 0-.483-.47 13 13 0 0 0-.902-.822c-.27-.234-.554-.474-.841-.69-.144-.107-.287-.21-.43-.317l-.756-.544c-.27-.18-.539-.337-.809-.516-.267-.162-.56-.342-.848-.504a14 14 0 0 0-.894-.47 24 24 0 0 0-2.989-1.273c-.36-.126-.716-.256-1.093-.364a25 25 0 0 0-3.16-.769c-.432-.09-.85-.164-1.3-.218a16 16 0 0 0-.987-.126 35 35 0 0 0-3.213-.252c.016 0 .03.022.066.04.02.018.04.013.04.013 1.383.45 2.517 2.302 3.452 3.326 1.168 1.276 2.331 2.536 3.445 3.83a117 117 0 0 1 4.407 5.573c2.498 3.379 4.777 6.897 6.772 10.582a65 65 0 0 1 2.716 5.645c.414.953.771 1.939 1.167 2.91.179.467.364.937.49 1.404.072.252.105 1.078.285 1.24-2.157-2.032-4.134-4.203-6.328-6.216a162 162 0 0 0-4.135-3.67c-4.835-4.171-9.9-8.103-15.22-11.643-.899-.629-1.816-1.24-2.77-1.869 0 0-.017-.02-.034-.02s-.036-.02-.053-.02c-.287-.107-.628-.23-.987-.338-3.073-1.078-8.307-2.826-12.55-3.922-.97-.27-1.87-.481-2.697-.643-6.38-1.276-11.053-1.06-11.053-1.06s2.77-1.066 4.46-1.928c0 0-10.834.434-22.768-1.902-11.916-2.337-27.25-11.703-32.786-19.143 0 0 3.828 1.064 6.811.848 0 0-6.286-6.816-7.706-11.417z" style="fill:#d7a22a" transform="translate(1.062 1.206)"/><path d="M331.612 150.4c-.719 3.13-.106 11.961-.106 11.961-1.44-1.69-3.419-6.189-3.419-6.189s-1.657-.719-3.346-.357c-1.688.359-4.46 2.049-4.711 3.127-.232 1.098-1.67 2.18-1.67 2.18 0 2.41 1.67 6.255 1.67 6.255-1.798-.952-4.327-4.207-4.327-4.207-.487.845-.958 3.384.245 6.388 1.204 3.02 8.541 4.585 8.541 4.585 4.459.358 7.357-3.739 9.767-3.38 2.41.36 3.326.319 3.326.319.718.972 4.135 4.028 4.135 4.028v-5.016s.612-.182 2.916-1.133c2.284-.972 3.488-5.307 3.724-6.997.252-1.691-.239-3.735-1.928-5.427-1.69-1.673-4.206-1.923-7.104-1.438a88 88 0 0 1-4.903.696c-.977-1.326-2.813-5.39-2.813-5.39zm-68.514 8.058c-2.715-.232-8.144 2.02-9.674 3.081-1.548 1.063-4.366 2.227-6.613 2.353-2.25.127-6.26 2.249-7.448 3.777-1.184 1.55-1.292 2.478-1.292 2.478s-1.655.962-1.782 2.723c-.11 1.78-.017 2.64.47 3.466 0 0 3.47-.52 6.527-1.816 0 0-4.86 5.324-10.542 7.68 0 0 5.9.05 8.74-1.246.053 0 .616.073 1.928 2.485 1.386 2.536 5.986 2.894 10.012 3.022 4.01.108 5.306-.002 6.62.106 1.294.126 4.839-.697 5.897-1.524.992-.773 3.24-2.587 3.512-2.823-.343.11-2.95.895-4.804.444 0 0 1.763-1.888 3.055-1.994 1.314-.128 3.436-1.42 4.029-3.433.595-1.998 2.589-3.414 3.65-4.135 1.08-.7 5.075-3.455 5.434-6.566.36-3.11-1.299-5.59-6.606-5.95 0 0-4.491 2.121-9.688 2.716 0 0 2.839-1.3 7.316-4.843 0 0-3.414.594-4.943.702 0 0-1.083-.467-3.797-.702m133.798 1.763c.484.575 2.373 1.623 2.373 1.623s-2.085.197-4.082.862-2.756 2.374-3.797 3.041-4.744.557-4.744.557c1.332 2.19 6.54 5.605 6.54 5.605-3.974-.952-10.82-4.167-10.82-4.167s-2.465-.197-5.308 1.133c-2.856 1.331-3.15 4.277-2.194 6.831.951 2.569 6.17 5.129 6.17 5.129-2.303 0-5.86-.669-6.309-.742.43.323 4.276 3.079 8.124 3.976 4.082.954 7.68-.663 7.68-.663-.755-1.134-.464-3.42-.464-3.42 3.004 3.092 10.321 6.292 10.88 6.528-2.175-1.53-4.804-5.301-4.804-5.301s2.945-1.138 4.367-2.18c1.422-1.041 3.8-4.08 3.995-4.838.182-.756 1.796-2.57 1.796-2.57 1.819 1.044 3.996 1.239 3.996 1.239-1.135-1.152-1.418-3.141-1.418-3.141s2.366-.94 4.307-2.538c1.94-1.618 2.897-4.765.523-5.54-2.374-.756-5.218.2-6.746.02-1.511-.2-4.923-.397-4.923-.397-1.242 0-5.142-1.047-5.142-1.047m101.667 6.05c-.949.002-1.81.15-2.332.33-1.043.342-5.182.345-5.182.345 1.725 1.618 4.029 4.838 4.029 4.838-2.64-1.96-8.055-4.838-10.251-4.838h-.464c-2.162.106-5.016.882-5.99 2.068-1.042 1.276-3.22 1.849-3.22 1.849.11 1.024 2.988 4.267 2.988 4.267-1.725-.47-4.95-1.962-4.95-1.962s2.072 2.765 4.03 3.592c1.944.846 3.8 1.818 6.566 2.968 2.773 1.15 6.792.809 6.792.809-.572-1.274-3.002-4.387-3.002-4.387 2.897 1.51 9.568 5.646 9.568 5.646 1.044-.234 2.085-1.151 2.77-2.068.681-.916 1.836-.12 3.797-.338 1.96-.231 3.116-1.514 3.24-3.114.106-1.62-.581-2.664-3.353-4.605-2.768-1.959-2.763-3.34-2.763-3.34 1.292.322 2.998 1.039 3.214 1.127-.106-.216-1.022-1.883-2.638-2.637-.863-.406-1.9-.553-2.849-.55m-46.106 4.943c1.727.683 2.412 1.623 2.412 1.623s-1.027.108-2.087-.02c-1.064-.106-1.261-.56-2.863-.795-1.615-.234-2.301-.232-4.26.576-1.96.81-3.81.69-3.81.69-2.303-.685-6.806-1.153-6.806-1.153 2.323 1.276 4.394 3.001 4.394 3.001-.811.575-4.033 1.835-4.731 2.18-.685.358-2.19 1.742-1.385 3.108a9.2 9.2 0 0 1 1.047 2.657c-2.07-.701-5.54-1.272-5.54-1.272 1.743 1.276 6.692 5.877 6.692 5.877-1.962-.341-5.307-1.617-5.307-1.617s-.921 1.151-.795 2.194c.11 1.024 1.6 1.838 3.22 2.306 1.618.469 5.414.463 5.414.463 4.159-.596 6.672-1.848 6.672-1.848-.862-1.512-2.822-3.436-3.074-3.671.377.09 4.778 1.386 6.99 1.71 2.303.34 4.62-.918 5.54-1.962.915-1.024 1.39-1.493 3.061-1.868 1.672-.38 3.85-1.823 3.85-1.823-.34-1.116-1.763-3.16-1.941-3.432.931.325 3.326.914 3.326.914s1.853-2.317.106-4.008c-1.728-1.69-4.71-2.207-4.71-2.207-1.726-1.152-5.414-1.623-5.414-1.623m76.52.126c.34 1.168 1.227 2.319 1.227 2.319s-.559.613-2.611-.16c-2.031-.774-3.651-.45-3.651-.45 0 1.923 2.273 5.162 2.273 5.162-1.26-.503-3.837-2.306-3.837-2.306.272 2.052 1.71 3.651 1.71 3.651s1.093 1.369 3.717 2.717c2.628 1.332 4.917.808 4.917.808 3.758.218 5.95 2.863 5.95 2.863-.72-.11-1.584-.166-1.584-.166-.715 0 2.051 1.769 3.976 3.26s5.467 1.359 5.467 1.359c-.288-.933-2.12-5.281-2.12-5.281 1.311 1.148 5.068 4.46 5.068 4.46s.716-.775.716-1.87c0-1.097-2.1-3.796-2.1-3.796s1.604-1.599 1.338-2.59c-.288-.99-1.77-2.532-2.538-2.93-.723-.36-2.325-1.405-2.525-1.53.347 1.348 1.62 3.056 1.783 3.273-.2-.144-1.833-1.384-2.247-1.855-.433-.503-3.19-3.197-5.612-4.241-2.426-1.04-5.626-.053-5.626-.053-1.1-.485-3.69-2.644-3.69-2.644m-344.486 6.062c-1.593.072-2.981.365-3.459.895-.934 1.078-2.95 2.968-5.307 4.857-2.37 1.887-1.65 3.346-1.65 3.346-1.89.699-7.912 1.617-7.912 1.617 1.89.7 7.01 1.901 7.01 1.901s.31.33-.987 1.644c-1.313 1.294-1.941 4.207-1.941 4.207 2.013 1.17 8.25 2.61 8.25 2.61-3.416.465-8.197 1.326-8.197 1.326s.931 1.653 4.943 2.246c4.028.577 9.336-2.604 9.336-2.604 4.37 1.062 7.442-1.53 7.442-1.53-.937-.126-3.075-1.186-3.075-1.186 2.84.233 5.686-.358 5.686-.358 2.821-1.656 4.007-3.063 3.306-5.076-.72-2.015 0-3.304-.126-6.255s-2.3-4.175-2.3-4.175c3.957-1.04 5.143-2.909 5.143-2.909s-6.047.59-7.468.59c-1.42 0-1.403-.002-4.009-.722-1.295-.35-3.09-.497-4.685-.424M508.7 188.151a180 180 0 0 1 4.081 2.432c-.09 0-2.947.018-4.313 2.518-1.386 2.536.578 2.299 1.153 5.751s4.028 2.538 4.028 2.538c-1.026-.81-.649-2.034-.649-2.034 1.548 1.206 2.84 1.585 5.03 2.034 2.176.466 2.988 1.385 2.988 1.385-1.83 0-4.135-.106-4.135-.106s2.515 1.959 5.089 2.478c2.568.541 3.65-1.093 3.65-1.093 2.427 0 5.196 1.146 5.196 1.146-.466-.934-1.273-3.002-1.273-3.002 1.15-.684 2.662-3.341.126-5.068s-2.665-3.796-5.99-6.097c-3.343-2.304-6.348-1.385-6.348-1.385 1.041.917 1.379 2.644 1.379 2.644-4.368-2.642-10.013-4.141-10.013-4.141m-212.524 3.525c-2.011.07-3.466.703-4.599 1.438-.774.507-1.392 1.08-1.875 1.53-1.186 1.115-3.724 1.565-3.724 1.565-1.42.125-5.122.304-5.122.304 5.32 1.492 6.839 3.326 10.091 4.566-2.987-.451-8.236-1.451-8.236-1.451-.703 2.93-2.772 3.862-4.333 5.029-1.568 1.188-1.69 2.087-1.69 2.087 2.786.595 9.866 4.586 9.866 4.586-2.607-.72-9.866-.736-9.866-.736-.395 1.292-.722 1.292 1.365 3.704 2.07 2.41 1.883 3.395 1.166 4.168-.72.775-2.354 2.741.776 5.222 3.129 2.464 8.989 2.01 10.88 1.742 1.889-.253 3.724.16 3.724.16-1.424-1.045-3.651-3.287-3.651-3.287 1.44.127 6.11 1.186 6.11 1.186s-1.434-1.443-.518-2.485c.899-1.043 3.774-.641 5.91-2.333 2.161-1.69 1.69-5.542 2.161-6.387.45-.847 2.664-2.14 2.664-2.14.846-.074 2.16 0 2.16 0-1.963-1.188-8.422-4.294-8.422-4.294 2.338.054 6.335.371 6.335.371-.198-1.042-1.512-3.954-1.962-5.268-.45-1.292-.057-2.464.126-3.253.196-.775.073-2.14.073-2.14-.647-.721-1.815-1.365-1.815-1.365 2.336.054 5.784.576 5.784.576-.343-.16-1.668-.808-3.591-1.471-2.516-.864-6.065-1.75-9.787-1.623m259.464 1.73c.72.79.65 1.69.65 1.69-.578-.056-1.3-.055-2.79.324-1.512.395-2.737 1.703-2.737 1.703 1.098 1.026 4.625 5.274 4.625 5.274-1.312-.593-3.922-1.835-3.922-1.835 0 .917 1.314 2.603 2.935 3.717 1.634 1.098 6.182 2.213 6.182 2.213 1.047 1.42 5.09 2.015 5.09 2.015-.326-.845-2.678-4.493-2.678-4.493 1.239.595 5.93 3.4 5.93 3.4s.775-.005 1.3-.795c.522-.773-.726-3.378-1.173-4.168-.468-.773-1.238-2.463-2.803-3.956-1.564-1.51-4.95-2.359-4.95-2.359l.53 1.835c-1.96-2.03-6.189-4.565-6.189-4.565m-72.31.483c-1.383-.083-2.74.195-3.658.941-1.846 1.49-2.637 1.65-2.637 1.65-1.941-.773-3.578-.61-3.578-.61 2.644 2.175 5.287 4.838 5.287 4.838-2.41-.34-6.44-1.73-6.44-1.73-1.166 1.258-.81 2.309-.703 3.46.13 1.15-1.146 1.954-1.146 1.954.915 1.384 5.301 4.605 5.301 4.605-1.276 0-6.215-.683-6.215-.683 3.45 3.455 8.068 3.399 9.204 3.453 1.15.054 2.316.45 4.042.344 1.725-.127 3.326-2.2 3.326-2.2 1.511-.575 2.86-2.657 3.346-3.558.504-.916 2.068-2.193 2.068-2.193-.79-1.492-3.81-4.24-3.81-4.24 3.31.466 7.5 3.2 7.5 3.2-1.6-2.642-4.028-3.903-4.028-3.903s-1.965-2.775-4.035-4.122c-1.034-.684-2.441-1.123-3.824-1.206m-80.979.882c-1.164.253-1.04 1.514-1.292 2.087-.25.507-.577.616-.63.636 1.293 1.024 3.256 2.01 3.725 2.226-1.298-.467-5.666-.61-5.666-.61-.65.524-.953 2.033-.304 4.64.035.09.036.176.053.264.575 2.518.212 5.076.212 5.076l-1.292.398c1.171 1.42 3.38 2.46 4.28 3.253.863.717 1.6 2.503 1.69 2.717-.272-.18-2.392-1.55-3.115-1.677-.715-.125-1.51-1.182-1.67-1.398.09.324.97 2.911 2.32 4.135 1.438 1.292 6.245 3.647 8.853 4.817 2.61 1.17 4.042 2.843 4.042 2.843 1.617-.376-1.258-3.33-1.544-3.618 1.42.395 3.936 2.014 3.936 2.014-.216-.97.743-3.198.219-4.638-.522-1.418-3.784-4.422-4.824-5.321-1.045-.918-1.616-3.274-1.438-4.3.559-3.182 1.51-4.427 1.51-4.427.434-.54 1.478-1.578 1.949-2.047 1.581.217 4.956.683 6.593 1.08 0 0-.03-.037-.086-.073-.017 0-.04-.013-.04-.013-.054-.038-.086-.079-.16-.133a327 327 0 0 0-8.275-2.405c-.09-.773-.32-1.677-.861-1.928-.937-.45-3.884-2.302-4.407-2.551-.52-.27-2.607-1.317-3.777-1.047m-53.593.298c-.816.038-1.68.27-2.498.908-1.655 1.276-4.387 2.013-5.97 2.73-1.582.737-1.982 1.835-1.982 1.835 1.224.485 3.115 3.293 3.115 3.293-2.121-.487-6.925-1.404-6.925-1.404s-.11 1.327-.722 2.425c-.613 1.098-2.241 1.168-3.717 1.961-1.458.79-2.68 2.127-2.61 3.89.107 2.911 3.756 5.137 4.207 5.407-1.24-.306-4.029-.775-4.029-.775.97 1.152 7.428 6.334 7.428 6.334-.972-.127-4.207-.358-4.207-.358 1.35.414 5.791 2.246 7.732 2.677 1.961.416 3.956-.377 3.956-.377-.717-.793-2.55-2.372-2.55-2.372 1.403.302 4.922 1.345 4.922 1.345 2.804-.126 4.747-1.58 5.845-3.234 1.096-1.637 3.545-3.094 3.545-3.094 1.24.161 5.557.72 6.096.775-2.302-1.35-4.519-2.306-4.519-2.306 1.711-.79 3.352-1.885 3.89-3.16.557-1.278 1.222-1.658 1.524-3.599.309-1.942-1.398-3.83-1.398-3.83 1.583.358 2.928.789 2.928.789-.916-.79-3.053-2.19-2.981-2.982.054-.789.966-.917 1.703-2.067.719-1.17-.068-2.754-1.577-3.42-1.528-.664-4.573-.847-4.573-.847.486 1.026 1.942 2.253 1.942 2.253-2.804-.847-5.172-2.325-6.375-2.558-.612-.127-1.383-.277-2.2-.239m96.802.007c-2.031-.214-4.765 1.133-4.765 1.133-2.01-.685-4.744-1.047-4.744-1.047 3.255 2.23 4.274 5.274 4.274 5.274-1.777-1.348-4.022-2.624-4.022-2.624-1.204.863-1.607 2.33-2.558 3.77-.974 1.438-2.392 2.86-6.997 5.09-4.589 2.23-4.095 4.79-4.095 4.79l-3.618.192c2.644.593 6.958 4.334 6.958 4.334-1.31-.523-4.042-.716-4.042-.716-.523 2.266 1.797 4.042 2.948 5.016 1.15.989 2.353 3.916 2.353 3.916-1.188-.074-2.3.113-2.3.113s3.325 1.203 4.367 2.067c1.046.845 5.526 1.2 5.526 1.2.63-1.454-.828-3.38-.828-3.38-2.556-1.278-3.273-4.294-3.273-4.294 1.416 1.097 2.982 1.763 2.982 1.763s-.14-2.54 1.676-5.884c.557-1.043 1.387-2.013 2.286-2.876 1.15-1.13 2.405-2.064 3.254-2.657.627-.433 1.06-.67 1.06-.67a18 18 0 0 0-.166-1.06c-.09-.43-.177-.881-.285-1.258-.02-.089-.037-.182-.073-.272-.017-.108-.049-.217-.066-.305-.04-.128-.077-.237-.113-.344a6 6 0 0 0-.086-.338 8.5 8.5 0 0 1 2.194 2.246q.111.16.198.291c.162.268.252.451.252.451 2.067-.705 5.715-2.937 6.401-4.393.663-1.458 1.665-5.07 1.345-6.242-.343-1.166-4.009-3.07-6.043-3.286m-208.572 20.949c1.046 1.292 5.474 4.24 5.474 4.24-3.291-.61-5.215-1.477-5.215-1.477s-1.386.003-3.022.345c-1.653.36-3.293 2.034-3.293 2.034-3.543-.054-5.576 2.75-7.481 4.314-1.907 1.563-3.99 1.563-3.99 1.563 1.133 2.339 4.242 4.944 4.242 4.944-2.427-.612-7.283-2.95-7.283-2.95-.792 1.385-.268 3.813.093 5.56.34 1.726-1.55 2.91-1.55 2.91 1.62 1.978 7.176 3.69 7.176 3.69-5.178.306-11.782-.325-11.782-.325 2.682 1.42 7.541 2.518 7.541 2.518s4.238 2.032 9.581 2.823c5.34.791 10.218-2.823 10.218-2.823s4.853.83 6.938-1.597.432-5.907.072-6.858c-.339-.953.004-2.178 1.66-2.266 1.653-.088 3.127-1.564 3.127-1.564 2.372-.305 6.332.018 7.017.073-.884-.217-6.996-1.762-7.878-3.273-.955-1.654 1.722-4.168 1.722-6.076 0-1.906-1.992-4.17-4.943-4.943-2.949-.791-4.764-.272-4.764-.272-1.653.09-3.657-.59-3.657-.59zm72.324 23.066c-.466.046-.885.168-1.232.384-1.4.863-1.567 2.432-2.36 3.042-.77.609-3.126.265-4.24.265-1.132 0-1.564.592-1.922 1.384 0 0 4.69 1.818 7.03 3.294 0 0-7.196-1.636-9.554-1.816 0 0 2.36 1.295 3.134 1.657 0 0 4.605 2.151 5.394 3.465 0 0-1.991-.359-3.559-.43 0 0 3.722 1.996 6.15 4.154 0 0 .79 4.947 3.127 5.308 2.339.341 4.172.77 5.308-.093 1.11-.864 1.471-2.266 1.471-2.266s1.475.27 2.59-.683c1.131-.952 1.929-2.697 2.97-2.875 1.026-.162 2.247.613 2.948.523.685-.072 1.206-.523 1.206-.523s-2.862-1.116-6.673-2.591c0 0 5.107.429 8.058 1.04 0 0 .966-.876-1.55-1.829-2.519-.952-1.326-2.736-4.347-4.605-2.946-1.815-6.085-3.38-9.283-4.154 0 0 2.681 0 5.287-.18 0 0-2.764-1.045-5.029-1.656-1.688-.445-3.525-.954-4.923-.815m-51.381 13.623c-2.873.134-5.003.934-5.003.934 4.28.65 4.91 2.214 4.91 2.214s-6.836 1.182-8.256 1.65c-1.42.469-1.24.397-1.24 1.351 0 .953-.63 2.538-1.583 4.427-.952 1.903-.775 6.633-.775 6.633 2.538 1.098 7.05.974 7.05.974-2.698.627-6.44 2.193-6.44 2.193.629 2.229 4.281 5.537 7.123 8.236 2.84 2.678 4.008 5.016 4.008 5.016-1.906.304-3.85 1.312-3.85 1.312s6.33 2.375 9.8 2.843c3.493.467 9.609-2.286 9.609-2.286 3.271.393 9.37-.395 10.88-2.697 1.51-2.3-1.512-5.145-3.724-7.03-2.211-1.91-3.525-6.707-3.525-6.707 2.625.198 6.758-3.902 6.758-3.902s-6.544 1.578-8.29.318c-1.743-1.276-4.417-4.28-5.857-6.958-1.423-2.698-4.266-7.753-8.528-8.382a16 16 0 0 0-3.068-.14zm-60.012.027c-.515-.07-.947-.075-1.226.02-1.114.355-3.126 2.229-4.672 2.067-1.547-.162-5.268-.616-6.043 1.074-.772 1.709-1.152 3.386-1.152 3.386s3.332.642 6.261 1.577c0 0-6.348-.462-9.747-.16 0 0 1.08.306 2.015.935 0 0-2.014 3.565-.305 5.884 1.69 2.32 3.392 5.733 6.487 6.036 3.093.306 6.818-.298 6.818-.298s-3.556-1.102-6.182-1.875c0 0 5.247.003 9.277 1.405 0 0 6.65-.308 7.746-1.71 1.08-1.386 1.209-2.357 2.61-3.273 1.42-.9 2.498-3.538 1.87-5.553-.614-2.013-4.64-4.029-4.64-4.029l-6.042-1.69s2.48-.47 4.188-.31c0 0-.163-1.404-2.015-2.015-1.39-.47-3.704-1.262-5.248-1.471m95.723 10.184c11.65 1.638 24.224 3.702 37.804 6.256 21.741 4.099 41.556 8.706 59.462 13.47 52.063 13.867 87.706 29.17 105.833 37.91 6.44 3.003 10.825 5.271 13.054 6.474 2.013.612 4.84.957 6.301-1.094h-.007c3.003-4.245-2.147-7.898-2.147-7.898s-45.65-24.132-131.372-41.77c-15.486-3.183-32.246-6.15-50.32-8.74a838 838 0 0 0-38.61-4.605zm227.444 4.102c-4.477.052-9.346.807-14.186 1.941h-.04a109 109 0 0 0-18.003 5.95 94 94 0 0 0-4.884 2.287c-1.943.969-3.855 2.012-5.599 3.306-.214.162-.412.327-.59.47 0 0 24.528-7.068 42.747-5.433 18.234 1.636 35.226 10.504 38.425 3.903.665-1.384.108-2.733-1.332-4.009-5.428-4.84-23.569-8.577-36.538-8.415m-354.936 10.113c-1.656-.108-3.015-.003-3.77.537-1.511 1.096-4.786 5.215-5.864 6.295-1.076 1.096-1.94 4.135-1.51 6.295 0 0-2.82 1.53-4.778 1.53 0 0 3.686.86 10.86-.218 0 0-3.703 1.945-5.215 3.472 0 0 2.174 3.902 2.174 8.018 0 4.137-.253 9.283-.345 11.046 0 0 4.683-.828 8.37-.828 0 0-6.946 3.255-8.476 5.413 0 0 .883 8.468 6.746 9.98 5.862 1.527 8.668-1.726 11.278-4.765 2.604-3.04 7.6-7.16 9.541-8.687h.007c1.963-1.51 3.92-9.118.881-12.159-1.024-1.005-1.98-1.885-2.842-2.75-4.477 1.55-8.667 1.67-8.667 1.67 2.43-.863 5.32-2.464 7.01-3.472-.916-1.116-1.635-2.282-2.014-3.684-.879-3.255-2.604-9.549-2.604-9.549s-2.392 0-5.215-.45c0 0 6.078-1.941 8.468-3.684 0 0-1.965.217-3.922-.212 0 0-.642-2.396-4.546-3.042-1.95-.324-3.91-.647-5.566-.755m127.865 6.713c.054.018.105.015.159.033.144.018.286.04.358.04.018.018.055.013.073.013 11.431 1.51 23.566 3.432 36.847 5.804 85.158 15.187 141.343 38.177 165.82 49.695 6.471 2.93 10.874 5.16 13.12 6.328 2.032.593 4.849.914 6.27-1.153a5 5 0 0 0 .609-1.146l.02-.04c.054-.126.09-.265.126-.39.054-.252.109-.487.126-.703.323-3.2-3.095-5.573-3.095-5.573l-.105-.053c-.108-.054-.197-.092-.305-.146a.16.16 0 0 0-.126-.053c-2.21-1.042-4.444-2.048-6.672-3.054a353 353 0 0 0-11.716-5.016c-.718-.306-1.493-.591-2.266-.915-.557-.233-1.112-.467-1.67-.682-9.038-3.577-18.204-6.83-27.478-9.814a515 515 0 0 0-16.824-5.089c-.9-.251-1.799-.517-2.697-.768a660 660 0 0 0-17.507-4.658c-13.876-3.481-27.887-6.931-41.933-9.717a813 813 0 0 0-46.489-7.837c-12.349-1.706-24.728-3.107-37.145-4.42-.342-.036-.688-.075-1.047-.093-2.175-.216-4.347-.41-6.467-.59zm-82.967 5.493c-.586.024-1.053.13-1.358.338-1.636 1.096-1.906 3.284-1.942 3.518v.02s3.776-.216 5.95-.63c.037 0 .07-.02.107-.02 0 0-4.12 3.037-12.351 4.115l.02.02c.287.072 1.385.375 2.643.537.737.108 1.528.165 2.247.093h.073s-.868 3.055-1.3 4.996c-.43 1.96.435 5.643 2.592 7.369l.02.02s3.63-.216 7.494-1.06c.036 0 .05-.02.086-.02 0 0-1.291 2.16-3.035 3.472 0 0 1.958 1.072.862 2.816-1.078 1.725-3.681 6.292-2.154 9.33.611 1.24 1.813 2.571 3.035 3.703 1.744 1.654 3.505 2.91 3.505 2.91s5.844-1.402 8.647-2.499c0 0-5.864 4.12-10.43 6.096 0 0 6.96-.237 9.35-.669l-1.08 2.412s3.039 2.37 10.192 1.292 11.715-2.606 11.715-6.308c0-3.684-.878-5.426.218-9.11 0 0-2.606.43-4.565 0 0 0 4.136-2.39 5.646-4.977 0 0-.379-2.34-1.511-4.658l-.02-.02c-.72-1.492-1.778-2.997-3.234-3.824a5.3 5.3 0 0 0-1.583-.63 79 79 0 0 0-.948-.218 31 31 0 0 1-1.961-.464 25 25 0 0 1-3.128-1.047c-.36-.143-.699-.302-1.04-.463a5.6 5.6 0 0 1-1.027-.544 15 15 0 0 1-2.406-1.723c-.018 0-.041-.015-.06-.033-1.635-1.528-3.015-3.557-3.895-6.361 0 0-1.531-4.337-4.785-5.434-.036 0-.03-.013-.066-.013a85 85 0 0 0-4.373-1.312c-.45-.126-.896-.237-1.345-.344a30 30 0 0 0-2.75-.537c-.764-.108-1.468-.164-2.054-.14m67.785 53.857c-1.406.073-2.838.427-4.32 1.074-3.972 1.725-9.847 3.4-9.847 3.4s-5.43 2.601-6.149 3.644c.108-.252 1.095-2.3 2.551-3.433 0 0-4.979.018-8.627.18-3.613.161-7.563.522-8.084 3.955-.503 3.45.515 5.177 2.06 6.381 1.546 1.204 7.424 4.82 8.628 6.023 0 0 3.954-2.59 7.064-3.273 0 0-6.718 4.815-8.263 7.421 0 0 2.93-1.543 4.996-1.543 0 0 5.334 3.273 8.767 3.273 3.45 0 9.992-1.047 9.992-1.047s3.793-2.57 7.945-2.929c0 0-4.33 2.93-5.354 4.314 0 0 1.727-.177 2.77.523 1.024.683 4.47 1.364 7.58.16 3.091-1.205 6.185-2.404 6.023-6.196-.18-3.792-2.405-8.27-2.405-8.27s4.062-3.399 6.308-4.46c-.539.073-4.943.737-7.693 1.87 0 0-3.433-6.903-7.063-9.132-2.27-1.392-4.536-2.055-6.878-1.934zm-84.816 4.87s-6.433-.485-10.244 5.553a.07.07 0 0 1-.053-.02c.018-.485.234-2.818 1.995-5.029 0 0-3.376 1.546-5.281 3.684 0 0-.919 1.024-1.206 2.12a10.3 10.3 0 0 1-.537 1.637 5 5 0 0 1-.185.43q-.11.269-.246.485c-.071.125-.146.236-.218.344-.126.18-.252.325-.378.45-.36.396-.739.612-1.08.81-.827.484-1.833.663-2.498 1.49-.503.63-1.094 1.653-1.292 3.432v.053a10.3 10.3 0 0 0-.02 1.836s1.977-2.161 3.81-3.167c0 0-2.985 4.657-3.327 8.143 0 0-.664 5.803 4.818 8.786 5.463 2.984 13.624 5.322 15.942 7.137 0 0 4.155-2.98 6.474-3.97 0 0-5.486 5.3-6.977 10.278 0 0 3.328-3.145 5.162-3.81 0 0 5.137 3.814 8.282 3.472 3.145-.323 7.64-.162 9.456-4.314 1.833-4.134 1.488-4.799 2.332-6.129 0 0-2.998 1.833-5.155 3.81 0 0 1.004-4.132 5.155-7.295 4.134-3.146 6.15-3.651 6.15-3.651s9.798-12.96-1.65-19.27c0 0 5.623-2.82 8.786-4.797 0 0-9.15 2.318-12.133 3.306 0 0-6.794-1.331-10.443-1.331-3.667 0-9.953-.48-12.775-1.326-2.813-.827-5.639-1.818-5.639-1.818s1.652-.99 2.982-1.332zm47.351 39.46c-.251 0-4.35.034-7.063 2.227 0 0-8.32.866-9.92 6.473-1.617 5.626 2.513 9.616 3.718 10.496 0 0 1.677-2.627 5.055-4.28 0 0-1.927 3.11-1.855 5.699 0 0 7.1 3.759 21.264 5.718 14.18 1.959 13.157.91 18.135 4.002 0 0 5.266-3.718 8.177-4.599 0 0-4.101 5.824-4.479 7.998 0 0 6.58 5.61 12.007 6.023 5.446.432 10.104-1.674 9.528-7.282l1.962-2.405-3.472.252 1.007-1.889s-.161-2.858-1.743-5.069c.27.144 2.983 1.616 5.553.915l-.755 1.424s2.969-.345 5.161-4.101l-1.802-.484s-.144-4.133-3.936-8.05c-3.774-3.919-7.457-5.217-9.668-3.042 0 0-1.112-4.169-3.664-5.301-2.568-1.137-4.312-.92-4.312-.92s-9.992 1.992-14.107 4.526c.809-.521 7.42-4.798 9.774-6.308l-5.553 1.279s-5.844.02-11.271-.411c-5.41-.413-17.918-1.708-20.237-1.259 0 0 1.564-1.08 2.498-1.637z"/><path d="M402.64 235.409c-4.015-.016-6.21.271-6.21.271s22.962 18.167 36.36 21.621c13.381 3.453 31.865-8.19 31.865-8.19s-6.274-2.116-18.467-5.592a6.1 6.1 0 0 1 1.166 3.605 6.167 6.167 0 0 1-6.162 6.162c-3.417 0-6.19-2.764-6.19-6.162 0-.254.037-.487.054-.723-.146 0-3.38-1.977-3.631-2.173-1.244-.97-2.407-2.05-3.704-2.969-2.12-1.49-4.943-3.636-7.587-4.227-.124-.02-.252-.055-.378-.073-7.268-1.213-13.101-1.535-17.115-1.55zm161.641 71.855c-5.97.182-10.377 2.69-10.377 2.69s21.365-.002 29.17 6.76c7.823 6.78 5.737 11.993 5.737 11.993s7.798 12.5 9.887 17.698c0 0 14.583-13.537 15.631-22.907 0 0-28.304-14.407-47.405-16.154a22 22 0 0 0-2.644-.08zm-207.788 44c-8.247.03-12.264 2.337-12.264 2.337s16.53 3.952 25.862 20.945c14.081 25.575 4.06 70.8 14.564 94.953 13 29.869 36.776 37.93 36.776 37.93 31.183-16.76 37.876-42.806 37.876-42.806-26.688-13.824-13.87-52.273-21.834-77.361-7.969-25.071-37.583-29.924-37.583-29.924s24.258 9.892 24.901 79.99c.214 23.577 7.435 33.556 7.435 33.556-12.247-6.527-15.468-30.59-16.566-49.22-.56-9.477-4.404-55.626-39.704-67.025-8.038-2.603-14.512-3.4-19.46-3.38zm121.697 122.32 1.093 12.08 8.402 5.453c2.407-9.747-9.495-17.533-9.495-17.533" style="fill:#006778" transform="translate(1.062 1.206)"/></svg>