<svg xmlns="http://www.w3.org/2000/svg" xml:space="preserve" id="Layer_1" width="720" height="720" x="0" y="0" version="1.1" viewBox="0 0 720 720"><style>.st0{fill:#fff}</style><path d="M687.18 342.395c-3.242-2.866-15.426-13.283-16.622-14.305-4.12-3.66-7.655-6.13-10-7.768-.603-.42-1.348-.941-1.615-1.152l-.146-.13-.224-.179c-1.788-1.423-2.854-2.284-3.508-2.812-1.255-1.014-2.048-1.653-3.381-2.252-.273-.157-1.067-.635-2.947-1.87l-.16-.103c-1.965-1.238-3.294-2.367-4.832-3.676-2.197-1.869-4.687-3.987-8.643-6.149-8.13-4.549-8.688-5.225-15.531-13.494l-.732-.882c-9.1-15.854-22.965-18.877-34.146-21.314l-1.507-.33c-7.848-1.793-13.42-8.31-14.105-9.412l-.129-.214c-6.5-10.49-16.152-15.957-21.918-19.224-.593-.337-1.148-.65-1.656-.947l-.208-.119c-7.429-4.106-14.905-6.1-22.136-8.027-8.96-2.389-16.697-4.451-23.039-10.158l-.414-.373-.454-.325c-19.204-13.748-28.035-14.371-44.635-14.4-2.771-.005-5.912-.01-9.36-.107-9.475-.298-23.024-6.754-27.014-10.06-4.734-4.042-10.54-7.19-17.26-9.353l-.131-.041c-4.677-1.436-9.284-2.075-14.939-2.075-2.084 0-4.1.084-6.05.165-1.917.079-3.728.154-5.576.154-5.303 0-11.38-.568-19.814-4.665-3.543-1.75-7.074-3.994-10.813-6.37-2-1.272-4.062-2.583-6.206-3.867-3.505-2.689-7.191-4.11-14.061-5.484-5.008-.996-10.08-1.48-15.502-1.48-6.218 0-12.07.616-18.265 1.268q-2.096.224-4.263.44-.52.036-.973.036c-1.82 0-2.308-.277-4.938-1.945-1.412-.896-3.169-2.01-5.385-3.105l-.18-.086c-7.407-3.476-14.214-5.807-20.804-7.124-4.22-.968-8.624-1.437-13.458-1.437-6.464 0-13.35.817-22.273 2.64-2.799.556-5.683.826-8.816.826-6.955 0-13.973-1.337-21.404-2.753-7.945-1.513-16.162-3.079-24.861-3.079-2.23 0-4.433.106-6.55.315l-.1.01c-7.415.806-16.885 7.71-20.681 15.073l-.094.18-.085.184c-4.048 8.7-4.059 14.355-3.615 21.99l.007.108c.551 7.99 1.498 10.866 2.995 14.897.294.79.62 1.668.983 2.747 3.685 12.581 5.839 19.675 8.837 28.35 2.498 7.007 1.795 12.74.152 13.494-.19.086-1.003.332-2.214.332-1.07 0-1.778-.195-2.03-.297-1.338-1.08-2.634-2.418-4.004-3.832-3.699-3.818-8.3-8.567-15.787-9.994a22.3 22.3 0 0 0-4.41-.434c-7.405 0-14.272 3.505-20.331 6.598-3.24 1.653-6.303 3.217-8.82 3.95-1.018.262-1.56.291-1.75.291h-.04c-.356-.182-1.166-.778-1.769-1.221-1.605-1.181-3.796-2.791-6.804-4.14a17.1 17.1 0 0 0-7.33-1.638c-5.594 0-10.007 2.68-12.376 4.12l-.486.292c-8.031 4.65-9.84 12.788-11.294 19.333l-.084.391c-.91 4.626-1.643 10.269-.198 17.045.722 3.38 1.64 6.168 2.379 8.408.744 2.259 1.332 4.043 1.332 5.23l.005.32c.315 9.854-1.075 16.598-4.25 20.616l-.12.151-.113.157c-4.497 6.166-9.509 21.634-9.55 21.762a1329 1329 0 0 1-1.552 4.87c-2.808 8.765-2.94 9.335-4.732 20.353l-.082.504c-.668 4.42-.869 8.791-1.063 13.017-.122 2.652-.237 5.158-.461 7.35l.03.002c-.48 5.805 1.459 21.541 1.482 21.704l.032.204c1.524 9.286 3.145 15.525 5.022 22.748.307 1.177.62 2.383.922 3.562 3.01 12.112 3.992 18.984 3.872 27.135-.106 2.35-.75 4.987-1.432 7.775-1.73 7.077-4.097 16.764 3.252 25.192 4.947 5.743 13.82 9.596 22.103 9.596 3.788 0 7.386-.756 10.691-2.246 2.735-1.233 5.218-2.516 7.41-3.646 3.841-1.983 7.159-3.695 9.64-4.032a24 24 0 0 1 3.106-.199c3.625 0 6.778.806 9.829 1.586 2.913.744 5.665 1.448 8.678 1.448.742 0 1.473-.045 2.177-.133l.172-.023c3.345-.478 6.937-1.907 10.41-3.29 1.625-.647 4.05-1.611 5.014-1.83a49 49 0 0 1 3.588-.157c.686 0 1.206.023 1.587.051.12.33.436 1.494.33 4.47a889 889 0 0 1-1.009 4.653c-.387 1.767-.64 2.921-.805 3.724-.777 2.475-1.557 4.922-2.322 7.317-2.834 8.886-5.512 17.283-7.043 23.954-.22.883-.611 2.13-1.023 3.448-1.667 5.329-3.95 12.628-3.232 20.278.689 7.324 4.363 17.175 17.965 22.517 4.727 1.853 9.677 2.754 15.133 2.754 5.218 0 10.866-.819 17.767-2.574 3.04-.692 4.917-1.038 7.088-1.437 1.461-.269 2.995-.55 4.968-.951l.24-.05c.547-.024 1.302-.048 1.819-.064a96 96 0 0 0 2.912-.12 16 16 0 0 0 1.994-.253l5.963-.345.23-.025c4.006-.419 6.838-.605 9.18-.605 3.382 0 6.12.39 11.088 1.098l2.332.33c1.773.225 3.533.471 5.286.716 6.083.852 12.373 1.732 18.978 1.732 2.38 0 4.619-.111 6.847-.34l.26-.03c6.24-.804 11.31-1.853 16.03-3.322 5.543-1.774 10.037-3.797 14.003-5.583 6.243-2.81 11.636-5.237 20.385-6.446 3.267-.448 5.797-.656 7.963-.656 1.617 0 2.91.111 4.548.253 2.038.177 4.35.376 7.57.377 1.458 0 2.96-.041 4.575-.124 13.242-.658 21.461-5.58 26.9-8.837.691-.414 1.346-.808 1.98-1.167 3.245-1.844 4.99-2.61 6.838-3.42 1.419-.623 3.028-1.33 5.137-2.439l.113-.06c8.28-4.494 18.188-5.8 28.677-7.183 6.327-.834 12.87-1.696 19.491-3.3 7.06-1.72 12.129-4.315 16.6-6.605 4.182-2.142 8.132-4.165 13.999-5.69l.104-.028c2.37-.642 5.32-.862 8.443-1.095 2.39-.178 4.86-.362 7.312-.737 6.428-.919 16.248-5.846 21.92-11.01a170 170 0 0 0 5.351-5.127c2.26-2.244 2.348-2.332 5.005-3.749l.21-.115c3.98-2.246 8.785-3.39 13.87-4.602 5.117-1.22 10.407-2.479 15.828-4.958 1.252-.574 2.51-1.133 3.764-1.692 8.523-3.795 17.335-7.72 24.74-15.364 6.128-6.267 16.369-9.478 26.272-12.584 3.44-1.08 6.998-2.194 10.466-3.463 9.685-3.608 22.13-9.994 32.515-27.542 6.518-11.188 10.727-12.468 24.674-16.708l1.115-.339c11.743-3.558 17.523-6.354 26.556-14.945 6.621-6.257 9.813-10.836 12.629-14.876.497-.713.991-1.422 1.505-2.14 0 0 .642-.93.913-1.319 2.17-3.123 5.144-7.4 6.562-12.473 2.17-7.763.056-14.98-5.975-20.341" class="st0"/><path d="M680.558 349.889c-3.315-2.93-16.575-14.262-16.575-14.262-5.627-5.01-10.176-7.632-11.64-8.942-8.326-6.63-1.234-1.234-9.097-6.399-5.627-3.546-7.246-6.398-13.028-9.559-10.33-5.782-11.41-7.478-19.658-17.422-7.246-13.26-18.424-15.11-29.602-17.577-10.793-2.467-18.656-10.947-20.506-14.107-5.782-9.328-15.11-13.876-20.12-16.806-15.342-8.48-33.15-7.015-47.026-19.504-20.891-14.955-26.519-12.026-48.49-12.642-12.257-.386-27.983-8.095-33.148-12.412-4.317-3.7-9.328-6.013-13.876-7.478-15.572-4.78-26.134 3.547-47.873-7.015-6.244-3.083-12.026-7.246-18.27-10.946-2.082-1.696-4.163-2.699-10.33-3.932-12.412-2.467-22.819-.848-35.23.385-8.326.617-10.33-2.929-16.575-6.013-6.244-2.93-12.411-5.165-18.656-6.398-9.944-2.313-20.737-1.002-31.684 1.233-21.739 4.317-41.474-6.63-62.597-4.548-3.546.385-10.33 4.78-12.874 9.713-3.083 6.63-3.083 10.562-2.698 17.191.617 8.943 1.62 9.56 3.546 15.341 3.7 12.643 5.782 19.504 8.712 27.984 3.546 9.945 3.546 21.97-5.011 25.902-3.932 1.85-10.793 1.85-14.493-1.002-5.782-4.548-9.097-10.793-15.727-12.026-8.942-1.85-19.503 7.246-28.985 9.945-9.328 2.466-10.562-2.699-17.191-5.628-4.317-2.081-8.48.848-10.947 2.313-4.317 2.467-5.397 7.477-6.63 13.028-.848 4.317-1.233 8.326-.231 13.028 1.464 6.861 3.931 10.947 3.931 15.726.386 12.026-1.464 20.892-6.398 27.136-2.698 3.7-6.861 14.956-8.095 18.887-4.317 13.645-3.931 11.41-6.013 24.206-1.002 6.63-.848 13.877-1.464 19.89-.232 1.002.848 14.955 1.464 19.272 1.696 10.33 3.547 16.806 5.782 25.517 3.084 12.411 4.317 20.274 4.163 29.834-.385 9.944-6.63 19.272-.617 26.133 3.7 4.317 13.26 8.326 21.123 4.78s13.645-7.632 19.89-8.48c11.408-1.465 18.886 3.315 23.82 2.698 4.317-.617 12.026-4.78 15.726-5.165 2.93-.231 9.097-.617 11.41 1.002 3.546 2.698 5.627 5.628 5.165 14.493 0 .231-2.082 9.56-2.082 9.713-3.7 11.795-7.478 22.973-9.328 31.068-2.081 8.48-11.409 27.135 7.632 34.613 7.863 3.084 16.343 2.467 26.905-.231 5.396-1.234 7.477-1.465 12.411-2.467 0-.386 7.478-.231 7.478-.617l6.63-.385c11.794-1.234 14.492-.617 24.9.848 9.713 1.233 19.04 3.083 28.831 2.081 4.78-.617 9.56-1.465 14.262-2.93 13.49-4.316 19.889-10.175 36.078-12.41 13.49-1.851 13.49.385 25.517-.232 12.411-.617 19.272-5.782 24.437-8.711 6.245-3.546 7.863-3.7 12.258-6.013 15.34-8.326 33.38-7.247 50.57-11.41 12.027-2.929 16.806-8.71 30.451-12.257 5.396-1.465 11.41-1.233 16.96-2.081 4.317-.617 12.257-4.549 16.574-8.48 7.478-6.861 6.63-7.247 12.412-10.33 9.559-5.397 20.506-5.397 30.45-9.945 9.097-4.163 18.425-7.632 25.517-14.955 10.33-10.562 26.904-13.491 40.395-18.425 7.863-2.93 18.425-8.094 27.367-23.204 8.711-14.955 16.343-16.96 31.53-21.585 10.176-3.084 14.724-5.165 22.587-12.643 7.015-6.63 9.56-10.947 12.874-15.572 3.623-5.32 10.639-14.03 3.007-20.814"/><path d="M662.673 359.602c-1.696-3.546-6.244-7.632-9.945-10.176 0 0-8.71-8.48-13.49-11.64-11.95-7.786-14.262-9.714-20.044-16.498-5.782-6.63-7.246-8.71-13.876-12.257-2.467-1.465-18.887-7.015-15.958-6.63-15.11-2.698-15.572-5.781-21.585-11.409-5.01-7.246-10.792-15.726-15.957-19.272 2.081 1.233-9.097-6.013-9.097-5.782-8.48-2.93-11.64-2.313-22.356-2.698.385 0-11.795-1.62-14.956-3.084-5.627-2.467-8.48-5.396-12.257-8.326-8.48-6.244-6.013-4.78-14.493-10.946-11.41-8.326-12.643-6.245-27.136-7.632-12.257-1.234-20.89-4.163-30.45-10.947-16.96-12.257-33.534-7.863-43.941-9.56-14.956-2.312-25.517-8.325-31.068-11.794-12.026-7.632-9.327-4.163-22.201-10.176-15.341-7.246-29.834 4.78-47.873-.231-9.56-2.698-13.029-7.632-19.273-9.945-18.424-5.396-24.669-2.467-39.547-2.312-17.808 0-33.765-4.78-50.725-4.549-4.78 0-8.48 3.932-7.632 9.328l.231 6.63c.848 5.396 2.93 11.178 4.549 17.19 2.081 7.247 3.083 9.714 6.244 21.355 1.002 9.328 0 11.795-.617 15.726-.617 3.084-2.698 9.56-4.163 11.795-1.85 2.698-4.163 3.7-7.246 5.627-5.396 3.084-10.793 4.549-16.575 4.549-6.013-.231-4.317-.231-13.876-3.7-3.546-1.234-10.561-5.397-17.576-2.313-13.26 6.398-14.724 1.619-22.202 2.312-2.313.232-4.317 1.234-6.63 2.313-3.546 1.465-5.01 3.7-7.246 8.326-1.234 2.698-2.313 7.246-1.85 11.41-.848 0 1.233 6.398 1.233 6.629 1.696 8.711 2.081 15.572-1.233 23.435-3.084 7.247-4.163 9.945-8.326 15.727-3.932 5.781-10.947 22.356-11.64 37.697.616-.617-.232 18.27 2.08 29.217 2.468 12.257 6.014 13.26 6.862 33.38.385 7.632-.386 14.261-.617 21.122-.231 4.317 1.233 10.562 6.861 9.714 7.863-1.234 16.96-5.628 23.204-5.782 3.084-.231 8.48.848 10.561 1.465 12.643 4.317 8.48 1.002 28.215-2.313 6.63-1.234 15.572.231 19.273 2.313 11.64 6.86 10.561 21.585 7.246 36.232-.617 2.313-3.546 17.808-4.163 20.12-2.081 7.632-1.85 8.326-2.698 16.575-.385 3.931-.231 7.015 2.082 10.792 1.85 2.93 3.931 5.165 6.86 5.165 12.875.386 19.89 0 33.15-2.312 16.96-3.084 25.67-3.084 37.465-2.082 12.026 1.002 29.217.848 36.232-1.85 6.399-2.313 14.956-7.247 21.74-8.711 22.356-4.78 23.204-2.467 41.474-4.78 14.493-1.85 21.97-9.096 29.448-13.028 10.176-5.396 19.273-7.246 30.836-7.246 6.861 0 16.806-2.313 21.586-4.549 19.272-8.711 12.026-8.326 38.93-13.26 13.645-2.466 23.435-13.49 31.915-18.038 5.397-3.084 10.176-5.628 16.343-7.478 8.326-2.467 17.423-3.7 25.286-6.399 12.643-4.317 16.574-8.71 23.435-14.955 5.782-5.165 7.632-5.165 14.108-9.097 6.63-4.162 16.189-7.015 19.658-8.325 8.325-2.467 20.505-16.575 31.915-27.984 13.49-13.645 25.902-11.41 40.78-19.504 9.097-4.78 14.879-7.863 10.716-16.574m-171.14 85.184c-6.86 5.165-15.726 8.712-23.59 12.643-9.944 4.163-26.518 9.945-42.476 11.64-14.493 1.851-36.695 2.082-54.271.849-18.27-1.85-41.629-8.943-51.573-13.876-12.258-5.782-18.425-10.176-25.903-17.808-7.863-8.095-12.257-14.956-15.726-26.52-5.396-17.19-2.081-38.775 7.247-54.04 6.244-10.946 14.492-18.038 25.054-25.516l-3.932-4.163-47.256 27.136v7.015h12.643v27.367l-8.48 7.863h-85.801V374.48c-.386-.23 10.33-12.411 10.33-12.411h4.163v-88.037h-13.26V257.69l10.947-13.028h81.253v20.506L258.49 277.81v34.15l77.707-44.558v-13.876l8.711-8.942h82.872v20.275l-10.176 9.559-20.737.231-34.151 20.506 6.013 6.244c37.08-12.257 74.392-14.724 122.033 8.48l13.491-8.326h22.587v60.053l-10.792 10.33h-21.123c-15.958-26.133-42.476-49.723-96.516-38.16l28.214 30.22h6.245v24.9l-10.33 9.945H341.13l-.386-22.819 6.013-6.244-3.546-3.932c-11.795 9.097-19.89 28.832 8.326 50.726l-1.465-1.85c38.545 27.52 135.062 11.409 145.006-24.207h31.916c-.232 23.358-18.425 42.014-35.462 54.271" class="st0"/><path d="M257.026 369.778h12.026v15.34H194.66v-15.34h12.643V263.47H194.66v-13.26h74.16v13.26l-12.642.231v57.818l101.296-57.818h-8.943v-13.336l76.628-.232.231 13.029-16.96.23-52.035 30.683 69.843 75.394h2.467v15.34h-77.09v-15.572l10.561.232-47.641-50.726-57.587 32.918v18.116zm249.077-64.447-12.643 8.248c-26.133-11.794-49.106-15.572-67.762-15.572-24.052-.231-41.243 5.628-49.491 8.326l19.889 21.74c42.708-10.177 88.268.385 108.388 30.681l19.273-.231.231-53.27h-17.885zm-48.952 122.804.231.231c-50.108 14.956-98.212 7.478-119.566-18.887-17.808-20.274-9.328-38.314 1.85-48.104l-22.202-24.206c-17.808 12.026-23.59 23.435-27.521 34.382-2.93 9.097-7.246 27.521 1.233 44.79 10.33 18.038 27.136 28.368 38.545 32.531 18.425 7.632 48.49 14.956 82.255 13.49 24.207-.616 45.406-5.01 65.681-15.109 11.795-6.244 14.262-7.632 26.133-18.655 8.943-10.176 15.958-16.575 19.042-32.301h-20.275c-8.326 13.414-19.504 24.206-45.406 31.838" style="fill:#e31837"/></svg>