<svg xmlns="http://www.w3.org/2000/svg" xml:space="preserve" width="720" height="720" viewBox="0 0 720 720"><path d="M683.998 360.134h-44.68c20.869-45.483 17.39-58.86 17.39-58.86h-10.434c6.956-1.606 11.237-16.588 11.237-16.588l6.154-37.457H510.628s-52.707-87.755-165.611-87.755-168.02 90.163-168.02 90.163H151.58l-25.417 47.356h16.588l-7.759 19.263H115.73l-34.246 63.141h13.912l-5.083 12.307H60.614l-17.658 32.374H57.94L36 463.407h137.52s53.241 97.12 171.497 97.12 169.09-94.445 169.09-94.445c25.416 27.023 75.18 11.237 75.18 11.237 96.317-37.456 94.711-117.185 94.711-117.185" style="fill:#fff"/><path d="M346.622 184.356c-96.585 0-174.976 79.461-174.976 177.383 0 98.19 78.391 177.651 174.976 177.651s174.976-79.46 174.976-177.65c0-97.922-78.392-177.383-174.976-177.383" style="fill:#fdb927"/><path d="M426.35 379.932c-16.32 20.066-25.416 26.755-42.004 26.755-5.618 0-8.562-1.338-7.224-4.013l19.799-39.597h7.491c8.294 0 7.224 6.956 5.083 16.588-.535 1.337.535 1.337 1.606.267l18.728-32.908c.803-2.14-1.605-2.408-2.676-.803-9.364 12.575-19.263 11.772-23.544 11.772h-3.21l20.868-40.132h8.562c10.702.535 15.518 9.632 12.575 31.57h4.28l15.518-30.5c1.338-2.675-1.338-5.083-4.28-5.083l-104.879.268c-6.154 0-6.421 4.548-.535 4.548 4.816 0 4.548 6.689.267 9.9l-44.68 35.583 9.097 41.737a5.46 5.46 0 0 0 6.153 4.549h86.685a7.06 7.06 0 0 0 6.422-2.943l15.517-27.023c2.14-4.013-2.675-3.745-5.618-.535m-67.956-17.123h7.759c2.675 0 5.083.268 4.28 1.338l-20.066 38.527a4.53 4.53 0 0 1-8.561-.268l-9.9-51.369 34.782-27.022c3.478-3.21 10.167-8.027 13.645-8.027h7.759c4.548 0 6.153 2.14 5.083 5.084l-1.338 2.408c-.802 1.605-3.745 1.873-5.886 1.873h-4.548a.71.71 0 0 0-.803.802c0 .535.268 1.07.803 1.07h4.548c1.873 0 4.013 0 3.21 1.338L373.11 359.6c-.803 1.07-4.28 1.337-7.224 1.337h-7.491a1.15 1.15 0 0 0-1.07 1.07c0 .536.535.803 1.07.803m-64.479 43.075a5.13 5.13 0 0 1-4.28-3.21 11.63 11.63 0 0 1 .267-8.027l40.4-71.702c.535-1.338 2.407-4.281 4.28-4.281 3.478 0 5.084-4.548-.802-4.548H301.14c-5.886 0-5.886 4.548-.268 4.548a2.7 2.7 0 0 1 2.676 3.746l-8.83 16.32c-1.337 1.605-3.745 1.873-6.42 1.873h-7.492c-.535 0-1.07.267-1.07.803.04.574.496 1.03 1.07 1.07h7.492c2.14 0 3.745.535 2.675 2.943L261.008 400c-2.14 2.942-6.421 3.477-6.154-2.141l10.435-79.73c.535-2.407 0-4.28-2.676-4.28H246.56a4.61 4.61 0 0 0-4.013 2.408l-5.886 6.956c-.535.803-2.408.803-4.013.803H219.27a1.15 1.15 0 0 0-1.07 1.07c0 .535.534.803 1.07.803h10.969c1.873 0 4.013.535 3.21 1.605l-15.25 19.263a5.4 5.4 0 0 1-2.943.803h-4.28c-.535 0-1.07.268-1.07.803a1.15 1.15 0 0 0 1.07 1.07h3.478c1.07 0 1.07.535.802 1.07l-14.447 18.193a7.8 7.8 0 0 1-3.746.803h-12.842c-.535 0-.803.535-.803 1.07a.71.71 0 0 0 .803.803h10.97c1.872 0 2.942.267 2.14 1.605L176.73 398.66c-3.746 5.084-22.474 7.492-26.22 7.492l69.83-130.295a6.89 6.89 0 0 1 5.886-3.746h14.715c6.956 0 6.956-4.816.803-4.816h-74.378c-6.154 0-6.422 4.816.802 4.816h13.645c4.013 0 5.083 2.14 4.013 4.28l-1.873 3.479c-.535 1.07-1.605 1.605-5.35 1.605h-24.347c-.535 0-.803.535-.803 1.07a.71.71 0 0 0 .803.803h24.346c1.338 0 3.211.535 2.14 2.943l-3.477 6.153c-.535 1.07-2.14 1.338-3.746 1.338h-11.237c-.535 0-.802.535-.802 1.07s.267 1.07.802 1.07h10.97c1.605 0 1.872 1.07.802 2.408l-7.759 14.448c-.802 1.338-1.872 1.605-4.548 1.605h-4.28c-.536 0-1.07.268-1.07.803a1.15 1.15 0 0 0 1.07 1.07h4.28c1.605 0 2.14.803 1.338 2.408l-6.421 12.04c-1.07 1.605-2.408 2.407-6.689 2.407h-24.347a.71.71 0 0 0-.802.803c0 .535.267 1.07.802 1.07h24.347c2.675 0 3.746 1.338 2.675 3.21l-12.574 23.545c-.803 1.07-2.676 1.338-6.154 1.338h-24.347c-.535 0-1.07.267-1.07.802a1.15 1.15 0 0 0 1.07 1.07h24.08c2.943 0 4.815 0 4.013 1.606l-7.224 13.645c-1.338 2.14-5.083 2.14-6.689 2.14h-7.759a.71.71 0 0 0-.802.803c0 .535.267 1.07.802 1.07h7.76c2.675 0 4.013.535 3.478 1.873l-9.632 18.193c-1.07 1.605-4.816 1.605-7.759 1.605H72.386a1.15 1.15 0 0 0-1.07 1.07c0 .536.535.803 1.07.803h37.457c2.675 0 5.618.535 4.548 2.408l-6.153 11.505c-.535 1.07-2.676 1.07-5.886 1.07H94.86a1.15 1.15 0 0 0-1.07 1.07c0 .535.535.803 1.07.803h7.492c1.873 0 4.28.267 3.478 1.872l-4.013 7.224a5.71 5.71 0 0 1-5.351 3.478H77.47c-6.956 0-6.689 4.816-.535 4.816h110.764c3.21 0 3.478-.535 4.816-2.943l16.588-28.627h84.01c5.886 0 4.548-4.549.802-4.549m-65.816-8.561c-.803 4.548-5.619 7.759-11.505 9.364l-6.153 1.605 5.083-9.096c1.338-2.676-1.605-4.014-4.816-.268-21.404 24.882-28.36 36.921-61.536 36.921h-8.829c-2.675 0-5.618-1.07-3.745-3.478l11.772-21.939h44.412c5.886 0 4.549-4.548.803-4.548a10 10 0 0 1-6.689-4.28 6.13 6.13 0 0 1 .268-6.422l16.855-22.741h28.36zm6.42-28.628h-27.556l34.78-46.018zm420.05 14.18c-.536-2.14-1.339-.802-2.676 1.873-.535 1.07-1.873 1.07-3.478 1.07h-4.281a1.19 1.19 0 0 0-1.07.803.98.98 0 0 0 1.07 1.07h4.28c1.606 0 1.606 1.07.803 2.676a68 68 0 0 1-10.434 16.32 4.62 4.62 0 0 1-3.478 1.338l-4.548.267c-.536 0-1.07.268-1.07.803a1.15 1.15 0 0 0 1.07 1.07h4.28c2.408 0 0 1.338-.267 1.873a102.2 102.2 0 0 1-18.728 19.53 20.9 20.9 0 0 1-6.154.268h-4.548c-.536 0-.803.535-.803 1.07a.71.71 0 0 0 .803.803l4.548.268c3.21 0 .802 1.873.267 2.14-12.04 10.167-30.232 13.378-38.259 12.307-26.755-3.21-32.373-23.544-34.246-31.838a46.3 46.3 0 0 1-2.14-7.224c-.803-4.28 11.237-5.35 14.447-3.21 5.084 3.478 16.856 6.956 26.22 6.956 8.561 0 25.952-6.154 31.035-20.869 5.351-15.25-7.758-31.838-13.644-37.724-7.224-7.224-14.18-18.996-11.237-27.557 2.14-6.421 5.886-9.364 13.644-9.364 10.435 0 17.659 6.42 17.659 15.785 0 .803-.268 1.873-1.07 1.873h-3.479a1.15 1.15 0 0 0-1.07 1.07c0 .535.535.803 1.07.803h3.21a1.352 1.352 0 0 1 1.339 1.873c-.536 3.21-.803 5.35-1.606 8.561-.267 1.873 2.408 2.943 3.21 1.605l16.054-28.627c1.337-2.14-1.338-2.676-3.211-2.14-4.548 1.605-11.504 2.675-14.18.802a31.23 31.23 0 0 0-19.798-6.956c-14.18 0-24.347 3.478-30.768 15.25-.535.803-1.873.803-2.943.803h-2.943c-.535 0-.803.535-.803 1.07s.268 1.07.803 1.07l2.408-.268c1.07 0 1.605.536 1.07 1.606-.268 1.07-.803 2.14-1.07 3.21a30.7 30.7 0 0 0 1.337 18.729c.268.267-.267.535-1.337.535h-4.281a1.15 1.15 0 0 0-1.07 1.07c0 .535.535.803 1.07.803h4.28c2.141 0 2.409.267 3.211 1.337 2.408 3.21 4.816 5.619 7.491 9.365 1.07 1.07-2.943 1.337-5.083 1.337h-17.123a1.07 1.07 0 1 0-.003 2.14h17.393c2.944 0 7.76-.267 8.295.536 4.28 4.816 9.364 12.307 10.166 18.728.268 1.873-.535 2.676-2.675 2.676h-2.408a.71.71 0 0 0-.803.802c0 .535.268 1.07.803 1.07h2.14c1.873 0 2.676.268 2.408 1.606-2.408 7.223-5.618 12.574-19.53 12.307-14.716 0-17.659-14.18-13.378-29.163.803-2.943 0-4.28-1.338-1.873l-10.166 16.053a3.55 3.55 0 0 1-2.676 1.07h-1.338a1.07 1.07 0 0 0-.003 2.14h.003c1.07 0 1.606.536 1.07 1.338l-3.745 5.619a188 188 0 0 0-21.671-37.457v-.267c13.644-.803 33.443-13.378 36.653-24.615 5.619-19.798-13.377-27.022-23.811-27.022h-45.483c-6.154 0-6.421 4.816-.803 4.816 3.21 0 5.886 2.676 4.549 5.351l-10.167 18.193c-.803 1.605-3.746 1.605-8.027 1.605h-4.28c-.535 0-1.07.268-1.07.803a1.15 1.15 0 0 0 1.07 1.07h4.28c2.943 0 6.154 0 5.084 2.14l-12.04 21.672c-.535 1.07-2.14 1.07-6.153 1.07h-4.281a1.15 1.15 0 0 0-1.07 1.07c0 .535.535.803 1.07.803h4.28c3.211 0 4.281.535 3.479 2.14l-16.053 28.895c-1.873 2.14-4.013 2.408-8.027 2.408-5.886 0-5.618 4.549.268 4.549h39.062c6.153 0 4.548-4.549 1.07-4.549-2.14 0-4.28-4.013-2.943-6.153l19.798-37.992h2.14c8.83 0 10.97 14.715 12.576 30.5.267 1.07-1.873 1.338-6.422 1.338h-10.97c-.534 0-1.07.268-1.07.803a1.15 1.15 0 0 0 1.07 1.07h10.97c2.943 0 6.957 0 6.957 1.07a152 152 0 0 0 2.675 18.46c.535 1.874-2.675 1.606-5.886 1.606h-14.18a1.15 1.15 0 0 0-1.07 1.07c0 .535.535.803 1.07.803h14.18c4.28 0 6.689 0 6.956 1.07 5.886 22.207 32.106 39.865 57.255 38.794 21.939-.802 40.132-12.574 49.496-20.333 12.575-9.9 31.036-31.035 38.527-46.286 1.338-2.675 3.478-6.42 2.943-8.829m-146.081-29.698c-2.943 2.676-7.76 5.351-8.83 4.549a40.7 40.7 0 0 0-7.49-5.084l18.192-33.175a3.68 3.68 0 0 1 3.479-1.606c7.223 0 9.364 7.492 6.153 17.123-2.408 6.689-6.153 13.913-11.504 18.193m-249.62-62.337a4.28 4.28 0 0 0 2.675-1.338l8.561-16.855c.536-1.338.536-2.676-.802-2.676s-.803-2.407.535-2.407h14.983c1.605 0 1.872 2.407.535 2.407a2.94 2.94 0 0 0-2.676 1.606l-9.632 18.996h1.606a16.7 16.7 0 0 0 13.912-5.886c.803-1.07 2.14-.803 1.605 0l-5.083 7.49c-.267.803-.802 1.339-2.675 1.339h-24.08c-1.605 0-.802-2.14.536-2.676m70.364-.535 3.478-6.689c.535-.802 1.873-1.07 2.14.268.536 3.746 4.55 5.618 7.225 5.886 2.14 0 4.28-.268 5.083-2.14 1.07-2.676-1.605-4.014-4.013-5.084-4.816-2.14-6.956-6.153-5.084-10.702 2.676-5.35 6.69-6.42 12.307-6.42a14.3 14.3 0 0 1 7.76 2.675 2.81 2.81 0 0 0 3.21 0c.535-.268 1.873.535 1.338 1.337l-1.606 4.281a1.038 1.038 0 0 1-1.872-.267 7.17 7.17 0 0 0-5.619-4.549c-1.338-.267-3.746-.535-4.548 1.07-1.338 2.408 1.07 4.816 4.013 6.154 5.083 2.408 6.956 6.956 4.013 11.505a13.35 13.35 0 0 1-12.574 6.42 18.4 18.4 0 0 1-8.83-3.21 4.09 4.09 0 0 0-4.815.803c-.803.535-2.14-.268-1.606-1.338m159.19 1.07c1.606 0 2.409-.535 3.746-2.14l8.562-15.518c1.07-1.873.535-4.013-1.338-4.013-.803 0-1.338-2.14.535-2.14h28.36c2.408 0 4.013 1.872 2.943 3.478l-2.14 4.013c-.268.803-2.14.267-2.408-.268a7.66 7.66 0 0 0-7.224-5.083h-5.35l-4.817 9.632h.803c1.338 0 7.224.535 8.561-1.873.536-.535 1.873-.535 1.338.535l-3.21 6.689a1.384 1.384 0 0 1-2.14 0c-.536-1.873-3.479-1.873-6.154-1.873h-.803l-3.746 8.829h3.21a18.55 18.55 0 0 0 14.181-4.816c.535-.535 2.675-.535 1.605.535l-4.013 5.083c-.268.803-.803 1.07-1.873 1.07h-28.627c-2.14 0-1.606-2.14 0-2.14m-117.987 2.14h12.307c2.408 0 1.873-2.942.802-2.942a2.314 2.314 0 0 1-1.605-4.014l3.746-3.477h7.491c4.28 0 7.491 5.083 4.816 6.688l-2.14 1.07c-.803.536-1.338 2.676 0 2.676h24.079c1.873 0 1.605-2.408.802-2.408-2.675 0-1.337-3.478-.802-4.28l6.153-12.04 8.83 17.123c.802 1.07 1.337 1.605 2.14 1.605h3.478a1.78 1.78 0 0 0 1.873-1.338l10.166-18.46c1.606-3.211 2.943-4.014 5.084-4.014.802 0 1.338-2.14-.803-2.14h-9.9c-2.14 0-1.604 2.14-.534 2.14a3.19 3.19 0 0 1 2.675 4.816l-4.013 7.491-9.097-13.377a5.1 5.1 0 0 0-3.478-1.338h-9.899c-1.873 0-1.605 2.14-.535 2.14 1.873 0 1.338 1.606.803 2.676l-7.76 15.25a1.728 1.728 0 0 1-3.21-.267l-6.153-19.799c-.268-.803-3.746-.803-4.816 0l-15.25 12.575h-7.76c-1.604 0-2.407.802-2.407 1.605s.803 1.605 2.408 1.605h4.013l-4.013 3.478c-2.408 1.606-4.816 4.014-6.154 4.014h-1.07c-1.605 0-2.408.267-2.408 1.337 0 1.338.803 1.606 2.14 1.606m28.627-21.136v7.492h-9.364zm-93.683 22.44c1.067.238 2.16.339 3.252.302 9.097 0 17.39-5.886 18.996-14.448 1.605-8.561-4.548-14.447-13.377-14.447-8.294 0-17.123 4.28-18.729 13.11-1.553 6.998 2.86 13.93 9.858 15.484m1.112-17.356c2.675-5.351 6.956-8.562 9.899-7.224 2.943 1.605 2.943 6.956.268 12.307-2.676 5.351-7.224 8.562-9.9 7.224-2.943-1.338-3.21-6.956-.267-12.307m149.826-.803a20.61 20.61 0 0 1 19.531-10.97 20.9 20.9 0 0 1 10.434 3.211c1.07.803 2.408-.267 3.21 0 .803 0 1.071.535.803 1.07l-2.407 4.549c-.536.802-1.606.802-1.873 0-.268-3.21-3.21-4.013-6.689-4.013a13.33 13.33 0 0 0-12.04 7.758c-2.943 6.154-1.337 10.97 2.676 10.97s5.886-1.605 5.886-5.886a1.69 1.69 0 0 0-1.873-1.873c-.803 0-1.338-2.14.803-2.14h10.702c2.408 0 2.675.802 2.14 1.872l-4.28 10.167c-.268.803-.536 2.14-1.606 2.14h-1.07a3.3 3.3 0 0 1-2.14-1.07l-2.676-1.872c-2.408 1.07-6.956 3.745-10.702 3.745-6.689 0-13.912-9.096-8.829-17.658m151.699 7.224c.535 3.746 4.548 5.618 7.224 5.886 2.14 0 4.28-.268 5.083-2.14 1.07-2.676-1.605-4.014-3.745-5.084-5.084-2.14-7.224-6.153-5.351-10.702 2.675-5.35 6.688-6.42 12.307-6.42a14.3 14.3 0 0 1 7.759 2.675 2.81 2.81 0 0 0 3.21 0c.535-.268 1.873.535 1.338 1.337l-1.605 4.281a1.038 1.038 0 0 1-1.873-.267 7.17 7.17 0 0 0-5.619-4.549c-1.337-.267-3.745-.535-4.548 1.07-1.07 2.408 1.07 4.816 4.013 6.154 5.351 2.408 6.956 6.956 4.013 11.505-2.943 4.815-6.956 6.42-12.574 6.42a18.4 18.4 0 0 1-8.83-3.21 4.09 4.09 0 0 0-4.815.803c-.803.535-2.14-.268-1.605-1.338l3.478-6.689c.535-.802 1.872-1.07 2.14.268m-67.422-11.237c.535-1.338.268-2.676-1.07-2.676-1.07 0-.803-2.407.535-2.407h15.25c1.606 0 1.606 2.407.535 2.407a2.47 2.47 0 0 0-2.675 1.606l-9.632 18.996h1.338c5.618 0 10.434-1.338 14.18-5.886.535-1.07 2.14-.803 1.338 0l-4.816 7.49c-.535.803-1.07 1.339-2.943 1.339h-24.08c-1.337 0-.535-2.14.803-2.676a3.6 3.6 0 0 0 2.408-1.338zm23.544 18.728a4.44 4.44 0 0 0 4.014-2.14l8.294-15.518c1.337-1.873.802-4.013-1.07-4.013-.803 0-1.606-2.14.534-2.14h28.36c2.408 0 3.746 1.872 2.943 3.478l-2.14 4.013c-.535.803-2.14.268-2.408-.268a8.24 8.24 0 0 0-7.224-5.083h-5.35l-5.084 9.631h.803c1.605 0 7.491.536 8.829-1.872.267-.535 1.873-.535 1.337.535l-3.478 6.688a1.118 1.118 0 0 1-1.872 0c-.803-1.872-3.746-1.872-6.154-1.872h-.803l-4.013 8.829h3.478a17.7 17.7 0 0 0 13.913-4.816c.802-.535 2.675-.535 1.873.535l-4.014 5.083c-.267.803-.802 1.07-2.14 1.07h-28.628c-1.872 0-1.337-2.14 0-2.14" style="fill:#31006f"/><path d="M206.16 255.523c1.338.803 3.745-1.873 5.886-4.816 10.702-14.18 24.882-28.092 39.597-36.386 4.548.802 10.97 7.224 13.377 10.434a357 357 0 0 0-31.035 21.671c-5.084 4.014-6.689 6.154-5.351 7.76 1.07 1.337 5.083-1.071 8.294-3.746a267.5 267.5 0 0 1 30.768-21.137c5.886 6.689 4.013 18.996 1.872 21.404-1.07 1.605-1.07 2.943 0 3.746 1.338.802 2.408-1.07 4.014-3.478 4.013-5.619 2.408-18.996-.803-23.812 10.167-6.421 24.614-10.702 33.443-12.575.803 1.338 11.505 32.641 13.645 38.26 1.07 3.21 2.14 6.956 4.549 6.153 1.337-.267.535-3.746-.803-7.224-1.605-4.28-9.632-30.5-12.307-38.259 2.943-1.605 20.6-5.083 25.149-5.083-2.14 11.504 5.886 16.32 14.983 22.206 4.816 3.21 35.851 20.869 42.272 24.882 3.746 2.408 6.689 3.746 7.491 2.675.803-1.07-1.605-3.745-5.083-5.618-2.675-1.605-31.57-18.46-43.61-25.952-8.562-5.619-13.11-11.237-11.237-18.996 2.943-.803 11.504-.803 20.601-.803 61.536.536 110.764 35.584 116.115 41.47 2.943 2.676 6.69 5.084 8.294 4.013.803-.802-.802-4.013-2.14-5.35-2.14-2.676-5.083-8.027-26.487-26.755-31.838-27.558-73.843-40.132-113.172-40.132-28.896 0-54.313 6.42-82.672 21.939-35.852 19.798-50.567 42.54-54.312 47.088-2.676 3.478-2.943 5.35-1.338 6.42m149.826-69.83a172.4 172.4 0 0 1 25.685 3.21c23.811 4.55 60.733 19.264 76.785 40.4-21.403-14.18-56.452-25.149-81.334-27.022-13.377-.802-24.347-1.338-33.71-.267a38.5 38.5 0 0 1 12.574-16.32m-7.491 0c-3.746 2.943-9.9 13.913-11.237 17.123a209 209 0 0 0-27.825 5.084c-1.338-3.478-4.816-14.18-6.154-17.658a133.5 133.5 0 0 1 45.216-4.549m-50.567 5.886c1.338 2.676 5.351 13.378 6.69 17.658-7.76 1.606-28.093 9.097-34.515 13.378-1.605-2.676-9.364-9.9-13.644-11.237 9.899-7.492 32.64-17.926 41.47-19.799m199.59 265.407c-16.053 29.697-48.693 59.663-86.15 74.11-43.075 16.588-90.966 17.658-134.843-1.873-37.992-16.855-67.422-47.623-79.462-69.294-1.338-2.676-2.675-5.084-1.605-5.886 2.14-1.338 3.746 1.873 5.083 4.28 8.294 13.378 24.882 31.571 44.146 46.019a170.2 170.2 0 0 0 65.28 29.697c-6.153-7.491-27.289-35.048-39.328-58.325a271 271 0 0 1-19.531-48.694c-1.338-4.28-2.676-7.49-.535-7.758 2.14-.535 3.21 2.408 4.013 6.42 1.873 8.295 9.096 27.826 19.798 49.23 9.097 17.925 33.176 51.903 43.61 60.465 9.097 2.14 27.023 2.676 42.273 2.14 16.855-.535 41.47-7.49 47.355-10.434-1.07-3.21-31.302-97.922-31.838-100.865-.802-2.943-1.605-4.816-.267-5.351 1.07-.268 2.14.535 2.943 4.013.803 2.408 26.22 82.137 32.908 100.865a164.1 164.1 0 0 0 50.031-30.767c17.659-16.053 25.417-26.488 32.641-38.795 2.14-3.745 4.013-7.759 5.619-6.688 1.872 1.07.267 3.478-2.14 7.49"/></svg>