<svg xmlns="http://www.w3.org/2000/svg" xml:space="preserve" width="720" height="720" viewBox="0 0 720 720"><path d="M636.29 195.04a92.9 92.9 0 0 0 11.56-43.903 96.86 96.86 0 0 0-43.463-78.731c-35.414-24-88.39-27.366-126 17.56a239 239 0 0 0-118.242 14.781A238.7 238.7 0 0 0 241.9 89.967c-37.61-44.927-90.73-41.561-125.999-17.561a96.48 96.48 0 0 0-43.463 78.731 94.7 94.7 0 0 0 11.56 43.902C55.61 235.87 36 284.453 36 333.77c0 59.414 25.463 90.146 34.975 103.317l7.61-7.61c26.927 68.488 72.878 105.365 128.487 138.877 0 0 1.171-6.731 2.342-12.878 59.853 51.805 88.39 39.073 150.584 109.463 62.049-70.097 91.317-58.097 150.585-109.463 1.17 6 2.341 12.878 2.341 12.878 24.732-14.926 94.537-52.39 128.488-138.877l7.61 7.61c5.853-8.049 34.975-40.537 34.975-103.317.292-49.317-19.317-97.755-47.708-138.73" style="fill:#707271"/><path d="M619.168 195.917c57.073-87.658-72.439-178.828-135.073-90.585a222.6 222.6 0 0 0-123.95 15.22 222.6 222.6 0 0 0-123.951-15.22c-62.78-88.243-192.145 2.927-135.072 90.585-64.976 89.268-58.537 177.365-28.39 218.78l12.438-12.44s17.708 86.049 111.366 142.683l3.366-18.585c57.658 61.61 110.34 60.145 160.096 116.487 49.756-56.195 102.439-54.878 160.097-116.487l3.366 18.585c93.658-56.488 111.365-142.682 111.365-142.682l12.44 12.439c30.584-41.561 37.023-129.365-28.098-218.78" style="fill:#12173f"/><path d="M360.73 541.574c-59.414.146-51.658-13.17-51.658-13.17 6.731-4.098 51.658-4.83 51.658-4.83a181 181 0 0 1 48.585 5.854c-.439 1.61 7.902 11.853-48.585 12.146m-56.78-22.682a369 369 0 0 1 39.804-7.464l16.39-.878v-24.146c0-1.903-13.463-20.05-23.853-28.976-7.463-6.439-14.488 13.902-14.488 13.902-43.902-55.609 38.342-49.17 38.487-49.316V320.599s-22.829 4.83-51.072-18.877c-2.634-2.196-5.415-4.537-8.488-6.879a207 207 0 0 0-34.537-22.39 32.8 32.8 0 0 0-17.853-4.39s6.732 49.756 48.146 40.83c-11.122 28.097-34.39 106.39 7.464 209.999m56.487-96.732c8.78.439 74.927.878 38.488 49.17 52.39-53.121-33.073-50.048-38.488-49.17M421.9 295.283c-.731.732-1.317 1.17-1.902 1.756a169 169 0 0 1-20.634 15.073c6.097.324 12.21.226 18.292-.293 16.244 30 39.951 110.634 2.927 207.804.44-.439 60.146-82.097 13.025-208.974 37.17-.586 41.56-42.44 41.56-42.44a75.6 75.6 0 0 0-18 4.537 120.2 120.2 0 0 0-35.268 22.537m31.024-100.244c-16.243 17.854-21.219 51.22-21.219 51.22s35.707-15.512 60-10.683a135.7 135.7 0 0 1 47.268 18.585s-45.366-14.195-87.805 2.195c-42.438 16.537-53.853 58.244-82.536 39.805l-8.634-117.804-7.902 117.804c-28.683 18.439-40.098-23.415-82.536-39.805-42.44-16.39-87.658-2.195-87.658-2.195a96.7 96.7 0 0 1 45.658 7.902c5.122 46.098 32.488 50.195 32.488 50.195-28.098 106.097 28.682 207.365 37.61 222.877 13.17 22.83 62.486 18.732 62.486 18.732v51.073c-1.17-9.22-38.926-27.951-45.658-31.171-71.121-31.024-131.706-104.048-131.706-104.048l-3.513 26.341c-57.95-33.805-80.487-141.219-80.487-141.219l-15.805 19.61c-29.414-98.487 48.878-178.243 48.878-178.243-8.195-14.488-32.927-69.805 14.341-93.804 47.268-24 80.78 34.243 80.78 34.243 57.512-15.073 133.17 11.561 133.17 11.561 80.488-34.829 134.488-9.512 134.488-9.512 37.609-64.243 91.755-28.683 91.755-28.683-58.975-11.56-78.146 36.439-78.146 36.439-9.658 29.853-41.268 33.22-55.317 48.585m-242.34-51.804s-35.56-44.634-64.975-15.366c0 0 23.707-.878 34.976 12.878 0 0-29.708-12.732-42.878 13.17 0 0 14.634-7.463 22.975 1.171 0 0-20.341 15.805-18.585 31.902 0 0 36.878-36.585 68.487-43.755" style="fill:#5d76a9"/><path d="M266.194 272.6a207 207 0 0 1 34.536 22.39c-4.536-1.463-12 3.22-16.244 11.415-14.048-4.098-18.878-19.317-18.292-33.805m190.974.146a120.2 120.2 0 0 0-35.268 22.537c4.537-2.195 12.586 2.487 16.976 11.122 14.048-3.952 18.878-19.171 18.292-33.659" style="fill:#fb2"/></svg>