<svg xmlns="http://www.w3.org/2000/svg" xml:space="preserve" width="720" height="720" viewBox="0 0 720 720"><path d="M683.978 229.319v.005c-.107-2.42-.567-3.859-.567-3.859l-.007-.013c-2.942-10.286-13.448-16.637-27.752-16.637-1.52 0-3.067.075-4.596.23-10.958 1.086-30.45 7.686-36.233 9.71-18.168-4.592-35.195-6.826-52.002-6.826-8.688 0-17.33.614-25.947 1.818l.013-.005-3.556.478s-1.382-4.499 2.234-15.002c1.876-5.45 4.45-10.458 4.45-10.458s-39.562 20.561-44.502 13.996c-4.94-6.563 17.18-58.741 17.18-58.741s-38.134 42.375-45.624 40.494c-2.94-.737-3.22-16.084-3.363-32.601-.199-22.367.58-47.948.58-47.948s-31.404 78.075-39.065 77.667c-6.644-.353-16.31-42.025-16.31-42.025s-6.065 35.911-16.965 40.303c-10.897 4.392-38.934-62.764-38.934-62.764s-1.296 67.219-9.092 68.726-32.625-23.613-32.625-23.613 11.64 33.481 7.697 37.894c-2.354 2.631-26.234-12.133-51.075-29.951-14.352-10.294-26.352-18.924-26.352-18.924s14.002 23.255 25.134 47.564c7.666 16.734 12.314 32.797 10.31 35.922-4.914 7.668-41.79-3.261-41.79-3.261s20.96 20.19 19.608 25.393c-.655 2.523-21.5.7-42.68-2.198-22.47-3.072-45.33-7.307-45.33-7.307s74.824 43.503 72.475 51.33c-1.857 6.196-48.426 1.122-48.426 1.122s40.486 18.498 40.325 24.611c-.162 6.114-79.254 26.124-79.254 26.124s71.632 14.984 72.999 22.971c1.369 7.992-28.249 33.62-28.249 33.62s34.485 3.114 36.196 7.632c1.714 4.514-8.38 22.351-17.139 25.178-10.827 3.496-20.682 5.717-32.684 5.717-1.727 0-3.413-.05-5.064-.139a47 47 0 0 0 1.69-2.315c2.953-4.324 5.153-8.943 6.35-13.35l.013-.047.01-.047c.614-2.422.93-4.834.94-7.167v-.1l-.002-.101c-.084-2.655-.946-4.915-2.51-6.456-2.935-2.558-5.668-2.25-7.63-1.38l-6.803 3.337c-.504.222-1.077.439-1.769.645-1.304.392-4.047.857-9.737.857-5.396 0-11.818-.4-18.025-.789 0 0-3.812-.214-4.552-.214-7.407 0-12.352 2.356-15.33 4.517l-1.62-.854c-15.152-8.045-32.785-11.3-43.792-13.335-.857-.16-1.672-.3-2.443-.455-12.162-2.383-18.819-9.602-19.36-10.184-1.032-1.116-2.372-2.558-4.122-3.57 0 0-3.164-1.974-7.857-.53-3.06 1.077-4.353 3.462-4.353 3.462-2.623 4.358-.12 10.751 3.18 17.968 3.755 8.198 15.522 28.669 43.687 41.737 9.22 4.282 21.353 7.331 36.057 9.058 11.068 1.302 20.413 1.466 24.139 1.471 3.587 1.746 14.623 6.846 31.033 11.977 18.017 5.628 46.169 12.324 78.422 12.473 0 0 11.447.146 17.628-.248.622 2.576-3.85 11.788-9.222 22.589-6.365 12.794-14.535 27.932-14.535 27.932s14.76-13.043 28.512-22.71c13.845-9.734 29.351-17.552 33.02-13.045 6.926 8.515-.466 43.653-.466 43.653s27.967-24.75 34.451-21.395c2.968 1.534 3.266 20.026 3.28 39.506.015 23.083-.584 47.598-.584 47.598s38.524-77.947 46.54-75.718 16.787 37.766 16.787 37.766 14.636-43.297 23.576-42.247c3.577-.439 11.259 13.604 18.085 27.958 7.48 15.731 13.892 31.112 13.892 31.112s.157-16.075 1.278-32.504c1.013-14.843 2.897-29.333 6.158-30.135 6.874-1.69 26.811 25.027 26.811 25.027s-7.049-37.241-1.526-40.395c5.52-3.156 71.878 54.211 71.878 54.211s-43.543-80.685-38.247-86.845c5.296-6.161 51.801 6.406 51.801 6.406s-6.929-8.183-12.86-17.43c-6.194-9.664-11.36-20.467-8.935-23.064 2.205-2.36 26.454.097 51.504 4.953 28.883 5.605 47.676 9.6 47.676 9.6s-17.014-9.208-42.1-24.304c-21.722-13.071-40.834-27.783-40.016-30.168 1.758-5.145 53.638-10.077 53.638-10.077s-8.705-5.121-18.064-10.843c-10.155-6.21-21-13.941-21-16.774 0-2.474 13.008-8.606 30.165-13.883 20.57-6.326 39.598-10.566 39.598-10.566s-70.725-5.677-75.146-15.76c-3.015-6.89 2.524-15.866 6.584-21.67 4.063-5.802 9.873-11.064 9.873-11.064 19.324-17.842 43.917-34.27 51.773-39.101.557-.343 1.087-.68 1.628-1.02 0 0 18.14-13.392 20.005-14.96 1.625-1.36 5.774-5.716 6.707-11.255 0 0 .326-1.528.22-3.971" style="fill:#fff"/><path d="M553.415 444.53c-3.527 7.157 5.643 29.286 14.033 35.87-6.14-1.829-38.2-10.944-43.345.917-5.646 13.035 25.683 60.9 29.234 69.86-14.446-14.343-54.028-46.479-59.622-42.821-5.62 3.684-4.232 21.607-2.77 30.699-5.434-6.61-14.758-17.218-22.834-14.056-8.07 3.187-7.08 33.938-7.574 47.054-6.665-15.417-17.534-46.456-27.567-45.33-10.056 1.12-21.32 22.257-23.459 30.33-1.544-8.096-8.125-25.862-18.054-25.862-9.954 0-33.076 47.028-40.078 62.312-.026-11.835 2.796-69.523-3.449-72.371-6.27-2.874-27.433 10.294-31.979 16.277 1.672-7.58 3.11-33.207-2.534-36.293-5.644-3.109-21.727-4.076-50.814 22.809 4.828-10.32 12.78-21.529 14.712-32.424 12.044-.627 23.979-1.985 35.997-4.337 26.258 18.997 58.522 30.205 93.377 30.205 88.1 0 159.479-71.404 159.479-159.48 0-6.903-.445-13.701-1.28-20.36a4609 4609 0 0 0 16.851-15.972c-1.202 2.887-1.881 6.37-1.78 10.66.37 13.445 35.196 16.318 53.694 17.813-20.666 2.803-56.8 17.764-49.928 25.81 6.871 8.019 26.884 19.047 29.706 20.43-9.537 0-40.889 3.265-44.39 12.148s45.383 38.665 63.282 45.667c-22.262-6.268-75.378-16.718-78.908-9.554M406.692 198.417c32.293 0 62.315 9.602 87.446 26.083 11.104-4.142 21.869-7.138 32.293-9.184-.682-4.217-.13-8.705 2.43-14.315-9.144 7.543-32.63 14.258-39.4 7.849-6.792-6.41 4.602-33.181 10.425-44.254-9.617 11.44-26.545 31.864-36.786 27.825-10.268-4.029-3.32-52.52-4.337-61.98-6.616 19.127-24.818 61.44-34.33 59.955-7.734-.744-13.85-21.008-15.183-28.893-1.591 7.346-5.563 24.593-17.192 26.275-11.597 1.69-27.407-26.153-34.04-46.641-.993 36.564-7.16 52.74-12.045 52.841-9.771.204-17.348-9.416-25.03-16.614 3.815 6.156 9.25 24.813 2.117 30.592-7.106 5.777-54.827-28.167-65.275-38.59 11.765 17.341 32.784 58.25 26.589 68.521-6.195 10.276-27.833 5.82-31.621 3.974 2.471 2.043 17.442 19.323 4.598 22.11-17.257 3.734-64.457-7.278-66.981-7.874 11.292 4.068 60.852 33.406 57.748 44.672-2.712 9.826-22.835 6.456-30.775 6.351 7.086 3.326 23.94 10.093 21.897 19.624-2.035 9.536-49.435 20.248-64.073 23.331 16.588 3.68 58.545 10.224 59.158 22.995.615 12.802-25.698 30.49-25.698 30.49s23.37 1.07 28.392 3.788c7.358 3.974 1.698 18.89-4.812 26.65 8.906-4.129 17.601-9.459 26.672-16.173-7.511-18.498-11.652-38.746-11.652-59.935-.003-88.074 71.392-159.473 159.465-159.473" style="fill:#fc4c02"/><path d="M161.15 445.23c-15.295-2.952-33.202-13.35-38.757-16.512 1.905-1.855 6.595-5.196 15.483-4.647 12.204.757 25.69 1.724 32.005-.16 5.424-1.62 6.456-3.995 8.776-4.309h.011c6.699 8.179-18.028 24.926-17.519 25.605zm517.13-217.513h-.026c-5.67-8.899-59.571 8.998-74.88 15.167-4.18 1.682-29.81 13.238-55.99 28.193l-.025.008c-.055.023-.183.076-.369.17-15.493 5.406-45.774 22.048-57.27 32.82-27.224 25.421-33.364 58.093-72.057 105.835-17.218 21.24-32.082 36.133-43.839 45.902-7.5 6.322-14.085 10.79-18.918 13.35a4 4 0 0 1-.235-1.044 3.3 3.3 0 0 1-.052-.549c0-4.259 5.382-14.396 9.223-22.47 2.586-5.433 4.362-9.9 4.362-9.9 5.955-14.79 9.12-28.897 10.007-33.104 1.333-5.33 4.808-20.407 4.808-20.407s-62.209 55.887-126.702 74.594c-21.965 6.373-45.628 11.549-63.256 11.938 0 0-15.112-.654-16.115-.967-15.313-2.558-33.544-9.638-49.584-26.751a155 155 0 0 1-6.16-5.12c.632.652 8.083 11.727 17.12 19.67-2.87.209-7.754.917-23.117-1.278-53.742-7.629-70.662-49.715-71.103-54.76v-.001c2.824-.813 4.726 2.742 7.205 4.856 2.48 2.119 8.834 7.734 20.453 9.902 11.618 2.195 33.275 5.644 49.6 16.121h.012c13.455 8.073 47.056 35.506 106.699 12.149 27.49-10.738 52.057-32.27 88.56-68.4 5.93-5.853 11.809-12.01 17.792-18.36-.836-4.282-3.188-12.026-8.335-15.227-7.994-4.997-20.117-5.194-28.112-4.608-8.01.595-12.23 1.69-14.96-.5-1.189-.947-1.255-2.502-.604-4.266 5.035-6.13 13.918-13.933 36.779-16.94 28.896-3.799 38.223 2.764 59.258-4.251 4.154-4.206 9.011-8.59 12.8-12.008 8.755-7.932 18.157-15.838 28.373-23.6a392 392 0 0 1 33.364-22.744c64.797-39.425 117.597-38.124 162.09-26.57 0 0 24.377-8.779 36.523-9.986a40 40 0 0 1 4.497-.199c10.427.12 20.094 4.363 22.184 13.335m-74.932 3.72c-.028-.083-.107-.127-.182-.148-.653-.14-2.796 1.142-7.083 2.173-4.884 1.182-16.928 1.552-22.049 1.552-5.147 0-12.41-.76-23.566 4.107-7.997 3.493-13.38 10.485-15.784 14.171-2.897 4.087-6.424 11.337-6.66 11.794 5.564-8.193 22.99-15.111 33.312-18.62.026.039.026.083.052.123 0 0 5.955-1.91 10.167-3.185 9.144-2.268 14.785-3.812 20.954-6.339 8.436-3.454 11.127-4.977 10.84-5.627M491.683 392.194c-2.378 30.046-8.466 44.311-8.416 47.08.055 1.544.496 3.057 1.675 3.763 7.106-5.147 20.588-18.55 30.83-37.962 8.595-16.33 15.62-35.611 20.193-49.733-7.914 7.125-15.885 14.099-23.642 20.55a508 508 0 0 1-20.64 16.302" style="fill:#008e97"/><path d="M193.063 468.22c17.628-.39 41.292-5.565 63.256-11.938 64.494-18.707 126.705-74.594 126.705-74.594s-3.475 15.051-4.807 20.407c-23.125 15.546-59.285 37.49-96.061 50.921-44.983 16.85-85.944 15.259-89.093 15.204m126.128-154.478c28.896-3.796 38.226 2.76 59.258-4.256 4.151-4.203 9.011-8.583 12.8-12.003-5.957 1.913-10.556 3.05-14.893 3.818-9.85 1.944-16.982 1.434-37.413 4.117-32.084 4.222-47.091 14.281-51.3 18.166-1.27 1.17-2.242 2.19-3.577 4.047-.917 1.278-1.562 2.788-1.664 3.062 5.042-6.134 13.928-13.94 36.789-16.95m242.328-70.992c-.574.845-1.018 2.033-.496 3.201 0 .018.03.036.03.052.077.157.155.311.262.465l.076.118s5.955-1.907 10.166-3.18c9.145-2.27 14.814-3.814 20.954-6.338 8.439-3.452 11.13-4.978 10.843-5.628-.029-.083-.107-.13-.21-.149-.626-.133-2.772 1.142-7.056 2.174-4.883 1.18-16.928 1.55-22.049 1.552-5.146 0-12.41-.763-23.566 4.107-7.997 3.49-13.35 10.487-15.783 14.171.78-1.076 1.484-1.936 2.087-2.39 0 0 8.123-9.374 24.742-8.155m-391.1 203.212c.037-.026 2.913-3.292 4.659-5.852 2.879-4.206 4.664-8.309 5.583-11.679.502-1.986.76-3.919.77-5.826-.082-2.665-1.381-3.057-2.184-3.057-.266 0-.477.054-.572.054 6.699 8.179-18.027 24.926-17.518 25.605v.026c.829.16 2.825.497 4.7.68 1.872.18 4.087.075 4.562.05m502.082-214.88c-4.413-.015-12.512 2.046-25.392 6.404-.081.029-.134.042-.21.068-1.75.598-3.581 1.228-5.512 1.905-60.615 21.283-119.217 87.906-195.064 145.44l.55-.889c22.52-33.894 30.28-58.699 53.01-79.942 11.73-11.188 29.707-22.867 47.447-32.99-.029.022-.157.075-.34.17-15.493 5.405-45.774 22.048-57.296 32.82-27.198 25.421-33.34 58.093-72.031 105.834-17.218 21.24-32.11 36.133-43.84 45.902-7.5 6.322-14.084 10.79-18.943 13.351.052.104.653 2.142 2.377 2.587 2.796.705 13.328-4.602 26.752-15.94.081-.026 25.865-12.251 38.2-18.995 14.498-7.892 38.403-22.808 43.63-26.257 0-.029.025-.029.025-.029 9.328-6.191 25.816-18.288 25.816-18.341a524 524 0 0 0 20.64-16.303c7.757-6.453 15.728-13.426 23.642-20.549-4.572 14.122-11.598 33.404-20.193 49.733-10.242 19.415-23.724 32.818-30.83 37.962 2.27 1.437 5.67-.708 6.036-.915 5.852-3.19 22.338-17.19 33.39-39.607 15.78-31.98 22.39-56.581 22.518-57.028 1.28-1.178 52.178-49.22 52.881-49.87 19.049-17.6 43.843-34.373 52.75-39.844 9.275-5.722 14.918-10.05 18.234-12.956 3.347-2.905 4.337-4.374 4.337-4.374v-.013c.504-.901 1.863-3.422 1.599-5.113-.236-1.458-1.541-2.21-4.183-2.22M363.813 445.1h.029c2.583-5.434 4.362-9.902 4.362-9.902-21.084 11.182-54.76 25.5-85.23 32.659-60.006 14.056-98.438 1.855-105.022-.288l-.863-.285-.067-.029h-.01c-.03 0-.045 0-.066-.026-15.313-2.534-33.545-9.614-49.584-26.725a155 155 0 0 1-6.155-5.12c.632.653 8.078 11.728 17.115 19.67-2.87.21-7.754.918-23.117-1.277-53.745-7.658-70.665-49.72-71.103-54.762-.538.157-1.03.31-1.43.575h-.008c-.13.078-.26.18-.373.284-1.33 1.203-1.124 4.102 3.057 13.247 5.62 12.28 18.526 28.583 40.967 39.007 20.514 9.536 51.754 10.006 58.069 10.006h1.086s52.94 27.382 120.215 24.223c.15-.026 40.05.888 88.986-18.236a3.6 3.6 0 0 1-.052-.55c0-4.26 5.382-14.398 9.194-22.471" style="fill:#005778"/></svg>