<svg xmlns="http://www.w3.org/2000/svg" xml:space="preserve" width="720" height="720" viewBox="0 0 720 720"><path d="M601.038 161.129C584.504 79.776 518.371 55.352 515.74 54.412c-.94-.375-2.254-.563-3.194-.563-3.382 0-6.576 1.69-8.266 4.885-.94 2.066-1.128 4.697-.564 6.951-21.982-18.412-42.837-26.491-51.48-29.121A7.5 7.5 0 0 0 449.42 36c-3.57 0-6.764 2.255-8.455 5.636-2.255 4.134-.564 9.394 3.57 11.837 20.103 12.024 37.2 28.37 50.352 47.158-15.97-3.758-26.68-4.133-30.25-4.133h-1.878c-4.697.375-8.455 3.945-8.83 8.642-.376 4.885 2.442 9.206 7.14 10.146.187.188 25.927 6.388 54.86 27.054 5.449 16.534 8.267 33.443 8.267 51.104 0 33.067-10.521 67.261-28.934 93.376-4.509 6.2-8.642 11.65-13.34 16.534 1.88-34.006-8.266-87.177-69.703-111.601-1.127-.376-2.442-.564-3.57-.564-3.57 0-6.763 2.067-8.454 5.261-2.255 4.321-.752 9.582 3.57 12.212l.563.376c9.582 6.2 17.66 14.279 23.673 23.297-6.576-2.066-12.588-2.63-16.346-3.194h-1.69c-3.946 0-7.328 2.63-8.83 6.2-1.692 4.134.187 8.643 3.757 11.085 0 0 .376.376.563.376 19.54 11.273 30.437 24.424 32.504 39.267 2.067 15.97-6.952 31.376-13.152 39.83-16.534-18.975-27.43-51.667-30.437-64.067-.939-4.32-4.697-7.139-9.018-7.139h-1.127c-4.697.564-8.267 4.51-8.267 9.394 0 40.206 10.71 67.449 21.794 85.11-16.909 8.454-32.879 9.018-36.448 9.018h-2.068c-3.757 0-19.915-.564-36.448-8.83 11.085-17.849 21.794-45.28 21.418-85.298 0-4.697-3.381-8.83-8.266-9.394h-1.128c-4.133 0-8.079 2.818-9.018 7.14-3.006 12.587-13.715 45.09-30.06 64.255-6.389-8.455-15.407-23.673-13.34-39.831 1.878-14.843 12.775-28.182 32.315-39.455 0 0 .188-.188.376-.188l.376-.188c3.382-2.254 5.26-6.951 3.57-11.085-1.316-3.757-5.073-6.2-8.831-6.2h-1.127l-.564.188c-3.945.564-9.582 1.127-16.346 3.194 5.825-9.206 13.904-17.473 23.485-23.485l.564-.376a9.3 9.3 0 0 0 3.57-12.212c-1.503-3.194-5.073-5.073-8.455-5.073-1.127 0-2.442 0-3.57.564-61.436 24.8-71.018 77.97-69.14 111.977-4.509-4.885-8.83-10.334-13.34-16.534-18.411-26.115-29.12-60.122-29.308-93.189 0-17.472 2.442-34.757 7.89-51.103 28.558-20.479 54.486-27.243 54.674-27.243 4.509-1.315 7.703-5.448 7.14-10.145-.376-4.697-4.134-8.08-8.831-8.455h-1.879c-3.758 0-14.467.752-30.249 4.321 12.964-18.788 30.25-35.321 49.976-47.533 3.946-2.255 5.637-7.328 3.57-11.837-1.69-3.382-5.072-5.448-8.642-5.448q-1.41 0-2.819.563c-8.83 2.818-29.497 10.897-51.29 29.497.75-2.066.375-4.697-.752-6.951-1.504-3.006-4.885-4.885-8.267-4.885-1.128 0-2.255.188-3.194.564-2.63 1.127-68.577 25.927-84.546 107.655-14.467 74.025 27.806 126.256 74.588 168.153-3.006.564-5.824 1.879-7.89 4.321-2.443 3.007-3.57 7.14-3.007 11.65l1.503 10.708c1.127 9.582 6.576 41.522 26.867 52.607 4.885 2.63 11.837 5.26 32.128 6.763l21.418 1.504-2.255 7.327a8.59 8.59 0 0 0 .94 7.703l15.594 24.8c-.188.564-.564 1.503-.751 2.067l-33.631 121.37c-1.127 3.758.188 7.516 3.006 9.958L361.114 684l114.044-92.813c2.818-2.442 3.946-6.388 3.006-9.958l-34.57-121.183c-.188-.563-.376-1.503-.751-2.066l15.594-24.988c1.315-2.255 1.69-5.073.94-7.704l-2.256-7.327 21.607-1.69c20.29-1.692 27.242-4.322 32.127-6.952 20.292-11.085 25.364-43.213 26.491-52.795l1.128-10.709c.375-4.321-.564-8.642-3.194-11.649-2.067-2.442-4.885-3.945-7.891-4.32 46.594-42.274 88.68-94.88 73.65-168.717" style="fill:#ede0c5"/><path d="M591.456 163.947c-15.782-77.22-79.286-99.953-79.286-99.953 23.486 16.91 47.159 49.225 56.928 94.88-9.582-11.649-18.6-20.48-28.933-27.619-25.928-55.424-69.892-77.594-91.498-84.546 28.182 16.91 51.48 41.898 65.758 70.831-32.503-11.46-52.043-10.333-52.043-10.333s29.122 7.14 59.934 30.06c6.388 17.661 9.958 36.637 9.958 56.74 0 35.134-11.085 71.207-30.437 98.826-10.709 15.594-21.23 26.303-34.57 36.26 4.321-11.084 20.667-95.818-59.558-127.758l.563.376c19.352 12.024 33.068 31.188 38.892 53.546-14.467-13.904-30.061-15.407-38.14-16.346 0 0 .188.188.376.188 74.4 42.837 15.594 101.08 15.594 101.08-23.485-19.54-37.2-63.316-40.207-75.528 0 46.406 15.595 74.4 26.116 87.928-23.86 16.345-50.728 15.406-50.728 15.406s-26.867.94-50.916-15.406c10.522-13.716 26.116-41.522 25.552-88.116-2.818 12.024-16.345 56.364-39.83 75.903 0 0-59.183-58.055 15.03-101.08 0 0 .188-.187.376-.187-8.079.94-23.673 2.442-38.14 16.533 5.637-22.545 19.54-41.521 38.328-53.921l.563-.376c-80.037 32.315-63.315 116.862-58.806 127.947-13.152-9.958-23.673-20.667-34.758-36.074-19.728-27.43-31-63.503-31.188-98.637-.188-19.915 3.382-39.079 9.394-56.928 31.564-23.297 60.497-30.436 60.497-30.436s-19.352-.94-51.667 10.709c14.091-29.122 37.388-54.485 65.383-71.395-21.419 7.14-65.195 29.498-90.935 85.11-10.333 7.328-19.164 16.158-28.745 27.994 9.581-45.467 33.254-77.594 56.552-95.067 0 0-63.504 23.11-78.722 100.328-17.661 89.807 54.485 146.171 112.54 193.705l-44.34-17.849c-3.006-1.127-5.26 1.691-4.697 5.073l1.503 10.897c.564 6.012 5.073 36.637 21.794 45.655 3.57 2.067 9.77 4.133 28.183 5.636l33.442 2.067-5.448 18.6 32.503 52.231-16.721-17.66-33.63 121.37 93.752 76.655L317.526 529l43.589 53.545 43.588-53.17-28.746 132.456 93.189-77.219-34.57-121.183-16.534 17.661 32.504-52.419-5.637-18.6 33.067-2.254c18.225-1.503 24.613-3.758 28.182-5.825 16.91-9.018 21.231-39.83 21.795-45.655l1.127-10.897c.375-3.382-1.691-6.576-4.697-5.073l-44.152 18.225c57.679-48.473 129.45-104.837 111.225-194.644m-40.582-3.382c2.63 3.194 5.448 6.2 8.079 9.394 25.364 32.315-11.273 90.37-11.273 90.37s13.715-62.752 3.194-99.764m-389.476 10.897c2.442-3.57 5.26-6.576 7.89-9.394-10.145 36.824 3.758 99.389 3.758 99.389s-36.637-57.868-11.648-89.995" style="fill:#00471a"/><path d="M361.114 518.477h18.976l-9.018 12.4h-19.915l-9.018-12.4zm-30.436-110.661c-4.885-2.255-13.715-6.2-22.734-10.334-1.878-.751-3.757.376-4.133 2.255-.752 3.945-.564 9.957 4.697 13.903 10.146 7.703 18.412 3.382 22.922-.94 1.69-1.69.939-3.757-.752-4.884m-108.22-17.661c7.704 4.321 26.492 3.57 43.025 4.885-18.412-6.952-45.091-26.304-57.867-38.328 0 0 3.194 27.055 14.843 33.443m233.912 4.321c16.346-1.503 35.134-.94 42.837-5.26 11.273-6.2 14.279-33.443 14.279-33.443-12.4 12.212-39.08 31.564-57.116 38.703m-42.273 2.818c-8.83 4.134-17.849 8.267-22.734 10.334-1.879.94-2.442 3.194-.94 4.885 4.698 4.509 12.965 8.642 22.922.939 5.26-4.133 5.26-10.146 4.885-13.903-.375-1.879-2.442-3.006-4.133-2.255M380.09 446.52l-8.83-28.746-10.145 4.885-10.146-4.885-8.642 28.746c-.188.376-3.007 11.836-15.595 19.727l-5.26 23.673 13.34 17.661h13.902l-12.963-18.976 2.066-11.648c5.825 6.2 14.28 10.145 23.485 10.145 9.207 0 17.661-4.133 23.485-10.333l2.067 11.648-12.964 18.976h13.904l13.151-17.848-5.448-23.673c-12.588-7.891-15.407-19.352-15.407-19.352" style="fill:#fff"/></svg>