<svg xmlns="http://www.w3.org/2000/svg" xml:space="preserve" id="Layer_1" width="720" height="720" x="0" y="0" version="1.1" viewBox="0 0 720 720"><style>.st0{fill:#fff}</style><path d="m620.91 462.371.016.004c-1.413-8.552-9.162-16.04-15.208-17.39-.429-.089-.984-.203-1.594-.354 1.573-5.667 2.335-10.185 2.717-13.353 3.484-1.594 7.552-3.247 9.302-3.946l5.948-2.406-1.182-6.285c-2.457-12.99-9.255-23.73-13.146-29.027 1.397-4.43 2.225-7.303 2.225-9.751 0-4.99-4-10.08-11.859-15.145-.63-.404-1.346-1.548-1.346-6.962 0-.089-.088-5.17-1.418-10.336 4.274-2.9 9.613-7.661 12.247-15.074a78.2 78.2 0 0 0 3.996-17.904c.202-2.09-.093-7.101-.093-7.101l-.799-9.659s-4.85 3.862-7.543 5.932c-.723.538-1.266.946-1.56 1.123-.38.29-.804.564-1.208.808-1.981 1.19-4.177 2.132-5.12 2.629-2.12 1.144-5.33 2.36-8.855 3.344-5.073-26.263-23.676-72.206-68.647-112.734-54.113-48.75-143.457-57.781-147.24-58.164l-8.38-.787s-.172 12.557-.963 16.13l-.088.403c-.29 1.729-.627 3.37-1.035 4.897-10.172-6.357-17.273-12.806-20.71-18.893-6.357-11.232-8.422-21.543-10.404-31.497-1.392-7.059-2.743-13.752-5.481-20.222-7.232-16.987-17.635-31.475-30.912-43.044-2.402-2.066-4.85-4.224-8.624-4.224-1.506 0-3.753.383-6.024 2.2-1.616 1.325-6.47 6.222-1.056 14.245.088.134 8.923 16.288 12.22 39.43 1.103 7.615 1.326 17.004 1.574 26.937.492 20.108 1.077 42.863 9.028 60.12 3.504 7.572 8.022 14.379 12.738 20.285.471.585 2.268 2.473 2.583 2.856a143 143 0 0 0 2.453 2.785c-8.696-.74-16.155-3.033-23.571-7.19l-.316-.18c-22.822-11.498-40.348-38.413-43.583-66.99l-.433-3.727c-.606-5.052-.652-10.176-.72-15.59-.02-3.076-.066-6.243-.201-9.437a187 187 0 0 0-2.65-24.105c-.581-3.37-1.296-6.76-2.087-10.088l-.067-.248c-.425-2.448-1.103-4.762-1.662-6.626a94 94 0 0 0-1.325-4.202 47.7 47.7 0 0 0-4.653-9.979c-2.562-4.156-4.99-7.412-7.614-10.265-2.066-2.246-4.094-4.068-6.155-5.527l-.315-.202c-.875-.585-3.256-1.885-6.222-1.885a9.5 9.5 0 0 0-4.447 1.077l-.88.539c-3.436 2.427-5.502 7.753-2.401 14.13l.29.539c.067.113.227.429.429.875.181.429.358.942.538 1.502.156.496.27 1.055.404 1.821 1.035 5.55 2.003 18.784-3.033 45.337l-.269 1.372c-.564 4.72-1.056 8.291-1.62 11.615-2.158 12.713-4.425 27.879-4.808 44.1 0 .492.021 1.527.042 2.381l.025.766c-.113 10.74 1.528 103.812 93.392 136.103l.067.021-.29.114c-4.177 26.755-4.472 43.246-4.203 51.29a443 443 0 0 0-58.252 27.925c-29.296 16.04-56.48 36.019-80.809 59.333a434 434 0 0 0-14.4 14.51 188 188 0 0 0-3.188 3.394l-.316.337c-12.048 12.965-22.923 26.482-32.338 40.196-.29.42-1.144 1.792-1.48 2.604-1.078 2.465-2.226 7.21.02 9.705 1.347 1.502 3.997 2.785 9.011.648.248-.076 1.212-.45 1.574-.652.967-.538 2.406-1.439 2.877-1.8 30.42-23.273 100.283-36.125 120.686-37.315 17.097-1.01 34.058-3.509 40.348-4.493 3.416 1.628 10.088 4.43 17.614 6.087 3.188.699 6.63 1.06 10.243 1.06a61 61 0 0 0 8.603-.63c5.213 16.473 15.595 27.777 20.984 32.83-.337 9.928 1.35 28.556 8.784 40.633 6.066 9.907 14.737 17.484 19.566 21.262 0 4.74.404 12.36 2.785 18.804 2.111 5.772 5.683 11.005 8.333 14.446-1.034 2.769-2.065 6.429-2.317 10.543-.286 4.627.79 8.355 2.137 11.135-1.166 2.116-2.268 4.649-2.697 7.19-.589 3.483.13 7.278.947 10.07-.804 1.776-1.666 4.044-2.137 6.206-.627 3.096-.11 6.197.538 8.51-2.402 6.984-5.031 20.896 3.891 28.422 2.697 2.267 5.932 3.458 9.344 3.458 6.853 0 12.422-4.876 15.102-7.707 3.976-1.864 8.734-5.511 11.439-9.688a25.9 25.9 0 0 0 3.53-8.527c1.795-1.801 4.084-4.544 6.15-8.473 1.754-3.328 2.54-6.184 2.885-8.338 3.888-4.649 12.49-16.062 16.214-30.28l.875-3.934c.088-.467.18-.964.248-1.49 2.04-12.89.387-24.938-.665-30.554 3.033-5.44 8.982-17.812 9.705-32.17 6.58-4.383 18.06-11.459 32.078-17.811.542 8.586.702 17.412-1.906 30.802-3.214 16.352-15.145 29.881-21.14 35.809-2.086 2.04-7.236 7.888-7.236 7.888s-1.977 1.661-1.59 5.052c.017.206.177.791.333 1.216.071.151.425.669.589.8 2.852 2.767 10.69 1.758 10.69 1.758 33.763-3.618 56.636-31.99 66.362-55.43 6.062-14.606 11.544-34.087 14.808-45.968 19.562-3.55 37.672-5.33 49.965-6.541 5.481-.543 9.818-.964 12.67-1.414 7.476-1.102 21.413-3.193 22.289-16.398.269-4.215-.366-10.635-1.96-20.23" class="st0"/><path d="m613.21 463.444.005-.013c-.9-5.506-6.42-10.428-9.192-11.03-2.76-.61-9.819-2.448-9.819-2.448 5.213-14.708 5.213-23.929 5.213-23.929 4.606-2.448 13.79-6.13 13.79-6.13-3.059-16.267-14.11-28.841-14.11-28.841.92-3.374 3.07-9.192 3.07-11.346s-3.996-5.818-8.29-8.578c-4.296-2.764-4.898-7.665-4.898-13.504 0-5.818-2.448-13.188-3.37-13.504-.925-.29 10.938-4.042 14.628-14.488 3.685-10.424 3.769-18.897 3.769-18.897-4.897 7.143-24.088 10.088-24.088 10.088-1.523-16.26-14.577-68.715-67.335-116.256-52.732-47.546-142.616-56.144-142.616-56.144.135 2.65-.202 5.792-.98 9.255-.749 4.472-2.045 9.751-4.312 14.021-.135.248-.315.56-.492.854-12.406-6.718-25.435-15.75-31.413-26.31-11.568-20.445-10.13-38.034-16.263-52.454-10.042-23.618-24.53-36.444-28.846-40.197-2.466-2.158-3.303-2.877-4.582-1.843-1.257 1.01-.424 2.47.61 4.001.964 1.439 9.996 18.847 13.365 42.485 3.37 23.613-1.102 60.881 9.954 84.81 6.874 14.896 18.24 26.688 25.86 33.474.269.223.538.47.786.698l2.47 2.448c-15.772 1.485-30.441.922-46.032-7.841-25.069-12.625-44.306-41.989-47.832-73.06l-.424-3.732c-.993-8.519-.594-17.033-.972-25.569a176 176 0 0 0-2.541-23.12 151 151 0 0 0-2.087-10.021c-.02-.047-.02-.068-.02-.11-.337-2.023-.922-4.021-1.507-5.999-.383-1.304-.808-2.604-1.237-3.933-.988-2.894-2.263-5.683-3.908-8.334-1.977-3.189-4.152-6.293-6.693-9.053-1.506-1.64-3.126-3.189-4.943-4.472 0 0-1.683-1.056-2.831-.45 0 0-1.502 1.056.088 4.337 0 0 .404.652.875 1.776.27.626.56 1.413.829 2.313q.371 1.214.61 2.63c1.258 6.74 2.158 21.252-3.168 48.955l-.042.088c-.471 4.022-.988 8.043-1.687 12.04-2.2 12.965-4.333 27.677-4.695 42.956 0 .673.089 2.65.068 3.054-.16 13.592 2.448 102.693 94.578 130.757-.43 1.91-.833 3.752-1.124 5.528-6.222 39.291-3.933 55.85-3.933 55.85s.021.16.047.404c-18.847 7.1-40.168 16.671-62.636 29.523-25.14 13.769-52.413 32.51-79.106 58.08a413 413 0 0 0-14.151 14.286 320 320 0 0 0-3.235 3.42c-.047.088-.135.156-.202.223-14.085 15.162-24.711 29.141-32.418 40.508 41.63-30.062 106.668-39.065 126.554-40.234 20.85-1.208 41.967-4.788 41.967-4.788s8.246 4.405 18.086 6.563c11.164 2.473 22.847-1.081 22.847-1.081 4.202 21.614 19.385 35.497 23.365 38.623-1.035 6.49.02 27.929 7.324 39.834 7.862 12.827 20.849 21.476 20.849 21.476s-.896 11.62 2.166 19.923c3.059 8.31 10.156 15.881 10.156 15.881s-3.244 5.431-3.665 12.268c-.429 6.827 3.665 10.618 3.665 10.618s-3.715 4.77-4.338 8.476c-.614 3.732 1.679 9.323 1.679 9.323s-2.246 4.093-2.894 7.24c-.673 3.168 1.215 7.063 1.215 7.063-1.501 2.936-5.973 16.747.61 22.3 6.559 5.55 14.737-4.808 14.737-4.808 2.52-.745 7.253-3.866 9.503-7.37 2.76-4.296 2.76-8.288 2.76-8.288s3.53-2.297 6.58-8.14c2.523-4.741 2.162-7.863 2.162-7.863s14.265-14.989 17.23-33.7c2.542-15.953-1.215-30.669-1.215-30.669s10.723-16.31 10.231-34.954c7.295-5.103 24.913-16.541 46.843-25.073.623 12.574 2.604 23.474-1.32 43.692-4.923 25.166-27.32 43.562-27.32 43.562 31.29-3.37 52.165-30.979 60.431-50.924 6.76-16.267 12.92-39.275 15.772-49.7 30.529-5.922 58.416-7.496 67.667-8.884 12.263-1.843 15.338-4.585 15.636-9.192.295-4.615-.942-12.902-1.867-18.43"/><path d="M305.948 116.321c-.455-3.68-1.03-8.17-1.755-12.961 2.003 6.617 4.636 16.083 5.343 22.149 0 0-.589-17.223-2.966-27.92.021.062 5.936 16.658 7.123 26.145 0 0 .773-9.21-.097-19.045 1.127 3.774 2.133 7.745 2.881 11.927 4.674 25.956 12.356 44.075 43.25 63.157-5.489 8.435-13.596 19.903-19.927 28.825-7.64-5.738-20.39-17.105-26.259-32.62-9.066-23.979-6.012-46.855-7.593-59.657M456.51 274.94l-.012-.463c-2.68-17.53-15.515-34.206-31.888-41.56-4.901-2.544-19.81-8.043-35.94-9.498-7.31-.829-15.152-.732-24.74.282-4.278.45-8.443.984-12.532 1.51-21.896 2.806-42.569 5.456-64.722-6.967-27.45-13.832-47.773-44.722-51.63-78.63l-.42-3.697c-.552-4.67-.758-9.621-1.027-14.396-.392-4.224-1.17-6.53-1.262-5.995-.055.307.042.699.042 1.014.025 3.614-.863 7.198-1.414 10.74-.652 4.207-1.519 12.2-1.573 11.926-.072-.332-.177-.673-.215-.98-.19-1.17-.223-2.322-.24-3.504-.029-2.368-.071-4.737-.193-7.105-.299-5.928-1.3-23.247-1.767-25.447-.122-.56-.362-2.533-.95-2.878v-.004c.058 2.036-.039 4.076-.131 6.112-.227 5.297-1.414 11.599-1.94 16.878-.521 5.3-1.417 10.521-2.208 15.784-.215 1.456-.547 4.354-.593 3.883a5 5 0 0 0-.021-.311c-.286-3.235-1.098-13.635-1.035-25.447l-.034-2.44c-.071.458-.147.93-.227 1.392-1.935 11.371-4.22 27.176-4.443 44.248-.004.488.043 1.914.034 2.675-.109 5.305.097 27.366 9.588 51.715 14.425 37.032 42.404 61.596 83.14 73.014 20.175 5.73 42.888 10.003 58.697 14.782 0 .021.026-.054.026-.054s17.47 5.115 28.017 13.251c0 0-11.468-2.318-23.163-3.782 8.41 12.524 22.68 20.77 38.897 20.77 12.28 0 23.436-4.758 31.808-12.487-2.016 1.406-3.896 2.474-5.373 3.194-4 1.935-7.946 2.608-10.912 2.814-6.697 2.133-13.412 1.203-15.145.896.135-.03.274-.076.42-.097 20.147-3.475 38.931-18.876 36.82-42.367-.914-10.025-3.976-20.735-10.295-27.496 7.888 6.723 13.26 16.336 14.265 27.4a40.3 40.3 0 0 1-1.661 15.712c2.553-5.515 4.055-11.615 4.14-18.073 1.488 6.896.942 12.806-.69 17.858a44.9 44.9 0 0 0 3.239-16.078c.138.66.197 1.283.31 1.927 0-.042.01-.076.01-.118a46.4 46.4 0 0 0-1.057-9.903" class="st0"/><path d="M479.353 484.373c2.04 0 4.468-.03 7.106-.097-1.161 7.316-1.73 15.195-2.011 20.912-3.071 1.019-5.793 2.003-7.964 2.907-13.71 5.726-39.216 19.25-39.216 19.25-.273.16-.58.354-.862.527-2.1-14.543-6.845-26.495-6.845-26.495s9.146-23.806 5.722-38.442c-4.498-19.225-11.86-29.448-11.86-29.448.808-.862 1.624-1.67 2.436-2.499 4.826 6.576 12.995 6.748 12.995 6.748s4.51 19.234 11.051 28.834h-.008c6.554 9.62 15.343 17.799 29.456 17.803m128.124-14.631c-1.784-10.059-4.544-11.834-9.398-13.782-4.872-1.948-13.138-1.464-13.138-1.464s6.327-15.405 5.68-23.836c0 0-36.714 15.826-47.24 44.954 0 0 22.027.577 34.362 2.028 12.33 1.464 20.344 1.515 23.095 1.679 2.752.155 8.422.479 6.639-9.58m-17.547 14.324c-6.954-.198-34.252-1.077-51.222-1.077-.072 0-.152.008-.22.008-1.69 2.668-3.062 5.499-4.526 9.47 4.733-.934 9.306-1.746 13.492-2.369 23.112-3.483 42.127-4.093 45.19-4.493 3.066-.412 8.594-.214 10.626-1.842.008-.013-6.386.505-13.34.303m-31.244-93.59c-13.596 4.001-33.062 14.623-49.035 35.14-17.328 22.242-21.253 50.015-21.253 50.015s-18.279 3.597-27.736-10.45c-12.691-18.842-7.913-40.94-7.913-40.94s-7.517 3.546-13.457 1.998c-2.087-.547-3.568-1.91-4.62-3.538 9.895-8.797 20.412-17.055 30.854-29.002 5.401 1.199 10.26 2.499 12.91 3.31 5.848 1.784 11.923 6.732 13.546 12.079 1.628 5.355 2.428 23.516 2.428 23.516 3.281-12.63 3.807-19.007 4.118-22.579.337-3.567-.042-12.586-6.886-18.842-3.698-3.37-14.156-6.5-18.304-8.8 15.838-21.809 20.184-55.228 20.184-55.228-.008-.32-.004-.631-.008-.95 1.61-.177 2.663-.341 2.713-.51 2.911-.168 13.26-1.434 16.154-1.489-.033.097-4.312 12.823-.593 22.238 0 0 9.663-6.492 23.44-5.511 13.778.988 35.843 7.685 45.3 3.946 0 .017 4.127 9.452 3.937 16.335-.197 6.89 1.96 11.623 4.518 13.584 2.562 1.968 5.124 2.364 6.702 3.563 1.582 1.17 1.586 4.716.79 7.66-.79 2.95-2.957 3.358-5.316 2.76-2.2-.543-13.723-2.103-26.226.198-.656-2.318-1.809-7.619.682-10.24 3.243-3.394 9.57-3.07 12.006-2.587 0 0-5.174-2.431-9.73-2.431-4.544 0-8.284 3.08-9.58 6.49-.946 2.538-.117 7.75.375 10.265m-5.62-32.62c-.164-1.463-3.071-5.674-4.704-7.622 0 0 4.704-2.587 11.35-2.911 0 0-4.286-1.645-10.6-1.78a38 38 0 0 0-6.921.476c-9.886 1.628-13.778 3.58-20.429 4.387 0 0-.037.068-.071.106 5.561 1.813 14.64 1.695 20.02 2.641 2.592.463 5.276 1.919 7.413 3.34l-2.781 12.436c-6.2 3.294-16.234 9.604-23.937 19.154-6.217 7.698-9.078 21.19-9.078 21.19s7.96-14.27 18.005-21.25c9.12-6.326 13.95-8.783 16.718-11.362.505-.509.896-1.073 1.254-1.653 2.402-2.907 3.491-13.353 3.698-15.595v-.054c.016-.228.033-.388.033-.388.03-.53.046-.933.03-1.114" style="fill:#e9bf9b"/><path d="M316.326 427.77c-1.897 6.559-.475 26.612-.475 26.612s-7.005 2.76-15.549 2.76c-8.54 0-18.847-5.389-18.847-5.389l.703-.084c17.955-4.497 34.172-23.903 34.168-23.899m82.429 175.812s4.602-8.052 9.688-17.084c-3.206-2.717-7.51-5.973-12.827-9.259-4.825-3-13.096-7.11-20.31-11.275v.009c-.05 3.933.45 13.878 6.058 21.972 7.151 10.328 17.39 15.637 17.39 15.637m123.239-279.006c-4.863 3.24-3.732 12.97-3.732 12.97s3.904-4.043 13.467-6.479c9.57-2.431 22.224-.647 22.224-.647-7.303 1.455-11.354 3.895-11.354 3.895 13.622 1.784 16.045 6.163 34.214 4.863 18.17-1.3 20.45-18.493 20.45-18.493h-.005s-4.236 1.948-13.625 4.055c-9.407 2.108-28.384-.807-34.068-1.455-5.675-.648-22.7-1.948-27.571 1.291M406.066 524.36c9.352-18.43 18.51-24.993 22.153-44.197 3.622-19.217-5.506-33.958-12.465-41.172 0 0-20.92 22.877-29.12 41.517-7.302 16.63-9.873 30.032-10.26 37.146 8.742 5.44 19.314 12.036 25.149 16.664 1.405-3.404 2.932-6.782 4.543-9.958M363.17 216.486c10.122-1.068 18.464-1.165 26.226-.278 15.354 1.38 30.07 6.277 37.066 9.533 19.448 8.224 34.786 28.03 37.491 48.749h-.034c.106.572.224 1.144.312 1.725.034.214.067.437.097.647.1.737.206 1.481.273 2.23 0 .009.008.009.008.021 4.821-.572 30.193-3.445 51.353-3.298 18.868.126 35.624 2.108 43.671 3.42-8.266-18.438-21.059-40.078-40.402-58.403-43.713-41.408-97.737-61.193-142.83-63.267h-.005s-.681 8.086-5.561 18.426a69 69 0 0 1-6.941 11.59c-4.24 5.704-12.739 17.441-20.555 29.254-.26.4-1.716 2.268-1.716 2.268 2.902-.337 5.847-.703 8.85-1.09 4.144-.522 8.36-1.069 12.697-1.527m-26.734 84.532q-.238-.062-.463-.118-2.44-.614-4.918-1.24c-3.302-.83-6.647-1.608-9.987-2.382-3.702-.862-7.412-1.712-11.051-2.6a97 97 0 0 0-.539 2.727c-.53 3.251-.976 6.566-1.346 9.869 8.325-2.163 18.165-4.472 27.647-6.147.223-.037.434-.075.657-.109m32.775 46.317a59 59 0 0 1-2.112-3.024l-1.48-1.283-.009-.005c-4.998 1.006-72.063 9.823-153.192 64.344-26.877 18.06-59.842 50.12-76.114 68.007 6.975-3.05 21.997-9.347 33.882-13.02 12.14-12.464 32.073-32.661 50.335-45.463 42.329-29.633 114.716-60.292 148.69-69.556m29.709 193.62c-4.88-3.698-18.965-14.19-27.593-18.985-10.563-5.86-22.09-12.318-26.587-16.29 0 0-.093 18.557 8.994 32.721 6.773 10.572 25.241 20.193 37.29 27.416 1.043-3.92 3.844-14 7.896-24.862m24.732-29.477c-1.553 2.49-4.018 6.327-5.465 8.283-4.577 6.18-15.851 30.752-20.664 50.002a88 88 0 0 1 3.84 2.503c5.297 3.707 8.436 6.677 10.21 8.662 2.31-4.101 6.828-8.275 8.63-11.535 6.62-12.023 11.698-26.221 10.054-39.161-1.136-8.89-5.12-15.953-6.605-18.754m-40.13 102.125c1.317 4.43 4.624 6.718 7.872 8.418 2.103-6.651 4.812-14.017 4.812-14.017-4.968-2.533-9.768-6.76-9.768-6.76-1.842 2.376-5.065 5.127-2.915 12.359m86.624-283.785c-4.8 16.028-14.068 27.55-28.792 34.286-19.234 19.604-47.933 33.242-63.94 43.503-28.236 18.11-32.872 53.818-32.872 53.818 3.109-54.803 36.705-61.874 73.422-88.82.774-.559 2.621-1.61 3.37-2.183l-1.14.476c-4.594 0-13.963-.863-18.292-1.88-4.017 2.759-7.93 5.19-11.535 7.164-19.212 10.475-32.544 27.596-32.544 27.596 5.191-17.353 17.353-24.66 35.577-37.49-6.81-2.807-14.446-7.56-19.704-12.748-10.74 5.545-34.459 19.953-50.264 34.884-12.633 11.947-36.065 28.88-63.771 41.946 21.774-14.404 58.488-46.76 71.373-59.035 0 0-48.286 27.887-62.11 37.248 0 0 17.968-19.819 40.188-32.052 0 0-49.131 20.13-77.406 39.43-14.627 9.992-37.032 30.344-49.98 44.19 5.316-1.145 25.505-5.222 30.882-5.777 36.338-3.74 76.055-.913 110.854-42.809.572-.681 1.16-1.363 1.661-1.964-3.028 10.357-4.328 24.875-3.74 41.058 1.263 34.985 28.434 48.808 38.947 56.15-.265-4.305-.912-8.608 2.932-23.719 4.241-16.655 15.705-30.163 18.422-32.308 0 0-17.816 23.76-12.675 61.137 0 0 4.914-30.613 27.992-60.666 23.08-30.046 45.258-44.1 63.62-66.544 10.206-12.478 15.999-24.459 19.44-35.22 2.819-8.043 4.077-15.893 4.645-21.686-4.964.438-9.697 1.04-14.46 1.51-.025.177-.067.37-.1.505m122.877 64.853s-4.337-1.216-11.388-1.2v-.008c-7.05.021-16.819 1.275-27.68 6.222-21.742 9.895-42.448 29.637-51.37 50.066-8.915 20.432-9.63 42.051-10.606 57.949-.963 15.893 1.683 39.654-4.548 61.045 0 0 10.24-15.153 13.955-57.957 3.373-38.825 12.982-65.526 30.815-78.016 0 0-14.274 19.78-19.137 52.22-4.863 32.443-3.896 45.105-9.895 72.02l-1.489 5.049s14.282-19.112 22.015-68.942c6.768-43.558 19.528-63.103 37.045-73.325 0 0-23.44 25.48-28.821 61.962 0 0 13.293-32.868 34.227-46.666 20.92-13.773 39.014-18.38 39.014-18.38s-.682-11.303-12.137-22.04m-187.55 207.371c-4.092 7.37-7.765 17.063-9.603 22.233.387.224.757.438 1.098.678 3.849 2.587 8.767 9.503 8.767 9.503s10.538-11.741 14.816-25.043c4.283-13.294-.841-29.212-.845-29.212 0 0-8.364 11.278-14.232 21.841m-24.81 53.385c-2.895 3.589-4.208 10.812-2.37 12.966 1.83 2.158 4.371 1.897 5.957.092 1.595-1.8 2.062-4.64-.143-7.627-1.787-2.415-3.445-5.43-3.445-5.43m11.11-27.31c-5.26-2.516-8.019-6.033-8.019-6.033s-3.142 4.249-1.99 9.276c1.161 5.031 5.835 7.206 10.803 9.73 4.973 2.537 6.85 7.572 6.85 7.572 3.529-2.481 5.287-6.272 3.331-10.411-1.956-4.123-5.717-7.623-10.976-10.135m-3.534 16.086c-3.846-2.595-6.32-5.502-6.32-5.502-5.127 8.821-2.65 10.862 4.422 16.095 4.83 3.58 3.917 8.25 3.917 8.25s6.626-3.362 6.188-7.627c-.295-2.81-4.37-8.616-8.207-11.216" style="fill:#ffc62f"/><path d="M563.297 286.467c-5.81-1.086-24.328-3.879-47.327-4.035-20.896-.143-46.095 2.47-51.067 3.025v.088c-.034 31.085-26.785 53.271-51.702 53.642-37.63.563-51.48-29.768-51.77-31.556a412 412 0 0 0-8.514-2.36 299 299 0 0 0-15.952 2.369c-10.366 1.825-21.08 4.383-29.797 6.65-.417 4.603-1.082 12.007-1.107 12.638-1.24 26.175.408 24.35.408 24.35 7.59-2.97 35.582-10.148 35.582-10.148 8.199-1.91 17.933-3.954 29.33-6.062 8.014 16.15 24.656 27.256 43.906 27.256 24.043 0 44.017-17.306 48.198-40.129 52.535-5.704 77.368-5.868 109.807-1.552-3.416-18.085-9.995-34.176-9.995-34.176" style="fill:#4f2683"/></svg>