<svg xmlns="http://www.w3.org/2000/svg" xml:space="preserve" id="Layer_1" width="720" height="720" x="0" y="0" version="1.1" viewBox="0 0 720 720"><style>.st0{fill:#a0a2a3}</style><path d="M360.097 684.19c-137.811 0-260.91-87.619-306.126-217.857-58.63-168.748 30.938-353.938 199.685-412.567 34.399-11.9 70.095-17.957 106.225-17.957 137.811 0 260.91 87.62 306.126 217.858l1.514 4.327c55.6 167.666-33.966 350.043-201.416 408.023-34.182 12.116-69.878 18.174-106.008 18.174" class="st0"/><path d="M627.065 213.427c-39.159-71.393-103.628-123.1-181.945-145.815-13.413-3.894-27.259-6.924-41.106-8.87-149.492-22.067-294.226 70.96-336.413 216.343-22.716 78.1-13.63 160.31 25.528 231.704s103.845 123.1 181.945 145.815c13.413 3.894 27.26 6.924 41.106 8.87 30.504 4.544 61.008 4.11 90.214-.433.433.217.65.433 1.083.65l.432-.866c113.58-18.172 211.367-100.383 244.9-215.694 22.5-78.1 13.414-160.31-25.744-231.704" style="fill:#0c233f"/><path d="M514.783 273.138c.216-3.029.216-7.356-2.164-10.6 0 0 3.462 1.946 5.625 4.759a15 15 0 0 1 3.029 5.192q-2.271-.325-6.49.649m-23.15 11.682c3.246-2.379 6.275-4.11 9.087-5.625-.432-1.297-1.297-2.812-2.38-4.975-2.163-3.895-8.004-7.356-8.004-7.356 2.38 6.923 1.947 14.062 1.298 17.956" style="fill:#fff"/><path d="M142.456 454.866c52.138-3.029 103.196-40.456 103.196-40.456s0 .216-.217.216c-15.36 23.582-36.346 36.995-36.346 36.995 2.597 3.245 4.76 5.192 6.923 6.49-21.85 8.871-73.556-3.245-73.556-3.245m384.658-170.262s-1.298-.865-1.73-1.081c-8.222-4.328-22.716 8.22-32.235 13.629-9.52 5.192-23.365 16.442-30.288 1.082-6.707-15.36 8.87-39.374 14.278-54.735 11.899-33.533 12.332-53.22 9.735-63.821 11.034 12.331 14.496 36.345 14.496 36.345s4.11-44.783-17.74-56.465c.432 1.514 0 7.14-.433 11.466-10.169 1.947-32.668-.649-40.024-4.543-27.692 29.638-57.764 70.96-80.48 108.82-9.735 20.12-19.47 43.486-21.851 62.74 0 0-3.029-8.654-3.894-20.12-12.548 4.76-55.167 25.745-64.253 89.999 0 0 27.043-27.909 57.114-38.942 0 0-19.038 49.759 17.308 137.811 0 0 14.712-54.086 45.432-67.716 18.605 92.379 73.123 93.893 88.917 156.633 0 0 16.658-32.452-3.461-87.835 0 0 6.922 1.947 12.763 8.87 0 0-.865-16.226-16.009-51.057-9.951-18.606-12.98-43.918-12.98-43.918-8.871 8.005-11.034 35.047-11.034 35.047-27.043-73.34 49.76-146.031 63.822-156.849 6.922-5.192 11.032-5.408 13.629-4.11 2.38-5.409 1.948-8.87-1.082-11.25" class="st0"/><path d="M298.44 115.856c-4.327-10.817-1.732-22.715.215-28.773 32.884-7.356 67.283-9.087 101.898-3.895 12.765 1.731 25.313 4.544 37.86 8.222.434.216.866.216 1.3.432-17.742 2.596-40.458 7.788-65.986 17.092-20.12 6.706-41.322 14.927-60.576 22.715-7.14-4.11-12.115-9.302-14.712-15.793m-138.028 208.34c9.952-30.938 23.15-57.115 37.212-78.967 2.163-4.327 5.624-10.816 9.952-18.605-53.87-5.841-102.764 51.706-121.586 77.45-15.576 75.505 1.298 151.442 41.754 211.801 9.52-15.145 24.23-38.293 24.23-38.293-21.633-7.571-43.267-26.826-43.267-26.826 12.114-7.572 24.013-16.443 35.48-25.96.648-34.617 5.84-68.366 16.225-100.6m101.033-170.264c9.086-4.11 20.12-8.87 32.45-14.062-5.408-4.976-9.518-10.817-12.114-17.523-4.11-10.6-4.11-21.418-2.596-30.072-40.024 11.898-77.019 32.884-107.956 61.225h4.327c26.394-1.514 64.255-.432 85.889.432m223.698 274.756c-.648 33.318 24.88 54.736 26.395 115.96 0 0-7.356-5.191-10.385-6.49 0 0 5.408 26.394 7.356 59.062 29.422-18.388 55.6-42.402 76.802-70.96-10.6-52.788-43.918-109.686-88.484-162.258-7.356 17.524-11.25 36.779-11.684 64.686M272.91 210.398a528 528 0 0 0-24.23 12.548c17.523 11.467 31.585 28.99 43.051 49.976 30.505-23.582 58.846-24.015 58.846-24.015 2.596-3.244 4.976-6.273 7.355-9.302-9.518-6.49-19.037-12.548-28.773-18.39-13.413-4.76-45.432-9.303-56.25-10.817m131.103-40.24a402 402 0 0 0-8.004-.648c-15.36-1.083-40.023-3.03-69.446-13.197-6.058 6.706-11.033 13.629-14.711 19.687 7.572 7.788 22.066 22.932 29.206 30.937 9.519 5.84 19.038 11.899 28.558 18.39 17.956-21.419 33.532-38.077 48.46-53.654-3.893-.433-7.788-.866-11.898-1.298zm-187.136 39.808c3.677-6.707 7.571-13.414 11.033-19.47-14.927-9.737-24.013-16.876-49.758-19.04-10.601-.216-19.255 0-25.529.433-23.149 25.529-41.754 55.817-54.519 89.783 28.558-29.423 71.177-61.01 118.773-51.706m422.086 126.777c-7.788-35.697-34.399-103.845-124.613-141.489 2.811 26.827-3.03 52.572-3.03 52.572s16.659 9.736 20.769 28.124c0 0 2.164.866 3.895 3.462 4.76 5.625 10.816 18.822 1.081 45 0 0-5.625-12.116-17.74.865-5.192 7.355-9.736 14.062-13.63 20.768 43.918 50.625 78.317 106.01 93.028 159.879 12.764-20.553 22.932-43.27 30.072-67.716 9.952-33.966 12.98-68.148 10.168-101.465M510.67 175.783c37.644 14.279 77.234 36.996 106.441 73.34-26.61-61.657-75.287-113.363-138.893-142.785v.432c-.864 0-59.71-1.299-132.402 33.966-1.298.649-2.596 1.514-3.677 2.38 22.716 6.706 41.754 8.005 55.166 8.87q4.87.323 8.439.649l1.947.216c6.706.649 15.36 1.514 25.312 3.028 9.086-16.874 24.23-27.691 33.317-29.638 8.221 3.028 12.548 8.004 15.577 14.928 15.576 6.49 24.23 19.687 28.773 34.615m-278.867 57.98c-4.326 3.029-8.004 6.275-11.25 9.52-30.72 43.269-53.22 99.084-57.33 165.286 49.11-45 89.998-98.652 114.878-123.532-11.9-23.15-27.043-41.538-46.298-51.274" style="fill:#266092"/><path d="M299.088 308.185c0 .216 25.528-25.528 42.62-33.965 0 0-4.11 11.25-4.543 21.85 0 0-25.745 3.894-38.077 12.115m149.71-155.767c14.711-15.577 27.476-5.625 27.476-5.625-2.596-6.706-11.682-22.932-27.475 5.625m-162.474 25.745 19.255-28.125-38.726 19.688s-27.692-2.38-42.403-2.813c13.413 8.438 24.88 18.39 24.88 18.39L232.24 213.86l36.561-19.904s23.148 3.894 44.134 8.221c-11.899-13.846-26.61-24.014-26.61-24.014" style="fill:#79bc43"/></svg>