<svg xmlns="http://www.w3.org/2000/svg" xml:space="preserve" width="720" height="720" viewBox="0 0 720 720"><path d="M85.644 215.457c0-7.428-6.023-13.48-13.474-13.48H36l.034-88.91h155.465v16.922c17.378-13.286 40.387-20.697 64.309-21.186v.007a123.5 123.5 0 0 1 32.745 3.714c21.837 5.693 38.064 15.846 50.835 34.47 6.124 8.937 9.179 17.977 10.72 24.977.896 4.108 1.263 7.516 1.412 9.75v76.851l-.02 20.338s.01 4.844.02 12.662v64.665c-.01 3.235-.01 6.45-.02 9.58 0 .203.01.37.02.563v1.863c0 7.435 6.032 13.447 13.46 13.45h23.026l2.08.014v85.28h-99.36c-19.666 0-36.375-12.434-42.855-29.866-1.843-4.96-2.91-10.3-2.91-15.917V228.98c-.322-13.867-12.128-25.022-26.664-25.022-14.76 0-26.713 11.453-26.727 25.565h-.013l-.007 2.478V467.67H85.644zm598.322 288.682h-.007l-.264-391.052H575.252V340.73c0 2.746-.05 5.479-.187 8.16a80 80 0 0 1-.193 3.15c-1.056 8.28-6.07 15.348-13.202 19.449a28.4 28.4 0 0 1-14.156 3.778c-14.93 0-27.588-11.4-27.534-25.545l.14-236.635h-149.8l-.01-.01v88.652h27.636c7.427 0 13.439 6.032 13.439 13.473v173.352c1.775 28.542 18.732 54.654 40.281 66.888 21.692 17.157 74.306 25.009 102.72 14.984 0 0 13.12-4.131 20.506-9.057v21.998c0 5.248-.404 8.524-1.83 12.61-3.608 7.778-11.528 11.862-24.095 12.17l-463.388-.02v103.09h502.257c15.283-.785 29.666-2.516 41.768-5.935C646.143 600.228 684 582.487 684 526.414c0-.821-.014-21.447-.034-22.275" style="fill:#a71930"/><path d="M100.594 215.45c0-15.677-12.74-28.42-28.414-28.42H50.97c0-16.509.007-42.478.007-58.996H176.56v32.25l24.035-18.407c15.072-11.518 35.043-17.818 55.828-18.161l-.003.003c9.447-.152 19.068.924 28.467 3.303 19.302 5.035 31.95 13.548 42.155 28.437 4.023 5.866 6.868 12.5 8.473 19.72 0 0 .954 6.664 1.063 7.332v76.058l-.02 20.307.02 12.73v64.63l-.02 9.88s.006.318.02.637v1.49h-.007c0 15.667 12.75 28.424 28.413 28.424h10.144v55.353H290.74c-12.774 0-24.367-8.079-28.834-20.113a30.5 30.5 0 0 1-1.97-10.707V228.978c-.502-22.188-19.172-39.97-41.632-39.97-22.975 0-41.655 18.176-41.672 40.52-.024-.096-.034 2.393-.034 2.393v220.788h-76.003zm568.144-87.42h-78.553v212.686l-.193 8.918-.252 3.833-.067.424c-1.576 12.631-9.288 24.051-20.572 30.562a43.47 43.47 0 0 1-21.6 5.76c-11.56 0-22.809-4.606-30.844-12.695-7.513-7.547-11.664-17.384-11.664-27.684 0-.044.135-195.542.146-221.793h-119.87v58.737h12.663c15.666 0 28.403 12.758 28.403 28.42v172.69c1.46 22.35 14.57 44.25 32.704 54.55v-.008l.988.578.91.689c17.91 14.166 65.038 20.907 88.455 12.618l.478-.14c4.311-1.371 12.659-4.535 16.695-7.26l23.274-15.575v50.023c0 6.12-.448 11.22-2.672 17.56l-.224.676-.326.67c-4.256 9.185-14.179 20.265-37.656 20.839H100.539v73.152c28.084.054 485.79 0 486.778 0 14.05-.737 27.242-2.282 37.884-5.259 16.356-5.024 43.815-20.093 43.815-64.587 0 .004-.255-370.714-.278-398.383" style="fill:#0b2265"/></svg>