<svg xmlns="http://www.w3.org/2000/svg" xml:space="preserve" width="720" height="720" viewBox="0 0 720 720"><path d="m684 313.418-5.592-3.465c-85.89-50.048-210.609-74.778-267.855-75.741l-.762-.007a20.02 20.02 0 0 0-19.365 9.68 19.8 19.8 0 0 0-1.15 15.545 25.3 25.3 0 0 0-3.988-3.485 76 76 0 0 0-10.12-6.268s.722 4.502-.937 3.967a28 28 0 0 1-2.796-1.15c-4.649-2.208-11.378-6.262-11.378-6.262s-6.837 4.054-11.479 6.261q-1.371.65-2.802 1.15c-1.653.535-.937-3.966-.937-3.966a76.4 76.4 0 0 0-10.114 6.268 25 25 0 0 0-3.993 3.485 19.78 19.78 0 0 0-1.151-15.546 20.02 20.02 0 0 0-19.365-9.679l-.756.007c-57.246.963-181.972 25.693-267.861 75.741L36 313.418a50.02 50.02 0 0 0 29.258 27.593l-2.836 1.365s11.76 19.09 30.055 23.05l-3.492 1.452a60.37 60.37 0 0 0 37.887 25.238l-3.692 1.806a73.27 73.27 0 0 0 45.179 20.99l-3.967 3.024a110.4 110.4 0 0 0 44.864 15.111l-4.3 3.827s47.392 17.331 87.085 2.89c11.11 27.81 38.008 46.077 67.956 46.148h.013c29.95-.07 56.85-18.337 67.962-46.149 39.68 14.442 87.08-2.89 87.08-2.89l-4.295-3.826a110.5 110.5 0 0 0 44.864-15.11l-3.98-3.024a73.2 73.2 0 0 0 45.172-20.99l-3.679-1.807a60.34 60.34 0 0 0 37.888-25.238l-3.492-1.452c18.282-3.96 30.054-23.05 30.054-23.05l-2.829-1.365A50 50 0 0 0 684 313.418" style="fill:#c69e66"/><path d="M674.964 315.894c-84.036-48.958-207.472-73.855-264.517-74.812-6.883-.12-11.552 1.559-13.953 6.034-3.974 7.465 1.638 15.793 4.02 19.372a62.44 62.44 0 0 1 12.013 34.262 47.57 47.57 0 0 1-21.552 40.215 56.03 56.03 0 0 0 9.599-33.098c0-34.837-20.877-47.44-20.877-47.44s-.502 2.087-1.773 2.087a79.5 79.5 0 0 1-13.043-5.886c-1.64-.883-3.92-2.214-4.716-2.676 0 0-3.405 1.793-5.037 2.676a79 79 0 0 1-13.044 5.886c-1.271 0-1.78-2.087-1.78-2.087s-20.87 12.603-20.87 47.44a56.03 56.03 0 0 0 9.6 33.098 47.59 47.59 0 0 1-21.56-40.215 62.5 62.5 0 0 1 12.02-34.262c2.389-3.579 7.994-11.907 4.02-19.372a13.83 13.83 0 0 0-13.946-6.034c-57.059.957-180.494 25.854-264.523 74.812a44.79 44.79 0 0 0 40.222 21.17 639 639 0 0 0-12.335 6.195 42.83 42.83 0 0 0 41.72 17.412 754 754 0 0 0-14.65 7.13 54.1 54.1 0 0 0 45.173 19.493c-7.158 3.612-11.479 5.913-11.452 5.907a64.51 64.51 0 0 0 53.634 14.522c-3.58 2.608-7.191 5.371-11.466 8.355a93.07 93.07 0 0 0 52.939 9.21 1249 1249 0 0 0-11.064 8.482c-.067-.388 43.814 12.007 75.032-1.745 1.157-.509 2.268-1.09 3.378-1.666 9.666 35.252 46.078 55.993 81.33 46.328a66.19 66.19 0 0 0 46.326-46.321c1.117.568 2.214 1.15 3.372 1.658 31.218 13.753 75.092 1.358 75.039 1.746-3.68-2.863-7.372-5.679-11.07-8.482a93 93 0 0 0 52.93-9.21c-4.254-2.984-7.866-5.747-11.451-8.355a64.47 64.47 0 0 0 53.62-14.522c.027.006-4.288-2.295-11.438-5.907a54.12 54.12 0 0 0 45.172-19.492 640 640 0 0 0-14.663-7.13 42.84 42.84 0 0 0 41.727-17.413 633 633 0 0 0-12.321-6.194 44.79 44.79 0 0 0 40.215-21.171m-331.553 63.84c3.933 18.918 7.552 37.072 8.595 44.21a64.9 64.9 0 0 1-2.327 19.806l-.388.77a58 58 0 0 1-6.516-1.62 88.5 88.5 0 0 0-9.431-31.372 112.6 112.6 0 0 1-7.6-20.656 48.7 48.7 0 0 1 17.667-11.137m-201.558-62.312a707.5 707.5 0 0 1 127.262-30.777 111 111 0 0 0-.843 19.666c-7.806 1.512-32.135 6.743-86.652 22.168 0 0-29.057 8-39.767-11.057m26.503 28.891a681.5 681.5 0 0 1 101.234-28.342 75.6 75.6 0 0 0 5.21 17.111c-9.143 2.93-39.793 12.71-63.7 19.486-28.416 8.067-42.744-8.255-42.744-8.255m32.468 24.522c20.49-7.873 69.04-23.6 78.752-26.736a73 73 0 0 0 9.358 11.94c-5.74 2.448-18.77 7.886-42.41 17.198-33.94 13.365-45.7-2.402-45.7-2.402m93.65 32.552a34.4 34.4 0 0 1-19.144-.756c6.068-4.482 15.44-10.69 23.847-16.134a66 66 0 0 0-4.702 16.89m-4.467-20.819c-28.85 17.82-51.78 6.55-51.78 6.55 18.22-8.77 49.727-22.537 58.208-26.222a93 93 0 0 0 11.506 7.9zm29.412 15.985a160 160 0 0 0 6.429 16.281 97 97 0 0 1 8.388 24.643 56.8 56.8 0 0 1-22.51-20.221 48.4 48.4 0 0 1 7.693-20.703m14.84 51.15a16.5 16.5 0 0 1-6.61 9.592 57.3 57.3 0 0 1-8.462-7.251 48.4 48.4 0 0 1-7.304-19.299 65 65 0 0 0 22.509 15.834c-.047.368-.074.749-.134 1.123m21.646 19.613a56.4 56.4 0 0 1-20.837-5.632 22.92 22.92 0 0 0 7.211-12.355 66 66 0 0 0 9.599 1.792 55 55 0 0 1 2.763 5.813l1.264 3.211zm12.113-44.665c.883-6.521 4.59-25.291 8.643-44.89a48.7 48.7 0 0 1 17.606 11.117 113 113 0 0 1-7.606 20.65 89.1 89.1 0 0 0-9.418 31.278 58 58 0 0 1-6.536 1.672l-.36-.722a62.1 62.1 0 0 1-2.329-19.105m-3.913 44.66v-7.125l1.258-3.217c.815-2 1.744-3.952 2.782-5.846a66 66 0 0 0 9.593-1.793 23 23 0 0 0 7.204 12.355 56.3 56.3 0 0 1-20.837 5.625m36.703-17.254a57.3 57.3 0 0 1-8.442 7.238 16.54 16.54 0 0 1-6.609-9.6c-.053-.367-.087-.748-.133-1.116a64.9 64.9 0 0 0 22.489-15.807 48.4 48.4 0 0 1-7.305 19.285m-15.006-12.771a97.4 97.4 0 0 1 8.368-24.449 159 159 0 0 0 6.415-16.275 48.5 48.5 0 0 1 7.672 20.556 58.37 58.37 0 0 1-22.455 20.168m58.87-36.655a34.37 34.37 0 0 1-19.13.763 66 66 0 0 0-4.703-16.89c8.409 5.438 17.767 11.645 23.834 16.127m-14.677-20.063-17.927-11.772a94 94 0 0 0 11.505-7.9c8.475 3.685 39.981 17.452 58.203 26.221 0 0-22.924 11.271-51.781-6.549m43.489-9.331c-23.646-9.312-36.67-14.75-42.416-17.198a73 73 0 0 0 9.365-11.94c9.706 3.137 58.262 18.863 78.745 26.736 0 0-11.753 15.767-45.694 2.402m35.419-18.67c-23.9-6.775-54.55-16.555-63.694-19.485a76.3 76.3 0 0 0 5.21-17.11 681.5 681.5 0 0 1 101.234 28.341s-14.334 16.322-42.75 8.255m29.486-26.088c-54.523-15.425-78.845-20.656-86.651-22.168.298-6.568.014-13.149-.85-19.666a707.7 707.7 0 0 1 127.269 30.777c-10.71 19.057-39.768 11.057-39.768 11.057" style="fill:#001644"/><path d="M340.954 303.932c.804.587 1.542 1.26 2.2 2.007a1.54 1.54 0 0 0-.621.87 1.74 1.74 0 0 0 1.217 2.133c.451.116.93.048 1.331-.187q.41.74.696 1.538c-6.362.756-4.823-6.361-4.823-6.361m38.096.003a14 14 0 0 0-2.2 2c.29.22.507.524.622.87a1.735 1.735 0 0 1-2.562 1.953 10.6 10.6 0 0 0-.676 1.532c6.355.763 4.816-6.355 4.816-6.355M339.8 336.31c2.976 13.218 6.675 31.44 11.358 56.075l-4.295-55.82c-3.27-6.315-9.344-10.355-7.063-.255m33.35.254-4.294 55.821c4.689-24.636 8.381-42.857 11.358-56.075 2.267-10.1-3.793-6.06-7.064.254m-10.163 64.959c2.02-38.061 5.05-65.013 5.05-68.377.001-1.5-.21-2.994-.628-4.435l-2.215 7.238-.682-12.79a22 22 0 0 0-4.535-4.248h-.12a20.8 20.8 0 0 0-4.362 4.241l-.669 12.797-2.227-7.245a16 16 0 0 0-.63 4.442c0 3.364 3.018 30.315 5.045 68.377 2.02 38.06-2.696 45.131-2.696 45.131a77 77 0 0 1 5.679 10.99 77.4 77.4 0 0 1 5.7-10.99s-4.723-7.07-2.71-45.131" style="fill:#da1a32"/><path d="M321.926 358.603a65 65 0 0 0-2.763 2.067c-19.98-12.87-48.142-41.915-25.807-96.672 0 0-79.38 3.284-188.2 47.198 0 0-7.638 3.178-12.087 4.77a25.26 25.26 0 0 1-21.88-.482 682.4 682.4 0 0 1 227.405-64.102c16.857-1.592 19.091.956 14.643 7.318-3.385 4.83-42.784 55.085 8.689 99.903m99.484-107.22c-16.863-1.592-19.091.957-14.643 7.318 3.392 4.823 42.784 55.086-8.682 99.896.943.663 1.86 1.358 2.762 2.067 19.981-12.87 48.142-41.907 25.8-96.671 0 0 79.394 3.29 188.2 47.198 0 0 7.64 3.184 12.094 4.776a25.28 25.28 0 0 0 21.874-.488 682.5 682.5 0 0 0-227.405-64.096m-35.011 62.802c.027-.06.053-.113.073-.174a26.74 26.74 0 0 0 3.164-14.957 37.32 37.32 0 0 0-9.104-24.75s-.14 3.057-5.29-.367a26.59 26.59 0 0 0-30.57.02c-4.977 3.377-5.218.347-5.218.347a37.45 37.45 0 0 0-9.09 24.75 28.57 28.57 0 0 0 2.95 14.596c.073.187.147.368.227.555 2.963-1.244 8.361 1.706 15.311 9.17v.001l.1-.167a7.57 7.57 0 0 0-1.912-9.358s-10.93 2.294-11.205-12.201a8.3 8.3 0 0 0-1.257-4.576s2.803-2.548 8.89 2.034c6.1 4.569 9.418 17.539 12.73 14.495 3.257-3.023 2.086-19.92 3.792-20.555 1.679.635.522 17.532 3.793 20.555 3.31 3.044 6.602-9.926 12.723-14.495 6.08-4.582 8.89-2.034 8.89-2.034a8.56 8.56 0 0 0-1.278 4.576c-.248 14.495-11.178 12.2-11.178 12.2a7.515 7.515 0 0 0-1.893 9.332q.042.093.107.174c6.897-7.405 12.268-10.355 15.245-9.17m14.184 84.377a48.46 48.46 0 0 1 7.673 20.556l.046-.067a56.4 56.4 0 0 0 7.385-16.984 56.6 56.6 0 0 0-12.93-26.51 47.5 47.5 0 0 1-2.147 22.931zm-83.332-23.003a56.6 56.6 0 0 0-12.917 26.455 57.6 57.6 0 0 0 7.358 17.185l.04.054a48.3 48.3 0 0 1 7.693-20.697l-.027-.067a47.44 47.44 0 0 1-2.147-22.93m63.526-15.468a4281 4281 0 0 0-4.1 19.58l-.014.087a48.8 48.8 0 0 1 17.6 11.117l.02-.067a31.96 31.96 0 0 0-5.184-26.71 57 57 0 0 0-8.322-4.007m-41.509-.007a56 56 0 0 0-8.355 4.013 31.96 31.96 0 0 0-5.184 26.71l.014.067a48.7 48.7 0 0 1 17.666-11.138l-.02-.086a4088 4088 0 0 0-4.12-19.566m68.845 72.687a48.4 48.4 0 0 1-7.305 19.285l.147-.14a56.63 56.63 0 0 0 14.863-29.2 65 65 0 0 1-7.639 9.995zm-96.282-.076a65 65 0 0 1-7.652-9.98 56.65 56.65 0 0 0 14.883 29.21c.04.041.087.075.127.121a48.4 48.4 0 0 1-7.304-19.298z" style="fill:#fff"/></svg>