<svg xmlns="http://www.w3.org/2000/svg" xml:space="preserve" width="720" height="720" viewBox="0 0 720 720"><path d="M570.035 292.653c-47.68-27.703-94.606-21.294-130.194-5.436-1.57-11.7-4.622-24.545-9.718-39.572-7.547-22.353-15.819-43.714-23.11-62.57-9.584-24.759-16.88-45.975-20.881-60.165L360.196 36l-26.929 88.957c-4.112 14.14-11.213 35.468-20.753 60.244-7.249 18.872-15.453 40.258-22.956 62.606-5.046 15.052-8.085 27.913-9.626 39.63-35.625-15.785-82.573-22.102-130.185 5.707-38.923 22.755-59.765 62.31-54.404 103.229 4.893 37.23 30.35 66.475 66.42 76.386l26.864 7.377 6.574-27.063c.942-3.674 10.633-37.558 41.15-36.942 21.168.437 38.74 19.147 47.528 31.247-2.84 8.553-4.354 18.807-2.905 29.85l-11.946-15.933-21.615 16.117c-19.47 14.486-47.735 50.322-30.266 92.61 7.617 18.436 23.993 30.998 46.107 35.406 13.524 2.69 28.886 2.063 43.124-1.068 5.6 17.982 15.813 39.74 34.386 59.168L360.358 684l19.53-20.52c18.533-19.473 28.684-41.263 34.268-59.251 14.24 3.078 29.594 3.672 43.118.948 22.103-4.441 38.443-17.048 46.023-35.504 17.372-42.335-10.995-78.098-30.48-92.548l-21.657-16.048-11.91 15.956c1.43-11.046-.117-21.289-2.977-29.859 8.768-12.105 26.293-30.86 47.453-31.342 30.52-.683 40.277 33.174 41.298 37.043l6.627 27.052c-.042-.207 26.8-7.642 26.8-7.642 36.062-9.984 61.432-39.31 66.235-76.56 5.267-40.906-15.673-80.414-54.651-103.072"/><path d="M560.79 308.539c-58.502-34.018-112.013-8.33-139.115 10.396.505-4.488 1.026-8.94 1.026-13.518 0-14.83-2.866-30.82-9.992-51.906-7.41-21.93-15.595-43.076-22.822-61.738-9.877-25.51-18.4-47.543-21.72-63.019l-8.506-39.689-8.409 39.706h-.003c-3.287 15.481-11.76 37.509-21.572 63.038-7.19 18.69-15.329 39.873-22.694 61.844-7.068 21.108-9.95 36.843-9.95 51.515 0 4.693.54 9.279 1.09 13.89-27.169-18.654-80.705-44.16-139.09-10.037-32.429 18.967-49.85 51.51-45.468 84.957 3.9 29.755 24.233 53.166 53.065 61.089l8.554 2.345 2.127-8.638c.532-2.115 13.376-51.919 59.4-50.993 37.04.747 61.25 36.756 67.79 47.82-3.11 5.755-5.695 13.69-5.695 22.795 0 9.76 3.323 20.862 11.801 31.997-3.382 4.583-8.918 10.201-15.38 10.736-9.218.756-18.543-8.946-24.744-17.232l-5.171-6.903-6.92 5.163c-14.154 10.55-37.464 38.934-24.274 70.858 5.28 12.763 16.588 21.194 32.705 24.397 16.663 3.307 37.695.299 52.639-6.506 2.893 16.855 11.09 45.381 34.581 69.926l6.27 6.557 6.253-6.565c23.43-24.615 31.562-53.166 34.417-70.033 14.963 6.772 36.029 9.736 52.69 6.373 16.088-3.24 27.371-11.706 32.61-24.466 13.095-31.95-10.246-60.284-24.428-70.803l-6.923-5.14-5.163 6.925c-6.19 8.285-15.498 18.024-24.718 17.276-6.456-.524-12.007-6.122-15.397-10.686 8.42-11.112 11.717-22.175 11.717-31.913 0-9.158-2.61-17.124-5.751-22.895 6.518-11.073 30.656-47.163 67.68-47.99 46.017-1.032 58.99 48.746 59.519 50.868l2.15 8.6 8.553-2.341c28.802-7.988 49.081-31.434 52.912-61.201 4.316-33.46-13.176-65.973-45.644-84.859m-9.563 137.726s-14.363-58.65-68.109-57.437c-46.633 1.043-75.759 51.887-77.473 57.025 0 0 19.702 25.587-6.56 53.968 0 0 23.14 45.246 57.623-.987 0 0 35.585 26.402 21.573 60.574-12.774 31.124-69.742 21.35-84.398 6.738 0 0-.4 43.896-33.534 78.7l-.114.009c-33.199-34.724-33.7-78.62-33.7-78.62-14.626 14.648-71.558 24.556-84.413-6.537-14.102-34.136 21.444-60.615 21.444-60.615 34.574 46.154 57.618.833 57.618.833-26.331-28.311-6.685-53.957-6.685-53.957-1.728-5.127-30.96-55.904-77.604-56.83-53.752-1.095-67.973 57.585-67.973 57.585-56.394-15.5-67.468-94.025-5.523-130.23 78.586-45.936 147.314 23.606 147.314 23.606-6.415-26.067-8.291-45.566 4.475-83.702 17.313-51.694 38.599-97.926 44.523-125.83 5.977 27.899 27.358 74.056 44.8 125.719 12.865 38.102 11.05 57.598 4.669 83.693 0 0 68.569-69.712 147.27-23.954 62.02 36.054 51.135 114.629-5.223 130.25" style="fill:#fff"/><path d="M501.335 313.552c-64.047.061-116.566 72.795-116.566 72.795 2.28-11.899 29.66-65.446 4.884-129.449-24.779-63.99-29.836-89.773-29.836-89.773l-.003.019-.117.733v-.714s-5.01 25.783-29.636 89.847c-24.631 64.058 2.883 117.544 5.18 129.42 0 0-52.683-72.597-116.727-72.521-64.036.07-117.355 72.954-58.176 115.988 0 0 17.319-53.773 77.008-53.885 43.899-.091 87.875 46.996 89.735 70.334 0 0-20.095 28.376 7.845 52.12 0 0-30.185 63.501-72.037 17.76 0 0-32.184 40.263 9.903 50.012 33.39 7.725 66.277-26.15 66.277-26.15s-3.588 53.505 21.144 82.753v-.265l.122.251c24.668-29.295 20.952-82.807 20.952-82.807s32.97 33.804 66.363 25.992c42.056-9.841 9.77-50.035 9.77-50.035-41.733 45.834-72.052-17.586-72.052-17.586 27.865-23.817 7.7-52.14 7.7-52.14 1.801-23.318 45.658-70.526 89.574-70.54 59.7 0 77.141 53.718 77.141 53.718 59.077-43.177 5.585-115.96-58.448-115.877" style="fill:#d3bc8d"/></svg>