<svg xmlns="http://www.w3.org/2000/svg" xml:space="preserve" id="Layer_1" width="720" height="720" x="0" y="0" version="1.1" viewBox="0 0 720 720"><style>.st0{fill:#fff}.st1{fill:#f05333}</style><path d="M676.13 281.512c-39.13 3.105-79.545 9.012-120.786 17.77a496 496 0 0 0 7.662-21.795 2955 2955 0 0 1 114.29-18.453c7.743-.81 7.743-10.093-.324-10.644-33.7-2.625-68.73-3.35-104.692-2.093a865 865 0 0 0 4.217-16.523c-72.312-37.228-133.436-57.805-215.53-57.813-82.11 0-143.225 20.577-215.53 57.805l5.702 22.975c7.218 29.05 16.992 56.22 29.156 81.638-49.784 21.287-95.988 45.576-137.818 72.192-11.91 7.027-5.637 13.934 4.685 9.552 41.162-14.96 83.682-29.3 127.345-42.965a2296 2296 0 0 0-24.02 52.279c-6.026 13.633-16.49 34.564 3.693 43.338 1.961.508 3.93.865 5.971 1.023-30.832 21.368-59.567 43.87-85.952 67.15-10.664 9.458-2.692 14.31 6.146 8.72 58.471-32.342 120.214-63.84 184.712-93.966 29.189 28.371 61.013 51.612 95.91 72.559 78.528-47.078 137.461-102.651 177.615-185.698 47.18-17.016 93.797-32.555 139.557-46.586 8.178-1.746 8.059-11.378-2.009-10.465" class="st0"/><path d="M187.609 337.125a413 413 0 0 0 5.28 10.26 2748 2748 0 0 0-8.258 17.008c-47.872 14.776-94.361 30.37-139.295 46.695 43.068-27.378 90.773-52.31 142.273-73.963m377.548-85.198a581 581 0 0 1-6.273 20.851 3035 3035 0 0 1 117.667-19.044c-35.803-2.796-73.066-3.427-111.394-1.807" class="st1"/><path d="M554.756 239.644c-31.45 118.5-88.986 198.108-193.781 262.78-39.351-24.344-72.82-51.5-100.785-82.442 12.426-5.908 26.457-12.57 38.78-18.39 4.986.452 9.758.707 14.213.818-.27 6.829-2.422 11.847-5.868 15.428a502 502 0 0 0 6.09 6.836c5.423-4.859 8.917-12.045 9.203-22.225 12.744-.213 25.043-1.516 36.477-3.954-.65 18.684-3.255 32.428-8.567 37.875a1.5 1.5 0 0 0-.373.485 61 61 0 0 1-3.542 3.485 173 173 0 0 0 15.158-3.541c6.408-13.26 6.495-36.51 6.59-40.543 11.895-2.985 22.48-5.995 32.008-9.25.373 10.91 4.732 21.335 13.061 25.17 3.756-2.636 7.393-5.447 10.918-8.36-2.112.31-15.309 1.222-15.102-19.97 27.886-10.521 46.037-23.202 62.013-42.115 4.216-9.528 7.622-19.525 10.036-29.871-19.12 30.141-36.723 47.752-71.104 61.552.992-6.074 2.763-13.363 5.573-22.05 10.037-4.208 20.51-9.219 26.807-11.823l15.03-15.777c3.788-14.602 7.536-29.196 11.292-43.79l-11.752 3.66 13.816-14.53c2.89-11.419 5.748-22.852 8.607-34.278a2411 2411 0 0 0-20.787 3.116c1.159-5.708 1.977-11.37 2.421-17.019a393 393 0 0 0-10.044-2.399c-.714 6.349-1.945 13.388-3.827 21.229l-.96.159c-6.496 1.087-13.142 3.211-18.923 8.095l1.85-5.622c-11.14 2.013-22.24 4.057-33.357 6.213l-11.052 11.621.374-.945 3.58-9.294a2601 2601 0 0 0-32.92 6.952c-2.287-14.813-4.573-28.196-6.574-39.023-3.105.362-6.21.782-9.307 1.23a1388 1388 0 0 1 6.67 39.84l-7.765 1.74-9.878 10.402c-6.923-7.313-20.97-2.708-29.815-.477-9.591 2.43-19.183 4.93-28.752 7.52-2.858.786-5.708 1.66-8.495 2.612-7.178-10.355-13.92-21.006-19.478-32.5l-1.016-2.131a374 374 0 0 0-8.639 3.664l1.223 2.55c5.423 11.226 11.958 21.731 18.992 31.91-10.321 4.598-19.865 10.982-28.124 20.081 0 0-13.434 14.07-15.007 15.794-3.494 4.009-6.503 8.265-9.147 12.616-14.102-28.393-25.29-59.273-33.674-93.09 64.276-32.04 121.215-49.051 193.844-49.035 72.598 0 129.52 16.98 193.789 49.01M400.732 376.969c.627-6.17 1.977-13.236 4.224-21.422-3.462 1.199-6.638 2.096-9.227 2.525-1.7.174-3.207.127-4.525-.095l-3.137 3.263c-6.646 2.922-13.323 5.82-19.993 8.774.238 5.725.365 11.243.38 16.539 12.126-3.065 22.781-6.217 32.278-9.584m-41.782-2.898-5.28 2.335c-2.302-4.749-3.573-6.598-5.891-11.299l-3.582 9.894-16.087 12.934-6.273 2.906.295 2.303c12.942-.207 25.48-1.628 37.096-4.28 0-4.74-.087-9.687-.278-14.793" class="st0"/><path d="M368.454 386.553a429 429 0 0 0-.38-16.539c6.67-2.954 13.347-5.852 19.993-8.774l3.137-3.263c1.318.222 2.826.27 4.525.095 2.589-.429 5.765-1.326 9.227-2.525-2.247 8.186-3.597 15.253-4.224 21.422-9.497 3.367-20.152 6.52-32.278 9.584m31.905.46c-9.52 3.257-20.105 6.266-32 9.251-.095 4.034-.19 27.275-6.59 40.535a169.4 169.4 0 0 0 51.651-24.615c-8.33-3.843-12.688-14.268-13.061-25.17m-86.954 37.661a420 420 0 0 0 17.254 17.834 176 176 0 0 0 15.944-2.168 61 61 0 0 0 3.542-3.485c.08-.167.19-.31.373-.477 5.312-5.446 7.916-19.192 8.567-37.883-11.434 2.446-23.733 3.74-36.477 3.954-.278 10.188-3.772 17.366-9.203 22.225m-80.553-174.859a436 436 0 0 0-13.07 5.911 438 438 0 0 0 13.737 40.475c6.066-4.962 12.632-8.844 19.556-11.926-7.042-10.179-13.577-20.684-18.992-31.907zm96.203 21.312 9.878-10.402 7.766-1.743a1395 1395 0 0 0-6.67-39.836c-33.786 4.871-66.523 13.9-98.53 27l1.016 2.137c5.559 11.49 12.3 22.145 19.478 32.5a146 146 0 0 1 8.495-2.613c9.569-2.59 19.16-5.09 28.752-7.52 8.845-2.239 22.892-6.837 29.815.477m-33.801 132.22c3.915 4.915 7.94 9.75 12.061 14.49 3.446-3.58 5.598-8.598 5.868-15.427a208 208 0 0 1-14.213-.818zm58.416-26.941c-2.302-4.749-3.573-6.598-5.891-11.299l-3.582 9.894-16.087 12.934-6.273 2.906.295 2.303c12.942-.207 25.48-1.628 37.096-4.28 0-4.74-.087-9.687-.278-14.793zm100.345-157.218a400 400 0 0 1 7.172 1.75l.001-.014a367 367 0 0 0-7.173-1.736m-2.874-.635c.93.209 1.863.4 2.792.616-.93-.216-1.857-.437-2.789-.647zm28.095 7.366a408 408 0 0 0-18.049-4.982c-.445 5.646-1.262 11.303-2.42 17.007a2264 2264 0 0 1 20.787-3.116c-2.859 11.426-5.717 22.86-8.607 34.274l-13.816 14.53 11.752-3.66c-3.756 14.594-7.504 29.188-11.292 43.79l-15.03 15.785c-6.297 2.596-16.77 7.607-26.807 11.815-2.81 8.687-4.581 15.976-5.573 22.05 34.38-13.8 51.984-31.41 71.104-61.552 2.946-12.554 4.494-25.616 4.494-39.058 0-16.254-2.286-31.987-6.543-46.883m-79.163-11.033c-17.19 0-34.095 1.013-50.738 3.02 2 10.828 4.287 24.215 6.574 39.024a2601 2601 0 0 1 32.92-6.948l-3.58 9.293-.374.942 11.052-11.616c11.117-2.16 22.218-4.2 33.358-6.218l-1.85 5.626c5.78-4.884 12.426-7.007 18.921-8.095l.961-.159c1.879-7.833 3.109-14.858 3.824-21.202-1.885-.424-3.768-.854-5.658-1.25-14.935-1.611-30.054-2.417-45.41-2.417m53.942 4.302-.082-.019zm-44.779 164.657c-.207 21.201 12.99 20.28 15.102 19.978 20.04-16.714 36.2-37.914 46.91-62.084-15.975 18.913-34.126 31.586-62.012 42.106" class="st1"/><path d="M371.75 477.612a530 530 0 0 1-7.638 5.097c-30.832-20.89-58.345-45.49-82.11-73.097l13.252-6.265c3.915 4.915 7.94 9.75 12.053 14.49a458 458 0 0 0 6.098 6.837 415.6 415.6 0 0 0 58.345 52.938m-7.035-268.916c-59.123 1.592-114.815 15.29-168.602 40.683 6.05 21.223 13.625 41.749 22.661 61.456l6.177-6.479a77 77 0 0 1 8.568-8.155 436 436 0 0 1-13.737-40.479 456 456 0 0 1 13.07-5.915 380 380 0 0 1 8.662-3.66c31.992-13.106 64.721-22.13 98.523-27.005a339 339 0 0 1 9.298-1.238c16.643-2.014 33.548-3.026 50.754-3.026 15.34 0 30.459.814 45.394 2.426-26.258-5.483-53.12-8.37-80.768-8.608" style="fill:#fcbb30"/><path d="M360.967 177.333c-78.783 0-139.78 19.477-209.311 55.268l4.668 18.845c8.616 34.648 20.915 66.575 36.565 95.946a2249 2249 0 0 0-37.486 80.228c-4.717 10.648-14.856 29.37.532 36.057 14.094 3.668 27.656-5.789 39.892-12.014a3580 3580 0 0 1 32.602-16.38c3.59-1.779 10.569-5.162 19.358-9.37 31.627 35.453 69.66 66.007 113.18 92.083C476.322 448.853 537.97 362.7 570.247 232.6c-69.485-35.795-130.497-55.268-209.28-55.268m.008 325.092c-39.36-24.337-72.82-51.5-100.793-82.435 12.434-5.908 26.457-12.578 38.78-18.398 4.994.46 9.766.714 14.221.818-.27 6.829-2.43 11.847-5.876 15.428a578 578 0 0 0 6.09 6.836c5.431-4.859 8.925-12.037 9.203-22.225 12.752-.213 25.051-1.508 36.477-3.954-.643 18.691-3.247 32.428-8.559 37.883-.191.167-.302.31-.373.477-1.343 1.413-2.526 2.572-3.542 3.485a168 168 0 0 0 15.158-3.541c6.408-13.26 6.495-36.501 6.59-40.535 11.895-2.993 22.48-5.994 32-9.25.381 10.902 4.732 21.327 13.069 25.17a180 180 0 0 0 10.918-8.369c-2.112.31-15.309 1.231-15.102-19.97 27.886-10.52 46.03-23.193 62.013-42.114 4.216-9.528 7.614-19.525 10.036-29.871-19.12 30.141-36.723 47.752-71.104 61.552.984-6.074 2.763-13.363 5.573-22.05 10.037-4.208 20.51-9.219 26.799-11.815l15.038-15.785c3.788-14.602 7.528-29.196 11.283-43.79l-11.751 3.66 13.824-14.53c2.89-11.41 5.748-22.848 8.599-34.274a2168 2168 0 0 0-20.779 3.116c1.151-5.708 1.977-11.37 2.421-17.02a387 387 0 0 0-10.052-2.402c-.706 6.353-1.937 13.388-3.819 21.233l-.96.159c-6.504 1.088-13.142 3.211-18.923 8.095l1.85-5.626c-11.14 2.017-22.247 4.061-33.357 6.218l-11.06 11.616.373-.942 3.59-9.293a2532 2532 0 0 0-32.92 6.948c-2.296-14.809-4.582-28.196-6.575-39.023-3.105.366-6.21.782-9.314 1.23a1373 1373 0 0 1 6.67 39.84l-7.758 1.74-9.885 10.402c-6.916-7.313-20.963-2.708-29.816-.477a1932 1932 0 0 0-28.744 7.52 147 147 0 0 0-8.495 2.62c-7.186-10.363-13.92-21.014-19.486-32.503l-1.008-2.132a357 357 0 0 0-8.647 3.66l1.23 2.553c5.416 11.223 11.959 21.728 18.993 31.908-10.321 4.597-19.865 10.981-28.132 20.088 0 0-13.426 14.063-14.999 15.786-3.494 4.009-6.503 8.273-9.147 12.616-14.102-28.354-25.29-59.281-33.674-93.087 64.276-32.042 121.215-49.054 193.844-49.038 72.598 0 129.52 16.98 193.78 49.015-31.45 118.495-88.985 198.104-193.772 262.777M321.837 390.84l6.265-2.906L344.19 375l3.58-9.902c2.327 4.709 3.59 6.558 5.9 11.307l5.28-2.343c.183 5.106.278 10.06.278 14.8-11.624 2.645-24.162 4.074-37.104 4.28zm46.237-20.827c6.67-2.954 13.347-5.852 19.993-8.774l3.137-3.263c1.318.222 2.826.27 4.525.095 2.589-.437 5.765-1.326 9.227-2.525-2.247 8.194-3.597 15.26-4.224 21.422-9.497 3.367-20.152 6.52-32.278 9.584a428 428 0 0 0-.38-16.539" style="fill:#1e3160"/><path d="M451.192 268.03c.826-2.962 1.627-5.94 2.453-8.905q-5.207 1.072-10.425 2.203c-4.908 16.929-9.87 33.842-14.808 50.77 3.914-1.445 7.82-2.858 11.751-4.312 1.302-4.716 2.612-9.464 3.939-14.173 5.66-1.818 11.266-3.613 16.928-5.383a5618 5618 0 0 1-8.155 31.459 3042 3042 0 0 0-32.142 13.49c-3.374 1.438-6.773 2.922-10.377 3.518-10.585.897-7.171-11.117-5.075-17.707 5.328-16.698 10.664-33.389 15.984-50.055 1.81-5.582 3.97-10.807 8.052-15.206 4.97-5.01 10.996-7.13 17.666-8.245 8.37-1.382 16.778-2.68 25.163-3.907a4688 4688 0 0 1-5.756 22.872c-5.067 1.151-10.132 2.374-15.198 3.58m-130.64 31.888a3799 3799 0 0 0-21.693 52.31c-3.303 8.123-6.654 16.262-11.156 23.852-11.299 17.977-27.958 29.173-46.537 38.375a3791 3791 0 0 0-32.658 16.405c-9.997 5.089-24.163 14.602-35.486 11.664-10.226-4.446-.62-21.59 2.518-28.64a2226 2226 0 0 1 37.596-80.411c4.463-9.02 9.243-17.818 15.944-25.504 11.68-12.91 26.275-19.906 42.623-24.344 9.529-2.605 19.089-5.098 28.633-7.536 7.019-1.746 23.161-7.575 26.266 1.97 1.533 7.122-3.287 15.34-6.05 21.859m-33.62 1.834a2218 2218 0 0 0-22.78 7.075c-13.522 28.536-26.48 57.304-38.978 86.262a2324 2324 0 0 1 25.869-11.696c11.56-27.378 23.503-54.597 35.89-81.64m120.78-32.952c2.556-.595 5.105-1.207 7.654-1.803a14758 14758 0 0 0 5.74-17.452c-7.4 1.342-14.792 2.723-22.168 4.157a3249 3249 0 0 0-35.494 47.272 6503 6503 0 0 1 16.563-43.48 1783 1783 0 0 0-37.128 8.05c-3.216 7.472-6.4 14.952-9.544 22.448 2.644-.747 5.336-1.485 7.996-2.216-9.727 23.527-19.207 47.157-28.498 70.82-3.819 9.63-7.599 19.262-11.386 28.885a4158 4158 0 0 1 37.272-17.396 5735 5735 0 0 1 17.08-46.617 4725 4725 0 0 1 15.72 31.816 3232 3232 0 0 1 24.107-10.616 3998 3998 0 0 0-14.88-33.453 4063 4063 0 0 1 26.965-40.415" class="st0"/><path d="M247.795 425.897a409 409 0 0 0 18.358 19.35C200.33 475.96 137.34 508.014 77.748 541.006c37.12-32.817 78.95-64.022 124.78-92.741 8.615-4.384 17.254-8.695 25.901-12.99 3.581-1.764 10.576-5.154 19.366-9.378m298.973-119.278c-3.804 9.504-7.806 18.723-12.093 27.664 47.998-17.357 95.37-33.174 141.876-47.427-41.956 3.343-85.429 9.91-129.783 19.763M492.1 230.004a352 352 0 0 1 14.586 5.157c11.918 4.423 22.463 8.949 31.19 13.122-26.918 92.352-82.04 169.817-159.805 224.937l-6.337 4.392c-22.772-17.048-36.215-30.443-36.215-30.443l10.719-1.755c32.523-5.431 63.863-20.144 89.772-44.33 44.164-41.202 62.1-100.031 53.01-155.47-.224-1.258-.477-2.512-.7-3.767l-.087-.536-.111-.583-.135-.616-.112-.588-.127-.639-.127-.591-.15-.675-.151-.639-.12-.588-.095-.508-.182-.71-.143-.667-.135-.497-.088-.5-.127-.489c-.5-1.989-.944-3.68-1.397-5.316 2.39.767 4.74 1.533 7.067 2.299m.85 1.08c4.755 1.628 9.662 3.339 14.332 5.102a414 414 0 0 0-14.332-5.102" style="fill:#0a7ec2"/></svg>