<svg xmlns="http://www.w3.org/2000/svg" xml:space="preserve" width="720" height="720" viewBox="0 0 720 720"><path d="M377.363 275.095c-68.166 72.11-190.66 70.86-271.266-3.651-.847-.784-1.718-1.526-2.556-2.326-4.839-5.408-7.116-3.13-7.4 1.139V423.96c85.96 12.81 188.715 4.27 261.582-101.9 3.131-4.554 4.84-1.423 2.847 2.562-20.21 41.272-68.314 79.414-109.871 112.147-39.85 31.31-146.873 143.458-145.45 242.227 0 7.685.285 5.408 7.116.57 27.573-20.56 77.504-24.004 115.826-13.24 6.776 1.904 13.233 4.197 19.093 6.977 5.408 2.562 5.977 1.708 5.123-5.123-.807-8.349-1.27-16.785-1.507-25.242-1.931-69.106 14.754-140.032 43.918-183.398 9.985-14.914 27.543-40.289 44.906-69.8 11.99-20.38 23.884-42.719 33.124-64.997 7.514-18.114 13.275-36.173 15.9-53.064 1.14-7.116-2.561-5.978-11.385 3.415" style="fill:#c8102e"/><path d="m132.29 128.795 12.808-9.394 13.375 9.394-5.122-15.373 13.666-9.677H150.22l-4.838-15.656-5.122 15.656h-16.506l13.375 9.677zm7.112 93.928 13.383-9.96H136.27l-4.838-15.656-5.122 15.655h-16.789l13.659 9.96-2.319 7.367-2.52 8.006 12.808-9.393 13.091 9.393zm-26.182-41.556 12.808-9.676 13.092 9.676-4.84-15.656 13.666-9.676h-16.513l-5.405-15.656-4.838 15.656h-16.797l13.665 9.676zm175.047-91.37 13.1-9.394 12.807 9.394-4.838-15.373 13.658-9.96h-16.79l-5.12-15.372-4.84 15.372h-16.796l13.665 9.96zm69.17 130.077-5.122-15.655-4.838 15.655H330.68l13.383 9.678-4.84 15.655 13.092-9.676 13.092 9.676-4.84-15.372 13.383-9.96zM167.866 259.44l-5.121-15.656-4.838 15.655H141.11l13.666 9.96-5.122 15.373 13.09-9.677 13.383 9.677-1.719-5.15-3.41-10.223 13.381-9.96zm196.407-96.776-1.246-4.026-3.6-11.63-4.416 13.499-.705 2.157H337.8l2.092 1.557 11.283 8.403-4.84 15.372 13.093-9.393 13.098 9.393-5.121-15.372 13.657-9.96zm-29.037-44.12-5.122 15.372 13.09-9.393 13.092 9.393-4.838-15.372 13.665-9.96h-16.797l-5.121-15.373-4.839 15.373h-16.789zm228.926 310.039c-12.348-6.117-26.384-9.46-41.919-9.46-3.507 0-7.022.187-10.52.547-24.032 2.473-47.149 13.482-60.07 33.609h-.569l.022-.314.72-10.083 2.105-29.453c1.708-27.04 7.685-100.477 45.257-100.477 2.137 0 3.944.36 5.506.976 11.542 4.557 8.679 24.223 10.434 33.75 1.709 8.943 4.23 18.361 8.275 26.832 3.659 7.662 8.596 14.513 15.376 19.506a40 40 0 0 0 4.643 2.971c6.163 3.35 13.596 5.342 22.656 5.342 25.705 1.16 47.483-18.737 48.643-44.442q.076-1.688.03-3.378c0-9.74-1.646-18.791-4.595-27.094-2.914-8.205-7.162-15.63-12.48-22.203-8.128-10.047-18.728-18.105-31.078-23.674-12.965-5.845-27.789-9.004-43.5-9.004-64.1 0-109.122 24.354-138.208 63.486-12.082 16.254-21.383 35.078-28.183 55.752-9.76 29.674-14.354 63.163-14.354 98.51 0 19.233 1.39 37.971 4.353 55.743 1.635 9.809 3.769 19.309 6.4 28.445 11.053 38.388 31.162 70.144 62.827 89.238 20.699 12.48 46.324 19.559 77.563 19.559 55.45 0 102.677-30.476 121.525-83.694 5.629-15.896 8.838-33.732 8.838-53.502-.037-4.82-.264-9.544-.629-14.19-3.784-48.16-24.933-86.386-59.068-103.298m-47.896 128.873c.285 45.542-6.261 85.107-32.448 85.107-30.74 0-29.603-39.565-29.603-85.106v-.009c.002-45.538 4.271-84.814 29.603-84.814 31.025 0 32.448 39.279 32.448 84.82zM328.973 275.378l13.382-9.96h-16.797l-4.838-15.655-4.838 15.655h-16.797l13.666 9.96-5.122 15.373 13.374-9.394 10.833 7.945 1.975 1.45-.654-2.08zM253.258 61.333l13.666-9.677h-16.797L245.289 36l-5.122 15.656H223.37l13.665 9.677-5.122 15.372 13.375-9.393 12.807 9.393zm23.059 229.702-5.121-15.657-5.13 15.657H249.56l13.374 9.96-1.023 3.25-3.816 12.122 13.1-9.393 13.09 9.393-4.109-12.335-1.012-3.037 13.658-9.96zm-42.129-1.991h-16.789l-5.13-15.656-4.837 15.656h-16.79l13.658 9.96-4.839 15.372 12.808-9.393 13.382 9.393-5.121-15.655.777-.551zm-39.565-214.62 13.382-9.96h-16.512l-5.123-15.372-5.121 15.372h-16.513l13.382 9.96-4.839 15.373 13.091-9.394 13.091 9.394z" style="fill:#1d428a"/></svg>