<svg xmlns="http://www.w3.org/2000/svg" xml:space="preserve" width="720" height="720" viewBox="0 0 720 720"><path d="m684 269.263-87.313-34.24 22.256-93.734-74.045 33.813-38.52-80.465-59.493 59.064-107.001-47.936-14.552 95.445-95.446 20.972 56.497 33.813-56.925 28.676 48.365 4.28L79.229 443.033l199.878-106.145-214.003 163.07 227.7-118.558L49.267 564.16l268.36-142.954L36 625.363 348.016 454.59 136.153 625.363l257.231-147.662-4.28 29.96 42.8-23.967 96.73 91.593 51.36-154.938 74.474-4.708-37.665-93.734z" style="fill:#f9a01b"/><path d="M458.012 161.405c-85.526-3.416-157.69 63.02-161.341 148.537-3.659 85.683 62.835 158.11 148.518 161.768 85.684 3.659 158.11-62.835 161.769-148.518 3.542-85.805-63.141-158.237-148.946-161.787" style="fill:#e56020"/><path d="M470.852 450.737c-85.68-3.41-152.375-75.631-148.966-161.312a155.26 155.26 0 0 1 43.677-101.911c-71.387 47.76-90.542 144.346-42.782 215.734a155.52 155.52 0 0 0 122.39 68.89 156.42 156.42 0 0 0 118.13-47.081 151.83 151.83 0 0 1-92.449 25.68" style="fill:#b95915"/><path d="M606.53 302.22a71.6 71.6 0 0 0-32.1-12.84c-2.569 0-4.709-.429-7.277-.429a183.7 183.7 0 0 0-6.848-30.388c1.546.336 3.127.48 4.708.428a397 397 0 0 1 32.529 3.852 101 101 0 0 0-5.136-11.984c-11.557-1.712-23.969-2.996-36.38-3.852a182.6 182.6 0 0 0-14.125-29.105 40.77 40.77 0 0 0 20.544-10.272c-2.996-2.996-5.992-5.564-8.988-8.56a32.8 32.8 0 0 1-18.832 8.132c-1.284-1.712-2.568-3.424-3.424-4.708a176 176 0 0 0-36.38-35.096 147 147 0 0 0-36.81-5.993H456.3a152.4 152.4 0 0 1 61.633 45.797 307.7 307.7 0 0 1-53.501-12.412c-5.564-1.712-10.7-2.996-15.836-4.708a220 220 0 0 0-73.617-8.56 158.3 158.3 0 0 0-36.38 28.676c19.688-8.132 59.064-21.828 107-8.56 5.137 1.284 10.273 2.568 15.837 4.28 20.972 6.42 44.94 13.268 65.485 13.268a204 204 0 0 1 14.552 26.964 116 116 0 0 0-11.984-.428c-100.154-1.712-185.326 27.82-232.835 75.757a149.6 149.6 0 0 0 2.996 27.82c13.268-19.26 33.384-36.808 59.065-51.36 47.936-26.964 112.137-41.089 180.19-40.232 2.568 0 4.708.428 7.276.428a186 186 0 0 1 7.704 30.388c-44.085 2.14-72.333 29.104-105.29 58.637-29.104 26.108-65.056 52.216-117.273 68.052a150 150 0 0 0 16.264 16.693c49.221-19.688 81.75-50.505 109.57-75.33 31.672-28.248 58.636-55.212 98.013-56.496a145.2 145.2 0 0 1 0 33.385c-5.136 60.776-40.66 112.565-88.597 138.245a158.8 158.8 0 0 0 35.524-7.704c3.853-3.424 7.704-6.848 11.129-10.272a188.75 188.75 0 0 0 55.212-118.985 152.6 152.6 0 0 0 0-34.241c2.14.428 4.28.428 5.992.856a58.43 58.43 0 0 1 32.529 17.12c.29-5.424.148-10.862-.428-16.264"/></svg>