<svg xmlns="http://www.w3.org/2000/svg" xml:space="preserve" width="720" height="720" viewBox="0 0 720 720"><path d="M582.34 209.908a230.8 230.8 0 0 0-32.927-39.64 190 190 0 0 0-16.624-15.026L652.351 36H304.854L170.587 170.267l-.32.32a297 297 0 0 0-32.927 39.64 273.7 273.7 0 0 0-24.616 45.716 267.93 267.93 0 0 0 0 208.434 258.8 258.8 0 0 0 24.616 45.395 230.8 230.8 0 0 0 32.928 39.64 152.5 152.5 0 0 0 16.623 15.346L67.65 684h347.497l134.586-134.907a263.2 263.2 0 0 0 57.224-84.716 267.94 267.94 0 0 0 0-208.434 236.4 236.4 0 0 0-24.616-46.035"/><path d="M534.068 185.932c-5.115-5.435-10.87-10.55-16.304-15.345L371.988 317.003a46.75 46.75 0 0 1 19.82 11.508c17.264 17.692 17.264 45.925 0 63.617L121.357 662.581h31.968l254.15-254.469c26.23-26.236 26.514-68.679.638-95.266l15.665-15.664c34.87 34.98 34.782 91.604-.198 126.474l-.122.12-238.484 238.805h31.649l222.82-222.82c43.566-43.826 43.708-114.562.32-158.563l15.664-15.665c52.437 52.526 52.366 137.616-.16 190.053l-.16.16L248.27 662.58h31.65l191.17-191.17c61.308-61.196 61.451-160.489.32-221.861l15.984-15.984c69.834 70.303 69.548 183.878-.639 253.829L311.568 662.58h31.968L502.74 503.058c78.833-78.574 79.042-206.177.468-285.01l-.148-.148 15.984-15.985c87.396 87.72 87.134 229.678-.585 317.073l-.054.054-143.219 143.539h31.649l127.554-127.554c95.977-96.626 95.834-252.645-.32-349.095" style="fill:#fff"/><path d="m328.792 328.55.039-.039L599.284 57.74h-31.649L312.847 312.527c-26.303 26.257-26.446 68.832-.32 95.266l-15.984 15.664c-34.784-34.843-34.735-91.287.109-126.07q.264-.263.53-.525L535.986 57.74h-31.648l-223.14 223.139c-43.726 43.76-43.869 114.628-.32 158.563l-15.984 15.665c-52.18-52.72-52.037-137.668.32-190.212L472.687 57.739H441.04l-191.49 191.49c-61.309 61.196-61.452 160.489-.32 221.861l-15.985 15.985c-69.763-70.281-69.62-183.724.32-253.83L409.072 57.74h-31.65l-159.52 159.84c-78.82 78.611-79.106 206.196-.64 285.159l-15.665 15.985c-87.483-87.63-87.365-229.589.265-317.073l.055-.054L345.774 57.739h-31.649L185.932 185.932c-96.047 96.398-95.762 252.405.636 348.453l.003.003a182 182 0 0 0 16.304 15.025l145.776-145.776a43.26 43.26 0 0 1-19.82-11.509c-17.567-17.546-17.585-46.01-.039-63.578" style="fill:#cf0a2c"/></svg>