<svg xmlns="http://www.w3.org/2000/svg" xml:space="preserve" id="Layer_1" width="720" height="720" x="0" y="0" version="1.1" viewBox="0 0 720 720"><style>.st0{fill:#fff}</style><path d="m562.711 117.609-67.937-67.852-68.25 67.861-67.823-67.86-67.799 67.85-67.844-67.85-67.786 67.886L76 37.627v361.35C76 556.131 202.078 684 359.14 684c157.297-.217 284.733-127.725 284.86-285.023V36z" class="st0"/><path d="M380.931 331.163v96.201H343.73v-89.736h-29.324v89.734H275.37V315.493h93.961c6.39 0 11.597 7.147 11.6 15.67m16.447-15.67v95.968c0 8.542 5.165 15.903 11.535 15.903h93.868v-67.92l-37.477-.043v45.8h-29.311v-68.116h66.79v-21.592zm-225.892 0-21.232 45.176h-12.262v-45.176H99.138v111.87h38.854V382.35h12.262l21.232 45.013h38.818l-27.379-55.855 27.379-56.015zm49.156 111.87h40.224v-111.87h-40.224zM610.725 360.6h-54.18v-23.425h27.104v8.575h37.32v-30.257H517.835v51.108c0 8.521 5.174 15.444 11.531 15.444h52.55v24.381h-64.08v20.938h103.186v-51.353c0-7.945-4.389-15.411-10.297-15.411m10.236-151.755V92.246l-109.709 109.79h-32.934l67.925-67.957-51.468-51.377-68.25 67.848-67.823-67.848L239.46 202.035h-32.93l67.808-68.06-51.28-51.273-67.785 67.848-56.131-55.72v200.134h521.82z" style="fill:#5b2b82"/><path d="M213.135 237.442h34.575v7.86h-23.9v25.554h23.9v7.879h-29.324a5.28 5.28 0 0 1-5.251-5.274zm-13.233 5.26v36.03h-10.676V267.93h-13.23v10.803h-10.668V237.44h28.71q.186-.016.373-.02a5.39 5.39 0 0 1 5.49 5.283m-10.674 2.608h-13.233v14.765h13.233zm412.35-2.643v30.78a5.287 5.287 0 0 1-5.234 5.284H572.15a5.28 5.28 0 0 1-5.234-5.268v-30.796a5.243 5.243 0 0 1 5.234-5.227h24.193a5.24 5.24 0 0 1 5.234 5.227m-10.72 2.626h-13.185v25.501h13.186zM117.484 256.76a5.27 5.27 0 0 0 5.259 5.253h18.638v8.838h-23.897v7.879h34.575v-19.335a5.23 5.23 0 0 0-4.694-5.218l-.292-.026H128.14V245.3h23.918v-7.86h-34.575zm224.994-14.058v36.03h-10.684V267.93h-13.232v10.803h-10.676V237.44h29.305a5.29 5.29 0 0 1 5.287 5.263m-10.686 2.607H318.56v14.765h13.232zm188.614-.02h11.97v33.44h10.654v-33.44h11.956v-7.85h-34.58zm-110.682-7.85h-53.085v41.295h10.674v-33.43H380.4v33.43h10.818v-33.43h13.08v33.43h10.677v-36.04a5.28 5.28 0 0 0-5.253-5.255m94.605 0h-29.31v41.295h10.669v-33.43h13.232v33.43h10.677v-36.04a5.28 5.28 0 0 0-5.268-5.255m-74.817 36.021a5.27 5.27 0 0 0 5.253 5.274h29.296v-7.879h-23.873v-8.851h23.873v-7.844h-23.873v-8.859h23.873v-7.86h-34.55zm-140.646-9.752 6.325 15.024h-10.398l-6.389-15.022h-7.74v15.022h-10.667V237.44h28.714q.153-.012.306-.017a5.416 5.416 0 0 1 5.558 5.27v21.016zm-4.97-18.407h-13.23v10.555h13.23z" class="st0"/><path d="M140.9 543.602a259.9 259.9 0 0 1-39.545-95.134v-.002h111.966c2.695 13.165 5.872 25.836 9.436 37.754-46.413 10.934-70.045 36.667-81.856 57.382m90.778-31.128c-45.095 9.829-64.183 35.392-72.258 55.614a263.21 263.21 0 0 0 198.525 93.172 244 244 0 0 1-20.964-12.05c-32.277-20.863-76.65-61.465-105.303-136.736m51.801-5.027c-7.89 0-15.952.381-24.017 1.076 20.336 51.125 51.061 90.41 91.388 116.78a205.6 205.6 0 0 0 69.064 28.995 263.7 263.7 0 0 0 114.134-58.878c-25.717-2.816-52.085-17.616-79.919-33.224-43.459-24.394-97.58-54.749-170.65-54.749m-42.383-58.966c2.625 11.425 5.204 22.788 8.654 33.242a253 253 0 0 1 28.034-1.576c55.595-1.13 110.574 12.79 180.73 52.768 51.855 29.547 74.637 38.509 90.185 34.682 14.328-3.524 27.616-11.987 51.064-61.543a258 258 0 0 0 18.5-57.573z" style="fill:#5c6670"/></svg>