<svg xmlns="http://www.w3.org/2000/svg" xml:space="preserve" width="720" height="720" viewBox="0 0 720 720"><path d="M230.979 388.157h39.728l-11.957 30.086zm-47.444 135-63.257 93.729 103.757-33.943L266.078 684l31.629-108.771 116.871 30.085-75.6-87.557 90.644-75.214-81 5.014 53.614-60.171h104.528l119.572-211.758V36h-84.857l-40.5 72.129-7.715 54.385L432.321 270.9h-55.928l54.771-96.814v-137.7h-87.943l-39.342 71.743-6.943 54.771-95.658 170.872 14.658 37.8-18.515-20.058 7.715 102.986-111.472 5.014z" style="fill:#fff"/><path d="m511.391 115.07-6.17 52.845-65.956 117.64h-86.4L417.28 171.77V50.273h-66.73l-35.485 64.798-5.4 52.844-94.116 167.399 15.814 38.958h58.244l-26.615 67.5-49.758-54.002 5.788 79.46-86.788 3.855 69.045 48.213-48.988 72.901 79.072-25.457 32.399 78.301 25.075-85.63 87.941 22.372-57.087-65.572 69.816-57.857-72.126 4.63 78.297-88.714h102.984l113.786-201.727V49.885h-64.027z"/><path d="m588.535 68.015-21.985 40.498h-31.24l23.143-40.498zm-194.785 0h-32.016l-22.756 40.498h33.944zm-29.314 57.087h-29.7l-3.856 35.097h30.471zm162.387 35.097h30.083l3.086-35.097h-29.314zm-6.17 21.602h31.628l-81.387 145.415h-91.8L273.405 486.9h3.473l50.916-3.473-36.26 30.088 29.701 34.327-45.903-11.954-12.724 44.353-16.972-40.498-40.89 13.5 25.076-37.8-35.872-25.458 45.128-1.928-3.085-40.885 30.083 32.4 66.778-152.356h-91.078L324.71 181.8h32.012l-68.658 119.957h164.314zM265.306 511.586c.047-7.41-5.922-13.454-13.331-13.5h-.169c-7.456.216-13.324 6.436-13.108 13.892.207 7.151 5.956 12.9 13.108 13.108 7.278.177 13.323-5.579 13.5-12.857q.007-.322 0-.643" style="fill:#c4ced4"/></svg>