<svg xmlns="http://www.w3.org/2000/svg" xml:space="preserve" width="720" height="720" viewBox="0 0 720 720"><path d="M579.185 451.568a487.6 487.6 0 0 0-84.814-7.024h-389.5c-24.31 0-49.7 0-62.126-19.987-13.505-19.989-5.942-39.977 15.667-79.413 1.62-3.241 68.608-128.573 68.608-128.573a122 122 0 0 0 13.505 14.046c7.023 5.402 14.046 8.103 32.414 8.103 32.953 0 246.34-.54 248.502-.54 43.217 0 86.975 4.322 115.067 35.655 15.126 1.62 62.125 7.563 101.562 26.47 22.689 10.805 37.815 27.012 43.758 47a72.5 72.5 0 0 1 2.16 18.908c0 18.907-7.022 39.976-20.528 62.125-29.712 45.919-56.723 62.126-57.804 62.666a66.5 66.5 0 0 1-32.953 12.425 109 109 0 0 0 19.448-32.954c4.862-16.746-12.966-18.907-12.966-18.907" style="fill:#fff"/><path d="M633.208 310.57c-44.839-21.61-102.102-25.931-102.102-25.931-24.85-30.792-66.988-35.114-109.665-35.114 0 0-215.009.54-248.502.54-38.896 0-42.678-15.667-42.678-15.667l-52.402 97.78h135.596c42.678 0 44.839-4.321 72.93-25.39 30.253-22.149 54.022-29.712 82.654-29.712 28.092 0 47 5.942 78.873 19.988 31.333 14.046 48.08 21.069 66.987 12.965 0 0-14.586 19.989-59.424 1.08-44.839-18.367-56.724-22.688-84.275-22.688-26.47 0-57.264 12.965-95.62 51.32l45.92 36.736s-10.805 16.747-17.828 27.01c-7.022 10.265-6.482 17.288-2.7 22.69 3.78 4.862 8.643 7.023 25.39 7.023H494.37a513.4 513.4 0 0 1 86.975 7.563c43.218 8.644 15.127 44.839 15.127 44.839s29.172-18.908 57.263-63.747c31.873-49.7 23.77-90.217-20.528-111.285m-244.18-3.782c-2.702 4.322-4.863 9.184-6.483 11.885-4.862 9.184-16.747 28.632 28.632 31.873 39.436 2.701 53.482-2.16 63.746-17.287a58.7 58.7 0 0 0 19.448 0c-3.782 8.644-13.506 27.011-54.563 27.011H395.51c-23.77 0-41.057-2.701-66.988-28.632 0 0 25.39-27.01 60.505-24.85m62.125 97.24c-32.413-1.62-52.942 3.241-62.666 18.368H371.74c13.506-24.31 37.276-29.172 63.746-29.172 55.103 0 134.516 18.908 178.814 44.838-35.655-13.505-82.114-29.172-163.147-34.034m169.63 24.31C582.967 408.89 512.198 383.5 423.06 383.5c-39.436 2.16-54.022 9.724-74.01 39.436h-21.609c18.368-32.413 36.195-51.321 74.55-51.321h47c27.551 0 42.137 1.62 58.344-30.793.54-1.08 1.08-1.62 1.62-2.701a59.08 59.08 0 0 1 42.678-36.195s-17.287 11.345 2.701 16.207c40.517 5.942 119.93 20.528 66.448 110.205" style="fill:#024"/><path d="M454.934 328.937a9.1 9.1 0 0 1-2.7-1.08 19.71 19.71 0 0 1-17.288 5.942c-9.183-1.08-14.046-7.563-11.344-14.046a7.7 7.7 0 0 1 1.08-3.24c-4.322-1.621-9.184-3.242-13.505-4.863-9.184 14.586-14.046 24.31 17.287 27.011 19.448 1.62 24.85-1.62 29.172-8.643-1.08-.54-1.621-.54-2.702-1.08" style="fill:#69be28"/><path d="M296.65 385.12s-12.966-10.804-27.552-22.149c-14.046-10.805-21.068-12.425-47.54-12.425H68.137c-23.23 42.137-24.85 54.563-16.207 68.068 8.644 13.506 25.93 14.586 52.942 14.586h180.434c-11.345-13.505-4.862-19.988 11.345-48.08" style="fill:#a5acaf"/></svg>