<svg xmlns="http://www.w3.org/2000/svg" xml:space="preserve" width="720" height="720" viewBox="0 0 720 720"><path d="M603.109 273.228c-27.25-27.085-61.284-44.427-98.58-50.265-28.978-26.538-61.044-32.185-83.074-32.185-16.474 0-27.647 3.183-28.115 3.318l1.204 17.368c5.991.866 8.975 3.175 9.858 4.286-1.023.296-2.98.647-6.509.647l-.383.003c-9.699 0-18.93-6.483-26.714-12.853-1.731-1.402-3.659-3.008-5.74-4.74-9.066-7.55-21.483-17.89-33.161-24.347-12.171-6.821-27.262-10.426-43.643-10.426-21.028 0-41.92 5.95-58.832 16.753l-.655.419c-13.364-12.901-28.579-22.914-45.396-29.857-18.886-7.795-39.837-11.748-62.272-11.748-17.18 0-35.134 2.311-53.363 6.869l-32.62 8.155 32.38 9.06c32.426 9.073 53.595 27.722 66.619 58.69 13.166 31.305 24.777 49.836 49.659 61.043a136 136 0 0 1-4.058-1.475c-7.042-2.76-31.135-14.661-45.517-51.872L117 233.78c2.777 49.622 13.55 79.117 37.206 101.829 11.192 10.667 30.678 21.143 61.336 32.974 2.59.997 5.11 1.941 7.568 2.862 4.212 1.58 8.172 3.063 11.93 4.6v16.132c0 .799.133 19.818 11.747 42.227 10.346 19.962 32.128 46.63 77.303 61.606 7.37 11.656 15.9 22.358 25.39 31.846 33.882 33.883 79.007 52.543 127.063 52.543 48.082 0 93.161-18.785 126.919-52.879 33.937-34.104 52.534-79.29 52.367-127.205 0-48.122-18.721-93.254-52.72-127.086m-351.842 113.88-3.495-5.049c4.402 2.47 8.558 5.34 12.58 8.946 3.473 3.098 5.15 5.423 5.959 6.905-6.913-1.175-13.22-8.219-15.044-10.803m31.295-166.45c-4.99 0-11.282-1.489-15.022-3.548-8.495-5.095-16.668-12.268-22.834-18.678 12.317 1.979 25.605 6.077 33.885 12.96 3.942 3.302 6.48 6.858 7.473 8.959-.806.166-1.96.307-3.502.307" style="fill:#fff"/><path d="M596.83 279.544c-26.482-26.323-59.984-43.074-96.358-48.18-47.38-45.306-104.653-28.714-104.653-28.714 12.125 1.754 20.26 9.093 17.07 17.069-2.073 5.265-10.848 5.584-14.995 5.584-12.764.16-23.93-7.657-32.704-14.837-9.254-7.497-24.09-20.74-37.65-28.237-25.047-14.038-64.609-12.283-93.325 6.063 17.23 1.116 37.81 6.061 50.093 16.272 6.86 5.743 15.633 17.07 8.455 22.495-6.221 4.625-21.697 2.234-29.674-2.234-12.284-7.338-23.611-18.346-30.311-26.324-45.47-53.603-109.92-56.634-162.884-43.392 34.777 9.731 58.07 29.674 72.428 63.813s25.526 48.818 49.137 58.07c14.835 5.743 18.824 6.86 17.707 13.401-1.756 9.572-19.303 4.947-32.703-.159-16.274-6.38-37.81-23.93-50.573-56.952 2.393 42.755 10.531 72.907 34.46 95.88 10.21 9.73 29.035 19.781 58.388 31.109 18.665 7.179 33.66 11.645 47.542 24.089 16.272 14.517 9.411 24.25-1.438 22.333-12.283-2.073-20.897-14.517-20.897-14.517s0 69.557 85.987 96.358c7.18 11.806 15.793 22.973 25.845 33.024 32.224 32.225 75.139 49.935 120.765 49.935s88.54-17.869 120.606-50.255c32.225-32.384 49.934-75.3 49.775-120.924 0-45.63-17.709-88.544-50.093-120.77" style="fill:#024"/><path d="M587.735 288.16c-25.684-25.685-58.548-41.32-93.965-45.308-30.471-30.471-61.1-29.035-61.1-29.035 13.4 8.456 6.54 27.12-23.293 31.109-29.513 4.148-66.844-5.902-85.19-27.12-18.826-21.857-33.023-22.973-33.023-22.973 16.272 10.21 17.389 22.336 27.279 41s30.31 25.365 48.019 26.481c18.664 1.277 19.144 9.733 4.147 18.666-16.432 9.731-30.95.479-41.639-9.892-16.75-16.431-33.341-19.622-56.314-19.303-22.973.32-53.284 3.35-78.968-6.222s-42.592-43.393-42.592-43.393c12.761 44.83 40.84 66.047 67.002 71.15 34.46 6.86 58.39 14.996 73.068 26.802 14.197 11.646 21.855 23.132 27.278 39.085 4.149 12.283 4.945 28.557.798 29.513-4.786 1.116-5.743-5.424-11.327-16.91-6.222-12.603-13.56-22.494-28.556-30.472-20.26-10.847-40.043-10.21-60.143-9.89-15.954.16-25.366-1.596-25.366-1.596s.636 2.234 26.802 7.977c29.034 6.542 57.113 22.973 75.778 62.854 15.955 33.981 7.66 57.913-27.6 47.064 0 0 16.432 36.533 70.194 49.616 6.86 12.124 15.635 23.61 25.686 33.82 29.832 29.834 69.395 46.265 111.512 46.265 42.119 0 81.68-16.43 111.515-46.265 29.832-29.831 46.104-69.396 46.104-111.513.16-42.115-16.272-81.679-46.106-111.51M476.222 549.791c-40.042 0-77.69-15.633-106.089-44.031-28.395-28.397-43.87-66.047-43.87-106.09s15.633-77.692 43.87-106.088c28.398-28.236 66.047-43.871 106.09-43.871s77.692 15.633 106.09 43.87c28.395 28.397 43.87 66.046 43.87 106.09 0 82.798-67.323 150.12-149.96 150.12" style="fill:#4b92db"/><path d="m370.772 344.793 3.35 9.731h100.506l-31.908 17.55 33.661 148.043V354.524h101.623l3.35-9.73z" style="fill:#a5acaf"/><path d="M582.313 293.583c-28.398-28.238-66.047-43.871-106.09-43.871s-77.692 15.635-106.09 43.87c-28.237 28.397-43.87 66.048-43.87 106.09s15.475 77.692 43.87 106.089c28.398 28.398 66.047 44.031 106.09 44.031 82.637 0 149.96-67.322 149.96-150.12 0-40.044-15.475-77.693-43.87-106.09M476.542 536.87c-75.62.157-137.038-61.1-137.198-136.88-.16-75.778 61.1-137.197 136.878-137.358 75.62-.159 137.038 61.262 137.199 136.88 0 75.777-61.262 137.197-136.879 137.358M374.209 354.524h100.419l-31.875 17.532-.033-.143H402.2l-13.401 23.93zm203.709 0-14.592 41.319-13.24-23.93h-39.883L476.381 519.96V354.524z" style="fill:#fffffe"/><path d="M273.934 376.219c-16.75-23.13-43.072-28.715-78.968-38.287-51.369-13.719-51.847-58.707-51.847-58.707s7.657 31.109 67.482 43.233c59.345 12.124 63.335 53.762 63.333 53.76m-108.16-172.932c20.897 37.65 60.94 45.148 90.295 36.853 0 0-38.607-.957-59.665-38.447-21.696-38.289-50.094-48.977-84.234-42.596 0 0 28.556-.798 53.603 44.19m163.839-8.614c-21.855-19.144-52.166-18.666-67.642-9.892 0 0 25.844-5.265 48.976 13.4 18.985 15.316 31.427 27.44 61.899 28.238-14.198-5.423-23.77-14.677-43.233-31.746m243.285 252.379 12.605-22.014-22.973 10.529-17.07-18.826 2.87 25.207-23.131 10.529 24.726 4.945 2.711 25.207 12.444-22.017 24.887 5.107zM483.88 292.784l-7.977-24.089-7.658 24.09-25.366.32 20.578 14.677-7.657 24.089 20.42-15.156 20.579 14.836-7.977-23.93 20.42-14.837zm-77.373 123.798-16.751 18.983-23.132-10.21 12.922 21.856-16.91 18.983 24.727-5.584 12.763 21.857 2.392-25.207 24.728-5.424-23.293-10.05z" style="fill:#c60c30"/></svg>