<svg xmlns="http://www.w3.org/2000/svg" xml:space="preserve" width="720" height="720" viewBox="0 0 720 720"><path d="m684 140.302-63.308 135.969H367.46l-79.855 170.5h-71.221c2.878-49.64 40.477-75.248 40.477-75.248a126.3 126.3 0 0 1 12.629 17.342l116.675-248.563zM247.307 361.643c-20.78-19.274-48.075-31.62-78.216-33.362v118.49h32.905c2.158-55.395 45.31-85.128 45.31-85.128M122.14 446.77h33.11V328.23c-30.303 1.532-57.78 13.778-78.72 33.026 0 0 42.733 30.84 45.61 85.514m-55.28-75.596c-17.858 20.442-29.215 46.71-30.845 75.577l72.457.02c-3.597-47.482-41.612-75.597-41.612-75.597M36 460.888c1.571 28.988 12.949 55.367 30.872 75.88 0 0 40.162-29.567 41.6-75.61zm40.368 85.634c20.957 19.333 48.496 31.639 78.875 33.176V460.439H122.14c-2.877 58.272-45.773 86.083-45.773 86.083m125.628-86.083h-32.373l-.015 119.178c30.122-1.864 57.376-14.321 78.084-33.69 0 0-40.66-26.496-45.696-85.488m55.107 75.687c17.624-20.444 28.788-46.615 30.32-75.342l-71.04-.345c2.16 51.078 40.72 75.687 40.72 75.687" style="fill:#520090"/></svg>