<svg xmlns="http://www.w3.org/2000/svg" xml:space="preserve" width="720" height="720" viewBox="0 0 720 720"><path d="m478.477 183.405 20.714 63.507-15.411 47.193-35.978-110.7H286.531l-28.927 88.735-28.812-88.735H36l60.565 98.349 82.966 254.84h156.116l31.374-96.336 31.287 96.337h170.798L684 183.405z" style="fill:#ffb612"/><path d="M471.369 332.268 413.98 508.602l-97.97-301.627h114.663zm39.473-125.293 12.993 40.084-86.695 266.35h114.574l99.805-306.434zm-299.18 0H78.212l39.91 64.787 69.915 214.408 57.156-175.925zm-7.836 306.434h114.748l36.211-111.254-57.359-176.13z" style="fill:#5a1414"/></svg>